%TF.GenerationSoftware,KiCad,Pcbnew,6.0.4-6f826c9f35~116~ubuntu20.04.1*%
%TF.CreationDate,2023-02-13T09:55:55+00:00*%
%TF.ProjectId,ISM01A,49534d30-3141-42e6-9b69-6361645f7063,REV*%
%TF.SameCoordinates,Original*%
%TF.FileFunction,Legend,Bot*%
%TF.FilePolarity,Positive*%
%FSLAX46Y46*%
G04 Gerber Fmt 4.6, Leading zero omitted, Abs format (unit mm)*
G04 Created by KiCad (PCBNEW 6.0.4-6f826c9f35~116~ubuntu20.04.1) date 2023-02-13 09:55:55*
%MOMM*%
%LPD*%
G01*
G04 APERTURE LIST*
%ADD10C,0.150000*%
%ADD11C,0.120000*%
G04 APERTURE END LIST*
D10*
%TO.C,U1*%
X11242523Y20779619D02*
X12270619Y20779619D01*
X12391571Y20719142D01*
X12452047Y20658666D01*
X12512523Y20537714D01*
X12512523Y20295809D01*
X12452047Y20174857D01*
X12391571Y20114380D01*
X12270619Y20053904D01*
X11242523Y20053904D01*
X12512523Y18783904D02*
X12512523Y19509619D01*
X12512523Y19146761D02*
X11242523Y19146761D01*
X11423952Y19267714D01*
X11544904Y19388666D01*
X11605380Y19509619D01*
%TO.C,Q1*%
X47847238Y15200380D02*
X47942476Y15248000D01*
X48037714Y15343238D01*
X48180571Y15486095D01*
X48275809Y15533714D01*
X48371047Y15533714D01*
X48323428Y15295619D02*
X48418666Y15343238D01*
X48513904Y15438476D01*
X48561523Y15628952D01*
X48561523Y15962285D01*
X48513904Y16152761D01*
X48418666Y16248000D01*
X48323428Y16295619D01*
X48132952Y16295619D01*
X48037714Y16248000D01*
X47942476Y16152761D01*
X47894857Y15962285D01*
X47894857Y15628952D01*
X47942476Y15438476D01*
X48037714Y15343238D01*
X48132952Y15295619D01*
X48323428Y15295619D01*
X46942476Y15295619D02*
X47513904Y15295619D01*
X47228190Y15295619D02*
X47228190Y16295619D01*
X47323428Y16152761D01*
X47418666Y16057523D01*
X47513904Y16009904D01*
%TO.C,Q2*%
X44037238Y15200380D02*
X44132476Y15248000D01*
X44227714Y15343238D01*
X44370571Y15486095D01*
X44465809Y15533714D01*
X44561047Y15533714D01*
X44513428Y15295619D02*
X44608666Y15343238D01*
X44703904Y15438476D01*
X44751523Y15628952D01*
X44751523Y15962285D01*
X44703904Y16152761D01*
X44608666Y16248000D01*
X44513428Y16295619D01*
X44322952Y16295619D01*
X44227714Y16248000D01*
X44132476Y16152761D01*
X44084857Y15962285D01*
X44084857Y15628952D01*
X44132476Y15438476D01*
X44227714Y15343238D01*
X44322952Y15295619D01*
X44513428Y15295619D01*
X43703904Y16200380D02*
X43656285Y16248000D01*
X43561047Y16295619D01*
X43322952Y16295619D01*
X43227714Y16248000D01*
X43180095Y16200380D01*
X43132476Y16105142D01*
X43132476Y16009904D01*
X43180095Y15867047D01*
X43751523Y15295619D01*
X43132476Y15295619D01*
%TO.C,C21*%
X38330142Y12500857D02*
X38377761Y12548476D01*
X38425380Y12691333D01*
X38425380Y12786571D01*
X38377761Y12929428D01*
X38282523Y13024666D01*
X38187285Y13072285D01*
X37996809Y13119904D01*
X37853952Y13119904D01*
X37663476Y13072285D01*
X37568238Y13024666D01*
X37473000Y12929428D01*
X37425380Y12786571D01*
X37425380Y12691333D01*
X37473000Y12548476D01*
X37520619Y12500857D01*
X37520619Y12119904D02*
X37473000Y12072285D01*
X37425380Y11977047D01*
X37425380Y11738952D01*
X37473000Y11643714D01*
X37520619Y11596095D01*
X37615857Y11548476D01*
X37711095Y11548476D01*
X37853952Y11596095D01*
X38425380Y12167523D01*
X38425380Y11548476D01*
X38425380Y10596095D02*
X38425380Y11167523D01*
X38425380Y10881809D02*
X37425380Y10881809D01*
X37568238Y10977047D01*
X37663476Y11072285D01*
X37711095Y11167523D01*
%TO.C,D1*%
X8834380Y28043095D02*
X7834380Y28043095D01*
X7834380Y27805000D01*
X7882000Y27662142D01*
X7977238Y27566904D01*
X8072476Y27519285D01*
X8262952Y27471666D01*
X8405809Y27471666D01*
X8596285Y27519285D01*
X8691523Y27566904D01*
X8786761Y27662142D01*
X8834380Y27805000D01*
X8834380Y28043095D01*
X8834380Y26519285D02*
X8834380Y27090714D01*
X8834380Y26805000D02*
X7834380Y26805000D01*
X7977238Y26900238D01*
X8072476Y26995476D01*
X8120095Y27090714D01*
%TO.C,Y2*%
X29051190Y28217809D02*
X29051190Y27741619D01*
X29384523Y28741619D02*
X29051190Y28217809D01*
X28717857Y28741619D01*
X28432142Y28646380D02*
X28384523Y28694000D01*
X28289285Y28741619D01*
X28051190Y28741619D01*
X27955952Y28694000D01*
X27908333Y28646380D01*
X27860714Y28551142D01*
X27860714Y28455904D01*
X27908333Y28313047D01*
X28479761Y27741619D01*
X27860714Y27741619D01*
%TO.C,U2*%
X22820380Y18541904D02*
X23629904Y18541904D01*
X23725142Y18494285D01*
X23772761Y18446666D01*
X23820380Y18351428D01*
X23820380Y18160952D01*
X23772761Y18065714D01*
X23725142Y18018095D01*
X23629904Y17970476D01*
X22820380Y17970476D01*
X22915619Y17541904D02*
X22868000Y17494285D01*
X22820380Y17399047D01*
X22820380Y17160952D01*
X22868000Y17065714D01*
X22915619Y17018095D01*
X23010857Y16970476D01*
X23106095Y16970476D01*
X23248952Y17018095D01*
X23820380Y17589523D01*
X23820380Y16970476D01*
D11*
%TO.C,R15*%
X26543000Y11684000D02*
X26543000Y12446000D01*
D10*
X26543000Y10541000D02*
X28067000Y10541000D01*
D11*
X28067000Y11684000D02*
X28067000Y12446000D01*
D10*
X28067000Y13589000D02*
X26543000Y13589000D01*
D11*
%TO.C,R17*%
X29083000Y11684000D02*
X29083000Y12446000D01*
D10*
X30607000Y13589000D02*
X29083000Y13589000D01*
D11*
X30607000Y11684000D02*
X30607000Y12446000D01*
D10*
X29083000Y10541000D02*
X30607000Y10541000D01*
%TO.C,U1*%
X7493000Y16129000D02*
X7493000Y23241000D01*
X10541000Y16129000D02*
X7493000Y16129000D01*
X16611600Y17678400D02*
X16611600Y21742400D01*
X13589000Y16129000D02*
X14351000Y16129000D01*
X16637000Y21717000D02*
X14351000Y23241000D01*
X7493000Y23241000D02*
X10541000Y23241000D01*
X14351000Y16129000D02*
X16637000Y17653000D01*
X14351000Y23241000D02*
X13589000Y23241000D01*
D11*
%TO.C,Q1*%
X48766000Y11374000D02*
X48766000Y12304000D01*
X48766000Y14534000D02*
X48766000Y13604000D01*
X48766000Y14534000D02*
X47306000Y14534000D01*
X48766000Y11374000D02*
X46606000Y11374000D01*
D10*
%TO.C,R19*%
X33274000Y33972500D02*
X31750000Y33972500D01*
D11*
X33274000Y32829500D02*
X33274000Y32067500D01*
D10*
X31750000Y30924500D02*
X33274000Y30924500D01*
D11*
X31750000Y32829500D02*
X31750000Y32067500D01*
%TO.C,Q2*%
X44956000Y14534000D02*
X44956000Y13604000D01*
X44956000Y11374000D02*
X44956000Y12304000D01*
X44956000Y14534000D02*
X43496000Y14534000D01*
X44956000Y11374000D02*
X42796000Y11374000D01*
D10*
%TO.C,C1*%
X13017500Y24130000D02*
X13017500Y25654000D01*
D11*
X11112500Y24130000D02*
X11874500Y24130000D01*
X11112500Y25654000D02*
X11874500Y25654000D01*
D10*
X9969500Y25654000D02*
X9969500Y24130000D01*
%TO.C,C3*%
X18542000Y21145500D02*
X17018000Y21145500D01*
D11*
X18542000Y20002500D02*
X18542000Y19240500D01*
D10*
X17018000Y18097500D02*
X18542000Y18097500D01*
D11*
X17018000Y20002500D02*
X17018000Y19240500D01*
%TO.C,C5*%
X6477000Y20066000D02*
X6477000Y19304000D01*
D10*
X4953000Y18161000D02*
X6477000Y18161000D01*
X6477000Y21209000D02*
X4953000Y21209000D01*
D11*
X4953000Y20066000D02*
X4953000Y19304000D01*
%TO.C,C14*%
X18923000Y20066000D02*
X18923000Y19304000D01*
X20447000Y20066000D02*
X20447000Y19304000D01*
D10*
X18923000Y18161000D02*
X20447000Y18161000D01*
X20447000Y21209000D02*
X18923000Y21209000D01*
D11*
%TO.C,C15*%
X34036000Y16256000D02*
X34036000Y15494000D01*
D10*
X34036000Y17399000D02*
X32512000Y17399000D01*
X32512000Y14351000D02*
X34036000Y14351000D01*
D11*
X32512000Y16256000D02*
X32512000Y15494000D01*
%TO.C,C16*%
X20447000Y23114000D02*
X20447000Y23876000D01*
X18923000Y23114000D02*
X18923000Y23876000D01*
D10*
X20447000Y25019000D02*
X18923000Y25019000D01*
X18923000Y21971000D02*
X20447000Y21971000D01*
D11*
%TO.C,C18*%
X22352000Y20066000D02*
X22352000Y19304000D01*
D10*
X20828000Y18161000D02*
X22352000Y18161000D01*
D11*
X20828000Y20066000D02*
X20828000Y19304000D01*
D10*
X22352000Y21209000D02*
X20828000Y21209000D01*
%TO.C,C21*%
X39624000Y13890000D02*
X39624000Y9826000D01*
X39624000Y13890000D02*
X39751000Y13890000D01*
X41148000Y13890000D02*
X39624000Y13890000D01*
X41148000Y9826000D02*
X41148000Y13890000D01*
X39624000Y9826000D02*
X41148000Y9826000D01*
%TO.C,C22*%
X33147000Y4064000D02*
X31623000Y4064000D01*
D11*
X33147000Y2921000D02*
X33147000Y2159000D01*
X31623000Y2921000D02*
X31623000Y2159000D01*
D10*
X31623000Y1016000D02*
X33147000Y1016000D01*
%TO.C,C23*%
X30607000Y4064000D02*
X29083000Y4064000D01*
D11*
X29083000Y2921000D02*
X29083000Y2159000D01*
X30607000Y2921000D02*
X30607000Y2159000D01*
D10*
X29083000Y1016000D02*
X30607000Y1016000D01*
D11*
%TO.C,C27*%
X18923000Y2921000D02*
X18923000Y2159000D01*
X20447000Y2921000D02*
X20447000Y2159000D01*
D10*
X20447000Y4064000D02*
X18923000Y4064000D01*
X18923000Y1016000D02*
X20447000Y1016000D01*
%TO.C,C28*%
X17907000Y4064000D02*
X16383000Y4064000D01*
X16383000Y1016000D02*
X17907000Y1016000D01*
D11*
X17907000Y2921000D02*
X17907000Y2159000D01*
X16383000Y2921000D02*
X16383000Y2159000D01*
%TO.C,D1*%
X9255000Y29055000D02*
X9255000Y24755000D01*
X7255000Y24755000D02*
X7255000Y29055000D01*
X9255000Y24755000D02*
X7255000Y24755000D01*
D10*
%TO.C,L8*%
X36703000Y18796000D02*
X38227000Y18796000D01*
D11*
X36703000Y19939000D02*
X36703000Y20701000D01*
D10*
X38227000Y21844000D02*
X36703000Y21844000D01*
D11*
X38227000Y19939000D02*
X38227000Y20701000D01*
D10*
%TO.C,R1*%
X40957500Y15240000D02*
X40957500Y16764000D01*
D11*
X39814500Y16764000D02*
X39052500Y16764000D01*
D10*
X37909500Y16764000D02*
X37909500Y15240000D01*
D11*
X39814500Y15240000D02*
X39052500Y15240000D01*
%TO.C,R6*%
X24003000Y11684000D02*
X24003000Y12446000D01*
D10*
X24003000Y10541000D02*
X25527000Y10541000D01*
X25527000Y13589000D02*
X24003000Y13589000D01*
D11*
X25527000Y11684000D02*
X25527000Y12446000D01*
%TO.C,R7*%
X20447000Y11684000D02*
X20447000Y12446000D01*
D10*
X18923000Y10541000D02*
X20447000Y10541000D01*
X20447000Y13589000D02*
X18923000Y13589000D01*
D11*
X18923000Y11684000D02*
X18923000Y12446000D01*
D10*
%TO.C,R8*%
X16383000Y10541000D02*
X17907000Y10541000D01*
X17907000Y13589000D02*
X16383000Y13589000D01*
D11*
X17907000Y11684000D02*
X17907000Y12446000D01*
X16383000Y11684000D02*
X16383000Y12446000D01*
D10*
%TO.C,R9*%
X13843000Y10541000D02*
X15367000Y10541000D01*
D11*
X13843000Y11684000D02*
X13843000Y12446000D01*
D10*
X15367000Y13589000D02*
X13843000Y13589000D01*
D11*
X15367000Y11684000D02*
X15367000Y12446000D01*
D10*
%TO.C,R10*%
X11303000Y10541000D02*
X12827000Y10541000D01*
D11*
X12827000Y11684000D02*
X12827000Y12446000D01*
X11303000Y11684000D02*
X11303000Y12446000D01*
D10*
X12827000Y13589000D02*
X11303000Y13589000D01*
%TO.C,R13*%
X35687000Y13589000D02*
X34163000Y13589000D01*
D11*
X34163000Y11684000D02*
X34163000Y12446000D01*
D10*
X34163000Y10541000D02*
X35687000Y10541000D01*
D11*
X35687000Y11684000D02*
X35687000Y12446000D01*
%TO.C,R16*%
X31623000Y11684000D02*
X31623000Y12446000D01*
D10*
X31623000Y10541000D02*
X33147000Y10541000D01*
D11*
X33147000Y11684000D02*
X33147000Y12446000D01*
D10*
X33147000Y13589000D02*
X31623000Y13589000D01*
D11*
%TO.C,R20*%
X17272000Y27495500D02*
X17272000Y28257500D01*
X15748000Y27495500D02*
X15748000Y28257500D01*
D10*
X17272000Y29400500D02*
X15748000Y29400500D01*
X15748000Y26352500D02*
X17272000Y26352500D01*
D11*
%TO.C,R21*%
X26606500Y14224000D02*
X25844500Y14224000D01*
D10*
X24701500Y15748000D02*
X24701500Y14224000D01*
X27749500Y14224000D02*
X27749500Y15748000D01*
D11*
X26606500Y15748000D02*
X25844500Y15748000D01*
D10*
%TO.C,R22*%
X49276000Y10668000D02*
X47752000Y10668000D01*
X47752000Y7620000D02*
X49276000Y7620000D01*
D11*
X49276000Y8763000D02*
X49276000Y9525000D01*
X47752000Y8763000D02*
X47752000Y9525000D01*
D10*
%TO.C,R23*%
X44196000Y7683500D02*
X45720000Y7683500D01*
D11*
X44196000Y8826500D02*
X44196000Y9588500D01*
D10*
X45720000Y10731500D02*
X44196000Y10731500D01*
D11*
X45720000Y8826500D02*
X45720000Y9588500D01*
D10*
%TO.C,C20*%
X32004000Y17462500D02*
X30480000Y17462500D01*
D11*
X30480000Y16319500D02*
X30480000Y15557500D01*
D10*
X30480000Y14414500D02*
X32004000Y14414500D01*
D11*
X32004000Y16319500D02*
X32004000Y15557500D01*
%TO.C,C17*%
X34544000Y16256000D02*
X34544000Y15494000D01*
X36068000Y16256000D02*
X36068000Y15494000D01*
D10*
X34544000Y14351000D02*
X36068000Y14351000D01*
X36068000Y17399000D02*
X34544000Y17399000D01*
%TO.C,C2*%
X9969500Y27686000D02*
X9969500Y26162000D01*
D11*
X11112500Y27686000D02*
X11874500Y27686000D01*
D10*
X13017500Y26162000D02*
X13017500Y27686000D01*
D11*
X11112500Y26162000D02*
X11874500Y26162000D01*
%TO.C,R18*%
X27813000Y32766000D02*
X27813000Y32004000D01*
D10*
X29337000Y33909000D02*
X27813000Y33909000D01*
D11*
X29337000Y32766000D02*
X29337000Y32004000D01*
D10*
X27813000Y30861000D02*
X29337000Y30861000D01*
D11*
%TO.C,C25*%
X29718000Y32766000D02*
X29718000Y32004000D01*
D10*
X29718000Y30861000D02*
X31242000Y30861000D01*
D11*
X31242000Y32766000D02*
X31242000Y32004000D01*
D10*
X31242000Y33909000D02*
X29718000Y33909000D01*
%TO.C,C26*%
X35306000Y37782500D02*
X33782000Y37782500D01*
D11*
X35306000Y35877500D02*
X35306000Y36639500D01*
X33782000Y35877500D02*
X33782000Y36639500D01*
D10*
X33782000Y34734500D02*
X35306000Y34734500D01*
D11*
%TO.C,R5*%
X27432000Y32766000D02*
X27432000Y32004000D01*
D10*
X25908000Y30861000D02*
X27432000Y30861000D01*
D11*
X25908000Y32766000D02*
X25908000Y32004000D01*
D10*
X27432000Y33909000D02*
X25908000Y33909000D01*
D11*
%TO.C,R3*%
X20828000Y32766000D02*
X20828000Y32004000D01*
D10*
X20828000Y30861000D02*
X22352000Y30861000D01*
D11*
X22352000Y32766000D02*
X22352000Y32004000D01*
D10*
X22352000Y33909000D02*
X20828000Y33909000D01*
D11*
%TO.C,R4*%
X23368000Y32766000D02*
X23368000Y32004000D01*
D10*
X24892000Y33909000D02*
X23368000Y33909000D01*
D11*
X24892000Y32766000D02*
X24892000Y32004000D01*
D10*
X23368000Y30861000D02*
X24892000Y30861000D01*
%TO.C,R14*%
X15748000Y30861000D02*
X17272000Y30861000D01*
D11*
X15748000Y32766000D02*
X15748000Y32004000D01*
D10*
X17272000Y33909000D02*
X15748000Y33909000D01*
D11*
X17272000Y32766000D02*
X17272000Y32004000D01*
D10*
%TO.C,R2*%
X18288000Y30861000D02*
X19812000Y30861000D01*
X19812000Y33909000D02*
X18288000Y33909000D01*
D11*
X18288000Y32766000D02*
X18288000Y32004000D01*
X19812000Y32766000D02*
X19812000Y32004000D01*
%TO.C,R11*%
X10668000Y32766000D02*
X10668000Y32004000D01*
D10*
X12192000Y33909000D02*
X10668000Y33909000D01*
X10668000Y30861000D02*
X12192000Y30861000D01*
D11*
X12192000Y32766000D02*
X12192000Y32004000D01*
D10*
%TO.C,R12*%
X13208000Y30861000D02*
X14732000Y30861000D01*
D11*
X14732000Y32766000D02*
X14732000Y32004000D01*
X13208000Y32766000D02*
X13208000Y32004000D01*
D10*
X14732000Y33909000D02*
X13208000Y33909000D01*
D11*
%TO.C,Y2*%
X31675000Y27610000D02*
X31275000Y27610000D01*
X29475000Y26210000D02*
X29475000Y25970000D01*
X25875000Y28410000D02*
X25875000Y27610000D01*
X31275000Y27610000D02*
X31275000Y28410000D01*
X29475000Y29810000D02*
X27675000Y29810000D01*
X27675000Y26210000D02*
X29475000Y26210000D01*
%TO.C,U2*%
X30415000Y23565000D02*
X29940000Y23565000D01*
X30415000Y18820000D02*
X30415000Y18345000D01*
X24195000Y18820000D02*
X24195000Y18345000D01*
X24195000Y18345000D02*
X24670000Y18345000D01*
X30415000Y23090000D02*
X30415000Y23565000D01*
X30415000Y18345000D02*
X29940000Y18345000D01*
X24195000Y23090000D02*
X24195000Y23565000D01*
%TO.C,L7*%
X38608000Y22326600D02*
X37846000Y22326600D01*
D10*
X36703000Y23850600D02*
X36703000Y22326600D01*
D11*
X38608000Y23850600D02*
X37846000Y23850600D01*
D10*
X39751000Y22326600D02*
X39751000Y23850600D01*
D11*
%TO.C,L6*%
X41656000Y27432000D02*
X40894000Y27432000D01*
X41656000Y25908000D02*
X40894000Y25908000D01*
D10*
X42799000Y25908000D02*
X42799000Y27432000D01*
X39751000Y27432000D02*
X39751000Y25908000D01*
%TO.C,L9*%
X38989000Y28448000D02*
X38989000Y29972000D01*
X35941000Y29972000D02*
X35941000Y28448000D01*
D11*
X37846000Y29972000D02*
X37084000Y29972000D01*
X37846000Y28448000D02*
X37084000Y28448000D01*
%TO.C,L5*%
X42418000Y23850600D02*
X41656000Y23850600D01*
X42418000Y22326600D02*
X41656000Y22326600D01*
D10*
X43561000Y22326600D02*
X43561000Y23850600D01*
X40513000Y23850600D02*
X40513000Y22326600D01*
%TO.C,L10*%
X35052000Y29464000D02*
X33528000Y29464000D01*
D11*
X35052000Y28321000D02*
X35052000Y27559000D01*
D10*
X33528000Y26416000D02*
X35052000Y26416000D01*
D11*
X33528000Y28321000D02*
X33528000Y27559000D01*
%TO.C,C7*%
X45339000Y20294600D02*
X45339000Y19532600D01*
D10*
X43815000Y18389600D02*
X45339000Y18389600D01*
D11*
X43815000Y20294600D02*
X43815000Y19532600D01*
D10*
X45339000Y21437600D02*
X43815000Y21437600D01*
D11*
%TO.C,C9*%
X40259000Y20294600D02*
X40259000Y19532600D01*
D10*
X40259000Y21437600D02*
X38735000Y21437600D01*
X38735000Y18389600D02*
X40259000Y18389600D01*
D11*
X38735000Y20294600D02*
X38735000Y19532600D01*
%TO.C,C13*%
X37338000Y31940500D02*
X37338000Y32702500D01*
D10*
X35814000Y30797500D02*
X37338000Y30797500D01*
X37338000Y33845500D02*
X35814000Y33845500D01*
D11*
X35814000Y31940500D02*
X35814000Y32702500D01*
D10*
%TO.C,C10*%
X39878000Y28321000D02*
X41402000Y28321000D01*
D11*
X39878000Y29464000D02*
X39878000Y30226000D01*
X41402000Y29464000D02*
X41402000Y30226000D01*
D10*
X41402000Y31369000D02*
X39878000Y31369000D01*
%TO.C,C11*%
X34163000Y20701000D02*
X35687000Y20701000D01*
D11*
X34163000Y21844000D02*
X34163000Y22606000D01*
D10*
X35687000Y23749000D02*
X34163000Y23749000D01*
D11*
X35687000Y21844000D02*
X35687000Y22606000D01*
D10*
%TO.C,C4*%
X47625000Y18389600D02*
X49149000Y18389600D01*
D11*
X47625000Y20294600D02*
X47625000Y19532600D01*
X49149000Y20294600D02*
X49149000Y19532600D01*
D10*
X49149000Y21437600D02*
X47625000Y21437600D01*
%TO.C,C12*%
X35941000Y27432000D02*
X35941000Y25908000D01*
D11*
X37084000Y27432000D02*
X37846000Y27432000D01*
X37084000Y25908000D02*
X37846000Y25908000D01*
D10*
X38989000Y25908000D02*
X38989000Y27432000D01*
D11*
%TO.C,C6*%
X46228000Y29464000D02*
X46228000Y30226000D01*
X47752000Y29464000D02*
X47752000Y30226000D01*
D10*
X47752000Y31369000D02*
X46228000Y31369000D01*
X46228000Y28321000D02*
X47752000Y28321000D01*
%TO.C,C8*%
X43053000Y28321000D02*
X44577000Y28321000D01*
D11*
X43053000Y29464000D02*
X43053000Y30226000D01*
X44577000Y29464000D02*
X44577000Y30226000D01*
D10*
X44577000Y31369000D02*
X43053000Y31369000D01*
D11*
%TO.C,L3*%
X46228000Y22326600D02*
X45466000Y22326600D01*
D10*
X47371000Y22326600D02*
X47371000Y23850600D01*
X44323000Y23850600D02*
X44323000Y22326600D01*
D11*
X46228000Y23850600D02*
X45466000Y23850600D01*
D10*
%TO.C,L4*%
X43561000Y27432000D02*
X43561000Y25908000D01*
X46609000Y25908000D02*
X46609000Y27432000D01*
D11*
X45466000Y27432000D02*
X44704000Y27432000D01*
X45466000Y25908000D02*
X44704000Y25908000D01*
D10*
%TO.C,L1*%
X48006000Y23876000D02*
X48006000Y22352000D01*
D11*
X49911000Y22352000D02*
X49149000Y22352000D01*
D10*
X51054000Y22352000D02*
X51054000Y23876000D01*
D11*
X49911000Y23876000D02*
X49149000Y23876000D01*
D10*
%TO.C,L2*%
X50419000Y25908000D02*
X50419000Y27432000D01*
X47371000Y27432000D02*
X47371000Y25908000D01*
D11*
X49276000Y25908000D02*
X48514000Y25908000D01*
X49276000Y27432000D02*
X48514000Y27432000D01*
D10*
%TO.C,C19*%
X38227000Y14224000D02*
X36703000Y14224000D01*
D11*
X38227000Y13081000D02*
X38227000Y12319000D01*
X36703000Y13081000D02*
X36703000Y12319000D01*
D10*
X36703000Y11176000D02*
X38227000Y11176000D01*
%TD*%
M02*
