%TF.GenerationSoftware,KiCad,Pcbnew,6.0.4-6f826c9f35~116~ubuntu20.04.1*%
%TF.CreationDate,2023-02-13T09:55:55+00:00*%
%TF.ProjectId,ISM01A,49534d30-3141-42e6-9b69-6361645f7063,REV*%
%TF.SameCoordinates,Original*%
%TF.FileFunction,Soldermask,Top*%
%TF.FilePolarity,Negative*%
%FSLAX46Y46*%
G04 Gerber Fmt 4.6, Leading zero omitted, Abs format (unit mm)*
G04 Created by KiCad (PCBNEW 6.0.4-6f826c9f35~116~ubuntu20.04.1) date 2023-02-13 09:55:55*
%MOMM*%
%LPD*%
G01*
G04 APERTURE LIST*
G04 Aperture macros list*
%AMRoundRect*
0 Rectangle with rounded corners*
0 $1 Rounding radius*
0 $2 $3 $4 $5 $6 $7 $8 $9 X,Y pos of 4 corners*
0 Add a 4 corners polygon primitive as box body*
4,1,4,$2,$3,$4,$5,$6,$7,$8,$9,$2,$3,0*
0 Add four circle primitives for the rounded corners*
1,1,$1+$1,$2,$3*
1,1,$1+$1,$4,$5*
1,1,$1+$1,$6,$7*
1,1,$1+$1,$8,$9*
0 Add four rect primitives between the rounded corners*
20,1,$1+$1,$2,$3,$4,$5,0*
20,1,$1+$1,$4,$5,$6,$7,0*
20,1,$1+$1,$6,$7,$8,$9,0*
20,1,$1+$1,$8,$9,$2,$3,0*%
G04 Aperture macros list end*
%ADD10RoundRect,0.199999X0.762000X-0.762000X0.762000X0.762000X-0.762000X0.762000X-0.762000X-0.762000X0*%
%ADD11RoundRect,0.199999X0.762000X0.762000X-0.762000X0.762000X-0.762000X-0.762000X0.762000X-0.762000X0*%
%ADD12RoundRect,0.199999X-0.762000X-0.762000X0.762000X-0.762000X0.762000X0.762000X-0.762000X0.762000X0*%
%ADD13RoundRect,0.199999X-0.762000X0.762000X-0.762000X-0.762000X0.762000X-0.762000X0.762000X0.762000X0*%
%ADD14C,6.399998*%
%ADD15C,2.899998*%
%ADD16C,3.099998*%
%ADD17C,2.700000*%
G04 APERTURE END LIST*
D10*
%TO.C,J17*%
X34925000Y6350000D03*
X34925000Y8890000D03*
%TD*%
D11*
%TO.C,J24*%
X41148000Y4064000D03*
X41148000Y6604000D03*
%TD*%
%TO.C,J25*%
X38608000Y4064000D03*
X38608000Y6604000D03*
%TD*%
D12*
%TO.C,J1*%
X2540000Y29210000D03*
X5080000Y29210000D03*
X2540000Y26670000D03*
X5080000Y26670000D03*
X2540000Y24130000D03*
X5080000Y24130000D03*
%TD*%
%TO.C,J4*%
X2540000Y16129000D03*
X5080000Y16129000D03*
X2540000Y13589000D03*
X5080000Y13589000D03*
X2540000Y11049000D03*
X5080000Y11049000D03*
%TD*%
D10*
%TO.C,J10*%
X24765000Y6350000D03*
X24765000Y8890000D03*
%TD*%
D13*
%TO.C,J11*%
X19685000Y8890000D03*
X19685000Y6350000D03*
%TD*%
D10*
%TO.C,J12*%
X17145000Y6350000D03*
X17145000Y8890000D03*
%TD*%
D13*
%TO.C,J13*%
X14605000Y8890000D03*
X14605000Y6350000D03*
%TD*%
%TO.C,J14*%
X12065000Y8890000D03*
X12065000Y6350000D03*
%TD*%
D10*
%TO.C,J19*%
X27305000Y6350000D03*
X27305000Y8890000D03*
%TD*%
%TO.C,J20*%
X32385000Y6350000D03*
X32385000Y8890000D03*
%TD*%
%TO.C,J21*%
X29845000Y6350000D03*
X29845000Y8890000D03*
%TD*%
D14*
%TO.C,M1*%
X5080000Y35560000D03*
%TD*%
%TO.C,M2*%
X55880000Y5080000D03*
%TD*%
%TO.C,M3*%
X5080000Y5080000D03*
%TD*%
%TO.C,M4*%
X55880000Y35560000D03*
%TD*%
D15*
%TO.C,J3*%
X55880000Y26670000D03*
D16*
X53340000Y29210000D03*
X58420000Y24130000D03*
X58420000Y29210000D03*
X53340000Y24130000D03*
%TD*%
D10*
%TO.C,J26*%
X22225000Y6350000D03*
X22225000Y8890000D03*
%TD*%
%TO.C,J8*%
X24130000Y35560000D03*
X24130000Y38100000D03*
%TD*%
%TO.C,J7*%
X21590000Y35560000D03*
X21590000Y38100000D03*
%TD*%
%TO.C,J6*%
X19050000Y35560000D03*
X19050000Y38100000D03*
%TD*%
%TO.C,J9*%
X26670000Y35560000D03*
X26670000Y38100000D03*
%TD*%
%TO.C,J18*%
X16510000Y35560000D03*
X16510000Y38100000D03*
%TD*%
%TO.C,J22*%
X29210000Y35560000D03*
X29210000Y38100000D03*
%TD*%
%TO.C,J16*%
X13970000Y35560000D03*
X13970000Y38100000D03*
%TD*%
%TO.C,J15*%
X11430000Y35560000D03*
X11430000Y38100000D03*
%TD*%
%TO.C,J23*%
X31750000Y35560000D03*
X31750000Y38100000D03*
%TD*%
D15*
%TO.C,J2*%
X55880000Y15875000D03*
D16*
X53340000Y18415000D03*
X58420000Y13335000D03*
X53340000Y13335000D03*
X58420000Y18415000D03*
%TD*%
D17*
%TO.C,D3*%
X44958000Y4318000D03*
%TD*%
%TO.C,D2*%
X48514000Y4318000D03*
%TD*%
M02*
