%TF.GenerationSoftware,KiCad,Pcbnew,6.0.4-6f826c9f35~116~ubuntu20.04.1*%
%TF.CreationDate,2023-02-13T09:55:55+00:00*%
%TF.ProjectId,ISM01A,49534d30-3141-42e6-9b69-6361645f7063,REV*%
%TF.SameCoordinates,Original*%
%TF.FileFunction,Paste,Bot*%
%TF.FilePolarity,Positive*%
%FSLAX46Y46*%
G04 Gerber Fmt 4.6, Leading zero omitted, Abs format (unit mm)*
G04 Created by KiCad (PCBNEW 6.0.4-6f826c9f35~116~ubuntu20.04.1) date 2023-02-13 09:55:55*
%MOMM*%
%LPD*%
G01*
G04 APERTURE LIST*
G04 Aperture macros list*
%AMRoundRect*
0 Rectangle with rounded corners*
0 $1 Rounding radius*
0 $2 $3 $4 $5 $6 $7 $8 $9 X,Y pos of 4 corners*
0 Add a 4 corners polygon primitive as box body*
4,1,4,$2,$3,$4,$5,$6,$7,$8,$9,$2,$3,0*
0 Add four circle primitives for the rounded corners*
1,1,$1+$1,$2,$3*
1,1,$1+$1,$4,$5*
1,1,$1+$1,$6,$7*
1,1,$1+$1,$8,$9*
0 Add four rect primitives between the rounded corners*
20,1,$1+$1,$2,$3,$4,$5,0*
20,1,$1+$1,$4,$5,$6,$7,0*
20,1,$1+$1,$6,$7,$8,$9,0*
20,1,$1+$1,$8,$9,$2,$3,0*%
G04 Aperture macros list end*
%ADD10R,1.397000X0.889000*%
%ADD11R,2.032000X1.016000*%
%ADD12R,2.032000X3.657600*%
%ADD13R,0.900000X0.800000*%
%ADD14R,1.500000X0.950000*%
%ADD15R,0.889000X1.397000*%
%ADD16R,1.500000X1.300000*%
%ADD17R,3.000000X0.700000*%
%ADD18R,1.700000X1.300000*%
%ADD19R,1.000000X1.800000*%
%ADD20R,1.800000X1.200000*%
%ADD21RoundRect,0.250000X-0.279307X0.447137X-0.279307X-0.447137X0.279307X-0.447137X0.279307X0.447137X0*%
%ADD22RoundRect,0.062500X-0.062500X0.362500X-0.062500X-0.362500X0.062500X-0.362500X0.062500X0.362500X0*%
%ADD23RoundRect,0.062500X-0.362500X0.062500X-0.362500X-0.062500X0.362500X-0.062500X0.362500X0.062500X0*%
G04 APERTURE END LIST*
D10*
%TO.C,R15*%
X27305000Y11112500D03*
X27305000Y13017500D03*
%TD*%
%TO.C,R17*%
X29845000Y11112500D03*
X29845000Y13017500D03*
%TD*%
D11*
%TO.C,U1*%
X8763000Y17399000D03*
X8763000Y19685000D03*
X8763000Y21971000D03*
D12*
X15367000Y19685000D03*
%TD*%
D13*
%TO.C,Q1*%
X47006000Y12004000D03*
X47006000Y13904000D03*
X49006000Y12954000D03*
%TD*%
D14*
%TO.C,D3*%
X44958000Y6393000D03*
X44958000Y2243000D03*
%TD*%
%TO.C,D2*%
X48514000Y6393000D03*
X48514000Y2243000D03*
%TD*%
D10*
%TO.C,R19*%
X32512000Y33401000D03*
X32512000Y31496000D03*
%TD*%
D13*
%TO.C,Q2*%
X43196000Y12004000D03*
X43196000Y13904000D03*
X45196000Y12954000D03*
%TD*%
D15*
%TO.C,C1*%
X10541000Y24892000D03*
X12446000Y24892000D03*
%TD*%
D10*
%TO.C,C3*%
X17780000Y20574000D03*
X17780000Y18669000D03*
%TD*%
%TO.C,C5*%
X5715000Y20637500D03*
X5715000Y18732500D03*
%TD*%
%TO.C,C14*%
X19685000Y20637500D03*
X19685000Y18732500D03*
%TD*%
%TO.C,C15*%
X33274000Y16827500D03*
X33274000Y14922500D03*
%TD*%
%TO.C,C16*%
X19685000Y22542500D03*
X19685000Y24447500D03*
%TD*%
%TO.C,C18*%
X21590000Y20637500D03*
X21590000Y18732500D03*
%TD*%
D16*
%TO.C,C21*%
X40386000Y13208000D03*
D17*
X40386000Y11858000D03*
D16*
X40386000Y10508000D03*
%TD*%
D10*
%TO.C,C22*%
X32385000Y3492500D03*
X32385000Y1587500D03*
%TD*%
%TO.C,C23*%
X29845000Y3492500D03*
X29845000Y1587500D03*
%TD*%
%TO.C,C27*%
X19685000Y3492500D03*
X19685000Y1587500D03*
%TD*%
%TO.C,C28*%
X17145000Y3492500D03*
X17145000Y1587500D03*
%TD*%
D18*
%TO.C,D1*%
X8255000Y25555000D03*
X8255000Y29055000D03*
%TD*%
D10*
%TO.C,L8*%
X37465000Y19367500D03*
X37465000Y21272500D03*
%TD*%
D15*
%TO.C,R1*%
X40386000Y16002000D03*
X38481000Y16002000D03*
%TD*%
D10*
%TO.C,R6*%
X24765000Y11112500D03*
X24765000Y13017500D03*
%TD*%
%TO.C,R7*%
X19685000Y11112500D03*
X19685000Y13017500D03*
%TD*%
%TO.C,R8*%
X17145000Y11112500D03*
X17145000Y13017500D03*
%TD*%
%TO.C,R9*%
X14605000Y11112500D03*
X14605000Y13017500D03*
%TD*%
%TO.C,R10*%
X12065000Y11112500D03*
X12065000Y13017500D03*
%TD*%
%TO.C,R13*%
X34925000Y11112500D03*
X34925000Y13017500D03*
%TD*%
%TO.C,R16*%
X32385000Y11112500D03*
X32385000Y13017500D03*
%TD*%
%TO.C,R20*%
X16510000Y26924000D03*
X16510000Y28829000D03*
%TD*%
D15*
%TO.C,R21*%
X27178000Y14986000D03*
X25273000Y14986000D03*
%TD*%
D10*
%TO.C,R22*%
X48514000Y8191500D03*
X48514000Y10096500D03*
%TD*%
%TO.C,R23*%
X44958000Y8255000D03*
X44958000Y10160000D03*
%TD*%
%TO.C,C20*%
X31242000Y16891000D03*
X31242000Y14986000D03*
%TD*%
%TO.C,C17*%
X35306000Y16827500D03*
X35306000Y14922500D03*
%TD*%
D15*
%TO.C,C2*%
X10541000Y26924000D03*
X12446000Y26924000D03*
%TD*%
D19*
%TO.C,Y1*%
X20868000Y26670000D03*
X23368000Y26670000D03*
%TD*%
D10*
%TO.C,R18*%
X28575000Y33337500D03*
X28575000Y31432500D03*
%TD*%
%TO.C,C25*%
X30480000Y33337500D03*
X30480000Y31432500D03*
%TD*%
%TO.C,C26*%
X34544000Y35306000D03*
X34544000Y37211000D03*
%TD*%
%TO.C,R5*%
X26670000Y33337500D03*
X26670000Y31432500D03*
%TD*%
%TO.C,R3*%
X21590000Y33337500D03*
X21590000Y31432500D03*
%TD*%
%TO.C,R4*%
X24130000Y33337500D03*
X24130000Y31432500D03*
%TD*%
%TO.C,R14*%
X16510000Y33337500D03*
X16510000Y31432500D03*
%TD*%
%TO.C,R2*%
X19050000Y33337500D03*
X19050000Y31432500D03*
%TD*%
%TO.C,R11*%
X11430000Y33337500D03*
X11430000Y31432500D03*
%TD*%
%TO.C,R12*%
X13970000Y33337500D03*
X13970000Y31432500D03*
%TD*%
D20*
%TO.C,Y2*%
X30575000Y26810000D03*
X26575000Y26810000D03*
X26575000Y29210000D03*
X30575000Y29210000D03*
%TD*%
D21*
%TO.C,U2*%
X26105000Y20180000D03*
X27305000Y20180000D03*
X26105000Y21730000D03*
X28505000Y20180000D03*
X27305000Y21730000D03*
X28505000Y21730000D03*
D22*
X25055000Y23405000D03*
X25555000Y23405000D03*
X26055000Y23405000D03*
X26555000Y23405000D03*
X27055000Y23405000D03*
X27555000Y23405000D03*
X28055000Y23405000D03*
X28555000Y23405000D03*
X29055000Y23405000D03*
X29555000Y23405000D03*
D23*
X30255000Y22705000D03*
X30255000Y22205000D03*
X30255000Y21705000D03*
X30255000Y21205000D03*
X30255000Y20705000D03*
X30255000Y20205000D03*
X30255000Y19705000D03*
X30255000Y19205000D03*
D22*
X29555000Y18505000D03*
X29055000Y18505000D03*
X28555000Y18505000D03*
X28055000Y18505000D03*
X27555000Y18505000D03*
X27055000Y18505000D03*
X26555000Y18505000D03*
X26055000Y18505000D03*
X25555000Y18505000D03*
X25055000Y18505000D03*
D23*
X24355000Y19205000D03*
X24355000Y19705000D03*
X24355000Y20205000D03*
X24355000Y20705000D03*
X24355000Y21205000D03*
X24355000Y21705000D03*
X24355000Y22205000D03*
X24355000Y22705000D03*
%TD*%
D15*
%TO.C,L7*%
X39179500Y23088600D03*
X37274500Y23088600D03*
%TD*%
%TO.C,L6*%
X42227500Y26670000D03*
X40322500Y26670000D03*
%TD*%
%TO.C,L9*%
X38417500Y29210000D03*
X36512500Y29210000D03*
%TD*%
%TO.C,L5*%
X42989500Y23088600D03*
X41084500Y23088600D03*
%TD*%
D10*
%TO.C,L10*%
X34290000Y28892500D03*
X34290000Y26987500D03*
%TD*%
%TO.C,C7*%
X44577000Y20866100D03*
X44577000Y18961100D03*
%TD*%
%TO.C,C9*%
X39497000Y20866100D03*
X39497000Y18961100D03*
%TD*%
%TO.C,C13*%
X36576000Y31369000D03*
X36576000Y33274000D03*
%TD*%
%TO.C,C10*%
X40640000Y28892500D03*
X40640000Y30797500D03*
%TD*%
%TO.C,C11*%
X34925000Y21272500D03*
X34925000Y23177500D03*
%TD*%
%TO.C,C4*%
X48387000Y20866100D03*
X48387000Y18961100D03*
%TD*%
D15*
%TO.C,C12*%
X36512500Y26670000D03*
X38417500Y26670000D03*
%TD*%
D10*
%TO.C,C6*%
X46990000Y28892500D03*
X46990000Y30797500D03*
%TD*%
%TO.C,C8*%
X43815000Y28892500D03*
X43815000Y30797500D03*
%TD*%
D15*
%TO.C,L3*%
X46799500Y23088600D03*
X44894500Y23088600D03*
%TD*%
%TO.C,L4*%
X46037500Y26670000D03*
X44132500Y26670000D03*
%TD*%
%TO.C,L1*%
X50482500Y23114000D03*
X48577500Y23114000D03*
%TD*%
%TO.C,L2*%
X49847500Y26670000D03*
X47942500Y26670000D03*
%TD*%
D10*
%TO.C,C19*%
X37465000Y13652500D03*
X37465000Y11747500D03*
%TD*%
M02*
