M48
; DRILL file {KiCad 6.0.4-6f826c9f35~116~ubuntu20.04.1} date Mon Feb 13 09:55:55 2023
; FORMAT={-:-/ absolute / metric / decimal}
; #@! TF.CreationDate,2023-02-13T09:55:55+00:00
; #@! TF.GenerationSoftware,Kicad,Pcbnew,6.0.4-6f826c9f35~116~ubuntu20.04.1
; #@! TF.FileFunction,Plated,1,2,PTH
FMAT,2
METRIC
; #@! TA.AperFunction,Plated,PTH,ComponentDrill
T1C0.200
; #@! TA.AperFunction,Plated,PTH,ViaDrill
T2C0.400
; #@! TA.AperFunction,Plated,PTH,ComponentDrill
T3C0.889
; #@! TA.AperFunction,Plated,PTH,ComponentDrill
T4C1.500
; #@! TA.AperFunction,Plated,PTH,ComponentDrill
T5C1.700
; #@! TA.AperFunction,Plated,PTH,ComponentDrill
T6C3.000
%
G90
G05
T1
X25.505Y22.505
X25.505Y20.955
X25.505Y19.405
X26.705Y22.505
X26.705Y20.955
X26.705Y19.405
X27.905Y22.505
X27.905Y20.955
X27.905Y19.405
X29.105Y22.505
X29.105Y20.955
X29.105Y19.405
T2
X2.54Y21.336
X2.54Y19.304
X7.874Y12.192
X8.128Y31.242
X9.652Y12.192
X9.652Y10.414
X9.652Y8.636
X9.906Y17.272
X9.906Y6.604
X10.414Y4.572
X11.176Y28.702
X11.43Y30.226
X11.799Y15.863
X11.938Y14.478
X11.938Y4.318
X12.446Y21.844
X12.954Y29.21
X13.462Y18.796
X13.97Y30.48
X14.224Y24.638
X14.237Y25.921
X14.478Y4.318
X14.986Y17.018
X15.24Y29.972
X15.24Y2.286
X16.51Y30.48
X17.272Y17.018
X17.78Y22.098
X18.288Y28.194
X19.05Y29.972
X19.304Y17.018
X20.574Y28.702
X20.828Y17.018
X20.828Y2.032
X21.692Y30.099
X22.098Y24.13
X22.098Y23.13
X22.098Y3.556
X22.86Y28.702
X22.86Y13.716
X23.114Y20.066
X23.114Y19.05
X23.876Y3.556
X24.13Y14.986
X24.181Y30.023
X25.801Y25.477
X25.908Y3.556
X26.695Y32.293
X26.99Y25.291
X27.686Y3.556
X27.989Y25.235
X28.575Y30.48
X29.402Y15.604
X29.718Y14.732
X29.755Y17.272
X29.845Y24.765
X30.48Y30.48
X31.75Y24.384
X32.004Y19.505
X32.004Y18.542
X32.243Y22.113
X33.02Y30.226
X33.274Y21.336
X33.528Y19.05
X33.782Y13.716
X34.29Y32.512
X34.29Y31.496
X34.544Y38.862
X34.544Y33.782
X34.798Y4.064
X34.798Y2.286
X35.164Y25.034
X35.56Y19.558
X35.56Y18.542
X36.068Y14.224
X36.498Y10.766
X36.576Y38.862
X36.576Y37.084
X36.576Y35.306
X36.703Y25.019
X36.83Y8.382
X36.83Y6.604
X36.83Y4.318
X38.1Y25.019
X38.354Y35.306
X38.608Y33.782
X38.608Y32.512
X39.624Y24.892
X40.132Y32.512
X41.148Y24.892
X41.402Y16.002
X41.656Y32.512
X41.734Y10.844
X41.821Y18.961
X41.91Y20.574
X42.926Y24.892
X43.434Y32.512
X43.434Y2.286
X44.196Y16.51
X44.704Y24.892
X45.212Y32.512
X45.72Y16.51
X46.482Y24.892
X46.99Y32.512
X47.244Y16.51
X48.006Y24.892
X48.768Y16.51
X49.022Y32.512
X49.022Y30.988
X49.022Y29.464
X49.022Y28.448
X49.53Y24.892
X50.546Y24.892
X50.546Y19.812
X50.546Y18.542
X50.546Y16.764
X50.546Y15.24
X50.546Y12.954
X50.8Y30.48
X50.8Y10.922
X51.054Y28.448
X51.308Y8.89
X52.07Y32.004
X52.832Y10.414
X55.118Y10.414
X57.404Y21.336
X57.404Y10.414
X59.182Y10.414
X59.436Y21.336
T3
X2.54Y29.21
X2.54Y26.67
X2.54Y24.13
X2.54Y16.129
X2.54Y13.589
X2.54Y11.049
X5.08Y29.21
X5.08Y26.67
X5.08Y24.13
X5.08Y16.129
X5.08Y13.589
X5.08Y11.049
X11.43Y38.1
X11.43Y35.56
X12.065Y8.89
X12.065Y6.35
X13.97Y38.1
X13.97Y35.56
X14.605Y8.89
X14.605Y6.35
X16.51Y38.1
X16.51Y35.56
X17.145Y8.89
X17.145Y6.35
X19.05Y38.1
X19.05Y35.56
X19.685Y8.89
X19.685Y6.35
X21.59Y38.1
X21.59Y35.56
X22.225Y8.89
X22.225Y6.35
X24.13Y38.1
X24.13Y35.56
X24.765Y8.89
X24.765Y6.35
X26.67Y38.1
X26.67Y35.56
X27.305Y8.89
X27.305Y6.35
X29.21Y38.1
X29.21Y35.56
X29.845Y8.89
X29.845Y6.35
X31.75Y38.1
X31.75Y35.56
X32.385Y8.89
X32.385Y6.35
X34.925Y8.89
X34.925Y6.35
X38.608Y6.604
X38.608Y4.064
X41.148Y6.604
X41.148Y4.064
T4
X55.88Y26.67
X55.88Y15.875
T5
X53.34Y29.21
X53.34Y24.13
X53.34Y18.415
X53.34Y13.335
X58.42Y29.21
X58.42Y24.13
X58.42Y18.415
X58.42Y13.335
T6
X5.08Y35.56
X5.08Y5.08
X55.88Y35.56
X55.88Y5.08
T0
M30
