  0
SECTION
  2
HEADER
  9
$ANGBASE
  50
0.0
  9
$ANGDIR
  70
1
  9
$MEASUREMENT
  70
0
  0
ENDSEC
  0
SECTION
  2
TABLES
  0
TABLE
  2
LTYPE
  70
4
  0
LTYPE
  5
40F
  2
CONTINUOUS
  70
0
  3
Solid line
  72
65
  73
0
  40
0.0
  0
LTYPE
  5
410
  2
DASHDOT
 70
0
  3
Dash Dot ____ _ ____ _
 72
65
 73
4
 40
2.0
 49
1.25
 49
-0.25
 49
0.25
 49
-0.25
  0
LTYPE
  5
411
  2
DASHED
 70
0
  3
Dashed __ __ __ __ __
 72
65
 73
2
 40
0.75
 49
0.5
 49
-0.25
  0
LTYPE
  5
43B
  2
DOTTED
 70
0
  3
Dotted .  .  .  .
 72
65
 73
2
 40
0.2
 49
0.0
 49
-0.2
  0
ENDTAB
  0
TABLE
  2
STYLE
  70
4
  0
STYLE
  2
KICAD
  70
0
  40
0
  41
1
  42
1
  50
0
  71
0
  3
isocp.shx
  0
STYLE
  2
KICADB
  70
0
  40
0
  41
1
  42
1
  50
0
  71
0
  3
isocp.shx
  0
STYLE
  2
KICADI
  70
0
  40
0
  41
1
  42
1
  50
15
  71
0
  3
isocp.shx
  0
STYLE
  2
KICADBI
  70
0
  40
0
  41
1
  42
1
  50
15
  71
0
  3
isocp.shx
  0
ENDTAB
  0
TABLE
  2
LAYER
  70
1
  0
LAYER
  2
BLACK
  70
0
  62
7
  6
CONTINUOUS
  0
ENDTAB
  0
ENDSEC
  0
SECTION
  2
ENTITIES
0
CIRCLE
8
BLACK
10
6.2010648425196848
20
-4.5780586220472443
40
0.0068897637795276
0
CIRCLE
8
BLACK
10
6.2010648425196848
20
-4.4780586220472438
40
0.0068897637795276
0
CIRCLE
8
BLACK
10
6.4460648425196849
20
-4.6680586220472442
40
0.0068897637795276
0
CIRCLE
8
BLACK
10
6.4460648425196849
20
-4.5680586220472437
40
0.0068897637795276
0
CIRCLE
8
BLACK
10
6.3460648425196853
20
-4.6680586220472442
40
0.0068897637795276
0
CIRCLE
8
BLACK
10
6.3460648425196853
20
-4.5680586220472437
40
0.0068897637795276
0
CIRCLE
8
BLACK
10
4.9260648425196853
20
-3.678058622047244
40
0.0068897637795276
0
CIRCLE
8
BLACK
10
5.026064842519685
20
-3.678058622047244
40
0.0068897637795276
0
CIRCLE
8
BLACK
10
4.9260648425196853
20
-3.7780586220472441
40
0.0068897637795276
0
CIRCLE
8
BLACK
10
5.026064842519685
20
-3.7780586220472441
40
0.0068897637795276
0
CIRCLE
8
BLACK
10
4.9260648425196853
20
-3.8780586220472442
40
0.0068897637795276
0
CIRCLE
8
BLACK
10
5.026064842519685
20
-3.8780586220472442
40
0.0068897637795276
0
CIRCLE
8
BLACK
10
4.9260648425196853
20
-4.1930586220472437
40
0.0068897637795276
0
CIRCLE
8
BLACK
10
5.026064842519685
20
-4.1930586220472437
40
0.0068897637795276
0
CIRCLE
8
BLACK
10
4.9260648425196853
20
-4.2930586220472442
40
0.0068897637795276
0
CIRCLE
8
BLACK
10
5.026064842519685
20
-4.2930586220472442
40
0.0068897637795276
0
CIRCLE
8
BLACK
10
4.9260648425196853
20
-4.3930586220472438
40
0.0068897637795276
0
CIRCLE
8
BLACK
10
5.026064842519685
20
-4.3930586220472438
40
0.0068897637795276
0
CIRCLE
8
BLACK
10
5.8010648425196853
20
-4.5780586220472443
40
0.0068897637795276
0
CIRCLE
8
BLACK
10
5.8010648425196853
20
-4.4780586220472438
40
0.0068897637795276
0
CIRCLE
8
BLACK
10
5.6010648425196852
20
-4.4780586220472438
40
0.0068897637795276
0
CIRCLE
8
BLACK
10
5.6010648425196852
20
-4.5780586220472443
40
0.0068897637795276
0
CIRCLE
8
BLACK
10
5.5010648425196846
20
-4.5780586220472443
40
0.0068897637795276
0
CIRCLE
8
BLACK
10
5.5010648425196846
20
-4.4780586220472438
40
0.0068897637795276
0
CIRCLE
8
BLACK
10
5.401064842519685
20
-4.4780586220472438
40
0.0068897637795276
0
CIRCLE
8
BLACK
10
5.401064842519685
20
-4.5780586220472443
40
0.0068897637795276
0
CIRCLE
8
BLACK
10
5.3010648425196853
20
-4.4780586220472438
40
0.0068897637795276
0
CIRCLE
8
BLACK
10
5.3010648425196853
20
-4.5780586220472443
40
0.0068897637795276
0
CIRCLE
8
BLACK
10
5.901064842519685
20
-4.5780586220472443
40
0.0068897637795276
0
CIRCLE
8
BLACK
10
5.901064842519685
20
-4.4780586220472438
40
0.0068897637795276
0
CIRCLE
8
BLACK
10
6.1010648425196852
20
-4.5780586220472443
40
0.0068897637795276
0
CIRCLE
8
BLACK
10
6.1010648425196852
20
-4.4780586220472438
40
0.0068897637795276
0
CIRCLE
8
BLACK
10
6.0010648425196846
20
-4.5780586220472443
40
0.0068897637795276
0
CIRCLE
8
BLACK
10
6.0010648425196846
20
-4.4780586220472438
40
0.0068897637795276
0
CIRCLE
8
BLACK
10
5.026064842519685
20
-3.428058622047244
40
0.0068897637795276
0
CIRCLE
8
BLACK
10
7.026064842519685
20
-4.6280586220472442
40
0.0068897637795276
0
CIRCLE
8
BLACK
10
5.026064842519685
20
-4.6280586220472442
40
0.0068897637795276
0
CIRCLE
8
BLACK
10
7.026064842519685
20
-3.428058622047244
40
0.0068897637795276
0
CIRCLE
8
BLACK
10
7.026064842519685
20
-3.7780586220472441
40
0.0068897637795276
0
CIRCLE
8
BLACK
10
6.9260648425196845
20
-3.678058622047244
40
0.0068897637795276
0
CIRCLE
8
BLACK
10
6.9260648425196845
20
-3.8780586220472442
40
0.0068897637795276
0
CIRCLE
8
BLACK
10
7.1260648425196846
20
-3.678058622047244
40
0.0068897637795276
0
CIRCLE
8
BLACK
10
7.1260648425196846
20
-3.8780586220472442
40
0.0068897637795276
0
CIRCLE
8
BLACK
10
5.7010648425196848
20
-4.5780586220472443
40
0.0068897637795276
0
CIRCLE
8
BLACK
10
5.7010648425196848
20
-4.4780586220472438
40
0.0068897637795276
0
CIRCLE
8
BLACK
10
5.776064842519685
20
-3.428058622047244
40
0.0068897637795276
0
CIRCLE
8
BLACK
10
5.776064842519685
20
-3.3280586220472439
40
0.0068897637795276
0
CIRCLE
8
BLACK
10
5.6760648425196853
20
-3.428058622047244
40
0.0068897637795276
0
CIRCLE
8
BLACK
10
5.6760648425196853
20
-3.3280586220472439
40
0.0068897637795276
0
CIRCLE
8
BLACK
10
5.5760648425196848
20
-3.428058622047244
40
0.0068897637795276
0
CIRCLE
8
BLACK
10
5.5760648425196848
20
-3.3280586220472439
40
0.0068897637795276
0
CIRCLE
8
BLACK
10
5.8760648425196846
20
-3.428058622047244
40
0.0068897637795276
0
CIRCLE
8
BLACK
10
5.8760648425196846
20
-3.3280586220472439
40
0.0068897637795276
0
CIRCLE
8
BLACK
10
5.4760648425196852
20
-3.428058622047244
40
0.0068897637795276
0
CIRCLE
8
BLACK
10
5.4760648425196852
20
-3.3280586220472439
40
0.0068897637795276
0
CIRCLE
8
BLACK
10
5.9760648425196852
20
-3.428058622047244
40
0.0068897637795276
0
CIRCLE
8
BLACK
10
5.9760648425196852
20
-3.3280586220472439
40
0.0068897637795276
0
CIRCLE
8
BLACK
10
5.3760648425196846
20
-3.428058622047244
40
0.0068897637795276
0
CIRCLE
8
BLACK
10
5.3760648425196846
20
-3.3280586220472439
40
0.0068897637795276
0
CIRCLE
8
BLACK
10
5.276064842519685
20
-3.428058622047244
40
0.0068897637795276
0
CIRCLE
8
BLACK
10
5.276064842519685
20
-3.3280586220472439
40
0.0068897637795276
0
CIRCLE
8
BLACK
10
6.0760648425196848
20
-3.428058622047244
40
0.0068897637795276
0
CIRCLE
8
BLACK
10
6.0760648425196848
20
-3.3280586220472439
40
0.0068897637795276
0
CIRCLE
8
BLACK
10
7.026064842519685
20
-4.2030586220472443
40
0.0068897637795276
0
CIRCLE
8
BLACK
10
6.9260648425196845
20
-4.1030586220472438
40
0.0068897637795276
0
CIRCLE
8
BLACK
10
6.9260648425196845
20
-4.303058622047244
40
0.0068897637795276
0
CIRCLE
8
BLACK
10
7.1260648425196846
20
-4.1030586220472438
40
0.0068897637795276
0
CIRCLE
8
BLACK
10
7.1260648425196846
20
-4.303058622047244
40
0.0068897637795276
0
CIRCLE
8
BLACK
10
6.5960648425196853
20
-4.6580586220472444
40
0.0068897637795276
0
CIRCLE
8
BLACK
10
6.736064842519685
20
-4.6580586220472444
40
0.0068897637795276
0
CIRCLE
8
BLACK
10
5.9719309842519683
20
-3.9420349999999997
40
0.0039370078740157
0
CIRCLE
8
BLACK
10
5.9246868897637794
20
-3.9420349999999997
40
0.0039370078740157
0
CIRCLE
8
BLACK
10
5.8774427952755905
20
-3.9420349999999997
40
0.0039370078740157
0
CIRCLE
8
BLACK
10
5.8301987007874017
20
-3.9420349999999997
40
0.0039370078740157
0
CIRCLE
8
BLACK
10
5.9719309842519683
20
-4.0030586220472442
40
0.0039370078740157
0
CIRCLE
8
BLACK
10
5.9246868897637794
20
-4.0030586220472442
40
0.0039370078740157
0
CIRCLE
8
BLACK
10
5.8774427952755905
20
-4.0030586220472442
40
0.0039370078740157
0
CIRCLE
8
BLACK
10
5.8301987007874017
20
-4.0030586220472442
40
0.0039370078740157
0
CIRCLE
8
BLACK
10
5.9719309842519683
20
-4.0640822440944877
40
0.0039370078740157
0
CIRCLE
8
BLACK
10
5.9246868897637794
20
-4.0640822440944877
40
0.0039370078740157
0
CIRCLE
8
BLACK
10
5.8774427952755905
20
-4.0640822440944877
40
0.0039370078740157
0
CIRCLE
8
BLACK
10
5.8301987007874017
20
-4.0640822440944877
40
0.0039370078740157
  0
ENDSEC
  0
EOF
