  0
SECTION
  2
HEADER
  9
$ANGBASE
  50
0.0
  9
$ANGDIR
  70
1
  9
$MEASUREMENT
  70
0
  0
ENDSEC
  0
SECTION
  2
TABLES
  0
TABLE
  2
LTYPE
  70
4
  0
LTYPE
  5
40F
  2
CONTINUOUS
  70
0
  3
Solid line
  72
65
  73
0
  40
0.0
  0
LTYPE
  5
410
  2
DASHDOT
 70
0
  3
Dash Dot ____ _ ____ _
 72
65
 73
4
 40
2.0
 49
1.25
 49
-0.25
 49
0.25
 49
-0.25
  0
LTYPE
  5
411
  2
DASHED
 70
0
  3
Dashed __ __ __ __ __
 72
65
 73
2
 40
0.75
 49
0.5
 49
-0.25
  0
LTYPE
  5
43B
  2
DOTTED
 70
0
  3
Dotted .  .  .  .
 72
65
 73
2
 40
0.2
 49
0.0
 49
-0.2
  0
ENDTAB
  0
TABLE
  2
STYLE
  70
4
  0
STYLE
  2
KICAD
  70
0
  40
0
  41
1
  42
1
  50
0
  71
0
  3
isocp.shx
  0
STYLE
  2
KICADB
  70
0
  40
0
  41
1
  42
1
  50
0
  71
0
  3
isocp.shx
  0
STYLE
  2
KICADI
  70
0
  40
0
  41
1
  42
1
  50
15
  71
0
  3
isocp.shx
  0
STYLE
  2
KICADBI
  70
0
  40
0
  41
1
  42
1
  50
15
  71
0
  3
isocp.shx
  0
ENDTAB
  0
TABLE
  2
LAYER
  70
1
  0
LAYER
  2
BLACK
  70
0
  62
7
  6
CONTINUOUS
  0
ENDTAB
  0
ENDSEC
  0
SECTION
  2
ENTITIES
0
LINE
8
BLACK
6
CONTINUOUS
10
7.21645
20
-3.23517
11
7.21658
21
-3.23515
0
LINE
8
BLACK
6
CONTINUOUS
10
7.21658
20
-3.23515
11
7.21669
21
-3.23522
0
LINE
8
BLACK
6
CONTINUOUS
10
7.21669
20
-3.23522
11
7.21707
21
-3.23528
0
LINE
8
BLACK
6
CONTINUOUS
10
7.21707
20
-3.23528
11
7.21766
21
-3.23578
0
LINE
8
BLACK
6
CONTINUOUS
10
7.21766
20
-3.23578
11
7.21833
21
-3.23616
0
LINE
8
BLACK
6
CONTINUOUS
10
7.21833
20
-3.23616
11
7.21842
21
-3.23641
0
LINE
8
BLACK
6
CONTINUOUS
10
7.21842
20
-3.23641
11
7.21862
21
-3.23658
0
LINE
8
BLACK
6
CONTINUOUS
10
7.21862
20
-3.23658
11
7.21876
21
-3.23734
0
LINE
8
BLACK
6
CONTINUOUS
10
7.21876
20
-3.23734
11
7.21902
21
-3.23806
0
LINE
8
BLACK
6
CONTINUOUS
10
7.21902
20
-3.23806
11
7.21902
21
-4.81806
0
LINE
8
BLACK
6
CONTINUOUS
10
7.21902
20
-4.81806
11
7.21895
21
-4.81844
0
LINE
8
BLACK
6
CONTINUOUS
10
7.21895
20
-4.81844
11
7.21897
21
-4.81857
0
LINE
8
BLACK
6
CONTINUOUS
10
7.21897
20
-4.81857
11
7.21891
21
-4.81868
0
LINE
8
BLACK
6
CONTINUOUS
10
7.21891
20
-4.81868
11
7.21884
21
-4.81907
0
LINE
8
BLACK
6
CONTINUOUS
10
7.21884
20
-4.81907
11
7.21835
21
-4.81966
0
LINE
8
BLACK
6
CONTINUOUS
10
7.21835
20
-4.81966
11
7.21796
21
-4.82032
0
LINE
8
BLACK
6
CONTINUOUS
10
7.21796
20
-4.82032
11
7.21771
21
-4.82041
0
LINE
8
BLACK
6
CONTINUOUS
10
7.21771
20
-4.82041
11
7.21754
21
-4.82062
0
LINE
8
BLACK
6
CONTINUOUS
10
7.21754
20
-4.82062
11
7.21679
21
-4.82075
0
LINE
8
BLACK
6
CONTINUOUS
10
7.21679
20
-4.82075
11
7.21606
21
-4.82101
0
LINE
8
BLACK
6
CONTINUOUS
10
7.21606
20
-4.82101
11
4.83606
21
-4.82101
0
LINE
8
BLACK
6
CONTINUOUS
10
4.83606
20
-4.82101
11
4.83568
21
-4.82094
0
LINE
8
BLACK
6
CONTINUOUS
10
4.83568
20
-4.82094
11
4.83555
21
-4.82097
0
LINE
8
BLACK
6
CONTINUOUS
10
4.83555
20
-4.82097
11
4.83544
21
-4.8209
0
LINE
8
BLACK
6
CONTINUOUS
10
4.83544
20
-4.8209
11
4.83505
21
-4.82083
0
LINE
8
BLACK
6
CONTINUOUS
10
4.83505
20
-4.82083
11
4.83447
21
-4.82034
0
LINE
8
BLACK
6
CONTINUOUS
10
4.83447
20
-4.82034
11
4.8338
21
-4.81996
0
LINE
8
BLACK
6
CONTINUOUS
10
4.8338
20
-4.81996
11
4.83371
21
-4.81971
0
LINE
8
BLACK
6
CONTINUOUS
10
4.83371
20
-4.81971
11
4.83351
21
-4.81954
0
LINE
8
BLACK
6
CONTINUOUS
10
4.83351
20
-4.81954
11
4.83337
21
-4.81878
0
LINE
8
BLACK
6
CONTINUOUS
10
4.83337
20
-4.81878
11
4.83311
21
-4.81806
0
LINE
8
BLACK
6
CONTINUOUS
10
4.83311
20
-4.81806
11
4.83311
21
-3.23806
0
LINE
8
BLACK
6
CONTINUOUS
10
4.83311
20
-3.23806
11
4.83318
21
-3.23768
0
LINE
8
BLACK
6
CONTINUOUS
10
4.83318
20
-3.23768
11
4.83316
21
-3.23755
0
LINE
8
BLACK
6
CONTINUOUS
10
4.83316
20
-3.23755
11
4.83322
21
-3.23743
0
LINE
8
BLACK
6
CONTINUOUS
10
4.83322
20
-3.23743
11
4.83329
21
-3.23705
0
LINE
8
BLACK
6
CONTINUOUS
10
4.83329
20
-3.23705
11
4.83378
21
-3.23646
0
LINE
8
BLACK
6
CONTINUOUS
10
4.83378
20
-3.23646
11
4.83417
21
-3.2358
0
LINE
8
BLACK
6
CONTINUOUS
10
4.83417
20
-3.2358
11
4.83442
21
-3.23571
0
LINE
8
BLACK
6
CONTINUOUS
10
4.83442
20
-3.23571
11
4.83459
21
-3.2355
0
LINE
8
BLACK
6
CONTINUOUS
10
4.83459
20
-3.2355
11
4.83534
21
-3.23537
0
LINE
8
BLACK
6
CONTINUOUS
10
4.83534
20
-3.23537
11
4.83606
21
-3.23511
0
LINE
8
BLACK
6
CONTINUOUS
10
4.83606
20
-3.23511
11
7.21606
21
-3.23511
0
LINE
8
BLACK
6
CONTINUOUS
10
7.21606
20
-3.23511
11
7.21645
21
-3.23517
0
LINE
8
BLACK
6
CONTINUOUS
10
4.83902
20
-3.24101
11
4.83902
21
-4.81511
0
LINE
8
BLACK
6
CONTINUOUS
10
4.83902
20
-4.81511
11
7.21311
21
-4.81511
0
LINE
8
BLACK
6
CONTINUOUS
10
7.21311
20
-4.81511
11
7.21311
21
-3.24101
0
LINE
8
BLACK
6
CONTINUOUS
10
7.21311
20
-3.24101
11
4.83902
21
-3.24101
  0
ENDSEC
  0
EOF
