  0
SECTION
  2
HEADER
  9
$ANGBASE
  50
0.0
  9
$ANGDIR
  70
1
  9
$MEASUREMENT
  70
0
  0
ENDSEC
  0
SECTION
  2
TABLES
  0
TABLE
  2
LTYPE
  70
4
  0
LTYPE
  5
40F
  2
CONTINUOUS
  70
0
  3
Solid line
  72
65
  73
0
  40
0.0
  0
LTYPE
  5
410
  2
DASHDOT
 70
0
  3
Dash Dot ____ _ ____ _
 72
65
 73
4
 40
2.0
 49
1.25
 49
-0.25
 49
0.25
 49
-0.25
  0
LTYPE
  5
411
  2
DASHED
 70
0
  3
Dashed __ __ __ __ __
 72
65
 73
2
 40
0.75
 49
0.5
 49
-0.25
  0
LTYPE
  5
43B
  2
DOTTED
 70
0
  3
Dotted .  .  .  .
 72
65
 73
2
 40
0.2
 49
0.0
 49
-0.2
  0
ENDTAB
  0
TABLE
  2
STYLE
  70
4
  0
STYLE
  2
KICAD
  70
0
  40
0
  41
1
  42
1
  50
0
  71
0
  3
isocp.shx
  0
STYLE
  2
KICADB
  70
0
  40
0
  41
1
  42
1
  50
0
  71
0
  3
isocp.shx
  0
STYLE
  2
KICADI
  70
0
  40
0
  41
1
  42
1
  50
15
  71
0
  3
isocp.shx
  0
STYLE
  2
KICADBI
  70
0
  40
0
  41
1
  42
1
  50
15
  71
0
  3
isocp.shx
  0
ENDTAB
  0
TABLE
  2
LAYER
  70
1
  0
LAYER
  2
BLACK
  70
0
  62
7
  6
CONTINUOUS
  0
ENDTAB
  0
ENDSEC
  0
SECTION
  2
ENTITIES
0
LINE
8
BLACK
6
CONTINUOUS
10
5.046574488188976
20
-4.5117427559055114
11
5.0599392519685038
21
-4.5149102362204721
0
LINE
8
BLACK
6
CONTINUOUS
10
5.0599392519685038
20
-4.5149102362204721
11
5.0728459055118105
21
-4.5196079133858262
0
LINE
8
BLACK
6
CONTINUOUS
10
5.0728459055118105
20
-4.5196079133858262
11
5.0851199606299211
21
-4.525772165354331
0
LINE
8
BLACK
6
CONTINUOUS
10
5.0851199606299211
20
-4.525772165354331
11
5.0965953937007873
21
-4.533319645669291
0
LINE
8
BLACK
6
CONTINUOUS
10
5.0965953937007873
20
-4.533319645669291
11
5.1071170078740158
21
-4.5421483464566927
0
LINE
8
BLACK
6
CONTINUOUS
10
5.1071170078740158
20
-4.5421483464566927
11
5.1165425196850389
21
-4.5521388188976379
0
LINE
8
BLACK
6
CONTINUOUS
10
5.1165425196850389
20
-4.5521388188976379
11
5.1247444881889761
21
-4.563155984251968
0
LINE
8
BLACK
6
CONTINUOUS
10
5.1247444881889761
20
-4.563155984251968
11
5.1316120078740157
21
-4.5750508267716539
0
LINE
8
BLACK
6
CONTINUOUS
10
5.1316120078740157
20
-4.5750508267716539
11
5.1370521653543308
21
-4.5876625590551177
0
LINE
8
BLACK
6
CONTINUOUS
10
5.1370521653543308
20
-4.5876625590551177
11
5.1409914173228346
21
-4.6008205118110235
0
LINE
8
BLACK
6
CONTINUOUS
10
5.1409914173228346
20
-4.6008205118110235
11
5.1433764566929137
21
-4.6143468503937006
0
LINE
8
BLACK
6
CONTINUOUS
10
5.1433764566929137
20
-4.6143468503937006
11
5.1441750787401572
21
-4.6280586220472442
0
LINE
8
BLACK
6
CONTINUOUS
10
5.1441750787401572
20
-4.6280586220472442
11
5.1433764566929137
21
-4.6417703937007877
0
LINE
8
BLACK
6
CONTINUOUS
10
5.1433764566929137
20
-4.6417703937007877
11
5.1409914173228346
21
-4.6552967322834649
0
LINE
8
BLACK
6
CONTINUOUS
10
5.1409914173228346
20
-4.6552967322834649
11
5.1370521653543308
21
-4.6684546850393698
0
LINE
8
BLACK
6
CONTINUOUS
10
5.1370521653543308
20
-4.6684546850393698
11
5.1316120078740157
21
-4.6810664173228345
0
LINE
8
BLACK
6
CONTINUOUS
10
5.1316120078740157
20
-4.6810664173228345
11
5.1247444881889761
21
-4.6929612598425194
0
LINE
8
BLACK
6
CONTINUOUS
10
5.1247444881889761
20
-4.6929612598425194
11
5.1165425196850389
21
-4.7039784251968504
0
LINE
8
BLACK
6
CONTINUOUS
10
5.1165425196850389
20
-4.7039784251968504
11
5.1071170078740158
21
-4.7139688976377956
0
LINE
8
BLACK
6
CONTINUOUS
10
5.1071170078740158
20
-4.7139688976377956
11
5.0965953937007873
21
-4.7227975984251964
0
LINE
8
BLACK
6
CONTINUOUS
10
5.0965953937007873
20
-4.7227975984251964
11
5.0851199606299211
21
-4.7303450787401573
0
LINE
8
BLACK
6
CONTINUOUS
10
5.0851199606299211
20
-4.7303450787401573
11
5.0728459055118105
21
-4.7365093307086612
0
LINE
8
BLACK
6
CONTINUOUS
10
5.0728459055118105
20
-4.7365093307086612
11
5.0599392519685038
21
-4.7412070078740154
0
LINE
8
BLACK
6
CONTINUOUS
10
5.0599392519685038
20
-4.7412070078740154
11
5.046574488188976
21
-4.744374488188976
0
LINE
8
BLACK
6
CONTINUOUS
10
5.046574488188976
20
-4.744374488188976
11
5.0329323228346459
21
-4.745969015748031
0
LINE
8
BLACK
6
CONTINUOUS
10
5.0329323228346459
20
-4.745969015748031
11
5.0191973622047241
21
-4.745969015748031
0
LINE
8
BLACK
6
CONTINUOUS
10
5.0191973622047241
20
-4.745969015748031
11
5.005555196850394
21
-4.744374488188976
0
LINE
8
BLACK
6
CONTINUOUS
10
5.005555196850394
20
-4.744374488188976
11
4.9921904330708662
21
-4.7412070078740154
0
LINE
8
BLACK
6
CONTINUOUS
10
4.9921904330708662
20
-4.7412070078740154
11
4.9792837795275586
21
-4.7365093307086612
0
LINE
8
BLACK
6
CONTINUOUS
10
4.9792837795275586
20
-4.7365093307086612
11
4.9670097244094489
21
-4.7303450787401573
0
LINE
8
BLACK
6
CONTINUOUS
10
4.9670097244094489
20
-4.7303450787401573
11
4.9555342913385827
21
-4.7227975984251964
0
LINE
8
BLACK
6
CONTINUOUS
10
4.9555342913385827
20
-4.7227975984251964
11
4.9450126771653542
21
-4.7139688976377956
0
LINE
8
BLACK
6
CONTINUOUS
10
4.9450126771653542
20
-4.7139688976377956
11
4.9355871653543302
21
-4.7039784251968504
0
LINE
8
BLACK
6
CONTINUOUS
10
4.9355871653543302
20
-4.7039784251968504
11
4.9273851968503939
21
-4.6929612598425194
0
LINE
8
BLACK
6
CONTINUOUS
10
4.9273851968503939
20
-4.6929612598425194
11
4.9205176771653543
21
-4.6810664173228345
0
LINE
8
BLACK
6
CONTINUOUS
10
4.9205176771653543
20
-4.6810664173228345
11
4.9150775196850391
21
-4.6684546850393698
0
LINE
8
BLACK
6
CONTINUOUS
10
4.9150775196850391
20
-4.6684546850393698
11
4.9111382677165354
21
-4.6552967322834649
0
LINE
8
BLACK
6
CONTINUOUS
10
4.9111382677165354
20
-4.6552967322834649
11
4.9087532283464563
21
-4.6417703937007877
0
LINE
8
BLACK
6
CONTINUOUS
10
4.9087532283464563
20
-4.6417703937007877
11
4.9079546062992128
21
-4.6280586220472442
0
LINE
8
BLACK
6
CONTINUOUS
10
4.9079546062992128
20
-4.6280586220472442
11
4.9087532283464563
21
-4.6143468503937006
0
LINE
8
BLACK
6
CONTINUOUS
10
4.9087532283464563
20
-4.6143468503937006
11
4.9111382677165354
21
-4.6008205118110235
0
LINE
8
BLACK
6
CONTINUOUS
10
4.9111382677165354
20
-4.6008205118110235
11
4.9150775196850391
21
-4.5876625590551177
0
LINE
8
BLACK
6
CONTINUOUS
10
4.9150775196850391
20
-4.5876625590551177
11
4.9205176771653543
21
-4.5750508267716539
0
LINE
8
BLACK
6
CONTINUOUS
10
4.9205176771653543
20
-4.5750508267716539
11
4.9273851968503939
21
-4.563155984251968
0
LINE
8
BLACK
6
CONTINUOUS
10
4.9273851968503939
20
-4.563155984251968
11
4.9355871653543302
21
-4.5521388188976379
0
LINE
8
BLACK
6
CONTINUOUS
10
4.9355871653543302
20
-4.5521388188976379
11
4.9450126771653542
21
-4.5421483464566927
0
LINE
8
BLACK
6
CONTINUOUS
10
4.9450126771653542
20
-4.5421483464566927
11
4.9555342913385827
21
-4.533319645669291
0
LINE
8
BLACK
6
CONTINUOUS
10
4.9555342913385827
20
-4.533319645669291
11
4.9670097244094489
21
-4.525772165354331
0
LINE
8
BLACK
6
CONTINUOUS
10
4.9670097244094489
20
-4.525772165354331
11
4.9792837795275586
21
-4.5196079133858262
0
LINE
8
BLACK
6
CONTINUOUS
10
4.9792837795275586
20
-4.5196079133858262
11
4.9921904330708662
21
-4.5149102362204721
0
LINE
8
BLACK
6
CONTINUOUS
10
4.9921904330708662
20
-4.5149102362204721
11
5.005555196850394
21
-4.5117427559055114
0
LINE
8
BLACK
6
CONTINUOUS
10
5.005555196850394
20
-4.5117427559055114
11
5.0191973622047241
21
-4.5101482283464565
0
LINE
8
BLACK
6
CONTINUOUS
10
5.0191973622047241
20
-4.5101482283464565
11
5.0329323228346459
21
-4.5101482283464565
0
LINE
8
BLACK
6
CONTINUOUS
10
5.0329323228346459
20
-4.5101482283464565
11
5.046574488188976
21
-4.5117427559055114
0
LINE
8
BLACK
6
CONTINUOUS
10
7.046574488188976
20
-4.5117427559055114
11
7.0599392519685038
21
-4.5149102362204721
0
LINE
8
BLACK
6
CONTINUOUS
10
7.0599392519685038
20
-4.5149102362204721
11
7.0728459055118105
21
-4.5196079133858262
0
LINE
8
BLACK
6
CONTINUOUS
10
7.0728459055118105
20
-4.5196079133858262
11
7.0851199606299211
21
-4.525772165354331
0
LINE
8
BLACK
6
CONTINUOUS
10
7.0851199606299211
20
-4.525772165354331
11
7.0965953937007873
21
-4.533319645669291
0
LINE
8
BLACK
6
CONTINUOUS
10
7.0965953937007873
20
-4.533319645669291
11
7.1071170078740158
21
-4.5421483464566927
0
LINE
8
BLACK
6
CONTINUOUS
10
7.1071170078740158
20
-4.5421483464566927
11
7.1165425196850389
21
-4.5521388188976379
0
LINE
8
BLACK
6
CONTINUOUS
10
7.1165425196850389
20
-4.5521388188976379
11
7.1247444881889761
21
-4.563155984251968
0
LINE
8
BLACK
6
CONTINUOUS
10
7.1247444881889761
20
-4.563155984251968
11
7.1316120078740157
21
-4.5750508267716539
0
LINE
8
BLACK
6
CONTINUOUS
10
7.1316120078740157
20
-4.5750508267716539
11
7.1370521653543308
21
-4.5876625590551177
0
LINE
8
BLACK
6
CONTINUOUS
10
7.1370521653543308
20
-4.5876625590551177
11
7.1409914173228346
21
-4.6008205118110235
0
LINE
8
BLACK
6
CONTINUOUS
10
7.1409914173228346
20
-4.6008205118110235
11
7.1433764566929137
21
-4.6143468503937006
0
LINE
8
BLACK
6
CONTINUOUS
10
7.1433764566929137
20
-4.6143468503937006
11
7.1441750787401572
21
-4.6280586220472442
0
LINE
8
BLACK
6
CONTINUOUS
10
7.1441750787401572
20
-4.6280586220472442
11
7.1433764566929137
21
-4.6417703937007877
0
LINE
8
BLACK
6
CONTINUOUS
10
7.1433764566929137
20
-4.6417703937007877
11
7.1409914173228346
21
-4.6552967322834649
0
LINE
8
BLACK
6
CONTINUOUS
10
7.1409914173228346
20
-4.6552967322834649
11
7.1370521653543308
21
-4.6684546850393698
0
LINE
8
BLACK
6
CONTINUOUS
10
7.1370521653543308
20
-4.6684546850393698
11
7.1316120078740157
21
-4.6810664173228345
0
LINE
8
BLACK
6
CONTINUOUS
10
7.1316120078740157
20
-4.6810664173228345
11
7.1247444881889761
21
-4.6929612598425194
0
LINE
8
BLACK
6
CONTINUOUS
10
7.1247444881889761
20
-4.6929612598425194
11
7.1165425196850389
21
-4.7039784251968504
0
LINE
8
BLACK
6
CONTINUOUS
10
7.1165425196850389
20
-4.7039784251968504
11
7.1071170078740158
21
-4.7139688976377956
0
LINE
8
BLACK
6
CONTINUOUS
10
7.1071170078740158
20
-4.7139688976377956
11
7.0965953937007873
21
-4.7227975984251964
0
LINE
8
BLACK
6
CONTINUOUS
10
7.0965953937007873
20
-4.7227975984251964
11
7.0851199606299211
21
-4.7303450787401573
0
LINE
8
BLACK
6
CONTINUOUS
10
7.0851199606299211
20
-4.7303450787401573
11
7.0728459055118105
21
-4.7365093307086612
0
LINE
8
BLACK
6
CONTINUOUS
10
7.0728459055118105
20
-4.7365093307086612
11
7.0599392519685038
21
-4.7412070078740154
0
LINE
8
BLACK
6
CONTINUOUS
10
7.0599392519685038
20
-4.7412070078740154
11
7.046574488188976
21
-4.744374488188976
0
LINE
8
BLACK
6
CONTINUOUS
10
7.046574488188976
20
-4.744374488188976
11
7.0329323228346459
21
-4.745969015748031
0
LINE
8
BLACK
6
CONTINUOUS
10
7.0329323228346459
20
-4.745969015748031
11
7.0191973622047241
21
-4.745969015748031
0
LINE
8
BLACK
6
CONTINUOUS
10
7.0191973622047241
20
-4.745969015748031
11
7.005555196850394
21
-4.744374488188976
0
LINE
8
BLACK
6
CONTINUOUS
10
7.005555196850394
20
-4.744374488188976
11
6.9921904330708662
21
-4.7412070078740154
0
LINE
8
BLACK
6
CONTINUOUS
10
6.9921904330708662
20
-4.7412070078740154
11
6.9792837795275586
21
-4.7365093307086612
0
LINE
8
BLACK
6
CONTINUOUS
10
6.9792837795275586
20
-4.7365093307086612
11
6.9670097244094489
21
-4.7303450787401573
0
LINE
8
BLACK
6
CONTINUOUS
10
6.9670097244094489
20
-4.7303450787401573
11
6.9555342913385827
21
-4.7227975984251964
0
LINE
8
BLACK
6
CONTINUOUS
10
6.9555342913385827
20
-4.7227975984251964
11
6.9450126771653542
21
-4.7139688976377956
0
LINE
8
BLACK
6
CONTINUOUS
10
6.9450126771653542
20
-4.7139688976377956
11
6.9355871653543302
21
-4.7039784251968504
0
LINE
8
BLACK
6
CONTINUOUS
10
6.9355871653543302
20
-4.7039784251968504
11
6.9273851968503939
21
-4.6929612598425194
0
LINE
8
BLACK
6
CONTINUOUS
10
6.9273851968503939
20
-4.6929612598425194
11
6.9205176771653543
21
-4.6810664173228345
0
LINE
8
BLACK
6
CONTINUOUS
10
6.9205176771653543
20
-4.6810664173228345
11
6.9150775196850391
21
-4.6684546850393698
0
LINE
8
BLACK
6
CONTINUOUS
10
6.9150775196850391
20
-4.6684546850393698
11
6.9111382677165354
21
-4.6552967322834649
0
LINE
8
BLACK
6
CONTINUOUS
10
6.9111382677165354
20
-4.6552967322834649
11
6.9087532283464563
21
-4.6417703937007877
0
LINE
8
BLACK
6
CONTINUOUS
10
6.9087532283464563
20
-4.6417703937007877
11
6.9079546062992128
21
-4.6280586220472442
0
LINE
8
BLACK
6
CONTINUOUS
10
6.9079546062992128
20
-4.6280586220472442
11
6.9087532283464563
21
-4.6143468503937006
0
LINE
8
BLACK
6
CONTINUOUS
10
6.9087532283464563
20
-4.6143468503937006
11
6.9111382677165354
21
-4.6008205118110235
0
LINE
8
BLACK
6
CONTINUOUS
10
6.9111382677165354
20
-4.6008205118110235
11
6.9150775196850391
21
-4.5876625590551177
0
LINE
8
BLACK
6
CONTINUOUS
10
6.9150775196850391
20
-4.5876625590551177
11
6.9205176771653543
21
-4.5750508267716539
0
LINE
8
BLACK
6
CONTINUOUS
10
6.9205176771653543
20
-4.5750508267716539
11
6.9273851968503939
21
-4.563155984251968
0
LINE
8
BLACK
6
CONTINUOUS
10
6.9273851968503939
20
-4.563155984251968
11
6.9355871653543302
21
-4.5521388188976379
0
LINE
8
BLACK
6
CONTINUOUS
10
6.9355871653543302
20
-4.5521388188976379
11
6.9450126771653542
21
-4.5421483464566927
0
LINE
8
BLACK
6
CONTINUOUS
10
6.9450126771653542
20
-4.5421483464566927
11
6.9555342913385827
21
-4.533319645669291
0
LINE
8
BLACK
6
CONTINUOUS
10
6.9555342913385827
20
-4.533319645669291
11
6.9670097244094489
21
-4.525772165354331
0
LINE
8
BLACK
6
CONTINUOUS
10
6.9670097244094489
20
-4.525772165354331
11
6.9792837795275586
21
-4.5196079133858262
0
LINE
8
BLACK
6
CONTINUOUS
10
6.9792837795275586
20
-4.5196079133858262
11
6.9921904330708662
21
-4.5149102362204721
0
LINE
8
BLACK
6
CONTINUOUS
10
6.9921904330708662
20
-4.5149102362204721
11
7.005555196850394
21
-4.5117427559055114
0
LINE
8
BLACK
6
CONTINUOUS
10
7.005555196850394
20
-4.5117427559055114
11
7.0191973622047241
21
-4.5101482283464565
0
LINE
8
BLACK
6
CONTINUOUS
10
7.0191973622047241
20
-4.5101482283464565
11
7.0329323228346459
21
-4.5101482283464565
0
LINE
8
BLACK
6
CONTINUOUS
10
7.0329323228346459
20
-4.5101482283464565
11
7.046574488188976
21
-4.5117427559055114
0
LINE
8
BLACK
6
CONTINUOUS
10
6.6052941732283461
20
-4.6057164960629917
11
6.6142430708661415
21
-4.6081143307086609
0
LINE
8
BLACK
6
CONTINUOUS
10
6.6142430708661415
20
-4.6081143307086609
11
6.6226396456692909
21
-4.6120297244094486
0
LINE
8
BLACK
6
CONTINUOUS
10
6.6226396456692909
20
-4.6120297244094486
11
6.63022874015748
21
-4.6173436614173227
0
LINE
8
BLACK
6
CONTINUOUS
10
6.63022874015748
20
-4.6173436614173227
11
6.6367798031496061
21
-4.6238947244094488
0
LINE
8
BLACK
6
CONTINUOUS
10
6.6367798031496061
20
-4.6238947244094488
11
6.6420937401574802
21
-4.6314838188976379
0
LINE
8
BLACK
6
CONTINUOUS
10
6.6420937401574802
20
-4.6314838188976379
11
6.6460091338582679
21
-4.6398803937007873
0
LINE
8
BLACK
6
CONTINUOUS
10
6.6460091338582679
20
-4.6398803937007873
11
6.6484069685039371
21
-4.6488292913385827
0
LINE
8
BLACK
6
CONTINUOUS
10
6.6484069685039371
20
-4.6488292913385827
11
6.6492144488188973
21
-4.6580586220472444
0
LINE
8
BLACK
6
CONTINUOUS
10
6.6492144488188973
20
-4.6580586220472444
11
6.6484069685039371
21
-4.6672879527559052
0
LINE
8
BLACK
6
CONTINUOUS
10
6.6484069685039371
20
-4.6672879527559052
11
6.6460091338582679
21
-4.6762368503937006
0
LINE
8
BLACK
6
CONTINUOUS
10
6.6460091338582679
20
-4.6762368503937006
11
6.6420937401574802
21
-4.68463342519685
0
LINE
8
BLACK
6
CONTINUOUS
10
6.6420937401574802
20
-4.68463342519685
11
6.6367798031496061
21
-4.6922225196850391
0
LINE
8
BLACK
6
CONTINUOUS
10
6.6367798031496061
20
-4.6922225196850391
11
6.63022874015748
21
-4.6987735826771653
0
LINE
8
BLACK
6
CONTINUOUS
10
6.63022874015748
20
-4.6987735826771653
11
6.6226396456692909
21
-4.7040875196850394
0
LINE
8
BLACK
6
CONTINUOUS
10
6.6226396456692909
20
-4.7040875196850394
11
6.6142430708661415
21
-4.708002913385827
0
LINE
8
BLACK
6
CONTINUOUS
10
6.6142430708661415
20
-4.708002913385827
11
6.6052941732283461
21
-4.7104007480314962
0
LINE
8
BLACK
6
CONTINUOUS
10
6.6052941732283461
20
-4.7104007480314962
11
6.5960648425196853
21
-4.7112082283464565
0
LINE
8
BLACK
6
CONTINUOUS
10
6.5960648425196853
20
-4.7112082283464565
11
6.5868355118110236
21
-4.7104007480314962
0
LINE
8
BLACK
6
CONTINUOUS
10
6.5868355118110236
20
-4.7104007480314962
11
6.5778866141732282
21
-4.708002913385827
0
LINE
8
BLACK
6
CONTINUOUS
10
6.5778866141732282
20
-4.708002913385827
11
6.5694900393700788
21
-4.7040875196850394
0
LINE
8
BLACK
6
CONTINUOUS
10
6.5694900393700788
20
-4.7040875196850394
11
6.5619009448818897
21
-4.6987735826771653
0
LINE
8
BLACK
6
CONTINUOUS
10
6.5619009448818897
20
-4.6987735826771653
11
6.5553498818897635
21
-4.6922225196850391
0
LINE
8
BLACK
6
CONTINUOUS
10
6.5553498818897635
20
-4.6922225196850391
11
6.5500359448818894
21
-4.68463342519685
0
LINE
8
BLACK
6
CONTINUOUS
10
6.5500359448818894
20
-4.68463342519685
11
6.5461205511811018
21
-4.6762368503937006
0
LINE
8
BLACK
6
CONTINUOUS
10
6.5461205511811018
20
-4.6762368503937006
11
6.5437227165354326
21
-4.6672879527559052
0
LINE
8
BLACK
6
CONTINUOUS
10
6.5437227165354326
20
-4.6672879527559052
11
6.5429152362204723
21
-4.6580586220472444
0
LINE
8
BLACK
6
CONTINUOUS
10
6.5429152362204723
20
-4.6580586220472444
11
6.5437227165354326
21
-4.6488292913385827
0
LINE
8
BLACK
6
CONTINUOUS
10
6.5437227165354326
20
-4.6488292913385827
11
6.5461205511811018
21
-4.6398803937007873
0
LINE
8
BLACK
6
CONTINUOUS
10
6.5461205511811018
20
-4.6398803937007873
11
6.5500359448818894
21
-4.6314838188976379
0
LINE
8
BLACK
6
CONTINUOUS
10
6.5500359448818894
20
-4.6314838188976379
11
6.5553498818897635
21
-4.6238947244094488
0
LINE
8
BLACK
6
CONTINUOUS
10
6.5553498818897635
20
-4.6238947244094488
11
6.5619009448818897
21
-4.6173436614173227
0
LINE
8
BLACK
6
CONTINUOUS
10
6.5619009448818897
20
-4.6173436614173227
11
6.5694900393700788
21
-4.6120297244094486
0
LINE
8
BLACK
6
CONTINUOUS
10
6.5694900393700788
20
-4.6120297244094486
11
6.5778866141732282
21
-4.6081143307086609
0
LINE
8
BLACK
6
CONTINUOUS
10
6.5778866141732282
20
-4.6081143307086609
11
6.5868355118110236
21
-4.6057164960629917
0
LINE
8
BLACK
6
CONTINUOUS
10
6.5868355118110236
20
-4.6057164960629917
11
6.5960648425196853
21
-4.6049090157480315
0
LINE
8
BLACK
6
CONTINUOUS
10
6.5960648425196853
20
-4.6049090157480315
11
6.6052941732283461
21
-4.6057164960629917
0
LINE
8
BLACK
6
CONTINUOUS
10
6.7452941732283467
20
-4.6057164960629917
11
6.7542430708661412
21
-4.6081143307086609
0
LINE
8
BLACK
6
CONTINUOUS
10
6.7542430708661412
20
-4.6081143307086609
11
6.7626396456692914
21
-4.6120297244094486
0
LINE
8
BLACK
6
CONTINUOUS
10
6.7626396456692914
20
-4.6120297244094486
11
6.7702287401574806
21
-4.6173436614173227
0
LINE
8
BLACK
6
CONTINUOUS
10
6.7702287401574806
20
-4.6173436614173227
11
6.7767798031496058
21
-4.6238947244094488
0
LINE
8
BLACK
6
CONTINUOUS
10
6.7767798031496058
20
-4.6238947244094488
11
6.7820937401574799
21
-4.6314838188976379
0
LINE
8
BLACK
6
CONTINUOUS
10
6.7820937401574799
20
-4.6314838188976379
11
6.7860091338582675
21
-4.6398803937007873
0
LINE
8
BLACK
6
CONTINUOUS
10
6.7860091338582675
20
-4.6398803937007873
11
6.7884069685039368
21
-4.6488292913385827
0
LINE
8
BLACK
6
CONTINUOUS
10
6.7884069685039368
20
-4.6488292913385827
11
6.7892144488188979
21
-4.6580586220472444
0
LINE
8
BLACK
6
CONTINUOUS
10
6.7892144488188979
20
-4.6580586220472444
11
6.7884069685039368
21
-4.6672879527559052
0
LINE
8
BLACK
6
CONTINUOUS
10
6.7884069685039368
20
-4.6672879527559052
11
6.7860091338582675
21
-4.6762368503937006
0
LINE
8
BLACK
6
CONTINUOUS
10
6.7860091338582675
20
-4.6762368503937006
11
6.7820937401574799
21
-4.68463342519685
0
LINE
8
BLACK
6
CONTINUOUS
10
6.7820937401574799
20
-4.68463342519685
11
6.7767798031496058
21
-4.6922225196850391
0
LINE
8
BLACK
6
CONTINUOUS
10
6.7767798031496058
20
-4.6922225196850391
11
6.7702287401574806
21
-4.6987735826771653
0
LINE
8
BLACK
6
CONTINUOUS
10
6.7702287401574806
20
-4.6987735826771653
11
6.7626396456692914
21
-4.7040875196850394
0
LINE
8
BLACK
6
CONTINUOUS
10
6.7626396456692914
20
-4.7040875196850394
11
6.7542430708661412
21
-4.708002913385827
0
LINE
8
BLACK
6
CONTINUOUS
10
6.7542430708661412
20
-4.708002913385827
11
6.7452941732283467
21
-4.7104007480314962
0
LINE
8
BLACK
6
CONTINUOUS
10
6.7452941732283467
20
-4.7104007480314962
11
6.736064842519685
21
-4.7112082283464565
0
LINE
8
BLACK
6
CONTINUOUS
10
6.736064842519685
20
-4.7112082283464565
11
6.7268355118110232
21
-4.7104007480314962
0
LINE
8
BLACK
6
CONTINUOUS
10
6.7268355118110232
20
-4.7104007480314962
11
6.7178866141732279
21
-4.708002913385827
0
LINE
8
BLACK
6
CONTINUOUS
10
6.7178866141732279
20
-4.708002913385827
11
6.7094900393700785
21
-4.7040875196850394
0
LINE
8
BLACK
6
CONTINUOUS
10
6.7094900393700785
20
-4.7040875196850394
11
6.7019009448818894
21
-4.6987735826771653
0
LINE
8
BLACK
6
CONTINUOUS
10
6.7019009448818894
20
-4.6987735826771653
11
6.6953498818897632
21
-4.6922225196850391
0
LINE
8
BLACK
6
CONTINUOUS
10
6.6953498818897632
20
-4.6922225196850391
11
6.69003594488189
21
-4.68463342519685
0
LINE
8
BLACK
6
CONTINUOUS
10
6.69003594488189
20
-4.68463342519685
11
6.6861205511811024
21
-4.6762368503937006
0
LINE
8
BLACK
6
CONTINUOUS
10
6.6861205511811024
20
-4.6762368503937006
11
6.6837227165354332
21
-4.6672879527559052
0
LINE
8
BLACK
6
CONTINUOUS
10
6.6837227165354332
20
-4.6672879527559052
11
6.682915236220472
21
-4.6580586220472444
0
LINE
8
BLACK
6
CONTINUOUS
10
6.682915236220472
20
-4.6580586220472444
11
6.6837227165354332
21
-4.6488292913385827
0
LINE
8
BLACK
6
CONTINUOUS
10
6.6837227165354332
20
-4.6488292913385827
11
6.6861205511811024
21
-4.6398803937007873
0
LINE
8
BLACK
6
CONTINUOUS
10
6.6861205511811024
20
-4.6398803937007873
11
6.69003594488189
21
-4.6314838188976379
0
LINE
8
BLACK
6
CONTINUOUS
10
6.69003594488189
20
-4.6314838188976379
11
6.6953498818897632
21
-4.6238947244094488
0
LINE
8
BLACK
6
CONTINUOUS
10
6.6953498818897632
20
-4.6238947244094488
11
6.7019009448818894
21
-4.6173436614173227
0
LINE
8
BLACK
6
CONTINUOUS
10
6.7019009448818894
20
-4.6173436614173227
11
6.7094900393700785
21
-4.6120297244094486
0
LINE
8
BLACK
6
CONTINUOUS
10
6.7094900393700785
20
-4.6120297244094486
11
6.7178866141732279
21
-4.6081143307086609
0
LINE
8
BLACK
6
CONTINUOUS
10
6.7178866141732279
20
-4.6081143307086609
11
6.7268355118110232
21
-4.6057164960629917
0
LINE
8
BLACK
6
CONTINUOUS
10
6.7268355118110232
20
-4.6057164960629917
11
6.736064842519685
21
-4.6049090157480315
0
LINE
8
BLACK
6
CONTINUOUS
10
6.736064842519685
20
-4.6049090157480315
11
6.7452941732283467
21
-4.6057164960629917
0
LINE
8
BLACK
6
CONTINUOUS
10
6.3760648425196846
20
-4.6980586220472436
11
6.316064842519685
21
-4.6980586220472436
0
LINE
8
BLACK
6
CONTINUOUS
10
6.316064842519685
20
-4.6980586220472436
11
6.316064842519685
21
-4.638058622047244
0
LINE
8
BLACK
6
CONTINUOUS
10
6.316064842519685
20
-4.638058622047244
11
6.3760648425196846
21
-4.638058622047244
0
LINE
8
BLACK
6
CONTINUOUS
10
6.3760648425196846
20
-4.638058622047244
11
6.3760648425196846
21
-4.6980586220472436
0
LINE
8
BLACK
6
CONTINUOUS
10
6.4760648425196852
20
-4.6980586220472436
11
6.4160648425196847
21
-4.6980586220472436
0
LINE
8
BLACK
6
CONTINUOUS
10
6.4160648425196847
20
-4.6980586220472436
11
6.4160648425196847
21
-4.638058622047244
0
LINE
8
BLACK
6
CONTINUOUS
10
6.4160648425196847
20
-4.638058622047244
11
6.4760648425196852
21
-4.638058622047244
0
LINE
8
BLACK
6
CONTINUOUS
10
6.4760648425196852
20
-4.638058622047244
11
6.4760648425196852
21
-4.6980586220472436
0
LINE
8
BLACK
6
CONTINUOUS
10
5.3310648425196847
20
-4.6080586220472437
11
5.2710648425196851
21
-4.6080586220472437
0
LINE
8
BLACK
6
CONTINUOUS
10
5.2710648425196851
20
-4.6080586220472437
11
5.2710648425196851
21
-4.5480586220472441
0
LINE
8
BLACK
6
CONTINUOUS
10
5.2710648425196851
20
-4.5480586220472441
11
5.3310648425196847
21
-4.5480586220472441
0
LINE
8
BLACK
6
CONTINUOUS
10
5.3310648425196847
20
-4.5480586220472441
11
5.3310648425196847
21
-4.6080586220472437
0
LINE
8
BLACK
6
CONTINUOUS
10
5.4310648425196852
20
-4.6080586220472437
11
5.3710648425196847
21
-4.6080586220472437
0
LINE
8
BLACK
6
CONTINUOUS
10
5.3710648425196847
20
-4.6080586220472437
11
5.3710648425196847
21
-4.5480586220472441
0
LINE
8
BLACK
6
CONTINUOUS
10
5.3710648425196847
20
-4.5480586220472441
11
5.4310648425196852
21
-4.5480586220472441
0
LINE
8
BLACK
6
CONTINUOUS
10
5.4310648425196852
20
-4.5480586220472441
11
5.4310648425196852
21
-4.6080586220472437
0
LINE
8
BLACK
6
CONTINUOUS
10
5.5310648425196849
20
-4.6080586220472437
11
5.4710648425196853
21
-4.6080586220472437
0
LINE
8
BLACK
6
CONTINUOUS
10
5.4710648425196853
20
-4.6080586220472437
11
5.4710648425196853
21
-4.5480586220472441
0
LINE
8
BLACK
6
CONTINUOUS
10
5.4710648425196853
20
-4.5480586220472441
11
5.5310648425196849
21
-4.5480586220472441
0
LINE
8
BLACK
6
CONTINUOUS
10
5.5310648425196849
20
-4.5480586220472441
11
5.5310648425196849
21
-4.6080586220472437
0
LINE
8
BLACK
6
CONTINUOUS
10
5.6310648425196845
20
-4.6080586220472437
11
5.5710648425196849
21
-4.6080586220472437
0
LINE
8
BLACK
6
CONTINUOUS
10
5.5710648425196849
20
-4.6080586220472437
11
5.5710648425196849
21
-4.5480586220472441
0
LINE
8
BLACK
6
CONTINUOUS
10
5.5710648425196849
20
-4.5480586220472441
11
5.6310648425196845
21
-4.5480586220472441
0
LINE
8
BLACK
6
CONTINUOUS
10
5.6310648425196845
20
-4.5480586220472441
11
5.6310648425196845
21
-4.6080586220472437
0
LINE
8
BLACK
6
CONTINUOUS
10
5.7310648425196851
20
-4.6080586220472437
11
5.6710648425196846
21
-4.6080586220472437
0
LINE
8
BLACK
6
CONTINUOUS
10
5.6710648425196846
20
-4.6080586220472437
11
5.6710648425196846
21
-4.5480586220472441
0
LINE
8
BLACK
6
CONTINUOUS
10
5.6710648425196846
20
-4.5480586220472441
11
5.7310648425196851
21
-4.5480586220472441
0
LINE
8
BLACK
6
CONTINUOUS
10
5.7310648425196851
20
-4.5480586220472441
11
5.7310648425196851
21
-4.6080586220472437
0
LINE
8
BLACK
6
CONTINUOUS
10
5.8310648425196847
20
-4.6080586220472437
11
5.7710648425196851
21
-4.6080586220472437
0
LINE
8
BLACK
6
CONTINUOUS
10
5.7710648425196851
20
-4.6080586220472437
11
5.7710648425196851
21
-4.5480586220472441
0
LINE
8
BLACK
6
CONTINUOUS
10
5.7710648425196851
20
-4.5480586220472441
11
5.8310648425196847
21
-4.5480586220472441
0
LINE
8
BLACK
6
CONTINUOUS
10
5.8310648425196847
20
-4.5480586220472441
11
5.8310648425196847
21
-4.6080586220472437
0
LINE
8
BLACK
6
CONTINUOUS
10
5.9310648425196852
20
-4.6080586220472437
11
5.8710648425196847
21
-4.6080586220472437
0
LINE
8
BLACK
6
CONTINUOUS
10
5.8710648425196847
20
-4.6080586220472437
11
5.8710648425196847
21
-4.5480586220472441
0
LINE
8
BLACK
6
CONTINUOUS
10
5.8710648425196847
20
-4.5480586220472441
11
5.9310648425196852
21
-4.5480586220472441
0
LINE
8
BLACK
6
CONTINUOUS
10
5.9310648425196852
20
-4.5480586220472441
11
5.9310648425196852
21
-4.6080586220472437
0
LINE
8
BLACK
6
CONTINUOUS
10
6.0310648425196849
20
-4.6080586220472437
11
5.9710648425196853
21
-4.6080586220472437
0
LINE
8
BLACK
6
CONTINUOUS
10
5.9710648425196853
20
-4.6080586220472437
11
5.9710648425196853
21
-4.5480586220472441
0
LINE
8
BLACK
6
CONTINUOUS
10
5.9710648425196853
20
-4.5480586220472441
11
6.0310648425196849
21
-4.5480586220472441
0
LINE
8
BLACK
6
CONTINUOUS
10
6.0310648425196849
20
-4.5480586220472441
11
6.0310648425196849
21
-4.6080586220472437
0
LINE
8
BLACK
6
CONTINUOUS
10
6.1310648425196845
20
-4.6080586220472437
11
6.0710648425196849
21
-4.6080586220472437
0
LINE
8
BLACK
6
CONTINUOUS
10
6.0710648425196849
20
-4.6080586220472437
11
6.0710648425196849
21
-4.5480586220472441
0
LINE
8
BLACK
6
CONTINUOUS
10
6.0710648425196849
20
-4.5480586220472441
11
6.1310648425196845
21
-4.5480586220472441
0
LINE
8
BLACK
6
CONTINUOUS
10
6.1310648425196845
20
-4.5480586220472441
11
6.1310648425196845
21
-4.6080586220472437
0
LINE
8
BLACK
6
CONTINUOUS
10
6.2310648425196851
20
-4.6080586220472437
11
6.1710648425196846
21
-4.6080586220472437
0
LINE
8
BLACK
6
CONTINUOUS
10
6.1710648425196846
20
-4.6080586220472437
11
6.1710648425196846
21
-4.5480586220472441
0
LINE
8
BLACK
6
CONTINUOUS
10
6.1710648425196846
20
-4.5480586220472441
11
6.2310648425196851
21
-4.5480586220472441
0
LINE
8
BLACK
6
CONTINUOUS
10
6.2310648425196851
20
-4.5480586220472441
11
6.2310648425196851
21
-4.6080586220472437
0
LINE
8
BLACK
6
CONTINUOUS
10
6.3760648425196846
20
-4.5980586220472439
11
6.316064842519685
21
-4.5980586220472439
0
LINE
8
BLACK
6
CONTINUOUS
10
6.316064842519685
20
-4.5980586220472439
11
6.316064842519685
21
-4.5380586220472443
0
LINE
8
BLACK
6
CONTINUOUS
10
6.316064842519685
20
-4.5380586220472443
11
6.3760648425196846
21
-4.5380586220472443
0
LINE
8
BLACK
6
CONTINUOUS
10
6.3760648425196846
20
-4.5380586220472443
11
6.3760648425196846
21
-4.5980586220472439
0
LINE
8
BLACK
6
CONTINUOUS
10
6.4760648425196852
20
-4.5980586220472439
11
6.4160648425196847
21
-4.5980586220472439
0
LINE
8
BLACK
6
CONTINUOUS
10
6.4160648425196847
20
-4.5980586220472439
11
6.4160648425196847
21
-4.5380586220472443
0
LINE
8
BLACK
6
CONTINUOUS
10
6.4160648425196847
20
-4.5380586220472443
11
6.4760648425196852
21
-4.5380586220472443
0
LINE
8
BLACK
6
CONTINUOUS
10
6.4760648425196852
20
-4.5380586220472443
11
6.4760648425196852
21
-4.5980586220472439
0
LINE
8
BLACK
6
CONTINUOUS
10
5.3310648425196847
20
-4.5080586220472441
11
5.2710648425196851
21
-4.5080586220472441
0
LINE
8
BLACK
6
CONTINUOUS
10
5.2710648425196851
20
-4.5080586220472441
11
5.2710648425196851
21
-4.4480586220472436
0
LINE
8
BLACK
6
CONTINUOUS
10
5.2710648425196851
20
-4.4480586220472436
11
5.3310648425196847
21
-4.4480586220472436
0
LINE
8
BLACK
6
CONTINUOUS
10
5.3310648425196847
20
-4.4480586220472436
11
5.3310648425196847
21
-4.5080586220472441
0
LINE
8
BLACK
6
CONTINUOUS
10
5.4310648425196852
20
-4.5080586220472441
11
5.3710648425196847
21
-4.5080586220472441
0
LINE
8
BLACK
6
CONTINUOUS
10
5.3710648425196847
20
-4.5080586220472441
11
5.3710648425196847
21
-4.4480586220472436
0
LINE
8
BLACK
6
CONTINUOUS
10
5.3710648425196847
20
-4.4480586220472436
11
5.4310648425196852
21
-4.4480586220472436
0
LINE
8
BLACK
6
CONTINUOUS
10
5.4310648425196852
20
-4.4480586220472436
11
5.4310648425196852
21
-4.5080586220472441
0
LINE
8
BLACK
6
CONTINUOUS
10
5.5310648425196849
20
-4.5080586220472441
11
5.4710648425196853
21
-4.5080586220472441
0
LINE
8
BLACK
6
CONTINUOUS
10
5.4710648425196853
20
-4.5080586220472441
11
5.4710648425196853
21
-4.4480586220472436
0
LINE
8
BLACK
6
CONTINUOUS
10
5.4710648425196853
20
-4.4480586220472436
11
5.5310648425196849
21
-4.4480586220472436
0
LINE
8
BLACK
6
CONTINUOUS
10
5.5310648425196849
20
-4.4480586220472436
11
5.5310648425196849
21
-4.5080586220472441
0
LINE
8
BLACK
6
CONTINUOUS
10
5.6310648425196845
20
-4.5080586220472441
11
5.5710648425196849
21
-4.5080586220472441
0
LINE
8
BLACK
6
CONTINUOUS
10
5.5710648425196849
20
-4.5080586220472441
11
5.5710648425196849
21
-4.4480586220472436
0
LINE
8
BLACK
6
CONTINUOUS
10
5.5710648425196849
20
-4.4480586220472436
11
5.6310648425196845
21
-4.4480586220472436
0
LINE
8
BLACK
6
CONTINUOUS
10
5.6310648425196845
20
-4.4480586220472436
11
5.6310648425196845
21
-4.5080586220472441
0
LINE
8
BLACK
6
CONTINUOUS
10
5.7310648425196851
20
-4.5080586220472441
11
5.6710648425196846
21
-4.5080586220472441
0
LINE
8
BLACK
6
CONTINUOUS
10
5.6710648425196846
20
-4.5080586220472441
11
5.6710648425196846
21
-4.4480586220472436
0
LINE
8
BLACK
6
CONTINUOUS
10
5.6710648425196846
20
-4.4480586220472436
11
5.7310648425196851
21
-4.4480586220472436
0
LINE
8
BLACK
6
CONTINUOUS
10
5.7310648425196851
20
-4.4480586220472436
11
5.7310648425196851
21
-4.5080586220472441
0
LINE
8
BLACK
6
CONTINUOUS
10
5.8310648425196847
20
-4.5080586220472441
11
5.7710648425196851
21
-4.5080586220472441
0
LINE
8
BLACK
6
CONTINUOUS
10
5.7710648425196851
20
-4.5080586220472441
11
5.7710648425196851
21
-4.4480586220472436
0
LINE
8
BLACK
6
CONTINUOUS
10
5.7710648425196851
20
-4.4480586220472436
11
5.8310648425196847
21
-4.4480586220472436
0
LINE
8
BLACK
6
CONTINUOUS
10
5.8310648425196847
20
-4.4480586220472436
11
5.8310648425196847
21
-4.5080586220472441
0
LINE
8
BLACK
6
CONTINUOUS
10
5.9310648425196852
20
-4.5080586220472441
11
5.8710648425196847
21
-4.5080586220472441
0
LINE
8
BLACK
6
CONTINUOUS
10
5.8710648425196847
20
-4.5080586220472441
11
5.8710648425196847
21
-4.4480586220472436
0
LINE
8
BLACK
6
CONTINUOUS
10
5.8710648425196847
20
-4.4480586220472436
11
5.9310648425196852
21
-4.4480586220472436
0
LINE
8
BLACK
6
CONTINUOUS
10
5.9310648425196852
20
-4.4480586220472436
11
5.9310648425196852
21
-4.5080586220472441
0
LINE
8
BLACK
6
CONTINUOUS
10
6.0310648425196849
20
-4.5080586220472441
11
5.9710648425196853
21
-4.5080586220472441
0
LINE
8
BLACK
6
CONTINUOUS
10
5.9710648425196853
20
-4.5080586220472441
11
5.9710648425196853
21
-4.4480586220472436
0
LINE
8
BLACK
6
CONTINUOUS
10
5.9710648425196853
20
-4.4480586220472436
11
6.0310648425196849
21
-4.4480586220472436
0
LINE
8
BLACK
6
CONTINUOUS
10
6.0310648425196849
20
-4.4480586220472436
11
6.0310648425196849
21
-4.5080586220472441
0
LINE
8
BLACK
6
CONTINUOUS
10
6.1310648425196845
20
-4.5080586220472441
11
6.0710648425196849
21
-4.5080586220472441
0
LINE
8
BLACK
6
CONTINUOUS
10
6.0710648425196849
20
-4.5080586220472441
11
6.0710648425196849
21
-4.4480586220472436
0
LINE
8
BLACK
6
CONTINUOUS
10
6.0710648425196849
20
-4.4480586220472436
11
6.1310648425196845
21
-4.4480586220472436
0
LINE
8
BLACK
6
CONTINUOUS
10
6.1310648425196845
20
-4.4480586220472436
11
6.1310648425196845
21
-4.5080586220472441
0
LINE
8
BLACK
6
CONTINUOUS
10
6.2310648425196851
20
-4.5080586220472441
11
6.1710648425196846
21
-4.5080586220472441
0
LINE
8
BLACK
6
CONTINUOUS
10
6.1710648425196846
20
-4.5080586220472441
11
6.1710648425196846
21
-4.4480586220472436
0
LINE
8
BLACK
6
CONTINUOUS
10
6.1710648425196846
20
-4.4480586220472436
11
6.2310648425196851
21
-4.4480586220472436
0
LINE
8
BLACK
6
CONTINUOUS
10
6.2310648425196851
20
-4.4480586220472436
11
6.2310648425196851
21
-4.5080586220472441
0
LINE
8
BLACK
6
CONTINUOUS
10
4.9560648425196847
20
-4.4230586220472441
11
4.8960648425196851
21
-4.4230586220472441
0
LINE
8
BLACK
6
CONTINUOUS
10
4.8960648425196851
20
-4.4230586220472441
11
4.8960648425196851
21
-4.3630586220472436
0
LINE
8
BLACK
6
CONTINUOUS
10
4.8960648425196851
20
-4.3630586220472436
11
4.9560648425196847
21
-4.3630586220472436
0
LINE
8
BLACK
6
CONTINUOUS
10
4.9560648425196847
20
-4.3630586220472436
11
4.9560648425196847
21
-4.4230586220472441
0
LINE
8
BLACK
6
CONTINUOUS
10
5.0560648425196852
20
-4.4230586220472441
11
4.9960648425196847
21
-4.4230586220472441
0
LINE
8
BLACK
6
CONTINUOUS
10
4.9960648425196847
20
-4.4230586220472441
11
4.9960648425196847
21
-4.3630586220472436
0
LINE
8
BLACK
6
CONTINUOUS
10
4.9960648425196847
20
-4.3630586220472436
11
5.0560648425196852
21
-4.3630586220472436
0
LINE
8
BLACK
6
CONTINUOUS
10
5.0560648425196852
20
-4.3630586220472436
11
5.0560648425196852
21
-4.4230586220472441
0
LINE
8
BLACK
6
CONTINUOUS
10
6.9352941732283462
20
-4.2507164960629922
11
6.9442430708661416
21
-4.2531143307086614
0
LINE
8
BLACK
6
CONTINUOUS
10
6.9442430708661416
20
-4.2531143307086614
11
6.9526396456692909
21
-4.257029724409449
0
LINE
8
BLACK
6
CONTINUOUS
10
6.9526396456692909
20
-4.257029724409449
11
6.9602287401574801
21
-4.2623436614173231
0
LINE
8
BLACK
6
CONTINUOUS
10
6.9602287401574801
20
-4.2623436614173231
11
6.9667798031496062
21
-4.2688947244094484
0
LINE
8
BLACK
6
CONTINUOUS
10
6.9667798031496062
20
-4.2688947244094484
11
6.9720937401574803
21
-4.2764838188976375
0
LINE
8
BLACK
6
CONTINUOUS
10
6.9720937401574803
20
-4.2764838188976375
11
6.9760091338582679
21
-4.2848803937007869
0
LINE
8
BLACK
6
CONTINUOUS
10
6.9760091338582679
20
-4.2848803937007869
11
6.9784069685039372
21
-4.2938292913385823
0
LINE
8
BLACK
6
CONTINUOUS
10
6.9784069685039372
20
-4.2938292913385823
11
6.9792144488188974
21
-4.303058622047244
0
LINE
8
BLACK
6
CONTINUOUS
10
6.9792144488188974
20
-4.303058622047244
11
6.9784069685039372
21
-4.3122879527559057
0
LINE
8
BLACK
6
CONTINUOUS
10
6.9784069685039372
20
-4.3122879527559057
11
6.9760091338582679
21
-4.3212368503937011
0
LINE
8
BLACK
6
CONTINUOUS
10
6.9760091338582679
20
-4.3212368503937011
11
6.9720937401574803
21
-4.3296334251968505
0
LINE
8
BLACK
6
CONTINUOUS
10
6.9720937401574803
20
-4.3296334251968505
11
6.9667798031496062
21
-4.3372225196850396
0
LINE
8
BLACK
6
CONTINUOUS
10
6.9667798031496062
20
-4.3372225196850396
11
6.9602287401574801
21
-4.3437735826771648
0
LINE
8
BLACK
6
CONTINUOUS
10
6.9602287401574801
20
-4.3437735826771648
11
6.9526396456692909
21
-4.3490875196850389
0
LINE
8
BLACK
6
CONTINUOUS
10
6.9526396456692909
20
-4.3490875196850389
11
6.9442430708661416
21
-4.3530029133858266
0
LINE
8
BLACK
6
CONTINUOUS
10
6.9442430708661416
20
-4.3530029133858266
11
6.9352941732283462
21
-4.3554007480314958
0
LINE
8
BLACK
6
CONTINUOUS
10
6.9352941732283462
20
-4.3554007480314958
11
6.9260648425196845
21
-4.3562082283464569
0
LINE
8
BLACK
6
CONTINUOUS
10
6.9260648425196845
20
-4.3562082283464569
11
6.9168355118110236
21
-4.3554007480314958
0
LINE
8
BLACK
6
CONTINUOUS
10
6.9168355118110236
20
-4.3554007480314958
11
6.9078866141732282
21
-4.3530029133858266
0
LINE
8
BLACK
6
CONTINUOUS
10
6.9078866141732282
20
-4.3530029133858266
11
6.8994900393700789
21
-4.3490875196850389
0
LINE
8
BLACK
6
CONTINUOUS
10
6.8994900393700789
20
-4.3490875196850389
11
6.8919009448818898
21
-4.3437735826771648
0
LINE
8
BLACK
6
CONTINUOUS
10
6.8919009448818898
20
-4.3437735826771648
11
6.8853498818897636
21
-4.3372225196850396
0
LINE
8
BLACK
6
CONTINUOUS
10
6.8853498818897636
20
-4.3372225196850396
11
6.8800359448818895
21
-4.3296334251968505
0
LINE
8
BLACK
6
CONTINUOUS
10
6.8800359448818895
20
-4.3296334251968505
11
6.8761205511811019
21
-4.3212368503937011
0
LINE
8
BLACK
6
CONTINUOUS
10
6.8761205511811019
20
-4.3212368503937011
11
6.8737227165354327
21
-4.3122879527559057
0
LINE
8
BLACK
6
CONTINUOUS
10
6.8737227165354327
20
-4.3122879527559057
11
6.8729152362204724
21
-4.303058622047244
0
LINE
8
BLACK
6
CONTINUOUS
10
6.8729152362204724
20
-4.303058622047244
11
6.8737227165354327
21
-4.2938292913385823
0
LINE
8
BLACK
6
CONTINUOUS
10
6.8737227165354327
20
-4.2938292913385823
11
6.8761205511811019
21
-4.2848803937007869
0
LINE
8
BLACK
6
CONTINUOUS
10
6.8761205511811019
20
-4.2848803937007869
11
6.8800359448818895
21
-4.2764838188976375
0
LINE
8
BLACK
6
CONTINUOUS
10
6.8800359448818895
20
-4.2764838188976375
11
6.8853498818897636
21
-4.2688947244094484
0
LINE
8
BLACK
6
CONTINUOUS
10
6.8853498818897636
20
-4.2688947244094484
11
6.8919009448818898
21
-4.2623436614173231
0
LINE
8
BLACK
6
CONTINUOUS
10
6.8919009448818898
20
-4.2623436614173231
11
6.8994900393700789
21
-4.257029724409449
0
LINE
8
BLACK
6
CONTINUOUS
10
6.8994900393700789
20
-4.257029724409449
11
6.9078866141732282
21
-4.2531143307086614
0
LINE
8
BLACK
6
CONTINUOUS
10
6.9078866141732282
20
-4.2531143307086614
11
6.9168355118110236
21
-4.2507164960629922
0
LINE
8
BLACK
6
CONTINUOUS
10
6.9168355118110236
20
-4.2507164960629922
11
6.9260648425196845
21
-4.249909015748031
0
LINE
8
BLACK
6
CONTINUOUS
10
6.9260648425196845
20
-4.249909015748031
11
6.9352941732283462
21
-4.2507164960629922
0
LINE
8
BLACK
6
CONTINUOUS
10
7.1352941732283464
20
-4.2507164960629922
11
7.1442430708661417
21
-4.2531143307086614
0
LINE
8
BLACK
6
CONTINUOUS
10
7.1442430708661417
20
-4.2531143307086614
11
7.1526396456692911
21
-4.257029724409449
0
LINE
8
BLACK
6
CONTINUOUS
10
7.1526396456692911
20
-4.257029724409449
11
7.1602287401574802
21
-4.2623436614173231
0
LINE
8
BLACK
6
CONTINUOUS
10
7.1602287401574802
20
-4.2623436614173231
11
7.1667798031496064
21
-4.2688947244094484
0
LINE
8
BLACK
6
CONTINUOUS
10
7.1667798031496064
20
-4.2688947244094484
11
7.1720937401574805
21
-4.2764838188976375
0
LINE
8
BLACK
6
CONTINUOUS
10
7.1720937401574805
20
-4.2764838188976375
11
7.1760091338582672
21
-4.2848803937007869
0
LINE
8
BLACK
6
CONTINUOUS
10
7.1760091338582672
20
-4.2848803937007869
11
7.1784069685039364
21
-4.2938292913385823
0
LINE
8
BLACK
6
CONTINUOUS
10
7.1784069685039364
20
-4.2938292913385823
11
7.1792144488188976
21
-4.303058622047244
0
LINE
8
BLACK
6
CONTINUOUS
10
7.1792144488188976
20
-4.303058622047244
11
7.1784069685039364
21
-4.3122879527559057
0
LINE
8
BLACK
6
CONTINUOUS
10
7.1784069685039364
20
-4.3122879527559057
11
7.1760091338582672
21
-4.3212368503937011
0
LINE
8
BLACK
6
CONTINUOUS
10
7.1760091338582672
20
-4.3212368503937011
11
7.1720937401574805
21
-4.3296334251968505
0
LINE
8
BLACK
6
CONTINUOUS
10
7.1720937401574805
20
-4.3296334251968505
11
7.1667798031496064
21
-4.3372225196850396
0
LINE
8
BLACK
6
CONTINUOUS
10
7.1667798031496064
20
-4.3372225196850396
11
7.1602287401574802
21
-4.3437735826771648
0
LINE
8
BLACK
6
CONTINUOUS
10
7.1602287401574802
20
-4.3437735826771648
11
7.1526396456692911
21
-4.3490875196850389
0
LINE
8
BLACK
6
CONTINUOUS
10
7.1526396456692911
20
-4.3490875196850389
11
7.1442430708661417
21
-4.3530029133858266
0
LINE
8
BLACK
6
CONTINUOUS
10
7.1442430708661417
20
-4.3530029133858266
11
7.1352941732283464
21
-4.3554007480314958
0
LINE
8
BLACK
6
CONTINUOUS
10
7.1352941732283464
20
-4.3554007480314958
11
7.1260648425196846
21
-4.3562082283464569
0
LINE
8
BLACK
6
CONTINUOUS
10
7.1260648425196846
20
-4.3562082283464569
11
7.1168355118110238
21
-4.3554007480314958
0
LINE
8
BLACK
6
CONTINUOUS
10
7.1168355118110238
20
-4.3554007480314958
11
7.1078866141732284
21
-4.3530029133858266
0
LINE
8
BLACK
6
CONTINUOUS
10
7.1078866141732284
20
-4.3530029133858266
11
7.0994900393700782
21
-4.3490875196850389
0
LINE
8
BLACK
6
CONTINUOUS
10
7.0994900393700782
20
-4.3490875196850389
11
7.0919009448818899
21
-4.3437735826771648
0
LINE
8
BLACK
6
CONTINUOUS
10
7.0919009448818899
20
-4.3437735826771648
11
7.0853498818897638
21
-4.3372225196850396
0
LINE
8
BLACK
6
CONTINUOUS
10
7.0853498818897638
20
-4.3372225196850396
11
7.0800359448818897
21
-4.3296334251968505
0
LINE
8
BLACK
6
CONTINUOUS
10
7.0800359448818897
20
-4.3296334251968505
11
7.0761205511811021
21
-4.3212368503937011
0
LINE
8
BLACK
6
CONTINUOUS
10
7.0761205511811021
20
-4.3212368503937011
11
7.0737227165354328
21
-4.3122879527559057
0
LINE
8
BLACK
6
CONTINUOUS
10
7.0737227165354328
20
-4.3122879527559057
11
7.0729152362204726
21
-4.303058622047244
0
LINE
8
BLACK
6
CONTINUOUS
10
7.0729152362204726
20
-4.303058622047244
11
7.0737227165354328
21
-4.2938292913385823
0
LINE
8
BLACK
6
CONTINUOUS
10
7.0737227165354328
20
-4.2938292913385823
11
7.0761205511811021
21
-4.2848803937007869
0
LINE
8
BLACK
6
CONTINUOUS
10
7.0761205511811021
20
-4.2848803937007869
11
7.0800359448818897
21
-4.2764838188976375
0
LINE
8
BLACK
6
CONTINUOUS
10
7.0800359448818897
20
-4.2764838188976375
11
7.0853498818897638
21
-4.2688947244094484
0
LINE
8
BLACK
6
CONTINUOUS
10
7.0853498818897638
20
-4.2688947244094484
11
7.0919009448818899
21
-4.2623436614173231
0
LINE
8
BLACK
6
CONTINUOUS
10
7.0919009448818899
20
-4.2623436614173231
11
7.0994900393700782
21
-4.257029724409449
0
LINE
8
BLACK
6
CONTINUOUS
10
7.0994900393700782
20
-4.257029724409449
11
7.1078866141732284
21
-4.2531143307086614
0
LINE
8
BLACK
6
CONTINUOUS
10
7.1078866141732284
20
-4.2531143307086614
11
7.1168355118110238
21
-4.2507164960629922
0
LINE
8
BLACK
6
CONTINUOUS
10
7.1168355118110238
20
-4.2507164960629922
11
7.1260648425196846
21
-4.249909015748031
0
LINE
8
BLACK
6
CONTINUOUS
10
7.1260648425196846
20
-4.249909015748031
11
7.1352941732283464
21
-4.2507164960629922
0
LINE
8
BLACK
6
CONTINUOUS
10
4.9560648425196847
20
-4.3230586220472436
11
4.8960648425196851
21
-4.3230586220472436
0
LINE
8
BLACK
6
CONTINUOUS
10
4.8960648425196851
20
-4.3230586220472436
11
4.8960648425196851
21
-4.263058622047244
0
LINE
8
BLACK
6
CONTINUOUS
10
4.8960648425196851
20
-4.263058622047244
11
4.9560648425196847
21
-4.263058622047244
0
LINE
8
BLACK
6
CONTINUOUS
10
4.9560648425196847
20
-4.263058622047244
11
4.9560648425196847
21
-4.3230586220472436
0
LINE
8
BLACK
6
CONTINUOUS
10
5.0560648425196852
20
-4.3230586220472436
11
4.9960648425196847
21
-4.3230586220472436
0
LINE
8
BLACK
6
CONTINUOUS
10
4.9960648425196847
20
-4.3230586220472436
11
4.9960648425196847
21
-4.263058622047244
0
LINE
8
BLACK
6
CONTINUOUS
10
4.9960648425196847
20
-4.263058622047244
11
5.0560648425196852
21
-4.263058622047244
0
LINE
8
BLACK
6
CONTINUOUS
10
5.0560648425196852
20
-4.263058622047244
11
5.0560648425196852
21
-4.3230586220472436
0
LINE
8
BLACK
6
CONTINUOUS
10
7.0346105118110236
20
-4.1545936614173229
11
7.042896535433071
21
-4.1568138976377949
0
LINE
8
BLACK
6
CONTINUOUS
10
7.042896535433071
20
-4.1568138976377949
11
7.0506711417322832
21
-4.1604392519685041
0
LINE
8
BLACK
6
CONTINUOUS
10
7.0506711417322832
20
-4.1604392519685041
11
7.0576981102362204
21
-4.1653595669291335
0
LINE
8
BLACK
6
CONTINUOUS
10
7.0576981102362204
20
-4.1653595669291335
11
7.063763897637795
21
-4.1714253543307089
0
LINE
8
BLACK
6
CONTINUOUS
10
7.063763897637795
20
-4.1714253543307089
11
7.0686842125984253
21
-4.1784523228346453
0
LINE
8
BLACK
6
CONTINUOUS
10
7.0686842125984253
20
-4.1784523228346453
11
7.0723095669291336
21
-4.1862269291338583
0
LINE
8
BLACK
6
CONTINUOUS
10
7.0723095669291336
20
-4.1862269291338583
11
7.0745298031496064
21
-4.1945129527559057
0
LINE
8
BLACK
6
CONTINUOUS
10
7.0745298031496064
20
-4.1945129527559057
11
7.0752774409448813
21
-4.2030586220472443
0
LINE
8
BLACK
6
CONTINUOUS
10
7.0752774409448813
20
-4.2030586220472443
11
7.0745298031496064
21
-4.2116042913385829
0
LINE
8
BLACK
6
CONTINUOUS
10
7.0745298031496064
20
-4.2116042913385829
11
7.0723095669291336
21
-4.2198903149606295
0
LINE
8
BLACK
6
CONTINUOUS
10
7.0723095669291336
20
-4.2198903149606295
11
7.0686842125984253
21
-4.2276649212598425
0
LINE
8
BLACK
6
CONTINUOUS
10
7.0686842125984253
20
-4.2276649212598425
11
7.063763897637795
21
-4.2346918897637797
0
LINE
8
BLACK
6
CONTINUOUS
10
7.063763897637795
20
-4.2346918897637797
11
7.0576981102362204
21
-4.2407576771653543
0
LINE
8
BLACK
6
CONTINUOUS
10
7.0576981102362204
20
-4.2407576771653543
11
7.0506711417322832
21
-4.2456779921259837
0
LINE
8
BLACK
6
CONTINUOUS
10
7.0506711417322832
20
-4.2456779921259837
11
7.042896535433071
21
-4.2493033464566929
0
LINE
8
BLACK
6
CONTINUOUS
10
7.042896535433071
20
-4.2493033464566929
11
7.0346105118110236
21
-4.2515235826771649
0
LINE
8
BLACK
6
CONTINUOUS
10
7.0346105118110236
20
-4.2515235826771649
11
7.026064842519685
21
-4.2522712204724407
0
LINE
8
BLACK
6
CONTINUOUS
10
7.026064842519685
20
-4.2522712204724407
11
7.0175191732283464
21
-4.2515235826771649
0
LINE
8
BLACK
6
CONTINUOUS
10
7.0175191732283464
20
-4.2515235826771649
11
7.009233149606299
21
-4.2493033464566929
0
LINE
8
BLACK
6
CONTINUOUS
10
7.009233149606299
20
-4.2493033464566929
11
7.0014585433070868
21
-4.2456779921259837
0
LINE
8
BLACK
6
CONTINUOUS
10
7.0014585433070868
20
-4.2456779921259837
11
6.9944315748031496
21
-4.2407576771653543
0
LINE
8
BLACK
6
CONTINUOUS
10
6.9944315748031496
20
-4.2407576771653543
11
6.988365787401575
21
-4.2346918897637797
0
LINE
8
BLACK
6
CONTINUOUS
10
6.988365787401575
20
-4.2346918897637797
11
6.9834454724409447
21
-4.2276649212598425
0
LINE
8
BLACK
6
CONTINUOUS
10
6.9834454724409447
20
-4.2276649212598425
11
6.9798201181102364
21
-4.2198903149606295
0
LINE
8
BLACK
6
CONTINUOUS
10
6.9798201181102364
20
-4.2198903149606295
11
6.9775998818897635
21
-4.2116042913385829
0
LINE
8
BLACK
6
CONTINUOUS
10
6.9775998818897635
20
-4.2116042913385829
11
6.9768522440944878
21
-4.2030586220472443
0
LINE
8
BLACK
6
CONTINUOUS
10
6.9768522440944878
20
-4.2030586220472443
11
6.9775998818897635
21
-4.1945129527559057
0
LINE
8
BLACK
6
CONTINUOUS
10
6.9775998818897635
20
-4.1945129527559057
11
6.9798201181102364
21
-4.1862269291338583
0
LINE
8
BLACK
6
CONTINUOUS
10
6.9798201181102364
20
-4.1862269291338583
11
6.9834454724409447
21
-4.1784523228346453
0
LINE
8
BLACK
6
CONTINUOUS
10
6.9834454724409447
20
-4.1784523228346453
11
6.988365787401575
21
-4.1714253543307089
0
LINE
8
BLACK
6
CONTINUOUS
10
6.988365787401575
20
-4.1714253543307089
11
6.9944315748031496
21
-4.1653595669291335
0
LINE
8
BLACK
6
CONTINUOUS
10
6.9944315748031496
20
-4.1653595669291335
11
7.0014585433070868
21
-4.1604392519685041
0
LINE
8
BLACK
6
CONTINUOUS
10
7.0014585433070868
20
-4.1604392519685041
11
7.009233149606299
21
-4.1568138976377949
0
LINE
8
BLACK
6
CONTINUOUS
10
7.009233149606299
20
-4.1568138976377949
11
7.0175191732283464
21
-4.1545936614173229
0
LINE
8
BLACK
6
CONTINUOUS
10
7.0175191732283464
20
-4.1545936614173229
11
7.026064842519685
21
-4.1538460236220471
0
LINE
8
BLACK
6
CONTINUOUS
10
7.026064842519685
20
-4.1538460236220471
11
7.0346105118110236
21
-4.1545936614173229
0
LINE
8
BLACK
6
CONTINUOUS
10
4.9560648425196847
20
-4.2230586220472439
11
4.8960648425196851
21
-4.2230586220472439
0
LINE
8
BLACK
6
CONTINUOUS
10
4.8960648425196851
20
-4.2230586220472439
11
4.8960648425196851
21
-4.1630586220472443
0
LINE
8
BLACK
6
CONTINUOUS
10
4.8960648425196851
20
-4.1630586220472443
11
4.9560648425196847
21
-4.1630586220472443
0
LINE
8
BLACK
6
CONTINUOUS
10
4.9560648425196847
20
-4.1630586220472443
11
4.9560648425196847
21
-4.2230586220472439
0
LINE
8
BLACK
6
CONTINUOUS
10
5.0560648425196852
20
-4.2230586220472439
11
4.9960648425196847
21
-4.2230586220472439
0
LINE
8
BLACK
6
CONTINUOUS
10
4.9960648425196847
20
-4.2230586220472439
11
4.9960648425196847
21
-4.1630586220472443
0
LINE
8
BLACK
6
CONTINUOUS
10
4.9960648425196847
20
-4.1630586220472443
11
5.0560648425196852
21
-4.1630586220472443
0
LINE
8
BLACK
6
CONTINUOUS
10
5.0560648425196852
20
-4.1630586220472443
11
5.0560648425196852
21
-4.2230586220472439
0
LINE
8
BLACK
6
CONTINUOUS
10
6.9352941732283462
20
-4.050716496062992
11
6.9442430708661416
21
-4.0531143307086612
0
LINE
8
BLACK
6
CONTINUOUS
10
6.9442430708661416
20
-4.0531143307086612
11
6.9526396456692909
21
-4.0570297244094489
0
LINE
8
BLACK
6
CONTINUOUS
10
6.9526396456692909
20
-4.0570297244094489
11
6.9602287401574801
21
-4.0623436614173229
0
LINE
8
BLACK
6
CONTINUOUS
10
6.9602287401574801
20
-4.0623436614173229
11
6.9667798031496062
21
-4.0688947244094491
0
LINE
8
BLACK
6
CONTINUOUS
10
6.9667798031496062
20
-4.0688947244094491
11
6.9720937401574803
21
-4.0764838188976373
0
LINE
8
BLACK
6
CONTINUOUS
10
6.9720937401574803
20
-4.0764838188976373
11
6.9760091338582679
21
-4.0848803937007876
0
LINE
8
BLACK
6
CONTINUOUS
10
6.9760091338582679
20
-4.0848803937007876
11
6.9784069685039372
21
-4.093829291338583
0
LINE
8
BLACK
6
CONTINUOUS
10
6.9784069685039372
20
-4.093829291338583
11
6.9792144488188974
21
-4.1030586220472438
0
LINE
8
BLACK
6
CONTINUOUS
10
6.9792144488188974
20
-4.1030586220472438
11
6.9784069685039372
21
-4.1122879527559055
0
LINE
8
BLACK
6
CONTINUOUS
10
6.9784069685039372
20
-4.1122879527559055
11
6.9760091338582679
21
-4.1212368503937009
0
LINE
8
BLACK
6
CONTINUOUS
10
6.9760091338582679
20
-4.1212368503937009
11
6.9720937401574803
21
-4.1296334251968503
0
LINE
8
BLACK
6
CONTINUOUS
10
6.9720937401574803
20
-4.1296334251968503
11
6.9667798031496062
21
-4.1372225196850394
0
LINE
8
BLACK
6
CONTINUOUS
10
6.9667798031496062
20
-4.1372225196850394
11
6.9602287401574801
21
-4.1437735826771656
0
LINE
8
BLACK
6
CONTINUOUS
10
6.9602287401574801
20
-4.1437735826771656
11
6.9526396456692909
21
-4.1490875196850396
0
LINE
8
BLACK
6
CONTINUOUS
10
6.9526396456692909
20
-4.1490875196850396
11
6.9442430708661416
21
-4.1530029133858264
0
LINE
8
BLACK
6
CONTINUOUS
10
6.9442430708661416
20
-4.1530029133858264
11
6.9352941732283462
21
-4.1554007480314956
0
LINE
8
BLACK
6
CONTINUOUS
10
6.9352941732283462
20
-4.1554007480314956
11
6.9260648425196845
21
-4.1562082283464568
0
LINE
8
BLACK
6
CONTINUOUS
10
6.9260648425196845
20
-4.1562082283464568
11
6.9168355118110236
21
-4.1554007480314956
0
LINE
8
BLACK
6
CONTINUOUS
10
6.9168355118110236
20
-4.1554007480314956
11
6.9078866141732282
21
-4.1530029133858264
0
LINE
8
BLACK
6
CONTINUOUS
10
6.9078866141732282
20
-4.1530029133858264
11
6.8994900393700789
21
-4.1490875196850396
0
LINE
8
BLACK
6
CONTINUOUS
10
6.8994900393700789
20
-4.1490875196850396
11
6.8919009448818898
21
-4.1437735826771656
0
LINE
8
BLACK
6
CONTINUOUS
10
6.8919009448818898
20
-4.1437735826771656
11
6.8853498818897636
21
-4.1372225196850394
0
LINE
8
BLACK
6
CONTINUOUS
10
6.8853498818897636
20
-4.1372225196850394
11
6.8800359448818895
21
-4.1296334251968503
0
LINE
8
BLACK
6
CONTINUOUS
10
6.8800359448818895
20
-4.1296334251968503
11
6.8761205511811019
21
-4.1212368503937009
0
LINE
8
BLACK
6
CONTINUOUS
10
6.8761205511811019
20
-4.1212368503937009
11
6.8737227165354327
21
-4.1122879527559055
0
LINE
8
BLACK
6
CONTINUOUS
10
6.8737227165354327
20
-4.1122879527559055
11
6.8729152362204724
21
-4.1030586220472438
0
LINE
8
BLACK
6
CONTINUOUS
10
6.8729152362204724
20
-4.1030586220472438
11
6.8737227165354327
21
-4.093829291338583
0
LINE
8
BLACK
6
CONTINUOUS
10
6.8737227165354327
20
-4.093829291338583
11
6.8761205511811019
21
-4.0848803937007876
0
LINE
8
BLACK
6
CONTINUOUS
10
6.8761205511811019
20
-4.0848803937007876
11
6.8800359448818895
21
-4.0764838188976373
0
LINE
8
BLACK
6
CONTINUOUS
10
6.8800359448818895
20
-4.0764838188976373
11
6.8853498818897636
21
-4.0688947244094491
0
LINE
8
BLACK
6
CONTINUOUS
10
6.8853498818897636
20
-4.0688947244094491
11
6.8919009448818898
21
-4.0623436614173229
0
LINE
8
BLACK
6
CONTINUOUS
10
6.8919009448818898
20
-4.0623436614173229
11
6.8994900393700789
21
-4.0570297244094489
0
LINE
8
BLACK
6
CONTINUOUS
10
6.8994900393700789
20
-4.0570297244094489
11
6.9078866141732282
21
-4.0531143307086612
0
LINE
8
BLACK
6
CONTINUOUS
10
6.9078866141732282
20
-4.0531143307086612
11
6.9168355118110236
21
-4.050716496062992
0
LINE
8
BLACK
6
CONTINUOUS
10
6.9168355118110236
20
-4.050716496062992
11
6.9260648425196845
21
-4.0499090157480317
0
LINE
8
BLACK
6
CONTINUOUS
10
6.9260648425196845
20
-4.0499090157480317
11
6.9352941732283462
21
-4.050716496062992
0
LINE
8
BLACK
6
CONTINUOUS
10
7.1352941732283464
20
-4.050716496062992
11
7.1442430708661417
21
-4.0531143307086612
0
LINE
8
BLACK
6
CONTINUOUS
10
7.1442430708661417
20
-4.0531143307086612
11
7.1526396456692911
21
-4.0570297244094489
0
LINE
8
BLACK
6
CONTINUOUS
10
7.1526396456692911
20
-4.0570297244094489
11
7.1602287401574802
21
-4.0623436614173229
0
LINE
8
BLACK
6
CONTINUOUS
10
7.1602287401574802
20
-4.0623436614173229
11
7.1667798031496064
21
-4.0688947244094491
0
LINE
8
BLACK
6
CONTINUOUS
10
7.1667798031496064
20
-4.0688947244094491
11
7.1720937401574805
21
-4.0764838188976373
0
LINE
8
BLACK
6
CONTINUOUS
10
7.1720937401574805
20
-4.0764838188976373
11
7.1760091338582672
21
-4.0848803937007876
0
LINE
8
BLACK
6
CONTINUOUS
10
7.1760091338582672
20
-4.0848803937007876
11
7.1784069685039364
21
-4.093829291338583
0
LINE
8
BLACK
6
CONTINUOUS
10
7.1784069685039364
20
-4.093829291338583
11
7.1792144488188976
21
-4.1030586220472438
0
LINE
8
BLACK
6
CONTINUOUS
10
7.1792144488188976
20
-4.1030586220472438
11
7.1784069685039364
21
-4.1122879527559055
0
LINE
8
BLACK
6
CONTINUOUS
10
7.1784069685039364
20
-4.1122879527559055
11
7.1760091338582672
21
-4.1212368503937009
0
LINE
8
BLACK
6
CONTINUOUS
10
7.1760091338582672
20
-4.1212368503937009
11
7.1720937401574805
21
-4.1296334251968503
0
LINE
8
BLACK
6
CONTINUOUS
10
7.1720937401574805
20
-4.1296334251968503
11
7.1667798031496064
21
-4.1372225196850394
0
LINE
8
BLACK
6
CONTINUOUS
10
7.1667798031496064
20
-4.1372225196850394
11
7.1602287401574802
21
-4.1437735826771656
0
LINE
8
BLACK
6
CONTINUOUS
10
7.1602287401574802
20
-4.1437735826771656
11
7.1526396456692911
21
-4.1490875196850396
0
LINE
8
BLACK
6
CONTINUOUS
10
7.1526396456692911
20
-4.1490875196850396
11
7.1442430708661417
21
-4.1530029133858264
0
LINE
8
BLACK
6
CONTINUOUS
10
7.1442430708661417
20
-4.1530029133858264
11
7.1352941732283464
21
-4.1554007480314956
0
LINE
8
BLACK
6
CONTINUOUS
10
7.1352941732283464
20
-4.1554007480314956
11
7.1260648425196846
21
-4.1562082283464568
0
LINE
8
BLACK
6
CONTINUOUS
10
7.1260648425196846
20
-4.1562082283464568
11
7.1168355118110238
21
-4.1554007480314956
0
LINE
8
BLACK
6
CONTINUOUS
10
7.1168355118110238
20
-4.1554007480314956
11
7.1078866141732284
21
-4.1530029133858264
0
LINE
8
BLACK
6
CONTINUOUS
10
7.1078866141732284
20
-4.1530029133858264
11
7.0994900393700782
21
-4.1490875196850396
0
LINE
8
BLACK
6
CONTINUOUS
10
7.0994900393700782
20
-4.1490875196850396
11
7.0919009448818899
21
-4.1437735826771656
0
LINE
8
BLACK
6
CONTINUOUS
10
7.0919009448818899
20
-4.1437735826771656
11
7.0853498818897638
21
-4.1372225196850394
0
LINE
8
BLACK
6
CONTINUOUS
10
7.0853498818897638
20
-4.1372225196850394
11
7.0800359448818897
21
-4.1296334251968503
0
LINE
8
BLACK
6
CONTINUOUS
10
7.0800359448818897
20
-4.1296334251968503
11
7.0761205511811021
21
-4.1212368503937009
0
LINE
8
BLACK
6
CONTINUOUS
10
7.0761205511811021
20
-4.1212368503937009
11
7.0737227165354328
21
-4.1122879527559055
0
LINE
8
BLACK
6
CONTINUOUS
10
7.0737227165354328
20
-4.1122879527559055
11
7.0729152362204726
21
-4.1030586220472438
0
LINE
8
BLACK
6
CONTINUOUS
10
7.0729152362204726
20
-4.1030586220472438
11
7.0737227165354328
21
-4.093829291338583
0
LINE
8
BLACK
6
CONTINUOUS
10
7.0737227165354328
20
-4.093829291338583
11
7.0761205511811021
21
-4.0848803937007876
0
LINE
8
BLACK
6
CONTINUOUS
10
7.0761205511811021
20
-4.0848803937007876
11
7.0800359448818897
21
-4.0764838188976373
0
LINE
8
BLACK
6
CONTINUOUS
10
7.0800359448818897
20
-4.0764838188976373
11
7.0853498818897638
21
-4.0688947244094491
0
LINE
8
BLACK
6
CONTINUOUS
10
7.0853498818897638
20
-4.0688947244094491
11
7.0919009448818899
21
-4.0623436614173229
0
LINE
8
BLACK
6
CONTINUOUS
10
7.0919009448818899
20
-4.0623436614173229
11
7.0994900393700782
21
-4.0570297244094489
0
LINE
8
BLACK
6
CONTINUOUS
10
7.0994900393700782
20
-4.0570297244094489
11
7.1078866141732284
21
-4.0531143307086612
0
LINE
8
BLACK
6
CONTINUOUS
10
7.1078866141732284
20
-4.0531143307086612
11
7.1168355118110238
21
-4.050716496062992
0
LINE
8
BLACK
6
CONTINUOUS
10
7.1168355118110238
20
-4.050716496062992
11
7.1260648425196846
21
-4.0499090157480317
0
LINE
8
BLACK
6
CONTINUOUS
10
7.1260648425196846
20
-4.0499090157480317
11
7.1352941732283464
21
-4.050716496062992
0
LINE
8
BLACK
6
CONTINUOUS
10
6.9352941732283462
20
-3.8257164960629919
11
6.9442430708661416
21
-3.8281143307086611
0
LINE
8
BLACK
6
CONTINUOUS
10
6.9442430708661416
20
-3.8281143307086611
11
6.9526396456692909
21
-3.8320297244094488
0
LINE
8
BLACK
6
CONTINUOUS
10
6.9526396456692909
20
-3.8320297244094488
11
6.9602287401574801
21
-3.8373436614173229
0
LINE
8
BLACK
6
CONTINUOUS
10
6.9602287401574801
20
-3.8373436614173229
11
6.9667798031496062
21
-3.8438947244094486
0
LINE
8
BLACK
6
CONTINUOUS
10
6.9667798031496062
20
-3.8438947244094486
11
6.9720937401574803
21
-3.8514838188976377
0
LINE
8
BLACK
6
CONTINUOUS
10
6.9720937401574803
20
-3.8514838188976377
11
6.9760091338582679
21
-3.8598803937007875
0
LINE
8
BLACK
6
CONTINUOUS
10
6.9760091338582679
20
-3.8598803937007875
11
6.9784069685039372
21
-3.8688292913385824
0
LINE
8
BLACK
6
CONTINUOUS
10
6.9784069685039372
20
-3.8688292913385824
11
6.9792144488188974
21
-3.8780586220472442
0
LINE
8
BLACK
6
CONTINUOUS
10
6.9792144488188974
20
-3.8780586220472442
11
6.9784069685039372
21
-3.8872879527559054
0
LINE
8
BLACK
6
CONTINUOUS
10
6.9784069685039372
20
-3.8872879527559054
11
6.9760091338582679
21
-3.8962368503937008
0
LINE
8
BLACK
6
CONTINUOUS
10
6.9760091338582679
20
-3.8962368503937008
11
6.9720937401574803
21
-3.9046334251968502
0
LINE
8
BLACK
6
CONTINUOUS
10
6.9720937401574803
20
-3.9046334251968502
11
6.9667798031496062
21
-3.9122225196850393
0
LINE
8
BLACK
6
CONTINUOUS
10
6.9667798031496062
20
-3.9122225196850393
11
6.9602287401574801
21
-3.9187735826771655
0
LINE
8
BLACK
6
CONTINUOUS
10
6.9602287401574801
20
-3.9187735826771655
11
6.9526396456692909
21
-3.9240875196850391
0
LINE
8
BLACK
6
CONTINUOUS
10
6.9526396456692909
20
-3.9240875196850391
11
6.9442430708661416
21
-3.9280029133858267
0
LINE
8
BLACK
6
CONTINUOUS
10
6.9442430708661416
20
-3.9280029133858267
11
6.9352941732283462
21
-3.930400748031496
0
LINE
8
BLACK
6
CONTINUOUS
10
6.9352941732283462
20
-3.930400748031496
11
6.9260648425196845
21
-3.9312082283464567
0
LINE
8
BLACK
6
CONTINUOUS
10
6.9260648425196845
20
-3.9312082283464567
11
6.9168355118110236
21
-3.930400748031496
0
LINE
8
BLACK
6
CONTINUOUS
10
6.9168355118110236
20
-3.930400748031496
11
6.9078866141732282
21
-3.9280029133858267
0
LINE
8
BLACK
6
CONTINUOUS
10
6.9078866141732282
20
-3.9280029133858267
11
6.8994900393700789
21
-3.9240875196850391
0
LINE
8
BLACK
6
CONTINUOUS
10
6.8994900393700789
20
-3.9240875196850391
11
6.8919009448818898
21
-3.9187735826771655
0
LINE
8
BLACK
6
CONTINUOUS
10
6.8919009448818898
20
-3.9187735826771655
11
6.8853498818897636
21
-3.9122225196850393
0
LINE
8
BLACK
6
CONTINUOUS
10
6.8853498818897636
20
-3.9122225196850393
11
6.8800359448818895
21
-3.9046334251968502
0
LINE
8
BLACK
6
CONTINUOUS
10
6.8800359448818895
20
-3.9046334251968502
11
6.8761205511811019
21
-3.8962368503937008
0
LINE
8
BLACK
6
CONTINUOUS
10
6.8761205511811019
20
-3.8962368503937008
11
6.8737227165354327
21
-3.8872879527559054
0
LINE
8
BLACK
6
CONTINUOUS
10
6.8737227165354327
20
-3.8872879527559054
11
6.8729152362204724
21
-3.8780586220472442
0
LINE
8
BLACK
6
CONTINUOUS
10
6.8729152362204724
20
-3.8780586220472442
11
6.8737227165354327
21
-3.8688292913385824
0
LINE
8
BLACK
6
CONTINUOUS
10
6.8737227165354327
20
-3.8688292913385824
11
6.8761205511811019
21
-3.8598803937007875
0
LINE
8
BLACK
6
CONTINUOUS
10
6.8761205511811019
20
-3.8598803937007875
11
6.8800359448818895
21
-3.8514838188976377
0
LINE
8
BLACK
6
CONTINUOUS
10
6.8800359448818895
20
-3.8514838188976377
11
6.8853498818897636
21
-3.8438947244094486
0
LINE
8
BLACK
6
CONTINUOUS
10
6.8853498818897636
20
-3.8438947244094486
11
6.8919009448818898
21
-3.8373436614173229
0
LINE
8
BLACK
6
CONTINUOUS
10
6.8919009448818898
20
-3.8373436614173229
11
6.8994900393700789
21
-3.8320297244094488
0
LINE
8
BLACK
6
CONTINUOUS
10
6.8994900393700789
20
-3.8320297244094488
11
6.9078866141732282
21
-3.8281143307086611
0
LINE
8
BLACK
6
CONTINUOUS
10
6.9078866141732282
20
-3.8281143307086611
11
6.9168355118110236
21
-3.8257164960629919
0
LINE
8
BLACK
6
CONTINUOUS
10
6.9168355118110236
20
-3.8257164960629919
11
6.9260648425196845
21
-3.8249090157480312
0
LINE
8
BLACK
6
CONTINUOUS
10
6.9260648425196845
20
-3.8249090157480312
11
6.9352941732283462
21
-3.8257164960629919
0
LINE
8
BLACK
6
CONTINUOUS
10
7.1352941732283464
20
-3.8257164960629919
11
7.1442430708661417
21
-3.8281143307086611
0
LINE
8
BLACK
6
CONTINUOUS
10
7.1442430708661417
20
-3.8281143307086611
11
7.1526396456692911
21
-3.8320297244094488
0
LINE
8
BLACK
6
CONTINUOUS
10
7.1526396456692911
20
-3.8320297244094488
11
7.1602287401574802
21
-3.8373436614173229
0
LINE
8
BLACK
6
CONTINUOUS
10
7.1602287401574802
20
-3.8373436614173229
11
7.1667798031496064
21
-3.8438947244094486
0
LINE
8
BLACK
6
CONTINUOUS
10
7.1667798031496064
20
-3.8438947244094486
11
7.1720937401574805
21
-3.8514838188976377
0
LINE
8
BLACK
6
CONTINUOUS
10
7.1720937401574805
20
-3.8514838188976377
11
7.1760091338582672
21
-3.8598803937007875
0
LINE
8
BLACK
6
CONTINUOUS
10
7.1760091338582672
20
-3.8598803937007875
11
7.1784069685039364
21
-3.8688292913385824
0
LINE
8
BLACK
6
CONTINUOUS
10
7.1784069685039364
20
-3.8688292913385824
11
7.1792144488188976
21
-3.8780586220472442
0
LINE
8
BLACK
6
CONTINUOUS
10
7.1792144488188976
20
-3.8780586220472442
11
7.1784069685039364
21
-3.8872879527559054
0
LINE
8
BLACK
6
CONTINUOUS
10
7.1784069685039364
20
-3.8872879527559054
11
7.1760091338582672
21
-3.8962368503937008
0
LINE
8
BLACK
6
CONTINUOUS
10
7.1760091338582672
20
-3.8962368503937008
11
7.1720937401574805
21
-3.9046334251968502
0
LINE
8
BLACK
6
CONTINUOUS
10
7.1720937401574805
20
-3.9046334251968502
11
7.1667798031496064
21
-3.9122225196850393
0
LINE
8
BLACK
6
CONTINUOUS
10
7.1667798031496064
20
-3.9122225196850393
11
7.1602287401574802
21
-3.9187735826771655
0
LINE
8
BLACK
6
CONTINUOUS
10
7.1602287401574802
20
-3.9187735826771655
11
7.1526396456692911
21
-3.9240875196850391
0
LINE
8
BLACK
6
CONTINUOUS
10
7.1526396456692911
20
-3.9240875196850391
11
7.1442430708661417
21
-3.9280029133858267
0
LINE
8
BLACK
6
CONTINUOUS
10
7.1442430708661417
20
-3.9280029133858267
11
7.1352941732283464
21
-3.930400748031496
0
LINE
8
BLACK
6
CONTINUOUS
10
7.1352941732283464
20
-3.930400748031496
11
7.1260648425196846
21
-3.9312082283464567
0
LINE
8
BLACK
6
CONTINUOUS
10
7.1260648425196846
20
-3.9312082283464567
11
7.1168355118110238
21
-3.930400748031496
0
LINE
8
BLACK
6
CONTINUOUS
10
7.1168355118110238
20
-3.930400748031496
11
7.1078866141732284
21
-3.9280029133858267
0
LINE
8
BLACK
6
CONTINUOUS
10
7.1078866141732284
20
-3.9280029133858267
11
7.0994900393700782
21
-3.9240875196850391
0
LINE
8
BLACK
6
CONTINUOUS
10
7.0994900393700782
20
-3.9240875196850391
11
7.0919009448818899
21
-3.9187735826771655
0
LINE
8
BLACK
6
CONTINUOUS
10
7.0919009448818899
20
-3.9187735826771655
11
7.0853498818897638
21
-3.9122225196850393
0
LINE
8
BLACK
6
CONTINUOUS
10
7.0853498818897638
20
-3.9122225196850393
11
7.0800359448818897
21
-3.9046334251968502
0
LINE
8
BLACK
6
CONTINUOUS
10
7.0800359448818897
20
-3.9046334251968502
11
7.0761205511811021
21
-3.8962368503937008
0
LINE
8
BLACK
6
CONTINUOUS
10
7.0761205511811021
20
-3.8962368503937008
11
7.0737227165354328
21
-3.8872879527559054
0
LINE
8
BLACK
6
CONTINUOUS
10
7.0737227165354328
20
-3.8872879527559054
11
7.0729152362204726
21
-3.8780586220472442
0
LINE
8
BLACK
6
CONTINUOUS
10
7.0729152362204726
20
-3.8780586220472442
11
7.0737227165354328
21
-3.8688292913385824
0
LINE
8
BLACK
6
CONTINUOUS
10
7.0737227165354328
20
-3.8688292913385824
11
7.0761205511811021
21
-3.8598803937007875
0
LINE
8
BLACK
6
CONTINUOUS
10
7.0761205511811021
20
-3.8598803937007875
11
7.0800359448818897
21
-3.8514838188976377
0
LINE
8
BLACK
6
CONTINUOUS
10
7.0800359448818897
20
-3.8514838188976377
11
7.0853498818897638
21
-3.8438947244094486
0
LINE
8
BLACK
6
CONTINUOUS
10
7.0853498818897638
20
-3.8438947244094486
11
7.0919009448818899
21
-3.8373436614173229
0
LINE
8
BLACK
6
CONTINUOUS
10
7.0919009448818899
20
-3.8373436614173229
11
7.0994900393700782
21
-3.8320297244094488
0
LINE
8
BLACK
6
CONTINUOUS
10
7.0994900393700782
20
-3.8320297244094488
11
7.1078866141732284
21
-3.8281143307086611
0
LINE
8
BLACK
6
CONTINUOUS
10
7.1078866141732284
20
-3.8281143307086611
11
7.1168355118110238
21
-3.8257164960629919
0
LINE
8
BLACK
6
CONTINUOUS
10
7.1168355118110238
20
-3.8257164960629919
11
7.1260648425196846
21
-3.8249090157480312
0
LINE
8
BLACK
6
CONTINUOUS
10
7.1260648425196846
20
-3.8249090157480312
11
7.1352941732283464
21
-3.8257164960629919
0
LINE
8
BLACK
6
CONTINUOUS
10
4.9560648425196847
20
-3.908058622047244
11
4.8960648425196851
21
-3.908058622047244
0
LINE
8
BLACK
6
CONTINUOUS
10
4.8960648425196851
20
-3.908058622047244
11
4.8960648425196851
21
-3.8480586220472439
0
LINE
8
BLACK
6
CONTINUOUS
10
4.8960648425196851
20
-3.8480586220472439
11
4.9560648425196847
21
-3.8480586220472439
0
LINE
8
BLACK
6
CONTINUOUS
10
4.9560648425196847
20
-3.8480586220472439
11
4.9560648425196847
21
-3.908058622047244
0
LINE
8
BLACK
6
CONTINUOUS
10
5.0560648425196852
20
-3.908058622047244
11
4.9960648425196847
21
-3.908058622047244
0
LINE
8
BLACK
6
CONTINUOUS
10
4.9960648425196847
20
-3.908058622047244
11
4.9960648425196847
21
-3.8480586220472439
0
LINE
8
BLACK
6
CONTINUOUS
10
4.9960648425196847
20
-3.8480586220472439
11
5.0560648425196852
21
-3.8480586220472439
0
LINE
8
BLACK
6
CONTINUOUS
10
5.0560648425196852
20
-3.8480586220472439
11
5.0560648425196852
21
-3.908058622047244
0
LINE
8
BLACK
6
CONTINUOUS
10
7.0346105118110236
20
-3.7295936614173226
11
7.042896535433071
21
-3.731813897637795
0
LINE
8
BLACK
6
CONTINUOUS
10
7.042896535433071
20
-3.731813897637795
11
7.0506711417322832
21
-3.7354392519685038
0
LINE
8
BLACK
6
CONTINUOUS
10
7.0506711417322832
20
-3.7354392519685038
11
7.0576981102362204
21
-3.7403595669291336
0
LINE
8
BLACK
6
CONTINUOUS
10
7.0576981102362204
20
-3.7403595669291336
11
7.063763897637795
21
-3.7464253543307087
0
LINE
8
BLACK
6
CONTINUOUS
10
7.063763897637795
20
-3.7464253543307087
11
7.0686842125984253
21
-3.7534523228346455
0
LINE
8
BLACK
6
CONTINUOUS
10
7.0686842125984253
20
-3.7534523228346455
11
7.0723095669291336
21
-3.761226929133858
0
LINE
8
BLACK
6
CONTINUOUS
10
7.0723095669291336
20
-3.761226929133858
11
7.0745298031496064
21
-3.7695129527559055
0
LINE
8
BLACK
6
CONTINUOUS
10
7.0745298031496064
20
-3.7695129527559055
11
7.0752774409448813
21
-3.7780586220472441
0
LINE
8
BLACK
6
CONTINUOUS
10
7.0752774409448813
20
-3.7780586220472441
11
7.0745298031496064
21
-3.7866042913385827
0
LINE
8
BLACK
6
CONTINUOUS
10
7.0745298031496064
20
-3.7866042913385827
11
7.0723095669291336
21
-3.7948903149606297
0
LINE
8
BLACK
6
CONTINUOUS
10
7.0723095669291336
20
-3.7948903149606297
11
7.0686842125984253
21
-3.8026649212598422
0
LINE
8
BLACK
6
CONTINUOUS
10
7.0686842125984253
20
-3.8026649212598422
11
7.063763897637795
21
-3.8096918897637795
0
LINE
8
BLACK
6
CONTINUOUS
10
7.063763897637795
20
-3.8096918897637795
11
7.0576981102362204
21
-3.8157576771653541
0
LINE
8
BLACK
6
CONTINUOUS
10
7.0576981102362204
20
-3.8157576771653541
11
7.0506711417322832
21
-3.8206779921259844
0
LINE
8
BLACK
6
CONTINUOUS
10
7.0506711417322832
20
-3.8206779921259844
11
7.042896535433071
21
-3.8243033464566927
0
LINE
8
BLACK
6
CONTINUOUS
10
7.042896535433071
20
-3.8243033464566927
11
7.0346105118110236
21
-3.8265235826771651
0
LINE
8
BLACK
6
CONTINUOUS
10
7.0346105118110236
20
-3.8265235826771651
11
7.026064842519685
21
-3.8272712204724408
0
LINE
8
BLACK
6
CONTINUOUS
10
7.026064842519685
20
-3.8272712204724408
11
7.0175191732283464
21
-3.8265235826771651
0
LINE
8
BLACK
6
CONTINUOUS
10
7.0175191732283464
20
-3.8265235826771651
11
7.009233149606299
21
-3.8243033464566927
0
LINE
8
BLACK
6
CONTINUOUS
10
7.009233149606299
20
-3.8243033464566927
11
7.0014585433070868
21
-3.8206779921259844
0
LINE
8
BLACK
6
CONTINUOUS
10
7.0014585433070868
20
-3.8206779921259844
11
6.9944315748031496
21
-3.8157576771653541
0
LINE
8
BLACK
6
CONTINUOUS
10
6.9944315748031496
20
-3.8157576771653541
11
6.988365787401575
21
-3.8096918897637795
0
LINE
8
BLACK
6
CONTINUOUS
10
6.988365787401575
20
-3.8096918897637795
11
6.9834454724409447
21
-3.8026649212598422
0
LINE
8
BLACK
6
CONTINUOUS
10
6.9834454724409447
20
-3.8026649212598422
11
6.9798201181102364
21
-3.7948903149606297
0
LINE
8
BLACK
6
CONTINUOUS
10
6.9798201181102364
20
-3.7948903149606297
11
6.9775998818897635
21
-3.7866042913385827
0
LINE
8
BLACK
6
CONTINUOUS
10
6.9775998818897635
20
-3.7866042913385827
11
6.9768522440944878
21
-3.7780586220472441
0
LINE
8
BLACK
6
CONTINUOUS
10
6.9768522440944878
20
-3.7780586220472441
11
6.9775998818897635
21
-3.7695129527559055
0
LINE
8
BLACK
6
CONTINUOUS
10
6.9775998818897635
20
-3.7695129527559055
11
6.9798201181102364
21
-3.761226929133858
0
LINE
8
BLACK
6
CONTINUOUS
10
6.9798201181102364
20
-3.761226929133858
11
6.9834454724409447
21
-3.7534523228346455
0
LINE
8
BLACK
6
CONTINUOUS
10
6.9834454724409447
20
-3.7534523228346455
11
6.988365787401575
21
-3.7464253543307087
0
LINE
8
BLACK
6
CONTINUOUS
10
6.988365787401575
20
-3.7464253543307087
11
6.9944315748031496
21
-3.7403595669291336
0
LINE
8
BLACK
6
CONTINUOUS
10
6.9944315748031496
20
-3.7403595669291336
11
7.0014585433070868
21
-3.7354392519685038
0
LINE
8
BLACK
6
CONTINUOUS
10
7.0014585433070868
20
-3.7354392519685038
11
7.009233149606299
21
-3.731813897637795
0
LINE
8
BLACK
6
CONTINUOUS
10
7.009233149606299
20
-3.731813897637795
11
7.0175191732283464
21
-3.7295936614173226
0
LINE
8
BLACK
6
CONTINUOUS
10
7.0175191732283464
20
-3.7295936614173226
11
7.026064842519685
21
-3.7288460236220473
0
LINE
8
BLACK
6
CONTINUOUS
10
7.026064842519685
20
-3.7288460236220473
11
7.0346105118110236
21
-3.7295936614173226
0
LINE
8
BLACK
6
CONTINUOUS
10
4.9560648425196847
20
-3.8080586220472439
11
4.8960648425196851
21
-3.8080586220472439
0
LINE
8
BLACK
6
CONTINUOUS
10
4.8960648425196851
20
-3.8080586220472439
11
4.8960648425196851
21
-3.7480586220472438
0
LINE
8
BLACK
6
CONTINUOUS
10
4.8960648425196851
20
-3.7480586220472438
11
4.9560648425196847
21
-3.7480586220472438
0
LINE
8
BLACK
6
CONTINUOUS
10
4.9560648425196847
20
-3.7480586220472438
11
4.9560648425196847
21
-3.8080586220472439
0
LINE
8
BLACK
6
CONTINUOUS
10
5.0560648425196852
20
-3.8080586220472439
11
4.9960648425196847
21
-3.8080586220472439
0
LINE
8
BLACK
6
CONTINUOUS
10
4.9960648425196847
20
-3.8080586220472439
11
4.9960648425196847
21
-3.7480586220472438
0
LINE
8
BLACK
6
CONTINUOUS
10
4.9960648425196847
20
-3.7480586220472438
11
5.0560648425196852
21
-3.7480586220472438
0
LINE
8
BLACK
6
CONTINUOUS
10
5.0560648425196852
20
-3.7480586220472438
11
5.0560648425196852
21
-3.8080586220472439
0
LINE
8
BLACK
6
CONTINUOUS
10
6.9352941732283462
20
-3.6257164960629922
11
6.9442430708661416
21
-3.6281143307086614
0
LINE
8
BLACK
6
CONTINUOUS
10
6.9442430708661416
20
-3.6281143307086614
11
6.9526396456692909
21
-3.6320297244094486
0
LINE
8
BLACK
6
CONTINUOUS
10
6.9526396456692909
20
-3.6320297244094486
11
6.9602287401574801
21
-3.6373436614173227
0
LINE
8
BLACK
6
CONTINUOUS
10
6.9602287401574801
20
-3.6373436614173227
11
6.9667798031496062
21
-3.6438947244094488
0
LINE
8
BLACK
6
CONTINUOUS
10
6.9667798031496062
20
-3.6438947244094488
11
6.9720937401574803
21
-3.6514838188976375
0
LINE
8
BLACK
6
CONTINUOUS
10
6.9720937401574803
20
-3.6514838188976375
11
6.9760091338582679
21
-3.6598803937007873
0
LINE
8
BLACK
6
CONTINUOUS
10
6.9760091338582679
20
-3.6598803937007873
11
6.9784069685039372
21
-3.6688292913385827
0
LINE
8
BLACK
6
CONTINUOUS
10
6.9784069685039372
20
-3.6688292913385827
11
6.9792144488188974
21
-3.678058622047244
0
LINE
8
BLACK
6
CONTINUOUS
10
6.9792144488188974
20
-3.678058622047244
11
6.9784069685039372
21
-3.6872879527559053
0
LINE
8
BLACK
6
CONTINUOUS
10
6.9784069685039372
20
-3.6872879527559053
11
6.9760091338582679
21
-3.6962368503937006
0
LINE
8
BLACK
6
CONTINUOUS
10
6.9760091338582679
20
-3.6962368503937006
11
6.9720937401574803
21
-3.7046334251968505
0
LINE
8
BLACK
6
CONTINUOUS
10
6.9720937401574803
20
-3.7046334251968505
11
6.9667798031496062
21
-3.7122225196850391
0
LINE
8
BLACK
6
CONTINUOUS
10
6.9667798031496062
20
-3.7122225196850391
11
6.9602287401574801
21
-3.7187735826771653
0
LINE
8
BLACK
6
CONTINUOUS
10
6.9602287401574801
20
-3.7187735826771653
11
6.9526396456692909
21
-3.7240875196850394
0
LINE
8
BLACK
6
CONTINUOUS
10
6.9526396456692909
20
-3.7240875196850394
11
6.9442430708661416
21
-3.7280029133858266
0
LINE
8
BLACK
6
CONTINUOUS
10
6.9442430708661416
20
-3.7280029133858266
11
6.9352941732283462
21
-3.7304007480314958
0
LINE
8
BLACK
6
CONTINUOUS
10
6.9352941732283462
20
-3.7304007480314958
11
6.9260648425196845
21
-3.7312082283464565
0
LINE
8
BLACK
6
CONTINUOUS
10
6.9260648425196845
20
-3.7312082283464565
11
6.9168355118110236
21
-3.7304007480314958
0
LINE
8
BLACK
6
CONTINUOUS
10
6.9168355118110236
20
-3.7304007480314958
11
6.9078866141732282
21
-3.7280029133858266
0
LINE
8
BLACK
6
CONTINUOUS
10
6.9078866141732282
20
-3.7280029133858266
11
6.8994900393700789
21
-3.7240875196850394
0
LINE
8
BLACK
6
CONTINUOUS
10
6.8994900393700789
20
-3.7240875196850394
11
6.8919009448818898
21
-3.7187735826771653
0
LINE
8
BLACK
6
CONTINUOUS
10
6.8919009448818898
20
-3.7187735826771653
11
6.8853498818897636
21
-3.7122225196850391
0
LINE
8
BLACK
6
CONTINUOUS
10
6.8853498818897636
20
-3.7122225196850391
11
6.8800359448818895
21
-3.7046334251968505
0
LINE
8
BLACK
6
CONTINUOUS
10
6.8800359448818895
20
-3.7046334251968505
11
6.8761205511811019
21
-3.6962368503937006
0
LINE
8
BLACK
6
CONTINUOUS
10
6.8761205511811019
20
-3.6962368503937006
11
6.8737227165354327
21
-3.6872879527559053
0
LINE
8
BLACK
6
CONTINUOUS
10
6.8737227165354327
20
-3.6872879527559053
11
6.8729152362204724
21
-3.678058622047244
0
LINE
8
BLACK
6
CONTINUOUS
10
6.8729152362204724
20
-3.678058622047244
11
6.8737227165354327
21
-3.6688292913385827
0
LINE
8
BLACK
6
CONTINUOUS
10
6.8737227165354327
20
-3.6688292913385827
11
6.8761205511811019
21
-3.6598803937007873
0
LINE
8
BLACK
6
CONTINUOUS
10
6.8761205511811019
20
-3.6598803937007873
11
6.8800359448818895
21
-3.6514838188976375
0
LINE
8
BLACK
6
CONTINUOUS
10
6.8800359448818895
20
-3.6514838188976375
11
6.8853498818897636
21
-3.6438947244094488
0
LINE
8
BLACK
6
CONTINUOUS
10
6.8853498818897636
20
-3.6438947244094488
11
6.8919009448818898
21
-3.6373436614173227
0
LINE
8
BLACK
6
CONTINUOUS
10
6.8919009448818898
20
-3.6373436614173227
11
6.8994900393700789
21
-3.6320297244094486
0
LINE
8
BLACK
6
CONTINUOUS
10
6.8994900393700789
20
-3.6320297244094486
11
6.9078866141732282
21
-3.6281143307086614
0
LINE
8
BLACK
6
CONTINUOUS
10
6.9078866141732282
20
-3.6281143307086614
11
6.9168355118110236
21
-3.6257164960629922
0
LINE
8
BLACK
6
CONTINUOUS
10
6.9168355118110236
20
-3.6257164960629922
11
6.9260648425196845
21
-3.6249090157480315
0
LINE
8
BLACK
6
CONTINUOUS
10
6.9260648425196845
20
-3.6249090157480315
11
6.9352941732283462
21
-3.6257164960629922
0
LINE
8
BLACK
6
CONTINUOUS
10
7.1352941732283464
20
-3.6257164960629922
11
7.1442430708661417
21
-3.6281143307086614
0
LINE
8
BLACK
6
CONTINUOUS
10
7.1442430708661417
20
-3.6281143307086614
11
7.1526396456692911
21
-3.6320297244094486
0
LINE
8
BLACK
6
CONTINUOUS
10
7.1526396456692911
20
-3.6320297244094486
11
7.1602287401574802
21
-3.6373436614173227
0
LINE
8
BLACK
6
CONTINUOUS
10
7.1602287401574802
20
-3.6373436614173227
11
7.1667798031496064
21
-3.6438947244094488
0
LINE
8
BLACK
6
CONTINUOUS
10
7.1667798031496064
20
-3.6438947244094488
11
7.1720937401574805
21
-3.6514838188976375
0
LINE
8
BLACK
6
CONTINUOUS
10
7.1720937401574805
20
-3.6514838188976375
11
7.1760091338582672
21
-3.6598803937007873
0
LINE
8
BLACK
6
CONTINUOUS
10
7.1760091338582672
20
-3.6598803937007873
11
7.1784069685039364
21
-3.6688292913385827
0
LINE
8
BLACK
6
CONTINUOUS
10
7.1784069685039364
20
-3.6688292913385827
11
7.1792144488188976
21
-3.678058622047244
0
LINE
8
BLACK
6
CONTINUOUS
10
7.1792144488188976
20
-3.678058622047244
11
7.1784069685039364
21
-3.6872879527559053
0
LINE
8
BLACK
6
CONTINUOUS
10
7.1784069685039364
20
-3.6872879527559053
11
7.1760091338582672
21
-3.6962368503937006
0
LINE
8
BLACK
6
CONTINUOUS
10
7.1760091338582672
20
-3.6962368503937006
11
7.1720937401574805
21
-3.7046334251968505
0
LINE
8
BLACK
6
CONTINUOUS
10
7.1720937401574805
20
-3.7046334251968505
11
7.1667798031496064
21
-3.7122225196850391
0
LINE
8
BLACK
6
CONTINUOUS
10
7.1667798031496064
20
-3.7122225196850391
11
7.1602287401574802
21
-3.7187735826771653
0
LINE
8
BLACK
6
CONTINUOUS
10
7.1602287401574802
20
-3.7187735826771653
11
7.1526396456692911
21
-3.7240875196850394
0
LINE
8
BLACK
6
CONTINUOUS
10
7.1526396456692911
20
-3.7240875196850394
11
7.1442430708661417
21
-3.7280029133858266
0
LINE
8
BLACK
6
CONTINUOUS
10
7.1442430708661417
20
-3.7280029133858266
11
7.1352941732283464
21
-3.7304007480314958
0
LINE
8
BLACK
6
CONTINUOUS
10
7.1352941732283464
20
-3.7304007480314958
11
7.1260648425196846
21
-3.7312082283464565
0
LINE
8
BLACK
6
CONTINUOUS
10
7.1260648425196846
20
-3.7312082283464565
11
7.1168355118110238
21
-3.7304007480314958
0
LINE
8
BLACK
6
CONTINUOUS
10
7.1168355118110238
20
-3.7304007480314958
11
7.1078866141732284
21
-3.7280029133858266
0
LINE
8
BLACK
6
CONTINUOUS
10
7.1078866141732284
20
-3.7280029133858266
11
7.0994900393700782
21
-3.7240875196850394
0
LINE
8
BLACK
6
CONTINUOUS
10
7.0994900393700782
20
-3.7240875196850394
11
7.0919009448818899
21
-3.7187735826771653
0
LINE
8
BLACK
6
CONTINUOUS
10
7.0919009448818899
20
-3.7187735826771653
11
7.0853498818897638
21
-3.7122225196850391
0
LINE
8
BLACK
6
CONTINUOUS
10
7.0853498818897638
20
-3.7122225196850391
11
7.0800359448818897
21
-3.7046334251968505
0
LINE
8
BLACK
6
CONTINUOUS
10
7.0800359448818897
20
-3.7046334251968505
11
7.0761205511811021
21
-3.6962368503937006
0
LINE
8
BLACK
6
CONTINUOUS
10
7.0761205511811021
20
-3.6962368503937006
11
7.0737227165354328
21
-3.6872879527559053
0
LINE
8
BLACK
6
CONTINUOUS
10
7.0737227165354328
20
-3.6872879527559053
11
7.0729152362204726
21
-3.678058622047244
0
LINE
8
BLACK
6
CONTINUOUS
10
7.0729152362204726
20
-3.678058622047244
11
7.0737227165354328
21
-3.6688292913385827
0
LINE
8
BLACK
6
CONTINUOUS
10
7.0737227165354328
20
-3.6688292913385827
11
7.0761205511811021
21
-3.6598803937007873
0
LINE
8
BLACK
6
CONTINUOUS
10
7.0761205511811021
20
-3.6598803937007873
11
7.0800359448818897
21
-3.6514838188976375
0
LINE
8
BLACK
6
CONTINUOUS
10
7.0800359448818897
20
-3.6514838188976375
11
7.0853498818897638
21
-3.6438947244094488
0
LINE
8
BLACK
6
CONTINUOUS
10
7.0853498818897638
20
-3.6438947244094488
11
7.0919009448818899
21
-3.6373436614173227
0
LINE
8
BLACK
6
CONTINUOUS
10
7.0919009448818899
20
-3.6373436614173227
11
7.0994900393700782
21
-3.6320297244094486
0
LINE
8
BLACK
6
CONTINUOUS
10
7.0994900393700782
20
-3.6320297244094486
11
7.1078866141732284
21
-3.6281143307086614
0
LINE
8
BLACK
6
CONTINUOUS
10
7.1078866141732284
20
-3.6281143307086614
11
7.1168355118110238
21
-3.6257164960629922
0
LINE
8
BLACK
6
CONTINUOUS
10
7.1168355118110238
20
-3.6257164960629922
11
7.1260648425196846
21
-3.6249090157480315
0
LINE
8
BLACK
6
CONTINUOUS
10
7.1260648425196846
20
-3.6249090157480315
11
7.1352941732283464
21
-3.6257164960629922
0
LINE
8
BLACK
6
CONTINUOUS
10
4.9560648425196847
20
-3.7080586220472438
11
4.8960648425196851
21
-3.7080586220472438
0
LINE
8
BLACK
6
CONTINUOUS
10
4.8960648425196851
20
-3.7080586220472438
11
4.8960648425196851
21
-3.6480586220472442
0
LINE
8
BLACK
6
CONTINUOUS
10
4.8960648425196851
20
-3.6480586220472442
11
4.9560648425196847
21
-3.6480586220472442
0
LINE
8
BLACK
6
CONTINUOUS
10
4.9560648425196847
20
-3.6480586220472442
11
4.9560648425196847
21
-3.7080586220472438
0
LINE
8
BLACK
6
CONTINUOUS
10
5.0560648425196852
20
-3.7080586220472438
11
4.9960648425196847
21
-3.7080586220472438
0
LINE
8
BLACK
6
CONTINUOUS
10
4.9960648425196847
20
-3.7080586220472438
11
4.9960648425196847
21
-3.6480586220472442
0
LINE
8
BLACK
6
CONTINUOUS
10
4.9960648425196847
20
-3.6480586220472442
11
5.0560648425196852
21
-3.6480586220472442
0
LINE
8
BLACK
6
CONTINUOUS
10
5.0560648425196852
20
-3.6480586220472442
11
5.0560648425196852
21
-3.7080586220472438
0
LINE
8
BLACK
6
CONTINUOUS
10
5.046574488188976
20
-3.3117427559055117
11
5.0599392519685038
21
-3.3149102362204723
0
LINE
8
BLACK
6
CONTINUOUS
10
5.0599392519685038
20
-3.3149102362204723
11
5.0728459055118105
21
-3.3196079133858265
0
LINE
8
BLACK
6
CONTINUOUS
10
5.0728459055118105
20
-3.3196079133858265
11
5.0851199606299211
21
-3.3257721653543308
0
LINE
8
BLACK
6
CONTINUOUS
10
5.0851199606299211
20
-3.3257721653543308
11
5.0965953937007873
21
-3.3333196456692913
0
LINE
8
BLACK
6
CONTINUOUS
10
5.0965953937007873
20
-3.3333196456692913
11
5.1071170078740158
21
-3.342148346456693
0
LINE
8
BLACK
6
CONTINUOUS
10
5.1071170078740158
20
-3.342148346456693
11
5.1165425196850389
21
-3.3521388188976378
0
LINE
8
BLACK
6
CONTINUOUS
10
5.1165425196850389
20
-3.3521388188976378
11
5.1247444881889761
21
-3.3631559842519683
0
LINE
8
BLACK
6
CONTINUOUS
10
5.1247444881889761
20
-3.3631559842519683
11
5.1316120078740157
21
-3.3750508267716532
0
LINE
8
BLACK
6
CONTINUOUS
10
5.1316120078740157
20
-3.3750508267716532
11
5.1370521653543308
21
-3.3876625590551179
0
LINE
8
BLACK
6
CONTINUOUS
10
5.1370521653543308
20
-3.3876625590551179
11
5.1409914173228346
21
-3.4008205118110237
0
LINE
8
BLACK
6
CONTINUOUS
10
5.1409914173228346
20
-3.4008205118110237
11
5.1433764566929137
21
-3.4143468503937009
0
LINE
8
BLACK
6
CONTINUOUS
10
5.1433764566929137
20
-3.4143468503937009
11
5.1441750787401572
21
-3.428058622047244
0
LINE
8
BLACK
6
CONTINUOUS
10
5.1441750787401572
20
-3.428058622047244
11
5.1433764566929137
21
-3.4417703937007875
0
LINE
8
BLACK
6
CONTINUOUS
10
5.1433764566929137
20
-3.4417703937007875
11
5.1409914173228346
21
-3.4552967322834647
0
LINE
8
BLACK
6
CONTINUOUS
10
5.1409914173228346
20
-3.4552967322834647
11
5.1370521653543308
21
-3.46845468503937
0
LINE
8
BLACK
6
CONTINUOUS
10
5.1370521653543308
20
-3.46845468503937
11
5.1316120078740157
21
-3.4810664173228347
0
LINE
8
BLACK
6
CONTINUOUS
10
5.1316120078740157
20
-3.4810664173228347
11
5.1247444881889761
21
-3.4929612598425197
0
LINE
8
BLACK
6
CONTINUOUS
10
5.1247444881889761
20
-3.4929612598425197
11
5.1165425196850389
21
-3.5039784251968502
0
LINE
8
BLACK
6
CONTINUOUS
10
5.1165425196850389
20
-3.5039784251968502
11
5.1071170078740158
21
-3.5139688976377954
0
LINE
8
BLACK
6
CONTINUOUS
10
5.1071170078740158
20
-3.5139688976377954
11
5.0965953937007873
21
-3.5227975984251967
0
LINE
8
BLACK
6
CONTINUOUS
10
5.0965953937007873
20
-3.5227975984251967
11
5.0851199606299211
21
-3.5303450787401576
0
LINE
8
BLACK
6
CONTINUOUS
10
5.0851199606299211
20
-3.5303450787401576
11
5.0728459055118105
21
-3.5365093307086615
0
LINE
8
BLACK
6
CONTINUOUS
10
5.0728459055118105
20
-3.5365093307086615
11
5.0599392519685038
21
-3.5412070078740157
0
LINE
8
BLACK
6
CONTINUOUS
10
5.0599392519685038
20
-3.5412070078740157
11
5.046574488188976
21
-3.5443744881889763
0
LINE
8
BLACK
6
CONTINUOUS
10
5.046574488188976
20
-3.5443744881889763
11
5.0329323228346459
21
-3.5459690157480313
0
LINE
8
BLACK
6
CONTINUOUS
10
5.0329323228346459
20
-3.5459690157480313
11
5.0191973622047241
21
-3.5459690157480313
0
LINE
8
BLACK
6
CONTINUOUS
10
5.0191973622047241
20
-3.5459690157480313
11
5.005555196850394
21
-3.5443744881889763
0
LINE
8
BLACK
6
CONTINUOUS
10
5.005555196850394
20
-3.5443744881889763
11
4.9921904330708662
21
-3.5412070078740157
0
LINE
8
BLACK
6
CONTINUOUS
10
4.9921904330708662
20
-3.5412070078740157
11
4.9792837795275586
21
-3.5365093307086615
0
LINE
8
BLACK
6
CONTINUOUS
10
4.9792837795275586
20
-3.5365093307086615
11
4.9670097244094489
21
-3.5303450787401576
0
LINE
8
BLACK
6
CONTINUOUS
10
4.9670097244094489
20
-3.5303450787401576
11
4.9555342913385827
21
-3.5227975984251967
0
LINE
8
BLACK
6
CONTINUOUS
10
4.9555342913385827
20
-3.5227975984251967
11
4.9450126771653542
21
-3.5139688976377954
0
LINE
8
BLACK
6
CONTINUOUS
10
4.9450126771653542
20
-3.5139688976377954
11
4.9355871653543302
21
-3.5039784251968502
0
LINE
8
BLACK
6
CONTINUOUS
10
4.9355871653543302
20
-3.5039784251968502
11
4.9273851968503939
21
-3.4929612598425197
0
LINE
8
BLACK
6
CONTINUOUS
10
4.9273851968503939
20
-3.4929612598425197
11
4.9205176771653543
21
-3.4810664173228347
0
LINE
8
BLACK
6
CONTINUOUS
10
4.9205176771653543
20
-3.4810664173228347
11
4.9150775196850391
21
-3.46845468503937
0
LINE
8
BLACK
6
CONTINUOUS
10
4.9150775196850391
20
-3.46845468503937
11
4.9111382677165354
21
-3.4552967322834647
0
LINE
8
BLACK
6
CONTINUOUS
10
4.9111382677165354
20
-3.4552967322834647
11
4.9087532283464563
21
-3.4417703937007875
0
LINE
8
BLACK
6
CONTINUOUS
10
4.9087532283464563
20
-3.4417703937007875
11
4.9079546062992128
21
-3.428058622047244
0
LINE
8
BLACK
6
CONTINUOUS
10
4.9079546062992128
20
-3.428058622047244
11
4.9087532283464563
21
-3.4143468503937009
0
LINE
8
BLACK
6
CONTINUOUS
10
4.9087532283464563
20
-3.4143468503937009
11
4.9111382677165354
21
-3.4008205118110237
0
LINE
8
BLACK
6
CONTINUOUS
10
4.9111382677165354
20
-3.4008205118110237
11
4.9150775196850391
21
-3.3876625590551179
0
LINE
8
BLACK
6
CONTINUOUS
10
4.9150775196850391
20
-3.3876625590551179
11
4.9205176771653543
21
-3.3750508267716532
0
LINE
8
BLACK
6
CONTINUOUS
10
4.9205176771653543
20
-3.3750508267716532
11
4.9273851968503939
21
-3.3631559842519683
0
LINE
8
BLACK
6
CONTINUOUS
10
4.9273851968503939
20
-3.3631559842519683
11
4.9355871653543302
21
-3.3521388188976378
0
LINE
8
BLACK
6
CONTINUOUS
10
4.9355871653543302
20
-3.3521388188976378
11
4.9450126771653542
21
-3.342148346456693
0
LINE
8
BLACK
6
CONTINUOUS
10
4.9450126771653542
20
-3.342148346456693
11
4.9555342913385827
21
-3.3333196456692913
0
LINE
8
BLACK
6
CONTINUOUS
10
4.9555342913385827
20
-3.3333196456692913
11
4.9670097244094489
21
-3.3257721653543308
0
LINE
8
BLACK
6
CONTINUOUS
10
4.9670097244094489
20
-3.3257721653543308
11
4.9792837795275586
21
-3.3196079133858265
0
LINE
8
BLACK
6
CONTINUOUS
10
4.9792837795275586
20
-3.3196079133858265
11
4.9921904330708662
21
-3.3149102362204723
0
LINE
8
BLACK
6
CONTINUOUS
10
4.9921904330708662
20
-3.3149102362204723
11
5.005555196850394
21
-3.3117427559055117
0
LINE
8
BLACK
6
CONTINUOUS
10
5.005555196850394
20
-3.3117427559055117
11
5.0191973622047241
21
-3.3101482283464567
0
LINE
8
BLACK
6
CONTINUOUS
10
5.0191973622047241
20
-3.3101482283464567
11
5.0329323228346459
21
-3.3101482283464567
0
LINE
8
BLACK
6
CONTINUOUS
10
5.0329323228346459
20
-3.3101482283464567
11
5.046574488188976
21
-3.3117427559055117
0
LINE
8
BLACK
6
CONTINUOUS
10
7.046574488188976
20
-3.3117427559055117
11
7.0599392519685038
21
-3.3149102362204723
0
LINE
8
BLACK
6
CONTINUOUS
10
7.0599392519685038
20
-3.3149102362204723
11
7.0728459055118105
21
-3.3196079133858265
0
LINE
8
BLACK
6
CONTINUOUS
10
7.0728459055118105
20
-3.3196079133858265
11
7.0851199606299211
21
-3.3257721653543308
0
LINE
8
BLACK
6
CONTINUOUS
10
7.0851199606299211
20
-3.3257721653543308
11
7.0965953937007873
21
-3.3333196456692913
0
LINE
8
BLACK
6
CONTINUOUS
10
7.0965953937007873
20
-3.3333196456692913
11
7.1071170078740158
21
-3.342148346456693
0
LINE
8
BLACK
6
CONTINUOUS
10
7.1071170078740158
20
-3.342148346456693
11
7.1165425196850389
21
-3.3521388188976378
0
LINE
8
BLACK
6
CONTINUOUS
10
7.1165425196850389
20
-3.3521388188976378
11
7.1247444881889761
21
-3.3631559842519683
0
LINE
8
BLACK
6
CONTINUOUS
10
7.1247444881889761
20
-3.3631559842519683
11
7.1316120078740157
21
-3.3750508267716532
0
LINE
8
BLACK
6
CONTINUOUS
10
7.1316120078740157
20
-3.3750508267716532
11
7.1370521653543308
21
-3.3876625590551179
0
LINE
8
BLACK
6
CONTINUOUS
10
7.1370521653543308
20
-3.3876625590551179
11
7.1409914173228346
21
-3.4008205118110237
0
LINE
8
BLACK
6
CONTINUOUS
10
7.1409914173228346
20
-3.4008205118110237
11
7.1433764566929137
21
-3.4143468503937009
0
LINE
8
BLACK
6
CONTINUOUS
10
7.1433764566929137
20
-3.4143468503937009
11
7.1441750787401572
21
-3.428058622047244
0
LINE
8
BLACK
6
CONTINUOUS
10
7.1441750787401572
20
-3.428058622047244
11
7.1433764566929137
21
-3.4417703937007875
0
LINE
8
BLACK
6
CONTINUOUS
10
7.1433764566929137
20
-3.4417703937007875
11
7.1409914173228346
21
-3.4552967322834647
0
LINE
8
BLACK
6
CONTINUOUS
10
7.1409914173228346
20
-3.4552967322834647
11
7.1370521653543308
21
-3.46845468503937
0
LINE
8
BLACK
6
CONTINUOUS
10
7.1370521653543308
20
-3.46845468503937
11
7.1316120078740157
21
-3.4810664173228347
0
LINE
8
BLACK
6
CONTINUOUS
10
7.1316120078740157
20
-3.4810664173228347
11
7.1247444881889761
21
-3.4929612598425197
0
LINE
8
BLACK
6
CONTINUOUS
10
7.1247444881889761
20
-3.4929612598425197
11
7.1165425196850389
21
-3.5039784251968502
0
LINE
8
BLACK
6
CONTINUOUS
10
7.1165425196850389
20
-3.5039784251968502
11
7.1071170078740158
21
-3.5139688976377954
0
LINE
8
BLACK
6
CONTINUOUS
10
7.1071170078740158
20
-3.5139688976377954
11
7.0965953937007873
21
-3.5227975984251967
0
LINE
8
BLACK
6
CONTINUOUS
10
7.0965953937007873
20
-3.5227975984251967
11
7.0851199606299211
21
-3.5303450787401576
0
LINE
8
BLACK
6
CONTINUOUS
10
7.0851199606299211
20
-3.5303450787401576
11
7.0728459055118105
21
-3.5365093307086615
0
LINE
8
BLACK
6
CONTINUOUS
10
7.0728459055118105
20
-3.5365093307086615
11
7.0599392519685038
21
-3.5412070078740157
0
LINE
8
BLACK
6
CONTINUOUS
10
7.0599392519685038
20
-3.5412070078740157
11
7.046574488188976
21
-3.5443744881889763
0
LINE
8
BLACK
6
CONTINUOUS
10
7.046574488188976
20
-3.5443744881889763
11
7.0329323228346459
21
-3.5459690157480313
0
LINE
8
BLACK
6
CONTINUOUS
10
7.0329323228346459
20
-3.5459690157480313
11
7.0191973622047241
21
-3.5459690157480313
0
LINE
8
BLACK
6
CONTINUOUS
10
7.0191973622047241
20
-3.5459690157480313
11
7.005555196850394
21
-3.5443744881889763
0
LINE
8
BLACK
6
CONTINUOUS
10
7.005555196850394
20
-3.5443744881889763
11
6.9921904330708662
21
-3.5412070078740157
0
LINE
8
BLACK
6
CONTINUOUS
10
6.9921904330708662
20
-3.5412070078740157
11
6.9792837795275586
21
-3.5365093307086615
0
LINE
8
BLACK
6
CONTINUOUS
10
6.9792837795275586
20
-3.5365093307086615
11
6.9670097244094489
21
-3.5303450787401576
0
LINE
8
BLACK
6
CONTINUOUS
10
6.9670097244094489
20
-3.5303450787401576
11
6.9555342913385827
21
-3.5227975984251967
0
LINE
8
BLACK
6
CONTINUOUS
10
6.9555342913385827
20
-3.5227975984251967
11
6.9450126771653542
21
-3.5139688976377954
0
LINE
8
BLACK
6
CONTINUOUS
10
6.9450126771653542
20
-3.5139688976377954
11
6.9355871653543302
21
-3.5039784251968502
0
LINE
8
BLACK
6
CONTINUOUS
10
6.9355871653543302
20
-3.5039784251968502
11
6.9273851968503939
21
-3.4929612598425197
0
LINE
8
BLACK
6
CONTINUOUS
10
6.9273851968503939
20
-3.4929612598425197
11
6.9205176771653543
21
-3.4810664173228347
0
LINE
8
BLACK
6
CONTINUOUS
10
6.9205176771653543
20
-3.4810664173228347
11
6.9150775196850391
21
-3.46845468503937
0
LINE
8
BLACK
6
CONTINUOUS
10
6.9150775196850391
20
-3.46845468503937
11
6.9111382677165354
21
-3.4552967322834647
0
LINE
8
BLACK
6
CONTINUOUS
10
6.9111382677165354
20
-3.4552967322834647
11
6.9087532283464563
21
-3.4417703937007875
0
LINE
8
BLACK
6
CONTINUOUS
10
6.9087532283464563
20
-3.4417703937007875
11
6.9079546062992128
21
-3.428058622047244
0
LINE
8
BLACK
6
CONTINUOUS
10
6.9079546062992128
20
-3.428058622047244
11
6.9087532283464563
21
-3.4143468503937009
0
LINE
8
BLACK
6
CONTINUOUS
10
6.9087532283464563
20
-3.4143468503937009
11
6.9111382677165354
21
-3.4008205118110237
0
LINE
8
BLACK
6
CONTINUOUS
10
6.9111382677165354
20
-3.4008205118110237
11
6.9150775196850391
21
-3.3876625590551179
0
LINE
8
BLACK
6
CONTINUOUS
10
6.9150775196850391
20
-3.3876625590551179
11
6.9205176771653543
21
-3.3750508267716532
0
LINE
8
BLACK
6
CONTINUOUS
10
6.9205176771653543
20
-3.3750508267716532
11
6.9273851968503939
21
-3.3631559842519683
0
LINE
8
BLACK
6
CONTINUOUS
10
6.9273851968503939
20
-3.3631559842519683
11
6.9355871653543302
21
-3.3521388188976378
0
LINE
8
BLACK
6
CONTINUOUS
10
6.9355871653543302
20
-3.3521388188976378
11
6.9450126771653542
21
-3.342148346456693
0
LINE
8
BLACK
6
CONTINUOUS
10
6.9450126771653542
20
-3.342148346456693
11
6.9555342913385827
21
-3.3333196456692913
0
LINE
8
BLACK
6
CONTINUOUS
10
6.9555342913385827
20
-3.3333196456692913
11
6.9670097244094489
21
-3.3257721653543308
0
LINE
8
BLACK
6
CONTINUOUS
10
6.9670097244094489
20
-3.3257721653543308
11
6.9792837795275586
21
-3.3196079133858265
0
LINE
8
BLACK
6
CONTINUOUS
10
6.9792837795275586
20
-3.3196079133858265
11
6.9921904330708662
21
-3.3149102362204723
0
LINE
8
BLACK
6
CONTINUOUS
10
6.9921904330708662
20
-3.3149102362204723
11
7.005555196850394
21
-3.3117427559055117
0
LINE
8
BLACK
6
CONTINUOUS
10
7.005555196850394
20
-3.3117427559055117
11
7.0191973622047241
21
-3.3101482283464567
0
LINE
8
BLACK
6
CONTINUOUS
10
7.0191973622047241
20
-3.3101482283464567
11
7.0329323228346459
21
-3.3101482283464567
0
LINE
8
BLACK
6
CONTINUOUS
10
7.0329323228346459
20
-3.3101482283464567
11
7.046574488188976
21
-3.3117427559055117
0
LINE
8
BLACK
6
CONTINUOUS
10
5.3060648425196852
20
-3.4580586220472442
11
5.2460648425196847
21
-3.4580586220472442
0
LINE
8
BLACK
6
CONTINUOUS
10
5.2460648425196847
20
-3.4580586220472442
11
5.2460648425196847
21
-3.3980586220472442
0
LINE
8
BLACK
6
CONTINUOUS
10
5.2460648425196847
20
-3.3980586220472442
11
5.3060648425196852
21
-3.3980586220472442
0
LINE
8
BLACK
6
CONTINUOUS
10
5.3060648425196852
20
-3.3980586220472442
11
5.3060648425196852
21
-3.4580586220472442
0
LINE
8
BLACK
6
CONTINUOUS
10
5.4060648425196849
20
-3.4580586220472442
11
5.3460648425196853
21
-3.4580586220472442
0
LINE
8
BLACK
6
CONTINUOUS
10
5.3460648425196853
20
-3.4580586220472442
11
5.3460648425196853
21
-3.3980586220472442
0
LINE
8
BLACK
6
CONTINUOUS
10
5.3460648425196853
20
-3.3980586220472442
11
5.4060648425196849
21
-3.3980586220472442
0
LINE
8
BLACK
6
CONTINUOUS
10
5.4060648425196849
20
-3.3980586220472442
11
5.4060648425196849
21
-3.4580586220472442
0
LINE
8
BLACK
6
CONTINUOUS
10
5.5060648425196845
20
-3.4580586220472442
11
5.4460648425196849
21
-3.4580586220472442
0
LINE
8
BLACK
6
CONTINUOUS
10
5.4460648425196849
20
-3.4580586220472442
11
5.4460648425196849
21
-3.3980586220472442
0
LINE
8
BLACK
6
CONTINUOUS
10
5.4460648425196849
20
-3.3980586220472442
11
5.5060648425196845
21
-3.3980586220472442
0
LINE
8
BLACK
6
CONTINUOUS
10
5.5060648425196845
20
-3.3980586220472442
11
5.5060648425196845
21
-3.4580586220472442
0
LINE
8
BLACK
6
CONTINUOUS
10
5.6060648425196851
20
-3.4580586220472442
11
5.5460648425196846
21
-3.4580586220472442
0
LINE
8
BLACK
6
CONTINUOUS
10
5.5460648425196846
20
-3.4580586220472442
11
5.5460648425196846
21
-3.3980586220472442
0
LINE
8
BLACK
6
CONTINUOUS
10
5.5460648425196846
20
-3.3980586220472442
11
5.6060648425196851
21
-3.3980586220472442
0
LINE
8
BLACK
6
CONTINUOUS
10
5.6060648425196851
20
-3.3980586220472442
11
5.6060648425196851
21
-3.4580586220472442
0
LINE
8
BLACK
6
CONTINUOUS
10
5.7060648425196847
20
-3.4580586220472442
11
5.6460648425196851
21
-3.4580586220472442
0
LINE
8
BLACK
6
CONTINUOUS
10
5.6460648425196851
20
-3.4580586220472442
11
5.6460648425196851
21
-3.3980586220472442
0
LINE
8
BLACK
6
CONTINUOUS
10
5.6460648425196851
20
-3.3980586220472442
11
5.7060648425196847
21
-3.3980586220472442
0
LINE
8
BLACK
6
CONTINUOUS
10
5.7060648425196847
20
-3.3980586220472442
11
5.7060648425196847
21
-3.4580586220472442
0
LINE
8
BLACK
6
CONTINUOUS
10
5.8060648425196852
20
-3.4580586220472442
11
5.7460648425196847
21
-3.4580586220472442
0
LINE
8
BLACK
6
CONTINUOUS
10
5.7460648425196847
20
-3.4580586220472442
11
5.7460648425196847
21
-3.3980586220472442
0
LINE
8
BLACK
6
CONTINUOUS
10
5.7460648425196847
20
-3.3980586220472442
11
5.8060648425196852
21
-3.3980586220472442
0
LINE
8
BLACK
6
CONTINUOUS
10
5.8060648425196852
20
-3.3980586220472442
11
5.8060648425196852
21
-3.4580586220472442
0
LINE
8
BLACK
6
CONTINUOUS
10
5.9060648425196849
20
-3.4580586220472442
11
5.8460648425196853
21
-3.4580586220472442
0
LINE
8
BLACK
6
CONTINUOUS
10
5.8460648425196853
20
-3.4580586220472442
11
5.8460648425196853
21
-3.3980586220472442
0
LINE
8
BLACK
6
CONTINUOUS
10
5.8460648425196853
20
-3.3980586220472442
11
5.9060648425196849
21
-3.3980586220472442
0
LINE
8
BLACK
6
CONTINUOUS
10
5.9060648425196849
20
-3.3980586220472442
11
5.9060648425196849
21
-3.4580586220472442
0
LINE
8
BLACK
6
CONTINUOUS
10
6.0060648425196845
20
-3.4580586220472442
11
5.9460648425196849
21
-3.4580586220472442
0
LINE
8
BLACK
6
CONTINUOUS
10
5.9460648425196849
20
-3.4580586220472442
11
5.9460648425196849
21
-3.3980586220472442
0
LINE
8
BLACK
6
CONTINUOUS
10
5.9460648425196849
20
-3.3980586220472442
11
6.0060648425196845
21
-3.3980586220472442
0
LINE
8
BLACK
6
CONTINUOUS
10
6.0060648425196845
20
-3.3980586220472442
11
6.0060648425196845
21
-3.4580586220472442
0
LINE
8
BLACK
6
CONTINUOUS
10
6.1060648425196851
20
-3.4580586220472442
11
6.0460648425196846
21
-3.4580586220472442
0
LINE
8
BLACK
6
CONTINUOUS
10
6.0460648425196846
20
-3.4580586220472442
11
6.0460648425196846
21
-3.3980586220472442
0
LINE
8
BLACK
6
CONTINUOUS
10
6.0460648425196846
20
-3.3980586220472442
11
6.1060648425196851
21
-3.3980586220472442
0
LINE
8
BLACK
6
CONTINUOUS
10
6.1060648425196851
20
-3.3980586220472442
11
6.1060648425196851
21
-3.4580586220472442
0
LINE
8
BLACK
6
CONTINUOUS
10
5.3060648425196852
20
-3.3580586220472441
11
5.2460648425196847
21
-3.3580586220472441
0
LINE
8
BLACK
6
CONTINUOUS
10
5.2460648425196847
20
-3.3580586220472441
11
5.2460648425196847
21
-3.2980586220472441
0
LINE
8
BLACK
6
CONTINUOUS
10
5.2460648425196847
20
-3.2980586220472441
11
5.3060648425196852
21
-3.2980586220472441
0
LINE
8
BLACK
6
CONTINUOUS
10
5.3060648425196852
20
-3.2980586220472441
11
5.3060648425196852
21
-3.3580586220472441
0
LINE
8
BLACK
6
CONTINUOUS
10
5.4060648425196849
20
-3.3580586220472441
11
5.3460648425196853
21
-3.3580586220472441
0
LINE
8
BLACK
6
CONTINUOUS
10
5.3460648425196853
20
-3.3580586220472441
11
5.3460648425196853
21
-3.2980586220472441
0
LINE
8
BLACK
6
CONTINUOUS
10
5.3460648425196853
20
-3.2980586220472441
11
5.4060648425196849
21
-3.2980586220472441
0
LINE
8
BLACK
6
CONTINUOUS
10
5.4060648425196849
20
-3.2980586220472441
11
5.4060648425196849
21
-3.3580586220472441
0
LINE
8
BLACK
6
CONTINUOUS
10
5.5060648425196845
20
-3.3580586220472441
11
5.4460648425196849
21
-3.3580586220472441
0
LINE
8
BLACK
6
CONTINUOUS
10
5.4460648425196849
20
-3.3580586220472441
11
5.4460648425196849
21
-3.2980586220472441
0
LINE
8
BLACK
6
CONTINUOUS
10
5.4460648425196849
20
-3.2980586220472441
11
5.5060648425196845
21
-3.2980586220472441
0
LINE
8
BLACK
6
CONTINUOUS
10
5.5060648425196845
20
-3.2980586220472441
11
5.5060648425196845
21
-3.3580586220472441
0
LINE
8
BLACK
6
CONTINUOUS
10
5.6060648425196851
20
-3.3580586220472441
11
5.5460648425196846
21
-3.3580586220472441
0
LINE
8
BLACK
6
CONTINUOUS
10
5.5460648425196846
20
-3.3580586220472441
11
5.5460648425196846
21
-3.2980586220472441
0
LINE
8
BLACK
6
CONTINUOUS
10
5.5460648425196846
20
-3.2980586220472441
11
5.6060648425196851
21
-3.2980586220472441
0
LINE
8
BLACK
6
CONTINUOUS
10
5.6060648425196851
20
-3.2980586220472441
11
5.6060648425196851
21
-3.3580586220472441
0
LINE
8
BLACK
6
CONTINUOUS
10
5.7060648425196847
20
-3.3580586220472441
11
5.6460648425196851
21
-3.3580586220472441
0
LINE
8
BLACK
6
CONTINUOUS
10
5.6460648425196851
20
-3.3580586220472441
11
5.6460648425196851
21
-3.2980586220472441
0
LINE
8
BLACK
6
CONTINUOUS
10
5.6460648425196851
20
-3.2980586220472441
11
5.7060648425196847
21
-3.2980586220472441
0
LINE
8
BLACK
6
CONTINUOUS
10
5.7060648425196847
20
-3.2980586220472441
11
5.7060648425196847
21
-3.3580586220472441
0
LINE
8
BLACK
6
CONTINUOUS
10
5.8060648425196852
20
-3.3580586220472441
11
5.7460648425196847
21
-3.3580586220472441
0
LINE
8
BLACK
6
CONTINUOUS
10
5.7460648425196847
20
-3.3580586220472441
11
5.7460648425196847
21
-3.2980586220472441
0
LINE
8
BLACK
6
CONTINUOUS
10
5.7460648425196847
20
-3.2980586220472441
11
5.8060648425196852
21
-3.2980586220472441
0
LINE
8
BLACK
6
CONTINUOUS
10
5.8060648425196852
20
-3.2980586220472441
11
5.8060648425196852
21
-3.3580586220472441
0
LINE
8
BLACK
6
CONTINUOUS
10
5.9060648425196849
20
-3.3580586220472441
11
5.8460648425196853
21
-3.3580586220472441
0
LINE
8
BLACK
6
CONTINUOUS
10
5.8460648425196853
20
-3.3580586220472441
11
5.8460648425196853
21
-3.2980586220472441
0
LINE
8
BLACK
6
CONTINUOUS
10
5.8460648425196853
20
-3.2980586220472441
11
5.9060648425196849
21
-3.2980586220472441
0
LINE
8
BLACK
6
CONTINUOUS
10
5.9060648425196849
20
-3.2980586220472441
11
5.9060648425196849
21
-3.3580586220472441
0
LINE
8
BLACK
6
CONTINUOUS
10
6.0060648425196845
20
-3.3580586220472441
11
5.9460648425196849
21
-3.3580586220472441
0
LINE
8
BLACK
6
CONTINUOUS
10
5.9460648425196849
20
-3.3580586220472441
11
5.9460648425196849
21
-3.2980586220472441
0
LINE
8
BLACK
6
CONTINUOUS
10
5.9460648425196849
20
-3.2980586220472441
11
6.0060648425196845
21
-3.2980586220472441
0
LINE
8
BLACK
6
CONTINUOUS
10
6.0060648425196845
20
-3.2980586220472441
11
6.0060648425196845
21
-3.3580586220472441
0
LINE
8
BLACK
6
CONTINUOUS
10
6.1060648425196851
20
-3.3580586220472441
11
6.0460648425196846
21
-3.3580586220472441
0
LINE
8
BLACK
6
CONTINUOUS
10
6.0460648425196846
20
-3.3580586220472441
11
6.0460648425196846
21
-3.2980586220472441
0
LINE
8
BLACK
6
CONTINUOUS
10
6.0460648425196846
20
-3.2980586220472441
11
6.1060648425196851
21
-3.2980586220472441
0
LINE
8
BLACK
6
CONTINUOUS
10
6.1060648425196851
20
-3.2980586220472441
11
6.1060648425196851
21
-3.3580586220472441
  0
ENDSEC
  0
EOF
