  0
SECTION
  2
HEADER
  9
$ANGBASE
  50
0.0
  9
$ANGDIR
  70
1
  9
$MEASUREMENT
  70
0
  0
ENDSEC
  0
SECTION
  2
TABLES
  0
TABLE
  2
LTYPE
  70
4
  0
LTYPE
  5
40F
  2
CONTINUOUS
  70
0
  3
Solid line
  72
65
  73
0
  40
0.0
  0
LTYPE
  5
410
  2
DASHDOT
 70
0
  3
Dash Dot ____ _ ____ _
 72
65
 73
4
 40
2.0
 49
1.25
 49
-0.25
 49
0.25
 49
-0.25
  0
LTYPE
  5
411
  2
DASHED
 70
0
  3
Dashed __ __ __ __ __
 72
65
 73
2
 40
0.75
 49
0.5
 49
-0.25
  0
LTYPE
  5
43B
  2
DOTTED
 70
0
  3
Dotted .  .  .  .
 72
65
 73
2
 40
0.2
 49
0.0
 49
-0.2
  0
ENDTAB
  0
TABLE
  2
STYLE
  70
4
  0
STYLE
  2
KICAD
  70
0
  40
0
  41
1
  42
1
  50
0
  71
0
  3
isocp.shx
  0
STYLE
  2
KICADB
  70
0
  40
0
  41
1
  42
1
  50
0
  71
0
  3
isocp.shx
  0
STYLE
  2
KICADI
  70
0
  40
0
  41
1
  42
1
  50
15
  71
0
  3
isocp.shx
  0
STYLE
  2
KICADBI
  70
0
  40
0
  41
1
  42
1
  50
15
  71
0
  3
isocp.shx
  0
ENDTAB
  0
TABLE
  2
LAYER
  70
1
  0
LAYER
  2
BLACK
  70
0
  62
7
  6
CONTINUOUS
  0
ENDTAB
  0
ENDSEC
  0
SECTION
  2
ENTITIES
0
LINE
8
BLACK
6
CONTINUOUS
10
5.04657
20
-4.51174
11
5.05994
21
-4.51491
0
LINE
8
BLACK
6
CONTINUOUS
10
5.05994
20
-4.51491
11
5.07285
21
-4.51961
0
LINE
8
BLACK
6
CONTINUOUS
10
5.07285
20
-4.51961
11
5.08512
21
-4.52577
0
LINE
8
BLACK
6
CONTINUOUS
10
5.08512
20
-4.52577
11
5.0966
21
-4.53332
0
LINE
8
BLACK
6
CONTINUOUS
10
5.0966
20
-4.53332
11
5.10712
21
-4.54215
0
LINE
8
BLACK
6
CONTINUOUS
10
5.10712
20
-4.54215
11
5.11654
21
-4.55214
0
LINE
8
BLACK
6
CONTINUOUS
10
5.11654
20
-4.55214
11
5.12474
21
-4.56316
0
LINE
8
BLACK
6
CONTINUOUS
10
5.12474
20
-4.56316
11
5.13161
21
-4.57505
0
LINE
8
BLACK
6
CONTINUOUS
10
5.13161
20
-4.57505
11
5.13705
21
-4.58766
0
LINE
8
BLACK
6
CONTINUOUS
10
5.13705
20
-4.58766
11
5.14099
21
-4.60082
0
LINE
8
BLACK
6
CONTINUOUS
10
5.14099
20
-4.60082
11
5.14338
21
-4.61435
0
LINE
8
BLACK
6
CONTINUOUS
10
5.14338
20
-4.61435
11
5.14418
21
-4.62806
0
LINE
8
BLACK
6
CONTINUOUS
10
5.14418
20
-4.62806
11
5.14338
21
-4.64177
0
LINE
8
BLACK
6
CONTINUOUS
10
5.14338
20
-4.64177
11
5.14099
21
-4.6553
0
LINE
8
BLACK
6
CONTINUOUS
10
5.14099
20
-4.6553
11
5.13705
21
-4.66845
0
LINE
8
BLACK
6
CONTINUOUS
10
5.13705
20
-4.66845
11
5.13161
21
-4.68107
0
LINE
8
BLACK
6
CONTINUOUS
10
5.13161
20
-4.68107
11
5.12474
21
-4.69296
0
LINE
8
BLACK
6
CONTINUOUS
10
5.12474
20
-4.69296
11
5.11654
21
-4.70398
0
LINE
8
BLACK
6
CONTINUOUS
10
5.11654
20
-4.70398
11
5.10712
21
-4.71397
0
LINE
8
BLACK
6
CONTINUOUS
10
5.10712
20
-4.71397
11
5.0966
21
-4.7228
0
LINE
8
BLACK
6
CONTINUOUS
10
5.0966
20
-4.7228
11
5.08512
21
-4.73035
0
LINE
8
BLACK
6
CONTINUOUS
10
5.08512
20
-4.73035
11
5.07285
21
-4.73651
0
LINE
8
BLACK
6
CONTINUOUS
10
5.07285
20
-4.73651
11
5.05994
21
-4.74121
0
LINE
8
BLACK
6
CONTINUOUS
10
5.05994
20
-4.74121
11
5.04657
21
-4.74437
0
LINE
8
BLACK
6
CONTINUOUS
10
5.04657
20
-4.74437
11
5.03293
21
-4.74597
0
LINE
8
BLACK
6
CONTINUOUS
10
5.03293
20
-4.74597
11
5.0192
21
-4.74597
0
LINE
8
BLACK
6
CONTINUOUS
10
5.0192
20
-4.74597
11
5.00556
21
-4.74437
0
LINE
8
BLACK
6
CONTINUOUS
10
5.00556
20
-4.74437
11
4.99219
21
-4.74121
0
LINE
8
BLACK
6
CONTINUOUS
10
4.99219
20
-4.74121
11
4.97928
21
-4.73651
0
LINE
8
BLACK
6
CONTINUOUS
10
4.97928
20
-4.73651
11
4.96701
21
-4.73035
0
LINE
8
BLACK
6
CONTINUOUS
10
4.96701
20
-4.73035
11
4.95553
21
-4.7228
0
LINE
8
BLACK
6
CONTINUOUS
10
4.95553
20
-4.7228
11
4.94501
21
-4.71397
0
LINE
8
BLACK
6
CONTINUOUS
10
4.94501
20
-4.71397
11
4.93559
21
-4.70398
0
LINE
8
BLACK
6
CONTINUOUS
10
4.93559
20
-4.70398
11
4.92739
21
-4.69296
0
LINE
8
BLACK
6
CONTINUOUS
10
4.92739
20
-4.69296
11
4.92052
21
-4.68107
0
LINE
8
BLACK
6
CONTINUOUS
10
4.92052
20
-4.68107
11
4.91508
21
-4.66845
0
LINE
8
BLACK
6
CONTINUOUS
10
4.91508
20
-4.66845
11
4.91114
21
-4.6553
0
LINE
8
BLACK
6
CONTINUOUS
10
4.91114
20
-4.6553
11
4.90875
21
-4.64177
0
LINE
8
BLACK
6
CONTINUOUS
10
4.90875
20
-4.64177
11
4.90795
21
-4.62806
0
LINE
8
BLACK
6
CONTINUOUS
10
4.90795
20
-4.62806
11
4.90875
21
-4.61435
0
LINE
8
BLACK
6
CONTINUOUS
10
4.90875
20
-4.61435
11
4.91114
21
-4.60082
0
LINE
8
BLACK
6
CONTINUOUS
10
4.91114
20
-4.60082
11
4.91508
21
-4.58766
0
LINE
8
BLACK
6
CONTINUOUS
10
4.91508
20
-4.58766
11
4.92052
21
-4.57505
0
LINE
8
BLACK
6
CONTINUOUS
10
4.92052
20
-4.57505
11
4.92739
21
-4.56316
0
LINE
8
BLACK
6
CONTINUOUS
10
4.92739
20
-4.56316
11
4.93559
21
-4.55214
0
LINE
8
BLACK
6
CONTINUOUS
10
4.93559
20
-4.55214
11
4.94501
21
-4.54215
0
LINE
8
BLACK
6
CONTINUOUS
10
4.94501
20
-4.54215
11
4.95553
21
-4.53332
0
LINE
8
BLACK
6
CONTINUOUS
10
4.95553
20
-4.53332
11
4.96701
21
-4.52577
0
LINE
8
BLACK
6
CONTINUOUS
10
4.96701
20
-4.52577
11
4.97928
21
-4.51961
0
LINE
8
BLACK
6
CONTINUOUS
10
4.97928
20
-4.51961
11
4.99219
21
-4.51491
0
LINE
8
BLACK
6
CONTINUOUS
10
4.99219
20
-4.51491
11
5.00556
21
-4.51174
0
LINE
8
BLACK
6
CONTINUOUS
10
5.00556
20
-4.51174
11
5.0192
21
-4.51015
0
LINE
8
BLACK
6
CONTINUOUS
10
5.0192
20
-4.51015
11
5.03293
21
-4.51015
0
LINE
8
BLACK
6
CONTINUOUS
10
5.03293
20
-4.51015
11
5.04657
21
-4.51174
0
LINE
8
BLACK
6
CONTINUOUS
10
7.04657
20
-4.51174
11
7.05994
21
-4.51491
0
LINE
8
BLACK
6
CONTINUOUS
10
7.05994
20
-4.51491
11
7.07285
21
-4.51961
0
LINE
8
BLACK
6
CONTINUOUS
10
7.07285
20
-4.51961
11
7.08512
21
-4.52577
0
LINE
8
BLACK
6
CONTINUOUS
10
7.08512
20
-4.52577
11
7.0966
21
-4.53332
0
LINE
8
BLACK
6
CONTINUOUS
10
7.0966
20
-4.53332
11
7.10712
21
-4.54215
0
LINE
8
BLACK
6
CONTINUOUS
10
7.10712
20
-4.54215
11
7.11654
21
-4.55214
0
LINE
8
BLACK
6
CONTINUOUS
10
7.11654
20
-4.55214
11
7.12474
21
-4.56316
0
LINE
8
BLACK
6
CONTINUOUS
10
7.12474
20
-4.56316
11
7.13161
21
-4.57505
0
LINE
8
BLACK
6
CONTINUOUS
10
7.13161
20
-4.57505
11
7.13705
21
-4.58766
0
LINE
8
BLACK
6
CONTINUOUS
10
7.13705
20
-4.58766
11
7.14099
21
-4.60082
0
LINE
8
BLACK
6
CONTINUOUS
10
7.14099
20
-4.60082
11
7.14338
21
-4.61435
0
LINE
8
BLACK
6
CONTINUOUS
10
7.14338
20
-4.61435
11
7.14418
21
-4.62806
0
LINE
8
BLACK
6
CONTINUOUS
10
7.14418
20
-4.62806
11
7.14338
21
-4.64177
0
LINE
8
BLACK
6
CONTINUOUS
10
7.14338
20
-4.64177
11
7.14099
21
-4.6553
0
LINE
8
BLACK
6
CONTINUOUS
10
7.14099
20
-4.6553
11
7.13705
21
-4.66845
0
LINE
8
BLACK
6
CONTINUOUS
10
7.13705
20
-4.66845
11
7.13161
21
-4.68107
0
LINE
8
BLACK
6
CONTINUOUS
10
7.13161
20
-4.68107
11
7.12474
21
-4.69296
0
LINE
8
BLACK
6
CONTINUOUS
10
7.12474
20
-4.69296
11
7.11654
21
-4.70398
0
LINE
8
BLACK
6
CONTINUOUS
10
7.11654
20
-4.70398
11
7.10712
21
-4.71397
0
LINE
8
BLACK
6
CONTINUOUS
10
7.10712
20
-4.71397
11
7.0966
21
-4.7228
0
LINE
8
BLACK
6
CONTINUOUS
10
7.0966
20
-4.7228
11
7.08512
21
-4.73035
0
LINE
8
BLACK
6
CONTINUOUS
10
7.08512
20
-4.73035
11
7.07285
21
-4.73651
0
LINE
8
BLACK
6
CONTINUOUS
10
7.07285
20
-4.73651
11
7.05994
21
-4.74121
0
LINE
8
BLACK
6
CONTINUOUS
10
7.05994
20
-4.74121
11
7.04657
21
-4.74437
0
LINE
8
BLACK
6
CONTINUOUS
10
7.04657
20
-4.74437
11
7.03293
21
-4.74597
0
LINE
8
BLACK
6
CONTINUOUS
10
7.03293
20
-4.74597
11
7.0192
21
-4.74597
0
LINE
8
BLACK
6
CONTINUOUS
10
7.0192
20
-4.74597
11
7.00556
21
-4.74437
0
LINE
8
BLACK
6
CONTINUOUS
10
7.00556
20
-4.74437
11
6.99219
21
-4.74121
0
LINE
8
BLACK
6
CONTINUOUS
10
6.99219
20
-4.74121
11
6.97928
21
-4.73651
0
LINE
8
BLACK
6
CONTINUOUS
10
6.97928
20
-4.73651
11
6.96701
21
-4.73035
0
LINE
8
BLACK
6
CONTINUOUS
10
6.96701
20
-4.73035
11
6.95553
21
-4.7228
0
LINE
8
BLACK
6
CONTINUOUS
10
6.95553
20
-4.7228
11
6.94501
21
-4.71397
0
LINE
8
BLACK
6
CONTINUOUS
10
6.94501
20
-4.71397
11
6.93559
21
-4.70398
0
LINE
8
BLACK
6
CONTINUOUS
10
6.93559
20
-4.70398
11
6.92739
21
-4.69296
0
LINE
8
BLACK
6
CONTINUOUS
10
6.92739
20
-4.69296
11
6.92052
21
-4.68107
0
LINE
8
BLACK
6
CONTINUOUS
10
6.92052
20
-4.68107
11
6.91508
21
-4.66845
0
LINE
8
BLACK
6
CONTINUOUS
10
6.91508
20
-4.66845
11
6.91114
21
-4.6553
0
LINE
8
BLACK
6
CONTINUOUS
10
6.91114
20
-4.6553
11
6.90875
21
-4.64177
0
LINE
8
BLACK
6
CONTINUOUS
10
6.90875
20
-4.64177
11
6.90795
21
-4.62806
0
LINE
8
BLACK
6
CONTINUOUS
10
6.90795
20
-4.62806
11
6.90875
21
-4.61435
0
LINE
8
BLACK
6
CONTINUOUS
10
6.90875
20
-4.61435
11
6.91114
21
-4.60082
0
LINE
8
BLACK
6
CONTINUOUS
10
6.91114
20
-4.60082
11
6.91508
21
-4.58766
0
LINE
8
BLACK
6
CONTINUOUS
10
6.91508
20
-4.58766
11
6.92052
21
-4.57505
0
LINE
8
BLACK
6
CONTINUOUS
10
6.92052
20
-4.57505
11
6.92739
21
-4.56316
0
LINE
8
BLACK
6
CONTINUOUS
10
6.92739
20
-4.56316
11
6.93559
21
-4.55214
0
LINE
8
BLACK
6
CONTINUOUS
10
6.93559
20
-4.55214
11
6.94501
21
-4.54215
0
LINE
8
BLACK
6
CONTINUOUS
10
6.94501
20
-4.54215
11
6.95553
21
-4.53332
0
LINE
8
BLACK
6
CONTINUOUS
10
6.95553
20
-4.53332
11
6.96701
21
-4.52577
0
LINE
8
BLACK
6
CONTINUOUS
10
6.96701
20
-4.52577
11
6.97928
21
-4.51961
0
LINE
8
BLACK
6
CONTINUOUS
10
6.97928
20
-4.51961
11
6.99219
21
-4.51491
0
LINE
8
BLACK
6
CONTINUOUS
10
6.99219
20
-4.51491
11
7.00556
21
-4.51174
0
LINE
8
BLACK
6
CONTINUOUS
10
7.00556
20
-4.51174
11
7.0192
21
-4.51015
0
LINE
8
BLACK
6
CONTINUOUS
10
7.0192
20
-4.51015
11
7.03293
21
-4.51015
0
LINE
8
BLACK
6
CONTINUOUS
10
7.03293
20
-4.51015
11
7.04657
21
-4.51174
0
LINE
8
BLACK
6
CONTINUOUS
10
6.60529
20
-4.60572
11
6.61424
21
-4.60811
0
LINE
8
BLACK
6
CONTINUOUS
10
6.61424
20
-4.60811
11
6.62264
21
-4.61203
0
LINE
8
BLACK
6
CONTINUOUS
10
6.62264
20
-4.61203
11
6.63023
21
-4.61734
0
LINE
8
BLACK
6
CONTINUOUS
10
6.63023
20
-4.61734
11
6.63678
21
-4.62389
0
LINE
8
BLACK
6
CONTINUOUS
10
6.63678
20
-4.62389
11
6.64209
21
-4.63148
0
LINE
8
BLACK
6
CONTINUOUS
10
6.64209
20
-4.63148
11
6.64601
21
-4.63988
0
LINE
8
BLACK
6
CONTINUOUS
10
6.64601
20
-4.63988
11
6.64841
21
-4.64883
0
LINE
8
BLACK
6
CONTINUOUS
10
6.64841
20
-4.64883
11
6.64921
21
-4.65806
0
LINE
8
BLACK
6
CONTINUOUS
10
6.64921
20
-4.65806
11
6.64841
21
-4.66729
0
LINE
8
BLACK
6
CONTINUOUS
10
6.64841
20
-4.66729
11
6.64601
21
-4.67624
0
LINE
8
BLACK
6
CONTINUOUS
10
6.64601
20
-4.67624
11
6.64209
21
-4.68463
0
LINE
8
BLACK
6
CONTINUOUS
10
6.64209
20
-4.68463
11
6.63678
21
-4.69222
0
LINE
8
BLACK
6
CONTINUOUS
10
6.63678
20
-4.69222
11
6.63023
21
-4.69877
0
LINE
8
BLACK
6
CONTINUOUS
10
6.63023
20
-4.69877
11
6.62264
21
-4.70409
0
LINE
8
BLACK
6
CONTINUOUS
10
6.62264
20
-4.70409
11
6.61424
21
-4.708
0
LINE
8
BLACK
6
CONTINUOUS
10
6.61424
20
-4.708
11
6.60529
21
-4.7104
0
LINE
8
BLACK
6
CONTINUOUS
10
6.60529
20
-4.7104
11
6.59606
21
-4.71121
0
LINE
8
BLACK
6
CONTINUOUS
10
6.59606
20
-4.71121
11
6.58684
21
-4.7104
0
LINE
8
BLACK
6
CONTINUOUS
10
6.58684
20
-4.7104
11
6.57789
21
-4.708
0
LINE
8
BLACK
6
CONTINUOUS
10
6.57789
20
-4.708
11
6.56949
21
-4.70409
0
LINE
8
BLACK
6
CONTINUOUS
10
6.56949
20
-4.70409
11
6.5619
21
-4.69877
0
LINE
8
BLACK
6
CONTINUOUS
10
6.5619
20
-4.69877
11
6.55535
21
-4.69222
0
LINE
8
BLACK
6
CONTINUOUS
10
6.55535
20
-4.69222
11
6.55004
21
-4.68463
0
LINE
8
BLACK
6
CONTINUOUS
10
6.55004
20
-4.68463
11
6.54612
21
-4.67624
0
LINE
8
BLACK
6
CONTINUOUS
10
6.54612
20
-4.67624
11
6.54372
21
-4.66729
0
LINE
8
BLACK
6
CONTINUOUS
10
6.54372
20
-4.66729
11
6.54292
21
-4.65806
0
LINE
8
BLACK
6
CONTINUOUS
10
6.54292
20
-4.65806
11
6.54372
21
-4.64883
0
LINE
8
BLACK
6
CONTINUOUS
10
6.54372
20
-4.64883
11
6.54612
21
-4.63988
0
LINE
8
BLACK
6
CONTINUOUS
10
6.54612
20
-4.63988
11
6.55004
21
-4.63148
0
LINE
8
BLACK
6
CONTINUOUS
10
6.55004
20
-4.63148
11
6.55535
21
-4.62389
0
LINE
8
BLACK
6
CONTINUOUS
10
6.55535
20
-4.62389
11
6.5619
21
-4.61734
0
LINE
8
BLACK
6
CONTINUOUS
10
6.5619
20
-4.61734
11
6.56949
21
-4.61203
0
LINE
8
BLACK
6
CONTINUOUS
10
6.56949
20
-4.61203
11
6.57789
21
-4.60811
0
LINE
8
BLACK
6
CONTINUOUS
10
6.57789
20
-4.60811
11
6.58684
21
-4.60572
0
LINE
8
BLACK
6
CONTINUOUS
10
6.58684
20
-4.60572
11
6.59606
21
-4.60491
0
LINE
8
BLACK
6
CONTINUOUS
10
6.59606
20
-4.60491
11
6.60529
21
-4.60572
0
LINE
8
BLACK
6
CONTINUOUS
10
6.74529
20
-4.60572
11
6.75424
21
-4.60811
0
LINE
8
BLACK
6
CONTINUOUS
10
6.75424
20
-4.60811
11
6.76264
21
-4.61203
0
LINE
8
BLACK
6
CONTINUOUS
10
6.76264
20
-4.61203
11
6.77023
21
-4.61734
0
LINE
8
BLACK
6
CONTINUOUS
10
6.77023
20
-4.61734
11
6.77678
21
-4.62389
0
LINE
8
BLACK
6
CONTINUOUS
10
6.77678
20
-4.62389
11
6.78209
21
-4.63148
0
LINE
8
BLACK
6
CONTINUOUS
10
6.78209
20
-4.63148
11
6.78601
21
-4.63988
0
LINE
8
BLACK
6
CONTINUOUS
10
6.78601
20
-4.63988
11
6.78841
21
-4.64883
0
LINE
8
BLACK
6
CONTINUOUS
10
6.78841
20
-4.64883
11
6.78921
21
-4.65806
0
LINE
8
BLACK
6
CONTINUOUS
10
6.78921
20
-4.65806
11
6.78841
21
-4.66729
0
LINE
8
BLACK
6
CONTINUOUS
10
6.78841
20
-4.66729
11
6.78601
21
-4.67624
0
LINE
8
BLACK
6
CONTINUOUS
10
6.78601
20
-4.67624
11
6.78209
21
-4.68463
0
LINE
8
BLACK
6
CONTINUOUS
10
6.78209
20
-4.68463
11
6.77678
21
-4.69222
0
LINE
8
BLACK
6
CONTINUOUS
10
6.77678
20
-4.69222
11
6.77023
21
-4.69877
0
LINE
8
BLACK
6
CONTINUOUS
10
6.77023
20
-4.69877
11
6.76264
21
-4.70409
0
LINE
8
BLACK
6
CONTINUOUS
10
6.76264
20
-4.70409
11
6.75424
21
-4.708
0
LINE
8
BLACK
6
CONTINUOUS
10
6.75424
20
-4.708
11
6.74529
21
-4.7104
0
LINE
8
BLACK
6
CONTINUOUS
10
6.74529
20
-4.7104
11
6.73606
21
-4.71121
0
LINE
8
BLACK
6
CONTINUOUS
10
6.73606
20
-4.71121
11
6.72684
21
-4.7104
0
LINE
8
BLACK
6
CONTINUOUS
10
6.72684
20
-4.7104
11
6.71789
21
-4.708
0
LINE
8
BLACK
6
CONTINUOUS
10
6.71789
20
-4.708
11
6.70949
21
-4.70409
0
LINE
8
BLACK
6
CONTINUOUS
10
6.70949
20
-4.70409
11
6.7019
21
-4.69877
0
LINE
8
BLACK
6
CONTINUOUS
10
6.7019
20
-4.69877
11
6.69535
21
-4.69222
0
LINE
8
BLACK
6
CONTINUOUS
10
6.69535
20
-4.69222
11
6.69004
21
-4.68463
0
LINE
8
BLACK
6
CONTINUOUS
10
6.69004
20
-4.68463
11
6.68612
21
-4.67624
0
LINE
8
BLACK
6
CONTINUOUS
10
6.68612
20
-4.67624
11
6.68372
21
-4.66729
0
LINE
8
BLACK
6
CONTINUOUS
10
6.68372
20
-4.66729
11
6.68292
21
-4.65806
0
LINE
8
BLACK
6
CONTINUOUS
10
6.68292
20
-4.65806
11
6.68372
21
-4.64883
0
LINE
8
BLACK
6
CONTINUOUS
10
6.68372
20
-4.64883
11
6.68612
21
-4.63988
0
LINE
8
BLACK
6
CONTINUOUS
10
6.68612
20
-4.63988
11
6.69004
21
-4.63148
0
LINE
8
BLACK
6
CONTINUOUS
10
6.69004
20
-4.63148
11
6.69535
21
-4.62389
0
LINE
8
BLACK
6
CONTINUOUS
10
6.69535
20
-4.62389
11
6.7019
21
-4.61734
0
LINE
8
BLACK
6
CONTINUOUS
10
6.7019
20
-4.61734
11
6.70949
21
-4.61203
0
LINE
8
BLACK
6
CONTINUOUS
10
6.70949
20
-4.61203
11
6.71789
21
-4.60811
0
LINE
8
BLACK
6
CONTINUOUS
10
6.71789
20
-4.60811
11
6.72684
21
-4.60572
0
LINE
8
BLACK
6
CONTINUOUS
10
6.72684
20
-4.60572
11
6.73606
21
-4.60491
0
LINE
8
BLACK
6
CONTINUOUS
10
6.73606
20
-4.60491
11
6.74529
21
-4.60572
0
LINE
8
BLACK
6
CONTINUOUS
10
6.37606
20
-4.69806
11
6.31606
21
-4.69806
0
LINE
8
BLACK
6
CONTINUOUS
10
6.31606
20
-4.69806
11
6.31606
21
-4.63806
0
LINE
8
BLACK
6
CONTINUOUS
10
6.31606
20
-4.63806
11
6.37606
21
-4.63806
0
LINE
8
BLACK
6
CONTINUOUS
10
6.37606
20
-4.63806
11
6.37606
21
-4.69806
0
LINE
8
BLACK
6
CONTINUOUS
10
6.47606
20
-4.69806
11
6.41606
21
-4.69806
0
LINE
8
BLACK
6
CONTINUOUS
10
6.41606
20
-4.69806
11
6.41606
21
-4.63806
0
LINE
8
BLACK
6
CONTINUOUS
10
6.41606
20
-4.63806
11
6.47606
21
-4.63806
0
LINE
8
BLACK
6
CONTINUOUS
10
6.47606
20
-4.63806
11
6.47606
21
-4.69806
0
LINE
8
BLACK
6
CONTINUOUS
10
5.33106
20
-4.60806
11
5.27106
21
-4.60806
0
LINE
8
BLACK
6
CONTINUOUS
10
5.27106
20
-4.60806
11
5.27106
21
-4.54806
0
LINE
8
BLACK
6
CONTINUOUS
10
5.27106
20
-4.54806
11
5.33106
21
-4.54806
0
LINE
8
BLACK
6
CONTINUOUS
10
5.33106
20
-4.54806
11
5.33106
21
-4.60806
0
LINE
8
BLACK
6
CONTINUOUS
10
5.43106
20
-4.60806
11
5.37106
21
-4.60806
0
LINE
8
BLACK
6
CONTINUOUS
10
5.37106
20
-4.60806
11
5.37106
21
-4.54806
0
LINE
8
BLACK
6
CONTINUOUS
10
5.37106
20
-4.54806
11
5.43106
21
-4.54806
0
LINE
8
BLACK
6
CONTINUOUS
10
5.43106
20
-4.54806
11
5.43106
21
-4.60806
0
LINE
8
BLACK
6
CONTINUOUS
10
5.53106
20
-4.60806
11
5.47106
21
-4.60806
0
LINE
8
BLACK
6
CONTINUOUS
10
5.47106
20
-4.60806
11
5.47106
21
-4.54806
0
LINE
8
BLACK
6
CONTINUOUS
10
5.47106
20
-4.54806
11
5.53106
21
-4.54806
0
LINE
8
BLACK
6
CONTINUOUS
10
5.53106
20
-4.54806
11
5.53106
21
-4.60806
0
LINE
8
BLACK
6
CONTINUOUS
10
5.63106
20
-4.60806
11
5.57106
21
-4.60806
0
LINE
8
BLACK
6
CONTINUOUS
10
5.57106
20
-4.60806
11
5.57106
21
-4.54806
0
LINE
8
BLACK
6
CONTINUOUS
10
5.57106
20
-4.54806
11
5.63106
21
-4.54806
0
LINE
8
BLACK
6
CONTINUOUS
10
5.63106
20
-4.54806
11
5.63106
21
-4.60806
0
LINE
8
BLACK
6
CONTINUOUS
10
5.73106
20
-4.60806
11
5.67106
21
-4.60806
0
LINE
8
BLACK
6
CONTINUOUS
10
5.67106
20
-4.60806
11
5.67106
21
-4.54806
0
LINE
8
BLACK
6
CONTINUOUS
10
5.67106
20
-4.54806
11
5.73106
21
-4.54806
0
LINE
8
BLACK
6
CONTINUOUS
10
5.73106
20
-4.54806
11
5.73106
21
-4.60806
0
LINE
8
BLACK
6
CONTINUOUS
10
5.83106
20
-4.60806
11
5.77106
21
-4.60806
0
LINE
8
BLACK
6
CONTINUOUS
10
5.77106
20
-4.60806
11
5.77106
21
-4.54806
0
LINE
8
BLACK
6
CONTINUOUS
10
5.77106
20
-4.54806
11
5.83106
21
-4.54806
0
LINE
8
BLACK
6
CONTINUOUS
10
5.83106
20
-4.54806
11
5.83106
21
-4.60806
0
LINE
8
BLACK
6
CONTINUOUS
10
5.93106
20
-4.60806
11
5.87106
21
-4.60806
0
LINE
8
BLACK
6
CONTINUOUS
10
5.87106
20
-4.60806
11
5.87106
21
-4.54806
0
LINE
8
BLACK
6
CONTINUOUS
10
5.87106
20
-4.54806
11
5.93106
21
-4.54806
0
LINE
8
BLACK
6
CONTINUOUS
10
5.93106
20
-4.54806
11
5.93106
21
-4.60806
0
LINE
8
BLACK
6
CONTINUOUS
10
6.03106
20
-4.60806
11
5.97106
21
-4.60806
0
LINE
8
BLACK
6
CONTINUOUS
10
5.97106
20
-4.60806
11
5.97106
21
-4.54806
0
LINE
8
BLACK
6
CONTINUOUS
10
5.97106
20
-4.54806
11
6.03106
21
-4.54806
0
LINE
8
BLACK
6
CONTINUOUS
10
6.03106
20
-4.54806
11
6.03106
21
-4.60806
0
LINE
8
BLACK
6
CONTINUOUS
10
6.13106
20
-4.60806
11
6.07106
21
-4.60806
0
LINE
8
BLACK
6
CONTINUOUS
10
6.07106
20
-4.60806
11
6.07106
21
-4.54806
0
LINE
8
BLACK
6
CONTINUOUS
10
6.07106
20
-4.54806
11
6.13106
21
-4.54806
0
LINE
8
BLACK
6
CONTINUOUS
10
6.13106
20
-4.54806
11
6.13106
21
-4.60806
0
LINE
8
BLACK
6
CONTINUOUS
10
6.23106
20
-4.60806
11
6.17106
21
-4.60806
0
LINE
8
BLACK
6
CONTINUOUS
10
6.17106
20
-4.60806
11
6.17106
21
-4.54806
0
LINE
8
BLACK
6
CONTINUOUS
10
6.17106
20
-4.54806
11
6.23106
21
-4.54806
0
LINE
8
BLACK
6
CONTINUOUS
10
6.23106
20
-4.54806
11
6.23106
21
-4.60806
0
LINE
8
BLACK
6
CONTINUOUS
10
6.37606
20
-4.59806
11
6.31606
21
-4.59806
0
LINE
8
BLACK
6
CONTINUOUS
10
6.31606
20
-4.59806
11
6.31606
21
-4.53806
0
LINE
8
BLACK
6
CONTINUOUS
10
6.31606
20
-4.53806
11
6.37606
21
-4.53806
0
LINE
8
BLACK
6
CONTINUOUS
10
6.37606
20
-4.53806
11
6.37606
21
-4.59806
0
LINE
8
BLACK
6
CONTINUOUS
10
6.47606
20
-4.59806
11
6.41606
21
-4.59806
0
LINE
8
BLACK
6
CONTINUOUS
10
6.41606
20
-4.59806
11
6.41606
21
-4.53806
0
LINE
8
BLACK
6
CONTINUOUS
10
6.41606
20
-4.53806
11
6.47606
21
-4.53806
0
LINE
8
BLACK
6
CONTINUOUS
10
6.47606
20
-4.53806
11
6.47606
21
-4.59806
0
LINE
8
BLACK
6
CONTINUOUS
10
5.33106
20
-4.50806
11
5.27106
21
-4.50806
0
LINE
8
BLACK
6
CONTINUOUS
10
5.27106
20
-4.50806
11
5.27106
21
-4.44806
0
LINE
8
BLACK
6
CONTINUOUS
10
5.27106
20
-4.44806
11
5.33106
21
-4.44806
0
LINE
8
BLACK
6
CONTINUOUS
10
5.33106
20
-4.44806
11
5.33106
21
-4.50806
0
LINE
8
BLACK
6
CONTINUOUS
10
5.43106
20
-4.50806
11
5.37106
21
-4.50806
0
LINE
8
BLACK
6
CONTINUOUS
10
5.37106
20
-4.50806
11
5.37106
21
-4.44806
0
LINE
8
BLACK
6
CONTINUOUS
10
5.37106
20
-4.44806
11
5.43106
21
-4.44806
0
LINE
8
BLACK
6
CONTINUOUS
10
5.43106
20
-4.44806
11
5.43106
21
-4.50806
0
LINE
8
BLACK
6
CONTINUOUS
10
5.53106
20
-4.50806
11
5.47106
21
-4.50806
0
LINE
8
BLACK
6
CONTINUOUS
10
5.47106
20
-4.50806
11
5.47106
21
-4.44806
0
LINE
8
BLACK
6
CONTINUOUS
10
5.47106
20
-4.44806
11
5.53106
21
-4.44806
0
LINE
8
BLACK
6
CONTINUOUS
10
5.53106
20
-4.44806
11
5.53106
21
-4.50806
0
LINE
8
BLACK
6
CONTINUOUS
10
5.63106
20
-4.50806
11
5.57106
21
-4.50806
0
LINE
8
BLACK
6
CONTINUOUS
10
5.57106
20
-4.50806
11
5.57106
21
-4.44806
0
LINE
8
BLACK
6
CONTINUOUS
10
5.57106
20
-4.44806
11
5.63106
21
-4.44806
0
LINE
8
BLACK
6
CONTINUOUS
10
5.63106
20
-4.44806
11
5.63106
21
-4.50806
0
LINE
8
BLACK
6
CONTINUOUS
10
5.73106
20
-4.50806
11
5.67106
21
-4.50806
0
LINE
8
BLACK
6
CONTINUOUS
10
5.67106
20
-4.50806
11
5.67106
21
-4.44806
0
LINE
8
BLACK
6
CONTINUOUS
10
5.67106
20
-4.44806
11
5.73106
21
-4.44806
0
LINE
8
BLACK
6
CONTINUOUS
10
5.73106
20
-4.44806
11
5.73106
21
-4.50806
0
LINE
8
BLACK
6
CONTINUOUS
10
5.83106
20
-4.50806
11
5.77106
21
-4.50806
0
LINE
8
BLACK
6
CONTINUOUS
10
5.77106
20
-4.50806
11
5.77106
21
-4.44806
0
LINE
8
BLACK
6
CONTINUOUS
10
5.77106
20
-4.44806
11
5.83106
21
-4.44806
0
LINE
8
BLACK
6
CONTINUOUS
10
5.83106
20
-4.44806
11
5.83106
21
-4.50806
0
LINE
8
BLACK
6
CONTINUOUS
10
5.93106
20
-4.50806
11
5.87106
21
-4.50806
0
LINE
8
BLACK
6
CONTINUOUS
10
5.87106
20
-4.50806
11
5.87106
21
-4.44806
0
LINE
8
BLACK
6
CONTINUOUS
10
5.87106
20
-4.44806
11
5.93106
21
-4.44806
0
LINE
8
BLACK
6
CONTINUOUS
10
5.93106
20
-4.44806
11
5.93106
21
-4.50806
0
LINE
8
BLACK
6
CONTINUOUS
10
6.03106
20
-4.50806
11
5.97106
21
-4.50806
0
LINE
8
BLACK
6
CONTINUOUS
10
5.97106
20
-4.50806
11
5.97106
21
-4.44806
0
LINE
8
BLACK
6
CONTINUOUS
10
5.97106
20
-4.44806
11
6.03106
21
-4.44806
0
LINE
8
BLACK
6
CONTINUOUS
10
6.03106
20
-4.44806
11
6.03106
21
-4.50806
0
LINE
8
BLACK
6
CONTINUOUS
10
6.13106
20
-4.50806
11
6.07106
21
-4.50806
0
LINE
8
BLACK
6
CONTINUOUS
10
6.07106
20
-4.50806
11
6.07106
21
-4.44806
0
LINE
8
BLACK
6
CONTINUOUS
10
6.07106
20
-4.44806
11
6.13106
21
-4.44806
0
LINE
8
BLACK
6
CONTINUOUS
10
6.13106
20
-4.44806
11
6.13106
21
-4.50806
0
LINE
8
BLACK
6
CONTINUOUS
10
6.23106
20
-4.50806
11
6.17106
21
-4.50806
0
LINE
8
BLACK
6
CONTINUOUS
10
6.17106
20
-4.50806
11
6.17106
21
-4.44806
0
LINE
8
BLACK
6
CONTINUOUS
10
6.17106
20
-4.44806
11
6.23106
21
-4.44806
0
LINE
8
BLACK
6
CONTINUOUS
10
6.23106
20
-4.44806
11
6.23106
21
-4.50806
0
LINE
8
BLACK
6
CONTINUOUS
10
4.95606
20
-4.42306
11
4.89606
21
-4.42306
0
LINE
8
BLACK
6
CONTINUOUS
10
4.89606
20
-4.42306
11
4.89606
21
-4.36306
0
LINE
8
BLACK
6
CONTINUOUS
10
4.89606
20
-4.36306
11
4.95606
21
-4.36306
0
LINE
8
BLACK
6
CONTINUOUS
10
4.95606
20
-4.36306
11
4.95606
21
-4.42306
0
LINE
8
BLACK
6
CONTINUOUS
10
5.05606
20
-4.42306
11
4.99606
21
-4.42306
0
LINE
8
BLACK
6
CONTINUOUS
10
4.99606
20
-4.42306
11
4.99606
21
-4.36306
0
LINE
8
BLACK
6
CONTINUOUS
10
4.99606
20
-4.36306
11
5.05606
21
-4.36306
0
LINE
8
BLACK
6
CONTINUOUS
10
5.05606
20
-4.36306
11
5.05606
21
-4.42306
0
LINE
8
BLACK
6
CONTINUOUS
10
6.93529
20
-4.25072
11
6.94424
21
-4.25311
0
LINE
8
BLACK
6
CONTINUOUS
10
6.94424
20
-4.25311
11
6.95264
21
-4.25703
0
LINE
8
BLACK
6
CONTINUOUS
10
6.95264
20
-4.25703
11
6.96023
21
-4.26234
0
LINE
8
BLACK
6
CONTINUOUS
10
6.96023
20
-4.26234
11
6.96678
21
-4.26889
0
LINE
8
BLACK
6
CONTINUOUS
10
6.96678
20
-4.26889
11
6.97209
21
-4.27648
0
LINE
8
BLACK
6
CONTINUOUS
10
6.97209
20
-4.27648
11
6.97601
21
-4.28488
0
LINE
8
BLACK
6
CONTINUOUS
10
6.97601
20
-4.28488
11
6.97841
21
-4.29383
0
LINE
8
BLACK
6
CONTINUOUS
10
6.97841
20
-4.29383
11
6.97921
21
-4.30306
0
LINE
8
BLACK
6
CONTINUOUS
10
6.97921
20
-4.30306
11
6.97841
21
-4.31229
0
LINE
8
BLACK
6
CONTINUOUS
10
6.97841
20
-4.31229
11
6.97601
21
-4.32124
0
LINE
8
BLACK
6
CONTINUOUS
10
6.97601
20
-4.32124
11
6.97209
21
-4.32963
0
LINE
8
BLACK
6
CONTINUOUS
10
6.97209
20
-4.32963
11
6.96678
21
-4.33722
0
LINE
8
BLACK
6
CONTINUOUS
10
6.96678
20
-4.33722
11
6.96023
21
-4.34377
0
LINE
8
BLACK
6
CONTINUOUS
10
6.96023
20
-4.34377
11
6.95264
21
-4.34909
0
LINE
8
BLACK
6
CONTINUOUS
10
6.95264
20
-4.34909
11
6.94424
21
-4.353
0
LINE
8
BLACK
6
CONTINUOUS
10
6.94424
20
-4.353
11
6.93529
21
-4.3554
0
LINE
8
BLACK
6
CONTINUOUS
10
6.93529
20
-4.3554
11
6.92606
21
-4.35621
0
LINE
8
BLACK
6
CONTINUOUS
10
6.92606
20
-4.35621
11
6.91684
21
-4.3554
0
LINE
8
BLACK
6
CONTINUOUS
10
6.91684
20
-4.3554
11
6.90789
21
-4.353
0
LINE
8
BLACK
6
CONTINUOUS
10
6.90789
20
-4.353
11
6.89949
21
-4.34909
0
LINE
8
BLACK
6
CONTINUOUS
10
6.89949
20
-4.34909
11
6.8919
21
-4.34377
0
LINE
8
BLACK
6
CONTINUOUS
10
6.8919
20
-4.34377
11
6.88535
21
-4.33722
0
LINE
8
BLACK
6
CONTINUOUS
10
6.88535
20
-4.33722
11
6.88004
21
-4.32963
0
LINE
8
BLACK
6
CONTINUOUS
10
6.88004
20
-4.32963
11
6.87612
21
-4.32124
0
LINE
8
BLACK
6
CONTINUOUS
10
6.87612
20
-4.32124
11
6.87372
21
-4.31229
0
LINE
8
BLACK
6
CONTINUOUS
10
6.87372
20
-4.31229
11
6.87292
21
-4.30306
0
LINE
8
BLACK
6
CONTINUOUS
10
6.87292
20
-4.30306
11
6.87372
21
-4.29383
0
LINE
8
BLACK
6
CONTINUOUS
10
6.87372
20
-4.29383
11
6.87612
21
-4.28488
0
LINE
8
BLACK
6
CONTINUOUS
10
6.87612
20
-4.28488
11
6.88004
21
-4.27648
0
LINE
8
BLACK
6
CONTINUOUS
10
6.88004
20
-4.27648
11
6.88535
21
-4.26889
0
LINE
8
BLACK
6
CONTINUOUS
10
6.88535
20
-4.26889
11
6.8919
21
-4.26234
0
LINE
8
BLACK
6
CONTINUOUS
10
6.8919
20
-4.26234
11
6.89949
21
-4.25703
0
LINE
8
BLACK
6
CONTINUOUS
10
6.89949
20
-4.25703
11
6.90789
21
-4.25311
0
LINE
8
BLACK
6
CONTINUOUS
10
6.90789
20
-4.25311
11
6.91684
21
-4.25072
0
LINE
8
BLACK
6
CONTINUOUS
10
6.91684
20
-4.25072
11
6.92606
21
-4.24991
0
LINE
8
BLACK
6
CONTINUOUS
10
6.92606
20
-4.24991
11
6.93529
21
-4.25072
0
LINE
8
BLACK
6
CONTINUOUS
10
7.13529
20
-4.25072
11
7.14424
21
-4.25311
0
LINE
8
BLACK
6
CONTINUOUS
10
7.14424
20
-4.25311
11
7.15264
21
-4.25703
0
LINE
8
BLACK
6
CONTINUOUS
10
7.15264
20
-4.25703
11
7.16023
21
-4.26234
0
LINE
8
BLACK
6
CONTINUOUS
10
7.16023
20
-4.26234
11
7.16678
21
-4.26889
0
LINE
8
BLACK
6
CONTINUOUS
10
7.16678
20
-4.26889
11
7.17209
21
-4.27648
0
LINE
8
BLACK
6
CONTINUOUS
10
7.17209
20
-4.27648
11
7.17601
21
-4.28488
0
LINE
8
BLACK
6
CONTINUOUS
10
7.17601
20
-4.28488
11
7.17841
21
-4.29383
0
LINE
8
BLACK
6
CONTINUOUS
10
7.17841
20
-4.29383
11
7.17921
21
-4.30306
0
LINE
8
BLACK
6
CONTINUOUS
10
7.17921
20
-4.30306
11
7.17841
21
-4.31229
0
LINE
8
BLACK
6
CONTINUOUS
10
7.17841
20
-4.31229
11
7.17601
21
-4.32124
0
LINE
8
BLACK
6
CONTINUOUS
10
7.17601
20
-4.32124
11
7.17209
21
-4.32963
0
LINE
8
BLACK
6
CONTINUOUS
10
7.17209
20
-4.32963
11
7.16678
21
-4.33722
0
LINE
8
BLACK
6
CONTINUOUS
10
7.16678
20
-4.33722
11
7.16023
21
-4.34377
0
LINE
8
BLACK
6
CONTINUOUS
10
7.16023
20
-4.34377
11
7.15264
21
-4.34909
0
LINE
8
BLACK
6
CONTINUOUS
10
7.15264
20
-4.34909
11
7.14424
21
-4.353
0
LINE
8
BLACK
6
CONTINUOUS
10
7.14424
20
-4.353
11
7.13529
21
-4.3554
0
LINE
8
BLACK
6
CONTINUOUS
10
7.13529
20
-4.3554
11
7.12606
21
-4.35621
0
LINE
8
BLACK
6
CONTINUOUS
10
7.12606
20
-4.35621
11
7.11684
21
-4.3554
0
LINE
8
BLACK
6
CONTINUOUS
10
7.11684
20
-4.3554
11
7.10789
21
-4.353
0
LINE
8
BLACK
6
CONTINUOUS
10
7.10789
20
-4.353
11
7.09949
21
-4.34909
0
LINE
8
BLACK
6
CONTINUOUS
10
7.09949
20
-4.34909
11
7.0919
21
-4.34377
0
LINE
8
BLACK
6
CONTINUOUS
10
7.0919
20
-4.34377
11
7.08535
21
-4.33722
0
LINE
8
BLACK
6
CONTINUOUS
10
7.08535
20
-4.33722
11
7.08004
21
-4.32963
0
LINE
8
BLACK
6
CONTINUOUS
10
7.08004
20
-4.32963
11
7.07612
21
-4.32124
0
LINE
8
BLACK
6
CONTINUOUS
10
7.07612
20
-4.32124
11
7.07372
21
-4.31229
0
LINE
8
BLACK
6
CONTINUOUS
10
7.07372
20
-4.31229
11
7.07292
21
-4.30306
0
LINE
8
BLACK
6
CONTINUOUS
10
7.07292
20
-4.30306
11
7.07372
21
-4.29383
0
LINE
8
BLACK
6
CONTINUOUS
10
7.07372
20
-4.29383
11
7.07612
21
-4.28488
0
LINE
8
BLACK
6
CONTINUOUS
10
7.07612
20
-4.28488
11
7.08004
21
-4.27648
0
LINE
8
BLACK
6
CONTINUOUS
10
7.08004
20
-4.27648
11
7.08535
21
-4.26889
0
LINE
8
BLACK
6
CONTINUOUS
10
7.08535
20
-4.26889
11
7.0919
21
-4.26234
0
LINE
8
BLACK
6
CONTINUOUS
10
7.0919
20
-4.26234
11
7.09949
21
-4.25703
0
LINE
8
BLACK
6
CONTINUOUS
10
7.09949
20
-4.25703
11
7.10789
21
-4.25311
0
LINE
8
BLACK
6
CONTINUOUS
10
7.10789
20
-4.25311
11
7.11684
21
-4.25072
0
LINE
8
BLACK
6
CONTINUOUS
10
7.11684
20
-4.25072
11
7.12606
21
-4.24991
0
LINE
8
BLACK
6
CONTINUOUS
10
7.12606
20
-4.24991
11
7.13529
21
-4.25072
0
LINE
8
BLACK
6
CONTINUOUS
10
4.95606
20
-4.32306
11
4.89606
21
-4.32306
0
LINE
8
BLACK
6
CONTINUOUS
10
4.89606
20
-4.32306
11
4.89606
21
-4.26306
0
LINE
8
BLACK
6
CONTINUOUS
10
4.89606
20
-4.26306
11
4.95606
21
-4.26306
0
LINE
8
BLACK
6
CONTINUOUS
10
4.95606
20
-4.26306
11
4.95606
21
-4.32306
0
LINE
8
BLACK
6
CONTINUOUS
10
5.05606
20
-4.32306
11
4.99606
21
-4.32306
0
LINE
8
BLACK
6
CONTINUOUS
10
4.99606
20
-4.32306
11
4.99606
21
-4.26306
0
LINE
8
BLACK
6
CONTINUOUS
10
4.99606
20
-4.26306
11
5.05606
21
-4.26306
0
LINE
8
BLACK
6
CONTINUOUS
10
5.05606
20
-4.26306
11
5.05606
21
-4.32306
0
LINE
8
BLACK
6
CONTINUOUS
10
7.03461
20
-4.15459
11
7.0429
21
-4.15681
0
LINE
8
BLACK
6
CONTINUOUS
10
7.0429
20
-4.15681
11
7.05067
21
-4.16044
0
LINE
8
BLACK
6
CONTINUOUS
10
7.05067
20
-4.16044
11
7.0577
21
-4.16536
0
LINE
8
BLACK
6
CONTINUOUS
10
7.0577
20
-4.16536
11
7.06376
21
-4.17143
0
LINE
8
BLACK
6
CONTINUOUS
10
7.06376
20
-4.17143
11
7.06868
21
-4.17845
0
LINE
8
BLACK
6
CONTINUOUS
10
7.06868
20
-4.17845
11
7.07231
21
-4.18623
0
LINE
8
BLACK
6
CONTINUOUS
10
7.07231
20
-4.18623
11
7.07453
21
-4.19451
0
LINE
8
BLACK
6
CONTINUOUS
10
7.07453
20
-4.19451
11
7.07528
21
-4.20306
0
LINE
8
BLACK
6
CONTINUOUS
10
7.07528
20
-4.20306
11
7.07453
21
-4.2116
0
LINE
8
BLACK
6
CONTINUOUS
10
7.07453
20
-4.2116
11
7.07231
21
-4.21989
0
LINE
8
BLACK
6
CONTINUOUS
10
7.07231
20
-4.21989
11
7.06868
21
-4.22766
0
LINE
8
BLACK
6
CONTINUOUS
10
7.06868
20
-4.22766
11
7.06376
21
-4.23469
0
LINE
8
BLACK
6
CONTINUOUS
10
7.06376
20
-4.23469
11
7.0577
21
-4.24076
0
LINE
8
BLACK
6
CONTINUOUS
10
7.0577
20
-4.24076
11
7.05067
21
-4.24568
0
LINE
8
BLACK
6
CONTINUOUS
10
7.05067
20
-4.24568
11
7.0429
21
-4.2493
0
LINE
8
BLACK
6
CONTINUOUS
10
7.0429
20
-4.2493
11
7.03461
21
-4.25152
0
LINE
8
BLACK
6
CONTINUOUS
10
7.03461
20
-4.25152
11
7.02606
21
-4.25227
0
LINE
8
BLACK
6
CONTINUOUS
10
7.02606
20
-4.25227
11
7.01752
21
-4.25152
0
LINE
8
BLACK
6
CONTINUOUS
10
7.01752
20
-4.25152
11
7.00923
21
-4.2493
0
LINE
8
BLACK
6
CONTINUOUS
10
7.00923
20
-4.2493
11
7.00146
21
-4.24568
0
LINE
8
BLACK
6
CONTINUOUS
10
7.00146
20
-4.24568
11
6.99443
21
-4.24076
0
LINE
8
BLACK
6
CONTINUOUS
10
6.99443
20
-4.24076
11
6.98837
21
-4.23469
0
LINE
8
BLACK
6
CONTINUOUS
10
6.98837
20
-4.23469
11
6.98345
21
-4.22766
0
LINE
8
BLACK
6
CONTINUOUS
10
6.98345
20
-4.22766
11
6.97982
21
-4.21989
0
LINE
8
BLACK
6
CONTINUOUS
10
6.97982
20
-4.21989
11
6.9776
21
-4.2116
0
LINE
8
BLACK
6
CONTINUOUS
10
6.9776
20
-4.2116
11
6.97685
21
-4.20306
0
LINE
8
BLACK
6
CONTINUOUS
10
6.97685
20
-4.20306
11
6.9776
21
-4.19451
0
LINE
8
BLACK
6
CONTINUOUS
10
6.9776
20
-4.19451
11
6.97982
21
-4.18623
0
LINE
8
BLACK
6
CONTINUOUS
10
6.97982
20
-4.18623
11
6.98345
21
-4.17845
0
LINE
8
BLACK
6
CONTINUOUS
10
6.98345
20
-4.17845
11
6.98837
21
-4.17143
0
LINE
8
BLACK
6
CONTINUOUS
10
6.98837
20
-4.17143
11
6.99443
21
-4.16536
0
LINE
8
BLACK
6
CONTINUOUS
10
6.99443
20
-4.16536
11
7.00146
21
-4.16044
0
LINE
8
BLACK
6
CONTINUOUS
10
7.00146
20
-4.16044
11
7.00923
21
-4.15681
0
LINE
8
BLACK
6
CONTINUOUS
10
7.00923
20
-4.15681
11
7.01752
21
-4.15459
0
LINE
8
BLACK
6
CONTINUOUS
10
7.01752
20
-4.15459
11
7.02606
21
-4.15385
0
LINE
8
BLACK
6
CONTINUOUS
10
7.02606
20
-4.15385
11
7.03461
21
-4.15459
0
LINE
8
BLACK
6
CONTINUOUS
10
4.95606
20
-4.22306
11
4.89606
21
-4.22306
0
LINE
8
BLACK
6
CONTINUOUS
10
4.89606
20
-4.22306
11
4.89606
21
-4.16306
0
LINE
8
BLACK
6
CONTINUOUS
10
4.89606
20
-4.16306
11
4.95606
21
-4.16306
0
LINE
8
BLACK
6
CONTINUOUS
10
4.95606
20
-4.16306
11
4.95606
21
-4.22306
0
LINE
8
BLACK
6
CONTINUOUS
10
5.05606
20
-4.22306
11
4.99606
21
-4.22306
0
LINE
8
BLACK
6
CONTINUOUS
10
4.99606
20
-4.22306
11
4.99606
21
-4.16306
0
LINE
8
BLACK
6
CONTINUOUS
10
4.99606
20
-4.16306
11
5.05606
21
-4.16306
0
LINE
8
BLACK
6
CONTINUOUS
10
5.05606
20
-4.16306
11
5.05606
21
-4.22306
0
LINE
8
BLACK
6
CONTINUOUS
10
6.93529
20
-4.05072
11
6.94424
21
-4.05311
0
LINE
8
BLACK
6
CONTINUOUS
10
6.94424
20
-4.05311
11
6.95264
21
-4.05703
0
LINE
8
BLACK
6
CONTINUOUS
10
6.95264
20
-4.05703
11
6.96023
21
-4.06234
0
LINE
8
BLACK
6
CONTINUOUS
10
6.96023
20
-4.06234
11
6.96678
21
-4.06889
0
LINE
8
BLACK
6
CONTINUOUS
10
6.96678
20
-4.06889
11
6.97209
21
-4.07648
0
LINE
8
BLACK
6
CONTINUOUS
10
6.97209
20
-4.07648
11
6.97601
21
-4.08488
0
LINE
8
BLACK
6
CONTINUOUS
10
6.97601
20
-4.08488
11
6.97841
21
-4.09383
0
LINE
8
BLACK
6
CONTINUOUS
10
6.97841
20
-4.09383
11
6.97921
21
-4.10306
0
LINE
8
BLACK
6
CONTINUOUS
10
6.97921
20
-4.10306
11
6.97841
21
-4.11229
0
LINE
8
BLACK
6
CONTINUOUS
10
6.97841
20
-4.11229
11
6.97601
21
-4.12124
0
LINE
8
BLACK
6
CONTINUOUS
10
6.97601
20
-4.12124
11
6.97209
21
-4.12963
0
LINE
8
BLACK
6
CONTINUOUS
10
6.97209
20
-4.12963
11
6.96678
21
-4.13722
0
LINE
8
BLACK
6
CONTINUOUS
10
6.96678
20
-4.13722
11
6.96023
21
-4.14377
0
LINE
8
BLACK
6
CONTINUOUS
10
6.96023
20
-4.14377
11
6.95264
21
-4.14909
0
LINE
8
BLACK
6
CONTINUOUS
10
6.95264
20
-4.14909
11
6.94424
21
-4.153
0
LINE
8
BLACK
6
CONTINUOUS
10
6.94424
20
-4.153
11
6.93529
21
-4.1554
0
LINE
8
BLACK
6
CONTINUOUS
10
6.93529
20
-4.1554
11
6.92606
21
-4.15621
0
LINE
8
BLACK
6
CONTINUOUS
10
6.92606
20
-4.15621
11
6.91684
21
-4.1554
0
LINE
8
BLACK
6
CONTINUOUS
10
6.91684
20
-4.1554
11
6.90789
21
-4.153
0
LINE
8
BLACK
6
CONTINUOUS
10
6.90789
20
-4.153
11
6.89949
21
-4.14909
0
LINE
8
BLACK
6
CONTINUOUS
10
6.89949
20
-4.14909
11
6.8919
21
-4.14377
0
LINE
8
BLACK
6
CONTINUOUS
10
6.8919
20
-4.14377
11
6.88535
21
-4.13722
0
LINE
8
BLACK
6
CONTINUOUS
10
6.88535
20
-4.13722
11
6.88004
21
-4.12963
0
LINE
8
BLACK
6
CONTINUOUS
10
6.88004
20
-4.12963
11
6.87612
21
-4.12124
0
LINE
8
BLACK
6
CONTINUOUS
10
6.87612
20
-4.12124
11
6.87372
21
-4.11229
0
LINE
8
BLACK
6
CONTINUOUS
10
6.87372
20
-4.11229
11
6.87292
21
-4.10306
0
LINE
8
BLACK
6
CONTINUOUS
10
6.87292
20
-4.10306
11
6.87372
21
-4.09383
0
LINE
8
BLACK
6
CONTINUOUS
10
6.87372
20
-4.09383
11
6.87612
21
-4.08488
0
LINE
8
BLACK
6
CONTINUOUS
10
6.87612
20
-4.08488
11
6.88004
21
-4.07648
0
LINE
8
BLACK
6
CONTINUOUS
10
6.88004
20
-4.07648
11
6.88535
21
-4.06889
0
LINE
8
BLACK
6
CONTINUOUS
10
6.88535
20
-4.06889
11
6.8919
21
-4.06234
0
LINE
8
BLACK
6
CONTINUOUS
10
6.8919
20
-4.06234
11
6.89949
21
-4.05703
0
LINE
8
BLACK
6
CONTINUOUS
10
6.89949
20
-4.05703
11
6.90789
21
-4.05311
0
LINE
8
BLACK
6
CONTINUOUS
10
6.90789
20
-4.05311
11
6.91684
21
-4.05072
0
LINE
8
BLACK
6
CONTINUOUS
10
6.91684
20
-4.05072
11
6.92606
21
-4.04991
0
LINE
8
BLACK
6
CONTINUOUS
10
6.92606
20
-4.04991
11
6.93529
21
-4.05072
0
LINE
8
BLACK
6
CONTINUOUS
10
7.13529
20
-4.05072
11
7.14424
21
-4.05311
0
LINE
8
BLACK
6
CONTINUOUS
10
7.14424
20
-4.05311
11
7.15264
21
-4.05703
0
LINE
8
BLACK
6
CONTINUOUS
10
7.15264
20
-4.05703
11
7.16023
21
-4.06234
0
LINE
8
BLACK
6
CONTINUOUS
10
7.16023
20
-4.06234
11
7.16678
21
-4.06889
0
LINE
8
BLACK
6
CONTINUOUS
10
7.16678
20
-4.06889
11
7.17209
21
-4.07648
0
LINE
8
BLACK
6
CONTINUOUS
10
7.17209
20
-4.07648
11
7.17601
21
-4.08488
0
LINE
8
BLACK
6
CONTINUOUS
10
7.17601
20
-4.08488
11
7.17841
21
-4.09383
0
LINE
8
BLACK
6
CONTINUOUS
10
7.17841
20
-4.09383
11
7.17921
21
-4.10306
0
LINE
8
BLACK
6
CONTINUOUS
10
7.17921
20
-4.10306
11
7.17841
21
-4.11229
0
LINE
8
BLACK
6
CONTINUOUS
10
7.17841
20
-4.11229
11
7.17601
21
-4.12124
0
LINE
8
BLACK
6
CONTINUOUS
10
7.17601
20
-4.12124
11
7.17209
21
-4.12963
0
LINE
8
BLACK
6
CONTINUOUS
10
7.17209
20
-4.12963
11
7.16678
21
-4.13722
0
LINE
8
BLACK
6
CONTINUOUS
10
7.16678
20
-4.13722
11
7.16023
21
-4.14377
0
LINE
8
BLACK
6
CONTINUOUS
10
7.16023
20
-4.14377
11
7.15264
21
-4.14909
0
LINE
8
BLACK
6
CONTINUOUS
10
7.15264
20
-4.14909
11
7.14424
21
-4.153
0
LINE
8
BLACK
6
CONTINUOUS
10
7.14424
20
-4.153
11
7.13529
21
-4.1554
0
LINE
8
BLACK
6
CONTINUOUS
10
7.13529
20
-4.1554
11
7.12606
21
-4.15621
0
LINE
8
BLACK
6
CONTINUOUS
10
7.12606
20
-4.15621
11
7.11684
21
-4.1554
0
LINE
8
BLACK
6
CONTINUOUS
10
7.11684
20
-4.1554
11
7.10789
21
-4.153
0
LINE
8
BLACK
6
CONTINUOUS
10
7.10789
20
-4.153
11
7.09949
21
-4.14909
0
LINE
8
BLACK
6
CONTINUOUS
10
7.09949
20
-4.14909
11
7.0919
21
-4.14377
0
LINE
8
BLACK
6
CONTINUOUS
10
7.0919
20
-4.14377
11
7.08535
21
-4.13722
0
LINE
8
BLACK
6
CONTINUOUS
10
7.08535
20
-4.13722
11
7.08004
21
-4.12963
0
LINE
8
BLACK
6
CONTINUOUS
10
7.08004
20
-4.12963
11
7.07612
21
-4.12124
0
LINE
8
BLACK
6
CONTINUOUS
10
7.07612
20
-4.12124
11
7.07372
21
-4.11229
0
LINE
8
BLACK
6
CONTINUOUS
10
7.07372
20
-4.11229
11
7.07292
21
-4.10306
0
LINE
8
BLACK
6
CONTINUOUS
10
7.07292
20
-4.10306
11
7.07372
21
-4.09383
0
LINE
8
BLACK
6
CONTINUOUS
10
7.07372
20
-4.09383
11
7.07612
21
-4.08488
0
LINE
8
BLACK
6
CONTINUOUS
10
7.07612
20
-4.08488
11
7.08004
21
-4.07648
0
LINE
8
BLACK
6
CONTINUOUS
10
7.08004
20
-4.07648
11
7.08535
21
-4.06889
0
LINE
8
BLACK
6
CONTINUOUS
10
7.08535
20
-4.06889
11
7.0919
21
-4.06234
0
LINE
8
BLACK
6
CONTINUOUS
10
7.0919
20
-4.06234
11
7.09949
21
-4.05703
0
LINE
8
BLACK
6
CONTINUOUS
10
7.09949
20
-4.05703
11
7.10789
21
-4.05311
0
LINE
8
BLACK
6
CONTINUOUS
10
7.10789
20
-4.05311
11
7.11684
21
-4.05072
0
LINE
8
BLACK
6
CONTINUOUS
10
7.11684
20
-4.05072
11
7.12606
21
-4.04991
0
LINE
8
BLACK
6
CONTINUOUS
10
7.12606
20
-4.04991
11
7.13529
21
-4.05072
0
LINE
8
BLACK
6
CONTINUOUS
10
6.93529
20
-3.82572
11
6.94424
21
-3.82811
0
LINE
8
BLACK
6
CONTINUOUS
10
6.94424
20
-3.82811
11
6.95264
21
-3.83203
0
LINE
8
BLACK
6
CONTINUOUS
10
6.95264
20
-3.83203
11
6.96023
21
-3.83734
0
LINE
8
BLACK
6
CONTINUOUS
10
6.96023
20
-3.83734
11
6.96678
21
-3.84389
0
LINE
8
BLACK
6
CONTINUOUS
10
6.96678
20
-3.84389
11
6.97209
21
-3.85148
0
LINE
8
BLACK
6
CONTINUOUS
10
6.97209
20
-3.85148
11
6.97601
21
-3.85988
0
LINE
8
BLACK
6
CONTINUOUS
10
6.97601
20
-3.85988
11
6.97841
21
-3.86883
0
LINE
8
BLACK
6
CONTINUOUS
10
6.97841
20
-3.86883
11
6.97921
21
-3.87806
0
LINE
8
BLACK
6
CONTINUOUS
10
6.97921
20
-3.87806
11
6.97841
21
-3.88729
0
LINE
8
BLACK
6
CONTINUOUS
10
6.97841
20
-3.88729
11
6.97601
21
-3.89624
0
LINE
8
BLACK
6
CONTINUOUS
10
6.97601
20
-3.89624
11
6.97209
21
-3.90463
0
LINE
8
BLACK
6
CONTINUOUS
10
6.97209
20
-3.90463
11
6.96678
21
-3.91222
0
LINE
8
BLACK
6
CONTINUOUS
10
6.96678
20
-3.91222
11
6.96023
21
-3.91877
0
LINE
8
BLACK
6
CONTINUOUS
10
6.96023
20
-3.91877
11
6.95264
21
-3.92409
0
LINE
8
BLACK
6
CONTINUOUS
10
6.95264
20
-3.92409
11
6.94424
21
-3.928
0
LINE
8
BLACK
6
CONTINUOUS
10
6.94424
20
-3.928
11
6.93529
21
-3.9304
0
LINE
8
BLACK
6
CONTINUOUS
10
6.93529
20
-3.9304
11
6.92606
21
-3.93121
0
LINE
8
BLACK
6
CONTINUOUS
10
6.92606
20
-3.93121
11
6.91684
21
-3.9304
0
LINE
8
BLACK
6
CONTINUOUS
10
6.91684
20
-3.9304
11
6.90789
21
-3.928
0
LINE
8
BLACK
6
CONTINUOUS
10
6.90789
20
-3.928
11
6.89949
21
-3.92409
0
LINE
8
BLACK
6
CONTINUOUS
10
6.89949
20
-3.92409
11
6.8919
21
-3.91877
0
LINE
8
BLACK
6
CONTINUOUS
10
6.8919
20
-3.91877
11
6.88535
21
-3.91222
0
LINE
8
BLACK
6
CONTINUOUS
10
6.88535
20
-3.91222
11
6.88004
21
-3.90463
0
LINE
8
BLACK
6
CONTINUOUS
10
6.88004
20
-3.90463
11
6.87612
21
-3.89624
0
LINE
8
BLACK
6
CONTINUOUS
10
6.87612
20
-3.89624
11
6.87372
21
-3.88729
0
LINE
8
BLACK
6
CONTINUOUS
10
6.87372
20
-3.88729
11
6.87292
21
-3.87806
0
LINE
8
BLACK
6
CONTINUOUS
10
6.87292
20
-3.87806
11
6.87372
21
-3.86883
0
LINE
8
BLACK
6
CONTINUOUS
10
6.87372
20
-3.86883
11
6.87612
21
-3.85988
0
LINE
8
BLACK
6
CONTINUOUS
10
6.87612
20
-3.85988
11
6.88004
21
-3.85148
0
LINE
8
BLACK
6
CONTINUOUS
10
6.88004
20
-3.85148
11
6.88535
21
-3.84389
0
LINE
8
BLACK
6
CONTINUOUS
10
6.88535
20
-3.84389
11
6.8919
21
-3.83734
0
LINE
8
BLACK
6
CONTINUOUS
10
6.8919
20
-3.83734
11
6.89949
21
-3.83203
0
LINE
8
BLACK
6
CONTINUOUS
10
6.89949
20
-3.83203
11
6.90789
21
-3.82811
0
LINE
8
BLACK
6
CONTINUOUS
10
6.90789
20
-3.82811
11
6.91684
21
-3.82572
0
LINE
8
BLACK
6
CONTINUOUS
10
6.91684
20
-3.82572
11
6.92606
21
-3.82491
0
LINE
8
BLACK
6
CONTINUOUS
10
6.92606
20
-3.82491
11
6.93529
21
-3.82572
0
LINE
8
BLACK
6
CONTINUOUS
10
7.13529
20
-3.82572
11
7.14424
21
-3.82811
0
LINE
8
BLACK
6
CONTINUOUS
10
7.14424
20
-3.82811
11
7.15264
21
-3.83203
0
LINE
8
BLACK
6
CONTINUOUS
10
7.15264
20
-3.83203
11
7.16023
21
-3.83734
0
LINE
8
BLACK
6
CONTINUOUS
10
7.16023
20
-3.83734
11
7.16678
21
-3.84389
0
LINE
8
BLACK
6
CONTINUOUS
10
7.16678
20
-3.84389
11
7.17209
21
-3.85148
0
LINE
8
BLACK
6
CONTINUOUS
10
7.17209
20
-3.85148
11
7.17601
21
-3.85988
0
LINE
8
BLACK
6
CONTINUOUS
10
7.17601
20
-3.85988
11
7.17841
21
-3.86883
0
LINE
8
BLACK
6
CONTINUOUS
10
7.17841
20
-3.86883
11
7.17921
21
-3.87806
0
LINE
8
BLACK
6
CONTINUOUS
10
7.17921
20
-3.87806
11
7.17841
21
-3.88729
0
LINE
8
BLACK
6
CONTINUOUS
10
7.17841
20
-3.88729
11
7.17601
21
-3.89624
0
LINE
8
BLACK
6
CONTINUOUS
10
7.17601
20
-3.89624
11
7.17209
21
-3.90463
0
LINE
8
BLACK
6
CONTINUOUS
10
7.17209
20
-3.90463
11
7.16678
21
-3.91222
0
LINE
8
BLACK
6
CONTINUOUS
10
7.16678
20
-3.91222
11
7.16023
21
-3.91877
0
LINE
8
BLACK
6
CONTINUOUS
10
7.16023
20
-3.91877
11
7.15264
21
-3.92409
0
LINE
8
BLACK
6
CONTINUOUS
10
7.15264
20
-3.92409
11
7.14424
21
-3.928
0
LINE
8
BLACK
6
CONTINUOUS
10
7.14424
20
-3.928
11
7.13529
21
-3.9304
0
LINE
8
BLACK
6
CONTINUOUS
10
7.13529
20
-3.9304
11
7.12606
21
-3.93121
0
LINE
8
BLACK
6
CONTINUOUS
10
7.12606
20
-3.93121
11
7.11684
21
-3.9304
0
LINE
8
BLACK
6
CONTINUOUS
10
7.11684
20
-3.9304
11
7.10789
21
-3.928
0
LINE
8
BLACK
6
CONTINUOUS
10
7.10789
20
-3.928
11
7.09949
21
-3.92409
0
LINE
8
BLACK
6
CONTINUOUS
10
7.09949
20
-3.92409
11
7.0919
21
-3.91877
0
LINE
8
BLACK
6
CONTINUOUS
10
7.0919
20
-3.91877
11
7.08535
21
-3.91222
0
LINE
8
BLACK
6
CONTINUOUS
10
7.08535
20
-3.91222
11
7.08004
21
-3.90463
0
LINE
8
BLACK
6
CONTINUOUS
10
7.08004
20
-3.90463
11
7.07612
21
-3.89624
0
LINE
8
BLACK
6
CONTINUOUS
10
7.07612
20
-3.89624
11
7.07372
21
-3.88729
0
LINE
8
BLACK
6
CONTINUOUS
10
7.07372
20
-3.88729
11
7.07292
21
-3.87806
0
LINE
8
BLACK
6
CONTINUOUS
10
7.07292
20
-3.87806
11
7.07372
21
-3.86883
0
LINE
8
BLACK
6
CONTINUOUS
10
7.07372
20
-3.86883
11
7.07612
21
-3.85988
0
LINE
8
BLACK
6
CONTINUOUS
10
7.07612
20
-3.85988
11
7.08004
21
-3.85148
0
LINE
8
BLACK
6
CONTINUOUS
10
7.08004
20
-3.85148
11
7.08535
21
-3.84389
0
LINE
8
BLACK
6
CONTINUOUS
10
7.08535
20
-3.84389
11
7.0919
21
-3.83734
0
LINE
8
BLACK
6
CONTINUOUS
10
7.0919
20
-3.83734
11
7.09949
21
-3.83203
0
LINE
8
BLACK
6
CONTINUOUS
10
7.09949
20
-3.83203
11
7.10789
21
-3.82811
0
LINE
8
BLACK
6
CONTINUOUS
10
7.10789
20
-3.82811
11
7.11684
21
-3.82572
0
LINE
8
BLACK
6
CONTINUOUS
10
7.11684
20
-3.82572
11
7.12606
21
-3.82491
0
LINE
8
BLACK
6
CONTINUOUS
10
7.12606
20
-3.82491
11
7.13529
21
-3.82572
0
LINE
8
BLACK
6
CONTINUOUS
10
4.95606
20
-3.90806
11
4.89606
21
-3.90806
0
LINE
8
BLACK
6
CONTINUOUS
10
4.89606
20
-3.90806
11
4.89606
21
-3.84806
0
LINE
8
BLACK
6
CONTINUOUS
10
4.89606
20
-3.84806
11
4.95606
21
-3.84806
0
LINE
8
BLACK
6
CONTINUOUS
10
4.95606
20
-3.84806
11
4.95606
21
-3.90806
0
LINE
8
BLACK
6
CONTINUOUS
10
5.05606
20
-3.90806
11
4.99606
21
-3.90806
0
LINE
8
BLACK
6
CONTINUOUS
10
4.99606
20
-3.90806
11
4.99606
21
-3.84806
0
LINE
8
BLACK
6
CONTINUOUS
10
4.99606
20
-3.84806
11
5.05606
21
-3.84806
0
LINE
8
BLACK
6
CONTINUOUS
10
5.05606
20
-3.84806
11
5.05606
21
-3.90806
0
LINE
8
BLACK
6
CONTINUOUS
10
7.03461
20
-3.72959
11
7.0429
21
-3.73181
0
LINE
8
BLACK
6
CONTINUOUS
10
7.0429
20
-3.73181
11
7.05067
21
-3.73544
0
LINE
8
BLACK
6
CONTINUOUS
10
7.05067
20
-3.73544
11
7.0577
21
-3.74036
0
LINE
8
BLACK
6
CONTINUOUS
10
7.0577
20
-3.74036
11
7.06376
21
-3.74643
0
LINE
8
BLACK
6
CONTINUOUS
10
7.06376
20
-3.74643
11
7.06868
21
-3.75345
0
LINE
8
BLACK
6
CONTINUOUS
10
7.06868
20
-3.75345
11
7.07231
21
-3.76123
0
LINE
8
BLACK
6
CONTINUOUS
10
7.07231
20
-3.76123
11
7.07453
21
-3.76951
0
LINE
8
BLACK
6
CONTINUOUS
10
7.07453
20
-3.76951
11
7.07528
21
-3.77806
0
LINE
8
BLACK
6
CONTINUOUS
10
7.07528
20
-3.77806
11
7.07453
21
-3.7866
0
LINE
8
BLACK
6
CONTINUOUS
10
7.07453
20
-3.7866
11
7.07231
21
-3.79489
0
LINE
8
BLACK
6
CONTINUOUS
10
7.07231
20
-3.79489
11
7.06868
21
-3.80266
0
LINE
8
BLACK
6
CONTINUOUS
10
7.06868
20
-3.80266
11
7.06376
21
-3.80969
0
LINE
8
BLACK
6
CONTINUOUS
10
7.06376
20
-3.80969
11
7.0577
21
-3.81576
0
LINE
8
BLACK
6
CONTINUOUS
10
7.0577
20
-3.81576
11
7.05067
21
-3.82068
0
LINE
8
BLACK
6
CONTINUOUS
10
7.05067
20
-3.82068
11
7.0429
21
-3.8243
0
LINE
8
BLACK
6
CONTINUOUS
10
7.0429
20
-3.8243
11
7.03461
21
-3.82652
0
LINE
8
BLACK
6
CONTINUOUS
10
7.03461
20
-3.82652
11
7.02606
21
-3.82727
0
LINE
8
BLACK
6
CONTINUOUS
10
7.02606
20
-3.82727
11
7.01752
21
-3.82652
0
LINE
8
BLACK
6
CONTINUOUS
10
7.01752
20
-3.82652
11
7.00923
21
-3.8243
0
LINE
8
BLACK
6
CONTINUOUS
10
7.00923
20
-3.8243
11
7.00146
21
-3.82068
0
LINE
8
BLACK
6
CONTINUOUS
10
7.00146
20
-3.82068
11
6.99443
21
-3.81576
0
LINE
8
BLACK
6
CONTINUOUS
10
6.99443
20
-3.81576
11
6.98837
21
-3.80969
0
LINE
8
BLACK
6
CONTINUOUS
10
6.98837
20
-3.80969
11
6.98345
21
-3.80266
0
LINE
8
BLACK
6
CONTINUOUS
10
6.98345
20
-3.80266
11
6.97982
21
-3.79489
0
LINE
8
BLACK
6
CONTINUOUS
10
6.97982
20
-3.79489
11
6.9776
21
-3.7866
0
LINE
8
BLACK
6
CONTINUOUS
10
6.9776
20
-3.7866
11
6.97685
21
-3.77806
0
LINE
8
BLACK
6
CONTINUOUS
10
6.97685
20
-3.77806
11
6.9776
21
-3.76951
0
LINE
8
BLACK
6
CONTINUOUS
10
6.9776
20
-3.76951
11
6.97982
21
-3.76123
0
LINE
8
BLACK
6
CONTINUOUS
10
6.97982
20
-3.76123
11
6.98345
21
-3.75345
0
LINE
8
BLACK
6
CONTINUOUS
10
6.98345
20
-3.75345
11
6.98837
21
-3.74643
0
LINE
8
BLACK
6
CONTINUOUS
10
6.98837
20
-3.74643
11
6.99443
21
-3.74036
0
LINE
8
BLACK
6
CONTINUOUS
10
6.99443
20
-3.74036
11
7.00146
21
-3.73544
0
LINE
8
BLACK
6
CONTINUOUS
10
7.00146
20
-3.73544
11
7.00923
21
-3.73181
0
LINE
8
BLACK
6
CONTINUOUS
10
7.00923
20
-3.73181
11
7.01752
21
-3.72959
0
LINE
8
BLACK
6
CONTINUOUS
10
7.01752
20
-3.72959
11
7.02606
21
-3.72885
0
LINE
8
BLACK
6
CONTINUOUS
10
7.02606
20
-3.72885
11
7.03461
21
-3.72959
0
LINE
8
BLACK
6
CONTINUOUS
10
4.95606
20
-3.80806
11
4.89606
21
-3.80806
0
LINE
8
BLACK
6
CONTINUOUS
10
4.89606
20
-3.80806
11
4.89606
21
-3.74806
0
LINE
8
BLACK
6
CONTINUOUS
10
4.89606
20
-3.74806
11
4.95606
21
-3.74806
0
LINE
8
BLACK
6
CONTINUOUS
10
4.95606
20
-3.74806
11
4.95606
21
-3.80806
0
LINE
8
BLACK
6
CONTINUOUS
10
5.05606
20
-3.80806
11
4.99606
21
-3.80806
0
LINE
8
BLACK
6
CONTINUOUS
10
4.99606
20
-3.80806
11
4.99606
21
-3.74806
0
LINE
8
BLACK
6
CONTINUOUS
10
4.99606
20
-3.74806
11
5.05606
21
-3.74806
0
LINE
8
BLACK
6
CONTINUOUS
10
5.05606
20
-3.74806
11
5.05606
21
-3.80806
0
LINE
8
BLACK
6
CONTINUOUS
10
6.93529
20
-3.62572
11
6.94424
21
-3.62811
0
LINE
8
BLACK
6
CONTINUOUS
10
6.94424
20
-3.62811
11
6.95264
21
-3.63203
0
LINE
8
BLACK
6
CONTINUOUS
10
6.95264
20
-3.63203
11
6.96023
21
-3.63734
0
LINE
8
BLACK
6
CONTINUOUS
10
6.96023
20
-3.63734
11
6.96678
21
-3.64389
0
LINE
8
BLACK
6
CONTINUOUS
10
6.96678
20
-3.64389
11
6.97209
21
-3.65148
0
LINE
8
BLACK
6
CONTINUOUS
10
6.97209
20
-3.65148
11
6.97601
21
-3.65988
0
LINE
8
BLACK
6
CONTINUOUS
10
6.97601
20
-3.65988
11
6.97841
21
-3.66883
0
LINE
8
BLACK
6
CONTINUOUS
10
6.97841
20
-3.66883
11
6.97921
21
-3.67806
0
LINE
8
BLACK
6
CONTINUOUS
10
6.97921
20
-3.67806
11
6.97841
21
-3.68729
0
LINE
8
BLACK
6
CONTINUOUS
10
6.97841
20
-3.68729
11
6.97601
21
-3.69624
0
LINE
8
BLACK
6
CONTINUOUS
10
6.97601
20
-3.69624
11
6.97209
21
-3.70463
0
LINE
8
BLACK
6
CONTINUOUS
10
6.97209
20
-3.70463
11
6.96678
21
-3.71222
0
LINE
8
BLACK
6
CONTINUOUS
10
6.96678
20
-3.71222
11
6.96023
21
-3.71877
0
LINE
8
BLACK
6
CONTINUOUS
10
6.96023
20
-3.71877
11
6.95264
21
-3.72409
0
LINE
8
BLACK
6
CONTINUOUS
10
6.95264
20
-3.72409
11
6.94424
21
-3.728
0
LINE
8
BLACK
6
CONTINUOUS
10
6.94424
20
-3.728
11
6.93529
21
-3.7304
0
LINE
8
BLACK
6
CONTINUOUS
10
6.93529
20
-3.7304
11
6.92606
21
-3.73121
0
LINE
8
BLACK
6
CONTINUOUS
10
6.92606
20
-3.73121
11
6.91684
21
-3.7304
0
LINE
8
BLACK
6
CONTINUOUS
10
6.91684
20
-3.7304
11
6.90789
21
-3.728
0
LINE
8
BLACK
6
CONTINUOUS
10
6.90789
20
-3.728
11
6.89949
21
-3.72409
0
LINE
8
BLACK
6
CONTINUOUS
10
6.89949
20
-3.72409
11
6.8919
21
-3.71877
0
LINE
8
BLACK
6
CONTINUOUS
10
6.8919
20
-3.71877
11
6.88535
21
-3.71222
0
LINE
8
BLACK
6
CONTINUOUS
10
6.88535
20
-3.71222
11
6.88004
21
-3.70463
0
LINE
8
BLACK
6
CONTINUOUS
10
6.88004
20
-3.70463
11
6.87612
21
-3.69624
0
LINE
8
BLACK
6
CONTINUOUS
10
6.87612
20
-3.69624
11
6.87372
21
-3.68729
0
LINE
8
BLACK
6
CONTINUOUS
10
6.87372
20
-3.68729
11
6.87292
21
-3.67806
0
LINE
8
BLACK
6
CONTINUOUS
10
6.87292
20
-3.67806
11
6.87372
21
-3.66883
0
LINE
8
BLACK
6
CONTINUOUS
10
6.87372
20
-3.66883
11
6.87612
21
-3.65988
0
LINE
8
BLACK
6
CONTINUOUS
10
6.87612
20
-3.65988
11
6.88004
21
-3.65148
0
LINE
8
BLACK
6
CONTINUOUS
10
6.88004
20
-3.65148
11
6.88535
21
-3.64389
0
LINE
8
BLACK
6
CONTINUOUS
10
6.88535
20
-3.64389
11
6.8919
21
-3.63734
0
LINE
8
BLACK
6
CONTINUOUS
10
6.8919
20
-3.63734
11
6.89949
21
-3.63203
0
LINE
8
BLACK
6
CONTINUOUS
10
6.89949
20
-3.63203
11
6.90789
21
-3.62811
0
LINE
8
BLACK
6
CONTINUOUS
10
6.90789
20
-3.62811
11
6.91684
21
-3.62572
0
LINE
8
BLACK
6
CONTINUOUS
10
6.91684
20
-3.62572
11
6.92606
21
-3.62491
0
LINE
8
BLACK
6
CONTINUOUS
10
6.92606
20
-3.62491
11
6.93529
21
-3.62572
0
LINE
8
BLACK
6
CONTINUOUS
10
7.13529
20
-3.62572
11
7.14424
21
-3.62811
0
LINE
8
BLACK
6
CONTINUOUS
10
7.14424
20
-3.62811
11
7.15264
21
-3.63203
0
LINE
8
BLACK
6
CONTINUOUS
10
7.15264
20
-3.63203
11
7.16023
21
-3.63734
0
LINE
8
BLACK
6
CONTINUOUS
10
7.16023
20
-3.63734
11
7.16678
21
-3.64389
0
LINE
8
BLACK
6
CONTINUOUS
10
7.16678
20
-3.64389
11
7.17209
21
-3.65148
0
LINE
8
BLACK
6
CONTINUOUS
10
7.17209
20
-3.65148
11
7.17601
21
-3.65988
0
LINE
8
BLACK
6
CONTINUOUS
10
7.17601
20
-3.65988
11
7.17841
21
-3.66883
0
LINE
8
BLACK
6
CONTINUOUS
10
7.17841
20
-3.66883
11
7.17921
21
-3.67806
0
LINE
8
BLACK
6
CONTINUOUS
10
7.17921
20
-3.67806
11
7.17841
21
-3.68729
0
LINE
8
BLACK
6
CONTINUOUS
10
7.17841
20
-3.68729
11
7.17601
21
-3.69624
0
LINE
8
BLACK
6
CONTINUOUS
10
7.17601
20
-3.69624
11
7.17209
21
-3.70463
0
LINE
8
BLACK
6
CONTINUOUS
10
7.17209
20
-3.70463
11
7.16678
21
-3.71222
0
LINE
8
BLACK
6
CONTINUOUS
10
7.16678
20
-3.71222
11
7.16023
21
-3.71877
0
LINE
8
BLACK
6
CONTINUOUS
10
7.16023
20
-3.71877
11
7.15264
21
-3.72409
0
LINE
8
BLACK
6
CONTINUOUS
10
7.15264
20
-3.72409
11
7.14424
21
-3.728
0
LINE
8
BLACK
6
CONTINUOUS
10
7.14424
20
-3.728
11
7.13529
21
-3.7304
0
LINE
8
BLACK
6
CONTINUOUS
10
7.13529
20
-3.7304
11
7.12606
21
-3.73121
0
LINE
8
BLACK
6
CONTINUOUS
10
7.12606
20
-3.73121
11
7.11684
21
-3.7304
0
LINE
8
BLACK
6
CONTINUOUS
10
7.11684
20
-3.7304
11
7.10789
21
-3.728
0
LINE
8
BLACK
6
CONTINUOUS
10
7.10789
20
-3.728
11
7.09949
21
-3.72409
0
LINE
8
BLACK
6
CONTINUOUS
10
7.09949
20
-3.72409
11
7.0919
21
-3.71877
0
LINE
8
BLACK
6
CONTINUOUS
10
7.0919
20
-3.71877
11
7.08535
21
-3.71222
0
LINE
8
BLACK
6
CONTINUOUS
10
7.08535
20
-3.71222
11
7.08004
21
-3.70463
0
LINE
8
BLACK
6
CONTINUOUS
10
7.08004
20
-3.70463
11
7.07612
21
-3.69624
0
LINE
8
BLACK
6
CONTINUOUS
10
7.07612
20
-3.69624
11
7.07372
21
-3.68729
0
LINE
8
BLACK
6
CONTINUOUS
10
7.07372
20
-3.68729
11
7.07292
21
-3.67806
0
LINE
8
BLACK
6
CONTINUOUS
10
7.07292
20
-3.67806
11
7.07372
21
-3.66883
0
LINE
8
BLACK
6
CONTINUOUS
10
7.07372
20
-3.66883
11
7.07612
21
-3.65988
0
LINE
8
BLACK
6
CONTINUOUS
10
7.07612
20
-3.65988
11
7.08004
21
-3.65148
0
LINE
8
BLACK
6
CONTINUOUS
10
7.08004
20
-3.65148
11
7.08535
21
-3.64389
0
LINE
8
BLACK
6
CONTINUOUS
10
7.08535
20
-3.64389
11
7.0919
21
-3.63734
0
LINE
8
BLACK
6
CONTINUOUS
10
7.0919
20
-3.63734
11
7.09949
21
-3.63203
0
LINE
8
BLACK
6
CONTINUOUS
10
7.09949
20
-3.63203
11
7.10789
21
-3.62811
0
LINE
8
BLACK
6
CONTINUOUS
10
7.10789
20
-3.62811
11
7.11684
21
-3.62572
0
LINE
8
BLACK
6
CONTINUOUS
10
7.11684
20
-3.62572
11
7.12606
21
-3.62491
0
LINE
8
BLACK
6
CONTINUOUS
10
7.12606
20
-3.62491
11
7.13529
21
-3.62572
0
LINE
8
BLACK
6
CONTINUOUS
10
4.95606
20
-3.70806
11
4.89606
21
-3.70806
0
LINE
8
BLACK
6
CONTINUOUS
10
4.89606
20
-3.70806
11
4.89606
21
-3.64806
0
LINE
8
BLACK
6
CONTINUOUS
10
4.89606
20
-3.64806
11
4.95606
21
-3.64806
0
LINE
8
BLACK
6
CONTINUOUS
10
4.95606
20
-3.64806
11
4.95606
21
-3.70806
0
LINE
8
BLACK
6
CONTINUOUS
10
5.05606
20
-3.70806
11
4.99606
21
-3.70806
0
LINE
8
BLACK
6
CONTINUOUS
10
4.99606
20
-3.70806
11
4.99606
21
-3.64806
0
LINE
8
BLACK
6
CONTINUOUS
10
4.99606
20
-3.64806
11
5.05606
21
-3.64806
0
LINE
8
BLACK
6
CONTINUOUS
10
5.05606
20
-3.64806
11
5.05606
21
-3.70806
0
LINE
8
BLACK
6
CONTINUOUS
10
5.04657
20
-3.31174
11
5.05994
21
-3.31491
0
LINE
8
BLACK
6
CONTINUOUS
10
5.05994
20
-3.31491
11
5.07285
21
-3.31961
0
LINE
8
BLACK
6
CONTINUOUS
10
5.07285
20
-3.31961
11
5.08512
21
-3.32577
0
LINE
8
BLACK
6
CONTINUOUS
10
5.08512
20
-3.32577
11
5.0966
21
-3.33332
0
LINE
8
BLACK
6
CONTINUOUS
10
5.0966
20
-3.33332
11
5.10712
21
-3.34215
0
LINE
8
BLACK
6
CONTINUOUS
10
5.10712
20
-3.34215
11
5.11654
21
-3.35214
0
LINE
8
BLACK
6
CONTINUOUS
10
5.11654
20
-3.35214
11
5.12474
21
-3.36316
0
LINE
8
BLACK
6
CONTINUOUS
10
5.12474
20
-3.36316
11
5.13161
21
-3.37505
0
LINE
8
BLACK
6
CONTINUOUS
10
5.13161
20
-3.37505
11
5.13705
21
-3.38766
0
LINE
8
BLACK
6
CONTINUOUS
10
5.13705
20
-3.38766
11
5.14099
21
-3.40082
0
LINE
8
BLACK
6
CONTINUOUS
10
5.14099
20
-3.40082
11
5.14338
21
-3.41435
0
LINE
8
BLACK
6
CONTINUOUS
10
5.14338
20
-3.41435
11
5.14418
21
-3.42806
0
LINE
8
BLACK
6
CONTINUOUS
10
5.14418
20
-3.42806
11
5.14338
21
-3.44177
0
LINE
8
BLACK
6
CONTINUOUS
10
5.14338
20
-3.44177
11
5.14099
21
-3.4553
0
LINE
8
BLACK
6
CONTINUOUS
10
5.14099
20
-3.4553
11
5.13705
21
-3.46845
0
LINE
8
BLACK
6
CONTINUOUS
10
5.13705
20
-3.46845
11
5.13161
21
-3.48107
0
LINE
8
BLACK
6
CONTINUOUS
10
5.13161
20
-3.48107
11
5.12474
21
-3.49296
0
LINE
8
BLACK
6
CONTINUOUS
10
5.12474
20
-3.49296
11
5.11654
21
-3.50398
0
LINE
8
BLACK
6
CONTINUOUS
10
5.11654
20
-3.50398
11
5.10712
21
-3.51397
0
LINE
8
BLACK
6
CONTINUOUS
10
5.10712
20
-3.51397
11
5.0966
21
-3.5228
0
LINE
8
BLACK
6
CONTINUOUS
10
5.0966
20
-3.5228
11
5.08512
21
-3.53035
0
LINE
8
BLACK
6
CONTINUOUS
10
5.08512
20
-3.53035
11
5.07285
21
-3.53651
0
LINE
8
BLACK
6
CONTINUOUS
10
5.07285
20
-3.53651
11
5.05994
21
-3.54121
0
LINE
8
BLACK
6
CONTINUOUS
10
5.05994
20
-3.54121
11
5.04657
21
-3.54437
0
LINE
8
BLACK
6
CONTINUOUS
10
5.04657
20
-3.54437
11
5.03293
21
-3.54597
0
LINE
8
BLACK
6
CONTINUOUS
10
5.03293
20
-3.54597
11
5.0192
21
-3.54597
0
LINE
8
BLACK
6
CONTINUOUS
10
5.0192
20
-3.54597
11
5.00556
21
-3.54437
0
LINE
8
BLACK
6
CONTINUOUS
10
5.00556
20
-3.54437
11
4.99219
21
-3.54121
0
LINE
8
BLACK
6
CONTINUOUS
10
4.99219
20
-3.54121
11
4.97928
21
-3.53651
0
LINE
8
BLACK
6
CONTINUOUS
10
4.97928
20
-3.53651
11
4.96701
21
-3.53035
0
LINE
8
BLACK
6
CONTINUOUS
10
4.96701
20
-3.53035
11
4.95553
21
-3.5228
0
LINE
8
BLACK
6
CONTINUOUS
10
4.95553
20
-3.5228
11
4.94501
21
-3.51397
0
LINE
8
BLACK
6
CONTINUOUS
10
4.94501
20
-3.51397
11
4.93559
21
-3.50398
0
LINE
8
BLACK
6
CONTINUOUS
10
4.93559
20
-3.50398
11
4.92739
21
-3.49296
0
LINE
8
BLACK
6
CONTINUOUS
10
4.92739
20
-3.49296
11
4.92052
21
-3.48107
0
LINE
8
BLACK
6
CONTINUOUS
10
4.92052
20
-3.48107
11
4.91508
21
-3.46845
0
LINE
8
BLACK
6
CONTINUOUS
10
4.91508
20
-3.46845
11
4.91114
21
-3.4553
0
LINE
8
BLACK
6
CONTINUOUS
10
4.91114
20
-3.4553
11
4.90875
21
-3.44177
0
LINE
8
BLACK
6
CONTINUOUS
10
4.90875
20
-3.44177
11
4.90795
21
-3.42806
0
LINE
8
BLACK
6
CONTINUOUS
10
4.90795
20
-3.42806
11
4.90875
21
-3.41435
0
LINE
8
BLACK
6
CONTINUOUS
10
4.90875
20
-3.41435
11
4.91114
21
-3.40082
0
LINE
8
BLACK
6
CONTINUOUS
10
4.91114
20
-3.40082
11
4.91508
21
-3.38766
0
LINE
8
BLACK
6
CONTINUOUS
10
4.91508
20
-3.38766
11
4.92052
21
-3.37505
0
LINE
8
BLACK
6
CONTINUOUS
10
4.92052
20
-3.37505
11
4.92739
21
-3.36316
0
LINE
8
BLACK
6
CONTINUOUS
10
4.92739
20
-3.36316
11
4.93559
21
-3.35214
0
LINE
8
BLACK
6
CONTINUOUS
10
4.93559
20
-3.35214
11
4.94501
21
-3.34215
0
LINE
8
BLACK
6
CONTINUOUS
10
4.94501
20
-3.34215
11
4.95553
21
-3.33332
0
LINE
8
BLACK
6
CONTINUOUS
10
4.95553
20
-3.33332
11
4.96701
21
-3.32577
0
LINE
8
BLACK
6
CONTINUOUS
10
4.96701
20
-3.32577
11
4.97928
21
-3.31961
0
LINE
8
BLACK
6
CONTINUOUS
10
4.97928
20
-3.31961
11
4.99219
21
-3.31491
0
LINE
8
BLACK
6
CONTINUOUS
10
4.99219
20
-3.31491
11
5.00556
21
-3.31174
0
LINE
8
BLACK
6
CONTINUOUS
10
5.00556
20
-3.31174
11
5.0192
21
-3.31015
0
LINE
8
BLACK
6
CONTINUOUS
10
5.0192
20
-3.31015
11
5.03293
21
-3.31015
0
LINE
8
BLACK
6
CONTINUOUS
10
5.03293
20
-3.31015
11
5.04657
21
-3.31174
0
LINE
8
BLACK
6
CONTINUOUS
10
7.04657
20
-3.31174
11
7.05994
21
-3.31491
0
LINE
8
BLACK
6
CONTINUOUS
10
7.05994
20
-3.31491
11
7.07285
21
-3.31961
0
LINE
8
BLACK
6
CONTINUOUS
10
7.07285
20
-3.31961
11
7.08512
21
-3.32577
0
LINE
8
BLACK
6
CONTINUOUS
10
7.08512
20
-3.32577
11
7.0966
21
-3.33332
0
LINE
8
BLACK
6
CONTINUOUS
10
7.0966
20
-3.33332
11
7.10712
21
-3.34215
0
LINE
8
BLACK
6
CONTINUOUS
10
7.10712
20
-3.34215
11
7.11654
21
-3.35214
0
LINE
8
BLACK
6
CONTINUOUS
10
7.11654
20
-3.35214
11
7.12474
21
-3.36316
0
LINE
8
BLACK
6
CONTINUOUS
10
7.12474
20
-3.36316
11
7.13161
21
-3.37505
0
LINE
8
BLACK
6
CONTINUOUS
10
7.13161
20
-3.37505
11
7.13705
21
-3.38766
0
LINE
8
BLACK
6
CONTINUOUS
10
7.13705
20
-3.38766
11
7.14099
21
-3.40082
0
LINE
8
BLACK
6
CONTINUOUS
10
7.14099
20
-3.40082
11
7.14338
21
-3.41435
0
LINE
8
BLACK
6
CONTINUOUS
10
7.14338
20
-3.41435
11
7.14418
21
-3.42806
0
LINE
8
BLACK
6
CONTINUOUS
10
7.14418
20
-3.42806
11
7.14338
21
-3.44177
0
LINE
8
BLACK
6
CONTINUOUS
10
7.14338
20
-3.44177
11
7.14099
21
-3.4553
0
LINE
8
BLACK
6
CONTINUOUS
10
7.14099
20
-3.4553
11
7.13705
21
-3.46845
0
LINE
8
BLACK
6
CONTINUOUS
10
7.13705
20
-3.46845
11
7.13161
21
-3.48107
0
LINE
8
BLACK
6
CONTINUOUS
10
7.13161
20
-3.48107
11
7.12474
21
-3.49296
0
LINE
8
BLACK
6
CONTINUOUS
10
7.12474
20
-3.49296
11
7.11654
21
-3.50398
0
LINE
8
BLACK
6
CONTINUOUS
10
7.11654
20
-3.50398
11
7.10712
21
-3.51397
0
LINE
8
BLACK
6
CONTINUOUS
10
7.10712
20
-3.51397
11
7.0966
21
-3.5228
0
LINE
8
BLACK
6
CONTINUOUS
10
7.0966
20
-3.5228
11
7.08512
21
-3.53035
0
LINE
8
BLACK
6
CONTINUOUS
10
7.08512
20
-3.53035
11
7.07285
21
-3.53651
0
LINE
8
BLACK
6
CONTINUOUS
10
7.07285
20
-3.53651
11
7.05994
21
-3.54121
0
LINE
8
BLACK
6
CONTINUOUS
10
7.05994
20
-3.54121
11
7.04657
21
-3.54437
0
LINE
8
BLACK
6
CONTINUOUS
10
7.04657
20
-3.54437
11
7.03293
21
-3.54597
0
LINE
8
BLACK
6
CONTINUOUS
10
7.03293
20
-3.54597
11
7.0192
21
-3.54597
0
LINE
8
BLACK
6
CONTINUOUS
10
7.0192
20
-3.54597
11
7.00556
21
-3.54437
0
LINE
8
BLACK
6
CONTINUOUS
10
7.00556
20
-3.54437
11
6.99219
21
-3.54121
0
LINE
8
BLACK
6
CONTINUOUS
10
6.99219
20
-3.54121
11
6.97928
21
-3.53651
0
LINE
8
BLACK
6
CONTINUOUS
10
6.97928
20
-3.53651
11
6.96701
21
-3.53035
0
LINE
8
BLACK
6
CONTINUOUS
10
6.96701
20
-3.53035
11
6.95553
21
-3.5228
0
LINE
8
BLACK
6
CONTINUOUS
10
6.95553
20
-3.5228
11
6.94501
21
-3.51397
0
LINE
8
BLACK
6
CONTINUOUS
10
6.94501
20
-3.51397
11
6.93559
21
-3.50398
0
LINE
8
BLACK
6
CONTINUOUS
10
6.93559
20
-3.50398
11
6.92739
21
-3.49296
0
LINE
8
BLACK
6
CONTINUOUS
10
6.92739
20
-3.49296
11
6.92052
21
-3.48107
0
LINE
8
BLACK
6
CONTINUOUS
10
6.92052
20
-3.48107
11
6.91508
21
-3.46845
0
LINE
8
BLACK
6
CONTINUOUS
10
6.91508
20
-3.46845
11
6.91114
21
-3.4553
0
LINE
8
BLACK
6
CONTINUOUS
10
6.91114
20
-3.4553
11
6.90875
21
-3.44177
0
LINE
8
BLACK
6
CONTINUOUS
10
6.90875
20
-3.44177
11
6.90795
21
-3.42806
0
LINE
8
BLACK
6
CONTINUOUS
10
6.90795
20
-3.42806
11
6.90875
21
-3.41435
0
LINE
8
BLACK
6
CONTINUOUS
10
6.90875
20
-3.41435
11
6.91114
21
-3.40082
0
LINE
8
BLACK
6
CONTINUOUS
10
6.91114
20
-3.40082
11
6.91508
21
-3.38766
0
LINE
8
BLACK
6
CONTINUOUS
10
6.91508
20
-3.38766
11
6.92052
21
-3.37505
0
LINE
8
BLACK
6
CONTINUOUS
10
6.92052
20
-3.37505
11
6.92739
21
-3.36316
0
LINE
8
BLACK
6
CONTINUOUS
10
6.92739
20
-3.36316
11
6.93559
21
-3.35214
0
LINE
8
BLACK
6
CONTINUOUS
10
6.93559
20
-3.35214
11
6.94501
21
-3.34215
0
LINE
8
BLACK
6
CONTINUOUS
10
6.94501
20
-3.34215
11
6.95553
21
-3.33332
0
LINE
8
BLACK
6
CONTINUOUS
10
6.95553
20
-3.33332
11
6.96701
21
-3.32577
0
LINE
8
BLACK
6
CONTINUOUS
10
6.96701
20
-3.32577
11
6.97928
21
-3.31961
0
LINE
8
BLACK
6
CONTINUOUS
10
6.97928
20
-3.31961
11
6.99219
21
-3.31491
0
LINE
8
BLACK
6
CONTINUOUS
10
6.99219
20
-3.31491
11
7.00556
21
-3.31174
0
LINE
8
BLACK
6
CONTINUOUS
10
7.00556
20
-3.31174
11
7.0192
21
-3.31015
0
LINE
8
BLACK
6
CONTINUOUS
10
7.0192
20
-3.31015
11
7.03293
21
-3.31015
0
LINE
8
BLACK
6
CONTINUOUS
10
7.03293
20
-3.31015
11
7.04657
21
-3.31174
0
LINE
8
BLACK
6
CONTINUOUS
10
5.30606
20
-3.45806
11
5.24606
21
-3.45806
0
LINE
8
BLACK
6
CONTINUOUS
10
5.24606
20
-3.45806
11
5.24606
21
-3.39806
0
LINE
8
BLACK
6
CONTINUOUS
10
5.24606
20
-3.39806
11
5.30606
21
-3.39806
0
LINE
8
BLACK
6
CONTINUOUS
10
5.30606
20
-3.39806
11
5.30606
21
-3.45806
0
LINE
8
BLACK
6
CONTINUOUS
10
5.40606
20
-3.45806
11
5.34606
21
-3.45806
0
LINE
8
BLACK
6
CONTINUOUS
10
5.34606
20
-3.45806
11
5.34606
21
-3.39806
0
LINE
8
BLACK
6
CONTINUOUS
10
5.34606
20
-3.39806
11
5.40606
21
-3.39806
0
LINE
8
BLACK
6
CONTINUOUS
10
5.40606
20
-3.39806
11
5.40606
21
-3.45806
0
LINE
8
BLACK
6
CONTINUOUS
10
5.50606
20
-3.45806
11
5.44606
21
-3.45806
0
LINE
8
BLACK
6
CONTINUOUS
10
5.44606
20
-3.45806
11
5.44606
21
-3.39806
0
LINE
8
BLACK
6
CONTINUOUS
10
5.44606
20
-3.39806
11
5.50606
21
-3.39806
0
LINE
8
BLACK
6
CONTINUOUS
10
5.50606
20
-3.39806
11
5.50606
21
-3.45806
0
LINE
8
BLACK
6
CONTINUOUS
10
5.60606
20
-3.45806
11
5.54606
21
-3.45806
0
LINE
8
BLACK
6
CONTINUOUS
10
5.54606
20
-3.45806
11
5.54606
21
-3.39806
0
LINE
8
BLACK
6
CONTINUOUS
10
5.54606
20
-3.39806
11
5.60606
21
-3.39806
0
LINE
8
BLACK
6
CONTINUOUS
10
5.60606
20
-3.39806
11
5.60606
21
-3.45806
0
LINE
8
BLACK
6
CONTINUOUS
10
5.70606
20
-3.45806
11
5.64606
21
-3.45806
0
LINE
8
BLACK
6
CONTINUOUS
10
5.64606
20
-3.45806
11
5.64606
21
-3.39806
0
LINE
8
BLACK
6
CONTINUOUS
10
5.64606
20
-3.39806
11
5.70606
21
-3.39806
0
LINE
8
BLACK
6
CONTINUOUS
10
5.70606
20
-3.39806
11
5.70606
21
-3.45806
0
LINE
8
BLACK
6
CONTINUOUS
10
5.80606
20
-3.45806
11
5.74606
21
-3.45806
0
LINE
8
BLACK
6
CONTINUOUS
10
5.74606
20
-3.45806
11
5.74606
21
-3.39806
0
LINE
8
BLACK
6
CONTINUOUS
10
5.74606
20
-3.39806
11
5.80606
21
-3.39806
0
LINE
8
BLACK
6
CONTINUOUS
10
5.80606
20
-3.39806
11
5.80606
21
-3.45806
0
LINE
8
BLACK
6
CONTINUOUS
10
5.90606
20
-3.45806
11
5.84606
21
-3.45806
0
LINE
8
BLACK
6
CONTINUOUS
10
5.84606
20
-3.45806
11
5.84606
21
-3.39806
0
LINE
8
BLACK
6
CONTINUOUS
10
5.84606
20
-3.39806
11
5.90606
21
-3.39806
0
LINE
8
BLACK
6
CONTINUOUS
10
5.90606
20
-3.39806
11
5.90606
21
-3.45806
0
LINE
8
BLACK
6
CONTINUOUS
10
6.00606
20
-3.45806
11
5.94606
21
-3.45806
0
LINE
8
BLACK
6
CONTINUOUS
10
5.94606
20
-3.45806
11
5.94606
21
-3.39806
0
LINE
8
BLACK
6
CONTINUOUS
10
5.94606
20
-3.39806
11
6.00606
21
-3.39806
0
LINE
8
BLACK
6
CONTINUOUS
10
6.00606
20
-3.39806
11
6.00606
21
-3.45806
0
LINE
8
BLACK
6
CONTINUOUS
10
6.10606
20
-3.45806
11
6.04606
21
-3.45806
0
LINE
8
BLACK
6
CONTINUOUS
10
6.04606
20
-3.45806
11
6.04606
21
-3.39806
0
LINE
8
BLACK
6
CONTINUOUS
10
6.04606
20
-3.39806
11
6.10606
21
-3.39806
0
LINE
8
BLACK
6
CONTINUOUS
10
6.10606
20
-3.39806
11
6.10606
21
-3.45806
0
LINE
8
BLACK
6
CONTINUOUS
10
5.30606
20
-3.35806
11
5.24606
21
-3.35806
0
LINE
8
BLACK
6
CONTINUOUS
10
5.24606
20
-3.35806
11
5.24606
21
-3.29806
0
LINE
8
BLACK
6
CONTINUOUS
10
5.24606
20
-3.29806
11
5.30606
21
-3.29806
0
LINE
8
BLACK
6
CONTINUOUS
10
5.30606
20
-3.29806
11
5.30606
21
-3.35806
0
LINE
8
BLACK
6
CONTINUOUS
10
5.40606
20
-3.35806
11
5.34606
21
-3.35806
0
LINE
8
BLACK
6
CONTINUOUS
10
5.34606
20
-3.35806
11
5.34606
21
-3.29806
0
LINE
8
BLACK
6
CONTINUOUS
10
5.34606
20
-3.29806
11
5.40606
21
-3.29806
0
LINE
8
BLACK
6
CONTINUOUS
10
5.40606
20
-3.29806
11
5.40606
21
-3.35806
0
LINE
8
BLACK
6
CONTINUOUS
10
5.50606
20
-3.35806
11
5.44606
21
-3.35806
0
LINE
8
BLACK
6
CONTINUOUS
10
5.44606
20
-3.35806
11
5.44606
21
-3.29806
0
LINE
8
BLACK
6
CONTINUOUS
10
5.44606
20
-3.29806
11
5.50606
21
-3.29806
0
LINE
8
BLACK
6
CONTINUOUS
10
5.50606
20
-3.29806
11
5.50606
21
-3.35806
0
LINE
8
BLACK
6
CONTINUOUS
10
5.60606
20
-3.35806
11
5.54606
21
-3.35806
0
LINE
8
BLACK
6
CONTINUOUS
10
5.54606
20
-3.35806
11
5.54606
21
-3.29806
0
LINE
8
BLACK
6
CONTINUOUS
10
5.54606
20
-3.29806
11
5.60606
21
-3.29806
0
LINE
8
BLACK
6
CONTINUOUS
10
5.60606
20
-3.29806
11
5.60606
21
-3.35806
0
LINE
8
BLACK
6
CONTINUOUS
10
5.70606
20
-3.35806
11
5.64606
21
-3.35806
0
LINE
8
BLACK
6
CONTINUOUS
10
5.64606
20
-3.35806
11
5.64606
21
-3.29806
0
LINE
8
BLACK
6
CONTINUOUS
10
5.64606
20
-3.29806
11
5.70606
21
-3.29806
0
LINE
8
BLACK
6
CONTINUOUS
10
5.70606
20
-3.29806
11
5.70606
21
-3.35806
0
LINE
8
BLACK
6
CONTINUOUS
10
5.80606
20
-3.35806
11
5.74606
21
-3.35806
0
LINE
8
BLACK
6
CONTINUOUS
10
5.74606
20
-3.35806
11
5.74606
21
-3.29806
0
LINE
8
BLACK
6
CONTINUOUS
10
5.74606
20
-3.29806
11
5.80606
21
-3.29806
0
LINE
8
BLACK
6
CONTINUOUS
10
5.80606
20
-3.29806
11
5.80606
21
-3.35806
0
LINE
8
BLACK
6
CONTINUOUS
10
5.90606
20
-3.35806
11
5.84606
21
-3.35806
0
LINE
8
BLACK
6
CONTINUOUS
10
5.84606
20
-3.35806
11
5.84606
21
-3.29806
0
LINE
8
BLACK
6
CONTINUOUS
10
5.84606
20
-3.29806
11
5.90606
21
-3.29806
0
LINE
8
BLACK
6
CONTINUOUS
10
5.90606
20
-3.29806
11
5.90606
21
-3.35806
0
LINE
8
BLACK
6
CONTINUOUS
10
6.00606
20
-3.35806
11
5.94606
21
-3.35806
0
LINE
8
BLACK
6
CONTINUOUS
10
5.94606
20
-3.35806
11
5.94606
21
-3.29806
0
LINE
8
BLACK
6
CONTINUOUS
10
5.94606
20
-3.29806
11
6.00606
21
-3.29806
0
LINE
8
BLACK
6
CONTINUOUS
10
6.00606
20
-3.29806
11
6.00606
21
-3.35806
0
LINE
8
BLACK
6
CONTINUOUS
10
6.10606
20
-3.35806
11
6.04606
21
-3.35806
0
LINE
8
BLACK
6
CONTINUOUS
10
6.04606
20
-3.35806
11
6.04606
21
-3.29806
0
LINE
8
BLACK
6
CONTINUOUS
10
6.04606
20
-3.29806
11
6.10606
21
-3.29806
0
LINE
8
BLACK
6
CONTINUOUS
10
6.10606
20
-3.29806
11
6.10606
21
-3.35806
  0
ENDSEC
  0
EOF
