  0
SECTION
  2
HEADER
  9
$ANGBASE
  50
0.0
  9
$ANGDIR
  70
1
  9
$MEASUREMENT
  70
0
  0
ENDSEC
  0
SECTION
  2
TABLES
  0
TABLE
  2
LTYPE
  70
4
  0
LTYPE
  5
40F
  2
CONTINUOUS
  70
0
  3
Solid line
  72
65
  73
0
  40
0.0
  0
LTYPE
  5
410
  2
DASHDOT
 70
0
  3
Dash Dot ____ _ ____ _
 72
65
 73
4
 40
2.0
 49
1.25
 49
-0.25
 49
0.25
 49
-0.25
  0
LTYPE
  5
411
  2
DASHED
 70
0
  3
Dashed __ __ __ __ __
 72
65
 73
2
 40
0.75
 49
0.5
 49
-0.25
  0
LTYPE
  5
43B
  2
DOTTED
 70
0
  3
Dotted .  .  .  .
 72
65
 73
2
 40
0.2
 49
0.0
 49
-0.2
  0
ENDTAB
  0
TABLE
  2
STYLE
  70
4
  0
STYLE
  2
KICAD
  70
0
  40
0
  41
1
  42
1
  50
0
  71
0
  3
isocp.shx
  0
STYLE
  2
KICADB
  70
0
  40
0
  41
1
  42
1
  50
0
  71
0
  3
isocp.shx
  0
STYLE
  2
KICADI
  70
0
  40
0
  41
1
  42
1
  50
15
  71
0
  3
isocp.shx
  0
STYLE
  2
KICADBI
  70
0
  40
0
  41
1
  42
1
  50
15
  71
0
  3
isocp.shx
  0
ENDTAB
  0
TABLE
  2
LAYER
  70
1
  0
LAYER
  2
BLACK
  70
0
  62
7
  6
CONTINUOUS
  0
ENDTAB
  0
ENDSEC
  0
SECTION
  2
ENTITIES
0
LINE
8
BLACK
6
CONTINUOUS
10
0.0251444
20
1.57215
11
0.0262282
21
1.57377
0
LINE
8
BLACK
6
CONTINUOUS
10
0.0262282
20
1.57377
11
0.0278504
21
1.57486
0
LINE
8
BLACK
6
CONTINUOUS
10
0.0278504
20
1.57486
11
0.0297638
21
1.57524
0
LINE
8
BLACK
6
CONTINUOUS
10
0.0297638
20
1.57524
11
2.37024
21
1.57524
0
LINE
8
BLACK
6
CONTINUOUS
10
2.37024
20
1.57524
11
2.37215
21
1.57486
0
LINE
8
BLACK
6
CONTINUOUS
10
2.37215
20
1.57486
11
2.37377
21
1.57377
0
LINE
8
BLACK
6
CONTINUOUS
10
2.37377
20
1.57377
11
2.37486
21
1.57215
0
LINE
8
BLACK
6
CONTINUOUS
10
2.37486
20
1.57215
11
2.37524
21
1.57024
0
LINE
8
BLACK
6
CONTINUOUS
10
2.37524
20
1.57024
11
2.37524
21
1.18555
0
LINE
8
BLACK
6
CONTINUOUS
10
2.37524
20
1.18555
11
2.37486
21
1.18363
0
LINE
8
BLACK
6
CONTINUOUS
10
2.37486
20
1.18363
11
2.37377
21
1.18201
0
LINE
8
BLACK
6
CONTINUOUS
10
2.37377
20
1.18201
11
2.37215
21
1.18093
0
LINE
8
BLACK
6
CONTINUOUS
10
2.37215
20
1.18093
11
2.37024
21
1.18055
0
LINE
8
BLACK
6
CONTINUOUS
10
2.37024
20
1.18055
11
2.36832
21
1.18093
0
LINE
8
BLACK
6
CONTINUOUS
10
2.36832
20
1.18093
11
2.3667
21
1.18201
0
LINE
8
BLACK
6
CONTINUOUS
10
2.3667
20
1.18201
11
2.36562
21
1.18363
0
LINE
8
BLACK
6
CONTINUOUS
10
2.36562
20
1.18363
11
2.3634
21
1.18899
0
LINE
8
BLACK
6
CONTINUOUS
10
2.3634
20
1.18899
11
2.3564
21
1.19226
0
LINE
8
BLACK
6
CONTINUOUS
10
2.3564
20
1.19226
11
2.34384
21
1.1797
0
LINE
8
BLACK
6
CONTINUOUS
10
2.34384
20
1.1797
11
2.34603
21
1.17657
0
LINE
8
BLACK
6
CONTINUOUS
10
2.34603
20
1.17657
11
2.34994
21
1.16818
0
LINE
8
BLACK
6
CONTINUOUS
10
2.34994
20
1.16818
11
2.35234
21
1.15923
0
LINE
8
BLACK
6
CONTINUOUS
10
2.35234
20
1.15923
11
2.35315
21
1.15
0
LINE
8
BLACK
6
CONTINUOUS
10
2.35315
20
1.15
11
2.35234
21
1.14077
0
LINE
8
BLACK
6
CONTINUOUS
10
2.35234
20
1.14077
11
2.34994
21
1.13182
0
LINE
8
BLACK
6
CONTINUOUS
10
2.34994
20
1.13182
11
2.34603
21
1.12343
0
LINE
8
BLACK
6
CONTINUOUS
10
2.34603
20
1.12343
11
2.34384
21
1.1203
0
LINE
8
BLACK
6
CONTINUOUS
10
2.34384
20
1.1203
11
2.3564
21
1.10774
0
LINE
8
BLACK
6
CONTINUOUS
10
2.3564
20
1.10774
11
2.36334
21
1.11098
0
LINE
8
BLACK
6
CONTINUOUS
10
2.36334
20
1.11098
11
2.36557
21
1.11676
0
LINE
8
BLACK
6
CONTINUOUS
10
2.36557
20
1.11676
11
2.36662
21
1.11841
0
LINE
8
BLACK
6
CONTINUOUS
10
2.36662
20
1.11841
11
2.36821
21
1.11953
0
LINE
8
BLACK
6
CONTINUOUS
10
2.36821
20
1.11953
11
2.37012
21
1.11995
0
LINE
8
BLACK
6
CONTINUOUS
10
2.37012
20
1.11995
11
2.37204
21
1.11962
0
LINE
8
BLACK
6
CONTINUOUS
10
2.37204
20
1.11962
11
2.37369
21
1.11857
0
LINE
8
BLACK
6
CONTINUOUS
10
2.37369
20
1.11857
11
2.37481
21
1.11698
0
LINE
8
BLACK
6
CONTINUOUS
10
2.37481
20
1.11698
11
2.37524
21
1.11496
0
LINE
8
BLACK
6
CONTINUOUS
10
2.37524
20
1.11496
11
2.37524
21
0.985548
0
LINE
8
BLACK
6
CONTINUOUS
10
2.37524
20
0.985548
11
2.37486
21
0.983635
0
LINE
8
BLACK
6
CONTINUOUS
10
2.37486
20
0.983635
11
2.37377
21
0.982013
0
LINE
8
BLACK
6
CONTINUOUS
10
2.37377
20
0.982013
11
2.37215
21
0.980929
0
LINE
8
BLACK
6
CONTINUOUS
10
2.37215
20
0.980929
11
2.37024
21
0.980548
0
LINE
8
BLACK
6
CONTINUOUS
10
2.37024
20
0.980548
11
2.36832
21
0.980929
0
LINE
8
BLACK
6
CONTINUOUS
10
2.36832
20
0.980929
11
2.3667
21
0.982013
0
LINE
8
BLACK
6
CONTINUOUS
10
2.3667
20
0.982013
11
2.36562
21
0.983635
0
LINE
8
BLACK
6
CONTINUOUS
10
2.36562
20
0.983635
11
2.3634
21
0.988989
0
LINE
8
BLACK
6
CONTINUOUS
10
2.3634
20
0.988989
11
2.3564
21
0.992255
0
LINE
8
BLACK
6
CONTINUOUS
10
2.3564
20
0.992255
11
2.34384
21
0.979699
0
LINE
8
BLACK
6
CONTINUOUS
10
2.34384
20
0.979699
11
2.34603
21
0.976575
0
LINE
8
BLACK
6
CONTINUOUS
10
2.34603
20
0.976575
11
2.34994
21
0.968178
0
LINE
8
BLACK
6
CONTINUOUS
10
2.34994
20
0.968178
11
2.35234
21
0.959229
0
LINE
8
BLACK
6
CONTINUOUS
10
2.35234
20
0.959229
11
2.35315
21
0.95
0
LINE
8
BLACK
6
CONTINUOUS
10
2.35315
20
0.95
11
2.35234
21
0.940771
0
LINE
8
BLACK
6
CONTINUOUS
10
2.35234
20
0.940771
11
2.34994
21
0.931822
0
LINE
8
BLACK
6
CONTINUOUS
10
2.34994
20
0.931822
11
2.34603
21
0.923425
0
LINE
8
BLACK
6
CONTINUOUS
10
2.34603
20
0.923425
11
2.34384
21
0.920301
0
LINE
8
BLACK
6
CONTINUOUS
10
2.34384
20
0.920301
11
2.3564
21
0.907745
0
LINE
8
BLACK
6
CONTINUOUS
10
2.3564
20
0.907745
11
2.36334
21
0.910983
0
LINE
8
BLACK
6
CONTINUOUS
10
2.36334
20
0.910983
11
2.36557
21
0.91676
0
LINE
8
BLACK
6
CONTINUOUS
10
2.36557
20
0.91676
11
2.36662
21
0.918407
0
LINE
8
BLACK
6
CONTINUOUS
10
2.36662
20
0.918407
11
2.36821
21
0.919529
0
LINE
8
BLACK
6
CONTINUOUS
10
2.36821
20
0.919529
11
2.37012
21
0.919955
0
LINE
8
BLACK
6
CONTINUOUS
10
2.37012
20
0.919955
11
2.37204
21
0.919619
0
LINE
8
BLACK
6
CONTINUOUS
10
2.37204
20
0.919619
11
2.37369
21
0.918574
0
LINE
8
BLACK
6
CONTINUOUS
10
2.37369
20
0.918574
11
2.37481
21
0.916978
0
LINE
8
BLACK
6
CONTINUOUS
10
2.37481
20
0.916978
11
2.37524
21
0.914956
0
LINE
8
BLACK
6
CONTINUOUS
10
2.37524
20
0.914956
11
2.37524
21
0.760548
0
LINE
8
BLACK
6
CONTINUOUS
10
2.37524
20
0.760548
11
2.37486
21
0.758635
0
LINE
8
BLACK
6
CONTINUOUS
10
2.37486
20
0.758635
11
2.37377
21
0.757013
0
LINE
8
BLACK
6
CONTINUOUS
10
2.37377
20
0.757013
11
2.37215
21
0.755929
0
LINE
8
BLACK
6
CONTINUOUS
10
2.37215
20
0.755929
11
2.37024
21
0.755548
0
LINE
8
BLACK
6
CONTINUOUS
10
2.37024
20
0.755548
11
2.36832
21
0.755929
0
LINE
8
BLACK
6
CONTINUOUS
10
2.36832
20
0.755929
11
2.3667
21
0.757013
0
LINE
8
BLACK
6
CONTINUOUS
10
2.3667
20
0.757013
11
2.36562
21
0.758635
0
LINE
8
BLACK
6
CONTINUOUS
10
2.36562
20
0.758635
11
2.3634
21
0.763989
0
LINE
8
BLACK
6
CONTINUOUS
10
2.3634
20
0.763989
11
2.3564
21
0.767255
0
LINE
8
BLACK
6
CONTINUOUS
10
2.3564
20
0.767255
11
2.34384
21
0.754699
0
LINE
8
BLACK
6
CONTINUOUS
10
2.34384
20
0.754699
11
2.34603
21
0.751575
0
LINE
8
BLACK
6
CONTINUOUS
10
2.34603
20
0.751575
11
2.34994
21
0.743178
0
LINE
8
BLACK
6
CONTINUOUS
10
2.34994
20
0.743178
11
2.35234
21
0.734229
0
LINE
8
BLACK
6
CONTINUOUS
10
2.35234
20
0.734229
11
2.35315
21
0.725
0
LINE
8
BLACK
6
CONTINUOUS
10
2.35315
20
0.725
11
2.35234
21
0.715771
0
LINE
8
BLACK
6
CONTINUOUS
10
2.35234
20
0.715771
11
2.34994
21
0.706822
0
LINE
8
BLACK
6
CONTINUOUS
10
2.34994
20
0.706822
11
2.34603
21
0.698425
0
LINE
8
BLACK
6
CONTINUOUS
10
2.34603
20
0.698425
11
2.34384
21
0.695301
0
LINE
8
BLACK
6
CONTINUOUS
10
2.34384
20
0.695301
11
2.3564
21
0.682745
0
LINE
8
BLACK
6
CONTINUOUS
10
2.3564
20
0.682745
11
2.36334
21
0.685983
0
LINE
8
BLACK
6
CONTINUOUS
10
2.36334
20
0.685983
11
2.36557
21
0.69176
0
LINE
8
BLACK
6
CONTINUOUS
10
2.36557
20
0.69176
11
2.36662
21
0.693407
0
LINE
8
BLACK
6
CONTINUOUS
10
2.36662
20
0.693407
11
2.36821
21
0.694529
0
LINE
8
BLACK
6
CONTINUOUS
10
2.36821
20
0.694529
11
2.37012
21
0.694955
0
LINE
8
BLACK
6
CONTINUOUS
10
2.37012
20
0.694955
11
2.37204
21
0.694619
0
LINE
8
BLACK
6
CONTINUOUS
10
2.37204
20
0.694619
11
2.37369
21
0.693574
0
LINE
8
BLACK
6
CONTINUOUS
10
2.37369
20
0.693574
11
2.37481
21
0.691978
0
LINE
8
BLACK
6
CONTINUOUS
10
2.37481
20
0.691978
11
2.37524
21
0.689956
0
LINE
8
BLACK
6
CONTINUOUS
10
2.37524
20
0.689956
11
2.37524
21
0.560548
0
LINE
8
BLACK
6
CONTINUOUS
10
2.37524
20
0.560548
11
2.37486
21
0.558635
0
LINE
8
BLACK
6
CONTINUOUS
10
2.37486
20
0.558635
11
2.37377
21
0.557013
0
LINE
8
BLACK
6
CONTINUOUS
10
2.37377
20
0.557013
11
2.37215
21
0.555929
0
LINE
8
BLACK
6
CONTINUOUS
10
2.37215
20
0.555929
11
2.37024
21
0.555548
0
LINE
8
BLACK
6
CONTINUOUS
10
2.37024
20
0.555548
11
2.36832
21
0.555929
0
LINE
8
BLACK
6
CONTINUOUS
10
2.36832
20
0.555929
11
2.3667
21
0.557013
0
LINE
8
BLACK
6
CONTINUOUS
10
2.3667
20
0.557013
11
2.36562
21
0.558635
0
LINE
8
BLACK
6
CONTINUOUS
10
2.36562
20
0.558635
11
2.3634
21
0.563989
0
LINE
8
BLACK
6
CONTINUOUS
10
2.3634
20
0.563989
11
2.3564
21
0.567255
0
LINE
8
BLACK
6
CONTINUOUS
10
2.3564
20
0.567255
11
2.34384
21
0.554699
0
LINE
8
BLACK
6
CONTINUOUS
10
2.34384
20
0.554699
11
2.34603
21
0.551575
0
LINE
8
BLACK
6
CONTINUOUS
10
2.34603
20
0.551575
11
2.34994
21
0.543178
0
LINE
8
BLACK
6
CONTINUOUS
10
2.34994
20
0.543178
11
2.35234
21
0.534229
0
LINE
8
BLACK
6
CONTINUOUS
10
2.35234
20
0.534229
11
2.35315
21
0.525
0
LINE
8
BLACK
6
CONTINUOUS
10
2.35315
20
0.525
11
2.35234
21
0.515771
0
LINE
8
BLACK
6
CONTINUOUS
10
2.35234
20
0.515771
11
2.34994
21
0.506822
0
LINE
8
BLACK
6
CONTINUOUS
10
2.34994
20
0.506822
11
2.34603
21
0.498425
0
LINE
8
BLACK
6
CONTINUOUS
10
2.34603
20
0.498425
11
2.34384
21
0.495301
0
LINE
8
BLACK
6
CONTINUOUS
10
2.34384
20
0.495301
11
2.3564
21
0.482745
0
LINE
8
BLACK
6
CONTINUOUS
10
2.3564
20
0.482745
11
2.36334
21
0.485983
0
LINE
8
BLACK
6
CONTINUOUS
10
2.36334
20
0.485983
11
2.36557
21
0.49176
0
LINE
8
BLACK
6
CONTINUOUS
10
2.36557
20
0.49176
11
2.36662
21
0.493407
0
LINE
8
BLACK
6
CONTINUOUS
10
2.36662
20
0.493407
11
2.36821
21
0.494529
0
LINE
8
BLACK
6
CONTINUOUS
10
2.36821
20
0.494529
11
2.37012
21
0.494955
0
LINE
8
BLACK
6
CONTINUOUS
10
2.37012
20
0.494955
11
2.37204
21
0.494619
0
LINE
8
BLACK
6
CONTINUOUS
10
2.37204
20
0.494619
11
2.37369
21
0.493574
0
LINE
8
BLACK
6
CONTINUOUS
10
2.37369
20
0.493574
11
2.37481
21
0.491978
0
LINE
8
BLACK
6
CONTINUOUS
10
2.37481
20
0.491978
11
2.37524
21
0.489956
0
LINE
8
BLACK
6
CONTINUOUS
10
2.37524
20
0.489956
11
2.37524
21
0.0297638
0
LINE
8
BLACK
6
CONTINUOUS
10
2.37524
20
0.0297638
11
2.37486
21
0.0278504
0
LINE
8
BLACK
6
CONTINUOUS
10
2.37486
20
0.0278504
11
2.37377
21
0.0262282
0
LINE
8
BLACK
6
CONTINUOUS
10
2.37377
20
0.0262282
11
2.37215
21
0.0251444
0
LINE
8
BLACK
6
CONTINUOUS
10
2.37215
20
0.0251444
11
2.37024
21
0.0247638
0
LINE
8
BLACK
6
CONTINUOUS
10
2.37024
20
0.0247638
11
0.0297638
21
0.0247638
0
LINE
8
BLACK
6
CONTINUOUS
10
0.0297638
20
0.0247638
11
0.0278504
21
0.0251444
0
LINE
8
BLACK
6
CONTINUOUS
10
0.0278504
20
0.0251444
11
0.0262282
21
0.0262282
0
LINE
8
BLACK
6
CONTINUOUS
10
0.0262282
20
0.0262282
11
0.0251444
21
0.0278504
0
LINE
8
BLACK
6
CONTINUOUS
10
0.0251444
20
0.0278504
11
0.0247638
21
0.0297638
0
LINE
8
BLACK
6
CONTINUOUS
10
0.0247638
20
0.0297638
11
0.0247638
21
1.57024
0
LINE
8
BLACK
6
CONTINUOUS
10
0.0247638
20
1.57024
11
0.0251444
21
1.57215
0
LINE
8
BLACK
6
CONTINUOUS
10
2.0366
20
0.911011
11
2.0436
21
0.907745
0
LINE
8
BLACK
6
CONTINUOUS
10
2.0436
20
0.907745
11
2.05616
21
0.920301
0
LINE
8
BLACK
6
CONTINUOUS
10
2.05616
20
0.920301
11
2.05397
21
0.923425
0
LINE
8
BLACK
6
CONTINUOUS
10
2.05397
20
0.923425
11
2.05006
21
0.931822
0
LINE
8
BLACK
6
CONTINUOUS
10
2.05006
20
0.931822
11
2.04766
21
0.940771
0
LINE
8
BLACK
6
CONTINUOUS
10
2.04766
20
0.940771
11
2.04685
21
0.95
0
LINE
8
BLACK
6
CONTINUOUS
10
2.04685
20
0.95
11
2.04766
21
0.959229
0
LINE
8
BLACK
6
CONTINUOUS
10
2.04766
20
0.959229
11
2.05006
21
0.968178
0
LINE
8
BLACK
6
CONTINUOUS
10
2.05006
20
0.968178
11
2.05397
21
0.976575
0
LINE
8
BLACK
6
CONTINUOUS
10
2.05397
20
0.976575
11
2.05616
21
0.979699
0
LINE
8
BLACK
6
CONTINUOUS
10
2.05616
20
0.979699
11
2.0436
21
0.992255
0
LINE
8
BLACK
6
CONTINUOUS
10
2.0436
20
0.992255
11
2.03666
21
0.989017
0
LINE
8
BLACK
6
CONTINUOUS
10
2.03666
20
0.989017
11
2.02653
21
0.962826
0
LINE
8
BLACK
6
CONTINUOUS
10
2.02653
20
0.962826
11
2.02721
21
0.933672
0
LINE
8
BLACK
6
CONTINUOUS
10
2.02721
20
0.933672
11
2.0366
21
0.911011
0
CIRCLE
8
BLACK
10
0.47
20
0.17
40
0.00787402
0
CIRCLE
8
BLACK
10
0.38
20
0.41
40
0.00787402
0
CIRCLE
8
BLACK
10
2.05
20
1.26
40
0.00787402
0
CIRCLE
8
BLACK
10
1.99
20
0.78
40
0.00787402
0
CIRCLE
8
BLACK
10
1.37
20
0.09
40
0.00787402
0
CIRCLE
8
BLACK
10
1.58
20
1.28
40
0.00787402
0
CIRCLE
8
BLACK
10
2.33
20
0.41
40
0.00787402
0
CIRCLE
8
BLACK
10
1.42
20
0.56
40
0.00787402
0
CIRCLE
8
BLACK
10
2.17
20
0.41
40
0.00787402
0
CIRCLE
8
BLACK
10
1.44
20
1.39
40
0.00787402
0
CIRCLE
8
BLACK
10
1.52
20
1.28
40
0.00787402
0
CIRCLE
8
BLACK
10
1.78
20
1.28
40
0.00787402
0
CIRCLE
8
BLACK
10
0.41
20
0.18
40
0.00787402
0
CIRCLE
8
BLACK
10
0.82
20
0.08
40
0.00787402
0
CIRCLE
8
BLACK
10
1.35
20
1.24
40
0.00787402
0
CIRCLE
8
BLACK
10
0.6
20
1.18
40
0.00787402
0
CIRCLE
8
BLACK
10
1.44
20
1.46
40
0.00787402
0
CIRCLE
8
BLACK
10
0.68
20
0.67
40
0.00787402
0
CIRCLE
8
BLACK
10
1.31
20
0.84
40
0.00787402
0
CIRCLE
8
BLACK
10
1.95
20
0.98
40
0.00787402
0
CIRCLE
8
BLACK
10
1.26
20
0.767913
40
0.00787402
0
CIRCLE
8
BLACK
10
1.62
20
0.98
40
0.00787402
0
CIRCLE
8
BLACK
10
0.560513
20
1.02051
40
0.00787402
0
CIRCLE
8
BLACK
10
0.39
20
0.68
40
0.00787402
0
CIRCLE
8
BLACK
10
2.02
20
0.35
40
0.00787402
0
CIRCLE
8
BLACK
10
2.01
20
1.12
40
0.00787402
0
CIRCLE
8
BLACK
10
0.7
20
0.87
40
0.00787402
0
CIRCLE
8
BLACK
10
0.39
20
0.26
40
0.00787402
0
CIRCLE
8
BLACK
10
1.99
20
0.66
40
0.00787402
0
CIRCLE
8
BLACK
10
1.86
20
0.65
40
0.00787402
0
CIRCLE
8
BLACK
10
1.83
20
0.98
40
0.00787402
0
CIRCLE
8
BLACK
10
2
20
1.2
40
0.00787402
0
CIRCLE
8
BLACK
10
0.81
20
1.13
40
0.00787402
0
CIRCLE
8
BLACK
10
2.08
20
0.41
40
0.00787402
0
CIRCLE
8
BLACK
10
1.99
20
0.51
40
0.00787402
0
CIRCLE
8
BLACK
10
1.6465
20
0.7465
40
0.00787402
0
CIRCLE
8
BLACK
10
1.45
20
0.17
40
0.00787402
0
CIRCLE
8
BLACK
10
1.56
20
0.98
40
0.00787402
0
CIRCLE
8
BLACK
10
0.56
20
0.97
40
0.00787402
0
CIRCLE
8
BLACK
10
0.76
20
0.67
40
0.00787402
0
CIRCLE
8
BLACK
10
0.32
20
1.23
40
0.00787402
0
CIRCLE
8
BLACK
10
0.53
20
0.74
40
0.00787402
0
CIRCLE
8
BLACK
10
1.69
20
0.98
40
0.00787402
0
CIRCLE
8
BLACK
10
2.26
20
0.41
40
0.00787402
0
CIRCLE
8
BLACK
10
1.26
20
0.73
40
0.00787402
0
CIRCLE
8
BLACK
10
1.93
20
1.22
40
0.00787402
0
CIRCLE
8
BLACK
10
1.8
20
0.65
40
0.00787402
0
CIRCLE
8
BLACK
10
1.32
20
0.75
40
0.00787402
0
CIRCLE
8
BLACK
10
1.26942
20
0.870578
40
0.00787402
0
CIRCLE
8
BLACK
10
1.3
20
1.19
40
0.00787402
0
CIRCLE
8
BLACK
10
1.35
20
1.28
40
0.00787402
0
CIRCLE
8
BLACK
10
0.9
20
1.13
40
0.00787402
0
CIRCLE
8
BLACK
10
1.93
20
1.12
40
0.00787402
0
CIRCLE
8
BLACK
10
1.85
20
1.28
40
0.00787402
0
CIRCLE
8
BLACK
10
0.59
20
0.67
40
0.00787402
0
CIRCLE
8
BLACK
10
1.02
20
0.14
40
0.00787402
0
CIRCLE
8
BLACK
10
1.71
20
1.28
40
0.00787402
0
CIRCLE
8
BLACK
10
0.1
20
0.76
40
0.00787402
0
CIRCLE
8
BLACK
10
1.36
20
1.53
40
0.00787402
0
CIRCLE
8
BLACK
10
1.445
20
0.985
40
0.00787402
0
CIRCLE
8
BLACK
10
0.38
20
0.48
40
0.00787402
0
CIRCLE
8
BLACK
10
1.93
20
1.16
40
0.00787402
0
CIRCLE
8
BLACK
10
0.51
20
1.15
40
0.00787402
0
CIRCLE
8
BLACK
10
1.51
20
1.39
40
0.00787402
0
CIRCLE
8
BLACK
10
1.74
20
0.65
40
0.00787402
0
CIRCLE
8
BLACK
10
1.93
20
1.28
40
0.00787402
0
CIRCLE
8
BLACK
10
1.45
20
0.26
40
0.00787402
0
CIRCLE
8
BLACK
10
0.1
20
0.84
40
0.00787402
0
CIRCLE
8
BLACK
10
1.99
20
0.73
40
0.00787402
0
CIRCLE
8
BLACK
10
1.99
20
0.6
40
0.00787402
0
CIRCLE
8
BLACK
10
1.89
20
0.98
40
0.00787402
0
CIRCLE
8
BLACK
10
1.25
20
0.96
40
0.00787402
0
CIRCLE
8
BLACK
10
1.2
20
1.2
40
0.00787402
0
CIRCLE
8
BLACK
10
1.4
20
0.73
40
0.00787402
0
CIRCLE
8
BLACK
10
2
20
0.43
40
0.00787402
0
CIRCLE
8
BLACK
10
1.64
20
1.28
40
0.00787402
0
CIRCLE
8
BLACK
10
2.26
20
0.84
40
0.00787402
0
CIRCLE
8
BLACK
10
0.72
20
1.11
40
0.00787402
0
CIRCLE
8
BLACK
10
0.31
20
0.48
40
0.00787402
0
CIRCLE
8
BLACK
10
2.34
20
0.84
40
0.00787402
0
CIRCLE
8
BLACK
10
1.44
20
1.53
40
0.00787402
0
CIRCLE
8
BLACK
10
0.38
20
0.34
40
0.00787402
0
CIRCLE
8
BLACK
10
1.17
20
0.58
40
0.00787402
0
CIRCLE
8
BLACK
10
0.6
20
0.09
40
0.00787402
0
CIRCLE
8
BLACK
10
0.87
20
0.14
40
0.00787402
0
CIRCLE
8
BLACK
10
0.94
20
0.14
40
0.00787402
0
CIRCLE
8
BLACK
10
1.09
20
0.14
40
0.00787402
0
CIRCLE
8
BLACK
10
1.52
20
1.33
40
0.00787402
0
CIRCLE
8
BLACK
10
1.92
20
0.65
40
0.00787402
0
CIRCLE
8
BLACK
10
0.57
20
0.17
40
0.00787402
0
CIRCLE
8
BLACK
10
1.4
20
0.77
40
0.00787402
0
CIRCLE
8
BLACK
10
1.15755
20
0.61432
40
0.00787402
0
CIRCLE
8
BLACK
10
1.65
20
0.81
40
0.00787402
0
CIRCLE
8
BLACK
10
0.47
20
0.57
40
0.00787402
0
CIRCLE
8
BLACK
10
0.49
20
0.86
40
0.00787402
0
CIRCLE
8
BLACK
10
1.76
20
0.98
40
0.00787402
0
CIRCLE
8
BLACK
10
1.36
20
1.33
40
0.00787402
0
CIRCLE
8
BLACK
10
0.82
20
0.67
40
0.00787402
0
CIRCLE
8
BLACK
10
1.45
20
0.33
40
0.00787402
0
CIRCLE
8
BLACK
10
1.99
20
0.98
40
0.00787402
0
CIRCLE
8
BLACK
10
1.38442
20
0.985578
40
0.00787402
0
CIRCLE
8
BLACK
10
1.5
20
0.985
40
0.00787402
0
CIRCLE
8
BLACK
10
1.37
20
0.16
40
0.00787402
0
CIRCLE
8
BLACK
10
0.9
20
0.54
40
0.00787402
0
CIRCLE
8
BLACK
10
0.44
20
1.13
40
0.00787402
0
CIRCLE
8
BLACK
10
1.71
20
0.09
40
0.00787402
0
CIRCLE
8
BLACK
10
1.43694
20
0.423872
40
0.00787402
0
CIRCLE
8
BLACK
10
1.63
20
0.63
40
0.00787402
0
CIRCLE
8
BLACK
10
1.64307
20
0.42693
40
0.00787402
0
CIRCLE
8
BLACK
10
0.464537
20
0.624537
40
0.00787402
0
CIRCLE
8
BLACK
10
0.87
20
0.95
40
0.00787402
0
CIRCLE
8
BLACK
10
0.75
20
1.18
40
0.00787402
0
CIRCLE
8
BLACK
10
1.0158
20
1.00303
40
0.00787402
0
CIRCLE
8
BLACK
10
0.854
20
1.185
40
0.00787402
0
CIRCLE
8
BLACK
10
1.0626
20
0.995697
40
0.00787402
0
CIRCLE
8
BLACK
10
0.952
20
1.182
40
0.00787402
0
CIRCLE
8
BLACK
10
1.051
20
1.27138
40
0.00787402
0
CIRCLE
8
BLACK
10
1.10191
20
0.993502
40
0.00787402
0
CIRCLE
8
BLACK
10
0.55
20
1.2
40
0.00787402
0
CIRCLE
8
BLACK
10
0.91
20
0.79
40
0.00787402
0
CIRCLE
8
BLACK
10
1.17146
20
0.68
40
0.00787402
0
CIRCLE
8
BLACK
10
1.33
20
0.54
40
0.00787402
0
CIRCLE
8
BLACK
10
1.175
20
0.975
40
0.00787402
0
CIRCLE
8
BLACK
10
1.125
20
1.2
40
0.00787402
0
CIRCLE
8
BLACK
10
0.45
20
1.19
40
0.00787402
0
CIRCLE
8
BLACK
10
0.95
20
0.59
40
0.00787402
0
CIRCLE
8
BLACK
10
0.91
20
0.75
40
0.00787402
0
CIRCLE
8
BLACK
10
0.87
20
0.91063
40
0.00787402
0
CIRCLE
8
BLACK
10
0.65
20
1.2
40
0.00787402
  0
ENDSEC
  0
EOF
