  0
SECTION
  2
HEADER
  9
$ANGBASE
  50
0.0
  9
$ANGDIR
  70
1
  9
$MEASUREMENT
  70
0
  0
ENDSEC
  0
SECTION
  2
TABLES
  0
TABLE
  2
LTYPE
  70
4
  0
LTYPE
  5
40F
  2
CONTINUOUS
  70
0
  3
Solid line
  72
65
  73
0
  40
0.0
  0
LTYPE
  5
410
  2
DASHDOT
 70
0
  3
Dash Dot ____ _ ____ _
 72
65
 73
4
 40
2.0
 49
1.25
 49
-0.25
 49
0.25
 49
-0.25
  0
LTYPE
  5
411
  2
DASHED
 70
0
  3
Dashed __ __ __ __ __
 72
65
 73
2
 40
0.75
 49
0.5
 49
-0.25
  0
LTYPE
  5
43B
  2
DOTTED
 70
0
  3
Dotted .  .  .  .
 72
65
 73
2
 40
0.2
 49
0.0
 49
-0.2
  0
ENDTAB
  0
TABLE
  2
STYLE
  70
4
  0
STYLE
  2
KICAD
  70
0
  40
0
  41
1
  42
1
  50
0
  71
0
  3
isocp.shx
  0
STYLE
  2
KICADB
  70
0
  40
0
  41
1
  42
1
  50
0
  71
0
  3
isocp.shx
  0
STYLE
  2
KICADI
  70
0
  40
0
  41
1
  42
1
  50
15
  71
0
  3
isocp.shx
  0
STYLE
  2
KICADBI
  70
0
  40
0
  41
1
  42
1
  50
15
  71
0
  3
isocp.shx
  0
ENDTAB
  0
TABLE
  2
LAYER
  70
1
  0
LAYER
  2
BLACK
  70
0
  62
7
  6
CONTINUOUS
  0
ENDTAB
  0
ENDSEC
  0
SECTION
  2
ENTITIES
0
LINE
8
BLACK
6
CONTINUOUS
10
6.63299
20
-4.24818
11
6.63369
21
-4.24846
0
LINE
8
BLACK
6
CONTINUOUS
10
6.63369
20
-4.24846
11
6.63398
21
-4.24916
0
LINE
8
BLACK
6
CONTINUOUS
10
6.63398
20
-4.24916
11
6.63398
21
-4.38696
0
LINE
8
BLACK
6
CONTINUOUS
10
6.63398
20
-4.38696
11
6.63369
21
-4.38765
0
LINE
8
BLACK
6
CONTINUOUS
10
6.63369
20
-4.38765
11
6.63299
21
-4.38794
0
LINE
8
BLACK
6
CONTINUOUS
10
6.63299
20
-4.38794
11
6.49914
21
-4.38794
0
LINE
8
BLACK
6
CONTINUOUS
10
6.49914
20
-4.38794
11
6.49844
21
-4.38765
0
LINE
8
BLACK
6
CONTINUOUS
10
6.49844
20
-4.38765
11
6.49815
21
-4.38696
0
LINE
8
BLACK
6
CONTINUOUS
10
6.49815
20
-4.38696
11
6.49815
21
-4.38696
0
LINE
8
BLACK
6
CONTINUOUS
10
6.49815
20
-4.38696
11
6.49815
21
-4.24916
0
LINE
8
BLACK
6
CONTINUOUS
10
6.49815
20
-4.24916
11
6.49844
21
-4.24846
0
LINE
8
BLACK
6
CONTINUOUS
10
6.49844
20
-4.24846
11
6.49914
21
-4.24818
0
LINE
8
BLACK
6
CONTINUOUS
10
6.49914
20
-4.24818
11
6.63299
21
-4.24818
0
LINE
8
BLACK
6
CONTINUOUS
10
6.50012
20
-4.25015
11
6.50012
21
-4.38597
0
LINE
8
BLACK
6
CONTINUOUS
10
6.50012
20
-4.38597
11
6.63201
21
-4.38597
0
LINE
8
BLACK
6
CONTINUOUS
10
6.63201
20
-4.38597
11
6.63201
21
-4.25015
0
LINE
8
BLACK
6
CONTINUOUS
10
6.63201
20
-4.25015
11
6.50012
21
-4.25015
0
LINE
8
BLACK
6
CONTINUOUS
10
6.78299
20
-4.24818
11
6.78369
21
-4.24846
0
LINE
8
BLACK
6
CONTINUOUS
10
6.78369
20
-4.24846
11
6.78398
21
-4.24916
0
LINE
8
BLACK
6
CONTINUOUS
10
6.78398
20
-4.24916
11
6.78398
21
-4.38696
0
LINE
8
BLACK
6
CONTINUOUS
10
6.78398
20
-4.38696
11
6.78369
21
-4.38765
0
LINE
8
BLACK
6
CONTINUOUS
10
6.78369
20
-4.38765
11
6.78299
21
-4.38794
0
LINE
8
BLACK
6
CONTINUOUS
10
6.78299
20
-4.38794
11
6.64914
21
-4.38794
0
LINE
8
BLACK
6
CONTINUOUS
10
6.64914
20
-4.38794
11
6.64844
21
-4.38765
0
LINE
8
BLACK
6
CONTINUOUS
10
6.64844
20
-4.38765
11
6.64815
21
-4.38696
0
LINE
8
BLACK
6
CONTINUOUS
10
6.64815
20
-4.38696
11
6.64815
21
-4.24916
0
LINE
8
BLACK
6
CONTINUOUS
10
6.64815
20
-4.24916
11
6.64844
21
-4.24846
0
LINE
8
BLACK
6
CONTINUOUS
10
6.64844
20
-4.24846
11
6.64914
21
-4.24818
0
LINE
8
BLACK
6
CONTINUOUS
10
6.64914
20
-4.24818
11
6.78299
21
-4.24818
0
LINE
8
BLACK
6
CONTINUOUS
10
6.65012
20
-4.25015
11
6.65012
21
-4.38597
0
LINE
8
BLACK
6
CONTINUOUS
10
6.65012
20
-4.38597
11
6.78201
21
-4.38597
0
LINE
8
BLACK
6
CONTINUOUS
10
6.78201
20
-4.38597
11
6.78201
21
-4.25015
0
LINE
8
BLACK
6
CONTINUOUS
10
6.78201
20
-4.25015
11
6.65012
21
-4.25015
0
LINE
8
BLACK
6
CONTINUOUS
10
6.04358
20
-3.87924
11
6.04428
21
-3.87953
0
LINE
8
BLACK
6
CONTINUOUS
10
6.04428
20
-3.87953
11
6.04457
21
-3.88022
0
LINE
8
BLACK
6
CONTINUOUS
10
6.04457
20
-3.88022
11
6.04457
21
-4.12589
0
LINE
8
BLACK
6
CONTINUOUS
10
6.04457
20
-4.12589
11
6.04428
21
-4.12659
0
LINE
8
BLACK
6
CONTINUOUS
10
6.04428
20
-4.12659
11
6.04358
21
-4.12688
0
LINE
8
BLACK
6
CONTINUOUS
10
6.04358
20
-4.12688
11
5.75855
21
-4.12688
0
LINE
8
BLACK
6
CONTINUOUS
10
5.75855
20
-4.12688
11
5.75785
21
-4.12659
0
LINE
8
BLACK
6
CONTINUOUS
10
5.75785
20
-4.12659
11
5.75756
21
-4.12589
0
LINE
8
BLACK
6
CONTINUOUS
10
5.75756
20
-4.12589
11
5.75756
21
-4.12589
0
LINE
8
BLACK
6
CONTINUOUS
10
5.75756
20
-4.12589
11
5.75756
21
-3.88022
0
LINE
8
BLACK
6
CONTINUOUS
10
5.75756
20
-3.88022
11
5.75785
21
-3.87953
0
LINE
8
BLACK
6
CONTINUOUS
10
5.75785
20
-3.87953
11
5.75855
21
-3.87924
0
LINE
8
BLACK
6
CONTINUOUS
10
5.75855
20
-3.87924
11
6.04358
21
-3.87924
0
LINE
8
BLACK
6
CONTINUOUS
10
5.75953
20
-3.88121
11
5.75953
21
-4.12491
0
LINE
8
BLACK
6
CONTINUOUS
10
5.75953
20
-4.12491
11
6.0426
21
-4.12491
0
LINE
8
BLACK
6
CONTINUOUS
10
6.0426
20
-4.12491
11
6.0426
21
-3.88121
0
LINE
8
BLACK
6
CONTINUOUS
10
6.0426
20
-3.88121
11
5.75953
21
-3.88121
0
LINE
8
BLACK
6
CONTINUOUS
10
5.19437
20
-3.64774
11
5.19507
21
-3.64803
0
LINE
8
BLACK
6
CONTINUOUS
10
5.19507
20
-3.64803
11
5.19536
21
-3.64873
0
LINE
8
BLACK
6
CONTINUOUS
10
5.19536
20
-3.64873
11
5.19536
21
-3.85739
0
LINE
8
BLACK
6
CONTINUOUS
10
5.19536
20
-3.85739
11
5.19507
21
-3.85809
0
LINE
8
BLACK
6
CONTINUOUS
10
5.19507
20
-3.85809
11
5.19437
21
-3.85837
0
LINE
8
BLACK
6
CONTINUOUS
10
5.19437
20
-3.85837
11
5.10776
21
-3.85837
0
LINE
8
BLACK
6
CONTINUOUS
10
5.10776
20
-3.85837
11
5.10706
21
-3.85809
0
LINE
8
BLACK
6
CONTINUOUS
10
5.10706
20
-3.85809
11
5.10677
21
-3.85739
0
LINE
8
BLACK
6
CONTINUOUS
10
5.10677
20
-3.85739
11
5.10677
21
-3.64873
0
LINE
8
BLACK
6
CONTINUOUS
10
5.10677
20
-3.64873
11
5.10706
21
-3.64803
0
LINE
8
BLACK
6
CONTINUOUS
10
5.10706
20
-3.64803
11
5.10776
21
-3.64774
0
LINE
8
BLACK
6
CONTINUOUS
10
5.10776
20
-3.64774
11
5.19437
21
-3.64774
0
LINE
8
BLACK
6
CONTINUOUS
10
5.10874
20
-3.64971
11
5.10874
21
-3.85641
0
LINE
8
BLACK
6
CONTINUOUS
10
5.10874
20
-3.85641
11
5.19339
21
-3.85641
0
LINE
8
BLACK
6
CONTINUOUS
10
5.19339
20
-3.85641
11
5.19339
21
-3.64971
0
LINE
8
BLACK
6
CONTINUOUS
10
5.19339
20
-3.64971
11
5.10874
21
-3.64971
0
LINE
8
BLACK
6
CONTINUOUS
10
6.07705
20
-3.64164
11
6.07775
21
-3.64193
0
LINE
8
BLACK
6
CONTINUOUS
10
6.07775
20
-3.64193
11
6.07803
21
-3.64263
0
LINE
8
BLACK
6
CONTINUOUS
10
6.07803
20
-3.64263
11
6.07803
21
-3.80798
0
LINE
8
BLACK
6
CONTINUOUS
10
6.07803
20
-3.80798
11
6.07775
21
-3.80868
0
LINE
8
BLACK
6
CONTINUOUS
10
6.07775
20
-3.80868
11
6.07705
21
-3.80896
0
LINE
8
BLACK
6
CONTINUOUS
10
6.07705
20
-3.80896
11
5.82508
21
-3.80896
0
LINE
8
BLACK
6
CONTINUOUS
10
5.82508
20
-3.80896
11
5.82438
21
-3.80868
0
LINE
8
BLACK
6
CONTINUOUS
10
5.82438
20
-3.80868
11
5.8241
21
-3.80798
0
LINE
8
BLACK
6
CONTINUOUS
10
5.8241
20
-3.80798
11
5.8241
21
-3.80798
0
LINE
8
BLACK
6
CONTINUOUS
10
5.8241
20
-3.80798
11
5.8241
21
-3.64263
0
LINE
8
BLACK
6
CONTINUOUS
10
5.8241
20
-3.64263
11
5.82438
21
-3.64193
0
LINE
8
BLACK
6
CONTINUOUS
10
5.82438
20
-3.64193
11
5.82508
21
-3.64164
0
LINE
8
BLACK
6
CONTINUOUS
10
5.82508
20
-3.64164
11
6.07705
21
-3.64164
0
LINE
8
BLACK
6
CONTINUOUS
10
5.82606
20
-3.64361
11
5.82606
21
-3.807
0
LINE
8
BLACK
6
CONTINUOUS
10
5.82606
20
-3.807
11
6.07606
21
-3.807
0
LINE
8
BLACK
6
CONTINUOUS
10
6.07606
20
-3.807
11
6.07606
21
-3.64361
0
LINE
8
BLACK
6
CONTINUOUS
10
6.07606
20
-3.64361
11
5.82606
21
-3.64361
  0
ENDSEC
  0
EOF
