  0
SECTION
  2
HEADER
  9
$ANGBASE
  50
0.0
  9
$ANGDIR
  70
1
  9
$MEASUREMENT
  70
0
  0
ENDSEC
  0
SECTION
  2
TABLES
  0
TABLE
  2
LTYPE
  70
4
  0
LTYPE
  5
40F
  2
CONTINUOUS
  70
0
  3
Solid line
  72
65
  73
0
  40
0.0
  0
LTYPE
  5
410
  2
DASHDOT
 70
0
  3
Dash Dot ____ _ ____ _
 72
65
 73
4
 40
2.0
 49
1.25
 49
-0.25
 49
0.25
 49
-0.25
  0
LTYPE
  5
411
  2
DASHED
 70
0
  3
Dashed __ __ __ __ __
 72
65
 73
2
 40
0.75
 49
0.5
 49
-0.25
  0
LTYPE
  5
43B
  2
DOTTED
 70
0
  3
Dotted .  .  .  .
 72
65
 73
2
 40
0.2
 49
0.0
 49
-0.2
  0
ENDTAB
  0
TABLE
  2
STYLE
  70
4
  0
STYLE
  2
KICAD
  70
0
  40
0
  41
1
  42
1
  50
0
  71
0
  3
isocp.shx
  0
STYLE
  2
KICADB
  70
0
  40
0
  41
1
  42
1
  50
0
  71
0
  3
isocp.shx
  0
STYLE
  2
KICADI
  70
0
  40
0
  41
1
  42
1
  50
15
  71
0
  3
isocp.shx
  0
STYLE
  2
KICADBI
  70
0
  40
0
  41
1
  42
1
  50
15
  71
0
  3
isocp.shx
  0
ENDTAB
  0
TABLE
  2
LAYER
  70
1
  0
LAYER
  2
BLACK
  70
0
  62
7
  6
CONTINUOUS
  0
ENDTAB
  0
ENDSEC
  0
SECTION
  2
ENTITIES
0
LINE
8
BLACK
6
CONTINUOUS
10
0.424616
20
0.197115
11
0.424487
21
0.197092
0
LINE
8
BLACK
6
CONTINUOUS
10
0.424487
20
0.197092
11
0.424374
21
0.197158
0
LINE
8
BLACK
6
CONTINUOUS
10
0.424374
20
0.197158
11
0.42399
21
0.197225
0
LINE
8
BLACK
6
CONTINUOUS
10
0.42399
20
0.197225
11
0.423402
21
0.197718
0
LINE
8
BLACK
6
CONTINUOUS
10
0.423402
20
0.197718
11
0.422738
21
0.198102
0
LINE
8
BLACK
6
CONTINUOUS
10
0.422738
20
0.198102
11
0.422647
21
0.198352
0
LINE
8
BLACK
6
CONTINUOUS
10
0.422647
20
0.198352
11
0.422443
21
0.198524
0
LINE
8
BLACK
6
CONTINUOUS
10
0.422443
20
0.198524
11
0.42231
21
0.199279
0
LINE
8
BLACK
6
CONTINUOUS
10
0.42231
20
0.199279
11
0.422047
21
0.2
0
LINE
8
BLACK
6
CONTINUOUS
10
0.422047
20
0.2
11
0.422047
21
0.4
0
LINE
8
BLACK
6
CONTINUOUS
10
0.422047
20
0.4
11
0.422115
21
0.400384
0
LINE
8
BLACK
6
CONTINUOUS
10
0.422115
20
0.400384
11
0.422092
21
0.400513
0
LINE
8
BLACK
6
CONTINUOUS
10
0.422092
20
0.400513
11
0.422158
21
0.400626
0
LINE
8
BLACK
6
CONTINUOUS
10
0.422158
20
0.400626
11
0.422225
21
0.40101
0
LINE
8
BLACK
6
CONTINUOUS
10
0.422225
20
0.40101
11
0.422718
21
0.401598
0
LINE
8
BLACK
6
CONTINUOUS
10
0.422718
20
0.401598
11
0.423102
21
0.402262
0
LINE
8
BLACK
6
CONTINUOUS
10
0.423102
20
0.402262
11
0.423352
21
0.402353
0
LINE
8
BLACK
6
CONTINUOUS
10
0.423352
20
0.402353
11
0.423524
21
0.402557
0
LINE
8
BLACK
6
CONTINUOUS
10
0.423524
20
0.402557
11
0.424279
21
0.40269
0
LINE
8
BLACK
6
CONTINUOUS
10
0.424279
20
0.40269
11
0.425
21
0.402953
0
LINE
8
BLACK
6
CONTINUOUS
10
0.425
20
0.402953
11
1.425
21
0.402953
0
LINE
8
BLACK
6
CONTINUOUS
10
1.425
20
0.402953
11
1.42538
21
0.402885
0
LINE
8
BLACK
6
CONTINUOUS
10
1.42538
20
0.402885
11
1.42551
21
0.402908
0
LINE
8
BLACK
6
CONTINUOUS
10
1.42551
20
0.402908
11
1.42563
21
0.402842
0
LINE
8
BLACK
6
CONTINUOUS
10
1.42563
20
0.402842
11
1.42601
21
0.402775
0
LINE
8
BLACK
6
CONTINUOUS
10
1.42601
20
0.402775
11
1.4266
21
0.402282
0
LINE
8
BLACK
6
CONTINUOUS
10
1.4266
20
0.402282
11
1.42726
21
0.401898
0
LINE
8
BLACK
6
CONTINUOUS
10
1.42726
20
0.401898
11
1.42735
21
0.401648
0
LINE
8
BLACK
6
CONTINUOUS
10
1.42735
20
0.401648
11
1.42756
21
0.401476
0
LINE
8
BLACK
6
CONTINUOUS
10
1.42756
20
0.401476
11
1.42769
21
0.400721
0
LINE
8
BLACK
6
CONTINUOUS
10
1.42769
20
0.400721
11
1.42795
21
0.4
0
LINE
8
BLACK
6
CONTINUOUS
10
1.42795
20
0.4
11
1.42795
21
0.2
0
LINE
8
BLACK
6
CONTINUOUS
10
1.42795
20
0.2
11
1.42789
21
0.199616
0
LINE
8
BLACK
6
CONTINUOUS
10
1.42789
20
0.199616
11
1.42791
21
0.199487
0
LINE
8
BLACK
6
CONTINUOUS
10
1.42791
20
0.199487
11
1.42784
21
0.199374
0
LINE
8
BLACK
6
CONTINUOUS
10
1.42784
20
0.199374
11
1.42777
21
0.19899
0
LINE
8
BLACK
6
CONTINUOUS
10
1.42777
20
0.19899
11
1.42728
21
0.198402
0
LINE
8
BLACK
6
CONTINUOUS
10
1.42728
20
0.198402
11
1.4269
21
0.197738
0
LINE
8
BLACK
6
CONTINUOUS
10
1.4269
20
0.197738
11
1.42665
21
0.197647
0
LINE
8
BLACK
6
CONTINUOUS
10
1.42665
20
0.197647
11
1.42648
21
0.197443
0
LINE
8
BLACK
6
CONTINUOUS
10
1.42648
20
0.197443
11
1.42572
21
0.19731
0
LINE
8
BLACK
6
CONTINUOUS
10
1.42572
20
0.19731
11
1.425
21
0.197047
0
LINE
8
BLACK
6
CONTINUOUS
10
1.425
20
0.197047
11
0.425
21
0.197047
0
LINE
8
BLACK
6
CONTINUOUS
10
0.425
20
0.197047
11
0.424616
21
0.197115
0
LINE
8
BLACK
6
CONTINUOUS
10
1.32795
20
0.397047
11
1.32795
21
0.202953
0
LINE
8
BLACK
6
CONTINUOUS
10
1.32795
20
0.202953
11
1.42205
21
0.202953
0
LINE
8
BLACK
6
CONTINUOUS
10
1.42205
20
0.202953
11
1.42205
21
0.397047
0
LINE
8
BLACK
6
CONTINUOUS
10
1.42205
20
0.397047
11
1.32795
21
0.397047
0
LINE
8
BLACK
6
CONTINUOUS
10
1.22795
20
0.397047
11
1.22795
21
0.202953
0
LINE
8
BLACK
6
CONTINUOUS
10
1.22795
20
0.202953
11
1.32205
21
0.202953
0
LINE
8
BLACK
6
CONTINUOUS
10
1.32205
20
0.202953
11
1.32205
21
0.397047
0
LINE
8
BLACK
6
CONTINUOUS
10
1.32205
20
0.397047
11
1.22795
21
0.397047
0
LINE
8
BLACK
6
CONTINUOUS
10
1.12795
20
0.397047
11
1.12795
21
0.202953
0
LINE
8
BLACK
6
CONTINUOUS
10
1.12795
20
0.202953
11
1.22205
21
0.202953
0
LINE
8
BLACK
6
CONTINUOUS
10
1.22205
20
0.202953
11
1.22205
21
0.397047
0
LINE
8
BLACK
6
CONTINUOUS
10
1.22205
20
0.397047
11
1.12795
21
0.397047
0
LINE
8
BLACK
6
CONTINUOUS
10
1.02795
20
0.397047
11
1.02795
21
0.202953
0
LINE
8
BLACK
6
CONTINUOUS
10
1.02795
20
0.202953
11
1.12205
21
0.202953
0
LINE
8
BLACK
6
CONTINUOUS
10
1.12205
20
0.202953
11
1.12205
21
0.397047
0
LINE
8
BLACK
6
CONTINUOUS
10
1.12205
20
0.397047
11
1.02795
21
0.397047
0
LINE
8
BLACK
6
CONTINUOUS
10
0.927953
20
0.397047
11
0.927953
21
0.202953
0
LINE
8
BLACK
6
CONTINUOUS
10
0.927953
20
0.202953
11
1.02205
21
0.202953
0
LINE
8
BLACK
6
CONTINUOUS
10
1.02205
20
0.202953
11
1.02205
21
0.397047
0
LINE
8
BLACK
6
CONTINUOUS
10
1.02205
20
0.397047
11
0.927953
21
0.397047
0
LINE
8
BLACK
6
CONTINUOUS
10
0.827953
20
0.397047
11
0.827953
21
0.202953
0
LINE
8
BLACK
6
CONTINUOUS
10
0.827953
20
0.202953
11
0.922047
21
0.202953
0
LINE
8
BLACK
6
CONTINUOUS
10
0.922047
20
0.202953
11
0.922047
21
0.397047
0
LINE
8
BLACK
6
CONTINUOUS
10
0.922047
20
0.397047
11
0.827953
21
0.397047
0
LINE
8
BLACK
6
CONTINUOUS
10
0.727953
20
0.397047
11
0.727953
21
0.202953
0
LINE
8
BLACK
6
CONTINUOUS
10
0.727953
20
0.202953
11
0.822047
21
0.202953
0
LINE
8
BLACK
6
CONTINUOUS
10
0.822047
20
0.202953
11
0.822047
21
0.397047
0
LINE
8
BLACK
6
CONTINUOUS
10
0.822047
20
0.397047
11
0.727953
21
0.397047
0
LINE
8
BLACK
6
CONTINUOUS
10
0.627953
20
0.397047
11
0.627953
21
0.202953
0
LINE
8
BLACK
6
CONTINUOUS
10
0.627953
20
0.202953
11
0.722047
21
0.202953
0
LINE
8
BLACK
6
CONTINUOUS
10
0.722047
20
0.202953
11
0.722047
21
0.397047
0
LINE
8
BLACK
6
CONTINUOUS
10
0.722047
20
0.397047
11
0.627953
21
0.397047
0
LINE
8
BLACK
6
CONTINUOUS
10
0.527953
20
0.397047
11
0.527953
21
0.202953
0
LINE
8
BLACK
6
CONTINUOUS
10
0.527953
20
0.202953
11
0.622047
21
0.202953
0
LINE
8
BLACK
6
CONTINUOUS
10
0.622047
20
0.202953
11
0.622047
21
0.397047
0
LINE
8
BLACK
6
CONTINUOUS
10
0.622047
20
0.397047
11
0.527953
21
0.397047
0
LINE
8
BLACK
6
CONTINUOUS
10
0.427953
20
0.397047
11
0.427953
21
0.202953
0
LINE
8
BLACK
6
CONTINUOUS
10
0.427953
20
0.202953
11
0.522047
21
0.202953
0
LINE
8
BLACK
6
CONTINUOUS
10
0.522047
20
0.202953
11
0.522047
21
0.397047
0
LINE
8
BLACK
6
CONTINUOUS
10
0.522047
20
0.397047
11
0.427953
21
0.397047
0
LINE
8
BLACK
6
CONTINUOUS
10
1.74853
20
0.264274
11
1.76359
21
0.249212
0
LINE
8
BLACK
6
CONTINUOUS
10
1.76359
20
0.249212
11
1.78404
21
0.264548
0
LINE
8
BLACK
6
CONTINUOUS
10
1.78404
20
0.264548
11
1.78495
21
0.265012
0
LINE
8
BLACK
6
CONTINUOUS
10
1.78495
20
0.265012
11
1.78697
21
0.264901
0
LINE
8
BLACK
6
CONTINUOUS
10
1.78697
20
0.264901
11
1.78844
21
0.26352
0
LINE
8
BLACK
6
CONTINUOUS
10
1.78844
20
0.26352
11
1.78869
21
0.261515
0
LINE
8
BLACK
6
CONTINUOUS
10
1.78869
20
0.261515
11
1.78758
21
0.259824
0
LINE
8
BLACK
6
CONTINUOUS
10
1.78758
20
0.259824
11
1.76781
21
0.244994
0
LINE
8
BLACK
6
CONTINUOUS
10
1.76781
20
0.244994
11
1.77016
21
0.242642
0
LINE
8
BLACK
6
CONTINUOUS
10
1.77016
20
0.242642
11
1.78581
21
0.242642
0
LINE
8
BLACK
6
CONTINUOUS
10
1.78581
20
0.242642
11
1.78682
21
0.242463
0
LINE
8
BLACK
6
CONTINUOUS
10
1.78682
20
0.242463
11
1.78837
21
0.241165
0
LINE
8
BLACK
6
CONTINUOUS
10
1.78837
20
0.241165
11
1.78872
21
0.239176
0
LINE
8
BLACK
6
CONTINUOUS
10
1.78872
20
0.239176
11
1.78771
21
0.237427
0
LINE
8
BLACK
6
CONTINUOUS
10
1.78771
20
0.237427
11
1.78581
21
0.236736
0
LINE
8
BLACK
6
CONTINUOUS
10
1.78581
20
0.236736
11
1.74644
21
0.236736
0
LINE
8
BLACK
6
CONTINUOUS
10
1.74644
20
0.236736
11
1.74543
21
0.236914
0
LINE
8
BLACK
6
CONTINUOUS
10
1.74543
20
0.236914
11
1.74388
21
0.238212
0
LINE
8
BLACK
6
CONTINUOUS
10
1.74388
20
0.238212
11
1.74353
21
0.240202
0
LINE
8
BLACK
6
CONTINUOUS
10
1.74353
20
0.240202
11
1.74454
21
0.241951
0
LINE
8
BLACK
6
CONTINUOUS
10
1.74454
20
0.241951
11
1.74644
21
0.242642
0
LINE
8
BLACK
6
CONTINUOUS
10
1.74644
20
0.242642
11
1.76181
21
0.242642
0
LINE
8
BLACK
6
CONTINUOUS
10
1.76181
20
0.242642
11
1.74435
21
0.260098
0
LINE
8
BLACK
6
CONTINUOUS
10
1.74435
20
0.260098
11
1.74376
21
0.260938
0
LINE
8
BLACK
6
CONTINUOUS
10
1.74376
20
0.260938
11
1.74359
21
0.26295
0
LINE
8
BLACK
6
CONTINUOUS
10
1.74359
20
0.26295
11
1.74475
21
0.264605
0
LINE
8
BLACK
6
CONTINUOUS
10
1.74475
20
0.264605
11
1.7467
21
0.265127
0
LINE
8
BLACK
6
CONTINUOUS
10
1.7467
20
0.265127
11
1.74853
21
0.264274
0
LINE
8
BLACK
6
CONTINUOUS
10
1.88853
20
0.264274
11
1.90359
21
0.249212
0
LINE
8
BLACK
6
CONTINUOUS
10
1.90359
20
0.249212
11
1.92404
21
0.264548
0
LINE
8
BLACK
6
CONTINUOUS
10
1.92404
20
0.264548
11
1.92495
21
0.265012
0
LINE
8
BLACK
6
CONTINUOUS
10
1.92495
20
0.265012
11
1.92697
21
0.264901
0
LINE
8
BLACK
6
CONTINUOUS
10
1.92697
20
0.264901
11
1.92844
21
0.26352
0
LINE
8
BLACK
6
CONTINUOUS
10
1.92844
20
0.26352
11
1.92869
21
0.261515
0
LINE
8
BLACK
6
CONTINUOUS
10
1.92869
20
0.261515
11
1.92758
21
0.259824
0
LINE
8
BLACK
6
CONTINUOUS
10
1.92758
20
0.259824
11
1.90781
21
0.244994
0
LINE
8
BLACK
6
CONTINUOUS
10
1.90781
20
0.244994
11
1.91016
21
0.242642
0
LINE
8
BLACK
6
CONTINUOUS
10
1.91016
20
0.242642
11
1.92581
21
0.242642
0
LINE
8
BLACK
6
CONTINUOUS
10
1.92581
20
0.242642
11
1.92682
21
0.242463
0
LINE
8
BLACK
6
CONTINUOUS
10
1.92682
20
0.242463
11
1.92837
21
0.241165
0
LINE
8
BLACK
6
CONTINUOUS
10
1.92837
20
0.241165
11
1.92872
21
0.239176
0
LINE
8
BLACK
6
CONTINUOUS
10
1.92872
20
0.239176
11
1.92771
21
0.237427
0
LINE
8
BLACK
6
CONTINUOUS
10
1.92771
20
0.237427
11
1.92581
21
0.236736
0
LINE
8
BLACK
6
CONTINUOUS
10
1.92581
20
0.236736
11
1.88644
21
0.236736
0
LINE
8
BLACK
6
CONTINUOUS
10
1.88644
20
0.236736
11
1.88543
21
0.236914
0
LINE
8
BLACK
6
CONTINUOUS
10
1.88543
20
0.236914
11
1.88388
21
0.238212
0
LINE
8
BLACK
6
CONTINUOUS
10
1.88388
20
0.238212
11
1.88353
21
0.240202
0
LINE
8
BLACK
6
CONTINUOUS
10
1.88353
20
0.240202
11
1.88454
21
0.241951
0
LINE
8
BLACK
6
CONTINUOUS
10
1.88454
20
0.241951
11
1.88644
21
0.242642
0
LINE
8
BLACK
6
CONTINUOUS
10
1.88644
20
0.242642
11
1.90181
21
0.242642
0
LINE
8
BLACK
6
CONTINUOUS
10
1.90181
20
0.242642
11
1.88435
21
0.260098
0
LINE
8
BLACK
6
CONTINUOUS
10
1.88435
20
0.260098
11
1.88376
21
0.260938
0
LINE
8
BLACK
6
CONTINUOUS
10
1.88376
20
0.260938
11
1.88359
21
0.26295
0
LINE
8
BLACK
6
CONTINUOUS
10
1.88359
20
0.26295
11
1.88475
21
0.264605
0
LINE
8
BLACK
6
CONTINUOUS
10
1.88475
20
0.264605
11
1.8867
21
0.265127
0
LINE
8
BLACK
6
CONTINUOUS
10
1.8867
20
0.265127
11
1.88853
21
0.264274
0
LINE
8
BLACK
6
CONTINUOUS
10
0.250384
20
0.687885
11
0.250513
21
0.687908
0
LINE
8
BLACK
6
CONTINUOUS
10
0.250513
20
0.687908
11
0.250626
21
0.687842
0
LINE
8
BLACK
6
CONTINUOUS
10
0.250626
20
0.687842
11
0.25101
21
0.687775
0
LINE
8
BLACK
6
CONTINUOUS
10
0.25101
20
0.687775
11
0.251598
21
0.687282
0
LINE
8
BLACK
6
CONTINUOUS
10
0.251598
20
0.687282
11
0.252262
21
0.686898
0
LINE
8
BLACK
6
CONTINUOUS
10
0.252262
20
0.686898
11
0.252353
21
0.686648
0
LINE
8
BLACK
6
CONTINUOUS
10
0.252353
20
0.686648
11
0.252557
21
0.686476
0
LINE
8
BLACK
6
CONTINUOUS
10
0.252557
20
0.686476
11
0.25269
21
0.685721
0
LINE
8
BLACK
6
CONTINUOUS
10
0.25269
20
0.685721
11
0.252953
21
0.685
0
LINE
8
BLACK
6
CONTINUOUS
10
0.252953
20
0.685
11
0.252953
21
0.385
0
LINE
8
BLACK
6
CONTINUOUS
10
0.252953
20
0.385
11
0.252885
21
0.384616
0
LINE
8
BLACK
6
CONTINUOUS
10
0.252885
20
0.384616
11
0.252908
21
0.384487
0
LINE
8
BLACK
6
CONTINUOUS
10
0.252908
20
0.384487
11
0.252842
21
0.384374
0
LINE
8
BLACK
6
CONTINUOUS
10
0.252842
20
0.384374
11
0.252775
21
0.38399
0
LINE
8
BLACK
6
CONTINUOUS
10
0.252775
20
0.38399
11
0.252282
21
0.383402
0
LINE
8
BLACK
6
CONTINUOUS
10
0.252282
20
0.383402
11
0.251898
21
0.382738
0
LINE
8
BLACK
6
CONTINUOUS
10
0.251898
20
0.382738
11
0.251648
21
0.382647
0
LINE
8
BLACK
6
CONTINUOUS
10
0.251648
20
0.382647
11
0.251476
21
0.382443
0
LINE
8
BLACK
6
CONTINUOUS
10
0.251476
20
0.382443
11
0.250721
21
0.38231
0
LINE
8
BLACK
6
CONTINUOUS
10
0.250721
20
0.38231
11
0.25
21
0.382047
0
LINE
8
BLACK
6
CONTINUOUS
10
0.25
20
0.382047
11
0.05
21
0.382047
0
LINE
8
BLACK
6
CONTINUOUS
10
0.05
20
0.382047
11
0.0496165
21
0.382115
0
LINE
8
BLACK
6
CONTINUOUS
10
0.0496165
20
0.382115
11
0.0494872
21
0.382092
0
LINE
8
BLACK
6
CONTINUOUS
10
0.0494872
20
0.382092
11
0.0493736
21
0.382158
0
LINE
8
BLACK
6
CONTINUOUS
10
0.0493736
20
0.382158
11
0.0489901
21
0.382225
0
LINE
8
BLACK
6
CONTINUOUS
10
0.0489901
20
0.382225
11
0.0484024
21
0.382718
0
LINE
8
BLACK
6
CONTINUOUS
10
0.0484024
20
0.382718
11
0.0477381
21
0.383102
0
LINE
8
BLACK
6
CONTINUOUS
10
0.0477381
20
0.383102
11
0.047647
21
0.383352
0
LINE
8
BLACK
6
CONTINUOUS
10
0.047647
20
0.383352
11
0.0474428
21
0.383524
0
LINE
8
BLACK
6
CONTINUOUS
10
0.0474428
20
0.383524
11
0.0473096
21
0.384279
0
LINE
8
BLACK
6
CONTINUOUS
10
0.0473096
20
0.384279
11
0.0470472
21
0.385
0
LINE
8
BLACK
6
CONTINUOUS
10
0.0470472
20
0.385
11
0.0470472
21
0.685
0
LINE
8
BLACK
6
CONTINUOUS
10
0.0470472
20
0.685
11
0.0471149
21
0.685384
0
LINE
8
BLACK
6
CONTINUOUS
10
0.0471149
20
0.685384
11
0.0470921
21
0.685513
0
LINE
8
BLACK
6
CONTINUOUS
10
0.0470921
20
0.685513
11
0.0471577
21
0.685626
0
LINE
8
BLACK
6
CONTINUOUS
10
0.0471577
20
0.685626
11
0.0472253
21
0.68601
0
LINE
8
BLACK
6
CONTINUOUS
10
0.0472253
20
0.68601
11
0.0477185
21
0.686598
0
LINE
8
BLACK
6
CONTINUOUS
10
0.0477185
20
0.686598
11
0.048102
21
0.687262
0
LINE
8
BLACK
6
CONTINUOUS
10
0.048102
20
0.687262
11
0.0483524
21
0.687353
0
LINE
8
BLACK
6
CONTINUOUS
10
0.0483524
20
0.687353
11
0.0485236
21
0.687557
0
LINE
8
BLACK
6
CONTINUOUS
10
0.0485236
20
0.687557
11
0.0492792
21
0.68769
0
LINE
8
BLACK
6
CONTINUOUS
10
0.0492792
20
0.68769
11
0.05
21
0.687953
0
LINE
8
BLACK
6
CONTINUOUS
10
0.05
20
0.687953
11
0.25
21
0.687953
0
LINE
8
BLACK
6
CONTINUOUS
10
0.25
20
0.687953
11
0.250384
21
0.687885
0
LINE
8
BLACK
6
CONTINUOUS
10
0.0529528
20
0.682047
11
0.0529528
21
0.387953
0
LINE
8
BLACK
6
CONTINUOUS
10
0.0529528
20
0.387953
11
0.247047
21
0.387953
0
LINE
8
BLACK
6
CONTINUOUS
10
0.247047
20
0.387953
11
0.247047
21
0.682047
0
LINE
8
BLACK
6
CONTINUOUS
10
0.247047
20
0.682047
11
0.0529528
21
0.682047
0
LINE
8
BLACK
6
CONTINUOUS
10
2.33818
20
0.76568
11
2.33831
21
0.765703
0
LINE
8
BLACK
6
CONTINUOUS
10
2.33831
20
0.765703
11
2.33842
21
0.765638
0
LINE
8
BLACK
6
CONTINUOUS
10
2.33842
20
0.765638
11
2.33881
21
0.76557
0
LINE
8
BLACK
6
CONTINUOUS
10
2.33881
20
0.76557
11
2.33939
21
0.765077
0
LINE
8
BLACK
6
CONTINUOUS
10
2.33939
20
0.765077
11
2.34006
21
0.764693
0
LINE
8
BLACK
6
CONTINUOUS
10
2.34006
20
0.764693
11
2.34015
21
0.764443
0
LINE
8
BLACK
6
CONTINUOUS
10
2.34015
20
0.764443
11
2.34035
21
0.764272
0
LINE
8
BLACK
6
CONTINUOUS
10
2.34035
20
0.764272
11
2.34049
21
0.763516
0
LINE
8
BLACK
6
CONTINUOUS
10
2.34049
20
0.763516
11
2.34075
21
0.762795
0
LINE
8
BLACK
6
CONTINUOUS
10
2.34075
20
0.762795
11
2.34075
21
0.487205
0
LINE
8
BLACK
6
CONTINUOUS
10
2.34075
20
0.487205
11
2.34068
21
0.486821
0
LINE
8
BLACK
6
CONTINUOUS
10
2.34068
20
0.486821
11
2.3407
21
0.486692
0
LINE
8
BLACK
6
CONTINUOUS
10
2.3407
20
0.486692
11
2.34064
21
0.486578
0
LINE
8
BLACK
6
CONTINUOUS
10
2.34064
20
0.486578
11
2.34057
21
0.486195
0
LINE
8
BLACK
6
CONTINUOUS
10
2.34057
20
0.486195
11
2.34008
21
0.485607
0
LINE
8
BLACK
6
CONTINUOUS
10
2.34008
20
0.485607
11
2.33969
21
0.484943
0
LINE
8
BLACK
6
CONTINUOUS
10
2.33969
20
0.484943
11
2.33944
21
0.484852
0
LINE
8
BLACK
6
CONTINUOUS
10
2.33944
20
0.484852
11
2.33927
21
0.484648
0
LINE
8
BLACK
6
CONTINUOUS
10
2.33927
20
0.484648
11
2.33852
21
0.484514
0
LINE
8
BLACK
6
CONTINUOUS
10
2.33852
20
0.484514
11
2.3378
21
0.484252
0
LINE
8
BLACK
6
CONTINUOUS
10
2.3378
20
0.484252
11
2.0622
21
0.484252
0
LINE
8
BLACK
6
CONTINUOUS
10
2.0622
20
0.484252
11
2.06182
21
0.48432
0
LINE
8
BLACK
6
CONTINUOUS
10
2.06182
20
0.48432
11
2.06169
21
0.484297
0
LINE
8
BLACK
6
CONTINUOUS
10
2.06169
20
0.484297
11
2.06158
21
0.484362
0
LINE
8
BLACK
6
CONTINUOUS
10
2.06158
20
0.484362
11
2.06119
21
0.48443
0
LINE
8
BLACK
6
CONTINUOUS
10
2.06119
20
0.48443
11
2.06061
21
0.484923
0
LINE
8
BLACK
6
CONTINUOUS
10
2.06061
20
0.484923
11
2.05994
21
0.485307
0
LINE
8
BLACK
6
CONTINUOUS
10
2.05994
20
0.485307
11
2.05985
21
0.485557
0
LINE
8
BLACK
6
CONTINUOUS
10
2.05985
20
0.485557
11
2.05965
21
0.485728
0
LINE
8
BLACK
6
CONTINUOUS
10
2.05965
20
0.485728
11
2.05951
21
0.486484
0
LINE
8
BLACK
6
CONTINUOUS
10
2.05951
20
0.486484
11
2.05925
21
0.487205
0
LINE
8
BLACK
6
CONTINUOUS
10
2.05925
20
0.487205
11
2.05925
21
0.762795
0
LINE
8
BLACK
6
CONTINUOUS
10
2.05925
20
0.762795
11
2.05932
21
0.763179
0
LINE
8
BLACK
6
CONTINUOUS
10
2.05932
20
0.763179
11
2.0593
21
0.763308
0
LINE
8
BLACK
6
CONTINUOUS
10
2.0593
20
0.763308
11
2.05936
21
0.763422
0
LINE
8
BLACK
6
CONTINUOUS
10
2.05936
20
0.763422
11
2.05943
21
0.763805
0
LINE
8
BLACK
6
CONTINUOUS
10
2.05943
20
0.763805
11
2.05992
21
0.764393
0
LINE
8
BLACK
6
CONTINUOUS
10
2.05992
20
0.764393
11
2.06031
21
0.765057
0
LINE
8
BLACK
6
CONTINUOUS
10
2.06031
20
0.765057
11
2.06056
21
0.765148
0
LINE
8
BLACK
6
CONTINUOUS
10
2.06056
20
0.765148
11
2.06073
21
0.765352
0
LINE
8
BLACK
6
CONTINUOUS
10
2.06073
20
0.765352
11
2.06148
21
0.765486
0
LINE
8
BLACK
6
CONTINUOUS
10
2.06148
20
0.765486
11
2.0622
21
0.765748
0
LINE
8
BLACK
6
CONTINUOUS
10
2.0622
20
0.765748
11
2.3378
21
0.765748
0
LINE
8
BLACK
6
CONTINUOUS
10
2.3378
20
0.765748
11
2.33818
21
0.76568
0
LINE
8
BLACK
6
CONTINUOUS
10
2.06516
20
0.759843
11
2.06516
21
0.490157
0
LINE
8
BLACK
6
CONTINUOUS
10
2.06516
20
0.490157
11
2.33484
21
0.490157
0
LINE
8
BLACK
6
CONTINUOUS
10
2.33484
20
0.490157
11
2.33484
21
0.759843
0
LINE
8
BLACK
6
CONTINUOUS
10
2.33484
20
0.759843
11
2.06516
21
0.759843
0
LINE
8
BLACK
6
CONTINUOUS
10
2.1149
20
0.647803
11
2.1186
21
0.658715
0
LINE
8
BLACK
6
CONTINUOUS
10
2.1186
20
0.658715
11
2.1237
21
0.669051
0
LINE
8
BLACK
6
CONTINUOUS
10
2.1237
20
0.669051
11
2.1301
21
0.678633
0
LINE
8
BLACK
6
CONTINUOUS
10
2.1301
20
0.678633
11
2.1377
21
0.687298
0
LINE
8
BLACK
6
CONTINUOUS
10
2.1377
20
0.687298
11
2.14637
21
0.694896
0
LINE
8
BLACK
6
CONTINUOUS
10
2.14637
20
0.694896
11
2.15595
21
0.701299
0
LINE
8
BLACK
6
CONTINUOUS
10
2.15595
20
0.701299
11
2.16628
21
0.706396
0
LINE
8
BLACK
6
CONTINUOUS
10
2.16628
20
0.706396
11
2.1772
21
0.7101
0
LINE
8
BLACK
6
CONTINUOUS
10
2.1772
20
0.7101
11
2.1885
21
0.712349
0
LINE
8
BLACK
6
CONTINUOUS
10
2.1885
20
0.712349
11
2.2
21
0.713102
0
LINE
8
BLACK
6
CONTINUOUS
10
2.2
20
0.713102
11
2.2115
21
0.712349
0
LINE
8
BLACK
6
CONTINUOUS
10
2.2115
20
0.712349
11
2.2228
21
0.7101
0
LINE
8
BLACK
6
CONTINUOUS
10
2.2228
20
0.7101
11
2.23372
21
0.706396
0
LINE
8
BLACK
6
CONTINUOUS
10
2.23372
20
0.706396
11
2.24405
21
0.701299
0
LINE
8
BLACK
6
CONTINUOUS
10
2.24405
20
0.701299
11
2.25363
21
0.694896
0
LINE
8
BLACK
6
CONTINUOUS
10
2.25363
20
0.694896
11
2.2623
21
0.687298
0
LINE
8
BLACK
6
CONTINUOUS
10
2.2623
20
0.687298
11
2.2699
21
0.678633
0
LINE
8
BLACK
6
CONTINUOUS
10
2.2699
20
0.678633
11
2.2763
21
0.669051
0
LINE
8
BLACK
6
CONTINUOUS
10
2.2763
20
0.669051
11
2.2814
21
0.658715
0
LINE
8
BLACK
6
CONTINUOUS
10
2.2814
20
0.658715
11
2.2851
21
0.647803
0
LINE
8
BLACK
6
CONTINUOUS
10
2.2851
20
0.647803
11
2.28735
21
0.6365
0
LINE
8
BLACK
6
CONTINUOUS
10
2.28735
20
0.6365
11
2.2881
21
0.625
0
LINE
8
BLACK
6
CONTINUOUS
10
2.2881
20
0.625
11
2.28735
21
0.6135
0
LINE
8
BLACK
6
CONTINUOUS
10
2.28735
20
0.6135
11
2.2851
21
0.602197
0
LINE
8
BLACK
6
CONTINUOUS
10
2.2851
20
0.602197
11
2.2814
21
0.591285
0
LINE
8
BLACK
6
CONTINUOUS
10
2.2814
20
0.591285
11
2.2763
21
0.580949
0
LINE
8
BLACK
6
CONTINUOUS
10
2.2763
20
0.580949
11
2.2699
21
0.571367
0
LINE
8
BLACK
6
CONTINUOUS
10
2.2699
20
0.571367
11
2.2623
21
0.562702
0
LINE
8
BLACK
6
CONTINUOUS
10
2.2623
20
0.562702
11
2.25363
21
0.555104
0
LINE
8
BLACK
6
CONTINUOUS
10
2.25363
20
0.555104
11
2.24405
21
0.548701
0
LINE
8
BLACK
6
CONTINUOUS
10
2.24405
20
0.548701
11
2.23372
21
0.543604
0
LINE
8
BLACK
6
CONTINUOUS
10
2.23372
20
0.543604
11
2.2228
21
0.5399
0
LINE
8
BLACK
6
CONTINUOUS
10
2.2228
20
0.5399
11
2.2115
21
0.537651
0
LINE
8
BLACK
6
CONTINUOUS
10
2.2115
20
0.537651
11
2.2
21
0.536898
0
LINE
8
BLACK
6
CONTINUOUS
10
2.2
20
0.536898
11
2.1885
21
0.537651
0
LINE
8
BLACK
6
CONTINUOUS
10
2.1885
20
0.537651
11
2.1772
21
0.5399
0
LINE
8
BLACK
6
CONTINUOUS
10
2.1772
20
0.5399
11
2.16628
21
0.543604
0
LINE
8
BLACK
6
CONTINUOUS
10
2.16628
20
0.543604
11
2.15595
21
0.548701
0
LINE
8
BLACK
6
CONTINUOUS
10
2.15595
20
0.548701
11
2.14637
21
0.555104
0
LINE
8
BLACK
6
CONTINUOUS
10
2.14637
20
0.555104
11
2.1377
21
0.562702
0
LINE
8
BLACK
6
CONTINUOUS
10
2.1377
20
0.562702
11
2.1301
21
0.571367
0
LINE
8
BLACK
6
CONTINUOUS
10
2.1301
20
0.571367
11
2.1237
21
0.580949
0
LINE
8
BLACK
6
CONTINUOUS
10
2.1237
20
0.580949
11
2.1186
21
0.591285
0
LINE
8
BLACK
6
CONTINUOUS
10
2.1186
20
0.591285
11
2.1149
21
0.602197
0
LINE
8
BLACK
6
CONTINUOUS
10
2.1149
20
0.602197
11
2.11265
21
0.6135
0
LINE
8
BLACK
6
CONTINUOUS
10
2.11265
20
0.6135
11
2.1119
21
0.625
0
LINE
8
BLACK
6
CONTINUOUS
10
2.1119
20
0.625
11
2.11195
21
0.625863
0
LINE
8
BLACK
6
CONTINUOUS
10
2.11195
20
0.625863
11
2.11265
21
0.6365
0
LINE
8
BLACK
6
CONTINUOUS
10
2.11265
20
0.6365
11
2.1149
21
0.647803
0
LINE
8
BLACK
6
CONTINUOUS
10
2.12042
20
0.603676
11
2.12405
21
0.593073
0
LINE
8
BLACK
6
CONTINUOUS
10
2.12405
20
0.593073
11
2.12908
21
0.583061
0
LINE
8
BLACK
6
CONTINUOUS
10
2.12908
20
0.583061
11
2.13543
21
0.573824
0
LINE
8
BLACK
6
CONTINUOUS
10
2.13543
20
0.573824
11
2.14298
21
0.565535
0
LINE
8
BLACK
6
CONTINUOUS
10
2.14298
20
0.565535
11
2.15157
21
0.558346
0
LINE
8
BLACK
6
CONTINUOUS
10
2.15157
20
0.558346
11
2.16107
21
0.55239
0
LINE
8
BLACK
6
CONTINUOUS
10
2.16107
20
0.55239
11
2.17128
21
0.547778
0
LINE
8
BLACK
6
CONTINUOUS
10
2.17128
20
0.547778
11
2.18203
21
0.544595
0
LINE
8
BLACK
6
CONTINUOUS
10
2.18203
20
0.544595
11
2.19311
21
0.5429
0
LINE
8
BLACK
6
CONTINUOUS
10
2.19311
20
0.5429
11
2.20431
21
0.542724
0
LINE
8
BLACK
6
CONTINUOUS
10
2.20431
20
0.542724
11
2.21544
21
0.54407
0
LINE
8
BLACK
6
CONTINUOUS
10
2.21544
20
0.54407
11
2.22628
21
0.546914
0
LINE
8
BLACK
6
CONTINUOUS
10
2.22628
20
0.546914
11
2.23663
21
0.551203
0
LINE
8
BLACK
6
CONTINUOUS
10
2.23663
20
0.551203
11
2.24631
21
0.556858
0
LINE
8
BLACK
6
CONTINUOUS
10
2.24631
20
0.556858
11
2.25513
21
0.563773
0
LINE
8
BLACK
6
CONTINUOUS
10
2.25513
20
0.563773
11
2.26293
21
0.571821
0
LINE
8
BLACK
6
CONTINUOUS
10
2.26293
20
0.571821
11
2.26956
21
0.580854
0
LINE
8
BLACK
6
CONTINUOUS
10
2.26956
20
0.580854
11
2.27491
21
0.590703
0
LINE
8
BLACK
6
CONTINUOUS
10
2.27491
20
0.590703
11
2.27887
21
0.601187
0
LINE
8
BLACK
6
CONTINUOUS
10
2.27887
20
0.601187
11
2.28137
21
0.612112
0
LINE
8
BLACK
6
CONTINUOUS
10
2.28137
20
0.612112
11
2.28237
21
0.623275
0
LINE
8
BLACK
6
CONTINUOUS
10
2.28237
20
0.623275
11
2.28239
21
0.625
0
LINE
8
BLACK
6
CONTINUOUS
10
2.28239
20
0.625
11
2.28163
21
0.636181
0
LINE
8
BLACK
6
CONTINUOUS
10
2.28163
20
0.636181
11
2.27935
21
0.647156
0
LINE
8
BLACK
6
CONTINUOUS
10
2.27935
20
0.647156
11
2.27561
21
0.657721
0
LINE
8
BLACK
6
CONTINUOUS
10
2.27561
20
0.657721
11
2.27047
21
0.66768
0
LINE
8
BLACK
6
CONTINUOUS
10
2.27047
20
0.66768
11
2.26403
21
0.676849
0
LINE
8
BLACK
6
CONTINUOUS
10
2.26403
20
0.676849
11
2.2564
21
0.685059
0
LINE
8
BLACK
6
CONTINUOUS
10
2.2564
20
0.685059
11
2.24773
21
0.692157
0
LINE
8
BLACK
6
CONTINUOUS
10
2.24773
20
0.692157
11
2.23817
21
0.698013
0
LINE
8
BLACK
6
CONTINUOUS
10
2.23817
20
0.698013
11
2.22791
21
0.702518
0
LINE
8
BLACK
6
CONTINUOUS
10
2.22791
20
0.702518
11
2.21713
21
0.705589
0
LINE
8
BLACK
6
CONTINUOUS
10
2.21713
20
0.705589
11
2.20603
21
0.707168
0
LINE
8
BLACK
6
CONTINUOUS
10
2.20603
20
0.707168
11
2.19483
21
0.707226
0
LINE
8
BLACK
6
CONTINUOUS
10
2.19483
20
0.707226
11
2.18372
21
0.705763
0
LINE
8
BLACK
6
CONTINUOUS
10
2.18372
20
0.705763
11
2.17291
21
0.702806
0
LINE
8
BLACK
6
CONTINUOUS
10
2.17291
20
0.702806
11
2.1626
21
0.698409
0
LINE
8
BLACK
6
CONTINUOUS
10
2.1626
20
0.698409
11
2.15298
21
0.692654
0
LINE
8
BLACK
6
CONTINUOUS
10
2.15298
20
0.692654
11
2.14423
21
0.685646
0
LINE
8
BLACK
6
CONTINUOUS
10
2.14423
20
0.685646
11
2.13652
21
0.677517
0
LINE
8
BLACK
6
CONTINUOUS
10
2.13652
20
0.677517
11
2.12998
21
0.668415
0
LINE
8
BLACK
6
CONTINUOUS
10
2.12998
20
0.668415
11
2.12473
21
0.658511
0
LINE
8
BLACK
6
CONTINUOUS
10
2.12473
20
0.658511
11
2.12088
21
0.647986
0
LINE
8
BLACK
6
CONTINUOUS
10
2.12088
20
0.647986
11
2.11849
21
0.637036
0
LINE
8
BLACK
6
CONTINUOUS
10
2.11849
20
0.637036
11
2.11762
21
0.625863
0
LINE
8
BLACK
6
CONTINUOUS
10
2.11762
20
0.625863
11
2.11826
21
0.614674
0
LINE
8
BLACK
6
CONTINUOUS
10
2.11826
20
0.614674
11
2.12042
21
0.603676
0
LINE
8
BLACK
6
CONTINUOUS
10
2.22482
20
0.655156
11
2.22495
21
0.655042
0
LINE
8
BLACK
6
CONTINUOUS
10
2.22495
20
0.655042
11
2.22513
21
0.655022
0
LINE
8
BLACK
6
CONTINUOUS
10
2.22513
20
0.655022
11
2.22989
21
0.652641
0
LINE
8
BLACK
6
CONTINUOUS
10
2.22989
20
0.652641
11
2.2306
21
0.652115
0
LINE
8
BLACK
6
CONTINUOUS
10
2.2306
20
0.652115
11
2.23066
21
0.652088
0
LINE
8
BLACK
6
CONTINUOUS
10
2.23066
20
0.652088
11
2.23304
21
0.649707
0
LINE
8
BLACK
6
CONTINUOUS
10
2.23304
20
0.649707
11
2.23355
21
0.648984
0
LINE
8
BLACK
6
CONTINUOUS
10
2.23355
20
0.648984
11
2.23359
21
0.64894
0
LINE
8
BLACK
6
CONTINUOUS
10
2.23359
20
0.64894
11
2.23597
21
0.644178
0
LINE
8
BLACK
6
CONTINUOUS
10
2.23597
20
0.644178
11
2.23627
21
0.643195
0
LINE
8
BLACK
6
CONTINUOUS
10
2.23627
20
0.643195
11
2.23623
21
0.643023
0
LINE
8
BLACK
6
CONTINUOUS
10
2.23623
20
0.643023
11
2.23629
21
0.642857
0
LINE
8
BLACK
6
CONTINUOUS
10
2.23629
20
0.642857
11
2.23629
21
0.638095
0
LINE
8
BLACK
6
CONTINUOUS
10
2.23629
20
0.638095
11
2.23613
21
0.637226
0
LINE
8
BLACK
6
CONTINUOUS
10
2.23613
20
0.637226
11
2.23613
21
0.637161
0
LINE
8
BLACK
6
CONTINUOUS
10
2.23613
20
0.637161
11
2.23375
21
0.630019
0
LINE
8
BLACK
6
CONTINUOUS
10
2.23375
20
0.630019
11
2.23327
21
0.629117
0
LINE
8
BLACK
6
CONTINUOUS
10
2.23327
20
0.629117
11
2.23311
21
0.629024
0
LINE
8
BLACK
6
CONTINUOUS
10
2.23311
20
0.629024
11
2.23304
21
0.628864
0
LINE
8
BLACK
6
CONTINUOUS
10
2.23304
20
0.628864
11
2.20951
21
0.605334
0
LINE
8
BLACK
6
CONTINUOUS
10
2.20951
20
0.605334
11
2.23333
21
0.605334
0
LINE
8
BLACK
6
CONTINUOUS
10
2.23333
20
0.605334
11
2.23434
21
0.605156
0
LINE
8
BLACK
6
CONTINUOUS
10
2.23434
20
0.605156
11
2.23589
21
0.603857
0
LINE
8
BLACK
6
CONTINUOUS
10
2.23589
20
0.603857
11
2.23624
21
0.601868
0
LINE
8
BLACK
6
CONTINUOUS
10
2.23624
20
0.601868
11
2.23523
21
0.600119
0
LINE
8
BLACK
6
CONTINUOUS
10
2.23523
20
0.600119
11
2.23333
21
0.599428
0
LINE
8
BLACK
6
CONTINUOUS
10
2.23333
20
0.599428
11
2.20238
21
0.599428
0
LINE
8
BLACK
6
CONTINUOUS
10
2.20238
20
0.599428
11
2.20175
21
0.59954
0
LINE
8
BLACK
6
CONTINUOUS
10
2.20175
20
0.59954
11
2.20162
21
0.599529
0
LINE
8
BLACK
6
CONTINUOUS
10
2.20162
20
0.599529
11
2.20155
21
0.599574
0
LINE
8
BLACK
6
CONTINUOUS
10
2.20155
20
0.599574
11
2.20137
21
0.599606
0
LINE
8
BLACK
6
CONTINUOUS
10
2.20137
20
0.599606
11
2.20069
21
0.600178
0
LINE
8
BLACK
6
CONTINUOUS
10
2.20069
20
0.600178
11
2.19996
21
0.600687
0
LINE
8
BLACK
6
CONTINUOUS
10
2.19996
20
0.600687
11
2.19993
21
0.600818
0
LINE
8
BLACK
6
CONTINUOUS
10
2.19993
20
0.600818
11
2.19982
21
0.600905
0
LINE
8
BLACK
6
CONTINUOUS
10
2.19982
20
0.600905
11
2.19967
21
0.60178
0
LINE
8
BLACK
6
CONTINUOUS
10
2.19967
20
0.60178
11
2.19944
21
0.602638
0
LINE
8
BLACK
6
CONTINUOUS
10
2.19944
20
0.602638
11
2.1995
21
0.602761
0
LINE
8
BLACK
6
CONTINUOUS
10
2.1995
20
0.602761
11
2.19947
21
0.602894
0
LINE
8
BLACK
6
CONTINUOUS
10
2.19947
20
0.602894
11
2.19992
21
0.603664
0
LINE
8
BLACK
6
CONTINUOUS
10
2.19992
20
0.603664
11
2.20029
21
0.604469
0
LINE
8
BLACK
6
CONTINUOUS
10
2.20029
20
0.604469
11
2.22837
21
0.632547
0
LINE
8
BLACK
6
CONTINUOUS
10
2.22837
20
0.632547
11
2.23038
21
0.638574
0
LINE
8
BLACK
6
CONTINUOUS
10
2.23038
20
0.638574
11
2.23038
21
0.64216
0
LINE
8
BLACK
6
CONTINUOUS
10
2.23038
20
0.64216
11
2.22853
21
0.64587
0
LINE
8
BLACK
6
CONTINUOUS
10
2.22853
20
0.64587
11
2.22682
21
0.647573
0
LINE
8
BLACK
6
CONTINUOUS
10
2.22682
20
0.647573
11
2.22311
21
0.649428
0
LINE
8
BLACK
6
CONTINUOUS
10
2.22311
20
0.649428
11
2.2126
21
0.649428
0
LINE
8
BLACK
6
CONTINUOUS
10
2.2126
20
0.649428
11
2.20889
21
0.647573
0
LINE
8
BLACK
6
CONTINUOUS
10
2.20889
20
0.647573
11
2.20685
21
0.645531
0
LINE
8
BLACK
6
CONTINUOUS
10
2.20685
20
0.645531
11
2.20601
21
0.644943
0
LINE
8
BLACK
6
CONTINUOUS
10
2.20601
20
0.644943
11
2.204
21
0.644767
0
LINE
8
BLACK
6
CONTINUOUS
10
2.204
20
0.644767
11
2.20234
21
0.645925
0
LINE
8
BLACK
6
CONTINUOUS
10
2.20234
20
0.645925
11
2.20182
21
0.647876
0
LINE
8
BLACK
6
CONTINUOUS
10
2.20182
20
0.647876
11
2.20267
21
0.649707
0
LINE
8
BLACK
6
CONTINUOUS
10
2.20267
20
0.649707
11
2.20505
21
0.652088
0
LINE
8
BLACK
6
CONTINUOUS
10
2.20505
20
0.652088
11
2.20578
21
0.652594
0
LINE
8
BLACK
6
CONTINUOUS
10
2.20578
20
0.652594
11
2.20582
21
0.652641
0
LINE
8
BLACK
6
CONTINUOUS
10
2.20582
20
0.652641
11
2.21058
21
0.655022
0
LINE
8
BLACK
6
CONTINUOUS
10
2.21058
20
0.655022
11
2.21157
21
0.655314
0
LINE
8
BLACK
6
CONTINUOUS
10
2.21157
20
0.655314
11
2.21174
21
0.655273
0
LINE
8
BLACK
6
CONTINUOUS
10
2.21174
20
0.655273
11
2.2119
21
0.655334
0
LINE
8
BLACK
6
CONTINUOUS
10
2.2119
20
0.655334
11
2.22381
21
0.655334
0
LINE
8
BLACK
6
CONTINUOUS
10
2.22381
20
0.655334
11
2.22482
21
0.655156
0
LINE
8
BLACK
6
CONTINUOUS
10
2.1856
20
0.654279
11
2.18629
21
0.652381
0
LINE
8
BLACK
6
CONTINUOUS
10
2.18629
20
0.652381
11
2.18629
21
0.616667
0
LINE
8
BLACK
6
CONTINUOUS
10
2.18629
20
0.616667
11
2.18613
21
0.615797
0
LINE
8
BLACK
6
CONTINUOUS
10
2.18613
20
0.615797
11
2.18613
21
0.615733
0
LINE
8
BLACK
6
CONTINUOUS
10
2.18613
20
0.615733
11
2.18375
21
0.60859
0
LINE
8
BLACK
6
CONTINUOUS
10
2.18375
20
0.60859
11
2.18327
21
0.607688
0
LINE
8
BLACK
6
CONTINUOUS
10
2.18327
20
0.607688
11
2.18311
21
0.607596
0
LINE
8
BLACK
6
CONTINUOUS
10
2.18311
20
0.607596
11
2.18304
21
0.607436
0
LINE
8
BLACK
6
CONTINUOUS
10
2.18304
20
0.607436
11
2.17828
21
0.602674
0
LINE
8
BLACK
6
CONTINUOUS
10
2.17828
20
0.602674
11
2.17744
21
0.602086
0
LINE
8
BLACK
6
CONTINUOUS
10
2.17744
20
0.602086
11
2.17726
21
0.60207
0
LINE
8
BLACK
6
CONTINUOUS
10
2.17726
20
0.60207
11
2.17712
21
0.601961
0
LINE
8
BLACK
6
CONTINUOUS
10
2.17712
20
0.601961
11
2.16998
21
0.59958
0
LINE
8
BLACK
6
CONTINUOUS
10
2.16998
20
0.59958
11
2.16911
21
0.59945
0
LINE
8
BLACK
6
CONTINUOUS
10
2.16911
20
0.59945
11
2.16905
21
0.599428
0
LINE
8
BLACK
6
CONTINUOUS
10
2.16905
20
0.599428
11
2.16429
21
0.599428
0
LINE
8
BLACK
6
CONTINUOUS
10
2.16429
20
0.599428
11
2.16328
21
0.599606
0
LINE
8
BLACK
6
CONTINUOUS
10
2.16328
20
0.599606
11
2.16173
21
0.600905
0
LINE
8
BLACK
6
CONTINUOUS
10
2.16173
20
0.600905
11
2.16138
21
0.602894
0
LINE
8
BLACK
6
CONTINUOUS
10
2.16138
20
0.602894
11
2.16239
21
0.604643
0
LINE
8
BLACK
6
CONTINUOUS
10
2.16239
20
0.604643
11
2.16429
21
0.605334
0
LINE
8
BLACK
6
CONTINUOUS
10
2.16429
20
0.605334
11
2.16857
21
0.605334
0
LINE
8
BLACK
6
CONTINUOUS
10
2.16857
20
0.605334
11
2.1746
21
0.607343
0
LINE
8
BLACK
6
CONTINUOUS
10
2.1746
20
0.607343
11
2.17837
21
0.611119
0
LINE
8
BLACK
6
CONTINUOUS
10
2.17837
20
0.611119
11
2.18038
21
0.617146
0
LINE
8
BLACK
6
CONTINUOUS
10
2.18038
20
0.617146
11
2.18038
21
0.652381
0
LINE
8
BLACK
6
CONTINUOUS
10
2.18038
20
0.652381
11
2.18056
21
0.653391
0
LINE
8
BLACK
6
CONTINUOUS
10
2.18056
20
0.653391
11
2.18186
21
0.654938
0
LINE
8
BLACK
6
CONTINUOUS
10
2.18186
20
0.654938
11
2.18385
21
0.655289
0
LINE
8
BLACK
6
CONTINUOUS
10
2.18385
20
0.655289
11
2.1856
21
0.654279
0
LINE
8
BLACK
6
CONTINUOUS
10
0.250384
20
1.20289
11
0.250513
21
1.20291
0
LINE
8
BLACK
6
CONTINUOUS
10
0.250513
20
1.20291
11
0.250626
21
1.20284
0
LINE
8
BLACK
6
CONTINUOUS
10
0.250626
20
1.20284
11
0.25101
21
1.20277
0
LINE
8
BLACK
6
CONTINUOUS
10
0.25101
20
1.20277
11
0.251598
21
1.20228
0
LINE
8
BLACK
6
CONTINUOUS
10
0.251598
20
1.20228
11
0.252262
21
1.2019
0
LINE
8
BLACK
6
CONTINUOUS
10
0.252262
20
1.2019
11
0.252353
21
1.20165
0
LINE
8
BLACK
6
CONTINUOUS
10
0.252353
20
1.20165
11
0.252557
21
1.20148
0
LINE
8
BLACK
6
CONTINUOUS
10
0.252557
20
1.20148
11
0.25269
21
1.20072
0
LINE
8
BLACK
6
CONTINUOUS
10
0.25269
20
1.20072
11
0.252953
21
1.2
0
LINE
8
BLACK
6
CONTINUOUS
10
0.252953
20
1.2
11
0.252953
21
0.9
0
LINE
8
BLACK
6
CONTINUOUS
10
0.252953
20
0.9
11
0.252885
21
0.899616
0
LINE
8
BLACK
6
CONTINUOUS
10
0.252885
20
0.899616
11
0.252908
21
0.899487
0
LINE
8
BLACK
6
CONTINUOUS
10
0.252908
20
0.899487
11
0.252842
21
0.899374
0
LINE
8
BLACK
6
CONTINUOUS
10
0.252842
20
0.899374
11
0.252775
21
0.89899
0
LINE
8
BLACK
6
CONTINUOUS
10
0.252775
20
0.89899
11
0.252282
21
0.898402
0
LINE
8
BLACK
6
CONTINUOUS
10
0.252282
20
0.898402
11
0.251898
21
0.897738
0
LINE
8
BLACK
6
CONTINUOUS
10
0.251898
20
0.897738
11
0.251648
21
0.897647
0
LINE
8
BLACK
6
CONTINUOUS
10
0.251648
20
0.897647
11
0.251476
21
0.897443
0
LINE
8
BLACK
6
CONTINUOUS
10
0.251476
20
0.897443
11
0.250721
21
0.89731
0
LINE
8
BLACK
6
CONTINUOUS
10
0.250721
20
0.89731
11
0.25
21
0.897047
0
LINE
8
BLACK
6
CONTINUOUS
10
0.25
20
0.897047
11
0.05
21
0.897047
0
LINE
8
BLACK
6
CONTINUOUS
10
0.05
20
0.897047
11
0.0496165
21
0.897115
0
LINE
8
BLACK
6
CONTINUOUS
10
0.0496165
20
0.897115
11
0.0494872
21
0.897092
0
LINE
8
BLACK
6
CONTINUOUS
10
0.0494872
20
0.897092
11
0.0493736
21
0.897158
0
LINE
8
BLACK
6
CONTINUOUS
10
0.0493736
20
0.897158
11
0.0489901
21
0.897225
0
LINE
8
BLACK
6
CONTINUOUS
10
0.0489901
20
0.897225
11
0.0484024
21
0.897718
0
LINE
8
BLACK
6
CONTINUOUS
10
0.0484024
20
0.897718
11
0.0477381
21
0.898102
0
LINE
8
BLACK
6
CONTINUOUS
10
0.0477381
20
0.898102
11
0.047647
21
0.898352
0
LINE
8
BLACK
6
CONTINUOUS
10
0.047647
20
0.898352
11
0.0474428
21
0.898524
0
LINE
8
BLACK
6
CONTINUOUS
10
0.0474428
20
0.898524
11
0.0473096
21
0.899279
0
LINE
8
BLACK
6
CONTINUOUS
10
0.0473096
20
0.899279
11
0.0470472
21
0.9
0
LINE
8
BLACK
6
CONTINUOUS
10
0.0470472
20
0.9
11
0.0470472
21
1.2
0
LINE
8
BLACK
6
CONTINUOUS
10
0.0470472
20
1.2
11
0.0471149
21
1.20038
0
LINE
8
BLACK
6
CONTINUOUS
10
0.0471149
20
1.20038
11
0.0470921
21
1.20051
0
LINE
8
BLACK
6
CONTINUOUS
10
0.0470921
20
1.20051
11
0.0471577
21
1.20063
0
LINE
8
BLACK
6
CONTINUOUS
10
0.0471577
20
1.20063
11
0.0472253
21
1.20101
0
LINE
8
BLACK
6
CONTINUOUS
10
0.0472253
20
1.20101
11
0.0477185
21
1.2016
0
LINE
8
BLACK
6
CONTINUOUS
10
0.0477185
20
1.2016
11
0.048102
21
1.20226
0
LINE
8
BLACK
6
CONTINUOUS
10
0.048102
20
1.20226
11
0.0483524
21
1.20235
0
LINE
8
BLACK
6
CONTINUOUS
10
0.0483524
20
1.20235
11
0.0485236
21
1.20256
0
LINE
8
BLACK
6
CONTINUOUS
10
0.0485236
20
1.20256
11
0.0492792
21
1.20269
0
LINE
8
BLACK
6
CONTINUOUS
10
0.0492792
20
1.20269
11
0.05
21
1.20295
0
LINE
8
BLACK
6
CONTINUOUS
10
0.05
20
1.20295
11
0.25
21
1.20295
0
LINE
8
BLACK
6
CONTINUOUS
10
0.25
20
1.20295
11
0.250384
21
1.20289
0
LINE
8
BLACK
6
CONTINUOUS
10
0.0529528
20
1.19705
11
0.0529528
21
0.902953
0
LINE
8
BLACK
6
CONTINUOUS
10
0.0529528
20
0.902953
11
0.247047
21
0.902953
0
LINE
8
BLACK
6
CONTINUOUS
10
0.247047
20
0.902953
11
0.247047
21
1.19705
0
LINE
8
BLACK
6
CONTINUOUS
10
0.247047
20
1.19705
11
0.0529528
21
1.19705
0
LINE
8
BLACK
6
CONTINUOUS
10
2.33818
20
1.19068
11
2.33831
21
1.1907
0
LINE
8
BLACK
6
CONTINUOUS
10
2.33831
20
1.1907
11
2.33842
21
1.19064
0
LINE
8
BLACK
6
CONTINUOUS
10
2.33842
20
1.19064
11
2.33881
21
1.19057
0
LINE
8
BLACK
6
CONTINUOUS
10
2.33881
20
1.19057
11
2.33939
21
1.19008
0
LINE
8
BLACK
6
CONTINUOUS
10
2.33939
20
1.19008
11
2.34006
21
1.18969
0
LINE
8
BLACK
6
CONTINUOUS
10
2.34006
20
1.18969
11
2.34015
21
1.18944
0
LINE
8
BLACK
6
CONTINUOUS
10
2.34015
20
1.18944
11
2.34035
21
1.18927
0
LINE
8
BLACK
6
CONTINUOUS
10
2.34035
20
1.18927
11
2.34049
21
1.18852
0
LINE
8
BLACK
6
CONTINUOUS
10
2.34049
20
1.18852
11
2.34075
21
1.1878
0
LINE
8
BLACK
6
CONTINUOUS
10
2.34075
20
1.1878
11
2.34075
21
0.912205
0
LINE
8
BLACK
6
CONTINUOUS
10
2.34075
20
0.912205
11
2.34068
21
0.911821
0
LINE
8
BLACK
6
CONTINUOUS
10
2.34068
20
0.911821
11
2.3407
21
0.911692
0
LINE
8
BLACK
6
CONTINUOUS
10
2.3407
20
0.911692
11
2.34064
21
0.911578
0
LINE
8
BLACK
6
CONTINUOUS
10
2.34064
20
0.911578
11
2.34057
21
0.911195
0
LINE
8
BLACK
6
CONTINUOUS
10
2.34057
20
0.911195
11
2.34008
21
0.910607
0
LINE
8
BLACK
6
CONTINUOUS
10
2.34008
20
0.910607
11
2.33969
21
0.909943
0
LINE
8
BLACK
6
CONTINUOUS
10
2.33969
20
0.909943
11
2.33944
21
0.909852
0
LINE
8
BLACK
6
CONTINUOUS
10
2.33944
20
0.909852
11
2.33927
21
0.909648
0
LINE
8
BLACK
6
CONTINUOUS
10
2.33927
20
0.909648
11
2.33852
21
0.909514
0
LINE
8
BLACK
6
CONTINUOUS
10
2.33852
20
0.909514
11
2.3378
21
0.909252
0
LINE
8
BLACK
6
CONTINUOUS
10
2.3378
20
0.909252
11
2.0622
21
0.909252
0
LINE
8
BLACK
6
CONTINUOUS
10
2.0622
20
0.909252
11
2.06182
21
0.90932
0
LINE
8
BLACK
6
CONTINUOUS
10
2.06182
20
0.90932
11
2.06169
21
0.909297
0
LINE
8
BLACK
6
CONTINUOUS
10
2.06169
20
0.909297
11
2.06158
21
0.909362
0
LINE
8
BLACK
6
CONTINUOUS
10
2.06158
20
0.909362
11
2.06119
21
0.90943
0
LINE
8
BLACK
6
CONTINUOUS
10
2.06119
20
0.90943
11
2.06061
21
0.909923
0
LINE
8
BLACK
6
CONTINUOUS
10
2.06061
20
0.909923
11
2.05994
21
0.910307
0
LINE
8
BLACK
6
CONTINUOUS
10
2.05994
20
0.910307
11
2.05985
21
0.910557
0
LINE
8
BLACK
6
CONTINUOUS
10
2.05985
20
0.910557
11
2.05965
21
0.910728
0
LINE
8
BLACK
6
CONTINUOUS
10
2.05965
20
0.910728
11
2.05951
21
0.911484
0
LINE
8
BLACK
6
CONTINUOUS
10
2.05951
20
0.911484
11
2.05925
21
0.912205
0
LINE
8
BLACK
6
CONTINUOUS
10
2.05925
20
0.912205
11
2.05925
21
1.1878
0
LINE
8
BLACK
6
CONTINUOUS
10
2.05925
20
1.1878
11
2.05932
21
1.18818
0
LINE
8
BLACK
6
CONTINUOUS
10
2.05932
20
1.18818
11
2.0593
21
1.18831
0
LINE
8
BLACK
6
CONTINUOUS
10
2.0593
20
1.18831
11
2.05936
21
1.18842
0
LINE
8
BLACK
6
CONTINUOUS
10
2.05936
20
1.18842
11
2.05943
21
1.18881
0
LINE
8
BLACK
6
CONTINUOUS
10
2.05943
20
1.18881
11
2.05992
21
1.18939
0
LINE
8
BLACK
6
CONTINUOUS
10
2.05992
20
1.18939
11
2.06031
21
1.19006
0
LINE
8
BLACK
6
CONTINUOUS
10
2.06031
20
1.19006
11
2.06056
21
1.19015
0
LINE
8
BLACK
6
CONTINUOUS
10
2.06056
20
1.19015
11
2.06073
21
1.19035
0
LINE
8
BLACK
6
CONTINUOUS
10
2.06073
20
1.19035
11
2.06148
21
1.19049
0
LINE
8
BLACK
6
CONTINUOUS
10
2.06148
20
1.19049
11
2.0622
21
1.19075
0
LINE
8
BLACK
6
CONTINUOUS
10
2.0622
20
1.19075
11
2.3378
21
1.19075
0
LINE
8
BLACK
6
CONTINUOUS
10
2.3378
20
1.19075
11
2.33818
21
1.19068
0
LINE
8
BLACK
6
CONTINUOUS
10
2.06516
20
1.18484
11
2.06516
21
0.915157
0
LINE
8
BLACK
6
CONTINUOUS
10
2.06516
20
0.915157
11
2.33484
21
0.915157
0
LINE
8
BLACK
6
CONTINUOUS
10
2.33484
20
0.915157
11
2.33484
21
1.18484
0
LINE
8
BLACK
6
CONTINUOUS
10
2.33484
20
1.18484
11
2.06516
21
1.18484
0
LINE
8
BLACK
6
CONTINUOUS
10
2.1149
20
1.0728
11
2.1186
21
1.08372
0
LINE
8
BLACK
6
CONTINUOUS
10
2.1186
20
1.08372
11
2.1237
21
1.09405
0
LINE
8
BLACK
6
CONTINUOUS
10
2.1237
20
1.09405
11
2.1301
21
1.10363
0
LINE
8
BLACK
6
CONTINUOUS
10
2.1301
20
1.10363
11
2.1377
21
1.1123
0
LINE
8
BLACK
6
CONTINUOUS
10
2.1377
20
1.1123
11
2.14637
21
1.1199
0
LINE
8
BLACK
6
CONTINUOUS
10
2.14637
20
1.1199
11
2.15595
21
1.1263
0
LINE
8
BLACK
6
CONTINUOUS
10
2.15595
20
1.1263
11
2.16628
21
1.1314
0
LINE
8
BLACK
6
CONTINUOUS
10
2.16628
20
1.1314
11
2.1772
21
1.1351
0
LINE
8
BLACK
6
CONTINUOUS
10
2.1772
20
1.1351
11
2.1885
21
1.13735
0
LINE
8
BLACK
6
CONTINUOUS
10
2.1885
20
1.13735
11
2.2
21
1.1381
0
LINE
8
BLACK
6
CONTINUOUS
10
2.2
20
1.1381
11
2.2115
21
1.13735
0
LINE
8
BLACK
6
CONTINUOUS
10
2.2115
20
1.13735
11
2.2228
21
1.1351
0
LINE
8
BLACK
6
CONTINUOUS
10
2.2228
20
1.1351
11
2.23372
21
1.1314
0
LINE
8
BLACK
6
CONTINUOUS
10
2.23372
20
1.1314
11
2.24405
21
1.1263
0
LINE
8
BLACK
6
CONTINUOUS
10
2.24405
20
1.1263
11
2.25363
21
1.1199
0
LINE
8
BLACK
6
CONTINUOUS
10
2.25363
20
1.1199
11
2.2623
21
1.1123
0
LINE
8
BLACK
6
CONTINUOUS
10
2.2623
20
1.1123
11
2.2699
21
1.10363
0
LINE
8
BLACK
6
CONTINUOUS
10
2.2699
20
1.10363
11
2.2763
21
1.09405
0
LINE
8
BLACK
6
CONTINUOUS
10
2.2763
20
1.09405
11
2.2814
21
1.08372
0
LINE
8
BLACK
6
CONTINUOUS
10
2.2814
20
1.08372
11
2.2851
21
1.0728
0
LINE
8
BLACK
6
CONTINUOUS
10
2.2851
20
1.0728
11
2.28735
21
1.0615
0
LINE
8
BLACK
6
CONTINUOUS
10
2.28735
20
1.0615
11
2.2881
21
1.05
0
LINE
8
BLACK
6
CONTINUOUS
10
2.2881
20
1.05
11
2.28735
21
1.0385
0
LINE
8
BLACK
6
CONTINUOUS
10
2.28735
20
1.0385
11
2.2851
21
1.0272
0
LINE
8
BLACK
6
CONTINUOUS
10
2.2851
20
1.0272
11
2.2814
21
1.01628
0
LINE
8
BLACK
6
CONTINUOUS
10
2.2814
20
1.01628
11
2.2763
21
1.00595
0
LINE
8
BLACK
6
CONTINUOUS
10
2.2763
20
1.00595
11
2.2699
21
0.996367
0
LINE
8
BLACK
6
CONTINUOUS
10
2.2699
20
0.996367
11
2.2623
21
0.987702
0
LINE
8
BLACK
6
CONTINUOUS
10
2.2623
20
0.987702
11
2.25363
21
0.980104
0
LINE
8
BLACK
6
CONTINUOUS
10
2.25363
20
0.980104
11
2.24405
21
0.973701
0
LINE
8
BLACK
6
CONTINUOUS
10
2.24405
20
0.973701
11
2.23372
21
0.968604
0
LINE
8
BLACK
6
CONTINUOUS
10
2.23372
20
0.968604
11
2.2228
21
0.9649
0
LINE
8
BLACK
6
CONTINUOUS
10
2.2228
20
0.9649
11
2.2115
21
0.962651
0
LINE
8
BLACK
6
CONTINUOUS
10
2.2115
20
0.962651
11
2.2
21
0.961898
0
LINE
8
BLACK
6
CONTINUOUS
10
2.2
20
0.961898
11
2.1885
21
0.962651
0
LINE
8
BLACK
6
CONTINUOUS
10
2.1885
20
0.962651
11
2.1772
21
0.9649
0
LINE
8
BLACK
6
CONTINUOUS
10
2.1772
20
0.9649
11
2.16628
21
0.968604
0
LINE
8
BLACK
6
CONTINUOUS
10
2.16628
20
0.968604
11
2.15595
21
0.973701
0
LINE
8
BLACK
6
CONTINUOUS
10
2.15595
20
0.973701
11
2.14637
21
0.980104
0
LINE
8
BLACK
6
CONTINUOUS
10
2.14637
20
0.980104
11
2.1377
21
0.987702
0
LINE
8
BLACK
6
CONTINUOUS
10
2.1377
20
0.987702
11
2.1301
21
0.996367
0
LINE
8
BLACK
6
CONTINUOUS
10
2.1301
20
0.996367
11
2.1237
21
1.00595
0
LINE
8
BLACK
6
CONTINUOUS
10
2.1237
20
1.00595
11
2.1186
21
1.01628
0
LINE
8
BLACK
6
CONTINUOUS
10
2.1186
20
1.01628
11
2.1149
21
1.0272
0
LINE
8
BLACK
6
CONTINUOUS
10
2.1149
20
1.0272
11
2.11265
21
1.0385
0
LINE
8
BLACK
6
CONTINUOUS
10
2.11265
20
1.0385
11
2.1119
21
1.05
0
LINE
8
BLACK
6
CONTINUOUS
10
2.1119
20
1.05
11
2.11195
21
1.05086
0
LINE
8
BLACK
6
CONTINUOUS
10
2.11195
20
1.05086
11
2.11265
21
1.0615
0
LINE
8
BLACK
6
CONTINUOUS
10
2.11265
20
1.0615
11
2.1149
21
1.0728
0
LINE
8
BLACK
6
CONTINUOUS
10
2.12042
20
1.02868
11
2.12405
21
1.01807
0
LINE
8
BLACK
6
CONTINUOUS
10
2.12405
20
1.01807
11
2.12908
21
1.00806
0
LINE
8
BLACK
6
CONTINUOUS
10
2.12908
20
1.00806
11
2.13543
21
0.998824
0
LINE
8
BLACK
6
CONTINUOUS
10
2.13543
20
0.998824
11
2.14298
21
0.990535
0
LINE
8
BLACK
6
CONTINUOUS
10
2.14298
20
0.990535
11
2.15157
21
0.983346
0
LINE
8
BLACK
6
CONTINUOUS
10
2.15157
20
0.983346
11
2.16107
21
0.97739
0
LINE
8
BLACK
6
CONTINUOUS
10
2.16107
20
0.97739
11
2.17128
21
0.972778
0
LINE
8
BLACK
6
CONTINUOUS
10
2.17128
20
0.972778
11
2.18203
21
0.969595
0
LINE
8
BLACK
6
CONTINUOUS
10
2.18203
20
0.969595
11
2.19311
21
0.9679
0
LINE
8
BLACK
6
CONTINUOUS
10
2.19311
20
0.9679
11
2.20431
21
0.967724
0
LINE
8
BLACK
6
CONTINUOUS
10
2.20431
20
0.967724
11
2.21544
21
0.96907
0
LINE
8
BLACK
6
CONTINUOUS
10
2.21544
20
0.96907
11
2.22628
21
0.971914
0
LINE
8
BLACK
6
CONTINUOUS
10
2.22628
20
0.971914
11
2.23663
21
0.976203
0
LINE
8
BLACK
6
CONTINUOUS
10
2.23663
20
0.976203
11
2.24631
21
0.981858
0
LINE
8
BLACK
6
CONTINUOUS
10
2.24631
20
0.981858
11
2.25513
21
0.988773
0
LINE
8
BLACK
6
CONTINUOUS
10
2.25513
20
0.988773
11
2.26293
21
0.996821
0
LINE
8
BLACK
6
CONTINUOUS
10
2.26293
20
0.996821
11
2.26956
21
1.00585
0
LINE
8
BLACK
6
CONTINUOUS
10
2.26956
20
1.00585
11
2.27491
21
1.0157
0
LINE
8
BLACK
6
CONTINUOUS
10
2.27491
20
1.0157
11
2.27887
21
1.02619
0
LINE
8
BLACK
6
CONTINUOUS
10
2.27887
20
1.02619
11
2.28137
21
1.03711
0
LINE
8
BLACK
6
CONTINUOUS
10
2.28137
20
1.03711
11
2.28237
21
1.04827
0
LINE
8
BLACK
6
CONTINUOUS
10
2.28237
20
1.04827
11
2.28239
21
1.05
0
LINE
8
BLACK
6
CONTINUOUS
10
2.28239
20
1.05
11
2.28163
21
1.06118
0
LINE
8
BLACK
6
CONTINUOUS
10
2.28163
20
1.06118
11
2.27935
21
1.07216
0
LINE
8
BLACK
6
CONTINUOUS
10
2.27935
20
1.07216
11
2.27561
21
1.08272
0
LINE
8
BLACK
6
CONTINUOUS
10
2.27561
20
1.08272
11
2.27047
21
1.09268
0
LINE
8
BLACK
6
CONTINUOUS
10
2.27047
20
1.09268
11
2.26403
21
1.10185
0
LINE
8
BLACK
6
CONTINUOUS
10
2.26403
20
1.10185
11
2.2564
21
1.11006
0
LINE
8
BLACK
6
CONTINUOUS
10
2.2564
20
1.11006
11
2.24773
21
1.11716
0
LINE
8
BLACK
6
CONTINUOUS
10
2.24773
20
1.11716
11
2.23817
21
1.12301
0
LINE
8
BLACK
6
CONTINUOUS
10
2.23817
20
1.12301
11
2.22791
21
1.12752
0
LINE
8
BLACK
6
CONTINUOUS
10
2.22791
20
1.12752
11
2.21713
21
1.13059
0
LINE
8
BLACK
6
CONTINUOUS
10
2.21713
20
1.13059
11
2.20603
21
1.13217
0
LINE
8
BLACK
6
CONTINUOUS
10
2.20603
20
1.13217
11
2.19483
21
1.13223
0
LINE
8
BLACK
6
CONTINUOUS
10
2.19483
20
1.13223
11
2.18372
21
1.13076
0
LINE
8
BLACK
6
CONTINUOUS
10
2.18372
20
1.13076
11
2.17291
21
1.12781
0
LINE
8
BLACK
6
CONTINUOUS
10
2.17291
20
1.12781
11
2.1626
21
1.12341
0
LINE
8
BLACK
6
CONTINUOUS
10
2.1626
20
1.12341
11
2.15298
21
1.11765
0
LINE
8
BLACK
6
CONTINUOUS
10
2.15298
20
1.11765
11
2.14423
21
1.11065
0
LINE
8
BLACK
6
CONTINUOUS
10
2.14423
20
1.11065
11
2.13652
21
1.10252
0
LINE
8
BLACK
6
CONTINUOUS
10
2.13652
20
1.10252
11
2.12998
21
1.09342
0
LINE
8
BLACK
6
CONTINUOUS
10
2.12998
20
1.09342
11
2.12473
21
1.08351
0
LINE
8
BLACK
6
CONTINUOUS
10
2.12473
20
1.08351
11
2.12088
21
1.07299
0
LINE
8
BLACK
6
CONTINUOUS
10
2.12088
20
1.07299
11
2.11849
21
1.06204
0
LINE
8
BLACK
6
CONTINUOUS
10
2.11849
20
1.06204
11
2.11762
21
1.05086
0
LINE
8
BLACK
6
CONTINUOUS
10
2.11762
20
1.05086
11
2.11826
21
1.03967
0
LINE
8
BLACK
6
CONTINUOUS
10
2.11826
20
1.03967
11
2.12042
21
1.02868
0
LINE
8
BLACK
6
CONTINUOUS
10
2.23377
20
1.08026
11
2.23391
21
1.08028
0
LINE
8
BLACK
6
CONTINUOUS
10
2.23391
20
1.08028
11
2.23401
21
1.08021
0
LINE
8
BLACK
6
CONTINUOUS
10
2.23401
20
1.08021
11
2.23434
21
1.08016
0
LINE
8
BLACK
6
CONTINUOUS
10
2.23434
20
1.08016
11
2.23495
21
1.07964
0
LINE
8
BLACK
6
CONTINUOUS
10
2.23495
20
1.07964
11
2.23563
21
1.07923
0
LINE
8
BLACK
6
CONTINUOUS
10
2.23563
20
1.07923
11
2.23571
21
1.07901
0
LINE
8
BLACK
6
CONTINUOUS
10
2.23571
20
1.07901
11
2.23589
21
1.07886
0
LINE
8
BLACK
6
CONTINUOUS
10
2.23589
20
1.07886
11
2.23603
21
1.07807
0
LINE
8
BLACK
6
CONTINUOUS
10
2.23603
20
1.07807
11
2.23629
21
1.07732
0
LINE
8
BLACK
6
CONTINUOUS
10
2.23629
20
1.07732
11
2.2362
21
1.0771
0
LINE
8
BLACK
6
CONTINUOUS
10
2.2362
20
1.0771
11
2.23624
21
1.07687
0
LINE
8
BLACK
6
CONTINUOUS
10
2.23624
20
1.07687
11
2.23584
21
1.07618
0
LINE
8
BLACK
6
CONTINUOUS
10
2.23584
20
1.07618
11
2.23556
21
1.07544
0
LINE
8
BLACK
6
CONTINUOUS
10
2.23556
20
1.07544
11
2.22317
21
1.06129
0
LINE
8
BLACK
6
CONTINUOUS
10
2.22317
20
1.06129
11
2.22381
21
1.06129
0
LINE
8
BLACK
6
CONTINUOUS
10
2.22381
20
1.06129
11
2.22482
21
1.06111
0
LINE
8
BLACK
6
CONTINUOUS
10
2.22482
20
1.06111
11
2.22495
21
1.06099
0
LINE
8
BLACK
6
CONTINUOUS
10
2.22495
20
1.06099
11
2.22513
21
1.06097
0
LINE
8
BLACK
6
CONTINUOUS
10
2.22513
20
1.06097
11
2.22989
21
1.05859
0
LINE
8
BLACK
6
CONTINUOUS
10
2.22989
20
1.05859
11
2.2306
21
1.05807
0
LINE
8
BLACK
6
CONTINUOUS
10
2.2306
20
1.05807
11
2.23066
21
1.05804
0
LINE
8
BLACK
6
CONTINUOUS
10
2.23066
20
1.05804
11
2.23304
21
1.05566
0
LINE
8
BLACK
6
CONTINUOUS
10
2.23304
20
1.05566
11
2.23355
21
1.05494
0
LINE
8
BLACK
6
CONTINUOUS
10
2.23355
20
1.05494
11
2.23359
21
1.05489
0
LINE
8
BLACK
6
CONTINUOUS
10
2.23359
20
1.05489
11
2.23597
21
1.05013
0
LINE
8
BLACK
6
CONTINUOUS
10
2.23597
20
1.05013
11
2.23627
21
1.04915
0
LINE
8
BLACK
6
CONTINUOUS
10
2.23627
20
1.04915
11
2.23623
21
1.04898
0
LINE
8
BLACK
6
CONTINUOUS
10
2.23623
20
1.04898
11
2.23629
21
1.04881
0
LINE
8
BLACK
6
CONTINUOUS
10
2.23629
20
1.04881
11
2.23629
21
1.0369
0
LINE
8
BLACK
6
CONTINUOUS
10
2.23629
20
1.0369
11
2.23611
21
1.03589
0
LINE
8
BLACK
6
CONTINUOUS
10
2.23611
20
1.03589
11
2.23599
21
1.03576
0
LINE
8
BLACK
6
CONTINUOUS
10
2.23599
20
1.03576
11
2.23597
21
1.03558
0
LINE
8
BLACK
6
CONTINUOUS
10
2.23597
20
1.03558
11
2.23359
21
1.03082
0
LINE
8
BLACK
6
CONTINUOUS
10
2.23359
20
1.03082
11
2.23307
21
1.03011
0
LINE
8
BLACK
6
CONTINUOUS
10
2.23307
20
1.03011
11
2.23304
21
1.03005
0
LINE
8
BLACK
6
CONTINUOUS
10
2.23304
20
1.03005
11
2.23066
21
1.02767
0
LINE
8
BLACK
6
CONTINUOUS
10
2.23066
20
1.02767
11
2.22994
21
1.02717
0
LINE
8
BLACK
6
CONTINUOUS
10
2.22994
20
1.02717
11
2.22989
21
1.02712
0
LINE
8
BLACK
6
CONTINUOUS
10
2.22989
20
1.02712
11
2.22513
21
1.02474
0
LINE
8
BLACK
6
CONTINUOUS
10
2.22513
20
1.02474
11
2.22415
21
1.02445
0
LINE
8
BLACK
6
CONTINUOUS
10
2.22415
20
1.02445
11
2.22398
21
1.02449
0
LINE
8
BLACK
6
CONTINUOUS
10
2.22398
20
1.02449
11
2.22381
21
1.02443
0
LINE
8
BLACK
6
CONTINUOUS
10
2.22381
20
1.02443
11
2.20952
21
1.02443
0
LINE
8
BLACK
6
CONTINUOUS
10
2.20952
20
1.02443
11
2.20851
21
1.02461
0
LINE
8
BLACK
6
CONTINUOUS
10
2.20851
20
1.02461
11
2.20838
21
1.02472
0
LINE
8
BLACK
6
CONTINUOUS
10
2.20838
20
1.02472
11
2.2082
21
1.02474
0
LINE
8
BLACK
6
CONTINUOUS
10
2.2082
20
1.02474
11
2.20344
21
1.02712
0
LINE
8
BLACK
6
CONTINUOUS
10
2.20344
20
1.02712
11
2.20273
21
1.02765
0
LINE
8
BLACK
6
CONTINUOUS
10
2.20273
20
1.02765
11
2.20267
21
1.02767
0
LINE
8
BLACK
6
CONTINUOUS
10
2.20267
20
1.02767
11
2.20029
21
1.03005
0
LINE
8
BLACK
6
CONTINUOUS
10
2.20029
20
1.03005
11
2.1997
21
1.03089
0
LINE
8
BLACK
6
CONTINUOUS
10
2.1997
20
1.03089
11
2.19953
21
1.03291
0
LINE
8
BLACK
6
CONTINUOUS
10
2.19953
20
1.03291
11
2.20069
21
1.03456
0
LINE
8
BLACK
6
CONTINUOUS
10
2.20069
20
1.03456
11
2.20264
21
1.03508
0
LINE
8
BLACK
6
CONTINUOUS
10
2.20264
20
1.03508
11
2.20447
21
1.03423
0
LINE
8
BLACK
6
CONTINUOUS
10
2.20447
20
1.03423
11
2.20651
21
1.03219
0
LINE
8
BLACK
6
CONTINUOUS
10
2.20651
20
1.03219
11
2.21022
21
1.03033
0
LINE
8
BLACK
6
CONTINUOUS
10
2.21022
20
1.03033
11
2.22311
21
1.03033
0
LINE
8
BLACK
6
CONTINUOUS
10
2.22311
20
1.03033
11
2.22682
21
1.03219
0
LINE
8
BLACK
6
CONTINUOUS
10
2.22682
20
1.03219
11
2.22853
21
1.03389
0
LINE
8
BLACK
6
CONTINUOUS
10
2.22853
20
1.03389
11
2.23038
21
1.0376
0
LINE
8
BLACK
6
CONTINUOUS
10
2.23038
20
1.0376
11
2.23038
21
1.04811
0
LINE
8
BLACK
6
CONTINUOUS
10
2.23038
20
1.04811
11
2.22853
21
1.05182
0
LINE
8
BLACK
6
CONTINUOUS
10
2.22853
20
1.05182
11
2.22682
21
1.05353
0
LINE
8
BLACK
6
CONTINUOUS
10
2.22682
20
1.05353
11
2.22311
21
1.05538
0
LINE
8
BLACK
6
CONTINUOUS
10
2.22311
20
1.05538
11
2.21667
21
1.05538
0
LINE
8
BLACK
6
CONTINUOUS
10
2.21667
20
1.05538
11
2.21623
21
1.05546
0
LINE
8
BLACK
6
CONTINUOUS
10
2.21623
20
1.05546
11
2.21609
21
1.05544
0
LINE
8
BLACK
6
CONTINUOUS
10
2.21609
20
1.05544
11
2.21599
21
1.0555
0
LINE
8
BLACK
6
CONTINUOUS
10
2.21599
20
1.0555
11
2.21566
21
1.05556
0
LINE
8
BLACK
6
CONTINUOUS
10
2.21566
20
1.05556
11
2.21505
21
1.05607
0
LINE
8
BLACK
6
CONTINUOUS
10
2.21505
20
1.05607
11
2.21437
21
1.05648
0
LINE
8
BLACK
6
CONTINUOUS
10
2.21437
20
1.05648
11
2.21429
21
1.05671
0
LINE
8
BLACK
6
CONTINUOUS
10
2.21429
20
1.05671
11
2.21411
21
1.05686
0
LINE
8
BLACK
6
CONTINUOUS
10
2.21411
20
1.05686
11
2.21397
21
1.05764
0
LINE
8
BLACK
6
CONTINUOUS
10
2.21397
20
1.05764
11
2.21371
21
1.05839
0
LINE
8
BLACK
6
CONTINUOUS
10
2.21371
20
1.05839
11
2.2138
21
1.05861
0
LINE
8
BLACK
6
CONTINUOUS
10
2.2138
20
1.05861
11
2.21376
21
1.05885
0
LINE
8
BLACK
6
CONTINUOUS
10
2.21376
20
1.05885
11
2.21416
21
1.05954
0
LINE
8
BLACK
6
CONTINUOUS
10
2.21416
20
1.05954
11
2.21444
21
1.06028
0
LINE
8
BLACK
6
CONTINUOUS
10
2.21444
20
1.06028
11
2.22683
21
1.07443
0
LINE
8
BLACK
6
CONTINUOUS
10
2.22683
20
1.07443
11
2.20238
21
1.07443
0
LINE
8
BLACK
6
CONTINUOUS
10
2.20238
20
1.07443
11
2.20137
21
1.07461
0
LINE
8
BLACK
6
CONTINUOUS
10
2.20137
20
1.07461
11
2.19982
21
1.0759
0
LINE
8
BLACK
6
CONTINUOUS
10
2.19982
20
1.0759
11
2.19947
21
1.07789
0
LINE
8
BLACK
6
CONTINUOUS
10
2.19947
20
1.07789
11
2.20048
21
1.07964
0
LINE
8
BLACK
6
CONTINUOUS
10
2.20048
20
1.07964
11
2.20238
21
1.08033
0
LINE
8
BLACK
6
CONTINUOUS
10
2.20238
20
1.08033
11
2.23333
21
1.08033
0
LINE
8
BLACK
6
CONTINUOUS
10
2.23333
20
1.08033
11
2.23377
21
1.08026
0
LINE
8
BLACK
6
CONTINUOUS
10
2.1856
20
1.07928
11
2.18629
21
1.07738
0
LINE
8
BLACK
6
CONTINUOUS
10
2.18629
20
1.07738
11
2.18629
21
1.04167
0
LINE
8
BLACK
6
CONTINUOUS
10
2.18629
20
1.04167
11
2.18613
21
1.0408
0
LINE
8
BLACK
6
CONTINUOUS
10
2.18613
20
1.0408
11
2.18613
21
1.04073
0
LINE
8
BLACK
6
CONTINUOUS
10
2.18613
20
1.04073
11
2.18375
21
1.03359
0
LINE
8
BLACK
6
CONTINUOUS
10
2.18375
20
1.03359
11
2.18327
21
1.03269
0
LINE
8
BLACK
6
CONTINUOUS
10
2.18327
20
1.03269
11
2.18311
21
1.0326
0
LINE
8
BLACK
6
CONTINUOUS
10
2.18311
20
1.0326
11
2.18304
21
1.03244
0
LINE
8
BLACK
6
CONTINUOUS
10
2.18304
20
1.03244
11
2.17828
21
1.02767
0
LINE
8
BLACK
6
CONTINUOUS
10
2.17828
20
1.02767
11
2.17744
21
1.02709
0
LINE
8
BLACK
6
CONTINUOUS
10
2.17744
20
1.02709
11
2.17726
21
1.02707
0
LINE
8
BLACK
6
CONTINUOUS
10
2.17726
20
1.02707
11
2.17712
21
1.02696
0
LINE
8
BLACK
6
CONTINUOUS
10
2.17712
20
1.02696
11
2.16998
21
1.02458
0
LINE
8
BLACK
6
CONTINUOUS
10
2.16998
20
1.02458
11
2.16911
21
1.02445
0
LINE
8
BLACK
6
CONTINUOUS
10
2.16911
20
1.02445
11
2.16905
21
1.02443
0
LINE
8
BLACK
6
CONTINUOUS
10
2.16905
20
1.02443
11
2.16429
21
1.02443
0
LINE
8
BLACK
6
CONTINUOUS
10
2.16429
20
1.02443
11
2.16328
21
1.02461
0
LINE
8
BLACK
6
CONTINUOUS
10
2.16328
20
1.02461
11
2.16173
21
1.0259
0
LINE
8
BLACK
6
CONTINUOUS
10
2.16173
20
1.0259
11
2.16138
21
1.02789
0
LINE
8
BLACK
6
CONTINUOUS
10
2.16138
20
1.02789
11
2.16239
21
1.02964
0
LINE
8
BLACK
6
CONTINUOUS
10
2.16239
20
1.02964
11
2.16429
21
1.03033
0
LINE
8
BLACK
6
CONTINUOUS
10
2.16429
20
1.03033
11
2.16857
21
1.03033
0
LINE
8
BLACK
6
CONTINUOUS
10
2.16857
20
1.03033
11
2.1746
21
1.03234
0
LINE
8
BLACK
6
CONTINUOUS
10
2.1746
20
1.03234
11
2.17837
21
1.03612
0
LINE
8
BLACK
6
CONTINUOUS
10
2.17837
20
1.03612
11
2.18038
21
1.04215
0
LINE
8
BLACK
6
CONTINUOUS
10
2.18038
20
1.04215
11
2.18038
21
1.07738
0
LINE
8
BLACK
6
CONTINUOUS
10
2.18038
20
1.07738
11
2.18056
21
1.07839
0
LINE
8
BLACK
6
CONTINUOUS
10
2.18056
20
1.07839
11
2.18186
21
1.07994
0
LINE
8
BLACK
6
CONTINUOUS
10
2.18186
20
1.07994
11
2.18385
21
1.08029
0
LINE
8
BLACK
6
CONTINUOUS
10
2.18385
20
1.08029
11
2.1856
21
1.07928
0
LINE
8
BLACK
6
CONTINUOUS
10
0.399616
20
1.34711
11
0.399487
21
1.34709
0
LINE
8
BLACK
6
CONTINUOUS
10
0.399487
20
1.34709
11
0.399374
21
1.34716
0
LINE
8
BLACK
6
CONTINUOUS
10
0.399374
20
1.34716
11
0.39899
21
1.34723
0
LINE
8
BLACK
6
CONTINUOUS
10
0.39899
20
1.34723
11
0.398402
21
1.34772
0
LINE
8
BLACK
6
CONTINUOUS
10
0.398402
20
1.34772
11
0.397738
21
1.3481
0
LINE
8
BLACK
6
CONTINUOUS
10
0.397738
20
1.3481
11
0.397647
21
1.34835
0
LINE
8
BLACK
6
CONTINUOUS
10
0.397647
20
1.34835
11
0.397443
21
1.34852
0
LINE
8
BLACK
6
CONTINUOUS
10
0.397443
20
1.34852
11
0.39731
21
1.34928
0
LINE
8
BLACK
6
CONTINUOUS
10
0.39731
20
1.34928
11
0.397047
21
1.35
0
LINE
8
BLACK
6
CONTINUOUS
10
0.397047
20
1.35
11
0.397047
21
1.55
0
LINE
8
BLACK
6
CONTINUOUS
10
0.397047
20
1.55
11
0.397115
21
1.55038
0
LINE
8
BLACK
6
CONTINUOUS
10
0.397115
20
1.55038
11
0.397092
21
1.55051
0
LINE
8
BLACK
6
CONTINUOUS
10
0.397092
20
1.55051
11
0.397158
21
1.55063
0
LINE
8
BLACK
6
CONTINUOUS
10
0.397158
20
1.55063
11
0.397225
21
1.55101
0
LINE
8
BLACK
6
CONTINUOUS
10
0.397225
20
1.55101
11
0.397718
21
1.5516
0
LINE
8
BLACK
6
CONTINUOUS
10
0.397718
20
1.5516
11
0.398102
21
1.55226
0
LINE
8
BLACK
6
CONTINUOUS
10
0.398102
20
1.55226
11
0.398352
21
1.55235
0
LINE
8
BLACK
6
CONTINUOUS
10
0.398352
20
1.55235
11
0.398524
21
1.55256
0
LINE
8
BLACK
6
CONTINUOUS
10
0.398524
20
1.55256
11
0.399279
21
1.55269
0
LINE
8
BLACK
6
CONTINUOUS
10
0.399279
20
1.55269
11
0.4
21
1.55295
0
LINE
8
BLACK
6
CONTINUOUS
10
0.4
20
1.55295
11
1.3
21
1.55295
0
LINE
8
BLACK
6
CONTINUOUS
10
1.3
20
1.55295
11
1.30038
21
1.55289
0
LINE
8
BLACK
6
CONTINUOUS
10
1.30038
20
1.55289
11
1.30051
21
1.55291
0
LINE
8
BLACK
6
CONTINUOUS
10
1.30051
20
1.55291
11
1.30063
21
1.55284
0
LINE
8
BLACK
6
CONTINUOUS
10
1.30063
20
1.55284
11
1.30101
21
1.55277
0
LINE
8
BLACK
6
CONTINUOUS
10
1.30101
20
1.55277
11
1.3016
21
1.55228
0
LINE
8
BLACK
6
CONTINUOUS
10
1.3016
20
1.55228
11
1.30226
21
1.5519
0
LINE
8
BLACK
6
CONTINUOUS
10
1.30226
20
1.5519
11
1.30235
21
1.55165
0
LINE
8
BLACK
6
CONTINUOUS
10
1.30235
20
1.55165
11
1.30256
21
1.55148
0
LINE
8
BLACK
6
CONTINUOUS
10
1.30256
20
1.55148
11
1.30269
21
1.55072
0
LINE
8
BLACK
6
CONTINUOUS
10
1.30269
20
1.55072
11
1.30295
21
1.55
0
LINE
8
BLACK
6
CONTINUOUS
10
1.30295
20
1.55
11
1.30295
21
1.35
0
LINE
8
BLACK
6
CONTINUOUS
10
1.30295
20
1.35
11
1.30289
21
1.34962
0
LINE
8
BLACK
6
CONTINUOUS
10
1.30289
20
1.34962
11
1.30291
21
1.34949
0
LINE
8
BLACK
6
CONTINUOUS
10
1.30291
20
1.34949
11
1.30284
21
1.34937
0
LINE
8
BLACK
6
CONTINUOUS
10
1.30284
20
1.34937
11
1.30277
21
1.34899
0
LINE
8
BLACK
6
CONTINUOUS
10
1.30277
20
1.34899
11
1.30228
21
1.3484
0
LINE
8
BLACK
6
CONTINUOUS
10
1.30228
20
1.3484
11
1.3019
21
1.34774
0
LINE
8
BLACK
6
CONTINUOUS
10
1.3019
20
1.34774
11
1.30165
21
1.34765
0
LINE
8
BLACK
6
CONTINUOUS
10
1.30165
20
1.34765
11
1.30148
21
1.34744
0
LINE
8
BLACK
6
CONTINUOUS
10
1.30148
20
1.34744
11
1.30072
21
1.34731
0
LINE
8
BLACK
6
CONTINUOUS
10
1.30072
20
1.34731
11
1.3
21
1.34705
0
LINE
8
BLACK
6
CONTINUOUS
10
1.3
20
1.34705
11
0.4
21
1.34705
0
LINE
8
BLACK
6
CONTINUOUS
10
0.4
20
1.34705
11
0.399616
21
1.34711
0
LINE
8
BLACK
6
CONTINUOUS
10
1.20295
20
1.54705
11
1.20295
21
1.35295
0
LINE
8
BLACK
6
CONTINUOUS
10
1.20295
20
1.35295
11
1.29705
21
1.35295
0
LINE
8
BLACK
6
CONTINUOUS
10
1.29705
20
1.35295
11
1.29705
21
1.54705
0
LINE
8
BLACK
6
CONTINUOUS
10
1.29705
20
1.54705
11
1.20295
21
1.54705
0
LINE
8
BLACK
6
CONTINUOUS
10
1.10295
20
1.54705
11
1.10295
21
1.35295
0
LINE
8
BLACK
6
CONTINUOUS
10
1.10295
20
1.35295
11
1.19705
21
1.35295
0
LINE
8
BLACK
6
CONTINUOUS
10
1.19705
20
1.35295
11
1.19705
21
1.54705
0
LINE
8
BLACK
6
CONTINUOUS
10
1.19705
20
1.54705
11
1.10295
21
1.54705
0
LINE
8
BLACK
6
CONTINUOUS
10
1.00295
20
1.54705
11
1.00295
21
1.35295
0
LINE
8
BLACK
6
CONTINUOUS
10
1.00295
20
1.35295
11
1.09705
21
1.35295
0
LINE
8
BLACK
6
CONTINUOUS
10
1.09705
20
1.35295
11
1.09705
21
1.54705
0
LINE
8
BLACK
6
CONTINUOUS
10
1.09705
20
1.54705
11
1.00295
21
1.54705
0
LINE
8
BLACK
6
CONTINUOUS
10
0.902953
20
1.54705
11
0.902953
21
1.35295
0
LINE
8
BLACK
6
CONTINUOUS
10
0.902953
20
1.35295
11
0.997047
21
1.35295
0
LINE
8
BLACK
6
CONTINUOUS
10
0.997047
20
1.35295
11
0.997047
21
1.54705
0
LINE
8
BLACK
6
CONTINUOUS
10
0.997047
20
1.54705
11
0.902953
21
1.54705
0
LINE
8
BLACK
6
CONTINUOUS
10
0.802953
20
1.54705
11
0.802953
21
1.35295
0
LINE
8
BLACK
6
CONTINUOUS
10
0.802953
20
1.35295
11
0.897047
21
1.35295
0
LINE
8
BLACK
6
CONTINUOUS
10
0.897047
20
1.35295
11
0.897047
21
1.54705
0
LINE
8
BLACK
6
CONTINUOUS
10
0.897047
20
1.54705
11
0.802953
21
1.54705
0
LINE
8
BLACK
6
CONTINUOUS
10
0.702953
20
1.54705
11
0.702953
21
1.35295
0
LINE
8
BLACK
6
CONTINUOUS
10
0.702953
20
1.35295
11
0.797047
21
1.35295
0
LINE
8
BLACK
6
CONTINUOUS
10
0.797047
20
1.35295
11
0.797047
21
1.54705
0
LINE
8
BLACK
6
CONTINUOUS
10
0.797047
20
1.54705
11
0.702953
21
1.54705
0
LINE
8
BLACK
6
CONTINUOUS
10
0.602953
20
1.54705
11
0.602953
21
1.35295
0
LINE
8
BLACK
6
CONTINUOUS
10
0.602953
20
1.35295
11
0.697047
21
1.35295
0
LINE
8
BLACK
6
CONTINUOUS
10
0.697047
20
1.35295
11
0.697047
21
1.54705
0
LINE
8
BLACK
6
CONTINUOUS
10
0.697047
20
1.54705
11
0.602953
21
1.54705
0
LINE
8
BLACK
6
CONTINUOUS
10
0.502953
20
1.54705
11
0.502953
21
1.35295
0
LINE
8
BLACK
6
CONTINUOUS
10
0.502953
20
1.35295
11
0.597047
21
1.35295
0
LINE
8
BLACK
6
CONTINUOUS
10
0.597047
20
1.35295
11
0.597047
21
1.54705
0
LINE
8
BLACK
6
CONTINUOUS
10
0.597047
20
1.54705
11
0.502953
21
1.54705
0
LINE
8
BLACK
6
CONTINUOUS
10
0.402953
20
1.54705
11
0.402953
21
1.35295
0
LINE
8
BLACK
6
CONTINUOUS
10
0.402953
20
1.35295
11
0.497047
21
1.35295
0
LINE
8
BLACK
6
CONTINUOUS
10
0.497047
20
1.35295
11
0.497047
21
1.54705
0
LINE
8
BLACK
6
CONTINUOUS
10
0.497047
20
1.54705
11
0.402953
21
1.54705
  0
ENDSEC
  0
EOF
