  0
SECTION
  2
HEADER
  9
$ANGBASE
  50
0.0
  9
$ANGDIR
  70
1
  9
$MEASUREMENT
  70
0
  0
ENDSEC
  0
SECTION
  2
TABLES
  0
TABLE
  2
LTYPE
  70
4
  0
LTYPE
  5
40F
  2
CONTINUOUS
  70
0
  3
Solid line
  72
65
  73
0
  40
0.0
  0
LTYPE
  5
410
  2
DASHDOT
 70
0
  3
Dash Dot ____ _ ____ _
 72
65
 73
4
 40
2.0
 49
1.25
 49
-0.25
 49
0.25
 49
-0.25
  0
LTYPE
  5
411
  2
DASHED
 70
0
  3
Dashed __ __ __ __ __
 72
65
 73
2
 40
0.75
 49
0.5
 49
-0.25
  0
LTYPE
  5
43B
  2
DOTTED
 70
0
  3
Dotted .  .  .  .
 72
65
 73
2
 40
0.2
 49
0.0
 49
-0.2
  0
ENDTAB
  0
TABLE
  2
STYLE
  70
4
  0
STYLE
  2
KICAD
  70
0
  40
0
  41
1
  42
1
  50
0
  71
0
  3
isocp.shx
  0
STYLE
  2
KICADB
  70
0
  40
0
  41
1
  42
1
  50
0
  71
0
  3
isocp.shx
  0
STYLE
  2
KICADI
  70
0
  40
0
  41
1
  42
1
  50
15
  71
0
  3
isocp.shx
  0
STYLE
  2
KICADBI
  70
0
  40
0
  41
1
  42
1
  50
15
  71
0
  3
isocp.shx
  0
ENDTAB
  0
TABLE
  2
LAYER
  70
1
  0
LAYER
  2
BLACK
  70
0
  62
7
  6
CONTINUOUS
  0
ENDTAB
  0
ENDSEC
  0
SECTION
  2
ENTITIES
0
LINE
8
BLACK
6
CONTINUOUS
10
1.82237
20
0.440406
11
1.82209
21
0.441102
0
LINE
8
BLACK
6
CONTINUOUS
10
1.82209
20
0.441102
11
1.82209
21
0.578898
0
LINE
8
BLACK
6
CONTINUOUS
10
1.82209
20
0.578898
11
1.82237
21
0.579594
0
LINE
8
BLACK
6
CONTINUOUS
10
1.82237
20
0.579594
11
1.82307
21
0.579882
0
LINE
8
BLACK
6
CONTINUOUS
10
1.82307
20
0.579882
11
1.95693
21
0.579882
0
LINE
8
BLACK
6
CONTINUOUS
10
1.95693
20
0.579882
11
1.95763
21
0.579594
0
LINE
8
BLACK
6
CONTINUOUS
10
1.95763
20
0.579594
11
1.95791
21
0.578898
0
LINE
8
BLACK
6
CONTINUOUS
10
1.95791
20
0.578898
11
1.95791
21
0.441102
0
LINE
8
BLACK
6
CONTINUOUS
10
1.95791
20
0.441102
11
1.95763
21
0.440406
0
LINE
8
BLACK
6
CONTINUOUS
10
1.95763
20
0.440406
11
1.95693
21
0.440118
0
LINE
8
BLACK
6
CONTINUOUS
10
1.95693
20
0.440118
11
1.82307
21
0.440118
0
LINE
8
BLACK
6
CONTINUOUS
10
1.82307
20
0.440118
11
1.82237
21
0.440406
0
LINE
8
BLACK
6
CONTINUOUS
10
1.82406
20
0.577913
11
1.82406
21
0.442087
0
LINE
8
BLACK
6
CONTINUOUS
10
1.82406
20
0.442087
11
1.95594
21
0.442087
0
LINE
8
BLACK
6
CONTINUOUS
10
1.95594
20
0.442087
11
1.95594
21
0.577913
0
LINE
8
BLACK
6
CONTINUOUS
10
1.95594
20
0.577913
11
1.82406
21
0.577913
0
LINE
8
BLACK
6
CONTINUOUS
10
1.67237
20
0.440406
11
1.67209
21
0.441102
0
LINE
8
BLACK
6
CONTINUOUS
10
1.67209
20
0.441102
11
1.67209
21
0.578898
0
LINE
8
BLACK
6
CONTINUOUS
10
1.67209
20
0.578898
11
1.67237
21
0.579594
0
LINE
8
BLACK
6
CONTINUOUS
10
1.67237
20
0.579594
11
1.67307
21
0.579882
0
LINE
8
BLACK
6
CONTINUOUS
10
1.67307
20
0.579882
11
1.80693
21
0.579882
0
LINE
8
BLACK
6
CONTINUOUS
10
1.80693
20
0.579882
11
1.80763
21
0.579594
0
LINE
8
BLACK
6
CONTINUOUS
10
1.80763
20
0.579594
11
1.80791
21
0.578898
0
LINE
8
BLACK
6
CONTINUOUS
10
1.80791
20
0.578898
11
1.80791
21
0.441102
0
LINE
8
BLACK
6
CONTINUOUS
10
1.80791
20
0.441102
11
1.80763
21
0.440406
0
LINE
8
BLACK
6
CONTINUOUS
10
1.80763
20
0.440406
11
1.80693
21
0.440118
0
LINE
8
BLACK
6
CONTINUOUS
10
1.80693
20
0.440118
11
1.67307
21
0.440118
0
LINE
8
BLACK
6
CONTINUOUS
10
1.67307
20
0.440118
11
1.67237
21
0.440406
0
LINE
8
BLACK
6
CONTINUOUS
10
1.67406
20
0.577913
11
1.67406
21
0.442087
0
LINE
8
BLACK
6
CONTINUOUS
10
1.67406
20
0.442087
11
1.80594
21
0.442087
0
LINE
8
BLACK
6
CONTINUOUS
10
1.80594
20
0.442087
11
1.80594
21
0.577913
0
LINE
8
BLACK
6
CONTINUOUS
10
1.80594
20
0.577913
11
1.67406
21
0.577913
0
LINE
8
BLACK
6
CONTINUOUS
10
0.931784
20
0.701469
11
0.931496
21
0.702165
0
LINE
8
BLACK
6
CONTINUOUS
10
0.931496
20
0.702165
11
0.931496
21
0.947835
0
LINE
8
BLACK
6
CONTINUOUS
10
0.931496
20
0.947835
11
0.931784
21
0.948531
0
LINE
8
BLACK
6
CONTINUOUS
10
0.931784
20
0.948531
11
0.93248
21
0.948819
0
LINE
8
BLACK
6
CONTINUOUS
10
0.93248
20
0.948819
11
1.21752
21
0.948819
0
LINE
8
BLACK
6
CONTINUOUS
10
1.21752
20
0.948819
11
1.21822
21
0.948531
0
LINE
8
BLACK
6
CONTINUOUS
10
1.21822
20
0.948531
11
1.2185
21
0.947835
0
LINE
8
BLACK
6
CONTINUOUS
10
1.2185
20
0.947835
11
1.2185
21
0.702165
0
LINE
8
BLACK
6
CONTINUOUS
10
1.2185
20
0.702165
11
1.21822
21
0.701469
0
LINE
8
BLACK
6
CONTINUOUS
10
1.21822
20
0.701469
11
1.21752
21
0.701181
0
LINE
8
BLACK
6
CONTINUOUS
10
1.21752
20
0.701181
11
0.93248
21
0.701181
0
LINE
8
BLACK
6
CONTINUOUS
10
0.93248
20
0.701181
11
0.931784
21
0.701469
0
LINE
8
BLACK
6
CONTINUOUS
10
0.933465
20
0.94685
11
0.933465
21
0.70315
0
LINE
8
BLACK
6
CONTINUOUS
10
0.933465
20
0.70315
11
1.21654
21
0.70315
0
LINE
8
BLACK
6
CONTINUOUS
10
1.21654
20
0.70315
11
1.21654
21
0.94685
0
LINE
8
BLACK
6
CONTINUOUS
10
1.21654
20
0.94685
11
0.933465
21
0.94685
0
LINE
8
BLACK
6
CONTINUOUS
10
0.280997
20
0.969973
11
0.280709
21
0.970669
0
LINE
8
BLACK
6
CONTINUOUS
10
0.280709
20
0.970669
11
0.280709
21
1.17933
0
LINE
8
BLACK
6
CONTINUOUS
10
0.280709
20
1.17933
11
0.280997
21
1.18003
0
LINE
8
BLACK
6
CONTINUOUS
10
0.280997
20
1.18003
11
0.281693
21
1.18031
0
LINE
8
BLACK
6
CONTINUOUS
10
0.281693
20
1.18031
11
0.368307
21
1.18031
0
LINE
8
BLACK
6
CONTINUOUS
10
0.368307
20
1.18031
11
0.369003
21
1.18003
0
LINE
8
BLACK
6
CONTINUOUS
10
0.369003
20
1.18003
11
0.369291
21
1.17933
0
LINE
8
BLACK
6
CONTINUOUS
10
0.369291
20
1.17933
11
0.369291
21
0.970669
0
LINE
8
BLACK
6
CONTINUOUS
10
0.369291
20
0.970669
11
0.369003
21
0.969973
0
LINE
8
BLACK
6
CONTINUOUS
10
0.369003
20
0.969973
11
0.368307
21
0.969685
0
LINE
8
BLACK
6
CONTINUOUS
10
0.368307
20
0.969685
11
0.281693
21
0.969685
0
LINE
8
BLACK
6
CONTINUOUS
10
0.281693
20
0.969685
11
0.280997
21
0.969973
0
LINE
8
BLACK
6
CONTINUOUS
10
0.282677
20
1.17835
11
0.282677
21
0.971654
0
LINE
8
BLACK
6
CONTINUOUS
10
0.282677
20
0.971654
11
0.367323
21
0.971654
0
LINE
8
BLACK
6
CONTINUOUS
10
0.367323
20
0.971654
11
0.367323
21
1.17835
0
LINE
8
BLACK
6
CONTINUOUS
10
0.367323
20
1.17835
11
0.282677
21
1.17835
0
LINE
8
BLACK
6
CONTINUOUS
10
0.99832
20
1.01938
11
0.998031
21
1.02008
0
LINE
8
BLACK
6
CONTINUOUS
10
0.998031
20
1.02008
11
0.998031
21
1.18543
0
LINE
8
BLACK
6
CONTINUOUS
10
0.998031
20
1.18543
11
0.99832
21
1.18613
0
LINE
8
BLACK
6
CONTINUOUS
10
0.99832
20
1.18613
11
0.999016
21
1.18642
0
LINE
8
BLACK
6
CONTINUOUS
10
0.999016
20
1.18642
11
1.25098
21
1.18642
0
LINE
8
BLACK
6
CONTINUOUS
10
1.25098
20
1.18642
11
1.25168
21
1.18613
0
LINE
8
BLACK
6
CONTINUOUS
10
1.25168
20
1.18613
11
1.25197
21
1.18543
0
LINE
8
BLACK
6
CONTINUOUS
10
1.25197
20
1.18543
11
1.25197
21
1.02008
0
LINE
8
BLACK
6
CONTINUOUS
10
1.25197
20
1.02008
11
1.25168
21
1.01938
0
LINE
8
BLACK
6
CONTINUOUS
10
1.25168
20
1.01938
11
1.25098
21
1.01909
0
LINE
8
BLACK
6
CONTINUOUS
10
1.25098
20
1.01909
11
0.999016
21
1.01909
0
LINE
8
BLACK
6
CONTINUOUS
10
0.999016
20
1.01909
11
0.99832
21
1.01938
0
LINE
8
BLACK
6
CONTINUOUS
10
1
20
1.18445
11
1
21
1.02106
0
LINE
8
BLACK
6
CONTINUOUS
10
1
20
1.02106
11
1.25
21
1.02106
0
LINE
8
BLACK
6
CONTINUOUS
10
1.25
20
1.02106
11
1.25
21
1.18445
0
LINE
8
BLACK
6
CONTINUOUS
10
1.25
20
1.18445
11
1
21
1.18445
  0
ENDSEC
  0
EOF
