  0
SECTION
  2
HEADER
  9
$ANGBASE
  50
0.0
  9
$ANGDIR
  70
1
  9
$MEASUREMENT
  70
0
  0
ENDSEC
  0
SECTION
  2
TABLES
  0
TABLE
  2
LTYPE
  70
4
  0
LTYPE
  5
40F
  2
CONTINUOUS
  70
0
  3
Solid line
  72
65
  73
0
  40
0.0
  0
LTYPE
  5
410
  2
DASHDOT
 70
0
  3
Dash Dot ____ _ ____ _
 72
65
 73
4
 40
2.0
 49
1.25
 49
-0.25
 49
0.25
 49
-0.25
  0
LTYPE
  5
411
  2
DASHED
 70
0
  3
Dashed __ __ __ __ __
 72
65
 73
2
 40
0.75
 49
0.5
 49
-0.25
  0
LTYPE
  5
43B
  2
DOTTED
 70
0
  3
Dotted .  .  .  .
 72
65
 73
2
 40
0.2
 49
0.0
 49
-0.2
  0
ENDTAB
  0
TABLE
  2
STYLE
  70
4
  0
STYLE
  2
KICAD
  70
0
  40
0
  41
1
  42
1
  50
0
  71
0
  3
isocp.shx
  0
STYLE
  2
KICADB
  70
0
  40
0
  41
1
  42
1
  50
0
  71
0
  3
isocp.shx
  0
STYLE
  2
KICADI
  70
0
  40
0
  41
1
  42
1
  50
15
  71
0
  3
isocp.shx
  0
STYLE
  2
KICADBI
  70
0
  40
0
  41
1
  42
1
  50
15
  71
0
  3
isocp.shx
  0
ENDTAB
  0
TABLE
  2
LAYER
  70
1
  0
LAYER
  2
BLACK
  70
0
  62
7
  6
CONTINUOUS
  0
ENDTAB
  0
ENDSEC
  0
SECTION
  2
ENTITIES
0
LINE
8
BLACK
6
CONTINUOUS
10
5.52856
20
-4.78306
11
5.47356
21
-4.78306
0
LINE
8
BLACK
6
CONTINUOUS
10
5.47356
20
-4.78306
11
5.47356
21
-4.74806
0
LINE
8
BLACK
6
CONTINUOUS
10
5.47356
20
-4.74806
11
5.52856
21
-4.74806
0
LINE
8
BLACK
6
CONTINUOUS
10
5.52856
20
-4.74806
11
5.52856
21
-4.78306
0
LINE
8
BLACK
6
CONTINUOUS
10
5.62856
20
-4.78306
11
5.57356
21
-4.78306
0
LINE
8
BLACK
6
CONTINUOUS
10
5.57356
20
-4.78306
11
5.57356
21
-4.74806
0
LINE
8
BLACK
6
CONTINUOUS
10
5.57356
20
-4.74806
11
5.62856
21
-4.74806
0
LINE
8
BLACK
6
CONTINUOUS
10
5.62856
20
-4.74806
11
5.62856
21
-4.78306
0
LINE
8
BLACK
6
CONTINUOUS
10
6.02856
20
-4.78306
11
5.97356
21
-4.78306
0
LINE
8
BLACK
6
CONTINUOUS
10
5.97356
20
-4.78306
11
5.97356
21
-4.74806
0
LINE
8
BLACK
6
CONTINUOUS
10
5.97356
20
-4.74806
11
6.02856
21
-4.74806
0
LINE
8
BLACK
6
CONTINUOUS
10
6.02856
20
-4.74806
11
6.02856
21
-4.78306
0
LINE
8
BLACK
6
CONTINUOUS
10
6.12856
20
-4.78306
11
6.07356
21
-4.78306
0
LINE
8
BLACK
6
CONTINUOUS
10
6.07356
20
-4.78306
11
6.07356
21
-4.74806
0
LINE
8
BLACK
6
CONTINUOUS
10
6.07356
20
-4.74806
11
6.12856
21
-4.74806
0
LINE
8
BLACK
6
CONTINUOUS
10
6.12856
20
-4.74806
11
6.12856
21
-4.78306
0
LINE
8
BLACK
6
CONTINUOUS
10
6.62559
20
-4.75845
11
6.56654
21
-4.75845
0
LINE
8
BLACK
6
CONTINUOUS
10
6.56654
20
-4.75845
11
6.56654
21
-4.72105
0
LINE
8
BLACK
6
CONTINUOUS
10
6.56654
20
-4.72105
11
6.62559
21
-4.72105
0
LINE
8
BLACK
6
CONTINUOUS
10
6.62559
20
-4.72105
11
6.62559
21
-4.75845
0
LINE
8
BLACK
6
CONTINUOUS
10
6.76559
20
-4.75845
11
6.70654
21
-4.75845
0
LINE
8
BLACK
6
CONTINUOUS
10
6.70654
20
-4.75845
11
6.70654
21
-4.72105
0
LINE
8
BLACK
6
CONTINUOUS
10
6.70654
20
-4.72105
11
6.76559
21
-4.72105
0
LINE
8
BLACK
6
CONTINUOUS
10
6.76559
20
-4.72105
11
6.76559
21
-4.75845
0
LINE
8
BLACK
6
CONTINUOUS
10
5.04657
20
-4.51174
11
5.05994
21
-4.51491
0
LINE
8
BLACK
6
CONTINUOUS
10
5.05994
20
-4.51491
11
5.07285
21
-4.51961
0
LINE
8
BLACK
6
CONTINUOUS
10
5.07285
20
-4.51961
11
5.08512
21
-4.52577
0
LINE
8
BLACK
6
CONTINUOUS
10
5.08512
20
-4.52577
11
5.0966
21
-4.53332
0
LINE
8
BLACK
6
CONTINUOUS
10
5.0966
20
-4.53332
11
5.10712
21
-4.54215
0
LINE
8
BLACK
6
CONTINUOUS
10
5.10712
20
-4.54215
11
5.11654
21
-4.55214
0
LINE
8
BLACK
6
CONTINUOUS
10
5.11654
20
-4.55214
11
5.12474
21
-4.56316
0
LINE
8
BLACK
6
CONTINUOUS
10
5.12474
20
-4.56316
11
5.13161
21
-4.57505
0
LINE
8
BLACK
6
CONTINUOUS
10
5.13161
20
-4.57505
11
5.13705
21
-4.58766
0
LINE
8
BLACK
6
CONTINUOUS
10
5.13705
20
-4.58766
11
5.14099
21
-4.60082
0
LINE
8
BLACK
6
CONTINUOUS
10
5.14099
20
-4.60082
11
5.14338
21
-4.61435
0
LINE
8
BLACK
6
CONTINUOUS
10
5.14338
20
-4.61435
11
5.14418
21
-4.62806
0
LINE
8
BLACK
6
CONTINUOUS
10
5.14418
20
-4.62806
11
5.14338
21
-4.64177
0
LINE
8
BLACK
6
CONTINUOUS
10
5.14338
20
-4.64177
11
5.14099
21
-4.6553
0
LINE
8
BLACK
6
CONTINUOUS
10
5.14099
20
-4.6553
11
5.13705
21
-4.66845
0
LINE
8
BLACK
6
CONTINUOUS
10
5.13705
20
-4.66845
11
5.13161
21
-4.68107
0
LINE
8
BLACK
6
CONTINUOUS
10
5.13161
20
-4.68107
11
5.12474
21
-4.69296
0
LINE
8
BLACK
6
CONTINUOUS
10
5.12474
20
-4.69296
11
5.11654
21
-4.70398
0
LINE
8
BLACK
6
CONTINUOUS
10
5.11654
20
-4.70398
11
5.10712
21
-4.71397
0
LINE
8
BLACK
6
CONTINUOUS
10
5.10712
20
-4.71397
11
5.0966
21
-4.7228
0
LINE
8
BLACK
6
CONTINUOUS
10
5.0966
20
-4.7228
11
5.08512
21
-4.73035
0
LINE
8
BLACK
6
CONTINUOUS
10
5.08512
20
-4.73035
11
5.07285
21
-4.73651
0
LINE
8
BLACK
6
CONTINUOUS
10
5.07285
20
-4.73651
11
5.05994
21
-4.74121
0
LINE
8
BLACK
6
CONTINUOUS
10
5.05994
20
-4.74121
11
5.04657
21
-4.74437
0
LINE
8
BLACK
6
CONTINUOUS
10
5.04657
20
-4.74437
11
5.03293
21
-4.74597
0
LINE
8
BLACK
6
CONTINUOUS
10
5.03293
20
-4.74597
11
5.0192
21
-4.74597
0
LINE
8
BLACK
6
CONTINUOUS
10
5.0192
20
-4.74597
11
5.00556
21
-4.74437
0
LINE
8
BLACK
6
CONTINUOUS
10
5.00556
20
-4.74437
11
4.99219
21
-4.74121
0
LINE
8
BLACK
6
CONTINUOUS
10
4.99219
20
-4.74121
11
4.97928
21
-4.73651
0
LINE
8
BLACK
6
CONTINUOUS
10
4.97928
20
-4.73651
11
4.96701
21
-4.73035
0
LINE
8
BLACK
6
CONTINUOUS
10
4.96701
20
-4.73035
11
4.95553
21
-4.7228
0
LINE
8
BLACK
6
CONTINUOUS
10
4.95553
20
-4.7228
11
4.94501
21
-4.71397
0
LINE
8
BLACK
6
CONTINUOUS
10
4.94501
20
-4.71397
11
4.93559
21
-4.70398
0
LINE
8
BLACK
6
CONTINUOUS
10
4.93559
20
-4.70398
11
4.92739
21
-4.69296
0
LINE
8
BLACK
6
CONTINUOUS
10
4.92739
20
-4.69296
11
4.92052
21
-4.68107
0
LINE
8
BLACK
6
CONTINUOUS
10
4.92052
20
-4.68107
11
4.91508
21
-4.66845
0
LINE
8
BLACK
6
CONTINUOUS
10
4.91508
20
-4.66845
11
4.91114
21
-4.6553
0
LINE
8
BLACK
6
CONTINUOUS
10
4.91114
20
-4.6553
11
4.90875
21
-4.64177
0
LINE
8
BLACK
6
CONTINUOUS
10
4.90875
20
-4.64177
11
4.90795
21
-4.62806
0
LINE
8
BLACK
6
CONTINUOUS
10
4.90795
20
-4.62806
11
4.90875
21
-4.61435
0
LINE
8
BLACK
6
CONTINUOUS
10
4.90875
20
-4.61435
11
4.91114
21
-4.60082
0
LINE
8
BLACK
6
CONTINUOUS
10
4.91114
20
-4.60082
11
4.91508
21
-4.58766
0
LINE
8
BLACK
6
CONTINUOUS
10
4.91508
20
-4.58766
11
4.92052
21
-4.57505
0
LINE
8
BLACK
6
CONTINUOUS
10
4.92052
20
-4.57505
11
4.92739
21
-4.56316
0
LINE
8
BLACK
6
CONTINUOUS
10
4.92739
20
-4.56316
11
4.93559
21
-4.55214
0
LINE
8
BLACK
6
CONTINUOUS
10
4.93559
20
-4.55214
11
4.94501
21
-4.54215
0
LINE
8
BLACK
6
CONTINUOUS
10
4.94501
20
-4.54215
11
4.95553
21
-4.53332
0
LINE
8
BLACK
6
CONTINUOUS
10
4.95553
20
-4.53332
11
4.96701
21
-4.52577
0
LINE
8
BLACK
6
CONTINUOUS
10
4.96701
20
-4.52577
11
4.97928
21
-4.51961
0
LINE
8
BLACK
6
CONTINUOUS
10
4.97928
20
-4.51961
11
4.99219
21
-4.51491
0
LINE
8
BLACK
6
CONTINUOUS
10
4.99219
20
-4.51491
11
5.00556
21
-4.51174
0
LINE
8
BLACK
6
CONTINUOUS
10
5.00556
20
-4.51174
11
5.0192
21
-4.51015
0
LINE
8
BLACK
6
CONTINUOUS
10
5.0192
20
-4.51015
11
5.03293
21
-4.51015
0
LINE
8
BLACK
6
CONTINUOUS
10
5.03293
20
-4.51015
11
5.04657
21
-4.51174
0
LINE
8
BLACK
6
CONTINUOUS
10
7.04657
20
-4.51174
11
7.05994
21
-4.51491
0
LINE
8
BLACK
6
CONTINUOUS
10
7.05994
20
-4.51491
11
7.07285
21
-4.51961
0
LINE
8
BLACK
6
CONTINUOUS
10
7.07285
20
-4.51961
11
7.08512
21
-4.52577
0
LINE
8
BLACK
6
CONTINUOUS
10
7.08512
20
-4.52577
11
7.0966
21
-4.53332
0
LINE
8
BLACK
6
CONTINUOUS
10
7.0966
20
-4.53332
11
7.10712
21
-4.54215
0
LINE
8
BLACK
6
CONTINUOUS
10
7.10712
20
-4.54215
11
7.11654
21
-4.55214
0
LINE
8
BLACK
6
CONTINUOUS
10
7.11654
20
-4.55214
11
7.12474
21
-4.56316
0
LINE
8
BLACK
6
CONTINUOUS
10
7.12474
20
-4.56316
11
7.13161
21
-4.57505
0
LINE
8
BLACK
6
CONTINUOUS
10
7.13161
20
-4.57505
11
7.13705
21
-4.58766
0
LINE
8
BLACK
6
CONTINUOUS
10
7.13705
20
-4.58766
11
7.14099
21
-4.60082
0
LINE
8
BLACK
6
CONTINUOUS
10
7.14099
20
-4.60082
11
7.14338
21
-4.61435
0
LINE
8
BLACK
6
CONTINUOUS
10
7.14338
20
-4.61435
11
7.14418
21
-4.62806
0
LINE
8
BLACK
6
CONTINUOUS
10
7.14418
20
-4.62806
11
7.14338
21
-4.64177
0
LINE
8
BLACK
6
CONTINUOUS
10
7.14338
20
-4.64177
11
7.14099
21
-4.6553
0
LINE
8
BLACK
6
CONTINUOUS
10
7.14099
20
-4.6553
11
7.13705
21
-4.66845
0
LINE
8
BLACK
6
CONTINUOUS
10
7.13705
20
-4.66845
11
7.13161
21
-4.68107
0
LINE
8
BLACK
6
CONTINUOUS
10
7.13161
20
-4.68107
11
7.12474
21
-4.69296
0
LINE
8
BLACK
6
CONTINUOUS
10
7.12474
20
-4.69296
11
7.11654
21
-4.70398
0
LINE
8
BLACK
6
CONTINUOUS
10
7.11654
20
-4.70398
11
7.10712
21
-4.71397
0
LINE
8
BLACK
6
CONTINUOUS
10
7.10712
20
-4.71397
11
7.0966
21
-4.7228
0
LINE
8
BLACK
6
CONTINUOUS
10
7.0966
20
-4.7228
11
7.08512
21
-4.73035
0
LINE
8
BLACK
6
CONTINUOUS
10
7.08512
20
-4.73035
11
7.07285
21
-4.73651
0
LINE
8
BLACK
6
CONTINUOUS
10
7.07285
20
-4.73651
11
7.05994
21
-4.74121
0
LINE
8
BLACK
6
CONTINUOUS
10
7.05994
20
-4.74121
11
7.04657
21
-4.74437
0
LINE
8
BLACK
6
CONTINUOUS
10
7.04657
20
-4.74437
11
7.03293
21
-4.74597
0
LINE
8
BLACK
6
CONTINUOUS
10
7.03293
20
-4.74597
11
7.0192
21
-4.74597
0
LINE
8
BLACK
6
CONTINUOUS
10
7.0192
20
-4.74597
11
7.00556
21
-4.74437
0
LINE
8
BLACK
6
CONTINUOUS
10
7.00556
20
-4.74437
11
6.99219
21
-4.74121
0
LINE
8
BLACK
6
CONTINUOUS
10
6.99219
20
-4.74121
11
6.97928
21
-4.73651
0
LINE
8
BLACK
6
CONTINUOUS
10
6.97928
20
-4.73651
11
6.96701
21
-4.73035
0
LINE
8
BLACK
6
CONTINUOUS
10
6.96701
20
-4.73035
11
6.95553
21
-4.7228
0
LINE
8
BLACK
6
CONTINUOUS
10
6.95553
20
-4.7228
11
6.94501
21
-4.71397
0
LINE
8
BLACK
6
CONTINUOUS
10
6.94501
20
-4.71397
11
6.93559
21
-4.70398
0
LINE
8
BLACK
6
CONTINUOUS
10
6.93559
20
-4.70398
11
6.92739
21
-4.69296
0
LINE
8
BLACK
6
CONTINUOUS
10
6.92739
20
-4.69296
11
6.92052
21
-4.68107
0
LINE
8
BLACK
6
CONTINUOUS
10
6.92052
20
-4.68107
11
6.91508
21
-4.66845
0
LINE
8
BLACK
6
CONTINUOUS
10
6.91508
20
-4.66845
11
6.91114
21
-4.6553
0
LINE
8
BLACK
6
CONTINUOUS
10
6.91114
20
-4.6553
11
6.90875
21
-4.64177
0
LINE
8
BLACK
6
CONTINUOUS
10
6.90875
20
-4.64177
11
6.90795
21
-4.62806
0
LINE
8
BLACK
6
CONTINUOUS
10
6.90795
20
-4.62806
11
6.90875
21
-4.61435
0
LINE
8
BLACK
6
CONTINUOUS
10
6.90875
20
-4.61435
11
6.91114
21
-4.60082
0
LINE
8
BLACK
6
CONTINUOUS
10
6.91114
20
-4.60082
11
6.91508
21
-4.58766
0
LINE
8
BLACK
6
CONTINUOUS
10
6.91508
20
-4.58766
11
6.92052
21
-4.57505
0
LINE
8
BLACK
6
CONTINUOUS
10
6.92052
20
-4.57505
11
6.92739
21
-4.56316
0
LINE
8
BLACK
6
CONTINUOUS
10
6.92739
20
-4.56316
11
6.93559
21
-4.55214
0
LINE
8
BLACK
6
CONTINUOUS
10
6.93559
20
-4.55214
11
6.94501
21
-4.54215
0
LINE
8
BLACK
6
CONTINUOUS
10
6.94501
20
-4.54215
11
6.95553
21
-4.53332
0
LINE
8
BLACK
6
CONTINUOUS
10
6.95553
20
-4.53332
11
6.96701
21
-4.52577
0
LINE
8
BLACK
6
CONTINUOUS
10
6.96701
20
-4.52577
11
6.97928
21
-4.51961
0
LINE
8
BLACK
6
CONTINUOUS
10
6.97928
20
-4.51961
11
6.99219
21
-4.51491
0
LINE
8
BLACK
6
CONTINUOUS
10
6.99219
20
-4.51491
11
7.00556
21
-4.51174
0
LINE
8
BLACK
6
CONTINUOUS
10
7.00556
20
-4.51174
11
7.0192
21
-4.51015
0
LINE
8
BLACK
6
CONTINUOUS
10
7.0192
20
-4.51015
11
7.03293
21
-4.51015
0
LINE
8
BLACK
6
CONTINUOUS
10
7.03293
20
-4.51015
11
7.04657
21
-4.51174
0
LINE
8
BLACK
6
CONTINUOUS
10
6.60529
20
-4.60572
11
6.61424
21
-4.60811
0
LINE
8
BLACK
6
CONTINUOUS
10
6.61424
20
-4.60811
11
6.62264
21
-4.61203
0
LINE
8
BLACK
6
CONTINUOUS
10
6.62264
20
-4.61203
11
6.63023
21
-4.61734
0
LINE
8
BLACK
6
CONTINUOUS
10
6.63023
20
-4.61734
11
6.63678
21
-4.62389
0
LINE
8
BLACK
6
CONTINUOUS
10
6.63678
20
-4.62389
11
6.64209
21
-4.63148
0
LINE
8
BLACK
6
CONTINUOUS
10
6.64209
20
-4.63148
11
6.64601
21
-4.63988
0
LINE
8
BLACK
6
CONTINUOUS
10
6.64601
20
-4.63988
11
6.64841
21
-4.64883
0
LINE
8
BLACK
6
CONTINUOUS
10
6.64841
20
-4.64883
11
6.64921
21
-4.65806
0
LINE
8
BLACK
6
CONTINUOUS
10
6.64921
20
-4.65806
11
6.64841
21
-4.66729
0
LINE
8
BLACK
6
CONTINUOUS
10
6.64841
20
-4.66729
11
6.64601
21
-4.67624
0
LINE
8
BLACK
6
CONTINUOUS
10
6.64601
20
-4.67624
11
6.64209
21
-4.68463
0
LINE
8
BLACK
6
CONTINUOUS
10
6.64209
20
-4.68463
11
6.63678
21
-4.69222
0
LINE
8
BLACK
6
CONTINUOUS
10
6.63678
20
-4.69222
11
6.63023
21
-4.69877
0
LINE
8
BLACK
6
CONTINUOUS
10
6.63023
20
-4.69877
11
6.62264
21
-4.70409
0
LINE
8
BLACK
6
CONTINUOUS
10
6.62264
20
-4.70409
11
6.61424
21
-4.708
0
LINE
8
BLACK
6
CONTINUOUS
10
6.61424
20
-4.708
11
6.60529
21
-4.7104
0
LINE
8
BLACK
6
CONTINUOUS
10
6.60529
20
-4.7104
11
6.59606
21
-4.71121
0
LINE
8
BLACK
6
CONTINUOUS
10
6.59606
20
-4.71121
11
6.58684
21
-4.7104
0
LINE
8
BLACK
6
CONTINUOUS
10
6.58684
20
-4.7104
11
6.57789
21
-4.708
0
LINE
8
BLACK
6
CONTINUOUS
10
6.57789
20
-4.708
11
6.56949
21
-4.70409
0
LINE
8
BLACK
6
CONTINUOUS
10
6.56949
20
-4.70409
11
6.5619
21
-4.69877
0
LINE
8
BLACK
6
CONTINUOUS
10
6.5619
20
-4.69877
11
6.55535
21
-4.69222
0
LINE
8
BLACK
6
CONTINUOUS
10
6.55535
20
-4.69222
11
6.55004
21
-4.68463
0
LINE
8
BLACK
6
CONTINUOUS
10
6.55004
20
-4.68463
11
6.54612
21
-4.67624
0
LINE
8
BLACK
6
CONTINUOUS
10
6.54612
20
-4.67624
11
6.54372
21
-4.66729
0
LINE
8
BLACK
6
CONTINUOUS
10
6.54372
20
-4.66729
11
6.54292
21
-4.65806
0
LINE
8
BLACK
6
CONTINUOUS
10
6.54292
20
-4.65806
11
6.54372
21
-4.64883
0
LINE
8
BLACK
6
CONTINUOUS
10
6.54372
20
-4.64883
11
6.54612
21
-4.63988
0
LINE
8
BLACK
6
CONTINUOUS
10
6.54612
20
-4.63988
11
6.55004
21
-4.63148
0
LINE
8
BLACK
6
CONTINUOUS
10
6.55004
20
-4.63148
11
6.55535
21
-4.62389
0
LINE
8
BLACK
6
CONTINUOUS
10
6.55535
20
-4.62389
11
6.5619
21
-4.61734
0
LINE
8
BLACK
6
CONTINUOUS
10
6.5619
20
-4.61734
11
6.56949
21
-4.61203
0
LINE
8
BLACK
6
CONTINUOUS
10
6.56949
20
-4.61203
11
6.57789
21
-4.60811
0
LINE
8
BLACK
6
CONTINUOUS
10
6.57789
20
-4.60811
11
6.58684
21
-4.60572
0
LINE
8
BLACK
6
CONTINUOUS
10
6.58684
20
-4.60572
11
6.59606
21
-4.60491
0
LINE
8
BLACK
6
CONTINUOUS
10
6.59606
20
-4.60491
11
6.60529
21
-4.60572
0
LINE
8
BLACK
6
CONTINUOUS
10
6.74529
20
-4.60572
11
6.75424
21
-4.60811
0
LINE
8
BLACK
6
CONTINUOUS
10
6.75424
20
-4.60811
11
6.76264
21
-4.61203
0
LINE
8
BLACK
6
CONTINUOUS
10
6.76264
20
-4.61203
11
6.77023
21
-4.61734
0
LINE
8
BLACK
6
CONTINUOUS
10
6.77023
20
-4.61734
11
6.77678
21
-4.62389
0
LINE
8
BLACK
6
CONTINUOUS
10
6.77678
20
-4.62389
11
6.78209
21
-4.63148
0
LINE
8
BLACK
6
CONTINUOUS
10
6.78209
20
-4.63148
11
6.78601
21
-4.63988
0
LINE
8
BLACK
6
CONTINUOUS
10
6.78601
20
-4.63988
11
6.78841
21
-4.64883
0
LINE
8
BLACK
6
CONTINUOUS
10
6.78841
20
-4.64883
11
6.78921
21
-4.65806
0
LINE
8
BLACK
6
CONTINUOUS
10
6.78921
20
-4.65806
11
6.78841
21
-4.66729
0
LINE
8
BLACK
6
CONTINUOUS
10
6.78841
20
-4.66729
11
6.78601
21
-4.67624
0
LINE
8
BLACK
6
CONTINUOUS
10
6.78601
20
-4.67624
11
6.78209
21
-4.68463
0
LINE
8
BLACK
6
CONTINUOUS
10
6.78209
20
-4.68463
11
6.77678
21
-4.69222
0
LINE
8
BLACK
6
CONTINUOUS
10
6.77678
20
-4.69222
11
6.77023
21
-4.69877
0
LINE
8
BLACK
6
CONTINUOUS
10
6.77023
20
-4.69877
11
6.76264
21
-4.70409
0
LINE
8
BLACK
6
CONTINUOUS
10
6.76264
20
-4.70409
11
6.75424
21
-4.708
0
LINE
8
BLACK
6
CONTINUOUS
10
6.75424
20
-4.708
11
6.74529
21
-4.7104
0
LINE
8
BLACK
6
CONTINUOUS
10
6.74529
20
-4.7104
11
6.73606
21
-4.71121
0
LINE
8
BLACK
6
CONTINUOUS
10
6.73606
20
-4.71121
11
6.72684
21
-4.7104
0
LINE
8
BLACK
6
CONTINUOUS
10
6.72684
20
-4.7104
11
6.71789
21
-4.708
0
LINE
8
BLACK
6
CONTINUOUS
10
6.71789
20
-4.708
11
6.70949
21
-4.70409
0
LINE
8
BLACK
6
CONTINUOUS
10
6.70949
20
-4.70409
11
6.7019
21
-4.69877
0
LINE
8
BLACK
6
CONTINUOUS
10
6.7019
20
-4.69877
11
6.69535
21
-4.69222
0
LINE
8
BLACK
6
CONTINUOUS
10
6.69535
20
-4.69222
11
6.69004
21
-4.68463
0
LINE
8
BLACK
6
CONTINUOUS
10
6.69004
20
-4.68463
11
6.68612
21
-4.67624
0
LINE
8
BLACK
6
CONTINUOUS
10
6.68612
20
-4.67624
11
6.68372
21
-4.66729
0
LINE
8
BLACK
6
CONTINUOUS
10
6.68372
20
-4.66729
11
6.68292
21
-4.65806
0
LINE
8
BLACK
6
CONTINUOUS
10
6.68292
20
-4.65806
11
6.68372
21
-4.64883
0
LINE
8
BLACK
6
CONTINUOUS
10
6.68372
20
-4.64883
11
6.68612
21
-4.63988
0
LINE
8
BLACK
6
CONTINUOUS
10
6.68612
20
-4.63988
11
6.69004
21
-4.63148
0
LINE
8
BLACK
6
CONTINUOUS
10
6.69004
20
-4.63148
11
6.69535
21
-4.62389
0
LINE
8
BLACK
6
CONTINUOUS
10
6.69535
20
-4.62389
11
6.7019
21
-4.61734
0
LINE
8
BLACK
6
CONTINUOUS
10
6.7019
20
-4.61734
11
6.70949
21
-4.61203
0
LINE
8
BLACK
6
CONTINUOUS
10
6.70949
20
-4.61203
11
6.71789
21
-4.60811
0
LINE
8
BLACK
6
CONTINUOUS
10
6.71789
20
-4.60811
11
6.72684
21
-4.60572
0
LINE
8
BLACK
6
CONTINUOUS
10
6.72684
20
-4.60572
11
6.73606
21
-4.60491
0
LINE
8
BLACK
6
CONTINUOUS
10
6.73606
20
-4.60491
11
6.74529
21
-4.60572
0
LINE
8
BLACK
6
CONTINUOUS
10
5.52856
20
-4.70806
11
5.47356
21
-4.70806
0
LINE
8
BLACK
6
CONTINUOUS
10
5.47356
20
-4.70806
11
5.47356
21
-4.67306
0
LINE
8
BLACK
6
CONTINUOUS
10
5.47356
20
-4.67306
11
5.52856
21
-4.67306
0
LINE
8
BLACK
6
CONTINUOUS
10
5.52856
20
-4.67306
11
5.52856
21
-4.70806
0
LINE
8
BLACK
6
CONTINUOUS
10
5.62856
20
-4.70806
11
5.57356
21
-4.70806
0
LINE
8
BLACK
6
CONTINUOUS
10
5.57356
20
-4.70806
11
5.57356
21
-4.67306
0
LINE
8
BLACK
6
CONTINUOUS
10
5.57356
20
-4.67306
11
5.62856
21
-4.67306
0
LINE
8
BLACK
6
CONTINUOUS
10
5.62856
20
-4.67306
11
5.62856
21
-4.70806
0
LINE
8
BLACK
6
CONTINUOUS
10
6.02856
20
-4.70806
11
5.97356
21
-4.70806
0
LINE
8
BLACK
6
CONTINUOUS
10
5.97356
20
-4.70806
11
5.97356
21
-4.67306
0
LINE
8
BLACK
6
CONTINUOUS
10
5.97356
20
-4.67306
11
6.02856
21
-4.67306
0
LINE
8
BLACK
6
CONTINUOUS
10
6.02856
20
-4.67306
11
6.02856
21
-4.70806
0
LINE
8
BLACK
6
CONTINUOUS
10
6.12856
20
-4.70806
11
6.07356
21
-4.70806
0
LINE
8
BLACK
6
CONTINUOUS
10
6.07356
20
-4.70806
11
6.07356
21
-4.67306
0
LINE
8
BLACK
6
CONTINUOUS
10
6.07356
20
-4.67306
11
6.12856
21
-4.67306
0
LINE
8
BLACK
6
CONTINUOUS
10
6.12856
20
-4.67306
11
6.12856
21
-4.70806
0
LINE
8
BLACK
6
CONTINUOUS
10
6.37606
20
-4.69806
11
6.31606
21
-4.69806
0
LINE
8
BLACK
6
CONTINUOUS
10
6.31606
20
-4.69806
11
6.31606
21
-4.63806
0
LINE
8
BLACK
6
CONTINUOUS
10
6.31606
20
-4.63806
11
6.37606
21
-4.63806
0
LINE
8
BLACK
6
CONTINUOUS
10
6.37606
20
-4.63806
11
6.37606
21
-4.69806
0
LINE
8
BLACK
6
CONTINUOUS
10
6.47606
20
-4.69806
11
6.41606
21
-4.69806
0
LINE
8
BLACK
6
CONTINUOUS
10
6.41606
20
-4.69806
11
6.41606
21
-4.63806
0
LINE
8
BLACK
6
CONTINUOUS
10
6.41606
20
-4.63806
11
6.47606
21
-4.63806
0
LINE
8
BLACK
6
CONTINUOUS
10
6.47606
20
-4.63806
11
6.47606
21
-4.69806
0
LINE
8
BLACK
6
CONTINUOUS
10
5.33106
20
-4.60806
11
5.27106
21
-4.60806
0
LINE
8
BLACK
6
CONTINUOUS
10
5.27106
20
-4.60806
11
5.27106
21
-4.54806
0
LINE
8
BLACK
6
CONTINUOUS
10
5.27106
20
-4.54806
11
5.33106
21
-4.54806
0
LINE
8
BLACK
6
CONTINUOUS
10
5.33106
20
-4.54806
11
5.33106
21
-4.60806
0
LINE
8
BLACK
6
CONTINUOUS
10
5.43106
20
-4.60806
11
5.37106
21
-4.60806
0
LINE
8
BLACK
6
CONTINUOUS
10
5.37106
20
-4.60806
11
5.37106
21
-4.54806
0
LINE
8
BLACK
6
CONTINUOUS
10
5.37106
20
-4.54806
11
5.43106
21
-4.54806
0
LINE
8
BLACK
6
CONTINUOUS
10
5.43106
20
-4.54806
11
5.43106
21
-4.60806
0
LINE
8
BLACK
6
CONTINUOUS
10
5.53106
20
-4.60806
11
5.47106
21
-4.60806
0
LINE
8
BLACK
6
CONTINUOUS
10
5.47106
20
-4.60806
11
5.47106
21
-4.54806
0
LINE
8
BLACK
6
CONTINUOUS
10
5.47106
20
-4.54806
11
5.53106
21
-4.54806
0
LINE
8
BLACK
6
CONTINUOUS
10
5.53106
20
-4.54806
11
5.53106
21
-4.60806
0
LINE
8
BLACK
6
CONTINUOUS
10
5.63106
20
-4.60806
11
5.57106
21
-4.60806
0
LINE
8
BLACK
6
CONTINUOUS
10
5.57106
20
-4.60806
11
5.57106
21
-4.54806
0
LINE
8
BLACK
6
CONTINUOUS
10
5.57106
20
-4.54806
11
5.63106
21
-4.54806
0
LINE
8
BLACK
6
CONTINUOUS
10
5.63106
20
-4.54806
11
5.63106
21
-4.60806
0
LINE
8
BLACK
6
CONTINUOUS
10
5.73106
20
-4.60806
11
5.67106
21
-4.60806
0
LINE
8
BLACK
6
CONTINUOUS
10
5.67106
20
-4.60806
11
5.67106
21
-4.54806
0
LINE
8
BLACK
6
CONTINUOUS
10
5.67106
20
-4.54806
11
5.73106
21
-4.54806
0
LINE
8
BLACK
6
CONTINUOUS
10
5.73106
20
-4.54806
11
5.73106
21
-4.60806
0
LINE
8
BLACK
6
CONTINUOUS
10
5.83106
20
-4.60806
11
5.77106
21
-4.60806
0
LINE
8
BLACK
6
CONTINUOUS
10
5.77106
20
-4.60806
11
5.77106
21
-4.54806
0
LINE
8
BLACK
6
CONTINUOUS
10
5.77106
20
-4.54806
11
5.83106
21
-4.54806
0
LINE
8
BLACK
6
CONTINUOUS
10
5.83106
20
-4.54806
11
5.83106
21
-4.60806
0
LINE
8
BLACK
6
CONTINUOUS
10
5.93106
20
-4.60806
11
5.87106
21
-4.60806
0
LINE
8
BLACK
6
CONTINUOUS
10
5.87106
20
-4.60806
11
5.87106
21
-4.54806
0
LINE
8
BLACK
6
CONTINUOUS
10
5.87106
20
-4.54806
11
5.93106
21
-4.54806
0
LINE
8
BLACK
6
CONTINUOUS
10
5.93106
20
-4.54806
11
5.93106
21
-4.60806
0
LINE
8
BLACK
6
CONTINUOUS
10
6.03106
20
-4.60806
11
5.97106
21
-4.60806
0
LINE
8
BLACK
6
CONTINUOUS
10
5.97106
20
-4.60806
11
5.97106
21
-4.54806
0
LINE
8
BLACK
6
CONTINUOUS
10
5.97106
20
-4.54806
11
6.03106
21
-4.54806
0
LINE
8
BLACK
6
CONTINUOUS
10
6.03106
20
-4.54806
11
6.03106
21
-4.60806
0
LINE
8
BLACK
6
CONTINUOUS
10
6.13106
20
-4.60806
11
6.07106
21
-4.60806
0
LINE
8
BLACK
6
CONTINUOUS
10
6.07106
20
-4.60806
11
6.07106
21
-4.54806
0
LINE
8
BLACK
6
CONTINUOUS
10
6.07106
20
-4.54806
11
6.13106
21
-4.54806
0
LINE
8
BLACK
6
CONTINUOUS
10
6.13106
20
-4.54806
11
6.13106
21
-4.60806
0
LINE
8
BLACK
6
CONTINUOUS
10
6.23106
20
-4.60806
11
6.17106
21
-4.60806
0
LINE
8
BLACK
6
CONTINUOUS
10
6.17106
20
-4.60806
11
6.17106
21
-4.54806
0
LINE
8
BLACK
6
CONTINUOUS
10
6.17106
20
-4.54806
11
6.23106
21
-4.54806
0
LINE
8
BLACK
6
CONTINUOUS
10
6.23106
20
-4.54806
11
6.23106
21
-4.60806
0
LINE
8
BLACK
6
CONTINUOUS
10
6.37606
20
-4.59806
11
6.31606
21
-4.59806
0
LINE
8
BLACK
6
CONTINUOUS
10
6.31606
20
-4.59806
11
6.31606
21
-4.53806
0
LINE
8
BLACK
6
CONTINUOUS
10
6.31606
20
-4.53806
11
6.37606
21
-4.53806
0
LINE
8
BLACK
6
CONTINUOUS
10
6.37606
20
-4.53806
11
6.37606
21
-4.59806
0
LINE
8
BLACK
6
CONTINUOUS
10
6.47606
20
-4.59806
11
6.41606
21
-4.59806
0
LINE
8
BLACK
6
CONTINUOUS
10
6.41606
20
-4.59806
11
6.41606
21
-4.53806
0
LINE
8
BLACK
6
CONTINUOUS
10
6.41606
20
-4.53806
11
6.47606
21
-4.53806
0
LINE
8
BLACK
6
CONTINUOUS
10
6.47606
20
-4.53806
11
6.47606
21
-4.59806
0
LINE
8
BLACK
6
CONTINUOUS
10
6.62559
20
-4.59507
11
6.56654
21
-4.59507
0
LINE
8
BLACK
6
CONTINUOUS
10
6.56654
20
-4.59507
11
6.56654
21
-4.55766
0
LINE
8
BLACK
6
CONTINUOUS
10
6.56654
20
-4.55766
11
6.62559
21
-4.55766
0
LINE
8
BLACK
6
CONTINUOUS
10
6.62559
20
-4.55766
11
6.62559
21
-4.59507
0
LINE
8
BLACK
6
CONTINUOUS
10
6.76559
20
-4.59507
11
6.70654
21
-4.59507
0
LINE
8
BLACK
6
CONTINUOUS
10
6.70654
20
-4.59507
11
6.70654
21
-4.55766
0
LINE
8
BLACK
6
CONTINUOUS
10
6.70654
20
-4.55766
11
6.76559
21
-4.55766
0
LINE
8
BLACK
6
CONTINUOUS
10
6.76559
20
-4.55766
11
6.76559
21
-4.59507
0
LINE
8
BLACK
6
CONTINUOUS
10
6.76356
20
-4.52306
11
6.70856
21
-4.52306
0
LINE
8
BLACK
6
CONTINUOUS
10
6.70856
20
-4.52306
11
6.70856
21
-4.48806
0
LINE
8
BLACK
6
CONTINUOUS
10
6.70856
20
-4.48806
11
6.76356
21
-4.48806
0
LINE
8
BLACK
6
CONTINUOUS
10
6.76356
20
-4.48806
11
6.76356
21
-4.52306
0
LINE
8
BLACK
6
CONTINUOUS
10
6.62356
20
-4.52056
11
6.56856
21
-4.52056
0
LINE
8
BLACK
6
CONTINUOUS
10
6.56856
20
-4.52056
11
6.56856
21
-4.48556
0
LINE
8
BLACK
6
CONTINUOUS
10
6.56856
20
-4.48556
11
6.62356
21
-4.48556
0
LINE
8
BLACK
6
CONTINUOUS
10
6.62356
20
-4.48556
11
6.62356
21
-4.52056
0
LINE
8
BLACK
6
CONTINUOUS
10
5.33106
20
-4.50806
11
5.27106
21
-4.50806
0
LINE
8
BLACK
6
CONTINUOUS
10
5.27106
20
-4.50806
11
5.27106
21
-4.44806
0
LINE
8
BLACK
6
CONTINUOUS
10
5.27106
20
-4.44806
11
5.33106
21
-4.44806
0
LINE
8
BLACK
6
CONTINUOUS
10
5.33106
20
-4.44806
11
5.33106
21
-4.50806
0
LINE
8
BLACK
6
CONTINUOUS
10
5.43106
20
-4.50806
11
5.37106
21
-4.50806
0
LINE
8
BLACK
6
CONTINUOUS
10
5.37106
20
-4.50806
11
5.37106
21
-4.44806
0
LINE
8
BLACK
6
CONTINUOUS
10
5.37106
20
-4.44806
11
5.43106
21
-4.44806
0
LINE
8
BLACK
6
CONTINUOUS
10
5.43106
20
-4.44806
11
5.43106
21
-4.50806
0
LINE
8
BLACK
6
CONTINUOUS
10
5.53106
20
-4.50806
11
5.47106
21
-4.50806
0
LINE
8
BLACK
6
CONTINUOUS
10
5.47106
20
-4.50806
11
5.47106
21
-4.44806
0
LINE
8
BLACK
6
CONTINUOUS
10
5.47106
20
-4.44806
11
5.53106
21
-4.44806
0
LINE
8
BLACK
6
CONTINUOUS
10
5.53106
20
-4.44806
11
5.53106
21
-4.50806
0
LINE
8
BLACK
6
CONTINUOUS
10
5.63106
20
-4.50806
11
5.57106
21
-4.50806
0
LINE
8
BLACK
6
CONTINUOUS
10
5.57106
20
-4.50806
11
5.57106
21
-4.44806
0
LINE
8
BLACK
6
CONTINUOUS
10
5.57106
20
-4.44806
11
5.63106
21
-4.44806
0
LINE
8
BLACK
6
CONTINUOUS
10
5.63106
20
-4.44806
11
5.63106
21
-4.50806
0
LINE
8
BLACK
6
CONTINUOUS
10
5.73106
20
-4.50806
11
5.67106
21
-4.50806
0
LINE
8
BLACK
6
CONTINUOUS
10
5.67106
20
-4.50806
11
5.67106
21
-4.44806
0
LINE
8
BLACK
6
CONTINUOUS
10
5.67106
20
-4.44806
11
5.73106
21
-4.44806
0
LINE
8
BLACK
6
CONTINUOUS
10
5.73106
20
-4.44806
11
5.73106
21
-4.50806
0
LINE
8
BLACK
6
CONTINUOUS
10
5.83106
20
-4.50806
11
5.77106
21
-4.50806
0
LINE
8
BLACK
6
CONTINUOUS
10
5.77106
20
-4.50806
11
5.77106
21
-4.44806
0
LINE
8
BLACK
6
CONTINUOUS
10
5.77106
20
-4.44806
11
5.83106
21
-4.44806
0
LINE
8
BLACK
6
CONTINUOUS
10
5.83106
20
-4.44806
11
5.83106
21
-4.50806
0
LINE
8
BLACK
6
CONTINUOUS
10
5.93106
20
-4.50806
11
5.87106
21
-4.50806
0
LINE
8
BLACK
6
CONTINUOUS
10
5.87106
20
-4.50806
11
5.87106
21
-4.44806
0
LINE
8
BLACK
6
CONTINUOUS
10
5.87106
20
-4.44806
11
5.93106
21
-4.44806
0
LINE
8
BLACK
6
CONTINUOUS
10
5.93106
20
-4.44806
11
5.93106
21
-4.50806
0
LINE
8
BLACK
6
CONTINUOUS
10
6.03106
20
-4.50806
11
5.97106
21
-4.50806
0
LINE
8
BLACK
6
CONTINUOUS
10
5.97106
20
-4.50806
11
5.97106
21
-4.44806
0
LINE
8
BLACK
6
CONTINUOUS
10
5.97106
20
-4.44806
11
6.03106
21
-4.44806
0
LINE
8
BLACK
6
CONTINUOUS
10
6.03106
20
-4.44806
11
6.03106
21
-4.50806
0
LINE
8
BLACK
6
CONTINUOUS
10
6.13106
20
-4.50806
11
6.07106
21
-4.50806
0
LINE
8
BLACK
6
CONTINUOUS
10
6.07106
20
-4.50806
11
6.07106
21
-4.44806
0
LINE
8
BLACK
6
CONTINUOUS
10
6.07106
20
-4.44806
11
6.13106
21
-4.44806
0
LINE
8
BLACK
6
CONTINUOUS
10
6.13106
20
-4.44806
11
6.13106
21
-4.50806
0
LINE
8
BLACK
6
CONTINUOUS
10
6.23106
20
-4.50806
11
6.17106
21
-4.50806
0
LINE
8
BLACK
6
CONTINUOUS
10
6.17106
20
-4.50806
11
6.17106
21
-4.44806
0
LINE
8
BLACK
6
CONTINUOUS
10
6.17106
20
-4.44806
11
6.23106
21
-4.44806
0
LINE
8
BLACK
6
CONTINUOUS
10
6.23106
20
-4.44806
11
6.23106
21
-4.50806
0
LINE
8
BLACK
6
CONTINUOUS
10
6.76356
20
-4.44806
11
6.70856
21
-4.44806
0
LINE
8
BLACK
6
CONTINUOUS
10
6.70856
20
-4.44806
11
6.70856
21
-4.41306
0
LINE
8
BLACK
6
CONTINUOUS
10
6.70856
20
-4.41306
11
6.76356
21
-4.41306
0
LINE
8
BLACK
6
CONTINUOUS
10
6.76356
20
-4.41306
11
6.76356
21
-4.44806
0
LINE
8
BLACK
6
CONTINUOUS
10
6.62356
20
-4.44556
11
6.56856
21
-4.44556
0
LINE
8
BLACK
6
CONTINUOUS
10
6.56856
20
-4.44556
11
6.56856
21
-4.41056
0
LINE
8
BLACK
6
CONTINUOUS
10
6.56856
20
-4.41056
11
6.62356
21
-4.41056
0
LINE
8
BLACK
6
CONTINUOUS
10
6.62356
20
-4.41056
11
6.62356
21
-4.44556
0
LINE
8
BLACK
6
CONTINUOUS
10
6.44559
20
-4.43995
11
6.38654
21
-4.43995
0
LINE
8
BLACK
6
CONTINUOUS
10
6.38654
20
-4.43995
11
6.38654
21
-4.38877
0
LINE
8
BLACK
6
CONTINUOUS
10
6.38654
20
-4.38877
11
6.44559
21
-4.38877
0
LINE
8
BLACK
6
CONTINUOUS
10
6.44559
20
-4.38877
11
6.44559
21
-4.43995
0
LINE
8
BLACK
6
CONTINUOUS
10
4.95606
20
-4.42306
11
4.89606
21
-4.42306
0
LINE
8
BLACK
6
CONTINUOUS
10
4.89606
20
-4.42306
11
4.89606
21
-4.36306
0
LINE
8
BLACK
6
CONTINUOUS
10
4.89606
20
-4.36306
11
4.95606
21
-4.36306
0
LINE
8
BLACK
6
CONTINUOUS
10
4.95606
20
-4.36306
11
4.95606
21
-4.42306
0
LINE
8
BLACK
6
CONTINUOUS
10
5.05606
20
-4.42306
11
4.99606
21
-4.42306
0
LINE
8
BLACK
6
CONTINUOUS
10
4.99606
20
-4.42306
11
4.99606
21
-4.36306
0
LINE
8
BLACK
6
CONTINUOUS
10
4.99606
20
-4.36306
11
5.05606
21
-4.36306
0
LINE
8
BLACK
6
CONTINUOUS
10
5.05606
20
-4.36306
11
5.05606
21
-4.42306
0
LINE
8
BLACK
6
CONTINUOUS
10
5.32856
20
-4.40806
11
5.27356
21
-4.40806
0
LINE
8
BLACK
6
CONTINUOUS
10
5.27356
20
-4.40806
11
5.27356
21
-4.37306
0
LINE
8
BLACK
6
CONTINUOUS
10
5.27356
20
-4.37306
11
5.32856
21
-4.37306
0
LINE
8
BLACK
6
CONTINUOUS
10
5.32856
20
-4.37306
11
5.32856
21
-4.40806
0
LINE
8
BLACK
6
CONTINUOUS
10
5.42856
20
-4.40806
11
5.37356
21
-4.40806
0
LINE
8
BLACK
6
CONTINUOUS
10
5.37356
20
-4.40806
11
5.37356
21
-4.37306
0
LINE
8
BLACK
6
CONTINUOUS
10
5.37356
20
-4.37306
11
5.42856
21
-4.37306
0
LINE
8
BLACK
6
CONTINUOUS
10
5.42856
20
-4.37306
11
5.42856
21
-4.40806
0
LINE
8
BLACK
6
CONTINUOUS
10
5.52856
20
-4.40806
11
5.47356
21
-4.40806
0
LINE
8
BLACK
6
CONTINUOUS
10
5.47356
20
-4.40806
11
5.47356
21
-4.37306
0
LINE
8
BLACK
6
CONTINUOUS
10
5.47356
20
-4.37306
11
5.52856
21
-4.37306
0
LINE
8
BLACK
6
CONTINUOUS
10
5.52856
20
-4.37306
11
5.52856
21
-4.40806
0
LINE
8
BLACK
6
CONTINUOUS
10
5.62856
20
-4.40806
11
5.57356
21
-4.40806
0
LINE
8
BLACK
6
CONTINUOUS
10
5.57356
20
-4.40806
11
5.57356
21
-4.37306
0
LINE
8
BLACK
6
CONTINUOUS
10
5.57356
20
-4.37306
11
5.62856
21
-4.37306
0
LINE
8
BLACK
6
CONTINUOUS
10
5.62856
20
-4.37306
11
5.62856
21
-4.40806
0
LINE
8
BLACK
6
CONTINUOUS
10
5.82856
20
-4.40806
11
5.77356
21
-4.40806
0
LINE
8
BLACK
6
CONTINUOUS
10
5.77356
20
-4.40806
11
5.77356
21
-4.37306
0
LINE
8
BLACK
6
CONTINUOUS
10
5.77356
20
-4.37306
11
5.82856
21
-4.37306
0
LINE
8
BLACK
6
CONTINUOUS
10
5.82856
20
-4.37306
11
5.82856
21
-4.40806
0
LINE
8
BLACK
6
CONTINUOUS
10
5.92856
20
-4.40806
11
5.87356
21
-4.40806
0
LINE
8
BLACK
6
CONTINUOUS
10
5.87356
20
-4.40806
11
5.87356
21
-4.37306
0
LINE
8
BLACK
6
CONTINUOUS
10
5.87356
20
-4.37306
11
5.92856
21
-4.37306
0
LINE
8
BLACK
6
CONTINUOUS
10
5.92856
20
-4.37306
11
5.92856
21
-4.40806
0
LINE
8
BLACK
6
CONTINUOUS
10
6.02856
20
-4.40806
11
5.97356
21
-4.40806
0
LINE
8
BLACK
6
CONTINUOUS
10
5.97356
20
-4.40806
11
5.97356
21
-4.37306
0
LINE
8
BLACK
6
CONTINUOUS
10
5.97356
20
-4.37306
11
6.02856
21
-4.37306
0
LINE
8
BLACK
6
CONTINUOUS
10
6.02856
20
-4.37306
11
6.02856
21
-4.40806
0
LINE
8
BLACK
6
CONTINUOUS
10
6.12856
20
-4.40806
11
6.07356
21
-4.40806
0
LINE
8
BLACK
6
CONTINUOUS
10
6.07356
20
-4.40806
11
6.07356
21
-4.37306
0
LINE
8
BLACK
6
CONTINUOUS
10
6.07356
20
-4.37306
11
6.12856
21
-4.37306
0
LINE
8
BLACK
6
CONTINUOUS
10
6.12856
20
-4.37306
11
6.12856
21
-4.40806
0
LINE
8
BLACK
6
CONTINUOUS
10
6.22856
20
-4.40806
11
6.17356
21
-4.40806
0
LINE
8
BLACK
6
CONTINUOUS
10
6.17356
20
-4.40806
11
6.17356
21
-4.37306
0
LINE
8
BLACK
6
CONTINUOUS
10
6.17356
20
-4.37306
11
6.22856
21
-4.37306
0
LINE
8
BLACK
6
CONTINUOUS
10
6.22856
20
-4.37306
11
6.22856
21
-4.40806
0
LINE
8
BLACK
6
CONTINUOUS
10
6.32856
20
-4.38306
11
6.27356
21
-4.38306
0
LINE
8
BLACK
6
CONTINUOUS
10
6.27356
20
-4.38306
11
6.27356
21
-4.34806
0
LINE
8
BLACK
6
CONTINUOUS
10
6.27356
20
-4.34806
11
6.32856
21
-4.34806
0
LINE
8
BLACK
6
CONTINUOUS
10
6.32856
20
-4.34806
11
6.32856
21
-4.38306
0
LINE
8
BLACK
6
CONTINUOUS
10
6.47512
20
-4.37499
11
6.35701
21
-4.37499
0
LINE
8
BLACK
6
CONTINUOUS
10
6.35701
20
-4.37499
11
6.35701
21
-4.34743
0
LINE
8
BLACK
6
CONTINUOUS
10
6.35701
20
-4.34743
11
6.47512
21
-4.34743
0
LINE
8
BLACK
6
CONTINUOUS
10
6.47512
20
-4.34743
11
6.47512
21
-4.37499
0
LINE
8
BLACK
6
CONTINUOUS
10
6.54441
20
-4.37121
11
6.50898
21
-4.37121
0
LINE
8
BLACK
6
CONTINUOUS
10
6.50898
20
-4.37121
11
6.50898
21
-4.33971
0
LINE
8
BLACK
6
CONTINUOUS
10
6.50898
20
-4.33971
11
6.54441
21
-4.33971
0
LINE
8
BLACK
6
CONTINUOUS
10
6.54441
20
-4.33971
11
6.54441
21
-4.37121
0
LINE
8
BLACK
6
CONTINUOUS
10
6.69441
20
-4.37121
11
6.65898
21
-4.37121
0
LINE
8
BLACK
6
CONTINUOUS
10
6.65898
20
-4.37121
11
6.65898
21
-4.33971
0
LINE
8
BLACK
6
CONTINUOUS
10
6.65898
20
-4.33971
11
6.69441
21
-4.33971
0
LINE
8
BLACK
6
CONTINUOUS
10
6.69441
20
-4.33971
11
6.69441
21
-4.37121
0
LINE
8
BLACK
6
CONTINUOUS
10
6.93529
20
-4.25072
11
6.94424
21
-4.25311
0
LINE
8
BLACK
6
CONTINUOUS
10
6.94424
20
-4.25311
11
6.95264
21
-4.25703
0
LINE
8
BLACK
6
CONTINUOUS
10
6.95264
20
-4.25703
11
6.96023
21
-4.26234
0
LINE
8
BLACK
6
CONTINUOUS
10
6.96023
20
-4.26234
11
6.96678
21
-4.26889
0
LINE
8
BLACK
6
CONTINUOUS
10
6.96678
20
-4.26889
11
6.97209
21
-4.27648
0
LINE
8
BLACK
6
CONTINUOUS
10
6.97209
20
-4.27648
11
6.97601
21
-4.28488
0
LINE
8
BLACK
6
CONTINUOUS
10
6.97601
20
-4.28488
11
6.97841
21
-4.29383
0
LINE
8
BLACK
6
CONTINUOUS
10
6.97841
20
-4.29383
11
6.97921
21
-4.30306
0
LINE
8
BLACK
6
CONTINUOUS
10
6.97921
20
-4.30306
11
6.97841
21
-4.31229
0
LINE
8
BLACK
6
CONTINUOUS
10
6.97841
20
-4.31229
11
6.97601
21
-4.32124
0
LINE
8
BLACK
6
CONTINUOUS
10
6.97601
20
-4.32124
11
6.97209
21
-4.32963
0
LINE
8
BLACK
6
CONTINUOUS
10
6.97209
20
-4.32963
11
6.96678
21
-4.33722
0
LINE
8
BLACK
6
CONTINUOUS
10
6.96678
20
-4.33722
11
6.96023
21
-4.34377
0
LINE
8
BLACK
6
CONTINUOUS
10
6.96023
20
-4.34377
11
6.95264
21
-4.34909
0
LINE
8
BLACK
6
CONTINUOUS
10
6.95264
20
-4.34909
11
6.94424
21
-4.353
0
LINE
8
BLACK
6
CONTINUOUS
10
6.94424
20
-4.353
11
6.93529
21
-4.3554
0
LINE
8
BLACK
6
CONTINUOUS
10
6.93529
20
-4.3554
11
6.92606
21
-4.35621
0
LINE
8
BLACK
6
CONTINUOUS
10
6.92606
20
-4.35621
11
6.91684
21
-4.3554
0
LINE
8
BLACK
6
CONTINUOUS
10
6.91684
20
-4.3554
11
6.90789
21
-4.353
0
LINE
8
BLACK
6
CONTINUOUS
10
6.90789
20
-4.353
11
6.89949
21
-4.34909
0
LINE
8
BLACK
6
CONTINUOUS
10
6.89949
20
-4.34909
11
6.8919
21
-4.34377
0
LINE
8
BLACK
6
CONTINUOUS
10
6.8919
20
-4.34377
11
6.88535
21
-4.33722
0
LINE
8
BLACK
6
CONTINUOUS
10
6.88535
20
-4.33722
11
6.88004
21
-4.32963
0
LINE
8
BLACK
6
CONTINUOUS
10
6.88004
20
-4.32963
11
6.87612
21
-4.32124
0
LINE
8
BLACK
6
CONTINUOUS
10
6.87612
20
-4.32124
11
6.87372
21
-4.31229
0
LINE
8
BLACK
6
CONTINUOUS
10
6.87372
20
-4.31229
11
6.87292
21
-4.30306
0
LINE
8
BLACK
6
CONTINUOUS
10
6.87292
20
-4.30306
11
6.87372
21
-4.29383
0
LINE
8
BLACK
6
CONTINUOUS
10
6.87372
20
-4.29383
11
6.87612
21
-4.28488
0
LINE
8
BLACK
6
CONTINUOUS
10
6.87612
20
-4.28488
11
6.88004
21
-4.27648
0
LINE
8
BLACK
6
CONTINUOUS
10
6.88004
20
-4.27648
11
6.88535
21
-4.26889
0
LINE
8
BLACK
6
CONTINUOUS
10
6.88535
20
-4.26889
11
6.8919
21
-4.26234
0
LINE
8
BLACK
6
CONTINUOUS
10
6.8919
20
-4.26234
11
6.89949
21
-4.25703
0
LINE
8
BLACK
6
CONTINUOUS
10
6.89949
20
-4.25703
11
6.90789
21
-4.25311
0
LINE
8
BLACK
6
CONTINUOUS
10
6.90789
20
-4.25311
11
6.91684
21
-4.25072
0
LINE
8
BLACK
6
CONTINUOUS
10
6.91684
20
-4.25072
11
6.92606
21
-4.24991
0
LINE
8
BLACK
6
CONTINUOUS
10
6.92606
20
-4.24991
11
6.93529
21
-4.25072
0
LINE
8
BLACK
6
CONTINUOUS
10
7.13529
20
-4.25072
11
7.14424
21
-4.25311
0
LINE
8
BLACK
6
CONTINUOUS
10
7.14424
20
-4.25311
11
7.15264
21
-4.25703
0
LINE
8
BLACK
6
CONTINUOUS
10
7.15264
20
-4.25703
11
7.16023
21
-4.26234
0
LINE
8
BLACK
6
CONTINUOUS
10
7.16023
20
-4.26234
11
7.16678
21
-4.26889
0
LINE
8
BLACK
6
CONTINUOUS
10
7.16678
20
-4.26889
11
7.17209
21
-4.27648
0
LINE
8
BLACK
6
CONTINUOUS
10
7.17209
20
-4.27648
11
7.17601
21
-4.28488
0
LINE
8
BLACK
6
CONTINUOUS
10
7.17601
20
-4.28488
11
7.17841
21
-4.29383
0
LINE
8
BLACK
6
CONTINUOUS
10
7.17841
20
-4.29383
11
7.17921
21
-4.30306
0
LINE
8
BLACK
6
CONTINUOUS
10
7.17921
20
-4.30306
11
7.17841
21
-4.31229
0
LINE
8
BLACK
6
CONTINUOUS
10
7.17841
20
-4.31229
11
7.17601
21
-4.32124
0
LINE
8
BLACK
6
CONTINUOUS
10
7.17601
20
-4.32124
11
7.17209
21
-4.32963
0
LINE
8
BLACK
6
CONTINUOUS
10
7.17209
20
-4.32963
11
7.16678
21
-4.33722
0
LINE
8
BLACK
6
CONTINUOUS
10
7.16678
20
-4.33722
11
7.16023
21
-4.34377
0
LINE
8
BLACK
6
CONTINUOUS
10
7.16023
20
-4.34377
11
7.15264
21
-4.34909
0
LINE
8
BLACK
6
CONTINUOUS
10
7.15264
20
-4.34909
11
7.14424
21
-4.353
0
LINE
8
BLACK
6
CONTINUOUS
10
7.14424
20
-4.353
11
7.13529
21
-4.3554
0
LINE
8
BLACK
6
CONTINUOUS
10
7.13529
20
-4.3554
11
7.12606
21
-4.35621
0
LINE
8
BLACK
6
CONTINUOUS
10
7.12606
20
-4.35621
11
7.11684
21
-4.3554
0
LINE
8
BLACK
6
CONTINUOUS
10
7.11684
20
-4.3554
11
7.10789
21
-4.353
0
LINE
8
BLACK
6
CONTINUOUS
10
7.10789
20
-4.353
11
7.09949
21
-4.34909
0
LINE
8
BLACK
6
CONTINUOUS
10
7.09949
20
-4.34909
11
7.0919
21
-4.34377
0
LINE
8
BLACK
6
CONTINUOUS
10
7.0919
20
-4.34377
11
7.08535
21
-4.33722
0
LINE
8
BLACK
6
CONTINUOUS
10
7.08535
20
-4.33722
11
7.08004
21
-4.32963
0
LINE
8
BLACK
6
CONTINUOUS
10
7.08004
20
-4.32963
11
7.07612
21
-4.32124
0
LINE
8
BLACK
6
CONTINUOUS
10
7.07612
20
-4.32124
11
7.07372
21
-4.31229
0
LINE
8
BLACK
6
CONTINUOUS
10
7.07372
20
-4.31229
11
7.07292
21
-4.30306
0
LINE
8
BLACK
6
CONTINUOUS
10
7.07292
20
-4.30306
11
7.07372
21
-4.29383
0
LINE
8
BLACK
6
CONTINUOUS
10
7.07372
20
-4.29383
11
7.07612
21
-4.28488
0
LINE
8
BLACK
6
CONTINUOUS
10
7.07612
20
-4.28488
11
7.08004
21
-4.27648
0
LINE
8
BLACK
6
CONTINUOUS
10
7.08004
20
-4.27648
11
7.08535
21
-4.26889
0
LINE
8
BLACK
6
CONTINUOUS
10
7.08535
20
-4.26889
11
7.0919
21
-4.26234
0
LINE
8
BLACK
6
CONTINUOUS
10
7.0919
20
-4.26234
11
7.09949
21
-4.25703
0
LINE
8
BLACK
6
CONTINUOUS
10
7.09949
20
-4.25703
11
7.10789
21
-4.25311
0
LINE
8
BLACK
6
CONTINUOUS
10
7.10789
20
-4.25311
11
7.11684
21
-4.25072
0
LINE
8
BLACK
6
CONTINUOUS
10
7.11684
20
-4.25072
11
7.12606
21
-4.24991
0
LINE
8
BLACK
6
CONTINUOUS
10
7.12606
20
-4.24991
11
7.13529
21
-4.25072
0
LINE
8
BLACK
6
CONTINUOUS
10
6.62315
20
-4.33381
11
6.58772
21
-4.33381
0
LINE
8
BLACK
6
CONTINUOUS
10
6.58772
20
-4.33381
11
6.58772
21
-4.30231
0
LINE
8
BLACK
6
CONTINUOUS
10
6.58772
20
-4.30231
11
6.62315
21
-4.30231
0
LINE
8
BLACK
6
CONTINUOUS
10
6.62315
20
-4.30231
11
6.62315
21
-4.33381
0
LINE
8
BLACK
6
CONTINUOUS
10
6.77315
20
-4.33381
11
6.73772
21
-4.33381
0
LINE
8
BLACK
6
CONTINUOUS
10
6.73772
20
-4.33381
11
6.73772
21
-4.30231
0
LINE
8
BLACK
6
CONTINUOUS
10
6.73772
20
-4.30231
11
6.77315
21
-4.30231
0
LINE
8
BLACK
6
CONTINUOUS
10
6.77315
20
-4.30231
11
6.77315
21
-4.33381
0
LINE
8
BLACK
6
CONTINUOUS
10
6.44559
20
-4.33365
11
6.38654
21
-4.33365
0
LINE
8
BLACK
6
CONTINUOUS
10
6.38654
20
-4.33365
11
6.38654
21
-4.28247
0
LINE
8
BLACK
6
CONTINUOUS
10
6.38654
20
-4.28247
11
6.44559
21
-4.28247
0
LINE
8
BLACK
6
CONTINUOUS
10
6.44559
20
-4.28247
11
6.44559
21
-4.33365
0
LINE
8
BLACK
6
CONTINUOUS
10
5.32856
20
-4.33306
11
5.27356
21
-4.33306
0
LINE
8
BLACK
6
CONTINUOUS
10
5.27356
20
-4.33306
11
5.27356
21
-4.29806
0
LINE
8
BLACK
6
CONTINUOUS
10
5.27356
20
-4.29806
11
5.32856
21
-4.29806
0
LINE
8
BLACK
6
CONTINUOUS
10
5.32856
20
-4.29806
11
5.32856
21
-4.33306
0
LINE
8
BLACK
6
CONTINUOUS
10
5.42856
20
-4.33306
11
5.37356
21
-4.33306
0
LINE
8
BLACK
6
CONTINUOUS
10
5.37356
20
-4.33306
11
5.37356
21
-4.29806
0
LINE
8
BLACK
6
CONTINUOUS
10
5.37356
20
-4.29806
11
5.42856
21
-4.29806
0
LINE
8
BLACK
6
CONTINUOUS
10
5.42856
20
-4.29806
11
5.42856
21
-4.33306
0
LINE
8
BLACK
6
CONTINUOUS
10
5.52856
20
-4.33306
11
5.47356
21
-4.33306
0
LINE
8
BLACK
6
CONTINUOUS
10
5.47356
20
-4.33306
11
5.47356
21
-4.29806
0
LINE
8
BLACK
6
CONTINUOUS
10
5.47356
20
-4.29806
11
5.52856
21
-4.29806
0
LINE
8
BLACK
6
CONTINUOUS
10
5.52856
20
-4.29806
11
5.52856
21
-4.33306
0
LINE
8
BLACK
6
CONTINUOUS
10
5.62856
20
-4.33306
11
5.57356
21
-4.33306
0
LINE
8
BLACK
6
CONTINUOUS
10
5.57356
20
-4.33306
11
5.57356
21
-4.29806
0
LINE
8
BLACK
6
CONTINUOUS
10
5.57356
20
-4.29806
11
5.62856
21
-4.29806
0
LINE
8
BLACK
6
CONTINUOUS
10
5.62856
20
-4.29806
11
5.62856
21
-4.33306
0
LINE
8
BLACK
6
CONTINUOUS
10
5.82856
20
-4.33306
11
5.77356
21
-4.33306
0
LINE
8
BLACK
6
CONTINUOUS
10
5.77356
20
-4.33306
11
5.77356
21
-4.29806
0
LINE
8
BLACK
6
CONTINUOUS
10
5.77356
20
-4.29806
11
5.82856
21
-4.29806
0
LINE
8
BLACK
6
CONTINUOUS
10
5.82856
20
-4.29806
11
5.82856
21
-4.33306
0
LINE
8
BLACK
6
CONTINUOUS
10
5.92856
20
-4.33306
11
5.87356
21
-4.33306
0
LINE
8
BLACK
6
CONTINUOUS
10
5.87356
20
-4.33306
11
5.87356
21
-4.29806
0
LINE
8
BLACK
6
CONTINUOUS
10
5.87356
20
-4.29806
11
5.92856
21
-4.29806
0
LINE
8
BLACK
6
CONTINUOUS
10
5.92856
20
-4.29806
11
5.92856
21
-4.33306
0
LINE
8
BLACK
6
CONTINUOUS
10
6.02856
20
-4.33306
11
5.97356
21
-4.33306
0
LINE
8
BLACK
6
CONTINUOUS
10
5.97356
20
-4.33306
11
5.97356
21
-4.29806
0
LINE
8
BLACK
6
CONTINUOUS
10
5.97356
20
-4.29806
11
6.02856
21
-4.29806
0
LINE
8
BLACK
6
CONTINUOUS
10
6.02856
20
-4.29806
11
6.02856
21
-4.33306
0
LINE
8
BLACK
6
CONTINUOUS
10
6.12856
20
-4.33306
11
6.07356
21
-4.33306
0
LINE
8
BLACK
6
CONTINUOUS
10
6.07356
20
-4.33306
11
6.07356
21
-4.29806
0
LINE
8
BLACK
6
CONTINUOUS
10
6.07356
20
-4.29806
11
6.12856
21
-4.29806
0
LINE
8
BLACK
6
CONTINUOUS
10
6.12856
20
-4.29806
11
6.12856
21
-4.33306
0
LINE
8
BLACK
6
CONTINUOUS
10
6.22856
20
-4.33306
11
6.17356
21
-4.33306
0
LINE
8
BLACK
6
CONTINUOUS
10
6.17356
20
-4.33306
11
6.17356
21
-4.29806
0
LINE
8
BLACK
6
CONTINUOUS
10
6.17356
20
-4.29806
11
6.22856
21
-4.29806
0
LINE
8
BLACK
6
CONTINUOUS
10
6.22856
20
-4.29806
11
6.22856
21
-4.33306
0
LINE
8
BLACK
6
CONTINUOUS
10
4.95606
20
-4.32306
11
4.89606
21
-4.32306
0
LINE
8
BLACK
6
CONTINUOUS
10
4.89606
20
-4.32306
11
4.89606
21
-4.26306
0
LINE
8
BLACK
6
CONTINUOUS
10
4.89606
20
-4.26306
11
4.95606
21
-4.26306
0
LINE
8
BLACK
6
CONTINUOUS
10
4.95606
20
-4.26306
11
4.95606
21
-4.32306
0
LINE
8
BLACK
6
CONTINUOUS
10
5.05606
20
-4.32306
11
4.99606
21
-4.32306
0
LINE
8
BLACK
6
CONTINUOUS
10
4.99606
20
-4.32306
11
4.99606
21
-4.26306
0
LINE
8
BLACK
6
CONTINUOUS
10
4.99606
20
-4.26306
11
5.05606
21
-4.26306
0
LINE
8
BLACK
6
CONTINUOUS
10
5.05606
20
-4.26306
11
5.05606
21
-4.32306
0
LINE
8
BLACK
6
CONTINUOUS
10
6.32856
20
-4.30806
11
6.27356
21
-4.30806
0
LINE
8
BLACK
6
CONTINUOUS
10
6.27356
20
-4.30806
11
6.27356
21
-4.27306
0
LINE
8
BLACK
6
CONTINUOUS
10
6.27356
20
-4.27306
11
6.32856
21
-4.27306
0
LINE
8
BLACK
6
CONTINUOUS
10
6.32856
20
-4.27306
11
6.32856
21
-4.30806
0
LINE
8
BLACK
6
CONTINUOUS
10
6.54441
20
-4.29641
11
6.50898
21
-4.29641
0
LINE
8
BLACK
6
CONTINUOUS
10
6.50898
20
-4.29641
11
6.50898
21
-4.26491
0
LINE
8
BLACK
6
CONTINUOUS
10
6.50898
20
-4.26491
11
6.54441
21
-4.26491
0
LINE
8
BLACK
6
CONTINUOUS
10
6.54441
20
-4.26491
11
6.54441
21
-4.29641
0
LINE
8
BLACK
6
CONTINUOUS
10
6.69441
20
-4.29641
11
6.65898
21
-4.29641
0
LINE
8
BLACK
6
CONTINUOUS
10
6.65898
20
-4.29641
11
6.65898
21
-4.26491
0
LINE
8
BLACK
6
CONTINUOUS
10
6.65898
20
-4.26491
11
6.69441
21
-4.26491
0
LINE
8
BLACK
6
CONTINUOUS
10
6.69441
20
-4.26491
11
6.69441
21
-4.29641
0
LINE
8
BLACK
6
CONTINUOUS
10
5.83856
20
-4.26556
11
5.80356
21
-4.26556
0
LINE
8
BLACK
6
CONTINUOUS
10
5.80356
20
-4.26556
11
5.80356
21
-4.21056
0
LINE
8
BLACK
6
CONTINUOUS
10
5.80356
20
-4.21056
11
5.83856
21
-4.21056
0
LINE
8
BLACK
6
CONTINUOUS
10
5.83856
20
-4.21056
11
5.83856
21
-4.26556
0
LINE
8
BLACK
6
CONTINUOUS
10
5.91356
20
-4.26556
11
5.87856
21
-4.26556
0
LINE
8
BLACK
6
CONTINUOUS
10
5.87856
20
-4.26556
11
5.87856
21
-4.21056
0
LINE
8
BLACK
6
CONTINUOUS
10
5.87856
20
-4.21056
11
5.91356
21
-4.21056
0
LINE
8
BLACK
6
CONTINUOUS
10
5.91356
20
-4.21056
11
5.91356
21
-4.26556
0
LINE
8
BLACK
6
CONTINUOUS
10
6.16356
20
-4.25806
11
6.10856
21
-4.25806
0
LINE
8
BLACK
6
CONTINUOUS
10
6.10856
20
-4.25806
11
6.10856
21
-4.22306
0
LINE
8
BLACK
6
CONTINUOUS
10
6.10856
20
-4.22306
11
6.16356
21
-4.22306
0
LINE
8
BLACK
6
CONTINUOUS
10
6.16356
20
-4.22306
11
6.16356
21
-4.25806
0
LINE
8
BLACK
6
CONTINUOUS
10
6.24356
20
-4.25806
11
6.18856
21
-4.25806
0
LINE
8
BLACK
6
CONTINUOUS
10
6.18856
20
-4.25806
11
6.18856
21
-4.22306
0
LINE
8
BLACK
6
CONTINUOUS
10
6.18856
20
-4.22306
11
6.24356
21
-4.22306
0
LINE
8
BLACK
6
CONTINUOUS
10
6.24356
20
-4.22306
11
6.24356
21
-4.25806
0
LINE
8
BLACK
6
CONTINUOUS
10
6.08356
20
-4.25556
11
6.02856
21
-4.25556
0
LINE
8
BLACK
6
CONTINUOUS
10
6.02856
20
-4.25556
11
6.02856
21
-4.22056
0
LINE
8
BLACK
6
CONTINUOUS
10
6.02856
20
-4.22056
11
6.08356
21
-4.22056
0
LINE
8
BLACK
6
CONTINUOUS
10
6.08356
20
-4.22056
11
6.08356
21
-4.25556
0
LINE
8
BLACK
6
CONTINUOUS
10
7.03461
20
-4.15459
11
7.0429
21
-4.15681
0
LINE
8
BLACK
6
CONTINUOUS
10
7.0429
20
-4.15681
11
7.05067
21
-4.16044
0
LINE
8
BLACK
6
CONTINUOUS
10
7.05067
20
-4.16044
11
7.0577
21
-4.16536
0
LINE
8
BLACK
6
CONTINUOUS
10
7.0577
20
-4.16536
11
7.06376
21
-4.17143
0
LINE
8
BLACK
6
CONTINUOUS
10
7.06376
20
-4.17143
11
7.06868
21
-4.17845
0
LINE
8
BLACK
6
CONTINUOUS
10
7.06868
20
-4.17845
11
7.07231
21
-4.18623
0
LINE
8
BLACK
6
CONTINUOUS
10
7.07231
20
-4.18623
11
7.07453
21
-4.19451
0
LINE
8
BLACK
6
CONTINUOUS
10
7.07453
20
-4.19451
11
7.07528
21
-4.20306
0
LINE
8
BLACK
6
CONTINUOUS
10
7.07528
20
-4.20306
11
7.07453
21
-4.2116
0
LINE
8
BLACK
6
CONTINUOUS
10
7.07453
20
-4.2116
11
7.07231
21
-4.21989
0
LINE
8
BLACK
6
CONTINUOUS
10
7.07231
20
-4.21989
11
7.06868
21
-4.22766
0
LINE
8
BLACK
6
CONTINUOUS
10
7.06868
20
-4.22766
11
7.06376
21
-4.23469
0
LINE
8
BLACK
6
CONTINUOUS
10
7.06376
20
-4.23469
11
7.0577
21
-4.24076
0
LINE
8
BLACK
6
CONTINUOUS
10
7.0577
20
-4.24076
11
7.05067
21
-4.24568
0
LINE
8
BLACK
6
CONTINUOUS
10
7.05067
20
-4.24568
11
7.0429
21
-4.2493
0
LINE
8
BLACK
6
CONTINUOUS
10
7.0429
20
-4.2493
11
7.03461
21
-4.25152
0
LINE
8
BLACK
6
CONTINUOUS
10
7.03461
20
-4.25152
11
7.02606
21
-4.25227
0
LINE
8
BLACK
6
CONTINUOUS
10
7.02606
20
-4.25227
11
7.01752
21
-4.25152
0
LINE
8
BLACK
6
CONTINUOUS
10
7.01752
20
-4.25152
11
7.00923
21
-4.2493
0
LINE
8
BLACK
6
CONTINUOUS
10
7.00923
20
-4.2493
11
7.00146
21
-4.24568
0
LINE
8
BLACK
6
CONTINUOUS
10
7.00146
20
-4.24568
11
6.99443
21
-4.24076
0
LINE
8
BLACK
6
CONTINUOUS
10
6.99443
20
-4.24076
11
6.98837
21
-4.23469
0
LINE
8
BLACK
6
CONTINUOUS
10
6.98837
20
-4.23469
11
6.98345
21
-4.22766
0
LINE
8
BLACK
6
CONTINUOUS
10
6.98345
20
-4.22766
11
6.97982
21
-4.21989
0
LINE
8
BLACK
6
CONTINUOUS
10
6.97982
20
-4.21989
11
6.9776
21
-4.2116
0
LINE
8
BLACK
6
CONTINUOUS
10
6.9776
20
-4.2116
11
6.97685
21
-4.20306
0
LINE
8
BLACK
6
CONTINUOUS
10
6.97685
20
-4.20306
11
6.9776
21
-4.19451
0
LINE
8
BLACK
6
CONTINUOUS
10
6.9776
20
-4.19451
11
6.97982
21
-4.18623
0
LINE
8
BLACK
6
CONTINUOUS
10
6.97982
20
-4.18623
11
6.98345
21
-4.17845
0
LINE
8
BLACK
6
CONTINUOUS
10
6.98345
20
-4.17845
11
6.98837
21
-4.17143
0
LINE
8
BLACK
6
CONTINUOUS
10
6.98837
20
-4.17143
11
6.99443
21
-4.16536
0
LINE
8
BLACK
6
CONTINUOUS
10
6.99443
20
-4.16536
11
7.00146
21
-4.16044
0
LINE
8
BLACK
6
CONTINUOUS
10
7.00146
20
-4.16044
11
7.00923
21
-4.15681
0
LINE
8
BLACK
6
CONTINUOUS
10
7.00923
20
-4.15681
11
7.01752
21
-4.15459
0
LINE
8
BLACK
6
CONTINUOUS
10
7.01752
20
-4.15459
11
7.02606
21
-4.15385
0
LINE
8
BLACK
6
CONTINUOUS
10
7.02606
20
-4.15385
11
7.03461
21
-4.15459
0
LINE
8
BLACK
6
CONTINUOUS
10
4.95606
20
-4.22306
11
4.89606
21
-4.22306
0
LINE
8
BLACK
6
CONTINUOUS
10
4.89606
20
-4.22306
11
4.89606
21
-4.16306
0
LINE
8
BLACK
6
CONTINUOUS
10
4.89606
20
-4.16306
11
4.95606
21
-4.16306
0
LINE
8
BLACK
6
CONTINUOUS
10
4.95606
20
-4.16306
11
4.95606
21
-4.22306
0
LINE
8
BLACK
6
CONTINUOUS
10
5.05606
20
-4.22306
11
4.99606
21
-4.22306
0
LINE
8
BLACK
6
CONTINUOUS
10
4.99606
20
-4.22306
11
4.99606
21
-4.16306
0
LINE
8
BLACK
6
CONTINUOUS
10
4.99606
20
-4.16306
11
5.05606
21
-4.16306
0
LINE
8
BLACK
6
CONTINUOUS
10
5.05606
20
-4.16306
11
5.05606
21
-4.22306
0
LINE
8
BLACK
6
CONTINUOUS
10
6.35856
20
-4.21254
11
6.32356
21
-4.21254
0
LINE
8
BLACK
6
CONTINUOUS
10
6.32356
20
-4.21254
11
6.32356
21
-4.15754
0
LINE
8
BLACK
6
CONTINUOUS
10
6.32356
20
-4.15754
11
6.35856
21
-4.15754
0
LINE
8
BLACK
6
CONTINUOUS
10
6.35856
20
-4.15754
11
6.35856
21
-4.21254
0
LINE
8
BLACK
6
CONTINUOUS
10
6.43356
20
-4.21254
11
6.39856
21
-4.21254
0
LINE
8
BLACK
6
CONTINUOUS
10
6.39856
20
-4.21254
11
6.39856
21
-4.15754
0
LINE
8
BLACK
6
CONTINUOUS
10
6.39856
20
-4.15754
11
6.43356
21
-4.15754
0
LINE
8
BLACK
6
CONTINUOUS
10
6.43356
20
-4.15754
11
6.43356
21
-4.21254
0
LINE
8
BLACK
6
CONTINUOUS
10
6.16356
20
-4.18306
11
6.10856
21
-4.18306
0
LINE
8
BLACK
6
CONTINUOUS
10
6.10856
20
-4.18306
11
6.10856
21
-4.14806
0
LINE
8
BLACK
6
CONTINUOUS
10
6.10856
20
-4.14806
11
6.16356
21
-4.14806
0
LINE
8
BLACK
6
CONTINUOUS
10
6.16356
20
-4.14806
11
6.16356
21
-4.18306
0
LINE
8
BLACK
6
CONTINUOUS
10
6.24356
20
-4.18306
11
6.18856
21
-4.18306
0
LINE
8
BLACK
6
CONTINUOUS
10
6.18856
20
-4.18306
11
6.18856
21
-4.14806
0
LINE
8
BLACK
6
CONTINUOUS
10
6.18856
20
-4.14806
11
6.24356
21
-4.14806
0
LINE
8
BLACK
6
CONTINUOUS
10
6.24356
20
-4.14806
11
6.24356
21
-4.18306
0
LINE
8
BLACK
6
CONTINUOUS
10
6.08356
20
-4.18056
11
6.02856
21
-4.18056
0
LINE
8
BLACK
6
CONTINUOUS
10
6.02856
20
-4.18056
11
6.02856
21
-4.14556
0
LINE
8
BLACK
6
CONTINUOUS
10
6.02856
20
-4.14556
11
6.08356
21
-4.14556
0
LINE
8
BLACK
6
CONTINUOUS
10
6.08356
20
-4.14556
11
6.08356
21
-4.18056
0
LINE
8
BLACK
6
CONTINUOUS
10
5.21106
20
-4.16306
11
5.13106
21
-4.16306
0
LINE
8
BLACK
6
CONTINUOUS
10
5.13106
20
-4.16306
11
5.13106
21
-4.12306
0
LINE
8
BLACK
6
CONTINUOUS
10
5.13106
20
-4.12306
11
5.21106
21
-4.12306
0
LINE
8
BLACK
6
CONTINUOUS
10
5.21106
20
-4.12306
11
5.21106
21
-4.16306
0
LINE
8
BLACK
6
CONTINUOUS
10
6.93529
20
-4.05072
11
6.94424
21
-4.05311
0
LINE
8
BLACK
6
CONTINUOUS
10
6.94424
20
-4.05311
11
6.95264
21
-4.05703
0
LINE
8
BLACK
6
CONTINUOUS
10
6.95264
20
-4.05703
11
6.96023
21
-4.06234
0
LINE
8
BLACK
6
CONTINUOUS
10
6.96023
20
-4.06234
11
6.96678
21
-4.06889
0
LINE
8
BLACK
6
CONTINUOUS
10
6.96678
20
-4.06889
11
6.97209
21
-4.07648
0
LINE
8
BLACK
6
CONTINUOUS
10
6.97209
20
-4.07648
11
6.97601
21
-4.08488
0
LINE
8
BLACK
6
CONTINUOUS
10
6.97601
20
-4.08488
11
6.97841
21
-4.09383
0
LINE
8
BLACK
6
CONTINUOUS
10
6.97841
20
-4.09383
11
6.97921
21
-4.10306
0
LINE
8
BLACK
6
CONTINUOUS
10
6.97921
20
-4.10306
11
6.97841
21
-4.11229
0
LINE
8
BLACK
6
CONTINUOUS
10
6.97841
20
-4.11229
11
6.97601
21
-4.12124
0
LINE
8
BLACK
6
CONTINUOUS
10
6.97601
20
-4.12124
11
6.97209
21
-4.12963
0
LINE
8
BLACK
6
CONTINUOUS
10
6.97209
20
-4.12963
11
6.96678
21
-4.13722
0
LINE
8
BLACK
6
CONTINUOUS
10
6.96678
20
-4.13722
11
6.96023
21
-4.14377
0
LINE
8
BLACK
6
CONTINUOUS
10
6.96023
20
-4.14377
11
6.95264
21
-4.14909
0
LINE
8
BLACK
6
CONTINUOUS
10
6.95264
20
-4.14909
11
6.94424
21
-4.153
0
LINE
8
BLACK
6
CONTINUOUS
10
6.94424
20
-4.153
11
6.93529
21
-4.1554
0
LINE
8
BLACK
6
CONTINUOUS
10
6.93529
20
-4.1554
11
6.92606
21
-4.15621
0
LINE
8
BLACK
6
CONTINUOUS
10
6.92606
20
-4.15621
11
6.91684
21
-4.1554
0
LINE
8
BLACK
6
CONTINUOUS
10
6.91684
20
-4.1554
11
6.90789
21
-4.153
0
LINE
8
BLACK
6
CONTINUOUS
10
6.90789
20
-4.153
11
6.89949
21
-4.14909
0
LINE
8
BLACK
6
CONTINUOUS
10
6.89949
20
-4.14909
11
6.8919
21
-4.14377
0
LINE
8
BLACK
6
CONTINUOUS
10
6.8919
20
-4.14377
11
6.88535
21
-4.13722
0
LINE
8
BLACK
6
CONTINUOUS
10
6.88535
20
-4.13722
11
6.88004
21
-4.12963
0
LINE
8
BLACK
6
CONTINUOUS
10
6.88004
20
-4.12963
11
6.87612
21
-4.12124
0
LINE
8
BLACK
6
CONTINUOUS
10
6.87612
20
-4.12124
11
6.87372
21
-4.11229
0
LINE
8
BLACK
6
CONTINUOUS
10
6.87372
20
-4.11229
11
6.87292
21
-4.10306
0
LINE
8
BLACK
6
CONTINUOUS
10
6.87292
20
-4.10306
11
6.87372
21
-4.09383
0
LINE
8
BLACK
6
CONTINUOUS
10
6.87372
20
-4.09383
11
6.87612
21
-4.08488
0
LINE
8
BLACK
6
CONTINUOUS
10
6.87612
20
-4.08488
11
6.88004
21
-4.07648
0
LINE
8
BLACK
6
CONTINUOUS
10
6.88004
20
-4.07648
11
6.88535
21
-4.06889
0
LINE
8
BLACK
6
CONTINUOUS
10
6.88535
20
-4.06889
11
6.8919
21
-4.06234
0
LINE
8
BLACK
6
CONTINUOUS
10
6.8919
20
-4.06234
11
6.89949
21
-4.05703
0
LINE
8
BLACK
6
CONTINUOUS
10
6.89949
20
-4.05703
11
6.90789
21
-4.05311
0
LINE
8
BLACK
6
CONTINUOUS
10
6.90789
20
-4.05311
11
6.91684
21
-4.05072
0
LINE
8
BLACK
6
CONTINUOUS
10
6.91684
20
-4.05072
11
6.92606
21
-4.04991
0
LINE
8
BLACK
6
CONTINUOUS
10
6.92606
20
-4.04991
11
6.93529
21
-4.05072
0
LINE
8
BLACK
6
CONTINUOUS
10
7.13529
20
-4.05072
11
7.14424
21
-4.05311
0
LINE
8
BLACK
6
CONTINUOUS
10
7.14424
20
-4.05311
11
7.15264
21
-4.05703
0
LINE
8
BLACK
6
CONTINUOUS
10
7.15264
20
-4.05703
11
7.16023
21
-4.06234
0
LINE
8
BLACK
6
CONTINUOUS
10
7.16023
20
-4.06234
11
7.16678
21
-4.06889
0
LINE
8
BLACK
6
CONTINUOUS
10
7.16678
20
-4.06889
11
7.17209
21
-4.07648
0
LINE
8
BLACK
6
CONTINUOUS
10
7.17209
20
-4.07648
11
7.17601
21
-4.08488
0
LINE
8
BLACK
6
CONTINUOUS
10
7.17601
20
-4.08488
11
7.17841
21
-4.09383
0
LINE
8
BLACK
6
CONTINUOUS
10
7.17841
20
-4.09383
11
7.17921
21
-4.10306
0
LINE
8
BLACK
6
CONTINUOUS
10
7.17921
20
-4.10306
11
7.17841
21
-4.11229
0
LINE
8
BLACK
6
CONTINUOUS
10
7.17841
20
-4.11229
11
7.17601
21
-4.12124
0
LINE
8
BLACK
6
CONTINUOUS
10
7.17601
20
-4.12124
11
7.17209
21
-4.12963
0
LINE
8
BLACK
6
CONTINUOUS
10
7.17209
20
-4.12963
11
7.16678
21
-4.13722
0
LINE
8
BLACK
6
CONTINUOUS
10
7.16678
20
-4.13722
11
7.16023
21
-4.14377
0
LINE
8
BLACK
6
CONTINUOUS
10
7.16023
20
-4.14377
11
7.15264
21
-4.14909
0
LINE
8
BLACK
6
CONTINUOUS
10
7.15264
20
-4.14909
11
7.14424
21
-4.153
0
LINE
8
BLACK
6
CONTINUOUS
10
7.14424
20
-4.153
11
7.13529
21
-4.1554
0
LINE
8
BLACK
6
CONTINUOUS
10
7.13529
20
-4.1554
11
7.12606
21
-4.15621
0
LINE
8
BLACK
6
CONTINUOUS
10
7.12606
20
-4.15621
11
7.11684
21
-4.1554
0
LINE
8
BLACK
6
CONTINUOUS
10
7.11684
20
-4.1554
11
7.10789
21
-4.153
0
LINE
8
BLACK
6
CONTINUOUS
10
7.10789
20
-4.153
11
7.09949
21
-4.14909
0
LINE
8
BLACK
6
CONTINUOUS
10
7.09949
20
-4.14909
11
7.0919
21
-4.14377
0
LINE
8
BLACK
6
CONTINUOUS
10
7.0919
20
-4.14377
11
7.08535
21
-4.13722
0
LINE
8
BLACK
6
CONTINUOUS
10
7.08535
20
-4.13722
11
7.08004
21
-4.12963
0
LINE
8
BLACK
6
CONTINUOUS
10
7.08004
20
-4.12963
11
7.07612
21
-4.12124
0
LINE
8
BLACK
6
CONTINUOUS
10
7.07612
20
-4.12124
11
7.07372
21
-4.11229
0
LINE
8
BLACK
6
CONTINUOUS
10
7.07372
20
-4.11229
11
7.07292
21
-4.10306
0
LINE
8
BLACK
6
CONTINUOUS
10
7.07292
20
-4.10306
11
7.07372
21
-4.09383
0
LINE
8
BLACK
6
CONTINUOUS
10
7.07372
20
-4.09383
11
7.07612
21
-4.08488
0
LINE
8
BLACK
6
CONTINUOUS
10
7.07612
20
-4.08488
11
7.08004
21
-4.07648
0
LINE
8
BLACK
6
CONTINUOUS
10
7.08004
20
-4.07648
11
7.08535
21
-4.06889
0
LINE
8
BLACK
6
CONTINUOUS
10
7.08535
20
-4.06889
11
7.0919
21
-4.06234
0
LINE
8
BLACK
6
CONTINUOUS
10
7.0919
20
-4.06234
11
7.09949
21
-4.05703
0
LINE
8
BLACK
6
CONTINUOUS
10
7.09949
20
-4.05703
11
7.10789
21
-4.05311
0
LINE
8
BLACK
6
CONTINUOUS
10
7.10789
20
-4.05311
11
7.11684
21
-4.05072
0
LINE
8
BLACK
6
CONTINUOUS
10
7.11684
20
-4.05072
11
7.12606
21
-4.04991
0
LINE
8
BLACK
6
CONTINUOUS
10
7.12606
20
-4.04991
11
7.13529
21
-4.05072
0
LINE
8
BLACK
6
CONTINUOUS
10
5.47106
20
-4.12506
11
5.39106
21
-4.12506
0
LINE
8
BLACK
6
CONTINUOUS
10
5.39106
20
-4.12506
11
5.39106
21
-3.98106
0
LINE
8
BLACK
6
CONTINUOUS
10
5.39106
20
-3.98106
11
5.47106
21
-3.98106
0
LINE
8
BLACK
6
CONTINUOUS
10
5.47106
20
-3.98106
11
5.47106
21
-4.12506
0
LINE
8
BLACK
6
CONTINUOUS
10
5.81588
20
-4.08297
11
5.81668
21
-4.0835
0
LINE
8
BLACK
6
CONTINUOUS
10
5.81668
20
-4.0835
11
5.81722
21
-4.0843
0
LINE
8
BLACK
6
CONTINUOUS
10
5.81722
20
-4.0843
11
5.8174
21
-4.08524
0
LINE
8
BLACK
6
CONTINUOUS
10
5.8174
20
-4.08524
11
5.8174
21
-4.11379
0
LINE
8
BLACK
6
CONTINUOUS
10
5.8174
20
-4.11379
11
5.81722
21
-4.11473
0
LINE
8
BLACK
6
CONTINUOUS
10
5.81722
20
-4.11473
11
5.81668
21
-4.11553
0
LINE
8
BLACK
6
CONTINUOUS
10
5.81668
20
-4.11553
11
5.81588
21
-4.11606
0
LINE
8
BLACK
6
CONTINUOUS
10
5.81588
20
-4.11606
11
5.81494
21
-4.11625
0
LINE
8
BLACK
6
CONTINUOUS
10
5.81494
20
-4.11625
11
5.81002
21
-4.11625
0
LINE
8
BLACK
6
CONTINUOUS
10
5.81002
20
-4.11625
11
5.80908
21
-4.11606
0
LINE
8
BLACK
6
CONTINUOUS
10
5.80908
20
-4.11606
11
5.80828
21
-4.11553
0
LINE
8
BLACK
6
CONTINUOUS
10
5.80828
20
-4.11553
11
5.80775
21
-4.11473
0
LINE
8
BLACK
6
CONTINUOUS
10
5.80775
20
-4.11473
11
5.80756
21
-4.11379
0
LINE
8
BLACK
6
CONTINUOUS
10
5.80756
20
-4.11379
11
5.80756
21
-4.08524
0
LINE
8
BLACK
6
CONTINUOUS
10
5.80756
20
-4.08524
11
5.80775
21
-4.0843
0
LINE
8
BLACK
6
CONTINUOUS
10
5.80775
20
-4.0843
11
5.80828
21
-4.0835
0
LINE
8
BLACK
6
CONTINUOUS
10
5.80828
20
-4.0835
11
5.80908
21
-4.08297
0
LINE
8
BLACK
6
CONTINUOUS
10
5.80908
20
-4.08297
11
5.81002
21
-4.08278
0
LINE
8
BLACK
6
CONTINUOUS
10
5.81002
20
-4.08278
11
5.81494
21
-4.08278
0
LINE
8
BLACK
6
CONTINUOUS
10
5.81494
20
-4.08278
11
5.81588
21
-4.08297
0
LINE
8
BLACK
6
CONTINUOUS
10
5.83557
20
-4.08297
11
5.83637
21
-4.0835
0
LINE
8
BLACK
6
CONTINUOUS
10
5.83637
20
-4.0835
11
5.8369
21
-4.0843
0
LINE
8
BLACK
6
CONTINUOUS
10
5.8369
20
-4.0843
11
5.83709
21
-4.08524
0
LINE
8
BLACK
6
CONTINUOUS
10
5.83709
20
-4.08524
11
5.83709
21
-4.11379
0
LINE
8
BLACK
6
CONTINUOUS
10
5.83709
20
-4.11379
11
5.8369
21
-4.11473
0
LINE
8
BLACK
6
CONTINUOUS
10
5.8369
20
-4.11473
11
5.83637
21
-4.11553
0
LINE
8
BLACK
6
CONTINUOUS
10
5.83637
20
-4.11553
11
5.83557
21
-4.11606
0
LINE
8
BLACK
6
CONTINUOUS
10
5.83557
20
-4.11606
11
5.83463
21
-4.11625
0
LINE
8
BLACK
6
CONTINUOUS
10
5.83463
20
-4.11625
11
5.82971
21
-4.11625
0
LINE
8
BLACK
6
CONTINUOUS
10
5.82971
20
-4.11625
11
5.82876
21
-4.11606
0
LINE
8
BLACK
6
CONTINUOUS
10
5.82876
20
-4.11606
11
5.82797
21
-4.11553
0
LINE
8
BLACK
6
CONTINUOUS
10
5.82797
20
-4.11553
11
5.82743
21
-4.11473
0
LINE
8
BLACK
6
CONTINUOUS
10
5.82743
20
-4.11473
11
5.82725
21
-4.11379
0
LINE
8
BLACK
6
CONTINUOUS
10
5.82725
20
-4.11379
11
5.82725
21
-4.08524
0
LINE
8
BLACK
6
CONTINUOUS
10
5.82725
20
-4.08524
11
5.82743
21
-4.0843
0
LINE
8
BLACK
6
CONTINUOUS
10
5.82743
20
-4.0843
11
5.82797
21
-4.0835
0
LINE
8
BLACK
6
CONTINUOUS
10
5.82797
20
-4.0835
11
5.82876
21
-4.08297
0
LINE
8
BLACK
6
CONTINUOUS
10
5.82876
20
-4.08297
11
5.82971
21
-4.08278
0
LINE
8
BLACK
6
CONTINUOUS
10
5.82971
20
-4.08278
11
5.83463
21
-4.08278
0
LINE
8
BLACK
6
CONTINUOUS
10
5.83463
20
-4.08278
11
5.83557
21
-4.08297
0
LINE
8
BLACK
6
CONTINUOUS
10
5.85525
20
-4.08297
11
5.85605
21
-4.0835
0
LINE
8
BLACK
6
CONTINUOUS
10
5.85605
20
-4.0835
11
5.85659
21
-4.0843
0
LINE
8
BLACK
6
CONTINUOUS
10
5.85659
20
-4.0843
11
5.85677
21
-4.08524
0
LINE
8
BLACK
6
CONTINUOUS
10
5.85677
20
-4.08524
11
5.85677
21
-4.11379
0
LINE
8
BLACK
6
CONTINUOUS
10
5.85677
20
-4.11379
11
5.85659
21
-4.11473
0
LINE
8
BLACK
6
CONTINUOUS
10
5.85659
20
-4.11473
11
5.85605
21
-4.11553
0
LINE
8
BLACK
6
CONTINUOUS
10
5.85605
20
-4.11553
11
5.85525
21
-4.11606
0
LINE
8
BLACK
6
CONTINUOUS
10
5.85525
20
-4.11606
11
5.85431
21
-4.11625
0
LINE
8
BLACK
6
CONTINUOUS
10
5.85431
20
-4.11625
11
5.84939
21
-4.11625
0
LINE
8
BLACK
6
CONTINUOUS
10
5.84939
20
-4.11625
11
5.84845
21
-4.11606
0
LINE
8
BLACK
6
CONTINUOUS
10
5.84845
20
-4.11606
11
5.84765
21
-4.11553
0
LINE
8
BLACK
6
CONTINUOUS
10
5.84765
20
-4.11553
11
5.84712
21
-4.11473
0
LINE
8
BLACK
6
CONTINUOUS
10
5.84712
20
-4.11473
11
5.84693
21
-4.11379
0
LINE
8
BLACK
6
CONTINUOUS
10
5.84693
20
-4.11379
11
5.84693
21
-4.08524
0
LINE
8
BLACK
6
CONTINUOUS
10
5.84693
20
-4.08524
11
5.84712
21
-4.0843
0
LINE
8
BLACK
6
CONTINUOUS
10
5.84712
20
-4.0843
11
5.84765
21
-4.0835
0
LINE
8
BLACK
6
CONTINUOUS
10
5.84765
20
-4.0835
11
5.84845
21
-4.08297
0
LINE
8
BLACK
6
CONTINUOUS
10
5.84845
20
-4.08297
11
5.84939
21
-4.08278
0
LINE
8
BLACK
6
CONTINUOUS
10
5.84939
20
-4.08278
11
5.85431
21
-4.08278
0
LINE
8
BLACK
6
CONTINUOUS
10
5.85431
20
-4.08278
11
5.85525
21
-4.08297
0
LINE
8
BLACK
6
CONTINUOUS
10
5.87494
20
-4.08297
11
5.87574
21
-4.0835
0
LINE
8
BLACK
6
CONTINUOUS
10
5.87574
20
-4.0835
11
5.87627
21
-4.0843
0
LINE
8
BLACK
6
CONTINUOUS
10
5.87627
20
-4.0843
11
5.87646
21
-4.08524
0
LINE
8
BLACK
6
CONTINUOUS
10
5.87646
20
-4.08524
11
5.87646
21
-4.11379
0
LINE
8
BLACK
6
CONTINUOUS
10
5.87646
20
-4.11379
11
5.87627
21
-4.11473
0
LINE
8
BLACK
6
CONTINUOUS
10
5.87627
20
-4.11473
11
5.87574
21
-4.11553
0
LINE
8
BLACK
6
CONTINUOUS
10
5.87574
20
-4.11553
11
5.87494
21
-4.11606
0
LINE
8
BLACK
6
CONTINUOUS
10
5.87494
20
-4.11606
11
5.874
21
-4.11625
0
LINE
8
BLACK
6
CONTINUOUS
10
5.874
20
-4.11625
11
5.86908
21
-4.11625
0
LINE
8
BLACK
6
CONTINUOUS
10
5.86908
20
-4.11625
11
5.86813
21
-4.11606
0
LINE
8
BLACK
6
CONTINUOUS
10
5.86813
20
-4.11606
11
5.86734
21
-4.11553
0
LINE
8
BLACK
6
CONTINUOUS
10
5.86734
20
-4.11553
11
5.8668
21
-4.11473
0
LINE
8
BLACK
6
CONTINUOUS
10
5.8668
20
-4.11473
11
5.86662
21
-4.11379
0
LINE
8
BLACK
6
CONTINUOUS
10
5.86662
20
-4.11379
11
5.86662
21
-4.08524
0
LINE
8
BLACK
6
CONTINUOUS
10
5.86662
20
-4.08524
11
5.8668
21
-4.0843
0
LINE
8
BLACK
6
CONTINUOUS
10
5.8668
20
-4.0843
11
5.86734
21
-4.0835
0
LINE
8
BLACK
6
CONTINUOUS
10
5.86734
20
-4.0835
11
5.86813
21
-4.08297
0
LINE
8
BLACK
6
CONTINUOUS
10
5.86813
20
-4.08297
11
5.86908
21
-4.08278
0
LINE
8
BLACK
6
CONTINUOUS
10
5.86908
20
-4.08278
11
5.874
21
-4.08278
0
LINE
8
BLACK
6
CONTINUOUS
10
5.874
20
-4.08278
11
5.87494
21
-4.08297
0
LINE
8
BLACK
6
CONTINUOUS
10
5.89462
20
-4.08297
11
5.89542
21
-4.0835
0
LINE
8
BLACK
6
CONTINUOUS
10
5.89542
20
-4.0835
11
5.89596
21
-4.0843
0
LINE
8
BLACK
6
CONTINUOUS
10
5.89596
20
-4.0843
11
5.89614
21
-4.08524
0
LINE
8
BLACK
6
CONTINUOUS
10
5.89614
20
-4.08524
11
5.89614
21
-4.11379
0
LINE
8
BLACK
6
CONTINUOUS
10
5.89614
20
-4.11379
11
5.89596
21
-4.11473
0
LINE
8
BLACK
6
CONTINUOUS
10
5.89596
20
-4.11473
11
5.89542
21
-4.11553
0
LINE
8
BLACK
6
CONTINUOUS
10
5.89542
20
-4.11553
11
5.89462
21
-4.11606
0
LINE
8
BLACK
6
CONTINUOUS
10
5.89462
20
-4.11606
11
5.89368
21
-4.11625
0
LINE
8
BLACK
6
CONTINUOUS
10
5.89368
20
-4.11625
11
5.88876
21
-4.11625
0
LINE
8
BLACK
6
CONTINUOUS
10
5.88876
20
-4.11625
11
5.88782
21
-4.11606
0
LINE
8
BLACK
6
CONTINUOUS
10
5.88782
20
-4.11606
11
5.88702
21
-4.11553
0
LINE
8
BLACK
6
CONTINUOUS
10
5.88702
20
-4.11553
11
5.88649
21
-4.11473
0
LINE
8
BLACK
6
CONTINUOUS
10
5.88649
20
-4.11473
11
5.8863
21
-4.11379
0
LINE
8
BLACK
6
CONTINUOUS
10
5.8863
20
-4.11379
11
5.8863
21
-4.08524
0
LINE
8
BLACK
6
CONTINUOUS
10
5.8863
20
-4.08524
11
5.88649
21
-4.0843
0
LINE
8
BLACK
6
CONTINUOUS
10
5.88649
20
-4.0843
11
5.88702
21
-4.0835
0
LINE
8
BLACK
6
CONTINUOUS
10
5.88702
20
-4.0835
11
5.88782
21
-4.08297
0
LINE
8
BLACK
6
CONTINUOUS
10
5.88782
20
-4.08297
11
5.88876
21
-4.08278
0
LINE
8
BLACK
6
CONTINUOUS
10
5.88876
20
-4.08278
11
5.89368
21
-4.08278
0
LINE
8
BLACK
6
CONTINUOUS
10
5.89368
20
-4.08278
11
5.89462
21
-4.08297
0
LINE
8
BLACK
6
CONTINUOUS
10
5.91431
20
-4.08297
11
5.91511
21
-4.0835
0
LINE
8
BLACK
6
CONTINUOUS
10
5.91511
20
-4.0835
11
5.91564
21
-4.0843
0
LINE
8
BLACK
6
CONTINUOUS
10
5.91564
20
-4.0843
11
5.91583
21
-4.08524
0
LINE
8
BLACK
6
CONTINUOUS
10
5.91583
20
-4.08524
11
5.91583
21
-4.11379
0
LINE
8
BLACK
6
CONTINUOUS
10
5.91583
20
-4.11379
11
5.91564
21
-4.11473
0
LINE
8
BLACK
6
CONTINUOUS
10
5.91564
20
-4.11473
11
5.91511
21
-4.11553
0
LINE
8
BLACK
6
CONTINUOUS
10
5.91511
20
-4.11553
11
5.91431
21
-4.11606
0
LINE
8
BLACK
6
CONTINUOUS
10
5.91431
20
-4.11606
11
5.91337
21
-4.11625
0
LINE
8
BLACK
6
CONTINUOUS
10
5.91337
20
-4.11625
11
5.90845
21
-4.11625
0
LINE
8
BLACK
6
CONTINUOUS
10
5.90845
20
-4.11625
11
5.90751
21
-4.11606
0
LINE
8
BLACK
6
CONTINUOUS
10
5.90751
20
-4.11606
11
5.90671
21
-4.11553
0
LINE
8
BLACK
6
CONTINUOUS
10
5.90671
20
-4.11553
11
5.90617
21
-4.11473
0
LINE
8
BLACK
6
CONTINUOUS
10
5.90617
20
-4.11473
11
5.90599
21
-4.11379
0
LINE
8
BLACK
6
CONTINUOUS
10
5.90599
20
-4.11379
11
5.90599
21
-4.08524
0
LINE
8
BLACK
6
CONTINUOUS
10
5.90599
20
-4.08524
11
5.90617
21
-4.0843
0
LINE
8
BLACK
6
CONTINUOUS
10
5.90617
20
-4.0843
11
5.90671
21
-4.0835
0
LINE
8
BLACK
6
CONTINUOUS
10
5.90671
20
-4.0835
11
5.90751
21
-4.08297
0
LINE
8
BLACK
6
CONTINUOUS
10
5.90751
20
-4.08297
11
5.90845
21
-4.08278
0
LINE
8
BLACK
6
CONTINUOUS
10
5.90845
20
-4.08278
11
5.91337
21
-4.08278
0
LINE
8
BLACK
6
CONTINUOUS
10
5.91337
20
-4.08278
11
5.91431
21
-4.08297
0
LINE
8
BLACK
6
CONTINUOUS
10
5.93399
20
-4.08297
11
5.93479
21
-4.0835
0
LINE
8
BLACK
6
CONTINUOUS
10
5.93479
20
-4.0835
11
5.93533
21
-4.0843
0
LINE
8
BLACK
6
CONTINUOUS
10
5.93533
20
-4.0843
11
5.93551
21
-4.08524
0
LINE
8
BLACK
6
CONTINUOUS
10
5.93551
20
-4.08524
11
5.93551
21
-4.11379
0
LINE
8
BLACK
6
CONTINUOUS
10
5.93551
20
-4.11379
11
5.93533
21
-4.11473
0
LINE
8
BLACK
6
CONTINUOUS
10
5.93533
20
-4.11473
11
5.93479
21
-4.11553
0
LINE
8
BLACK
6
CONTINUOUS
10
5.93479
20
-4.11553
11
5.93399
21
-4.11606
0
LINE
8
BLACK
6
CONTINUOUS
10
5.93399
20
-4.11606
11
5.93305
21
-4.11625
0
LINE
8
BLACK
6
CONTINUOUS
10
5.93305
20
-4.11625
11
5.92813
21
-4.11625
0
LINE
8
BLACK
6
CONTINUOUS
10
5.92813
20
-4.11625
11
5.92719
21
-4.11606
0
LINE
8
BLACK
6
CONTINUOUS
10
5.92719
20
-4.11606
11
5.92639
21
-4.11553
0
LINE
8
BLACK
6
CONTINUOUS
10
5.92639
20
-4.11553
11
5.92586
21
-4.11473
0
LINE
8
BLACK
6
CONTINUOUS
10
5.92586
20
-4.11473
11
5.92567
21
-4.11379
0
LINE
8
BLACK
6
CONTINUOUS
10
5.92567
20
-4.11379
11
5.92567
21
-4.08524
0
LINE
8
BLACK
6
CONTINUOUS
10
5.92567
20
-4.08524
11
5.92586
21
-4.0843
0
LINE
8
BLACK
6
CONTINUOUS
10
5.92586
20
-4.0843
11
5.92639
21
-4.0835
0
LINE
8
BLACK
6
CONTINUOUS
10
5.92639
20
-4.0835
11
5.92719
21
-4.08297
0
LINE
8
BLACK
6
CONTINUOUS
10
5.92719
20
-4.08297
11
5.92813
21
-4.08278
0
LINE
8
BLACK
6
CONTINUOUS
10
5.92813
20
-4.08278
11
5.93305
21
-4.08278
0
LINE
8
BLACK
6
CONTINUOUS
10
5.93305
20
-4.08278
11
5.93399
21
-4.08297
0
LINE
8
BLACK
6
CONTINUOUS
10
5.95368
20
-4.08297
11
5.95448
21
-4.0835
0
LINE
8
BLACK
6
CONTINUOUS
10
5.95448
20
-4.0835
11
5.95501
21
-4.0843
0
LINE
8
BLACK
6
CONTINUOUS
10
5.95501
20
-4.0843
11
5.9552
21
-4.08524
0
LINE
8
BLACK
6
CONTINUOUS
10
5.9552
20
-4.08524
11
5.9552
21
-4.11379
0
LINE
8
BLACK
6
CONTINUOUS
10
5.9552
20
-4.11379
11
5.95501
21
-4.11473
0
LINE
8
BLACK
6
CONTINUOUS
10
5.95501
20
-4.11473
11
5.95448
21
-4.11553
0
LINE
8
BLACK
6
CONTINUOUS
10
5.95448
20
-4.11553
11
5.95368
21
-4.11606
0
LINE
8
BLACK
6
CONTINUOUS
10
5.95368
20
-4.11606
11
5.95274
21
-4.11625
0
LINE
8
BLACK
6
CONTINUOUS
10
5.95274
20
-4.11625
11
5.94782
21
-4.11625
0
LINE
8
BLACK
6
CONTINUOUS
10
5.94782
20
-4.11625
11
5.94688
21
-4.11606
0
LINE
8
BLACK
6
CONTINUOUS
10
5.94688
20
-4.11606
11
5.94608
21
-4.11553
0
LINE
8
BLACK
6
CONTINUOUS
10
5.94608
20
-4.11553
11
5.94554
21
-4.11473
0
LINE
8
BLACK
6
CONTINUOUS
10
5.94554
20
-4.11473
11
5.94536
21
-4.11379
0
LINE
8
BLACK
6
CONTINUOUS
10
5.94536
20
-4.11379
11
5.94536
21
-4.08524
0
LINE
8
BLACK
6
CONTINUOUS
10
5.94536
20
-4.08524
11
5.94554
21
-4.0843
0
LINE
8
BLACK
6
CONTINUOUS
10
5.94554
20
-4.0843
11
5.94608
21
-4.0835
0
LINE
8
BLACK
6
CONTINUOUS
10
5.94608
20
-4.0835
11
5.94688
21
-4.08297
0
LINE
8
BLACK
6
CONTINUOUS
10
5.94688
20
-4.08297
11
5.94782
21
-4.08278
0
LINE
8
BLACK
6
CONTINUOUS
10
5.94782
20
-4.08278
11
5.95274
21
-4.08278
0
LINE
8
BLACK
6
CONTINUOUS
10
5.95274
20
-4.08278
11
5.95368
21
-4.08297
0
LINE
8
BLACK
6
CONTINUOUS
10
5.97336
20
-4.08297
11
5.97416
21
-4.0835
0
LINE
8
BLACK
6
CONTINUOUS
10
5.97416
20
-4.0835
11
5.9747
21
-4.0843
0
LINE
8
BLACK
6
CONTINUOUS
10
5.9747
20
-4.0843
11
5.97488
21
-4.08524
0
LINE
8
BLACK
6
CONTINUOUS
10
5.97488
20
-4.08524
11
5.97488
21
-4.11379
0
LINE
8
BLACK
6
CONTINUOUS
10
5.97488
20
-4.11379
11
5.9747
21
-4.11473
0
LINE
8
BLACK
6
CONTINUOUS
10
5.9747
20
-4.11473
11
5.97416
21
-4.11553
0
LINE
8
BLACK
6
CONTINUOUS
10
5.97416
20
-4.11553
11
5.97336
21
-4.11606
0
LINE
8
BLACK
6
CONTINUOUS
10
5.97336
20
-4.11606
11
5.97242
21
-4.11625
0
LINE
8
BLACK
6
CONTINUOUS
10
5.97242
20
-4.11625
11
5.9675
21
-4.11625
0
LINE
8
BLACK
6
CONTINUOUS
10
5.9675
20
-4.11625
11
5.96656
21
-4.11606
0
LINE
8
BLACK
6
CONTINUOUS
10
5.96656
20
-4.11606
11
5.96576
21
-4.11553
0
LINE
8
BLACK
6
CONTINUOUS
10
5.96576
20
-4.11553
11
5.96523
21
-4.11473
0
LINE
8
BLACK
6
CONTINUOUS
10
5.96523
20
-4.11473
11
5.96504
21
-4.11379
0
LINE
8
BLACK
6
CONTINUOUS
10
5.96504
20
-4.11379
11
5.96504
21
-4.08524
0
LINE
8
BLACK
6
CONTINUOUS
10
5.96504
20
-4.08524
11
5.96523
21
-4.0843
0
LINE
8
BLACK
6
CONTINUOUS
10
5.96523
20
-4.0843
11
5.96576
21
-4.0835
0
LINE
8
BLACK
6
CONTINUOUS
10
5.96576
20
-4.0835
11
5.96656
21
-4.08297
0
LINE
8
BLACK
6
CONTINUOUS
10
5.96656
20
-4.08297
11
5.9675
21
-4.08278
0
LINE
8
BLACK
6
CONTINUOUS
10
5.9675
20
-4.08278
11
5.97242
21
-4.08278
0
LINE
8
BLACK
6
CONTINUOUS
10
5.97242
20
-4.08278
11
5.97336
21
-4.08297
0
LINE
8
BLACK
6
CONTINUOUS
10
5.99305
20
-4.08297
11
5.99385
21
-4.0835
0
LINE
8
BLACK
6
CONTINUOUS
10
5.99385
20
-4.0835
11
5.99438
21
-4.0843
0
LINE
8
BLACK
6
CONTINUOUS
10
5.99438
20
-4.0843
11
5.99457
21
-4.08524
0
LINE
8
BLACK
6
CONTINUOUS
10
5.99457
20
-4.08524
11
5.99457
21
-4.11379
0
LINE
8
BLACK
6
CONTINUOUS
10
5.99457
20
-4.11379
11
5.99438
21
-4.11473
0
LINE
8
BLACK
6
CONTINUOUS
10
5.99438
20
-4.11473
11
5.99385
21
-4.11553
0
LINE
8
BLACK
6
CONTINUOUS
10
5.99385
20
-4.11553
11
5.99305
21
-4.11606
0
LINE
8
BLACK
6
CONTINUOUS
10
5.99305
20
-4.11606
11
5.99211
21
-4.11625
0
LINE
8
BLACK
6
CONTINUOUS
10
5.99211
20
-4.11625
11
5.98719
21
-4.11625
0
LINE
8
BLACK
6
CONTINUOUS
10
5.98719
20
-4.11625
11
5.98625
21
-4.11606
0
LINE
8
BLACK
6
CONTINUOUS
10
5.98625
20
-4.11606
11
5.98545
21
-4.11553
0
LINE
8
BLACK
6
CONTINUOUS
10
5.98545
20
-4.11553
11
5.98491
21
-4.11473
0
LINE
8
BLACK
6
CONTINUOUS
10
5.98491
20
-4.11473
11
5.98473
21
-4.11379
0
LINE
8
BLACK
6
CONTINUOUS
10
5.98473
20
-4.11379
11
5.98473
21
-4.08524
0
LINE
8
BLACK
6
CONTINUOUS
10
5.98473
20
-4.08524
11
5.98491
21
-4.0843
0
LINE
8
BLACK
6
CONTINUOUS
10
5.98491
20
-4.0843
11
5.98545
21
-4.0835
0
LINE
8
BLACK
6
CONTINUOUS
10
5.98545
20
-4.0835
11
5.98625
21
-4.08297
0
LINE
8
BLACK
6
CONTINUOUS
10
5.98625
20
-4.08297
11
5.98719
21
-4.08278
0
LINE
8
BLACK
6
CONTINUOUS
10
5.98719
20
-4.08278
11
5.99211
21
-4.08278
0
LINE
8
BLACK
6
CONTINUOUS
10
5.99211
20
-4.08278
11
5.99305
21
-4.08297
0
LINE
8
BLACK
6
CONTINUOUS
10
5.55356
20
-4.11056
11
5.49856
21
-4.11056
0
LINE
8
BLACK
6
CONTINUOUS
10
5.49856
20
-4.11056
11
5.49856
21
-4.07556
0
LINE
8
BLACK
6
CONTINUOUS
10
5.49856
20
-4.07556
11
5.55356
21
-4.07556
0
LINE
8
BLACK
6
CONTINUOUS
10
5.55356
20
-4.07556
11
5.55356
21
-4.11056
0
LINE
8
BLACK
6
CONTINUOUS
10
5.07856
20
-4.10806
11
5.02356
21
-4.10806
0
LINE
8
BLACK
6
CONTINUOUS
10
5.02356
20
-4.10806
11
5.02356
21
-4.07306
0
LINE
8
BLACK
6
CONTINUOUS
10
5.02356
20
-4.07306
11
5.07856
21
-4.07306
0
LINE
8
BLACK
6
CONTINUOUS
10
5.07856
20
-4.07306
11
5.07856
21
-4.10806
0
LINE
8
BLACK
6
CONTINUOUS
10
5.62856
20
-4.10806
11
5.57356
21
-4.10806
0
LINE
8
BLACK
6
CONTINUOUS
10
5.57356
20
-4.10806
11
5.57356
21
-4.07306
0
LINE
8
BLACK
6
CONTINUOUS
10
5.57356
20
-4.07306
11
5.62856
21
-4.07306
0
LINE
8
BLACK
6
CONTINUOUS
10
5.62856
20
-4.07306
11
5.62856
21
-4.10806
0
LINE
8
BLACK
6
CONTINUOUS
10
5.70356
20
-4.10806
11
5.64856
21
-4.10806
0
LINE
8
BLACK
6
CONTINUOUS
10
5.64856
20
-4.10806
11
5.64856
21
-4.07306
0
LINE
8
BLACK
6
CONTINUOUS
10
5.64856
20
-4.07306
11
5.70356
21
-4.07306
0
LINE
8
BLACK
6
CONTINUOUS
10
5.70356
20
-4.07306
11
5.70356
21
-4.10806
0
LINE
8
BLACK
6
CONTINUOUS
10
6.40856
20
-4.09906
11
6.35356
21
-4.09906
0
LINE
8
BLACK
6
CONTINUOUS
10
6.35356
20
-4.09906
11
6.35356
21
-4.06406
0
LINE
8
BLACK
6
CONTINUOUS
10
6.35356
20
-4.06406
11
6.40856
21
-4.06406
0
LINE
8
BLACK
6
CONTINUOUS
10
6.40856
20
-4.06406
11
6.40856
21
-4.09906
0
LINE
8
BLACK
6
CONTINUOUS
10
6.60856
20
-4.09906
11
6.55356
21
-4.09906
0
LINE
8
BLACK
6
CONTINUOUS
10
6.55356
20
-4.09906
11
6.55356
21
-4.06406
0
LINE
8
BLACK
6
CONTINUOUS
10
6.55356
20
-4.06406
11
6.60856
21
-4.06406
0
LINE
8
BLACK
6
CONTINUOUS
10
6.60856
20
-4.06406
11
6.60856
21
-4.09906
0
LINE
8
BLACK
6
CONTINUOUS
10
6.75856
20
-4.09906
11
6.70356
21
-4.09906
0
LINE
8
BLACK
6
CONTINUOUS
10
6.70356
20
-4.09906
11
6.70356
21
-4.06406
0
LINE
8
BLACK
6
CONTINUOUS
10
6.70356
20
-4.06406
11
6.75856
21
-4.06406
0
LINE
8
BLACK
6
CONTINUOUS
10
6.75856
20
-4.06406
11
6.75856
21
-4.09906
0
LINE
8
BLACK
6
CONTINUOUS
10
6.32856
20
-4.08306
11
6.27356
21
-4.08306
0
LINE
8
BLACK
6
CONTINUOUS
10
6.27356
20
-4.08306
11
6.27356
21
-4.04806
0
LINE
8
BLACK
6
CONTINUOUS
10
6.27356
20
-4.04806
11
6.32856
21
-4.04806
0
LINE
8
BLACK
6
CONTINUOUS
10
6.32856
20
-4.04806
11
6.32856
21
-4.08306
0
LINE
8
BLACK
6
CONTINUOUS
10
5.80014
20
-4.06722
11
5.80093
21
-4.06776
0
LINE
8
BLACK
6
CONTINUOUS
10
5.80093
20
-4.06776
11
5.80147
21
-4.06855
0
LINE
8
BLACK
6
CONTINUOUS
10
5.80147
20
-4.06855
11
5.80166
21
-4.0695
0
LINE
8
BLACK
6
CONTINUOUS
10
5.80166
20
-4.0695
11
5.80166
21
-4.07442
0
LINE
8
BLACK
6
CONTINUOUS
10
5.80166
20
-4.07442
11
5.80147
21
-4.07536
0
LINE
8
BLACK
6
CONTINUOUS
10
5.80147
20
-4.07536
11
5.80093
21
-4.07616
0
LINE
8
BLACK
6
CONTINUOUS
10
5.80093
20
-4.07616
11
5.80014
21
-4.07669
0
LINE
8
BLACK
6
CONTINUOUS
10
5.80014
20
-4.07669
11
5.79919
21
-4.07688
0
LINE
8
BLACK
6
CONTINUOUS
10
5.79919
20
-4.07688
11
5.77065
21
-4.07688
0
LINE
8
BLACK
6
CONTINUOUS
10
5.77065
20
-4.07688
11
5.76971
21
-4.07669
0
LINE
8
BLACK
6
CONTINUOUS
10
5.76971
20
-4.07669
11
5.76891
21
-4.07616
0
LINE
8
BLACK
6
CONTINUOUS
10
5.76891
20
-4.07616
11
5.76838
21
-4.07536
0
LINE
8
BLACK
6
CONTINUOUS
10
5.76838
20
-4.07536
11
5.76819
21
-4.07442
0
LINE
8
BLACK
6
CONTINUOUS
10
5.76819
20
-4.07442
11
5.76819
21
-4.0695
0
LINE
8
BLACK
6
CONTINUOUS
10
5.76819
20
-4.0695
11
5.76838
21
-4.06855
0
LINE
8
BLACK
6
CONTINUOUS
10
5.76838
20
-4.06855
11
5.76891
21
-4.06776
0
LINE
8
BLACK
6
CONTINUOUS
10
5.76891
20
-4.06776
11
5.76971
21
-4.06722
0
LINE
8
BLACK
6
CONTINUOUS
10
5.76971
20
-4.06722
11
5.77065
21
-4.06703
0
LINE
8
BLACK
6
CONTINUOUS
10
5.77065
20
-4.06703
11
5.79919
21
-4.06703
0
LINE
8
BLACK
6
CONTINUOUS
10
5.79919
20
-4.06703
11
5.80014
21
-4.06722
0
LINE
8
BLACK
6
CONTINUOUS
10
6.03242
20
-4.06722
11
6.03322
21
-4.06776
0
LINE
8
BLACK
6
CONTINUOUS
10
6.03322
20
-4.06776
11
6.03375
21
-4.06855
0
LINE
8
BLACK
6
CONTINUOUS
10
6.03375
20
-4.06855
11
6.03394
21
-4.0695
0
LINE
8
BLACK
6
CONTINUOUS
10
6.03394
20
-4.0695
11
6.03394
21
-4.07442
0
LINE
8
BLACK
6
CONTINUOUS
10
6.03394
20
-4.07442
11
6.03375
21
-4.07536
0
LINE
8
BLACK
6
CONTINUOUS
10
6.03375
20
-4.07536
11
6.03322
21
-4.07616
0
LINE
8
BLACK
6
CONTINUOUS
10
6.03322
20
-4.07616
11
6.03242
21
-4.07669
0
LINE
8
BLACK
6
CONTINUOUS
10
6.03242
20
-4.07669
11
6.03148
21
-4.07688
0
LINE
8
BLACK
6
CONTINUOUS
10
6.03148
20
-4.07688
11
6.00293
21
-4.07688
0
LINE
8
BLACK
6
CONTINUOUS
10
6.00293
20
-4.07688
11
6.00199
21
-4.07669
0
LINE
8
BLACK
6
CONTINUOUS
10
6.00199
20
-4.07669
11
6.0012
21
-4.07616
0
LINE
8
BLACK
6
CONTINUOUS
10
6.0012
20
-4.07616
11
6.00066
21
-4.07536
0
LINE
8
BLACK
6
CONTINUOUS
10
6.00066
20
-4.07536
11
6.00047
21
-4.07442
0
LINE
8
BLACK
6
CONTINUOUS
10
6.00047
20
-4.07442
11
6.00047
21
-4.0695
0
LINE
8
BLACK
6
CONTINUOUS
10
6.00047
20
-4.0695
11
6.00066
21
-4.06855
0
LINE
8
BLACK
6
CONTINUOUS
10
6.00066
20
-4.06855
11
6.0012
21
-4.06776
0
LINE
8
BLACK
6
CONTINUOUS
10
6.0012
20
-4.06776
11
6.00199
21
-4.06722
0
LINE
8
BLACK
6
CONTINUOUS
10
6.00199
20
-4.06722
11
6.00293
21
-4.06703
0
LINE
8
BLACK
6
CONTINUOUS
10
6.00293
20
-4.06703
11
6.03148
21
-4.06703
0
LINE
8
BLACK
6
CONTINUOUS
10
6.03148
20
-4.06703
11
6.03242
21
-4.06722
0
LINE
8
BLACK
6
CONTINUOUS
10
5.9757
20
-3.93294
11
5.97889
21
-3.93508
0
LINE
8
BLACK
6
CONTINUOUS
10
5.97889
20
-3.93508
11
5.98102
21
-3.93827
0
LINE
8
BLACK
6
CONTINUOUS
10
5.98102
20
-3.93827
11
5.98177
21
-3.94203
0
LINE
8
BLACK
6
CONTINUOUS
10
5.98177
20
-3.94203
11
5.98177
21
-4.06408
0
LINE
8
BLACK
6
CONTINUOUS
10
5.98177
20
-4.06408
11
5.98102
21
-4.06785
0
LINE
8
BLACK
6
CONTINUOUS
10
5.98102
20
-4.06785
11
5.97889
21
-4.07104
0
LINE
8
BLACK
6
CONTINUOUS
10
5.97889
20
-4.07104
11
5.9757
21
-4.07318
0
LINE
8
BLACK
6
CONTINUOUS
10
5.9757
20
-4.07318
11
5.97193
21
-4.07392
0
LINE
8
BLACK
6
CONTINUOUS
10
5.97193
20
-4.07392
11
5.8302
21
-4.07392
0
LINE
8
BLACK
6
CONTINUOUS
10
5.8302
20
-4.07392
11
5.82643
21
-4.07318
0
LINE
8
BLACK
6
CONTINUOUS
10
5.82643
20
-4.07318
11
5.82324
21
-4.07104
0
LINE
8
BLACK
6
CONTINUOUS
10
5.82324
20
-4.07104
11
5.82111
21
-4.06785
0
LINE
8
BLACK
6
CONTINUOUS
10
5.82111
20
-4.06785
11
5.82036
21
-4.06408
0
LINE
8
BLACK
6
CONTINUOUS
10
5.82036
20
-4.06408
11
5.82036
21
-3.94203
0
LINE
8
BLACK
6
CONTINUOUS
10
5.82036
20
-3.94203
11
5.82111
21
-3.93827
0
LINE
8
BLACK
6
CONTINUOUS
10
5.82111
20
-3.93827
11
5.82324
21
-3.93508
0
LINE
8
BLACK
6
CONTINUOUS
10
5.82324
20
-3.93508
11
5.82643
21
-3.93294
0
LINE
8
BLACK
6
CONTINUOUS
10
5.82643
20
-3.93294
11
5.8302
21
-3.93219
0
LINE
8
BLACK
6
CONTINUOUS
10
5.8302
20
-3.93219
11
5.97193
21
-3.93219
0
LINE
8
BLACK
6
CONTINUOUS
10
5.97193
20
-3.93219
11
5.9757
21
-3.93294
0
LINE
8
BLACK
6
CONTINUOUS
10
5.21106
20
-4.07306
11
5.13106
21
-4.07306
0
LINE
8
BLACK
6
CONTINUOUS
10
5.13106
20
-4.07306
11
5.13106
21
-4.03306
0
LINE
8
BLACK
6
CONTINUOUS
10
5.13106
20
-4.03306
11
5.21106
21
-4.03306
0
LINE
8
BLACK
6
CONTINUOUS
10
5.21106
20
-4.03306
11
5.21106
21
-4.07306
0
LINE
8
BLACK
6
CONTINUOUS
10
5.80014
20
-4.04754
11
5.80093
21
-4.04807
0
LINE
8
BLACK
6
CONTINUOUS
10
5.80093
20
-4.04807
11
5.80147
21
-4.04887
0
LINE
8
BLACK
6
CONTINUOUS
10
5.80147
20
-4.04887
11
5.80166
21
-4.04981
0
LINE
8
BLACK
6
CONTINUOUS
10
5.80166
20
-4.04981
11
5.80166
21
-4.05473
0
LINE
8
BLACK
6
CONTINUOUS
10
5.80166
20
-4.05473
11
5.80147
21
-4.05567
0
LINE
8
BLACK
6
CONTINUOUS
10
5.80147
20
-4.05567
11
5.80093
21
-4.05647
0
LINE
8
BLACK
6
CONTINUOUS
10
5.80093
20
-4.05647
11
5.80014
21
-4.05701
0
LINE
8
BLACK
6
CONTINUOUS
10
5.80014
20
-4.05701
11
5.79919
21
-4.05719
0
LINE
8
BLACK
6
CONTINUOUS
10
5.79919
20
-4.05719
11
5.77065
21
-4.05719
0
LINE
8
BLACK
6
CONTINUOUS
10
5.77065
20
-4.05719
11
5.76971
21
-4.05701
0
LINE
8
BLACK
6
CONTINUOUS
10
5.76971
20
-4.05701
11
5.76891
21
-4.05647
0
LINE
8
BLACK
6
CONTINUOUS
10
5.76891
20
-4.05647
11
5.76838
21
-4.05567
0
LINE
8
BLACK
6
CONTINUOUS
10
5.76838
20
-4.05567
11
5.76819
21
-4.05473
0
LINE
8
BLACK
6
CONTINUOUS
10
5.76819
20
-4.05473
11
5.76819
21
-4.04981
0
LINE
8
BLACK
6
CONTINUOUS
10
5.76819
20
-4.04981
11
5.76838
21
-4.04887
0
LINE
8
BLACK
6
CONTINUOUS
10
5.76838
20
-4.04887
11
5.76891
21
-4.04807
0
LINE
8
BLACK
6
CONTINUOUS
10
5.76891
20
-4.04807
11
5.76971
21
-4.04754
0
LINE
8
BLACK
6
CONTINUOUS
10
5.76971
20
-4.04754
11
5.77065
21
-4.04735
0
LINE
8
BLACK
6
CONTINUOUS
10
5.77065
20
-4.04735
11
5.79919
21
-4.04735
0
LINE
8
BLACK
6
CONTINUOUS
10
5.79919
20
-4.04735
11
5.80014
21
-4.04754
0
LINE
8
BLACK
6
CONTINUOUS
10
6.03242
20
-4.04754
11
6.03322
21
-4.04807
0
LINE
8
BLACK
6
CONTINUOUS
10
6.03322
20
-4.04807
11
6.03375
21
-4.04887
0
LINE
8
BLACK
6
CONTINUOUS
10
6.03375
20
-4.04887
11
6.03394
21
-4.04981
0
LINE
8
BLACK
6
CONTINUOUS
10
6.03394
20
-4.04981
11
6.03394
21
-4.05473
0
LINE
8
BLACK
6
CONTINUOUS
10
6.03394
20
-4.05473
11
6.03375
21
-4.05567
0
LINE
8
BLACK
6
CONTINUOUS
10
6.03375
20
-4.05567
11
6.03322
21
-4.05647
0
LINE
8
BLACK
6
CONTINUOUS
10
6.03322
20
-4.05647
11
6.03242
21
-4.05701
0
LINE
8
BLACK
6
CONTINUOUS
10
6.03242
20
-4.05701
11
6.03148
21
-4.05719
0
LINE
8
BLACK
6
CONTINUOUS
10
6.03148
20
-4.05719
11
6.00293
21
-4.05719
0
LINE
8
BLACK
6
CONTINUOUS
10
6.00293
20
-4.05719
11
6.00199
21
-4.05701
0
LINE
8
BLACK
6
CONTINUOUS
10
6.00199
20
-4.05701
11
6.0012
21
-4.05647
0
LINE
8
BLACK
6
CONTINUOUS
10
6.0012
20
-4.05647
11
6.00066
21
-4.05567
0
LINE
8
BLACK
6
CONTINUOUS
10
6.00066
20
-4.05567
11
6.00047
21
-4.05473
0
LINE
8
BLACK
6
CONTINUOUS
10
6.00047
20
-4.05473
11
6.00047
21
-4.04981
0
LINE
8
BLACK
6
CONTINUOUS
10
6.00047
20
-4.04981
11
6.00066
21
-4.04887
0
LINE
8
BLACK
6
CONTINUOUS
10
6.00066
20
-4.04887
11
6.0012
21
-4.04807
0
LINE
8
BLACK
6
CONTINUOUS
10
6.0012
20
-4.04807
11
6.00199
21
-4.04754
0
LINE
8
BLACK
6
CONTINUOUS
10
6.00199
20
-4.04754
11
6.00293
21
-4.04735
0
LINE
8
BLACK
6
CONTINUOUS
10
6.00293
20
-4.04735
11
6.03148
21
-4.04735
0
LINE
8
BLACK
6
CONTINUOUS
10
6.03148
20
-4.04735
11
6.03242
21
-4.04754
0
LINE
8
BLACK
6
CONTINUOUS
10
5.80014
20
-4.02785
11
5.80093
21
-4.02839
0
LINE
8
BLACK
6
CONTINUOUS
10
5.80093
20
-4.02839
11
5.80147
21
-4.02918
0
LINE
8
BLACK
6
CONTINUOUS
10
5.80147
20
-4.02918
11
5.80166
21
-4.03013
0
LINE
8
BLACK
6
CONTINUOUS
10
5.80166
20
-4.03013
11
5.80166
21
-4.03505
0
LINE
8
BLACK
6
CONTINUOUS
10
5.80166
20
-4.03505
11
5.80147
21
-4.03599
0
LINE
8
BLACK
6
CONTINUOUS
10
5.80147
20
-4.03599
11
5.80093
21
-4.03679
0
LINE
8
BLACK
6
CONTINUOUS
10
5.80093
20
-4.03679
11
5.80014
21
-4.03732
0
LINE
8
BLACK
6
CONTINUOUS
10
5.80014
20
-4.03732
11
5.79919
21
-4.03751
0
LINE
8
BLACK
6
CONTINUOUS
10
5.79919
20
-4.03751
11
5.77065
21
-4.03751
0
LINE
8
BLACK
6
CONTINUOUS
10
5.77065
20
-4.03751
11
5.76971
21
-4.03732
0
LINE
8
BLACK
6
CONTINUOUS
10
5.76971
20
-4.03732
11
5.76891
21
-4.03679
0
LINE
8
BLACK
6
CONTINUOUS
10
5.76891
20
-4.03679
11
5.76838
21
-4.03599
0
LINE
8
BLACK
6
CONTINUOUS
10
5.76838
20
-4.03599
11
5.76819
21
-4.03505
0
LINE
8
BLACK
6
CONTINUOUS
10
5.76819
20
-4.03505
11
5.76819
21
-4.03013
0
LINE
8
BLACK
6
CONTINUOUS
10
5.76819
20
-4.03013
11
5.76838
21
-4.02918
0
LINE
8
BLACK
6
CONTINUOUS
10
5.76838
20
-4.02918
11
5.76891
21
-4.02839
0
LINE
8
BLACK
6
CONTINUOUS
10
5.76891
20
-4.02839
11
5.76971
21
-4.02785
0
LINE
8
BLACK
6
CONTINUOUS
10
5.76971
20
-4.02785
11
5.77065
21
-4.02766
0
LINE
8
BLACK
6
CONTINUOUS
10
5.77065
20
-4.02766
11
5.79919
21
-4.02766
0
LINE
8
BLACK
6
CONTINUOUS
10
5.79919
20
-4.02766
11
5.80014
21
-4.02785
0
LINE
8
BLACK
6
CONTINUOUS
10
6.03242
20
-4.02785
11
6.03322
21
-4.02839
0
LINE
8
BLACK
6
CONTINUOUS
10
6.03322
20
-4.02839
11
6.03375
21
-4.02918
0
LINE
8
BLACK
6
CONTINUOUS
10
6.03375
20
-4.02918
11
6.03394
21
-4.03013
0
LINE
8
BLACK
6
CONTINUOUS
10
6.03394
20
-4.03013
11
6.03394
21
-4.03505
0
LINE
8
BLACK
6
CONTINUOUS
10
6.03394
20
-4.03505
11
6.03375
21
-4.03599
0
LINE
8
BLACK
6
CONTINUOUS
10
6.03375
20
-4.03599
11
6.03322
21
-4.03679
0
LINE
8
BLACK
6
CONTINUOUS
10
6.03322
20
-4.03679
11
6.03242
21
-4.03732
0
LINE
8
BLACK
6
CONTINUOUS
10
6.03242
20
-4.03732
11
6.03148
21
-4.03751
0
LINE
8
BLACK
6
CONTINUOUS
10
6.03148
20
-4.03751
11
6.00293
21
-4.03751
0
LINE
8
BLACK
6
CONTINUOUS
10
6.00293
20
-4.03751
11
6.00199
21
-4.03732
0
LINE
8
BLACK
6
CONTINUOUS
10
6.00199
20
-4.03732
11
6.0012
21
-4.03679
0
LINE
8
BLACK
6
CONTINUOUS
10
6.0012
20
-4.03679
11
6.00066
21
-4.03599
0
LINE
8
BLACK
6
CONTINUOUS
10
6.00066
20
-4.03599
11
6.00047
21
-4.03505
0
LINE
8
BLACK
6
CONTINUOUS
10
6.00047
20
-4.03505
11
6.00047
21
-4.03013
0
LINE
8
BLACK
6
CONTINUOUS
10
6.00047
20
-4.03013
11
6.00066
21
-4.02918
0
LINE
8
BLACK
6
CONTINUOUS
10
6.00066
20
-4.02918
11
6.0012
21
-4.02839
0
LINE
8
BLACK
6
CONTINUOUS
10
6.0012
20
-4.02839
11
6.00199
21
-4.02785
0
LINE
8
BLACK
6
CONTINUOUS
10
6.00199
20
-4.02785
11
6.00293
21
-4.02766
0
LINE
8
BLACK
6
CONTINUOUS
10
6.00293
20
-4.02766
11
6.03148
21
-4.02766
0
LINE
8
BLACK
6
CONTINUOUS
10
6.03148
20
-4.02766
11
6.03242
21
-4.02785
0
LINE
8
BLACK
6
CONTINUOUS
10
5.55356
20
-4.03556
11
5.49856
21
-4.03556
0
LINE
8
BLACK
6
CONTINUOUS
10
5.49856
20
-4.03556
11
5.49856
21
-4.00056
0
LINE
8
BLACK
6
CONTINUOUS
10
5.49856
20
-4.00056
11
5.55356
21
-4.00056
0
LINE
8
BLACK
6
CONTINUOUS
10
5.55356
20
-4.00056
11
5.55356
21
-4.03556
0
LINE
8
BLACK
6
CONTINUOUS
10
5.07856
20
-4.03306
11
5.02356
21
-4.03306
0
LINE
8
BLACK
6
CONTINUOUS
10
5.02356
20
-4.03306
11
5.02356
21
-3.99806
0
LINE
8
BLACK
6
CONTINUOUS
10
5.02356
20
-3.99806
11
5.07856
21
-3.99806
0
LINE
8
BLACK
6
CONTINUOUS
10
5.07856
20
-3.99806
11
5.07856
21
-4.03306
0
LINE
8
BLACK
6
CONTINUOUS
10
5.62856
20
-4.03306
11
5.57356
21
-4.03306
0
LINE
8
BLACK
6
CONTINUOUS
10
5.57356
20
-4.03306
11
5.57356
21
-3.99806
0
LINE
8
BLACK
6
CONTINUOUS
10
5.57356
20
-3.99806
11
5.62856
21
-3.99806
0
LINE
8
BLACK
6
CONTINUOUS
10
5.62856
20
-3.99806
11
5.62856
21
-4.03306
0
LINE
8
BLACK
6
CONTINUOUS
10
5.70356
20
-4.03306
11
5.64856
21
-4.03306
0
LINE
8
BLACK
6
CONTINUOUS
10
5.64856
20
-4.03306
11
5.64856
21
-3.99806
0
LINE
8
BLACK
6
CONTINUOUS
10
5.64856
20
-3.99806
11
5.70356
21
-3.99806
0
LINE
8
BLACK
6
CONTINUOUS
10
5.70356
20
-3.99806
11
5.70356
21
-4.03306
0
LINE
8
BLACK
6
CONTINUOUS
10
6.40856
20
-4.02406
11
6.35356
21
-4.02406
0
LINE
8
BLACK
6
CONTINUOUS
10
6.35356
20
-4.02406
11
6.35356
21
-3.98906
0
LINE
8
BLACK
6
CONTINUOUS
10
6.35356
20
-3.98906
11
6.40856
21
-3.98906
0
LINE
8
BLACK
6
CONTINUOUS
10
6.40856
20
-3.98906
11
6.40856
21
-4.02406
0
LINE
8
BLACK
6
CONTINUOUS
10
6.60856
20
-4.02406
11
6.55356
21
-4.02406
0
LINE
8
BLACK
6
CONTINUOUS
10
6.55356
20
-4.02406
11
6.55356
21
-3.98906
0
LINE
8
BLACK
6
CONTINUOUS
10
6.55356
20
-3.98906
11
6.60856
21
-3.98906
0
LINE
8
BLACK
6
CONTINUOUS
10
6.60856
20
-3.98906
11
6.60856
21
-4.02406
0
LINE
8
BLACK
6
CONTINUOUS
10
6.75856
20
-4.02406
11
6.70356
21
-4.02406
0
LINE
8
BLACK
6
CONTINUOUS
10
6.70356
20
-4.02406
11
6.70356
21
-3.98906
0
LINE
8
BLACK
6
CONTINUOUS
10
6.70356
20
-3.98906
11
6.75856
21
-3.98906
0
LINE
8
BLACK
6
CONTINUOUS
10
6.75856
20
-3.98906
11
6.75856
21
-4.02406
0
LINE
8
BLACK
6
CONTINUOUS
10
5.80014
20
-4.00817
11
5.80093
21
-4.0087
0
LINE
8
BLACK
6
CONTINUOUS
10
5.80093
20
-4.0087
11
5.80147
21
-4.0095
0
LINE
8
BLACK
6
CONTINUOUS
10
5.80147
20
-4.0095
11
5.80166
21
-4.01044
0
LINE
8
BLACK
6
CONTINUOUS
10
5.80166
20
-4.01044
11
5.80166
21
-4.01536
0
LINE
8
BLACK
6
CONTINUOUS
10
5.80166
20
-4.01536
11
5.80147
21
-4.0163
0
LINE
8
BLACK
6
CONTINUOUS
10
5.80147
20
-4.0163
11
5.80093
21
-4.0171
0
LINE
8
BLACK
6
CONTINUOUS
10
5.80093
20
-4.0171
11
5.80014
21
-4.01764
0
LINE
8
BLACK
6
CONTINUOUS
10
5.80014
20
-4.01764
11
5.79919
21
-4.01782
0
LINE
8
BLACK
6
CONTINUOUS
10
5.79919
20
-4.01782
11
5.77065
21
-4.01782
0
LINE
8
BLACK
6
CONTINUOUS
10
5.77065
20
-4.01782
11
5.76971
21
-4.01764
0
LINE
8
BLACK
6
CONTINUOUS
10
5.76971
20
-4.01764
11
5.76891
21
-4.0171
0
LINE
8
BLACK
6
CONTINUOUS
10
5.76891
20
-4.0171
11
5.76838
21
-4.0163
0
LINE
8
BLACK
6
CONTINUOUS
10
5.76838
20
-4.0163
11
5.76819
21
-4.01536
0
LINE
8
BLACK
6
CONTINUOUS
10
5.76819
20
-4.01536
11
5.76819
21
-4.01044
0
LINE
8
BLACK
6
CONTINUOUS
10
5.76819
20
-4.01044
11
5.76838
21
-4.0095
0
LINE
8
BLACK
6
CONTINUOUS
10
5.76838
20
-4.0095
11
5.76891
21
-4.0087
0
LINE
8
BLACK
6
CONTINUOUS
10
5.76891
20
-4.0087
11
5.76971
21
-4.00817
0
LINE
8
BLACK
6
CONTINUOUS
10
5.76971
20
-4.00817
11
5.77065
21
-4.00798
0
LINE
8
BLACK
6
CONTINUOUS
10
5.77065
20
-4.00798
11
5.79919
21
-4.00798
0
LINE
8
BLACK
6
CONTINUOUS
10
5.79919
20
-4.00798
11
5.80014
21
-4.00817
0
LINE
8
BLACK
6
CONTINUOUS
10
6.03242
20
-4.00817
11
6.03322
21
-4.0087
0
LINE
8
BLACK
6
CONTINUOUS
10
6.03322
20
-4.0087
11
6.03375
21
-4.0095
0
LINE
8
BLACK
6
CONTINUOUS
10
6.03375
20
-4.0095
11
6.03394
21
-4.01044
0
LINE
8
BLACK
6
CONTINUOUS
10
6.03394
20
-4.01044
11
6.03394
21
-4.01536
0
LINE
8
BLACK
6
CONTINUOUS
10
6.03394
20
-4.01536
11
6.03375
21
-4.0163
0
LINE
8
BLACK
6
CONTINUOUS
10
6.03375
20
-4.0163
11
6.03322
21
-4.0171
0
LINE
8
BLACK
6
CONTINUOUS
10
6.03322
20
-4.0171
11
6.03242
21
-4.01764
0
LINE
8
BLACK
6
CONTINUOUS
10
6.03242
20
-4.01764
11
6.03148
21
-4.01782
0
LINE
8
BLACK
6
CONTINUOUS
10
6.03148
20
-4.01782
11
6.00293
21
-4.01782
0
LINE
8
BLACK
6
CONTINUOUS
10
6.00293
20
-4.01782
11
6.00199
21
-4.01764
0
LINE
8
BLACK
6
CONTINUOUS
10
6.00199
20
-4.01764
11
6.0012
21
-4.0171
0
LINE
8
BLACK
6
CONTINUOUS
10
6.0012
20
-4.0171
11
6.00066
21
-4.0163
0
LINE
8
BLACK
6
CONTINUOUS
10
6.00066
20
-4.0163
11
6.00047
21
-4.01536
0
LINE
8
BLACK
6
CONTINUOUS
10
6.00047
20
-4.01536
11
6.00047
21
-4.01044
0
LINE
8
BLACK
6
CONTINUOUS
10
6.00047
20
-4.01044
11
6.00066
21
-4.0095
0
LINE
8
BLACK
6
CONTINUOUS
10
6.00066
20
-4.0095
11
6.0012
21
-4.0087
0
LINE
8
BLACK
6
CONTINUOUS
10
6.0012
20
-4.0087
11
6.00199
21
-4.00817
0
LINE
8
BLACK
6
CONTINUOUS
10
6.00199
20
-4.00817
11
6.00293
21
-4.00798
0
LINE
8
BLACK
6
CONTINUOUS
10
6.00293
20
-4.00798
11
6.03148
21
-4.00798
0
LINE
8
BLACK
6
CONTINUOUS
10
6.03148
20
-4.00798
11
6.03242
21
-4.00817
0
LINE
8
BLACK
6
CONTINUOUS
10
6.22856
20
-4.00806
11
6.17356
21
-4.00806
0
LINE
8
BLACK
6
CONTINUOUS
10
6.17356
20
-4.00806
11
6.17356
21
-3.97306
0
LINE
8
BLACK
6
CONTINUOUS
10
6.17356
20
-3.97306
11
6.22856
21
-3.97306
0
LINE
8
BLACK
6
CONTINUOUS
10
6.22856
20
-3.97306
11
6.22856
21
-4.00806
0
LINE
8
BLACK
6
CONTINUOUS
10
6.32856
20
-4.00806
11
6.27356
21
-4.00806
0
LINE
8
BLACK
6
CONTINUOUS
10
6.27356
20
-4.00806
11
6.27356
21
-3.97306
0
LINE
8
BLACK
6
CONTINUOUS
10
6.27356
20
-3.97306
11
6.32856
21
-3.97306
0
LINE
8
BLACK
6
CONTINUOUS
10
6.32856
20
-3.97306
11
6.32856
21
-4.00806
0
LINE
8
BLACK
6
CONTINUOUS
10
5.80014
20
-3.98848
11
5.80093
21
-3.98902
0
LINE
8
BLACK
6
CONTINUOUS
10
5.80093
20
-3.98902
11
5.80147
21
-3.98981
0
LINE
8
BLACK
6
CONTINUOUS
10
5.80147
20
-3.98981
11
5.80166
21
-3.99076
0
LINE
8
BLACK
6
CONTINUOUS
10
5.80166
20
-3.99076
11
5.80166
21
-3.99568
0
LINE
8
BLACK
6
CONTINUOUS
10
5.80166
20
-3.99568
11
5.80147
21
-3.99662
0
LINE
8
BLACK
6
CONTINUOUS
10
5.80147
20
-3.99662
11
5.80093
21
-3.99742
0
LINE
8
BLACK
6
CONTINUOUS
10
5.80093
20
-3.99742
11
5.80014
21
-3.99795
0
LINE
8
BLACK
6
CONTINUOUS
10
5.80014
20
-3.99795
11
5.79919
21
-3.99814
0
LINE
8
BLACK
6
CONTINUOUS
10
5.79919
20
-3.99814
11
5.77065
21
-3.99814
0
LINE
8
BLACK
6
CONTINUOUS
10
5.77065
20
-3.99814
11
5.76971
21
-3.99795
0
LINE
8
BLACK
6
CONTINUOUS
10
5.76971
20
-3.99795
11
5.76891
21
-3.99742
0
LINE
8
BLACK
6
CONTINUOUS
10
5.76891
20
-3.99742
11
5.76838
21
-3.99662
0
LINE
8
BLACK
6
CONTINUOUS
10
5.76838
20
-3.99662
11
5.76819
21
-3.99568
0
LINE
8
BLACK
6
CONTINUOUS
10
5.76819
20
-3.99568
11
5.76819
21
-3.99076
0
LINE
8
BLACK
6
CONTINUOUS
10
5.76819
20
-3.99076
11
5.76838
21
-3.98981
0
LINE
8
BLACK
6
CONTINUOUS
10
5.76838
20
-3.98981
11
5.76891
21
-3.98902
0
LINE
8
BLACK
6
CONTINUOUS
10
5.76891
20
-3.98902
11
5.76971
21
-3.98848
0
LINE
8
BLACK
6
CONTINUOUS
10
5.76971
20
-3.98848
11
5.77065
21
-3.98829
0
LINE
8
BLACK
6
CONTINUOUS
10
5.77065
20
-3.98829
11
5.79919
21
-3.98829
0
LINE
8
BLACK
6
CONTINUOUS
10
5.79919
20
-3.98829
11
5.80014
21
-3.98848
0
LINE
8
BLACK
6
CONTINUOUS
10
6.03242
20
-3.98848
11
6.03322
21
-3.98902
0
LINE
8
BLACK
6
CONTINUOUS
10
6.03322
20
-3.98902
11
6.03375
21
-3.98981
0
LINE
8
BLACK
6
CONTINUOUS
10
6.03375
20
-3.98981
11
6.03394
21
-3.99076
0
LINE
8
BLACK
6
CONTINUOUS
10
6.03394
20
-3.99076
11
6.03394
21
-3.99568
0
LINE
8
BLACK
6
CONTINUOUS
10
6.03394
20
-3.99568
11
6.03375
21
-3.99662
0
LINE
8
BLACK
6
CONTINUOUS
10
6.03375
20
-3.99662
11
6.03322
21
-3.99742
0
LINE
8
BLACK
6
CONTINUOUS
10
6.03322
20
-3.99742
11
6.03242
21
-3.99795
0
LINE
8
BLACK
6
CONTINUOUS
10
6.03242
20
-3.99795
11
6.03148
21
-3.99814
0
LINE
8
BLACK
6
CONTINUOUS
10
6.03148
20
-3.99814
11
6.00293
21
-3.99814
0
LINE
8
BLACK
6
CONTINUOUS
10
6.00293
20
-3.99814
11
6.00199
21
-3.99795
0
LINE
8
BLACK
6
CONTINUOUS
10
6.00199
20
-3.99795
11
6.0012
21
-3.99742
0
LINE
8
BLACK
6
CONTINUOUS
10
6.0012
20
-3.99742
11
6.00066
21
-3.99662
0
LINE
8
BLACK
6
CONTINUOUS
10
6.00066
20
-3.99662
11
6.00047
21
-3.99568
0
LINE
8
BLACK
6
CONTINUOUS
10
6.00047
20
-3.99568
11
6.00047
21
-3.99076
0
LINE
8
BLACK
6
CONTINUOUS
10
6.00047
20
-3.99076
11
6.00066
21
-3.98981
0
LINE
8
BLACK
6
CONTINUOUS
10
6.00066
20
-3.98981
11
6.0012
21
-3.98902
0
LINE
8
BLACK
6
CONTINUOUS
10
6.0012
20
-3.98902
11
6.00199
21
-3.98848
0
LINE
8
BLACK
6
CONTINUOUS
10
6.00199
20
-3.98848
11
6.00293
21
-3.98829
0
LINE
8
BLACK
6
CONTINUOUS
10
6.00293
20
-3.98829
11
6.03148
21
-3.98829
0
LINE
8
BLACK
6
CONTINUOUS
10
6.03148
20
-3.98829
11
6.03242
21
-3.98848
0
LINE
8
BLACK
6
CONTINUOUS
10
5.21106
20
-3.98306
11
5.13106
21
-3.98306
0
LINE
8
BLACK
6
CONTINUOUS
10
5.13106
20
-3.98306
11
5.13106
21
-3.94306
0
LINE
8
BLACK
6
CONTINUOUS
10
5.13106
20
-3.94306
11
5.21106
21
-3.94306
0
LINE
8
BLACK
6
CONTINUOUS
10
5.21106
20
-3.94306
11
5.21106
21
-3.98306
0
LINE
8
BLACK
6
CONTINUOUS
10
5.80014
20
-3.9688
11
5.80093
21
-3.96933
0
LINE
8
BLACK
6
CONTINUOUS
10
5.80093
20
-3.96933
11
5.80147
21
-3.97013
0
LINE
8
BLACK
6
CONTINUOUS
10
5.80147
20
-3.97013
11
5.80166
21
-3.97107
0
LINE
8
BLACK
6
CONTINUOUS
10
5.80166
20
-3.97107
11
5.80166
21
-3.97599
0
LINE
8
BLACK
6
CONTINUOUS
10
5.80166
20
-3.97599
11
5.80147
21
-3.97693
0
LINE
8
BLACK
6
CONTINUOUS
10
5.80147
20
-3.97693
11
5.80093
21
-3.97773
0
LINE
8
BLACK
6
CONTINUOUS
10
5.80093
20
-3.97773
11
5.80014
21
-3.97826
0
LINE
8
BLACK
6
CONTINUOUS
10
5.80014
20
-3.97826
11
5.79919
21
-3.97845
0
LINE
8
BLACK
6
CONTINUOUS
10
5.79919
20
-3.97845
11
5.77065
21
-3.97845
0
LINE
8
BLACK
6
CONTINUOUS
10
5.77065
20
-3.97845
11
5.76971
21
-3.97826
0
LINE
8
BLACK
6
CONTINUOUS
10
5.76971
20
-3.97826
11
5.76891
21
-3.97773
0
LINE
8
BLACK
6
CONTINUOUS
10
5.76891
20
-3.97773
11
5.76838
21
-3.97693
0
LINE
8
BLACK
6
CONTINUOUS
10
5.76838
20
-3.97693
11
5.76819
21
-3.97599
0
LINE
8
BLACK
6
CONTINUOUS
10
5.76819
20
-3.97599
11
5.76819
21
-3.97107
0
LINE
8
BLACK
6
CONTINUOUS
10
5.76819
20
-3.97107
11
5.76838
21
-3.97013
0
LINE
8
BLACK
6
CONTINUOUS
10
5.76838
20
-3.97013
11
5.76891
21
-3.96933
0
LINE
8
BLACK
6
CONTINUOUS
10
5.76891
20
-3.96933
11
5.76971
21
-3.9688
0
LINE
8
BLACK
6
CONTINUOUS
10
5.76971
20
-3.9688
11
5.77065
21
-3.96861
0
LINE
8
BLACK
6
CONTINUOUS
10
5.77065
20
-3.96861
11
5.79919
21
-3.96861
0
LINE
8
BLACK
6
CONTINUOUS
10
5.79919
20
-3.96861
11
5.80014
21
-3.9688
0
LINE
8
BLACK
6
CONTINUOUS
10
6.03242
20
-3.9688
11
6.03322
21
-3.96933
0
LINE
8
BLACK
6
CONTINUOUS
10
6.03322
20
-3.96933
11
6.03375
21
-3.97013
0
LINE
8
BLACK
6
CONTINUOUS
10
6.03375
20
-3.97013
11
6.03394
21
-3.97107
0
LINE
8
BLACK
6
CONTINUOUS
10
6.03394
20
-3.97107
11
6.03394
21
-3.97599
0
LINE
8
BLACK
6
CONTINUOUS
10
6.03394
20
-3.97599
11
6.03375
21
-3.97693
0
LINE
8
BLACK
6
CONTINUOUS
10
6.03375
20
-3.97693
11
6.03322
21
-3.97773
0
LINE
8
BLACK
6
CONTINUOUS
10
6.03322
20
-3.97773
11
6.03242
21
-3.97826
0
LINE
8
BLACK
6
CONTINUOUS
10
6.03242
20
-3.97826
11
6.03148
21
-3.97845
0
LINE
8
BLACK
6
CONTINUOUS
10
6.03148
20
-3.97845
11
6.00293
21
-3.97845
0
LINE
8
BLACK
6
CONTINUOUS
10
6.00293
20
-3.97845
11
6.00199
21
-3.97826
0
LINE
8
BLACK
6
CONTINUOUS
10
6.00199
20
-3.97826
11
6.0012
21
-3.97773
0
LINE
8
BLACK
6
CONTINUOUS
10
6.0012
20
-3.97773
11
6.00066
21
-3.97693
0
LINE
8
BLACK
6
CONTINUOUS
10
6.00066
20
-3.97693
11
6.00047
21
-3.97599
0
LINE
8
BLACK
6
CONTINUOUS
10
6.00047
20
-3.97599
11
6.00047
21
-3.97107
0
LINE
8
BLACK
6
CONTINUOUS
10
6.00047
20
-3.97107
11
6.00066
21
-3.97013
0
LINE
8
BLACK
6
CONTINUOUS
10
6.00066
20
-3.97013
11
6.0012
21
-3.96933
0
LINE
8
BLACK
6
CONTINUOUS
10
6.0012
20
-3.96933
11
6.00199
21
-3.9688
0
LINE
8
BLACK
6
CONTINUOUS
10
6.00199
20
-3.9688
11
6.00293
21
-3.96861
0
LINE
8
BLACK
6
CONTINUOUS
10
6.00293
20
-3.96861
11
6.03148
21
-3.96861
0
LINE
8
BLACK
6
CONTINUOUS
10
6.03148
20
-3.96861
11
6.03242
21
-3.9688
0
LINE
8
BLACK
6
CONTINUOUS
10
5.80014
20
-3.94911
11
5.80093
21
-3.94965
0
LINE
8
BLACK
6
CONTINUOUS
10
5.80093
20
-3.94965
11
5.80147
21
-3.95044
0
LINE
8
BLACK
6
CONTINUOUS
10
5.80147
20
-3.95044
11
5.80166
21
-3.95139
0
LINE
8
BLACK
6
CONTINUOUS
10
5.80166
20
-3.95139
11
5.80166
21
-3.95631
0
LINE
8
BLACK
6
CONTINUOUS
10
5.80166
20
-3.95631
11
5.80147
21
-3.95725
0
LINE
8
BLACK
6
CONTINUOUS
10
5.80147
20
-3.95725
11
5.80093
21
-3.95805
0
LINE
8
BLACK
6
CONTINUOUS
10
5.80093
20
-3.95805
11
5.80014
21
-3.95858
0
LINE
8
BLACK
6
CONTINUOUS
10
5.80014
20
-3.95858
11
5.79919
21
-3.95877
0
LINE
8
BLACK
6
CONTINUOUS
10
5.79919
20
-3.95877
11
5.77065
21
-3.95877
0
LINE
8
BLACK
6
CONTINUOUS
10
5.77065
20
-3.95877
11
5.76971
21
-3.95858
0
LINE
8
BLACK
6
CONTINUOUS
10
5.76971
20
-3.95858
11
5.76891
21
-3.95805
0
LINE
8
BLACK
6
CONTINUOUS
10
5.76891
20
-3.95805
11
5.76838
21
-3.95725
0
LINE
8
BLACK
6
CONTINUOUS
10
5.76838
20
-3.95725
11
5.76819
21
-3.95631
0
LINE
8
BLACK
6
CONTINUOUS
10
5.76819
20
-3.95631
11
5.76819
21
-3.95139
0
LINE
8
BLACK
6
CONTINUOUS
10
5.76819
20
-3.95139
11
5.76838
21
-3.95044
0
LINE
8
BLACK
6
CONTINUOUS
10
5.76838
20
-3.95044
11
5.76891
21
-3.94965
0
LINE
8
BLACK
6
CONTINUOUS
10
5.76891
20
-3.94965
11
5.76971
21
-3.94911
0
LINE
8
BLACK
6
CONTINUOUS
10
5.76971
20
-3.94911
11
5.77065
21
-3.94892
0
LINE
8
BLACK
6
CONTINUOUS
10
5.77065
20
-3.94892
11
5.79919
21
-3.94892
0
LINE
8
BLACK
6
CONTINUOUS
10
5.79919
20
-3.94892
11
5.80014
21
-3.94911
0
LINE
8
BLACK
6
CONTINUOUS
10
6.03242
20
-3.94911
11
6.03322
21
-3.94965
0
LINE
8
BLACK
6
CONTINUOUS
10
6.03322
20
-3.94965
11
6.03375
21
-3.95044
0
LINE
8
BLACK
6
CONTINUOUS
10
6.03375
20
-3.95044
11
6.03394
21
-3.95139
0
LINE
8
BLACK
6
CONTINUOUS
10
6.03394
20
-3.95139
11
6.03394
21
-3.95631
0
LINE
8
BLACK
6
CONTINUOUS
10
6.03394
20
-3.95631
11
6.03375
21
-3.95725
0
LINE
8
BLACK
6
CONTINUOUS
10
6.03375
20
-3.95725
11
6.03322
21
-3.95805
0
LINE
8
BLACK
6
CONTINUOUS
10
6.03322
20
-3.95805
11
6.03242
21
-3.95858
0
LINE
8
BLACK
6
CONTINUOUS
10
6.03242
20
-3.95858
11
6.03148
21
-3.95877
0
LINE
8
BLACK
6
CONTINUOUS
10
6.03148
20
-3.95877
11
6.00293
21
-3.95877
0
LINE
8
BLACK
6
CONTINUOUS
10
6.00293
20
-3.95877
11
6.00199
21
-3.95858
0
LINE
8
BLACK
6
CONTINUOUS
10
6.00199
20
-3.95858
11
6.0012
21
-3.95805
0
LINE
8
BLACK
6
CONTINUOUS
10
6.0012
20
-3.95805
11
6.00066
21
-3.95725
0
LINE
8
BLACK
6
CONTINUOUS
10
6.00066
20
-3.95725
11
6.00047
21
-3.95631
0
LINE
8
BLACK
6
CONTINUOUS
10
6.00047
20
-3.95631
11
6.00047
21
-3.95139
0
LINE
8
BLACK
6
CONTINUOUS
10
6.00047
20
-3.95139
11
6.00066
21
-3.95044
0
LINE
8
BLACK
6
CONTINUOUS
10
6.00066
20
-3.95044
11
6.0012
21
-3.94965
0
LINE
8
BLACK
6
CONTINUOUS
10
6.0012
20
-3.94965
11
6.00199
21
-3.94911
0
LINE
8
BLACK
6
CONTINUOUS
10
6.00199
20
-3.94911
11
6.00293
21
-3.94892
0
LINE
8
BLACK
6
CONTINUOUS
10
6.00293
20
-3.94892
11
6.03148
21
-3.94892
0
LINE
8
BLACK
6
CONTINUOUS
10
6.03148
20
-3.94892
11
6.03242
21
-3.94911
0
LINE
8
BLACK
6
CONTINUOUS
10
5.62856
20
-3.95806
11
5.57356
21
-3.95806
0
LINE
8
BLACK
6
CONTINUOUS
10
5.57356
20
-3.95806
11
5.57356
21
-3.92306
0
LINE
8
BLACK
6
CONTINUOUS
10
5.57356
20
-3.92306
11
5.62856
21
-3.92306
0
LINE
8
BLACK
6
CONTINUOUS
10
5.62856
20
-3.92306
11
5.62856
21
-3.95806
0
LINE
8
BLACK
6
CONTINUOUS
10
6.31106
20
-3.94656
11
6.27606
21
-3.94656
0
LINE
8
BLACK
6
CONTINUOUS
10
6.27606
20
-3.94656
11
6.27606
21
-3.89156
0
LINE
8
BLACK
6
CONTINUOUS
10
6.27606
20
-3.89156
11
6.31106
21
-3.89156
0
LINE
8
BLACK
6
CONTINUOUS
10
6.31106
20
-3.89156
11
6.31106
21
-3.94656
0
LINE
8
BLACK
6
CONTINUOUS
10
6.38606
20
-3.94656
11
6.35106
21
-3.94656
0
LINE
8
BLACK
6
CONTINUOUS
10
6.35106
20
-3.94656
11
6.35106
21
-3.89156
0
LINE
8
BLACK
6
CONTINUOUS
10
6.35106
20
-3.89156
11
6.38606
21
-3.89156
0
LINE
8
BLACK
6
CONTINUOUS
10
6.38606
20
-3.89156
11
6.38606
21
-3.94656
0
LINE
8
BLACK
6
CONTINUOUS
10
6.46106
20
-3.94656
11
6.42606
21
-3.94656
0
LINE
8
BLACK
6
CONTINUOUS
10
6.42606
20
-3.94656
11
6.42606
21
-3.89156
0
LINE
8
BLACK
6
CONTINUOUS
10
6.42606
20
-3.89156
11
6.46106
21
-3.89156
0
LINE
8
BLACK
6
CONTINUOUS
10
6.46106
20
-3.89156
11
6.46106
21
-3.94656
0
LINE
8
BLACK
6
CONTINUOUS
10
6.53606
20
-3.94656
11
6.50106
21
-3.94656
0
LINE
8
BLACK
6
CONTINUOUS
10
6.50106
20
-3.94656
11
6.50106
21
-3.89156
0
LINE
8
BLACK
6
CONTINUOUS
10
6.50106
20
-3.89156
11
6.53606
21
-3.89156
0
LINE
8
BLACK
6
CONTINUOUS
10
6.53606
20
-3.89156
11
6.53606
21
-3.94656
0
LINE
8
BLACK
6
CONTINUOUS
10
6.61106
20
-3.94656
11
6.57606
21
-3.94656
0
LINE
8
BLACK
6
CONTINUOUS
10
6.57606
20
-3.94656
11
6.57606
21
-3.89156
0
LINE
8
BLACK
6
CONTINUOUS
10
6.57606
20
-3.89156
11
6.61106
21
-3.89156
0
LINE
8
BLACK
6
CONTINUOUS
10
6.61106
20
-3.89156
11
6.61106
21
-3.94656
0
LINE
8
BLACK
6
CONTINUOUS
10
6.68606
20
-3.94656
11
6.65106
21
-3.94656
0
LINE
8
BLACK
6
CONTINUOUS
10
6.65106
20
-3.94656
11
6.65106
21
-3.89156
0
LINE
8
BLACK
6
CONTINUOUS
10
6.65106
20
-3.89156
11
6.68606
21
-3.89156
0
LINE
8
BLACK
6
CONTINUOUS
10
6.68606
20
-3.89156
11
6.68606
21
-3.94656
0
LINE
8
BLACK
6
CONTINUOUS
10
6.75606
20
-3.94556
11
6.72106
21
-3.94556
0
LINE
8
BLACK
6
CONTINUOUS
10
6.72106
20
-3.94556
11
6.72106
21
-3.89056
0
LINE
8
BLACK
6
CONTINUOUS
10
6.72106
20
-3.89056
11
6.75606
21
-3.89056
0
LINE
8
BLACK
6
CONTINUOUS
10
6.75606
20
-3.89056
11
6.75606
21
-3.94556
0
LINE
8
BLACK
6
CONTINUOUS
10
6.83106
20
-3.94556
11
6.79606
21
-3.94556
0
LINE
8
BLACK
6
CONTINUOUS
10
6.79606
20
-3.94556
11
6.79606
21
-3.89056
0
LINE
8
BLACK
6
CONTINUOUS
10
6.79606
20
-3.89056
11
6.83106
21
-3.89056
0
LINE
8
BLACK
6
CONTINUOUS
10
6.83106
20
-3.89056
11
6.83106
21
-3.94556
0
LINE
8
BLACK
6
CONTINUOUS
10
5.80014
20
-3.92943
11
5.80093
21
-3.92996
0
LINE
8
BLACK
6
CONTINUOUS
10
5.80093
20
-3.92996
11
5.80147
21
-3.93076
0
LINE
8
BLACK
6
CONTINUOUS
10
5.80147
20
-3.93076
11
5.80166
21
-3.9317
0
LINE
8
BLACK
6
CONTINUOUS
10
5.80166
20
-3.9317
11
5.80166
21
-3.93662
0
LINE
8
BLACK
6
CONTINUOUS
10
5.80166
20
-3.93662
11
5.80147
21
-3.93756
0
LINE
8
BLACK
6
CONTINUOUS
10
5.80147
20
-3.93756
11
5.80093
21
-3.93836
0
LINE
8
BLACK
6
CONTINUOUS
10
5.80093
20
-3.93836
11
5.80014
21
-3.93889
0
LINE
8
BLACK
6
CONTINUOUS
10
5.80014
20
-3.93889
11
5.79919
21
-3.93908
0
LINE
8
BLACK
6
CONTINUOUS
10
5.79919
20
-3.93908
11
5.77065
21
-3.93908
0
LINE
8
BLACK
6
CONTINUOUS
10
5.77065
20
-3.93908
11
5.76971
21
-3.93889
0
LINE
8
BLACK
6
CONTINUOUS
10
5.76971
20
-3.93889
11
5.76891
21
-3.93836
0
LINE
8
BLACK
6
CONTINUOUS
10
5.76891
20
-3.93836
11
5.76838
21
-3.93756
0
LINE
8
BLACK
6
CONTINUOUS
10
5.76838
20
-3.93756
11
5.76819
21
-3.93662
0
LINE
8
BLACK
6
CONTINUOUS
10
5.76819
20
-3.93662
11
5.76819
21
-3.9317
0
LINE
8
BLACK
6
CONTINUOUS
10
5.76819
20
-3.9317
11
5.76838
21
-3.93076
0
LINE
8
BLACK
6
CONTINUOUS
10
5.76838
20
-3.93076
11
5.76891
21
-3.92996
0
LINE
8
BLACK
6
CONTINUOUS
10
5.76891
20
-3.92996
11
5.76971
21
-3.92943
0
LINE
8
BLACK
6
CONTINUOUS
10
5.76971
20
-3.92943
11
5.77065
21
-3.92924
0
LINE
8
BLACK
6
CONTINUOUS
10
5.77065
20
-3.92924
11
5.79919
21
-3.92924
0
LINE
8
BLACK
6
CONTINUOUS
10
5.79919
20
-3.92924
11
5.80014
21
-3.92943
0
LINE
8
BLACK
6
CONTINUOUS
10
6.03242
20
-3.92943
11
6.03322
21
-3.92996
0
LINE
8
BLACK
6
CONTINUOUS
10
6.03322
20
-3.92996
11
6.03375
21
-3.93076
0
LINE
8
BLACK
6
CONTINUOUS
10
6.03375
20
-3.93076
11
6.03394
21
-3.9317
0
LINE
8
BLACK
6
CONTINUOUS
10
6.03394
20
-3.9317
11
6.03394
21
-3.93662
0
LINE
8
BLACK
6
CONTINUOUS
10
6.03394
20
-3.93662
11
6.03375
21
-3.93756
0
LINE
8
BLACK
6
CONTINUOUS
10
6.03375
20
-3.93756
11
6.03322
21
-3.93836
0
LINE
8
BLACK
6
CONTINUOUS
10
6.03322
20
-3.93836
11
6.03242
21
-3.93889
0
LINE
8
BLACK
6
CONTINUOUS
10
6.03242
20
-3.93889
11
6.03148
21
-3.93908
0
LINE
8
BLACK
6
CONTINUOUS
10
6.03148
20
-3.93908
11
6.00293
21
-3.93908
0
LINE
8
BLACK
6
CONTINUOUS
10
6.00293
20
-3.93908
11
6.00199
21
-3.93889
0
LINE
8
BLACK
6
CONTINUOUS
10
6.00199
20
-3.93889
11
6.0012
21
-3.93836
0
LINE
8
BLACK
6
CONTINUOUS
10
6.0012
20
-3.93836
11
6.00066
21
-3.93756
0
LINE
8
BLACK
6
CONTINUOUS
10
6.00066
20
-3.93756
11
6.00047
21
-3.93662
0
LINE
8
BLACK
6
CONTINUOUS
10
6.00047
20
-3.93662
11
6.00047
21
-3.9317
0
LINE
8
BLACK
6
CONTINUOUS
10
6.00047
20
-3.9317
11
6.00066
21
-3.93076
0
LINE
8
BLACK
6
CONTINUOUS
10
6.00066
20
-3.93076
11
6.0012
21
-3.92996
0
LINE
8
BLACK
6
CONTINUOUS
10
6.0012
20
-3.92996
11
6.00199
21
-3.92943
0
LINE
8
BLACK
6
CONTINUOUS
10
6.00199
20
-3.92943
11
6.00293
21
-3.92924
0
LINE
8
BLACK
6
CONTINUOUS
10
6.00293
20
-3.92924
11
6.03148
21
-3.92924
0
LINE
8
BLACK
6
CONTINUOUS
10
6.03148
20
-3.92924
11
6.03242
21
-3.92943
0
LINE
8
BLACK
6
CONTINUOUS
10
6.22856
20
-3.93306
11
6.17356
21
-3.93306
0
LINE
8
BLACK
6
CONTINUOUS
10
6.17356
20
-3.93306
11
6.17356
21
-3.89806
0
LINE
8
BLACK
6
CONTINUOUS
10
6.17356
20
-3.89806
11
6.22856
21
-3.89806
0
LINE
8
BLACK
6
CONTINUOUS
10
6.22856
20
-3.89806
11
6.22856
21
-3.93306
0
LINE
8
BLACK
6
CONTINUOUS
10
6.93529
20
-3.82572
11
6.94424
21
-3.82811
0
LINE
8
BLACK
6
CONTINUOUS
10
6.94424
20
-3.82811
11
6.95264
21
-3.83203
0
LINE
8
BLACK
6
CONTINUOUS
10
6.95264
20
-3.83203
11
6.96023
21
-3.83734
0
LINE
8
BLACK
6
CONTINUOUS
10
6.96023
20
-3.83734
11
6.96678
21
-3.84389
0
LINE
8
BLACK
6
CONTINUOUS
10
6.96678
20
-3.84389
11
6.97209
21
-3.85148
0
LINE
8
BLACK
6
CONTINUOUS
10
6.97209
20
-3.85148
11
6.97601
21
-3.85988
0
LINE
8
BLACK
6
CONTINUOUS
10
6.97601
20
-3.85988
11
6.97841
21
-3.86883
0
LINE
8
BLACK
6
CONTINUOUS
10
6.97841
20
-3.86883
11
6.97921
21
-3.87806
0
LINE
8
BLACK
6
CONTINUOUS
10
6.97921
20
-3.87806
11
6.97841
21
-3.88729
0
LINE
8
BLACK
6
CONTINUOUS
10
6.97841
20
-3.88729
11
6.97601
21
-3.89624
0
LINE
8
BLACK
6
CONTINUOUS
10
6.97601
20
-3.89624
11
6.97209
21
-3.90463
0
LINE
8
BLACK
6
CONTINUOUS
10
6.97209
20
-3.90463
11
6.96678
21
-3.91222
0
LINE
8
BLACK
6
CONTINUOUS
10
6.96678
20
-3.91222
11
6.96023
21
-3.91877
0
LINE
8
BLACK
6
CONTINUOUS
10
6.96023
20
-3.91877
11
6.95264
21
-3.92409
0
LINE
8
BLACK
6
CONTINUOUS
10
6.95264
20
-3.92409
11
6.94424
21
-3.928
0
LINE
8
BLACK
6
CONTINUOUS
10
6.94424
20
-3.928
11
6.93529
21
-3.9304
0
LINE
8
BLACK
6
CONTINUOUS
10
6.93529
20
-3.9304
11
6.92606
21
-3.93121
0
LINE
8
BLACK
6
CONTINUOUS
10
6.92606
20
-3.93121
11
6.91684
21
-3.9304
0
LINE
8
BLACK
6
CONTINUOUS
10
6.91684
20
-3.9304
11
6.90789
21
-3.928
0
LINE
8
BLACK
6
CONTINUOUS
10
6.90789
20
-3.928
11
6.89949
21
-3.92409
0
LINE
8
BLACK
6
CONTINUOUS
10
6.89949
20
-3.92409
11
6.8919
21
-3.91877
0
LINE
8
BLACK
6
CONTINUOUS
10
6.8919
20
-3.91877
11
6.88535
21
-3.91222
0
LINE
8
BLACK
6
CONTINUOUS
10
6.88535
20
-3.91222
11
6.88004
21
-3.90463
0
LINE
8
BLACK
6
CONTINUOUS
10
6.88004
20
-3.90463
11
6.87612
21
-3.89624
0
LINE
8
BLACK
6
CONTINUOUS
10
6.87612
20
-3.89624
11
6.87372
21
-3.88729
0
LINE
8
BLACK
6
CONTINUOUS
10
6.87372
20
-3.88729
11
6.87292
21
-3.87806
0
LINE
8
BLACK
6
CONTINUOUS
10
6.87292
20
-3.87806
11
6.87372
21
-3.86883
0
LINE
8
BLACK
6
CONTINUOUS
10
6.87372
20
-3.86883
11
6.87612
21
-3.85988
0
LINE
8
BLACK
6
CONTINUOUS
10
6.87612
20
-3.85988
11
6.88004
21
-3.85148
0
LINE
8
BLACK
6
CONTINUOUS
10
6.88004
20
-3.85148
11
6.88535
21
-3.84389
0
LINE
8
BLACK
6
CONTINUOUS
10
6.88535
20
-3.84389
11
6.8919
21
-3.83734
0
LINE
8
BLACK
6
CONTINUOUS
10
6.8919
20
-3.83734
11
6.89949
21
-3.83203
0
LINE
8
BLACK
6
CONTINUOUS
10
6.89949
20
-3.83203
11
6.90789
21
-3.82811
0
LINE
8
BLACK
6
CONTINUOUS
10
6.90789
20
-3.82811
11
6.91684
21
-3.82572
0
LINE
8
BLACK
6
CONTINUOUS
10
6.91684
20
-3.82572
11
6.92606
21
-3.82491
0
LINE
8
BLACK
6
CONTINUOUS
10
6.92606
20
-3.82491
11
6.93529
21
-3.82572
0
LINE
8
BLACK
6
CONTINUOUS
10
7.13529
20
-3.82572
11
7.14424
21
-3.82811
0
LINE
8
BLACK
6
CONTINUOUS
10
7.14424
20
-3.82811
11
7.15264
21
-3.83203
0
LINE
8
BLACK
6
CONTINUOUS
10
7.15264
20
-3.83203
11
7.16023
21
-3.83734
0
LINE
8
BLACK
6
CONTINUOUS
10
7.16023
20
-3.83734
11
7.16678
21
-3.84389
0
LINE
8
BLACK
6
CONTINUOUS
10
7.16678
20
-3.84389
11
7.17209
21
-3.85148
0
LINE
8
BLACK
6
CONTINUOUS
10
7.17209
20
-3.85148
11
7.17601
21
-3.85988
0
LINE
8
BLACK
6
CONTINUOUS
10
7.17601
20
-3.85988
11
7.17841
21
-3.86883
0
LINE
8
BLACK
6
CONTINUOUS
10
7.17841
20
-3.86883
11
7.17921
21
-3.87806
0
LINE
8
BLACK
6
CONTINUOUS
10
7.17921
20
-3.87806
11
7.17841
21
-3.88729
0
LINE
8
BLACK
6
CONTINUOUS
10
7.17841
20
-3.88729
11
7.17601
21
-3.89624
0
LINE
8
BLACK
6
CONTINUOUS
10
7.17601
20
-3.89624
11
7.17209
21
-3.90463
0
LINE
8
BLACK
6
CONTINUOUS
10
7.17209
20
-3.90463
11
7.16678
21
-3.91222
0
LINE
8
BLACK
6
CONTINUOUS
10
7.16678
20
-3.91222
11
7.16023
21
-3.91877
0
LINE
8
BLACK
6
CONTINUOUS
10
7.16023
20
-3.91877
11
7.15264
21
-3.92409
0
LINE
8
BLACK
6
CONTINUOUS
10
7.15264
20
-3.92409
11
7.14424
21
-3.928
0
LINE
8
BLACK
6
CONTINUOUS
10
7.14424
20
-3.928
11
7.13529
21
-3.9304
0
LINE
8
BLACK
6
CONTINUOUS
10
7.13529
20
-3.9304
11
7.12606
21
-3.93121
0
LINE
8
BLACK
6
CONTINUOUS
10
7.12606
20
-3.93121
11
7.11684
21
-3.9304
0
LINE
8
BLACK
6
CONTINUOUS
10
7.11684
20
-3.9304
11
7.10789
21
-3.928
0
LINE
8
BLACK
6
CONTINUOUS
10
7.10789
20
-3.928
11
7.09949
21
-3.92409
0
LINE
8
BLACK
6
CONTINUOUS
10
7.09949
20
-3.92409
11
7.0919
21
-3.91877
0
LINE
8
BLACK
6
CONTINUOUS
10
7.0919
20
-3.91877
11
7.08535
21
-3.91222
0
LINE
8
BLACK
6
CONTINUOUS
10
7.08535
20
-3.91222
11
7.08004
21
-3.90463
0
LINE
8
BLACK
6
CONTINUOUS
10
7.08004
20
-3.90463
11
7.07612
21
-3.89624
0
LINE
8
BLACK
6
CONTINUOUS
10
7.07612
20
-3.89624
11
7.07372
21
-3.88729
0
LINE
8
BLACK
6
CONTINUOUS
10
7.07372
20
-3.88729
11
7.07292
21
-3.87806
0
LINE
8
BLACK
6
CONTINUOUS
10
7.07292
20
-3.87806
11
7.07372
21
-3.86883
0
LINE
8
BLACK
6
CONTINUOUS
10
7.07372
20
-3.86883
11
7.07612
21
-3.85988
0
LINE
8
BLACK
6
CONTINUOUS
10
7.07612
20
-3.85988
11
7.08004
21
-3.85148
0
LINE
8
BLACK
6
CONTINUOUS
10
7.08004
20
-3.85148
11
7.08535
21
-3.84389
0
LINE
8
BLACK
6
CONTINUOUS
10
7.08535
20
-3.84389
11
7.0919
21
-3.83734
0
LINE
8
BLACK
6
CONTINUOUS
10
7.0919
20
-3.83734
11
7.09949
21
-3.83203
0
LINE
8
BLACK
6
CONTINUOUS
10
7.09949
20
-3.83203
11
7.10789
21
-3.82811
0
LINE
8
BLACK
6
CONTINUOUS
10
7.10789
20
-3.82811
11
7.11684
21
-3.82572
0
LINE
8
BLACK
6
CONTINUOUS
10
7.11684
20
-3.82572
11
7.12606
21
-3.82491
0
LINE
8
BLACK
6
CONTINUOUS
10
7.12606
20
-3.82491
11
7.13529
21
-3.82572
0
LINE
8
BLACK
6
CONTINUOUS
10
5.81588
20
-3.89006
11
5.81668
21
-3.89059
0
LINE
8
BLACK
6
CONTINUOUS
10
5.81668
20
-3.89059
11
5.81722
21
-3.89139
0
LINE
8
BLACK
6
CONTINUOUS
10
5.81722
20
-3.89139
11
5.8174
21
-3.89233
0
LINE
8
BLACK
6
CONTINUOUS
10
5.8174
20
-3.89233
11
5.8174
21
-3.92087
0
LINE
8
BLACK
6
CONTINUOUS
10
5.8174
20
-3.92087
11
5.81722
21
-3.92182
0
LINE
8
BLACK
6
CONTINUOUS
10
5.81722
20
-3.92182
11
5.81668
21
-3.92261
0
LINE
8
BLACK
6
CONTINUOUS
10
5.81668
20
-3.92261
11
5.81588
21
-3.92315
0
LINE
8
BLACK
6
CONTINUOUS
10
5.81588
20
-3.92315
11
5.81494
21
-3.92333
0
LINE
8
BLACK
6
CONTINUOUS
10
5.81494
20
-3.92333
11
5.81002
21
-3.92333
0
LINE
8
BLACK
6
CONTINUOUS
10
5.81002
20
-3.92333
11
5.80908
21
-3.92315
0
LINE
8
BLACK
6
CONTINUOUS
10
5.80908
20
-3.92315
11
5.80828
21
-3.92261
0
LINE
8
BLACK
6
CONTINUOUS
10
5.80828
20
-3.92261
11
5.80775
21
-3.92182
0
LINE
8
BLACK
6
CONTINUOUS
10
5.80775
20
-3.92182
11
5.80756
21
-3.92087
0
LINE
8
BLACK
6
CONTINUOUS
10
5.80756
20
-3.92087
11
5.80756
21
-3.89233
0
LINE
8
BLACK
6
CONTINUOUS
10
5.80756
20
-3.89233
11
5.80775
21
-3.89139
0
LINE
8
BLACK
6
CONTINUOUS
10
5.80775
20
-3.89139
11
5.80828
21
-3.89059
0
LINE
8
BLACK
6
CONTINUOUS
10
5.80828
20
-3.89059
11
5.80908
21
-3.89006
0
LINE
8
BLACK
6
CONTINUOUS
10
5.80908
20
-3.89006
11
5.81002
21
-3.88987
0
LINE
8
BLACK
6
CONTINUOUS
10
5.81002
20
-3.88987
11
5.81494
21
-3.88987
0
LINE
8
BLACK
6
CONTINUOUS
10
5.81494
20
-3.88987
11
5.81588
21
-3.89006
0
LINE
8
BLACK
6
CONTINUOUS
10
5.83557
20
-3.89006
11
5.83637
21
-3.89059
0
LINE
8
BLACK
6
CONTINUOUS
10
5.83637
20
-3.89059
11
5.8369
21
-3.89139
0
LINE
8
BLACK
6
CONTINUOUS
10
5.8369
20
-3.89139
11
5.83709
21
-3.89233
0
LINE
8
BLACK
6
CONTINUOUS
10
5.83709
20
-3.89233
11
5.83709
21
-3.92087
0
LINE
8
BLACK
6
CONTINUOUS
10
5.83709
20
-3.92087
11
5.8369
21
-3.92182
0
LINE
8
BLACK
6
CONTINUOUS
10
5.8369
20
-3.92182
11
5.83637
21
-3.92261
0
LINE
8
BLACK
6
CONTINUOUS
10
5.83637
20
-3.92261
11
5.83557
21
-3.92315
0
LINE
8
BLACK
6
CONTINUOUS
10
5.83557
20
-3.92315
11
5.83463
21
-3.92333
0
LINE
8
BLACK
6
CONTINUOUS
10
5.83463
20
-3.92333
11
5.82971
21
-3.92333
0
LINE
8
BLACK
6
CONTINUOUS
10
5.82971
20
-3.92333
11
5.82876
21
-3.92315
0
LINE
8
BLACK
6
CONTINUOUS
10
5.82876
20
-3.92315
11
5.82797
21
-3.92261
0
LINE
8
BLACK
6
CONTINUOUS
10
5.82797
20
-3.92261
11
5.82743
21
-3.92182
0
LINE
8
BLACK
6
CONTINUOUS
10
5.82743
20
-3.92182
11
5.82725
21
-3.92087
0
LINE
8
BLACK
6
CONTINUOUS
10
5.82725
20
-3.92087
11
5.82725
21
-3.89233
0
LINE
8
BLACK
6
CONTINUOUS
10
5.82725
20
-3.89233
11
5.82743
21
-3.89139
0
LINE
8
BLACK
6
CONTINUOUS
10
5.82743
20
-3.89139
11
5.82797
21
-3.89059
0
LINE
8
BLACK
6
CONTINUOUS
10
5.82797
20
-3.89059
11
5.82876
21
-3.89006
0
LINE
8
BLACK
6
CONTINUOUS
10
5.82876
20
-3.89006
11
5.82971
21
-3.88987
0
LINE
8
BLACK
6
CONTINUOUS
10
5.82971
20
-3.88987
11
5.83463
21
-3.88987
0
LINE
8
BLACK
6
CONTINUOUS
10
5.83463
20
-3.88987
11
5.83557
21
-3.89006
0
LINE
8
BLACK
6
CONTINUOUS
10
5.85525
20
-3.89006
11
5.85605
21
-3.89059
0
LINE
8
BLACK
6
CONTINUOUS
10
5.85605
20
-3.89059
11
5.85659
21
-3.89139
0
LINE
8
BLACK
6
CONTINUOUS
10
5.85659
20
-3.89139
11
5.85677
21
-3.89233
0
LINE
8
BLACK
6
CONTINUOUS
10
5.85677
20
-3.89233
11
5.85677
21
-3.92087
0
LINE
8
BLACK
6
CONTINUOUS
10
5.85677
20
-3.92087
11
5.85659
21
-3.92182
0
LINE
8
BLACK
6
CONTINUOUS
10
5.85659
20
-3.92182
11
5.85605
21
-3.92261
0
LINE
8
BLACK
6
CONTINUOUS
10
5.85605
20
-3.92261
11
5.85525
21
-3.92315
0
LINE
8
BLACK
6
CONTINUOUS
10
5.85525
20
-3.92315
11
5.85431
21
-3.92333
0
LINE
8
BLACK
6
CONTINUOUS
10
5.85431
20
-3.92333
11
5.84939
21
-3.92333
0
LINE
8
BLACK
6
CONTINUOUS
10
5.84939
20
-3.92333
11
5.84845
21
-3.92315
0
LINE
8
BLACK
6
CONTINUOUS
10
5.84845
20
-3.92315
11
5.84765
21
-3.92261
0
LINE
8
BLACK
6
CONTINUOUS
10
5.84765
20
-3.92261
11
5.84712
21
-3.92182
0
LINE
8
BLACK
6
CONTINUOUS
10
5.84712
20
-3.92182
11
5.84693
21
-3.92087
0
LINE
8
BLACK
6
CONTINUOUS
10
5.84693
20
-3.92087
11
5.84693
21
-3.89233
0
LINE
8
BLACK
6
CONTINUOUS
10
5.84693
20
-3.89233
11
5.84712
21
-3.89139
0
LINE
8
BLACK
6
CONTINUOUS
10
5.84712
20
-3.89139
11
5.84765
21
-3.89059
0
LINE
8
BLACK
6
CONTINUOUS
10
5.84765
20
-3.89059
11
5.84845
21
-3.89006
0
LINE
8
BLACK
6
CONTINUOUS
10
5.84845
20
-3.89006
11
5.84939
21
-3.88987
0
LINE
8
BLACK
6
CONTINUOUS
10
5.84939
20
-3.88987
11
5.85431
21
-3.88987
0
LINE
8
BLACK
6
CONTINUOUS
10
5.85431
20
-3.88987
11
5.85525
21
-3.89006
0
LINE
8
BLACK
6
CONTINUOUS
10
5.87494
20
-3.89006
11
5.87574
21
-3.89059
0
LINE
8
BLACK
6
CONTINUOUS
10
5.87574
20
-3.89059
11
5.87627
21
-3.89139
0
LINE
8
BLACK
6
CONTINUOUS
10
5.87627
20
-3.89139
11
5.87646
21
-3.89233
0
LINE
8
BLACK
6
CONTINUOUS
10
5.87646
20
-3.89233
11
5.87646
21
-3.92087
0
LINE
8
BLACK
6
CONTINUOUS
10
5.87646
20
-3.92087
11
5.87627
21
-3.92182
0
LINE
8
BLACK
6
CONTINUOUS
10
5.87627
20
-3.92182
11
5.87574
21
-3.92261
0
LINE
8
BLACK
6
CONTINUOUS
10
5.87574
20
-3.92261
11
5.87494
21
-3.92315
0
LINE
8
BLACK
6
CONTINUOUS
10
5.87494
20
-3.92315
11
5.874
21
-3.92333
0
LINE
8
BLACK
6
CONTINUOUS
10
5.874
20
-3.92333
11
5.86908
21
-3.92333
0
LINE
8
BLACK
6
CONTINUOUS
10
5.86908
20
-3.92333
11
5.86813
21
-3.92315
0
LINE
8
BLACK
6
CONTINUOUS
10
5.86813
20
-3.92315
11
5.86734
21
-3.92261
0
LINE
8
BLACK
6
CONTINUOUS
10
5.86734
20
-3.92261
11
5.8668
21
-3.92182
0
LINE
8
BLACK
6
CONTINUOUS
10
5.8668
20
-3.92182
11
5.86662
21
-3.92087
0
LINE
8
BLACK
6
CONTINUOUS
10
5.86662
20
-3.92087
11
5.86662
21
-3.89233
0
LINE
8
BLACK
6
CONTINUOUS
10
5.86662
20
-3.89233
11
5.8668
21
-3.89139
0
LINE
8
BLACK
6
CONTINUOUS
10
5.8668
20
-3.89139
11
5.86734
21
-3.89059
0
LINE
8
BLACK
6
CONTINUOUS
10
5.86734
20
-3.89059
11
5.86813
21
-3.89006
0
LINE
8
BLACK
6
CONTINUOUS
10
5.86813
20
-3.89006
11
5.86908
21
-3.88987
0
LINE
8
BLACK
6
CONTINUOUS
10
5.86908
20
-3.88987
11
5.874
21
-3.88987
0
LINE
8
BLACK
6
CONTINUOUS
10
5.874
20
-3.88987
11
5.87494
21
-3.89006
0
LINE
8
BLACK
6
CONTINUOUS
10
5.89462
20
-3.89006
11
5.89542
21
-3.89059
0
LINE
8
BLACK
6
CONTINUOUS
10
5.89542
20
-3.89059
11
5.89596
21
-3.89139
0
LINE
8
BLACK
6
CONTINUOUS
10
5.89596
20
-3.89139
11
5.89614
21
-3.89233
0
LINE
8
BLACK
6
CONTINUOUS
10
5.89614
20
-3.89233
11
5.89614
21
-3.92087
0
LINE
8
BLACK
6
CONTINUOUS
10
5.89614
20
-3.92087
11
5.89596
21
-3.92182
0
LINE
8
BLACK
6
CONTINUOUS
10
5.89596
20
-3.92182
11
5.89542
21
-3.92261
0
LINE
8
BLACK
6
CONTINUOUS
10
5.89542
20
-3.92261
11
5.89462
21
-3.92315
0
LINE
8
BLACK
6
CONTINUOUS
10
5.89462
20
-3.92315
11
5.89368
21
-3.92333
0
LINE
8
BLACK
6
CONTINUOUS
10
5.89368
20
-3.92333
11
5.88876
21
-3.92333
0
LINE
8
BLACK
6
CONTINUOUS
10
5.88876
20
-3.92333
11
5.88782
21
-3.92315
0
LINE
8
BLACK
6
CONTINUOUS
10
5.88782
20
-3.92315
11
5.88702
21
-3.92261
0
LINE
8
BLACK
6
CONTINUOUS
10
5.88702
20
-3.92261
11
5.88649
21
-3.92182
0
LINE
8
BLACK
6
CONTINUOUS
10
5.88649
20
-3.92182
11
5.8863
21
-3.92087
0
LINE
8
BLACK
6
CONTINUOUS
10
5.8863
20
-3.92087
11
5.8863
21
-3.89233
0
LINE
8
BLACK
6
CONTINUOUS
10
5.8863
20
-3.89233
11
5.88649
21
-3.89139
0
LINE
8
BLACK
6
CONTINUOUS
10
5.88649
20
-3.89139
11
5.88702
21
-3.89059
0
LINE
8
BLACK
6
CONTINUOUS
10
5.88702
20
-3.89059
11
5.88782
21
-3.89006
0
LINE
8
BLACK
6
CONTINUOUS
10
5.88782
20
-3.89006
11
5.88876
21
-3.88987
0
LINE
8
BLACK
6
CONTINUOUS
10
5.88876
20
-3.88987
11
5.89368
21
-3.88987
0
LINE
8
BLACK
6
CONTINUOUS
10
5.89368
20
-3.88987
11
5.89462
21
-3.89006
0
LINE
8
BLACK
6
CONTINUOUS
10
5.91431
20
-3.89006
11
5.91511
21
-3.89059
0
LINE
8
BLACK
6
CONTINUOUS
10
5.91511
20
-3.89059
11
5.91564
21
-3.89139
0
LINE
8
BLACK
6
CONTINUOUS
10
5.91564
20
-3.89139
11
5.91583
21
-3.89233
0
LINE
8
BLACK
6
CONTINUOUS
10
5.91583
20
-3.89233
11
5.91583
21
-3.92087
0
LINE
8
BLACK
6
CONTINUOUS
10
5.91583
20
-3.92087
11
5.91564
21
-3.92182
0
LINE
8
BLACK
6
CONTINUOUS
10
5.91564
20
-3.92182
11
5.91511
21
-3.92261
0
LINE
8
BLACK
6
CONTINUOUS
10
5.91511
20
-3.92261
11
5.91431
21
-3.92315
0
LINE
8
BLACK
6
CONTINUOUS
10
5.91431
20
-3.92315
11
5.91337
21
-3.92333
0
LINE
8
BLACK
6
CONTINUOUS
10
5.91337
20
-3.92333
11
5.90845
21
-3.92333
0
LINE
8
BLACK
6
CONTINUOUS
10
5.90845
20
-3.92333
11
5.90751
21
-3.92315
0
LINE
8
BLACK
6
CONTINUOUS
10
5.90751
20
-3.92315
11
5.90671
21
-3.92261
0
LINE
8
BLACK
6
CONTINUOUS
10
5.90671
20
-3.92261
11
5.90617
21
-3.92182
0
LINE
8
BLACK
6
CONTINUOUS
10
5.90617
20
-3.92182
11
5.90599
21
-3.92087
0
LINE
8
BLACK
6
CONTINUOUS
10
5.90599
20
-3.92087
11
5.90599
21
-3.89233
0
LINE
8
BLACK
6
CONTINUOUS
10
5.90599
20
-3.89233
11
5.90617
21
-3.89139
0
LINE
8
BLACK
6
CONTINUOUS
10
5.90617
20
-3.89139
11
5.90671
21
-3.89059
0
LINE
8
BLACK
6
CONTINUOUS
10
5.90671
20
-3.89059
11
5.90751
21
-3.89006
0
LINE
8
BLACK
6
CONTINUOUS
10
5.90751
20
-3.89006
11
5.90845
21
-3.88987
0
LINE
8
BLACK
6
CONTINUOUS
10
5.90845
20
-3.88987
11
5.91337
21
-3.88987
0
LINE
8
BLACK
6
CONTINUOUS
10
5.91337
20
-3.88987
11
5.91431
21
-3.89006
0
LINE
8
BLACK
6
CONTINUOUS
10
5.93399
20
-3.89006
11
5.93479
21
-3.89059
0
LINE
8
BLACK
6
CONTINUOUS
10
5.93479
20
-3.89059
11
5.93533
21
-3.89139
0
LINE
8
BLACK
6
CONTINUOUS
10
5.93533
20
-3.89139
11
5.93551
21
-3.89233
0
LINE
8
BLACK
6
CONTINUOUS
10
5.93551
20
-3.89233
11
5.93551
21
-3.92087
0
LINE
8
BLACK
6
CONTINUOUS
10
5.93551
20
-3.92087
11
5.93533
21
-3.92182
0
LINE
8
BLACK
6
CONTINUOUS
10
5.93533
20
-3.92182
11
5.93479
21
-3.92261
0
LINE
8
BLACK
6
CONTINUOUS
10
5.93479
20
-3.92261
11
5.93399
21
-3.92315
0
LINE
8
BLACK
6
CONTINUOUS
10
5.93399
20
-3.92315
11
5.93305
21
-3.92333
0
LINE
8
BLACK
6
CONTINUOUS
10
5.93305
20
-3.92333
11
5.92813
21
-3.92333
0
LINE
8
BLACK
6
CONTINUOUS
10
5.92813
20
-3.92333
11
5.92719
21
-3.92315
0
LINE
8
BLACK
6
CONTINUOUS
10
5.92719
20
-3.92315
11
5.92639
21
-3.92261
0
LINE
8
BLACK
6
CONTINUOUS
10
5.92639
20
-3.92261
11
5.92586
21
-3.92182
0
LINE
8
BLACK
6
CONTINUOUS
10
5.92586
20
-3.92182
11
5.92567
21
-3.92087
0
LINE
8
BLACK
6
CONTINUOUS
10
5.92567
20
-3.92087
11
5.92567
21
-3.89233
0
LINE
8
BLACK
6
CONTINUOUS
10
5.92567
20
-3.89233
11
5.92586
21
-3.89139
0
LINE
8
BLACK
6
CONTINUOUS
10
5.92586
20
-3.89139
11
5.92639
21
-3.89059
0
LINE
8
BLACK
6
CONTINUOUS
10
5.92639
20
-3.89059
11
5.92719
21
-3.89006
0
LINE
8
BLACK
6
CONTINUOUS
10
5.92719
20
-3.89006
11
5.92813
21
-3.88987
0
LINE
8
BLACK
6
CONTINUOUS
10
5.92813
20
-3.88987
11
5.93305
21
-3.88987
0
LINE
8
BLACK
6
CONTINUOUS
10
5.93305
20
-3.88987
11
5.93399
21
-3.89006
0
LINE
8
BLACK
6
CONTINUOUS
10
5.95368
20
-3.89006
11
5.95448
21
-3.89059
0
LINE
8
BLACK
6
CONTINUOUS
10
5.95448
20
-3.89059
11
5.95501
21
-3.89139
0
LINE
8
BLACK
6
CONTINUOUS
10
5.95501
20
-3.89139
11
5.9552
21
-3.89233
0
LINE
8
BLACK
6
CONTINUOUS
10
5.9552
20
-3.89233
11
5.9552
21
-3.92087
0
LINE
8
BLACK
6
CONTINUOUS
10
5.9552
20
-3.92087
11
5.95501
21
-3.92182
0
LINE
8
BLACK
6
CONTINUOUS
10
5.95501
20
-3.92182
11
5.95448
21
-3.92261
0
LINE
8
BLACK
6
CONTINUOUS
10
5.95448
20
-3.92261
11
5.95368
21
-3.92315
0
LINE
8
BLACK
6
CONTINUOUS
10
5.95368
20
-3.92315
11
5.95274
21
-3.92333
0
LINE
8
BLACK
6
CONTINUOUS
10
5.95274
20
-3.92333
11
5.94782
21
-3.92333
0
LINE
8
BLACK
6
CONTINUOUS
10
5.94782
20
-3.92333
11
5.94688
21
-3.92315
0
LINE
8
BLACK
6
CONTINUOUS
10
5.94688
20
-3.92315
11
5.94608
21
-3.92261
0
LINE
8
BLACK
6
CONTINUOUS
10
5.94608
20
-3.92261
11
5.94554
21
-3.92182
0
LINE
8
BLACK
6
CONTINUOUS
10
5.94554
20
-3.92182
11
5.94536
21
-3.92087
0
LINE
8
BLACK
6
CONTINUOUS
10
5.94536
20
-3.92087
11
5.94536
21
-3.89233
0
LINE
8
BLACK
6
CONTINUOUS
10
5.94536
20
-3.89233
11
5.94554
21
-3.89139
0
LINE
8
BLACK
6
CONTINUOUS
10
5.94554
20
-3.89139
11
5.94608
21
-3.89059
0
LINE
8
BLACK
6
CONTINUOUS
10
5.94608
20
-3.89059
11
5.94688
21
-3.89006
0
LINE
8
BLACK
6
CONTINUOUS
10
5.94688
20
-3.89006
11
5.94782
21
-3.88987
0
LINE
8
BLACK
6
CONTINUOUS
10
5.94782
20
-3.88987
11
5.95274
21
-3.88987
0
LINE
8
BLACK
6
CONTINUOUS
10
5.95274
20
-3.88987
11
5.95368
21
-3.89006
0
LINE
8
BLACK
6
CONTINUOUS
10
5.97336
20
-3.89006
11
5.97416
21
-3.89059
0
LINE
8
BLACK
6
CONTINUOUS
10
5.97416
20
-3.89059
11
5.9747
21
-3.89139
0
LINE
8
BLACK
6
CONTINUOUS
10
5.9747
20
-3.89139
11
5.97488
21
-3.89233
0
LINE
8
BLACK
6
CONTINUOUS
10
5.97488
20
-3.89233
11
5.97488
21
-3.92087
0
LINE
8
BLACK
6
CONTINUOUS
10
5.97488
20
-3.92087
11
5.9747
21
-3.92182
0
LINE
8
BLACK
6
CONTINUOUS
10
5.9747
20
-3.92182
11
5.97416
21
-3.92261
0
LINE
8
BLACK
6
CONTINUOUS
10
5.97416
20
-3.92261
11
5.97336
21
-3.92315
0
LINE
8
BLACK
6
CONTINUOUS
10
5.97336
20
-3.92315
11
5.97242
21
-3.92333
0
LINE
8
BLACK
6
CONTINUOUS
10
5.97242
20
-3.92333
11
5.9675
21
-3.92333
0
LINE
8
BLACK
6
CONTINUOUS
10
5.9675
20
-3.92333
11
5.96656
21
-3.92315
0
LINE
8
BLACK
6
CONTINUOUS
10
5.96656
20
-3.92315
11
5.96576
21
-3.92261
0
LINE
8
BLACK
6
CONTINUOUS
10
5.96576
20
-3.92261
11
5.96523
21
-3.92182
0
LINE
8
BLACK
6
CONTINUOUS
10
5.96523
20
-3.92182
11
5.96504
21
-3.92087
0
LINE
8
BLACK
6
CONTINUOUS
10
5.96504
20
-3.92087
11
5.96504
21
-3.89233
0
LINE
8
BLACK
6
CONTINUOUS
10
5.96504
20
-3.89233
11
5.96523
21
-3.89139
0
LINE
8
BLACK
6
CONTINUOUS
10
5.96523
20
-3.89139
11
5.96576
21
-3.89059
0
LINE
8
BLACK
6
CONTINUOUS
10
5.96576
20
-3.89059
11
5.96656
21
-3.89006
0
LINE
8
BLACK
6
CONTINUOUS
10
5.96656
20
-3.89006
11
5.9675
21
-3.88987
0
LINE
8
BLACK
6
CONTINUOUS
10
5.9675
20
-3.88987
11
5.97242
21
-3.88987
0
LINE
8
BLACK
6
CONTINUOUS
10
5.97242
20
-3.88987
11
5.97336
21
-3.89006
0
LINE
8
BLACK
6
CONTINUOUS
10
5.99305
20
-3.89006
11
5.99385
21
-3.89059
0
LINE
8
BLACK
6
CONTINUOUS
10
5.99385
20
-3.89059
11
5.99438
21
-3.89139
0
LINE
8
BLACK
6
CONTINUOUS
10
5.99438
20
-3.89139
11
5.99457
21
-3.89233
0
LINE
8
BLACK
6
CONTINUOUS
10
5.99457
20
-3.89233
11
5.99457
21
-3.92087
0
LINE
8
BLACK
6
CONTINUOUS
10
5.99457
20
-3.92087
11
5.99438
21
-3.92182
0
LINE
8
BLACK
6
CONTINUOUS
10
5.99438
20
-3.92182
11
5.99385
21
-3.92261
0
LINE
8
BLACK
6
CONTINUOUS
10
5.99385
20
-3.92261
11
5.99305
21
-3.92315
0
LINE
8
BLACK
6
CONTINUOUS
10
5.99305
20
-3.92315
11
5.99211
21
-3.92333
0
LINE
8
BLACK
6
CONTINUOUS
10
5.99211
20
-3.92333
11
5.98719
21
-3.92333
0
LINE
8
BLACK
6
CONTINUOUS
10
5.98719
20
-3.92333
11
5.98625
21
-3.92315
0
LINE
8
BLACK
6
CONTINUOUS
10
5.98625
20
-3.92315
11
5.98545
21
-3.92261
0
LINE
8
BLACK
6
CONTINUOUS
10
5.98545
20
-3.92261
11
5.98491
21
-3.92182
0
LINE
8
BLACK
6
CONTINUOUS
10
5.98491
20
-3.92182
11
5.98473
21
-3.92087
0
LINE
8
BLACK
6
CONTINUOUS
10
5.98473
20
-3.92087
11
5.98473
21
-3.89233
0
LINE
8
BLACK
6
CONTINUOUS
10
5.98473
20
-3.89233
11
5.98491
21
-3.89139
0
LINE
8
BLACK
6
CONTINUOUS
10
5.98491
20
-3.89139
11
5.98545
21
-3.89059
0
LINE
8
BLACK
6
CONTINUOUS
10
5.98545
20
-3.89059
11
5.98625
21
-3.89006
0
LINE
8
BLACK
6
CONTINUOUS
10
5.98625
20
-3.89006
11
5.98719
21
-3.88987
0
LINE
8
BLACK
6
CONTINUOUS
10
5.98719
20
-3.88987
11
5.99211
21
-3.88987
0
LINE
8
BLACK
6
CONTINUOUS
10
5.99211
20
-3.88987
11
5.99305
21
-3.89006
0
LINE
8
BLACK
6
CONTINUOUS
10
4.95606
20
-3.90806
11
4.89606
21
-3.90806
0
LINE
8
BLACK
6
CONTINUOUS
10
4.89606
20
-3.90806
11
4.89606
21
-3.84806
0
LINE
8
BLACK
6
CONTINUOUS
10
4.89606
20
-3.84806
11
4.95606
21
-3.84806
0
LINE
8
BLACK
6
CONTINUOUS
10
4.95606
20
-3.84806
11
4.95606
21
-3.90806
0
LINE
8
BLACK
6
CONTINUOUS
10
5.05606
20
-3.90806
11
4.99606
21
-3.90806
0
LINE
8
BLACK
6
CONTINUOUS
10
4.99606
20
-3.90806
11
4.99606
21
-3.84806
0
LINE
8
BLACK
6
CONTINUOUS
10
4.99606
20
-3.84806
11
5.05606
21
-3.84806
0
LINE
8
BLACK
6
CONTINUOUS
10
5.05606
20
-3.84806
11
5.05606
21
-3.90806
0
LINE
8
BLACK
6
CONTINUOUS
10
5.62856
20
-3.88306
11
5.57356
21
-3.88306
0
LINE
8
BLACK
6
CONTINUOUS
10
5.57356
20
-3.88306
11
5.57356
21
-3.84806
0
LINE
8
BLACK
6
CONTINUOUS
10
5.57356
20
-3.84806
11
5.62856
21
-3.84806
0
LINE
8
BLACK
6
CONTINUOUS
10
5.62856
20
-3.84806
11
5.62856
21
-3.88306
0
LINE
8
BLACK
6
CONTINUOUS
10
5.25856
20
-3.87556
11
5.22356
21
-3.87556
0
LINE
8
BLACK
6
CONTINUOUS
10
5.22356
20
-3.87556
11
5.22356
21
-3.82056
0
LINE
8
BLACK
6
CONTINUOUS
10
5.22356
20
-3.82056
11
5.25856
21
-3.82056
0
LINE
8
BLACK
6
CONTINUOUS
10
5.25856
20
-3.82056
11
5.25856
21
-3.87556
0
LINE
8
BLACK
6
CONTINUOUS
10
5.33356
20
-3.87556
11
5.29856
21
-3.87556
0
LINE
8
BLACK
6
CONTINUOUS
10
5.29856
20
-3.87556
11
5.29856
21
-3.82056
0
LINE
8
BLACK
6
CONTINUOUS
10
5.29856
20
-3.82056
11
5.33356
21
-3.82056
0
LINE
8
BLACK
6
CONTINUOUS
10
5.33356
20
-3.82056
11
5.33356
21
-3.87556
0
LINE
8
BLACK
6
CONTINUOUS
10
5.18453
20
-3.84755
11
5.1176
21
-3.84755
0
LINE
8
BLACK
6
CONTINUOUS
10
5.1176
20
-3.84755
11
5.1176
21
-3.79637
0
LINE
8
BLACK
6
CONTINUOUS
10
5.1176
20
-3.79637
11
5.18453
21
-3.79637
0
LINE
8
BLACK
6
CONTINUOUS
10
5.18453
20
-3.79637
11
5.18453
21
-3.84755
0
LINE
8
BLACK
6
CONTINUOUS
10
7.03461
20
-3.72959
11
7.0429
21
-3.73181
0
LINE
8
BLACK
6
CONTINUOUS
10
7.0429
20
-3.73181
11
7.05067
21
-3.73544
0
LINE
8
BLACK
6
CONTINUOUS
10
7.05067
20
-3.73544
11
7.0577
21
-3.74036
0
LINE
8
BLACK
6
CONTINUOUS
10
7.0577
20
-3.74036
11
7.06376
21
-3.74643
0
LINE
8
BLACK
6
CONTINUOUS
10
7.06376
20
-3.74643
11
7.06868
21
-3.75345
0
LINE
8
BLACK
6
CONTINUOUS
10
7.06868
20
-3.75345
11
7.07231
21
-3.76123
0
LINE
8
BLACK
6
CONTINUOUS
10
7.07231
20
-3.76123
11
7.07453
21
-3.76951
0
LINE
8
BLACK
6
CONTINUOUS
10
7.07453
20
-3.76951
11
7.07528
21
-3.77806
0
LINE
8
BLACK
6
CONTINUOUS
10
7.07528
20
-3.77806
11
7.07453
21
-3.7866
0
LINE
8
BLACK
6
CONTINUOUS
10
7.07453
20
-3.7866
11
7.07231
21
-3.79489
0
LINE
8
BLACK
6
CONTINUOUS
10
7.07231
20
-3.79489
11
7.06868
21
-3.80266
0
LINE
8
BLACK
6
CONTINUOUS
10
7.06868
20
-3.80266
11
7.06376
21
-3.80969
0
LINE
8
BLACK
6
CONTINUOUS
10
7.06376
20
-3.80969
11
7.0577
21
-3.81576
0
LINE
8
BLACK
6
CONTINUOUS
10
7.0577
20
-3.81576
11
7.05067
21
-3.82068
0
LINE
8
BLACK
6
CONTINUOUS
10
7.05067
20
-3.82068
11
7.0429
21
-3.8243
0
LINE
8
BLACK
6
CONTINUOUS
10
7.0429
20
-3.8243
11
7.03461
21
-3.82652
0
LINE
8
BLACK
6
CONTINUOUS
10
7.03461
20
-3.82652
11
7.02606
21
-3.82727
0
LINE
8
BLACK
6
CONTINUOUS
10
7.02606
20
-3.82727
11
7.01752
21
-3.82652
0
LINE
8
BLACK
6
CONTINUOUS
10
7.01752
20
-3.82652
11
7.00923
21
-3.8243
0
LINE
8
BLACK
6
CONTINUOUS
10
7.00923
20
-3.8243
11
7.00146
21
-3.82068
0
LINE
8
BLACK
6
CONTINUOUS
10
7.00146
20
-3.82068
11
6.99443
21
-3.81576
0
LINE
8
BLACK
6
CONTINUOUS
10
6.99443
20
-3.81576
11
6.98837
21
-3.80969
0
LINE
8
BLACK
6
CONTINUOUS
10
6.98837
20
-3.80969
11
6.98345
21
-3.80266
0
LINE
8
BLACK
6
CONTINUOUS
10
6.98345
20
-3.80266
11
6.97982
21
-3.79489
0
LINE
8
BLACK
6
CONTINUOUS
10
6.97982
20
-3.79489
11
6.9776
21
-3.7866
0
LINE
8
BLACK
6
CONTINUOUS
10
6.9776
20
-3.7866
11
6.97685
21
-3.77806
0
LINE
8
BLACK
6
CONTINUOUS
10
6.97685
20
-3.77806
11
6.9776
21
-3.76951
0
LINE
8
BLACK
6
CONTINUOUS
10
6.9776
20
-3.76951
11
6.97982
21
-3.76123
0
LINE
8
BLACK
6
CONTINUOUS
10
6.97982
20
-3.76123
11
6.98345
21
-3.75345
0
LINE
8
BLACK
6
CONTINUOUS
10
6.98345
20
-3.75345
11
6.98837
21
-3.74643
0
LINE
8
BLACK
6
CONTINUOUS
10
6.98837
20
-3.74643
11
6.99443
21
-3.74036
0
LINE
8
BLACK
6
CONTINUOUS
10
6.99443
20
-3.74036
11
7.00146
21
-3.73544
0
LINE
8
BLACK
6
CONTINUOUS
10
7.00146
20
-3.73544
11
7.00923
21
-3.73181
0
LINE
8
BLACK
6
CONTINUOUS
10
7.00923
20
-3.73181
11
7.01752
21
-3.72959
0
LINE
8
BLACK
6
CONTINUOUS
10
7.01752
20
-3.72959
11
7.02606
21
-3.72885
0
LINE
8
BLACK
6
CONTINUOUS
10
7.02606
20
-3.72885
11
7.03461
21
-3.72959
0
LINE
8
BLACK
6
CONTINUOUS
10
5.66732
20
-3.81349
11
5.62795
21
-3.81349
0
LINE
8
BLACK
6
CONTINUOUS
10
5.62795
20
-3.81349
11
5.62795
21
-3.74263
0
LINE
8
BLACK
6
CONTINUOUS
10
5.62795
20
-3.74263
11
5.66732
21
-3.74263
0
LINE
8
BLACK
6
CONTINUOUS
10
5.66732
20
-3.74263
11
5.66732
21
-3.81349
0
LINE
8
BLACK
6
CONTINUOUS
10
5.76575
20
-3.81349
11
5.72638
21
-3.81349
0
LINE
8
BLACK
6
CONTINUOUS
10
5.72638
20
-3.81349
11
5.72638
21
-3.74263
0
LINE
8
BLACK
6
CONTINUOUS
10
5.72638
20
-3.74263
11
5.76575
21
-3.74263
0
LINE
8
BLACK
6
CONTINUOUS
10
5.76575
20
-3.74263
11
5.76575
21
-3.81349
0
LINE
8
BLACK
6
CONTINUOUS
10
4.95606
20
-3.80806
11
4.89606
21
-3.80806
0
LINE
8
BLACK
6
CONTINUOUS
10
4.89606
20
-3.80806
11
4.89606
21
-3.74806
0
LINE
8
BLACK
6
CONTINUOUS
10
4.89606
20
-3.74806
11
4.95606
21
-3.74806
0
LINE
8
BLACK
6
CONTINUOUS
10
4.95606
20
-3.74806
11
4.95606
21
-3.80806
0
LINE
8
BLACK
6
CONTINUOUS
10
5.05606
20
-3.80806
11
4.99606
21
-3.80806
0
LINE
8
BLACK
6
CONTINUOUS
10
4.99606
20
-3.80806
11
4.99606
21
-3.74806
0
LINE
8
BLACK
6
CONTINUOUS
10
4.99606
20
-3.74806
11
5.05606
21
-3.74806
0
LINE
8
BLACK
6
CONTINUOUS
10
5.05606
20
-3.74806
11
5.05606
21
-3.80806
0
LINE
8
BLACK
6
CONTINUOUS
10
6.28106
20
-3.80556
11
6.24606
21
-3.80556
0
LINE
8
BLACK
6
CONTINUOUS
10
6.24606
20
-3.80556
11
6.24606
21
-3.75056
0
LINE
8
BLACK
6
CONTINUOUS
10
6.24606
20
-3.75056
11
6.28106
21
-3.75056
0
LINE
8
BLACK
6
CONTINUOUS
10
6.28106
20
-3.75056
11
6.28106
21
-3.80556
0
LINE
8
BLACK
6
CONTINUOUS
10
6.35606
20
-3.80556
11
6.32106
21
-3.80556
0
LINE
8
BLACK
6
CONTINUOUS
10
6.32106
20
-3.80556
11
6.32106
21
-3.75056
0
LINE
8
BLACK
6
CONTINUOUS
10
6.32106
20
-3.75056
11
6.35606
21
-3.75056
0
LINE
8
BLACK
6
CONTINUOUS
10
6.35606
20
-3.75056
11
6.35606
21
-3.80556
0
LINE
8
BLACK
6
CONTINUOUS
10
6.43106
20
-3.80556
11
6.39606
21
-3.80556
0
LINE
8
BLACK
6
CONTINUOUS
10
6.39606
20
-3.80556
11
6.39606
21
-3.75056
0
LINE
8
BLACK
6
CONTINUOUS
10
6.39606
20
-3.75056
11
6.43106
21
-3.75056
0
LINE
8
BLACK
6
CONTINUOUS
10
6.43106
20
-3.75056
11
6.43106
21
-3.80556
0
LINE
8
BLACK
6
CONTINUOUS
10
6.50606
20
-3.80556
11
6.47106
21
-3.80556
0
LINE
8
BLACK
6
CONTINUOUS
10
6.47106
20
-3.80556
11
6.47106
21
-3.75056
0
LINE
8
BLACK
6
CONTINUOUS
10
6.47106
20
-3.75056
11
6.50606
21
-3.75056
0
LINE
8
BLACK
6
CONTINUOUS
10
6.50606
20
-3.75056
11
6.50606
21
-3.80556
0
LINE
8
BLACK
6
CONTINUOUS
10
6.58106
20
-3.80556
11
6.54606
21
-3.80556
0
LINE
8
BLACK
6
CONTINUOUS
10
6.54606
20
-3.80556
11
6.54606
21
-3.75056
0
LINE
8
BLACK
6
CONTINUOUS
10
6.54606
20
-3.75056
11
6.58106
21
-3.75056
0
LINE
8
BLACK
6
CONTINUOUS
10
6.58106
20
-3.75056
11
6.58106
21
-3.80556
0
LINE
8
BLACK
6
CONTINUOUS
10
6.65606
20
-3.80556
11
6.62106
21
-3.80556
0
LINE
8
BLACK
6
CONTINUOUS
10
6.62106
20
-3.80556
11
6.62106
21
-3.75056
0
LINE
8
BLACK
6
CONTINUOUS
10
6.62106
20
-3.75056
11
6.65606
21
-3.75056
0
LINE
8
BLACK
6
CONTINUOUS
10
6.65606
20
-3.75056
11
6.65606
21
-3.80556
0
LINE
8
BLACK
6
CONTINUOUS
10
6.73106
20
-3.80556
11
6.69606
21
-3.80556
0
LINE
8
BLACK
6
CONTINUOUS
10
6.69606
20
-3.80556
11
6.69606
21
-3.75056
0
LINE
8
BLACK
6
CONTINUOUS
10
6.69606
20
-3.75056
11
6.73106
21
-3.75056
0
LINE
8
BLACK
6
CONTINUOUS
10
6.73106
20
-3.75056
11
6.73106
21
-3.80556
0
LINE
8
BLACK
6
CONTINUOUS
10
6.80606
20
-3.80556
11
6.77106
21
-3.80556
0
LINE
8
BLACK
6
CONTINUOUS
10
6.77106
20
-3.80556
11
6.77106
21
-3.75056
0
LINE
8
BLACK
6
CONTINUOUS
10
6.77106
20
-3.75056
11
6.80606
21
-3.75056
0
LINE
8
BLACK
6
CONTINUOUS
10
6.80606
20
-3.75056
11
6.80606
21
-3.80556
0
LINE
8
BLACK
6
CONTINUOUS
10
5.90776
20
-3.79617
11
5.83689
21
-3.79617
0
LINE
8
BLACK
6
CONTINUOUS
10
5.83689
20
-3.79617
11
5.83689
21
-3.74892
0
LINE
8
BLACK
6
CONTINUOUS
10
5.83689
20
-3.74892
11
5.90776
21
-3.74892
0
LINE
8
BLACK
6
CONTINUOUS
10
5.90776
20
-3.74892
11
5.90776
21
-3.79617
0
LINE
8
BLACK
6
CONTINUOUS
10
6.06524
20
-3.79617
11
5.99437
21
-3.79617
0
LINE
8
BLACK
6
CONTINUOUS
10
5.99437
20
-3.79617
11
5.99437
21
-3.74892
0
LINE
8
BLACK
6
CONTINUOUS
10
5.99437
20
-3.74892
11
6.06524
21
-3.74892
0
LINE
8
BLACK
6
CONTINUOUS
10
6.06524
20
-3.74892
11
6.06524
21
-3.79617
0
LINE
8
BLACK
6
CONTINUOUS
10
5.25856
20
-3.79556
11
5.22356
21
-3.79556
0
LINE
8
BLACK
6
CONTINUOUS
10
5.22356
20
-3.79556
11
5.22356
21
-3.74056
0
LINE
8
BLACK
6
CONTINUOUS
10
5.22356
20
-3.74056
11
5.25856
21
-3.74056
0
LINE
8
BLACK
6
CONTINUOUS
10
5.25856
20
-3.74056
11
5.25856
21
-3.79556
0
LINE
8
BLACK
6
CONTINUOUS
10
5.33356
20
-3.79556
11
5.29856
21
-3.79556
0
LINE
8
BLACK
6
CONTINUOUS
10
5.29856
20
-3.79556
11
5.29856
21
-3.74056
0
LINE
8
BLACK
6
CONTINUOUS
10
5.29856
20
-3.74056
11
5.33356
21
-3.74056
0
LINE
8
BLACK
6
CONTINUOUS
10
5.33356
20
-3.74056
11
5.33356
21
-3.79556
0
LINE
8
BLACK
6
CONTINUOUS
10
5.50356
20
-3.78556
11
5.44856
21
-3.78556
0
LINE
8
BLACK
6
CONTINUOUS
10
5.44856
20
-3.78556
11
5.44856
21
-3.75056
0
LINE
8
BLACK
6
CONTINUOUS
10
5.44856
20
-3.75056
11
5.50356
21
-3.75056
0
LINE
8
BLACK
6
CONTINUOUS
10
5.50356
20
-3.75056
11
5.50356
21
-3.78556
0
LINE
8
BLACK
6
CONTINUOUS
10
6.20356
20
-3.78306
11
6.14856
21
-3.78306
0
LINE
8
BLACK
6
CONTINUOUS
10
6.14856
20
-3.78306
11
6.14856
21
-3.74806
0
LINE
8
BLACK
6
CONTINUOUS
10
6.14856
20
-3.74806
11
6.20356
21
-3.74806
0
LINE
8
BLACK
6
CONTINUOUS
10
6.20356
20
-3.74806
11
6.20356
21
-3.78306
0
LINE
8
BLACK
6
CONTINUOUS
10
6.93529
20
-3.62572
11
6.94424
21
-3.62811
0
LINE
8
BLACK
6
CONTINUOUS
10
6.94424
20
-3.62811
11
6.95264
21
-3.63203
0
LINE
8
BLACK
6
CONTINUOUS
10
6.95264
20
-3.63203
11
6.96023
21
-3.63734
0
LINE
8
BLACK
6
CONTINUOUS
10
6.96023
20
-3.63734
11
6.96678
21
-3.64389
0
LINE
8
BLACK
6
CONTINUOUS
10
6.96678
20
-3.64389
11
6.97209
21
-3.65148
0
LINE
8
BLACK
6
CONTINUOUS
10
6.97209
20
-3.65148
11
6.97601
21
-3.65988
0
LINE
8
BLACK
6
CONTINUOUS
10
6.97601
20
-3.65988
11
6.97841
21
-3.66883
0
LINE
8
BLACK
6
CONTINUOUS
10
6.97841
20
-3.66883
11
6.97921
21
-3.67806
0
LINE
8
BLACK
6
CONTINUOUS
10
6.97921
20
-3.67806
11
6.97841
21
-3.68729
0
LINE
8
BLACK
6
CONTINUOUS
10
6.97841
20
-3.68729
11
6.97601
21
-3.69624
0
LINE
8
BLACK
6
CONTINUOUS
10
6.97601
20
-3.69624
11
6.97209
21
-3.70463
0
LINE
8
BLACK
6
CONTINUOUS
10
6.97209
20
-3.70463
11
6.96678
21
-3.71222
0
LINE
8
BLACK
6
CONTINUOUS
10
6.96678
20
-3.71222
11
6.96023
21
-3.71877
0
LINE
8
BLACK
6
CONTINUOUS
10
6.96023
20
-3.71877
11
6.95264
21
-3.72409
0
LINE
8
BLACK
6
CONTINUOUS
10
6.95264
20
-3.72409
11
6.94424
21
-3.728
0
LINE
8
BLACK
6
CONTINUOUS
10
6.94424
20
-3.728
11
6.93529
21
-3.7304
0
LINE
8
BLACK
6
CONTINUOUS
10
6.93529
20
-3.7304
11
6.92606
21
-3.73121
0
LINE
8
BLACK
6
CONTINUOUS
10
6.92606
20
-3.73121
11
6.91684
21
-3.7304
0
LINE
8
BLACK
6
CONTINUOUS
10
6.91684
20
-3.7304
11
6.90789
21
-3.728
0
LINE
8
BLACK
6
CONTINUOUS
10
6.90789
20
-3.728
11
6.89949
21
-3.72409
0
LINE
8
BLACK
6
CONTINUOUS
10
6.89949
20
-3.72409
11
6.8919
21
-3.71877
0
LINE
8
BLACK
6
CONTINUOUS
10
6.8919
20
-3.71877
11
6.88535
21
-3.71222
0
LINE
8
BLACK
6
CONTINUOUS
10
6.88535
20
-3.71222
11
6.88004
21
-3.70463
0
LINE
8
BLACK
6
CONTINUOUS
10
6.88004
20
-3.70463
11
6.87612
21
-3.69624
0
LINE
8
BLACK
6
CONTINUOUS
10
6.87612
20
-3.69624
11
6.87372
21
-3.68729
0
LINE
8
BLACK
6
CONTINUOUS
10
6.87372
20
-3.68729
11
6.87292
21
-3.67806
0
LINE
8
BLACK
6
CONTINUOUS
10
6.87292
20
-3.67806
11
6.87372
21
-3.66883
0
LINE
8
BLACK
6
CONTINUOUS
10
6.87372
20
-3.66883
11
6.87612
21
-3.65988
0
LINE
8
BLACK
6
CONTINUOUS
10
6.87612
20
-3.65988
11
6.88004
21
-3.65148
0
LINE
8
BLACK
6
CONTINUOUS
10
6.88004
20
-3.65148
11
6.88535
21
-3.64389
0
LINE
8
BLACK
6
CONTINUOUS
10
6.88535
20
-3.64389
11
6.8919
21
-3.63734
0
LINE
8
BLACK
6
CONTINUOUS
10
6.8919
20
-3.63734
11
6.89949
21
-3.63203
0
LINE
8
BLACK
6
CONTINUOUS
10
6.89949
20
-3.63203
11
6.90789
21
-3.62811
0
LINE
8
BLACK
6
CONTINUOUS
10
6.90789
20
-3.62811
11
6.91684
21
-3.62572
0
LINE
8
BLACK
6
CONTINUOUS
10
6.91684
20
-3.62572
11
6.92606
21
-3.62491
0
LINE
8
BLACK
6
CONTINUOUS
10
6.92606
20
-3.62491
11
6.93529
21
-3.62572
0
LINE
8
BLACK
6
CONTINUOUS
10
7.13529
20
-3.62572
11
7.14424
21
-3.62811
0
LINE
8
BLACK
6
CONTINUOUS
10
7.14424
20
-3.62811
11
7.15264
21
-3.63203
0
LINE
8
BLACK
6
CONTINUOUS
10
7.15264
20
-3.63203
11
7.16023
21
-3.63734
0
LINE
8
BLACK
6
CONTINUOUS
10
7.16023
20
-3.63734
11
7.16678
21
-3.64389
0
LINE
8
BLACK
6
CONTINUOUS
10
7.16678
20
-3.64389
11
7.17209
21
-3.65148
0
LINE
8
BLACK
6
CONTINUOUS
10
7.17209
20
-3.65148
11
7.17601
21
-3.65988
0
LINE
8
BLACK
6
CONTINUOUS
10
7.17601
20
-3.65988
11
7.17841
21
-3.66883
0
LINE
8
BLACK
6
CONTINUOUS
10
7.17841
20
-3.66883
11
7.17921
21
-3.67806
0
LINE
8
BLACK
6
CONTINUOUS
10
7.17921
20
-3.67806
11
7.17841
21
-3.68729
0
LINE
8
BLACK
6
CONTINUOUS
10
7.17841
20
-3.68729
11
7.17601
21
-3.69624
0
LINE
8
BLACK
6
CONTINUOUS
10
7.17601
20
-3.69624
11
7.17209
21
-3.70463
0
LINE
8
BLACK
6
CONTINUOUS
10
7.17209
20
-3.70463
11
7.16678
21
-3.71222
0
LINE
8
BLACK
6
CONTINUOUS
10
7.16678
20
-3.71222
11
7.16023
21
-3.71877
0
LINE
8
BLACK
6
CONTINUOUS
10
7.16023
20
-3.71877
11
7.15264
21
-3.72409
0
LINE
8
BLACK
6
CONTINUOUS
10
7.15264
20
-3.72409
11
7.14424
21
-3.728
0
LINE
8
BLACK
6
CONTINUOUS
10
7.14424
20
-3.728
11
7.13529
21
-3.7304
0
LINE
8
BLACK
6
CONTINUOUS
10
7.13529
20
-3.7304
11
7.12606
21
-3.73121
0
LINE
8
BLACK
6
CONTINUOUS
10
7.12606
20
-3.73121
11
7.11684
21
-3.7304
0
LINE
8
BLACK
6
CONTINUOUS
10
7.11684
20
-3.7304
11
7.10789
21
-3.728
0
LINE
8
BLACK
6
CONTINUOUS
10
7.10789
20
-3.728
11
7.09949
21
-3.72409
0
LINE
8
BLACK
6
CONTINUOUS
10
7.09949
20
-3.72409
11
7.0919
21
-3.71877
0
LINE
8
BLACK
6
CONTINUOUS
10
7.0919
20
-3.71877
11
7.08535
21
-3.71222
0
LINE
8
BLACK
6
CONTINUOUS
10
7.08535
20
-3.71222
11
7.08004
21
-3.70463
0
LINE
8
BLACK
6
CONTINUOUS
10
7.08004
20
-3.70463
11
7.07612
21
-3.69624
0
LINE
8
BLACK
6
CONTINUOUS
10
7.07612
20
-3.69624
11
7.07372
21
-3.68729
0
LINE
8
BLACK
6
CONTINUOUS
10
7.07372
20
-3.68729
11
7.07292
21
-3.67806
0
LINE
8
BLACK
6
CONTINUOUS
10
7.07292
20
-3.67806
11
7.07372
21
-3.66883
0
LINE
8
BLACK
6
CONTINUOUS
10
7.07372
20
-3.66883
11
7.07612
21
-3.65988
0
LINE
8
BLACK
6
CONTINUOUS
10
7.07612
20
-3.65988
11
7.08004
21
-3.65148
0
LINE
8
BLACK
6
CONTINUOUS
10
7.08004
20
-3.65148
11
7.08535
21
-3.64389
0
LINE
8
BLACK
6
CONTINUOUS
10
7.08535
20
-3.64389
11
7.0919
21
-3.63734
0
LINE
8
BLACK
6
CONTINUOUS
10
7.0919
20
-3.63734
11
7.09949
21
-3.63203
0
LINE
8
BLACK
6
CONTINUOUS
10
7.09949
20
-3.63203
11
7.10789
21
-3.62811
0
LINE
8
BLACK
6
CONTINUOUS
10
7.10789
20
-3.62811
11
7.11684
21
-3.62572
0
LINE
8
BLACK
6
CONTINUOUS
10
7.11684
20
-3.62572
11
7.12606
21
-3.62491
0
LINE
8
BLACK
6
CONTINUOUS
10
7.12606
20
-3.62491
11
7.13529
21
-3.62572
0
LINE
8
BLACK
6
CONTINUOUS
10
5.50356
20
-3.71056
11
5.44856
21
-3.71056
0
LINE
8
BLACK
6
CONTINUOUS
10
5.44856
20
-3.71056
11
5.44856
21
-3.67556
0
LINE
8
BLACK
6
CONTINUOUS
10
5.44856
20
-3.67556
11
5.50356
21
-3.67556
0
LINE
8
BLACK
6
CONTINUOUS
10
5.50356
20
-3.67556
11
5.50356
21
-3.71056
0
LINE
8
BLACK
6
CONTINUOUS
10
5.18453
20
-3.70975
11
5.1176
21
-3.70975
0
LINE
8
BLACK
6
CONTINUOUS
10
5.1176
20
-3.70975
11
5.1176
21
-3.65857
0
LINE
8
BLACK
6
CONTINUOUS
10
5.1176
20
-3.65857
11
5.18453
21
-3.65857
0
LINE
8
BLACK
6
CONTINUOUS
10
5.18453
20
-3.65857
11
5.18453
21
-3.70975
0
LINE
8
BLACK
6
CONTINUOUS
10
4.95606
20
-3.70806
11
4.89606
21
-3.70806
0
LINE
8
BLACK
6
CONTINUOUS
10
4.89606
20
-3.70806
11
4.89606
21
-3.64806
0
LINE
8
BLACK
6
CONTINUOUS
10
4.89606
20
-3.64806
11
4.95606
21
-3.64806
0
LINE
8
BLACK
6
CONTINUOUS
10
4.95606
20
-3.64806
11
4.95606
21
-3.70806
0
LINE
8
BLACK
6
CONTINUOUS
10
5.05606
20
-3.70806
11
4.99606
21
-3.70806
0
LINE
8
BLACK
6
CONTINUOUS
10
4.99606
20
-3.70806
11
4.99606
21
-3.64806
0
LINE
8
BLACK
6
CONTINUOUS
10
4.99606
20
-3.64806
11
5.05606
21
-3.64806
0
LINE
8
BLACK
6
CONTINUOUS
10
5.05606
20
-3.64806
11
5.05606
21
-3.70806
0
LINE
8
BLACK
6
CONTINUOUS
10
6.20356
20
-3.70806
11
6.14856
21
-3.70806
0
LINE
8
BLACK
6
CONTINUOUS
10
6.14856
20
-3.70806
11
6.14856
21
-3.67306
0
LINE
8
BLACK
6
CONTINUOUS
10
6.14856
20
-3.67306
11
6.20356
21
-3.67306
0
LINE
8
BLACK
6
CONTINUOUS
10
6.20356
20
-3.67306
11
6.20356
21
-3.70806
0
LINE
8
BLACK
6
CONTINUOUS
10
6.45356
20
-3.70806
11
6.39856
21
-3.70806
0
LINE
8
BLACK
6
CONTINUOUS
10
6.39856
20
-3.70806
11
6.39856
21
-3.67306
0
LINE
8
BLACK
6
CONTINUOUS
10
6.39856
20
-3.67306
11
6.45356
21
-3.67306
0
LINE
8
BLACK
6
CONTINUOUS
10
6.45356
20
-3.67306
11
6.45356
21
-3.70806
0
LINE
8
BLACK
6
CONTINUOUS
10
6.57856
20
-3.70806
11
6.52356
21
-3.70806
0
LINE
8
BLACK
6
CONTINUOUS
10
6.52356
20
-3.70806
11
6.52356
21
-3.67306
0
LINE
8
BLACK
6
CONTINUOUS
10
6.52356
20
-3.67306
11
6.57856
21
-3.67306
0
LINE
8
BLACK
6
CONTINUOUS
10
6.57856
20
-3.67306
11
6.57856
21
-3.70806
0
LINE
8
BLACK
6
CONTINUOUS
10
6.70356
20
-3.70806
11
6.64856
21
-3.70806
0
LINE
8
BLACK
6
CONTINUOUS
10
6.64856
20
-3.70806
11
6.64856
21
-3.67306
0
LINE
8
BLACK
6
CONTINUOUS
10
6.64856
20
-3.67306
11
6.70356
21
-3.67306
0
LINE
8
BLACK
6
CONTINUOUS
10
6.70356
20
-3.67306
11
6.70356
21
-3.70806
0
LINE
8
BLACK
6
CONTINUOUS
10
6.28106
20
-3.70556
11
6.24606
21
-3.70556
0
LINE
8
BLACK
6
CONTINUOUS
10
6.24606
20
-3.70556
11
6.24606
21
-3.65056
0
LINE
8
BLACK
6
CONTINUOUS
10
6.24606
20
-3.65056
11
6.28106
21
-3.65056
0
LINE
8
BLACK
6
CONTINUOUS
10
6.28106
20
-3.65056
11
6.28106
21
-3.70556
0
LINE
8
BLACK
6
CONTINUOUS
10
6.35606
20
-3.70556
11
6.32106
21
-3.70556
0
LINE
8
BLACK
6
CONTINUOUS
10
6.32106
20
-3.70556
11
6.32106
21
-3.65056
0
LINE
8
BLACK
6
CONTINUOUS
10
6.32106
20
-3.65056
11
6.35606
21
-3.65056
0
LINE
8
BLACK
6
CONTINUOUS
10
6.35606
20
-3.65056
11
6.35606
21
-3.70556
0
LINE
8
BLACK
6
CONTINUOUS
10
5.90776
20
-3.70168
11
5.83689
21
-3.70168
0
LINE
8
BLACK
6
CONTINUOUS
10
5.83689
20
-3.70168
11
5.83689
21
-3.65444
0
LINE
8
BLACK
6
CONTINUOUS
10
5.83689
20
-3.65444
11
5.90776
21
-3.65444
0
LINE
8
BLACK
6
CONTINUOUS
10
5.90776
20
-3.65444
11
5.90776
21
-3.70168
0
LINE
8
BLACK
6
CONTINUOUS
10
6.06524
20
-3.70168
11
5.99437
21
-3.70168
0
LINE
8
BLACK
6
CONTINUOUS
10
5.99437
20
-3.70168
11
5.99437
21
-3.65444
0
LINE
8
BLACK
6
CONTINUOUS
10
5.99437
20
-3.65444
11
6.06524
21
-3.65444
0
LINE
8
BLACK
6
CONTINUOUS
10
6.06524
20
-3.65444
11
6.06524
21
-3.70168
0
LINE
8
BLACK
6
CONTINUOUS
10
6.45356
20
-3.63306
11
6.39856
21
-3.63306
0
LINE
8
BLACK
6
CONTINUOUS
10
6.39856
20
-3.63306
11
6.39856
21
-3.59806
0
LINE
8
BLACK
6
CONTINUOUS
10
6.39856
20
-3.59806
11
6.45356
21
-3.59806
0
LINE
8
BLACK
6
CONTINUOUS
10
6.45356
20
-3.59806
11
6.45356
21
-3.63306
0
LINE
8
BLACK
6
CONTINUOUS
10
6.57856
20
-3.63306
11
6.52356
21
-3.63306
0
LINE
8
BLACK
6
CONTINUOUS
10
6.52356
20
-3.63306
11
6.52356
21
-3.59806
0
LINE
8
BLACK
6
CONTINUOUS
10
6.52356
20
-3.59806
11
6.57856
21
-3.59806
0
LINE
8
BLACK
6
CONTINUOUS
10
6.57856
20
-3.59806
11
6.57856
21
-3.63306
0
LINE
8
BLACK
6
CONTINUOUS
10
6.70356
20
-3.63306
11
6.64856
21
-3.63306
0
LINE
8
BLACK
6
CONTINUOUS
10
6.64856
20
-3.63306
11
6.64856
21
-3.59806
0
LINE
8
BLACK
6
CONTINUOUS
10
6.64856
20
-3.59806
11
6.70356
21
-3.59806
0
LINE
8
BLACK
6
CONTINUOUS
10
6.70356
20
-3.59806
11
6.70356
21
-3.63306
0
LINE
8
BLACK
6
CONTINUOUS
10
6.29356
20
-3.61056
11
6.23856
21
-3.61056
0
LINE
8
BLACK
6
CONTINUOUS
10
6.23856
20
-3.61056
11
6.23856
21
-3.57556
0
LINE
8
BLACK
6
CONTINUOUS
10
6.23856
20
-3.57556
11
6.29356
21
-3.57556
0
LINE
8
BLACK
6
CONTINUOUS
10
6.29356
20
-3.57556
11
6.29356
21
-3.61056
0
LINE
8
BLACK
6
CONTINUOUS
10
5.30356
20
-3.60806
11
5.24856
21
-3.60806
0
LINE
8
BLACK
6
CONTINUOUS
10
5.24856
20
-3.60806
11
5.24856
21
-3.57306
0
LINE
8
BLACK
6
CONTINUOUS
10
5.24856
20
-3.57306
11
5.30356
21
-3.57306
0
LINE
8
BLACK
6
CONTINUOUS
10
5.30356
20
-3.57306
11
5.30356
21
-3.60806
0
LINE
8
BLACK
6
CONTINUOUS
10
5.40356
20
-3.60806
11
5.34856
21
-3.60806
0
LINE
8
BLACK
6
CONTINUOUS
10
5.34856
20
-3.60806
11
5.34856
21
-3.57306
0
LINE
8
BLACK
6
CONTINUOUS
10
5.34856
20
-3.57306
11
5.40356
21
-3.57306
0
LINE
8
BLACK
6
CONTINUOUS
10
5.40356
20
-3.57306
11
5.40356
21
-3.60806
0
LINE
8
BLACK
6
CONTINUOUS
10
5.50356
20
-3.60806
11
5.44856
21
-3.60806
0
LINE
8
BLACK
6
CONTINUOUS
10
5.44856
20
-3.60806
11
5.44856
21
-3.57306
0
LINE
8
BLACK
6
CONTINUOUS
10
5.44856
20
-3.57306
11
5.50356
21
-3.57306
0
LINE
8
BLACK
6
CONTINUOUS
10
5.50356
20
-3.57306
11
5.50356
21
-3.60806
0
LINE
8
BLACK
6
CONTINUOUS
10
5.60356
20
-3.60806
11
5.54856
21
-3.60806
0
LINE
8
BLACK
6
CONTINUOUS
10
5.54856
20
-3.60806
11
5.54856
21
-3.57306
0
LINE
8
BLACK
6
CONTINUOUS
10
5.54856
20
-3.57306
11
5.60356
21
-3.57306
0
LINE
8
BLACK
6
CONTINUOUS
10
5.60356
20
-3.57306
11
5.60356
21
-3.60806
0
LINE
8
BLACK
6
CONTINUOUS
10
5.70356
20
-3.60806
11
5.64856
21
-3.60806
0
LINE
8
BLACK
6
CONTINUOUS
10
5.64856
20
-3.60806
11
5.64856
21
-3.57306
0
LINE
8
BLACK
6
CONTINUOUS
10
5.64856
20
-3.57306
11
5.70356
21
-3.57306
0
LINE
8
BLACK
6
CONTINUOUS
10
5.70356
20
-3.57306
11
5.70356
21
-3.60806
0
LINE
8
BLACK
6
CONTINUOUS
10
5.80356
20
-3.60806
11
5.74856
21
-3.60806
0
LINE
8
BLACK
6
CONTINUOUS
10
5.74856
20
-3.60806
11
5.74856
21
-3.57306
0
LINE
8
BLACK
6
CONTINUOUS
10
5.74856
20
-3.57306
11
5.80356
21
-3.57306
0
LINE
8
BLACK
6
CONTINUOUS
10
5.80356
20
-3.57306
11
5.80356
21
-3.60806
0
LINE
8
BLACK
6
CONTINUOUS
10
5.90356
20
-3.60806
11
5.84856
21
-3.60806
0
LINE
8
BLACK
6
CONTINUOUS
10
5.84856
20
-3.60806
11
5.84856
21
-3.57306
0
LINE
8
BLACK
6
CONTINUOUS
10
5.84856
20
-3.57306
11
5.90356
21
-3.57306
0
LINE
8
BLACK
6
CONTINUOUS
10
5.90356
20
-3.57306
11
5.90356
21
-3.60806
0
LINE
8
BLACK
6
CONTINUOUS
10
5.97856
20
-3.60806
11
5.92356
21
-3.60806
0
LINE
8
BLACK
6
CONTINUOUS
10
5.92356
20
-3.60806
11
5.92356
21
-3.57306
0
LINE
8
BLACK
6
CONTINUOUS
10
5.92356
20
-3.57306
11
5.97856
21
-3.57306
0
LINE
8
BLACK
6
CONTINUOUS
10
5.97856
20
-3.57306
11
5.97856
21
-3.60806
0
LINE
8
BLACK
6
CONTINUOUS
10
6.05356
20
-3.60806
11
5.99856
21
-3.60806
0
LINE
8
BLACK
6
CONTINUOUS
10
5.99856
20
-3.60806
11
5.99856
21
-3.57306
0
LINE
8
BLACK
6
CONTINUOUS
10
5.99856
20
-3.57306
11
6.05356
21
-3.57306
0
LINE
8
BLACK
6
CONTINUOUS
10
6.05356
20
-3.57306
11
6.05356
21
-3.60806
0
LINE
8
BLACK
6
CONTINUOUS
10
6.13356
20
-3.60556
11
6.07856
21
-3.60556
0
LINE
8
BLACK
6
CONTINUOUS
10
6.07856
20
-3.60556
11
6.07856
21
-3.57056
0
LINE
8
BLACK
6
CONTINUOUS
10
6.07856
20
-3.57056
11
6.13356
21
-3.57056
0
LINE
8
BLACK
6
CONTINUOUS
10
6.13356
20
-3.57056
11
6.13356
21
-3.60556
0
LINE
8
BLACK
6
CONTINUOUS
10
5.04657
20
-3.31174
11
5.05994
21
-3.31491
0
LINE
8
BLACK
6
CONTINUOUS
10
5.05994
20
-3.31491
11
5.07285
21
-3.31961
0
LINE
8
BLACK
6
CONTINUOUS
10
5.07285
20
-3.31961
11
5.08512
21
-3.32577
0
LINE
8
BLACK
6
CONTINUOUS
10
5.08512
20
-3.32577
11
5.0966
21
-3.33332
0
LINE
8
BLACK
6
CONTINUOUS
10
5.0966
20
-3.33332
11
5.10712
21
-3.34215
0
LINE
8
BLACK
6
CONTINUOUS
10
5.10712
20
-3.34215
11
5.11654
21
-3.35214
0
LINE
8
BLACK
6
CONTINUOUS
10
5.11654
20
-3.35214
11
5.12474
21
-3.36316
0
LINE
8
BLACK
6
CONTINUOUS
10
5.12474
20
-3.36316
11
5.13161
21
-3.37505
0
LINE
8
BLACK
6
CONTINUOUS
10
5.13161
20
-3.37505
11
5.13705
21
-3.38766
0
LINE
8
BLACK
6
CONTINUOUS
10
5.13705
20
-3.38766
11
5.14099
21
-3.40082
0
LINE
8
BLACK
6
CONTINUOUS
10
5.14099
20
-3.40082
11
5.14338
21
-3.41435
0
LINE
8
BLACK
6
CONTINUOUS
10
5.14338
20
-3.41435
11
5.14418
21
-3.42806
0
LINE
8
BLACK
6
CONTINUOUS
10
5.14418
20
-3.42806
11
5.14338
21
-3.44177
0
LINE
8
BLACK
6
CONTINUOUS
10
5.14338
20
-3.44177
11
5.14099
21
-3.4553
0
LINE
8
BLACK
6
CONTINUOUS
10
5.14099
20
-3.4553
11
5.13705
21
-3.46845
0
LINE
8
BLACK
6
CONTINUOUS
10
5.13705
20
-3.46845
11
5.13161
21
-3.48107
0
LINE
8
BLACK
6
CONTINUOUS
10
5.13161
20
-3.48107
11
5.12474
21
-3.49296
0
LINE
8
BLACK
6
CONTINUOUS
10
5.12474
20
-3.49296
11
5.11654
21
-3.50398
0
LINE
8
BLACK
6
CONTINUOUS
10
5.11654
20
-3.50398
11
5.10712
21
-3.51397
0
LINE
8
BLACK
6
CONTINUOUS
10
5.10712
20
-3.51397
11
5.0966
21
-3.5228
0
LINE
8
BLACK
6
CONTINUOUS
10
5.0966
20
-3.5228
11
5.08512
21
-3.53035
0
LINE
8
BLACK
6
CONTINUOUS
10
5.08512
20
-3.53035
11
5.07285
21
-3.53651
0
LINE
8
BLACK
6
CONTINUOUS
10
5.07285
20
-3.53651
11
5.05994
21
-3.54121
0
LINE
8
BLACK
6
CONTINUOUS
10
5.05994
20
-3.54121
11
5.04657
21
-3.54437
0
LINE
8
BLACK
6
CONTINUOUS
10
5.04657
20
-3.54437
11
5.03293
21
-3.54597
0
LINE
8
BLACK
6
CONTINUOUS
10
5.03293
20
-3.54597
11
5.0192
21
-3.54597
0
LINE
8
BLACK
6
CONTINUOUS
10
5.0192
20
-3.54597
11
5.00556
21
-3.54437
0
LINE
8
BLACK
6
CONTINUOUS
10
5.00556
20
-3.54437
11
4.99219
21
-3.54121
0
LINE
8
BLACK
6
CONTINUOUS
10
4.99219
20
-3.54121
11
4.97928
21
-3.53651
0
LINE
8
BLACK
6
CONTINUOUS
10
4.97928
20
-3.53651
11
4.96701
21
-3.53035
0
LINE
8
BLACK
6
CONTINUOUS
10
4.96701
20
-3.53035
11
4.95553
21
-3.5228
0
LINE
8
BLACK
6
CONTINUOUS
10
4.95553
20
-3.5228
11
4.94501
21
-3.51397
0
LINE
8
BLACK
6
CONTINUOUS
10
4.94501
20
-3.51397
11
4.93559
21
-3.50398
0
LINE
8
BLACK
6
CONTINUOUS
10
4.93559
20
-3.50398
11
4.92739
21
-3.49296
0
LINE
8
BLACK
6
CONTINUOUS
10
4.92739
20
-3.49296
11
4.92052
21
-3.48107
0
LINE
8
BLACK
6
CONTINUOUS
10
4.92052
20
-3.48107
11
4.91508
21
-3.46845
0
LINE
8
BLACK
6
CONTINUOUS
10
4.91508
20
-3.46845
11
4.91114
21
-3.4553
0
LINE
8
BLACK
6
CONTINUOUS
10
4.91114
20
-3.4553
11
4.90875
21
-3.44177
0
LINE
8
BLACK
6
CONTINUOUS
10
4.90875
20
-3.44177
11
4.90795
21
-3.42806
0
LINE
8
BLACK
6
CONTINUOUS
10
4.90795
20
-3.42806
11
4.90875
21
-3.41435
0
LINE
8
BLACK
6
CONTINUOUS
10
4.90875
20
-3.41435
11
4.91114
21
-3.40082
0
LINE
8
BLACK
6
CONTINUOUS
10
4.91114
20
-3.40082
11
4.91508
21
-3.38766
0
LINE
8
BLACK
6
CONTINUOUS
10
4.91508
20
-3.38766
11
4.92052
21
-3.37505
0
LINE
8
BLACK
6
CONTINUOUS
10
4.92052
20
-3.37505
11
4.92739
21
-3.36316
0
LINE
8
BLACK
6
CONTINUOUS
10
4.92739
20
-3.36316
11
4.93559
21
-3.35214
0
LINE
8
BLACK
6
CONTINUOUS
10
4.93559
20
-3.35214
11
4.94501
21
-3.34215
0
LINE
8
BLACK
6
CONTINUOUS
10
4.94501
20
-3.34215
11
4.95553
21
-3.33332
0
LINE
8
BLACK
6
CONTINUOUS
10
4.95553
20
-3.33332
11
4.96701
21
-3.32577
0
LINE
8
BLACK
6
CONTINUOUS
10
4.96701
20
-3.32577
11
4.97928
21
-3.31961
0
LINE
8
BLACK
6
CONTINUOUS
10
4.97928
20
-3.31961
11
4.99219
21
-3.31491
0
LINE
8
BLACK
6
CONTINUOUS
10
4.99219
20
-3.31491
11
5.00556
21
-3.31174
0
LINE
8
BLACK
6
CONTINUOUS
10
5.00556
20
-3.31174
11
5.0192
21
-3.31015
0
LINE
8
BLACK
6
CONTINUOUS
10
5.0192
20
-3.31015
11
5.03293
21
-3.31015
0
LINE
8
BLACK
6
CONTINUOUS
10
5.03293
20
-3.31015
11
5.04657
21
-3.31174
0
LINE
8
BLACK
6
CONTINUOUS
10
7.04657
20
-3.31174
11
7.05994
21
-3.31491
0
LINE
8
BLACK
6
CONTINUOUS
10
7.05994
20
-3.31491
11
7.07285
21
-3.31961
0
LINE
8
BLACK
6
CONTINUOUS
10
7.07285
20
-3.31961
11
7.08512
21
-3.32577
0
LINE
8
BLACK
6
CONTINUOUS
10
7.08512
20
-3.32577
11
7.0966
21
-3.33332
0
LINE
8
BLACK
6
CONTINUOUS
10
7.0966
20
-3.33332
11
7.10712
21
-3.34215
0
LINE
8
BLACK
6
CONTINUOUS
10
7.10712
20
-3.34215
11
7.11654
21
-3.35214
0
LINE
8
BLACK
6
CONTINUOUS
10
7.11654
20
-3.35214
11
7.12474
21
-3.36316
0
LINE
8
BLACK
6
CONTINUOUS
10
7.12474
20
-3.36316
11
7.13161
21
-3.37505
0
LINE
8
BLACK
6
CONTINUOUS
10
7.13161
20
-3.37505
11
7.13705
21
-3.38766
0
LINE
8
BLACK
6
CONTINUOUS
10
7.13705
20
-3.38766
11
7.14099
21
-3.40082
0
LINE
8
BLACK
6
CONTINUOUS
10
7.14099
20
-3.40082
11
7.14338
21
-3.41435
0
LINE
8
BLACK
6
CONTINUOUS
10
7.14338
20
-3.41435
11
7.14418
21
-3.42806
0
LINE
8
BLACK
6
CONTINUOUS
10
7.14418
20
-3.42806
11
7.14338
21
-3.44177
0
LINE
8
BLACK
6
CONTINUOUS
10
7.14338
20
-3.44177
11
7.14099
21
-3.4553
0
LINE
8
BLACK
6
CONTINUOUS
10
7.14099
20
-3.4553
11
7.13705
21
-3.46845
0
LINE
8
BLACK
6
CONTINUOUS
10
7.13705
20
-3.46845
11
7.13161
21
-3.48107
0
LINE
8
BLACK
6
CONTINUOUS
10
7.13161
20
-3.48107
11
7.12474
21
-3.49296
0
LINE
8
BLACK
6
CONTINUOUS
10
7.12474
20
-3.49296
11
7.11654
21
-3.50398
0
LINE
8
BLACK
6
CONTINUOUS
10
7.11654
20
-3.50398
11
7.10712
21
-3.51397
0
LINE
8
BLACK
6
CONTINUOUS
10
7.10712
20
-3.51397
11
7.0966
21
-3.5228
0
LINE
8
BLACK
6
CONTINUOUS
10
7.0966
20
-3.5228
11
7.08512
21
-3.53035
0
LINE
8
BLACK
6
CONTINUOUS
10
7.08512
20
-3.53035
11
7.07285
21
-3.53651
0
LINE
8
BLACK
6
CONTINUOUS
10
7.07285
20
-3.53651
11
7.05994
21
-3.54121
0
LINE
8
BLACK
6
CONTINUOUS
10
7.05994
20
-3.54121
11
7.04657
21
-3.54437
0
LINE
8
BLACK
6
CONTINUOUS
10
7.04657
20
-3.54437
11
7.03293
21
-3.54597
0
LINE
8
BLACK
6
CONTINUOUS
10
7.03293
20
-3.54597
11
7.0192
21
-3.54597
0
LINE
8
BLACK
6
CONTINUOUS
10
7.0192
20
-3.54597
11
7.00556
21
-3.54437
0
LINE
8
BLACK
6
CONTINUOUS
10
7.00556
20
-3.54437
11
6.99219
21
-3.54121
0
LINE
8
BLACK
6
CONTINUOUS
10
6.99219
20
-3.54121
11
6.97928
21
-3.53651
0
LINE
8
BLACK
6
CONTINUOUS
10
6.97928
20
-3.53651
11
6.96701
21
-3.53035
0
LINE
8
BLACK
6
CONTINUOUS
10
6.96701
20
-3.53035
11
6.95553
21
-3.5228
0
LINE
8
BLACK
6
CONTINUOUS
10
6.95553
20
-3.5228
11
6.94501
21
-3.51397
0
LINE
8
BLACK
6
CONTINUOUS
10
6.94501
20
-3.51397
11
6.93559
21
-3.50398
0
LINE
8
BLACK
6
CONTINUOUS
10
6.93559
20
-3.50398
11
6.92739
21
-3.49296
0
LINE
8
BLACK
6
CONTINUOUS
10
6.92739
20
-3.49296
11
6.92052
21
-3.48107
0
LINE
8
BLACK
6
CONTINUOUS
10
6.92052
20
-3.48107
11
6.91508
21
-3.46845
0
LINE
8
BLACK
6
CONTINUOUS
10
6.91508
20
-3.46845
11
6.91114
21
-3.4553
0
LINE
8
BLACK
6
CONTINUOUS
10
6.91114
20
-3.4553
11
6.90875
21
-3.44177
0
LINE
8
BLACK
6
CONTINUOUS
10
6.90875
20
-3.44177
11
6.90795
21
-3.42806
0
LINE
8
BLACK
6
CONTINUOUS
10
6.90795
20
-3.42806
11
6.90875
21
-3.41435
0
LINE
8
BLACK
6
CONTINUOUS
10
6.90875
20
-3.41435
11
6.91114
21
-3.40082
0
LINE
8
BLACK
6
CONTINUOUS
10
6.91114
20
-3.40082
11
6.91508
21
-3.38766
0
LINE
8
BLACK
6
CONTINUOUS
10
6.91508
20
-3.38766
11
6.92052
21
-3.37505
0
LINE
8
BLACK
6
CONTINUOUS
10
6.92052
20
-3.37505
11
6.92739
21
-3.36316
0
LINE
8
BLACK
6
CONTINUOUS
10
6.92739
20
-3.36316
11
6.93559
21
-3.35214
0
LINE
8
BLACK
6
CONTINUOUS
10
6.93559
20
-3.35214
11
6.94501
21
-3.34215
0
LINE
8
BLACK
6
CONTINUOUS
10
6.94501
20
-3.34215
11
6.95553
21
-3.33332
0
LINE
8
BLACK
6
CONTINUOUS
10
6.95553
20
-3.33332
11
6.96701
21
-3.32577
0
LINE
8
BLACK
6
CONTINUOUS
10
6.96701
20
-3.32577
11
6.97928
21
-3.31961
0
LINE
8
BLACK
6
CONTINUOUS
10
6.97928
20
-3.31961
11
6.99219
21
-3.31491
0
LINE
8
BLACK
6
CONTINUOUS
10
6.99219
20
-3.31491
11
7.00556
21
-3.31174
0
LINE
8
BLACK
6
CONTINUOUS
10
7.00556
20
-3.31174
11
7.0192
21
-3.31015
0
LINE
8
BLACK
6
CONTINUOUS
10
7.0192
20
-3.31015
11
7.03293
21
-3.31015
0
LINE
8
BLACK
6
CONTINUOUS
10
7.03293
20
-3.31015
11
7.04657
21
-3.31174
0
LINE
8
BLACK
6
CONTINUOUS
10
6.29356
20
-3.53556
11
6.23856
21
-3.53556
0
LINE
8
BLACK
6
CONTINUOUS
10
6.23856
20
-3.53556
11
6.23856
21
-3.50056
0
LINE
8
BLACK
6
CONTINUOUS
10
6.23856
20
-3.50056
11
6.29356
21
-3.50056
0
LINE
8
BLACK
6
CONTINUOUS
10
6.29356
20
-3.50056
11
6.29356
21
-3.53556
0
LINE
8
BLACK
6
CONTINUOUS
10
5.30356
20
-3.53306
11
5.24856
21
-3.53306
0
LINE
8
BLACK
6
CONTINUOUS
10
5.24856
20
-3.53306
11
5.24856
21
-3.49806
0
LINE
8
BLACK
6
CONTINUOUS
10
5.24856
20
-3.49806
11
5.30356
21
-3.49806
0
LINE
8
BLACK
6
CONTINUOUS
10
5.30356
20
-3.49806
11
5.30356
21
-3.53306
0
LINE
8
BLACK
6
CONTINUOUS
10
5.40356
20
-3.53306
11
5.34856
21
-3.53306
0
LINE
8
BLACK
6
CONTINUOUS
10
5.34856
20
-3.53306
11
5.34856
21
-3.49806
0
LINE
8
BLACK
6
CONTINUOUS
10
5.34856
20
-3.49806
11
5.40356
21
-3.49806
0
LINE
8
BLACK
6
CONTINUOUS
10
5.40356
20
-3.49806
11
5.40356
21
-3.53306
0
LINE
8
BLACK
6
CONTINUOUS
10
5.50356
20
-3.53306
11
5.44856
21
-3.53306
0
LINE
8
BLACK
6
CONTINUOUS
10
5.44856
20
-3.53306
11
5.44856
21
-3.49806
0
LINE
8
BLACK
6
CONTINUOUS
10
5.44856
20
-3.49806
11
5.50356
21
-3.49806
0
LINE
8
BLACK
6
CONTINUOUS
10
5.50356
20
-3.49806
11
5.50356
21
-3.53306
0
LINE
8
BLACK
6
CONTINUOUS
10
5.60356
20
-3.53306
11
5.54856
21
-3.53306
0
LINE
8
BLACK
6
CONTINUOUS
10
5.54856
20
-3.53306
11
5.54856
21
-3.49806
0
LINE
8
BLACK
6
CONTINUOUS
10
5.54856
20
-3.49806
11
5.60356
21
-3.49806
0
LINE
8
BLACK
6
CONTINUOUS
10
5.60356
20
-3.49806
11
5.60356
21
-3.53306
0
LINE
8
BLACK
6
CONTINUOUS
10
5.70356
20
-3.53306
11
5.64856
21
-3.53306
0
LINE
8
BLACK
6
CONTINUOUS
10
5.64856
20
-3.53306
11
5.64856
21
-3.49806
0
LINE
8
BLACK
6
CONTINUOUS
10
5.64856
20
-3.49806
11
5.70356
21
-3.49806
0
LINE
8
BLACK
6
CONTINUOUS
10
5.70356
20
-3.49806
11
5.70356
21
-3.53306
0
LINE
8
BLACK
6
CONTINUOUS
10
5.80356
20
-3.53306
11
5.74856
21
-3.53306
0
LINE
8
BLACK
6
CONTINUOUS
10
5.74856
20
-3.53306
11
5.74856
21
-3.49806
0
LINE
8
BLACK
6
CONTINUOUS
10
5.74856
20
-3.49806
11
5.80356
21
-3.49806
0
LINE
8
BLACK
6
CONTINUOUS
10
5.80356
20
-3.49806
11
5.80356
21
-3.53306
0
LINE
8
BLACK
6
CONTINUOUS
10
5.90356
20
-3.53306
11
5.84856
21
-3.53306
0
LINE
8
BLACK
6
CONTINUOUS
10
5.84856
20
-3.53306
11
5.84856
21
-3.49806
0
LINE
8
BLACK
6
CONTINUOUS
10
5.84856
20
-3.49806
11
5.90356
21
-3.49806
0
LINE
8
BLACK
6
CONTINUOUS
10
5.90356
20
-3.49806
11
5.90356
21
-3.53306
0
LINE
8
BLACK
6
CONTINUOUS
10
5.97856
20
-3.53306
11
5.92356
21
-3.53306
0
LINE
8
BLACK
6
CONTINUOUS
10
5.92356
20
-3.53306
11
5.92356
21
-3.49806
0
LINE
8
BLACK
6
CONTINUOUS
10
5.92356
20
-3.49806
11
5.97856
21
-3.49806
0
LINE
8
BLACK
6
CONTINUOUS
10
5.97856
20
-3.49806
11
5.97856
21
-3.53306
0
LINE
8
BLACK
6
CONTINUOUS
10
6.05356
20
-3.53306
11
5.99856
21
-3.53306
0
LINE
8
BLACK
6
CONTINUOUS
10
5.99856
20
-3.53306
11
5.99856
21
-3.49806
0
LINE
8
BLACK
6
CONTINUOUS
10
5.99856
20
-3.49806
11
6.05356
21
-3.49806
0
LINE
8
BLACK
6
CONTINUOUS
10
6.05356
20
-3.49806
11
6.05356
21
-3.53306
0
LINE
8
BLACK
6
CONTINUOUS
10
6.13356
20
-3.53056
11
6.07856
21
-3.53056
0
LINE
8
BLACK
6
CONTINUOUS
10
6.07856
20
-3.53056
11
6.07856
21
-3.49556
0
LINE
8
BLACK
6
CONTINUOUS
10
6.07856
20
-3.49556
11
6.13356
21
-3.49556
0
LINE
8
BLACK
6
CONTINUOUS
10
6.13356
20
-3.49556
11
6.13356
21
-3.53056
0
LINE
8
BLACK
6
CONTINUOUS
10
5.30606
20
-3.45806
11
5.24606
21
-3.45806
0
LINE
8
BLACK
6
CONTINUOUS
10
5.24606
20
-3.45806
11
5.24606
21
-3.39806
0
LINE
8
BLACK
6
CONTINUOUS
10
5.24606
20
-3.39806
11
5.30606
21
-3.39806
0
LINE
8
BLACK
6
CONTINUOUS
10
5.30606
20
-3.39806
11
5.30606
21
-3.45806
0
LINE
8
BLACK
6
CONTINUOUS
10
5.40606
20
-3.45806
11
5.34606
21
-3.45806
0
LINE
8
BLACK
6
CONTINUOUS
10
5.34606
20
-3.45806
11
5.34606
21
-3.39806
0
LINE
8
BLACK
6
CONTINUOUS
10
5.34606
20
-3.39806
11
5.40606
21
-3.39806
0
LINE
8
BLACK
6
CONTINUOUS
10
5.40606
20
-3.39806
11
5.40606
21
-3.45806
0
LINE
8
BLACK
6
CONTINUOUS
10
5.50606
20
-3.45806
11
5.44606
21
-3.45806
0
LINE
8
BLACK
6
CONTINUOUS
10
5.44606
20
-3.45806
11
5.44606
21
-3.39806
0
LINE
8
BLACK
6
CONTINUOUS
10
5.44606
20
-3.39806
11
5.50606
21
-3.39806
0
LINE
8
BLACK
6
CONTINUOUS
10
5.50606
20
-3.39806
11
5.50606
21
-3.45806
0
LINE
8
BLACK
6
CONTINUOUS
10
5.60606
20
-3.45806
11
5.54606
21
-3.45806
0
LINE
8
BLACK
6
CONTINUOUS
10
5.54606
20
-3.45806
11
5.54606
21
-3.39806
0
LINE
8
BLACK
6
CONTINUOUS
10
5.54606
20
-3.39806
11
5.60606
21
-3.39806
0
LINE
8
BLACK
6
CONTINUOUS
10
5.60606
20
-3.39806
11
5.60606
21
-3.45806
0
LINE
8
BLACK
6
CONTINUOUS
10
5.70606
20
-3.45806
11
5.64606
21
-3.45806
0
LINE
8
BLACK
6
CONTINUOUS
10
5.64606
20
-3.45806
11
5.64606
21
-3.39806
0
LINE
8
BLACK
6
CONTINUOUS
10
5.64606
20
-3.39806
11
5.70606
21
-3.39806
0
LINE
8
BLACK
6
CONTINUOUS
10
5.70606
20
-3.39806
11
5.70606
21
-3.45806
0
LINE
8
BLACK
6
CONTINUOUS
10
5.80606
20
-3.45806
11
5.74606
21
-3.45806
0
LINE
8
BLACK
6
CONTINUOUS
10
5.74606
20
-3.45806
11
5.74606
21
-3.39806
0
LINE
8
BLACK
6
CONTINUOUS
10
5.74606
20
-3.39806
11
5.80606
21
-3.39806
0
LINE
8
BLACK
6
CONTINUOUS
10
5.80606
20
-3.39806
11
5.80606
21
-3.45806
0
LINE
8
BLACK
6
CONTINUOUS
10
5.90606
20
-3.45806
11
5.84606
21
-3.45806
0
LINE
8
BLACK
6
CONTINUOUS
10
5.84606
20
-3.45806
11
5.84606
21
-3.39806
0
LINE
8
BLACK
6
CONTINUOUS
10
5.84606
20
-3.39806
11
5.90606
21
-3.39806
0
LINE
8
BLACK
6
CONTINUOUS
10
5.90606
20
-3.39806
11
5.90606
21
-3.45806
0
LINE
8
BLACK
6
CONTINUOUS
10
6.00606
20
-3.45806
11
5.94606
21
-3.45806
0
LINE
8
BLACK
6
CONTINUOUS
10
5.94606
20
-3.45806
11
5.94606
21
-3.39806
0
LINE
8
BLACK
6
CONTINUOUS
10
5.94606
20
-3.39806
11
6.00606
21
-3.39806
0
LINE
8
BLACK
6
CONTINUOUS
10
6.00606
20
-3.39806
11
6.00606
21
-3.45806
0
LINE
8
BLACK
6
CONTINUOUS
10
6.10606
20
-3.45806
11
6.04606
21
-3.45806
0
LINE
8
BLACK
6
CONTINUOUS
10
6.04606
20
-3.45806
11
6.04606
21
-3.39806
0
LINE
8
BLACK
6
CONTINUOUS
10
6.04606
20
-3.39806
11
6.10606
21
-3.39806
0
LINE
8
BLACK
6
CONTINUOUS
10
6.10606
20
-3.39806
11
6.10606
21
-3.45806
0
LINE
8
BLACK
6
CONTINUOUS
10
6.21356
20
-3.45556
11
6.15856
21
-3.45556
0
LINE
8
BLACK
6
CONTINUOUS
10
6.15856
20
-3.45556
11
6.15856
21
-3.42056
0
LINE
8
BLACK
6
CONTINUOUS
10
6.15856
20
-3.42056
11
6.21356
21
-3.42056
0
LINE
8
BLACK
6
CONTINUOUS
10
6.21356
20
-3.42056
11
6.21356
21
-3.45556
0
LINE
8
BLACK
6
CONTINUOUS
10
6.21356
20
-3.38056
11
6.15856
21
-3.38056
0
LINE
8
BLACK
6
CONTINUOUS
10
6.15856
20
-3.38056
11
6.15856
21
-3.34556
0
LINE
8
BLACK
6
CONTINUOUS
10
6.15856
20
-3.34556
11
6.21356
21
-3.34556
0
LINE
8
BLACK
6
CONTINUOUS
10
6.21356
20
-3.34556
11
6.21356
21
-3.38056
0
LINE
8
BLACK
6
CONTINUOUS
10
5.30606
20
-3.35806
11
5.24606
21
-3.35806
0
LINE
8
BLACK
6
CONTINUOUS
10
5.24606
20
-3.35806
11
5.24606
21
-3.29806
0
LINE
8
BLACK
6
CONTINUOUS
10
5.24606
20
-3.29806
11
5.30606
21
-3.29806
0
LINE
8
BLACK
6
CONTINUOUS
10
5.30606
20
-3.29806
11
5.30606
21
-3.35806
0
LINE
8
BLACK
6
CONTINUOUS
10
5.40606
20
-3.35806
11
5.34606
21
-3.35806
0
LINE
8
BLACK
6
CONTINUOUS
10
5.34606
20
-3.35806
11
5.34606
21
-3.29806
0
LINE
8
BLACK
6
CONTINUOUS
10
5.34606
20
-3.29806
11
5.40606
21
-3.29806
0
LINE
8
BLACK
6
CONTINUOUS
10
5.40606
20
-3.29806
11
5.40606
21
-3.35806
0
LINE
8
BLACK
6
CONTINUOUS
10
5.50606
20
-3.35806
11
5.44606
21
-3.35806
0
LINE
8
BLACK
6
CONTINUOUS
10
5.44606
20
-3.35806
11
5.44606
21
-3.29806
0
LINE
8
BLACK
6
CONTINUOUS
10
5.44606
20
-3.29806
11
5.50606
21
-3.29806
0
LINE
8
BLACK
6
CONTINUOUS
10
5.50606
20
-3.29806
11
5.50606
21
-3.35806
0
LINE
8
BLACK
6
CONTINUOUS
10
5.60606
20
-3.35806
11
5.54606
21
-3.35806
0
LINE
8
BLACK
6
CONTINUOUS
10
5.54606
20
-3.35806
11
5.54606
21
-3.29806
0
LINE
8
BLACK
6
CONTINUOUS
10
5.54606
20
-3.29806
11
5.60606
21
-3.29806
0
LINE
8
BLACK
6
CONTINUOUS
10
5.60606
20
-3.29806
11
5.60606
21
-3.35806
0
LINE
8
BLACK
6
CONTINUOUS
10
5.70606
20
-3.35806
11
5.64606
21
-3.35806
0
LINE
8
BLACK
6
CONTINUOUS
10
5.64606
20
-3.35806
11
5.64606
21
-3.29806
0
LINE
8
BLACK
6
CONTINUOUS
10
5.64606
20
-3.29806
11
5.70606
21
-3.29806
0
LINE
8
BLACK
6
CONTINUOUS
10
5.70606
20
-3.29806
11
5.70606
21
-3.35806
0
LINE
8
BLACK
6
CONTINUOUS
10
5.80606
20
-3.35806
11
5.74606
21
-3.35806
0
LINE
8
BLACK
6
CONTINUOUS
10
5.74606
20
-3.35806
11
5.74606
21
-3.29806
0
LINE
8
BLACK
6
CONTINUOUS
10
5.74606
20
-3.29806
11
5.80606
21
-3.29806
0
LINE
8
BLACK
6
CONTINUOUS
10
5.80606
20
-3.29806
11
5.80606
21
-3.35806
0
LINE
8
BLACK
6
CONTINUOUS
10
5.90606
20
-3.35806
11
5.84606
21
-3.35806
0
LINE
8
BLACK
6
CONTINUOUS
10
5.84606
20
-3.35806
11
5.84606
21
-3.29806
0
LINE
8
BLACK
6
CONTINUOUS
10
5.84606
20
-3.29806
11
5.90606
21
-3.29806
0
LINE
8
BLACK
6
CONTINUOUS
10
5.90606
20
-3.29806
11
5.90606
21
-3.35806
0
LINE
8
BLACK
6
CONTINUOUS
10
6.00606
20
-3.35806
11
5.94606
21
-3.35806
0
LINE
8
BLACK
6
CONTINUOUS
10
5.94606
20
-3.35806
11
5.94606
21
-3.29806
0
LINE
8
BLACK
6
CONTINUOUS
10
5.94606
20
-3.29806
11
6.00606
21
-3.29806
0
LINE
8
BLACK
6
CONTINUOUS
10
6.00606
20
-3.29806
11
6.00606
21
-3.35806
0
LINE
8
BLACK
6
CONTINUOUS
10
6.10606
20
-3.35806
11
6.04606
21
-3.35806
0
LINE
8
BLACK
6
CONTINUOUS
10
6.04606
20
-3.35806
11
6.04606
21
-3.29806
0
LINE
8
BLACK
6
CONTINUOUS
10
6.04606
20
-3.29806
11
6.10606
21
-3.29806
0
LINE
8
BLACK
6
CONTINUOUS
10
6.10606
20
-3.29806
11
6.10606
21
-3.35806
  0
ENDSEC
  0
EOF
