  0
SECTION
  2
HEADER
  9
$ANGBASE
  50
0.0
  9
$ANGDIR
  70
1
  9
$MEASUREMENT
  70
0
  0
ENDSEC
  0
SECTION
  2
TABLES
  0
TABLE
  2
LTYPE
  70
4
  0
LTYPE
  5
40F
  2
CONTINUOUS
  70
0
  3
Solid line
  72
65
  73
0
  40
0.0
  0
LTYPE
  5
410
  2
DASHDOT
 70
0
  3
Dash Dot ____ _ ____ _
 72
65
 73
4
 40
2.0
 49
1.25
 49
-0.25
 49
0.25
 49
-0.25
  0
LTYPE
  5
411
  2
DASHED
 70
0
  3
Dashed __ __ __ __ __
 72
65
 73
2
 40
0.75
 49
0.5
 49
-0.25
  0
LTYPE
  5
43B
  2
DOTTED
 70
0
  3
Dotted .  .  .  .
 72
65
 73
2
 40
0.2
 49
0.0
 49
-0.2
  0
ENDTAB
  0
TABLE
  2
STYLE
  70
4
  0
STYLE
  2
KICAD
  70
0
  40
0
  41
1
  42
1
  50
0
  71
0
  3
isocp.shx
  0
STYLE
  2
KICADB
  70
0
  40
0
  41
1
  42
1
  50
0
  71
0
  3
isocp.shx
  0
STYLE
  2
KICADI
  70
0
  40
0
  41
1
  42
1
  50
15
  71
0
  3
isocp.shx
  0
STYLE
  2
KICADBI
  70
0
  40
0
  41
1
  42
1
  50
15
  71
0
  3
isocp.shx
  0
ENDTAB
  0
TABLE
  2
LAYER
  70
1
  0
LAYER
  2
BLACK
  70
0
  62
7
  6
CONTINUOUS
  0
ENDTAB
  0
ENDSEC
  0
SECTION
  2
ENTITIES
0
LINE
8
BLACK
6
CONTINUOUS
10
0.214917
20
0.325098
11
0.228769
21
0.322656
0
LINE
8
BLACK
6
CONTINUOUS
10
0.228769
20
0.322656
11
0.242262
21
0.318684
0
LINE
8
BLACK
6
CONTINUOUS
10
0.242262
20
0.318684
11
0.255228
21
0.313234
0
LINE
8
BLACK
6
CONTINUOUS
10
0.255228
20
0.313234
11
0.267506
21
0.306372
0
LINE
8
BLACK
6
CONTINUOUS
10
0.267506
20
0.306372
11
0.278942
21
0.298184
0
LINE
8
BLACK
6
CONTINUOUS
10
0.278942
20
0.298184
11
0.289395
21
0.288773
0
LINE
8
BLACK
6
CONTINUOUS
10
0.289395
20
0.288773
11
0.298733
21
0.278255
0
LINE
8
BLACK
6
CONTINUOUS
10
0.298733
20
0.278255
11
0.306841
21
0.266761
0
LINE
8
BLACK
6
CONTINUOUS
10
0.306841
20
0.266761
11
0.313617
21
0.254436
0
LINE
8
BLACK
6
CONTINUOUS
10
0.313617
20
0.254436
11
0.318976
21
0.241432
0
LINE
8
BLACK
6
CONTINUOUS
10
0.318976
20
0.241432
11
0.322853
21
0.227912
0
LINE
8
BLACK
6
CONTINUOUS
10
0.322853
20
0.227912
11
0.325199
21
0.214043
0
LINE
8
BLACK
6
CONTINUOUS
10
0.325199
20
0.214043
11
0.325984
21
0.2
0
LINE
8
BLACK
6
CONTINUOUS
10
0.325984
20
0.2
11
0.325935
21
0.196482
0
LINE
8
BLACK
6
CONTINUOUS
10
0.325935
20
0.196482
11
0.324758
21
0.182466
0
LINE
8
BLACK
6
CONTINUOUS
10
0.324758
20
0.182466
11
0.322026
21
0.168669
0
LINE
8
BLACK
6
CONTINUOUS
10
0.322026
20
0.168669
11
0.317773
21
0.155262
0
LINE
8
BLACK
6
CONTINUOUS
10
0.317773
20
0.155262
11
0.312052
21
0.142413
0
LINE
8
BLACK
6
CONTINUOUS
10
0.312052
20
0.142413
11
0.304935
21
0.130281
0
LINE
8
BLACK
6
CONTINUOUS
10
0.304935
20
0.130281
11
0.296509
21
0.119019
0
LINE
8
BLACK
6
CONTINUOUS
10
0.296509
20
0.119019
11
0.286881
21
0.108766
0
LINE
8
BLACK
6
CONTINUOUS
10
0.286881
20
0.108766
11
0.27617
21
0.0996498
0
LINE
8
BLACK
6
CONTINUOUS
10
0.27617
20
0.0996498
11
0.264509
21
0.0917846
0
LINE
8
BLACK
6
CONTINUOUS
10
0.264509
20
0.0917846
11
0.252045
21
0.0852682
0
LINE
8
BLACK
6
CONTINUOUS
10
0.252045
20
0.0852682
11
0.238931
21
0.0801819
0
LINE
8
BLACK
6
CONTINUOUS
10
0.238931
20
0.0801819
11
0.225333
21
0.076589
0
LINE
8
BLACK
6
CONTINUOUS
10
0.225333
20
0.076589
11
0.211418
21
0.0745343
0
LINE
8
BLACK
6
CONTINUOUS
10
0.211418
20
0.0745343
11
0.197362
21
0.0740434
0
LINE
8
BLACK
6
CONTINUOUS
10
0.197362
20
0.0740434
11
0.183338
21
0.0751225
0
LINE
8
BLACK
6
CONTINUOUS
10
0.183338
20
0.0751225
11
0.169522
21
0.0777581
0
LINE
8
BLACK
6
CONTINUOUS
10
0.169522
20
0.0777581
11
0.156085
21
0.0819173
0
LINE
8
BLACK
6
CONTINUOUS
10
0.156085
20
0.0819173
11
0.143197
21
0.0875483
0
LINE
8
BLACK
6
CONTINUOUS
10
0.143197
20
0.0875483
11
0.131016
21
0.0945809
0
LINE
8
BLACK
6
CONTINUOUS
10
0.131016
20
0.0945809
11
0.119695
21
0.102927
0
LINE
8
BLACK
6
CONTINUOUS
10
0.119695
20
0.102927
11
0.109375
21
0.112484
0
LINE
8
BLACK
6
CONTINUOUS
10
0.109375
20
0.112484
11
0.100184
21
0.123131
0
LINE
8
BLACK
6
CONTINUOUS
10
0.100184
20
0.123131
11
0.0922376
21
0.134737
0
LINE
8
BLACK
6
CONTINUOUS
10
0.0922376
20
0.134737
11
0.0856344
21
0.147156
0
LINE
8
BLACK
6
CONTINUOUS
10
0.0856344
20
0.147156
11
0.0804566
21
0.160233
0
LINE
8
BLACK
6
CONTINUOUS
10
0.0804566
20
0.160233
11
0.0767689
21
0.173806
0
LINE
8
BLACK
6
CONTINUOUS
10
0.0767689
20
0.173806
11
0.074617
21
0.187706
0
LINE
8
BLACK
6
CONTINUOUS
10
0.074617
20
0.187706
11
0.0740281
21
0.201759
0
LINE
8
BLACK
6
CONTINUOUS
10
0.0740281
20
0.201759
11
0.0750092
21
0.21579
0
LINE
8
BLACK
6
CONTINUOUS
10
0.0750092
20
0.21579
11
0.0775483
21
0.229624
0
LINE
8
BLACK
6
CONTINUOUS
10
0.0775483
20
0.229624
11
0.0816136
21
0.243089
0
LINE
8
BLACK
6
CONTINUOUS
10
0.0816136
20
0.243089
11
0.0871544
21
0.256017
0
LINE
8
BLACK
6
CONTINUOUS
10
0.0871544
20
0.256017
11
0.0941019
21
0.268247
0
LINE
8
BLACK
6
CONTINUOUS
10
0.0941019
20
0.268247
11
0.102369
21
0.279626
0
LINE
8
BLACK
6
CONTINUOUS
10
0.102369
20
0.279626
11
0.111853
21
0.290012
0
LINE
8
BLACK
6
CONTINUOUS
10
0.111853
20
0.290012
11
0.122436
21
0.299277
0
LINE
8
BLACK
6
CONTINUOUS
10
0.122436
20
0.299277
11
0.133986
21
0.307304
0
LINE
8
BLACK
6
CONTINUOUS
10
0.133986
20
0.307304
11
0.146359
21
0.313994
0
LINE
8
BLACK
6
CONTINUOUS
10
0.146359
20
0.313994
11
0.1594
21
0.319263
0
LINE
8
BLACK
6
CONTINUOUS
10
0.1594
20
0.319263
11
0.172947
21
0.323045
0
LINE
8
BLACK
6
CONTINUOUS
10
0.172947
20
0.323045
11
0.186831
21
0.325294
0
LINE
8
BLACK
6
CONTINUOUS
10
0.186831
20
0.325294
11
0.20088
21
0.325981
0
LINE
8
BLACK
6
CONTINUOUS
10
0.20088
20
0.325981
11
0.214917
21
0.325098
0
LINE
8
BLACK
6
CONTINUOUS
10
2.21492
20
0.325098
11
2.22877
21
0.322656
0
LINE
8
BLACK
6
CONTINUOUS
10
2.22877
20
0.322656
11
2.24226
21
0.318684
0
LINE
8
BLACK
6
CONTINUOUS
10
2.24226
20
0.318684
11
2.25523
21
0.313234
0
LINE
8
BLACK
6
CONTINUOUS
10
2.25523
20
0.313234
11
2.26751
21
0.306372
0
LINE
8
BLACK
6
CONTINUOUS
10
2.26751
20
0.306372
11
2.27894
21
0.298184
0
LINE
8
BLACK
6
CONTINUOUS
10
2.27894
20
0.298184
11
2.28939
21
0.288773
0
LINE
8
BLACK
6
CONTINUOUS
10
2.28939
20
0.288773
11
2.29873
21
0.278255
0
LINE
8
BLACK
6
CONTINUOUS
10
2.29873
20
0.278255
11
2.30684
21
0.266761
0
LINE
8
BLACK
6
CONTINUOUS
10
2.30684
20
0.266761
11
2.31362
21
0.254436
0
LINE
8
BLACK
6
CONTINUOUS
10
2.31362
20
0.254436
11
2.31898
21
0.241432
0
LINE
8
BLACK
6
CONTINUOUS
10
2.31898
20
0.241432
11
2.32285
21
0.227912
0
LINE
8
BLACK
6
CONTINUOUS
10
2.32285
20
0.227912
11
2.3252
21
0.214043
0
LINE
8
BLACK
6
CONTINUOUS
10
2.3252
20
0.214043
11
2.32598
21
0.2
0
LINE
8
BLACK
6
CONTINUOUS
10
2.32598
20
0.2
11
2.32594
21
0.196482
0
LINE
8
BLACK
6
CONTINUOUS
10
2.32594
20
0.196482
11
2.32476
21
0.182466
0
LINE
8
BLACK
6
CONTINUOUS
10
2.32476
20
0.182466
11
2.32203
21
0.168669
0
LINE
8
BLACK
6
CONTINUOUS
10
2.32203
20
0.168669
11
2.31777
21
0.155262
0
LINE
8
BLACK
6
CONTINUOUS
10
2.31777
20
0.155262
11
2.31205
21
0.142413
0
LINE
8
BLACK
6
CONTINUOUS
10
2.31205
20
0.142413
11
2.30493
21
0.130281
0
LINE
8
BLACK
6
CONTINUOUS
10
2.30493
20
0.130281
11
2.29651
21
0.119019
0
LINE
8
BLACK
6
CONTINUOUS
10
2.29651
20
0.119019
11
2.28688
21
0.108766
0
LINE
8
BLACK
6
CONTINUOUS
10
2.28688
20
0.108766
11
2.27617
21
0.0996498
0
LINE
8
BLACK
6
CONTINUOUS
10
2.27617
20
0.0996498
11
2.26451
21
0.0917846
0
LINE
8
BLACK
6
CONTINUOUS
10
2.26451
20
0.0917846
11
2.25204
21
0.0852682
0
LINE
8
BLACK
6
CONTINUOUS
10
2.25204
20
0.0852682
11
2.23893
21
0.0801819
0
LINE
8
BLACK
6
CONTINUOUS
10
2.23893
20
0.0801819
11
2.22533
21
0.076589
0
LINE
8
BLACK
6
CONTINUOUS
10
2.22533
20
0.076589
11
2.21142
21
0.0745343
0
LINE
8
BLACK
6
CONTINUOUS
10
2.21142
20
0.0745343
11
2.19736
21
0.0740434
0
LINE
8
BLACK
6
CONTINUOUS
10
2.19736
20
0.0740434
11
2.18334
21
0.0751225
0
LINE
8
BLACK
6
CONTINUOUS
10
2.18334
20
0.0751225
11
2.16952
21
0.0777581
0
LINE
8
BLACK
6
CONTINUOUS
10
2.16952
20
0.0777581
11
2.15609
21
0.0819173
0
LINE
8
BLACK
6
CONTINUOUS
10
2.15609
20
0.0819173
11
2.1432
21
0.0875483
0
LINE
8
BLACK
6
CONTINUOUS
10
2.1432
20
0.0875483
11
2.13102
21
0.0945809
0
LINE
8
BLACK
6
CONTINUOUS
10
2.13102
20
0.0945809
11
2.11969
21
0.102927
0
LINE
8
BLACK
6
CONTINUOUS
10
2.11969
20
0.102927
11
2.10937
21
0.112484
0
LINE
8
BLACK
6
CONTINUOUS
10
2.10937
20
0.112484
11
2.10018
21
0.123131
0
LINE
8
BLACK
6
CONTINUOUS
10
2.10018
20
0.123131
11
2.09224
21
0.134737
0
LINE
8
BLACK
6
CONTINUOUS
10
2.09224
20
0.134737
11
2.08563
21
0.147156
0
LINE
8
BLACK
6
CONTINUOUS
10
2.08563
20
0.147156
11
2.08046
21
0.160233
0
LINE
8
BLACK
6
CONTINUOUS
10
2.08046
20
0.160233
11
2.07677
21
0.173806
0
LINE
8
BLACK
6
CONTINUOUS
10
2.07677
20
0.173806
11
2.07462
21
0.187706
0
LINE
8
BLACK
6
CONTINUOUS
10
2.07462
20
0.187706
11
2.07403
21
0.201759
0
LINE
8
BLACK
6
CONTINUOUS
10
2.07403
20
0.201759
11
2.07501
21
0.21579
0
LINE
8
BLACK
6
CONTINUOUS
10
2.07501
20
0.21579
11
2.07755
21
0.229624
0
LINE
8
BLACK
6
CONTINUOUS
10
2.07755
20
0.229624
11
2.08161
21
0.243089
0
LINE
8
BLACK
6
CONTINUOUS
10
2.08161
20
0.243089
11
2.08715
21
0.256017
0
LINE
8
BLACK
6
CONTINUOUS
10
2.08715
20
0.256017
11
2.0941
21
0.268247
0
LINE
8
BLACK
6
CONTINUOUS
10
2.0941
20
0.268247
11
2.10237
21
0.279626
0
LINE
8
BLACK
6
CONTINUOUS
10
2.10237
20
0.279626
11
2.11185
21
0.290012
0
LINE
8
BLACK
6
CONTINUOUS
10
2.11185
20
0.290012
11
2.12244
21
0.299277
0
LINE
8
BLACK
6
CONTINUOUS
10
2.12244
20
0.299277
11
2.13399
21
0.307304
0
LINE
8
BLACK
6
CONTINUOUS
10
2.13399
20
0.307304
11
2.14636
21
0.313994
0
LINE
8
BLACK
6
CONTINUOUS
10
2.14636
20
0.313994
11
2.1594
21
0.319263
0
LINE
8
BLACK
6
CONTINUOUS
10
2.1594
20
0.319263
11
2.17295
21
0.323045
0
LINE
8
BLACK
6
CONTINUOUS
10
2.17295
20
0.323045
11
2.18683
21
0.325294
0
LINE
8
BLACK
6
CONTINUOUS
10
2.18683
20
0.325294
11
2.20088
21
0.325981
0
LINE
8
BLACK
6
CONTINUOUS
10
2.20088
20
0.325981
11
2.21492
21
0.325098
0
LINE
8
BLACK
6
CONTINUOUS
10
1.91923
20
0.222342
11
1.92818
21
0.219944
0
LINE
8
BLACK
6
CONTINUOUS
10
1.92818
20
0.219944
11
1.93657
21
0.216029
0
LINE
8
BLACK
6
CONTINUOUS
10
1.93657
20
0.216029
11
1.94416
21
0.210715
0
LINE
8
BLACK
6
CONTINUOUS
10
1.94416
20
0.210715
11
1.95071
21
0.204164
0
LINE
8
BLACK
6
CONTINUOUS
10
1.95071
20
0.204164
11
1.95603
21
0.196575
0
LINE
8
BLACK
6
CONTINUOUS
10
1.95603
20
0.196575
11
1.95994
21
0.188178
0
LINE
8
BLACK
6
CONTINUOUS
10
1.95994
20
0.188178
11
1.96234
21
0.179229
0
LINE
8
BLACK
6
CONTINUOUS
10
1.96234
20
0.179229
11
1.96315
21
0.17
0
LINE
8
BLACK
6
CONTINUOUS
10
1.96315
20
0.17
11
1.96234
21
0.160771
0
LINE
8
BLACK
6
CONTINUOUS
10
1.96234
20
0.160771
11
1.95994
21
0.151822
0
LINE
8
BLACK
6
CONTINUOUS
10
1.95994
20
0.151822
11
1.95603
21
0.143425
0
LINE
8
BLACK
6
CONTINUOUS
10
1.95603
20
0.143425
11
1.95071
21
0.135836
0
LINE
8
BLACK
6
CONTINUOUS
10
1.95071
20
0.135836
11
1.94416
21
0.129285
0
LINE
8
BLACK
6
CONTINUOUS
10
1.94416
20
0.129285
11
1.93657
21
0.123971
0
LINE
8
BLACK
6
CONTINUOUS
10
1.93657
20
0.123971
11
1.92818
21
0.120056
0
LINE
8
BLACK
6
CONTINUOUS
10
1.92818
20
0.120056
11
1.91923
21
0.117658
0
LINE
8
BLACK
6
CONTINUOUS
10
1.91923
20
0.117658
11
1.91
21
0.11685
0
LINE
8
BLACK
6
CONTINUOUS
10
1.91
20
0.11685
11
1.90077
21
0.117658
0
LINE
8
BLACK
6
CONTINUOUS
10
1.90077
20
0.117658
11
1.89182
21
0.120056
0
LINE
8
BLACK
6
CONTINUOUS
10
1.89182
20
0.120056
11
1.88343
21
0.123971
0
LINE
8
BLACK
6
CONTINUOUS
10
1.88343
20
0.123971
11
1.87584
21
0.129285
0
LINE
8
BLACK
6
CONTINUOUS
10
1.87584
20
0.129285
11
1.86929
21
0.135836
0
LINE
8
BLACK
6
CONTINUOUS
10
1.86929
20
0.135836
11
1.86397
21
0.143425
0
LINE
8
BLACK
6
CONTINUOUS
10
1.86397
20
0.143425
11
1.86006
21
0.151822
0
LINE
8
BLACK
6
CONTINUOUS
10
1.86006
20
0.151822
11
1.85766
21
0.160771
0
LINE
8
BLACK
6
CONTINUOUS
10
1.85766
20
0.160771
11
1.85685
21
0.17
0
LINE
8
BLACK
6
CONTINUOUS
10
1.85685
20
0.17
11
1.85766
21
0.179229
0
LINE
8
BLACK
6
CONTINUOUS
10
1.85766
20
0.179229
11
1.86006
21
0.188178
0
LINE
8
BLACK
6
CONTINUOUS
10
1.86006
20
0.188178
11
1.86397
21
0.196575
0
LINE
8
BLACK
6
CONTINUOUS
10
1.86397
20
0.196575
11
1.86929
21
0.204164
0
LINE
8
BLACK
6
CONTINUOUS
10
1.86929
20
0.204164
11
1.87584
21
0.210715
0
LINE
8
BLACK
6
CONTINUOUS
10
1.87584
20
0.210715
11
1.88343
21
0.216029
0
LINE
8
BLACK
6
CONTINUOUS
10
1.88343
20
0.216029
11
1.89182
21
0.219944
0
LINE
8
BLACK
6
CONTINUOUS
10
1.89182
20
0.219944
11
1.90077
21
0.222342
0
LINE
8
BLACK
6
CONTINUOUS
10
1.90077
20
0.222342
11
1.91
21
0.22315
0
LINE
8
BLACK
6
CONTINUOUS
10
1.91
20
0.22315
11
1.91923
21
0.222342
0
LINE
8
BLACK
6
CONTINUOUS
10
1.77923
20
0.222342
11
1.78818
21
0.219944
0
LINE
8
BLACK
6
CONTINUOUS
10
1.78818
20
0.219944
11
1.79657
21
0.216029
0
LINE
8
BLACK
6
CONTINUOUS
10
1.79657
20
0.216029
11
1.80416
21
0.210715
0
LINE
8
BLACK
6
CONTINUOUS
10
1.80416
20
0.210715
11
1.81071
21
0.204164
0
LINE
8
BLACK
6
CONTINUOUS
10
1.81071
20
0.204164
11
1.81603
21
0.196575
0
LINE
8
BLACK
6
CONTINUOUS
10
1.81603
20
0.196575
11
1.81994
21
0.188178
0
LINE
8
BLACK
6
CONTINUOUS
10
1.81994
20
0.188178
11
1.82234
21
0.179229
0
LINE
8
BLACK
6
CONTINUOUS
10
1.82234
20
0.179229
11
1.82315
21
0.17
0
LINE
8
BLACK
6
CONTINUOUS
10
1.82315
20
0.17
11
1.82234
21
0.160771
0
LINE
8
BLACK
6
CONTINUOUS
10
1.82234
20
0.160771
11
1.81994
21
0.151822
0
LINE
8
BLACK
6
CONTINUOUS
10
1.81994
20
0.151822
11
1.81603
21
0.143425
0
LINE
8
BLACK
6
CONTINUOUS
10
1.81603
20
0.143425
11
1.81071
21
0.135836
0
LINE
8
BLACK
6
CONTINUOUS
10
1.81071
20
0.135836
11
1.80416
21
0.129285
0
LINE
8
BLACK
6
CONTINUOUS
10
1.80416
20
0.129285
11
1.79657
21
0.123971
0
LINE
8
BLACK
6
CONTINUOUS
10
1.79657
20
0.123971
11
1.78818
21
0.120056
0
LINE
8
BLACK
6
CONTINUOUS
10
1.78818
20
0.120056
11
1.77923
21
0.117658
0
LINE
8
BLACK
6
CONTINUOUS
10
1.77923
20
0.117658
11
1.77
21
0.11685
0
LINE
8
BLACK
6
CONTINUOUS
10
1.77
20
0.11685
11
1.76077
21
0.117658
0
LINE
8
BLACK
6
CONTINUOUS
10
1.76077
20
0.117658
11
1.75182
21
0.120056
0
LINE
8
BLACK
6
CONTINUOUS
10
1.75182
20
0.120056
11
1.74343
21
0.123971
0
LINE
8
BLACK
6
CONTINUOUS
10
1.74343
20
0.123971
11
1.73584
21
0.129285
0
LINE
8
BLACK
6
CONTINUOUS
10
1.73584
20
0.129285
11
1.72929
21
0.135836
0
LINE
8
BLACK
6
CONTINUOUS
10
1.72929
20
0.135836
11
1.72397
21
0.143425
0
LINE
8
BLACK
6
CONTINUOUS
10
1.72397
20
0.143425
11
1.72006
21
0.151822
0
LINE
8
BLACK
6
CONTINUOUS
10
1.72006
20
0.151822
11
1.71766
21
0.160771
0
LINE
8
BLACK
6
CONTINUOUS
10
1.71766
20
0.160771
11
1.71685
21
0.17
0
LINE
8
BLACK
6
CONTINUOUS
10
1.71685
20
0.17
11
1.71766
21
0.179229
0
LINE
8
BLACK
6
CONTINUOUS
10
1.71766
20
0.179229
11
1.72006
21
0.188178
0
LINE
8
BLACK
6
CONTINUOUS
10
1.72006
20
0.188178
11
1.72397
21
0.196575
0
LINE
8
BLACK
6
CONTINUOUS
10
1.72397
20
0.196575
11
1.72929
21
0.204164
0
LINE
8
BLACK
6
CONTINUOUS
10
1.72929
20
0.204164
11
1.73584
21
0.210715
0
LINE
8
BLACK
6
CONTINUOUS
10
1.73584
20
0.210715
11
1.74343
21
0.216029
0
LINE
8
BLACK
6
CONTINUOUS
10
1.74343
20
0.216029
11
1.75182
21
0.219944
0
LINE
8
BLACK
6
CONTINUOUS
10
1.75182
20
0.219944
11
1.76077
21
0.222342
0
LINE
8
BLACK
6
CONTINUOUS
10
1.76077
20
0.222342
11
1.77
21
0.22315
0
LINE
8
BLACK
6
CONTINUOUS
10
1.77
20
0.22315
11
1.77923
21
0.222342
0
LINE
8
BLACK
6
CONTINUOUS
10
1.55301
20
0.197275
11
1.55557
21
0.195568
0
LINE
8
BLACK
6
CONTINUOUS
10
1.55557
20
0.195568
11
1.55727
21
0.193013
0
LINE
8
BLACK
6
CONTINUOUS
10
1.55727
20
0.193013
11
1.55787
21
0.19
0
LINE
8
BLACK
6
CONTINUOUS
10
1.55787
20
0.19
11
1.55787
21
0.13
0
LINE
8
BLACK
6
CONTINUOUS
10
1.55787
20
0.13
11
1.55727
21
0.126987
0
LINE
8
BLACK
6
CONTINUOUS
10
1.55727
20
0.126987
11
1.55557
21
0.124432
0
LINE
8
BLACK
6
CONTINUOUS
10
1.55557
20
0.124432
11
1.55301
21
0.122725
0
LINE
8
BLACK
6
CONTINUOUS
10
1.55301
20
0.122725
11
1.55
21
0.122126
0
LINE
8
BLACK
6
CONTINUOUS
10
1.55
20
0.122126
11
1.49
21
0.122126
0
LINE
8
BLACK
6
CONTINUOUS
10
1.49
20
0.122126
11
1.48699
21
0.122725
0
LINE
8
BLACK
6
CONTINUOUS
10
1.48699
20
0.122725
11
1.48443
21
0.124432
0
LINE
8
BLACK
6
CONTINUOUS
10
1.48443
20
0.124432
11
1.48273
21
0.126987
0
LINE
8
BLACK
6
CONTINUOUS
10
1.48273
20
0.126987
11
1.48213
21
0.13
0
LINE
8
BLACK
6
CONTINUOUS
10
1.48213
20
0.13
11
1.48213
21
0.19
0
LINE
8
BLACK
6
CONTINUOUS
10
1.48213
20
0.19
11
1.48273
21
0.193013
0
LINE
8
BLACK
6
CONTINUOUS
10
1.48273
20
0.193013
11
1.48443
21
0.195568
0
LINE
8
BLACK
6
CONTINUOUS
10
1.48443
20
0.195568
11
1.48699
21
0.197275
0
LINE
8
BLACK
6
CONTINUOUS
10
1.48699
20
0.197275
11
1.49
21
0.197874
0
LINE
8
BLACK
6
CONTINUOUS
10
1.49
20
0.197874
11
1.55
21
0.197874
0
LINE
8
BLACK
6
CONTINUOUS
10
1.55
20
0.197874
11
1.55301
21
0.197275
0
LINE
8
BLACK
6
CONTINUOUS
10
1.65301
20
0.197275
11
1.65557
21
0.195568
0
LINE
8
BLACK
6
CONTINUOUS
10
1.65557
20
0.195568
11
1.65727
21
0.193013
0
LINE
8
BLACK
6
CONTINUOUS
10
1.65727
20
0.193013
11
1.65787
21
0.19
0
LINE
8
BLACK
6
CONTINUOUS
10
1.65787
20
0.19
11
1.65787
21
0.13
0
LINE
8
BLACK
6
CONTINUOUS
10
1.65787
20
0.13
11
1.65727
21
0.126987
0
LINE
8
BLACK
6
CONTINUOUS
10
1.65727
20
0.126987
11
1.65557
21
0.124432
0
LINE
8
BLACK
6
CONTINUOUS
10
1.65557
20
0.124432
11
1.65301
21
0.122725
0
LINE
8
BLACK
6
CONTINUOUS
10
1.65301
20
0.122725
11
1.65
21
0.122126
0
LINE
8
BLACK
6
CONTINUOUS
10
1.65
20
0.122126
11
1.59
21
0.122126
0
LINE
8
BLACK
6
CONTINUOUS
10
1.59
20
0.122126
11
1.58699
21
0.122725
0
LINE
8
BLACK
6
CONTINUOUS
10
1.58699
20
0.122725
11
1.58443
21
0.124432
0
LINE
8
BLACK
6
CONTINUOUS
10
1.58443
20
0.124432
11
1.58273
21
0.126987
0
LINE
8
BLACK
6
CONTINUOUS
10
1.58273
20
0.126987
11
1.58213
21
0.13
0
LINE
8
BLACK
6
CONTINUOUS
10
1.58213
20
0.13
11
1.58213
21
0.19
0
LINE
8
BLACK
6
CONTINUOUS
10
1.58213
20
0.19
11
1.58273
21
0.193013
0
LINE
8
BLACK
6
CONTINUOUS
10
1.58273
20
0.193013
11
1.58443
21
0.195568
0
LINE
8
BLACK
6
CONTINUOUS
10
1.58443
20
0.195568
11
1.58699
21
0.197275
0
LINE
8
BLACK
6
CONTINUOUS
10
1.58699
20
0.197275
11
1.59
21
0.197874
0
LINE
8
BLACK
6
CONTINUOUS
10
1.59
20
0.197874
11
1.65
21
0.197874
0
LINE
8
BLACK
6
CONTINUOUS
10
1.65
20
0.197874
11
1.65301
21
0.197275
0
LINE
8
BLACK
6
CONTINUOUS
10
1.40801
20
0.287275
11
1.41057
21
0.285568
0
LINE
8
BLACK
6
CONTINUOUS
10
1.41057
20
0.285568
11
1.41227
21
0.283013
0
LINE
8
BLACK
6
CONTINUOUS
10
1.41227
20
0.283013
11
1.41287
21
0.28
0
LINE
8
BLACK
6
CONTINUOUS
10
1.41287
20
0.28
11
1.41287
21
0.22
0
LINE
8
BLACK
6
CONTINUOUS
10
1.41287
20
0.22
11
1.41227
21
0.216987
0
LINE
8
BLACK
6
CONTINUOUS
10
1.41227
20
0.216987
11
1.41057
21
0.214432
0
LINE
8
BLACK
6
CONTINUOUS
10
1.41057
20
0.214432
11
1.40801
21
0.212725
0
LINE
8
BLACK
6
CONTINUOUS
10
1.40801
20
0.212725
11
1.405
21
0.212126
0
LINE
8
BLACK
6
CONTINUOUS
10
1.405
20
0.212126
11
1.345
21
0.212126
0
LINE
8
BLACK
6
CONTINUOUS
10
1.345
20
0.212126
11
1.34199
21
0.212725
0
LINE
8
BLACK
6
CONTINUOUS
10
1.34199
20
0.212725
11
1.33943
21
0.214432
0
LINE
8
BLACK
6
CONTINUOUS
10
1.33943
20
0.214432
11
1.33773
21
0.216987
0
LINE
8
BLACK
6
CONTINUOUS
10
1.33773
20
0.216987
11
1.33713
21
0.22
0
LINE
8
BLACK
6
CONTINUOUS
10
1.33713
20
0.22
11
1.33713
21
0.28
0
LINE
8
BLACK
6
CONTINUOUS
10
1.33713
20
0.28
11
1.33773
21
0.283013
0
LINE
8
BLACK
6
CONTINUOUS
10
1.33773
20
0.283013
11
1.33943
21
0.285568
0
LINE
8
BLACK
6
CONTINUOUS
10
1.33943
20
0.285568
11
1.34199
21
0.287275
0
LINE
8
BLACK
6
CONTINUOUS
10
1.34199
20
0.287275
11
1.345
21
0.287874
0
LINE
8
BLACK
6
CONTINUOUS
10
1.345
20
0.287874
11
1.405
21
0.287874
0
LINE
8
BLACK
6
CONTINUOUS
10
1.405
20
0.287874
11
1.40801
21
0.287275
0
LINE
8
BLACK
6
CONTINUOUS
10
0.908013
20
0.287275
11
0.910568
21
0.285568
0
LINE
8
BLACK
6
CONTINUOUS
10
0.910568
20
0.285568
11
0.912275
21
0.283013
0
LINE
8
BLACK
6
CONTINUOUS
10
0.912275
20
0.283013
11
0.912874
21
0.28
0
LINE
8
BLACK
6
CONTINUOUS
10
0.912874
20
0.28
11
0.912874
21
0.22
0
LINE
8
BLACK
6
CONTINUOUS
10
0.912874
20
0.22
11
0.912275
21
0.216987
0
LINE
8
BLACK
6
CONTINUOUS
10
0.912275
20
0.216987
11
0.910568
21
0.214432
0
LINE
8
BLACK
6
CONTINUOUS
10
0.910568
20
0.214432
11
0.908013
21
0.212725
0
LINE
8
BLACK
6
CONTINUOUS
10
0.908013
20
0.212725
11
0.905
21
0.212126
0
LINE
8
BLACK
6
CONTINUOUS
10
0.905
20
0.212126
11
0.845
21
0.212126
0
LINE
8
BLACK
6
CONTINUOUS
10
0.845
20
0.212126
11
0.841987
21
0.212725
0
LINE
8
BLACK
6
CONTINUOUS
10
0.841987
20
0.212725
11
0.839432
21
0.214432
0
LINE
8
BLACK
6
CONTINUOUS
10
0.839432
20
0.214432
11
0.837725
21
0.216987
0
LINE
8
BLACK
6
CONTINUOUS
10
0.837725
20
0.216987
11
0.837126
21
0.22
0
LINE
8
BLACK
6
CONTINUOUS
10
0.837126
20
0.22
11
0.837126
21
0.28
0
LINE
8
BLACK
6
CONTINUOUS
10
0.837126
20
0.28
11
0.837725
21
0.283013
0
LINE
8
BLACK
6
CONTINUOUS
10
0.837725
20
0.283013
11
0.839432
21
0.285568
0
LINE
8
BLACK
6
CONTINUOUS
10
0.839432
20
0.285568
11
0.841987
21
0.287275
0
LINE
8
BLACK
6
CONTINUOUS
10
0.841987
20
0.287275
11
0.845
21
0.287874
0
LINE
8
BLACK
6
CONTINUOUS
10
0.845
20
0.287874
11
0.905
21
0.287874
0
LINE
8
BLACK
6
CONTINUOUS
10
0.905
20
0.287874
11
0.908013
21
0.287275
0
LINE
8
BLACK
6
CONTINUOUS
10
1.20801
20
0.287275
11
1.21057
21
0.285568
0
LINE
8
BLACK
6
CONTINUOUS
10
1.21057
20
0.285568
11
1.21227
21
0.283013
0
LINE
8
BLACK
6
CONTINUOUS
10
1.21227
20
0.283013
11
1.21287
21
0.28
0
LINE
8
BLACK
6
CONTINUOUS
10
1.21287
20
0.28
11
1.21287
21
0.22
0
LINE
8
BLACK
6
CONTINUOUS
10
1.21287
20
0.22
11
1.21227
21
0.216987
0
LINE
8
BLACK
6
CONTINUOUS
10
1.21227
20
0.216987
11
1.21057
21
0.214432
0
LINE
8
BLACK
6
CONTINUOUS
10
1.21057
20
0.214432
11
1.20801
21
0.212725
0
LINE
8
BLACK
6
CONTINUOUS
10
1.20801
20
0.212725
11
1.205
21
0.212126
0
LINE
8
BLACK
6
CONTINUOUS
10
1.205
20
0.212126
11
1.145
21
0.212126
0
LINE
8
BLACK
6
CONTINUOUS
10
1.145
20
0.212126
11
1.14199
21
0.212725
0
LINE
8
BLACK
6
CONTINUOUS
10
1.14199
20
0.212725
11
1.13943
21
0.214432
0
LINE
8
BLACK
6
CONTINUOUS
10
1.13943
20
0.214432
11
1.13773
21
0.216987
0
LINE
8
BLACK
6
CONTINUOUS
10
1.13773
20
0.216987
11
1.13713
21
0.22
0
LINE
8
BLACK
6
CONTINUOUS
10
1.13713
20
0.22
11
1.13713
21
0.28
0
LINE
8
BLACK
6
CONTINUOUS
10
1.13713
20
0.28
11
1.13773
21
0.283013
0
LINE
8
BLACK
6
CONTINUOUS
10
1.13773
20
0.283013
11
1.13943
21
0.285568
0
LINE
8
BLACK
6
CONTINUOUS
10
1.13943
20
0.285568
11
1.14199
21
0.287275
0
LINE
8
BLACK
6
CONTINUOUS
10
1.14199
20
0.287275
11
1.145
21
0.287874
0
LINE
8
BLACK
6
CONTINUOUS
10
1.145
20
0.287874
11
1.205
21
0.287874
0
LINE
8
BLACK
6
CONTINUOUS
10
1.205
20
0.287874
11
1.20801
21
0.287275
0
LINE
8
BLACK
6
CONTINUOUS
10
1.30801
20
0.287275
11
1.31057
21
0.285568
0
LINE
8
BLACK
6
CONTINUOUS
10
1.31057
20
0.285568
11
1.31227
21
0.283013
0
LINE
8
BLACK
6
CONTINUOUS
10
1.31227
20
0.283013
11
1.31287
21
0.28
0
LINE
8
BLACK
6
CONTINUOUS
10
1.31287
20
0.28
11
1.31287
21
0.22
0
LINE
8
BLACK
6
CONTINUOUS
10
1.31287
20
0.22
11
1.31227
21
0.216987
0
LINE
8
BLACK
6
CONTINUOUS
10
1.31227
20
0.216987
11
1.31057
21
0.214432
0
LINE
8
BLACK
6
CONTINUOUS
10
1.31057
20
0.214432
11
1.30801
21
0.212725
0
LINE
8
BLACK
6
CONTINUOUS
10
1.30801
20
0.212725
11
1.305
21
0.212126
0
LINE
8
BLACK
6
CONTINUOUS
10
1.305
20
0.212126
11
1.245
21
0.212126
0
LINE
8
BLACK
6
CONTINUOUS
10
1.245
20
0.212126
11
1.24199
21
0.212725
0
LINE
8
BLACK
6
CONTINUOUS
10
1.24199
20
0.212725
11
1.23943
21
0.214432
0
LINE
8
BLACK
6
CONTINUOUS
10
1.23943
20
0.214432
11
1.23773
21
0.216987
0
LINE
8
BLACK
6
CONTINUOUS
10
1.23773
20
0.216987
11
1.23713
21
0.22
0
LINE
8
BLACK
6
CONTINUOUS
10
1.23713
20
0.22
11
1.23713
21
0.28
0
LINE
8
BLACK
6
CONTINUOUS
10
1.23713
20
0.28
11
1.23773
21
0.283013
0
LINE
8
BLACK
6
CONTINUOUS
10
1.23773
20
0.283013
11
1.23943
21
0.285568
0
LINE
8
BLACK
6
CONTINUOUS
10
1.23943
20
0.285568
11
1.24199
21
0.287275
0
LINE
8
BLACK
6
CONTINUOUS
10
1.24199
20
0.287275
11
1.245
21
0.287874
0
LINE
8
BLACK
6
CONTINUOUS
10
1.245
20
0.287874
11
1.305
21
0.287874
0
LINE
8
BLACK
6
CONTINUOUS
10
1.305
20
0.287874
11
1.30801
21
0.287275
0
LINE
8
BLACK
6
CONTINUOUS
10
1.10801
20
0.287275
11
1.11057
21
0.285568
0
LINE
8
BLACK
6
CONTINUOUS
10
1.11057
20
0.285568
11
1.11227
21
0.283013
0
LINE
8
BLACK
6
CONTINUOUS
10
1.11227
20
0.283013
11
1.11287
21
0.28
0
LINE
8
BLACK
6
CONTINUOUS
10
1.11287
20
0.28
11
1.11287
21
0.22
0
LINE
8
BLACK
6
CONTINUOUS
10
1.11287
20
0.22
11
1.11227
21
0.216987
0
LINE
8
BLACK
6
CONTINUOUS
10
1.11227
20
0.216987
11
1.11057
21
0.214432
0
LINE
8
BLACK
6
CONTINUOUS
10
1.11057
20
0.214432
11
1.10801
21
0.212725
0
LINE
8
BLACK
6
CONTINUOUS
10
1.10801
20
0.212725
11
1.105
21
0.212126
0
LINE
8
BLACK
6
CONTINUOUS
10
1.105
20
0.212126
11
1.045
21
0.212126
0
LINE
8
BLACK
6
CONTINUOUS
10
1.045
20
0.212126
11
1.04199
21
0.212725
0
LINE
8
BLACK
6
CONTINUOUS
10
1.04199
20
0.212725
11
1.03943
21
0.214432
0
LINE
8
BLACK
6
CONTINUOUS
10
1.03943
20
0.214432
11
1.03773
21
0.216987
0
LINE
8
BLACK
6
CONTINUOUS
10
1.03773
20
0.216987
11
1.03713
21
0.22
0
LINE
8
BLACK
6
CONTINUOUS
10
1.03713
20
0.22
11
1.03713
21
0.28
0
LINE
8
BLACK
6
CONTINUOUS
10
1.03713
20
0.28
11
1.03773
21
0.283013
0
LINE
8
BLACK
6
CONTINUOUS
10
1.03773
20
0.283013
11
1.03943
21
0.285568
0
LINE
8
BLACK
6
CONTINUOUS
10
1.03943
20
0.285568
11
1.04199
21
0.287275
0
LINE
8
BLACK
6
CONTINUOUS
10
1.04199
20
0.287275
11
1.045
21
0.287874
0
LINE
8
BLACK
6
CONTINUOUS
10
1.045
20
0.287874
11
1.105
21
0.287874
0
LINE
8
BLACK
6
CONTINUOUS
10
1.105
20
0.287874
11
1.10801
21
0.287275
0
LINE
8
BLACK
6
CONTINUOUS
10
0.508013
20
0.287275
11
0.510568
21
0.285568
0
LINE
8
BLACK
6
CONTINUOUS
10
0.510568
20
0.285568
11
0.512275
21
0.283013
0
LINE
8
BLACK
6
CONTINUOUS
10
0.512275
20
0.283013
11
0.512874
21
0.28
0
LINE
8
BLACK
6
CONTINUOUS
10
0.512874
20
0.28
11
0.512874
21
0.22
0
LINE
8
BLACK
6
CONTINUOUS
10
0.512874
20
0.22
11
0.512275
21
0.216987
0
LINE
8
BLACK
6
CONTINUOUS
10
0.512275
20
0.216987
11
0.510568
21
0.214432
0
LINE
8
BLACK
6
CONTINUOUS
10
0.510568
20
0.214432
11
0.508013
21
0.212725
0
LINE
8
BLACK
6
CONTINUOUS
10
0.508013
20
0.212725
11
0.505
21
0.212126
0
LINE
8
BLACK
6
CONTINUOUS
10
0.505
20
0.212126
11
0.445
21
0.212126
0
LINE
8
BLACK
6
CONTINUOUS
10
0.445
20
0.212126
11
0.441987
21
0.212725
0
LINE
8
BLACK
6
CONTINUOUS
10
0.441987
20
0.212725
11
0.439432
21
0.214432
0
LINE
8
BLACK
6
CONTINUOUS
10
0.439432
20
0.214432
11
0.437725
21
0.216987
0
LINE
8
BLACK
6
CONTINUOUS
10
0.437725
20
0.216987
11
0.437126
21
0.22
0
LINE
8
BLACK
6
CONTINUOUS
10
0.437126
20
0.22
11
0.437126
21
0.28
0
LINE
8
BLACK
6
CONTINUOUS
10
0.437126
20
0.28
11
0.437725
21
0.283013
0
LINE
8
BLACK
6
CONTINUOUS
10
0.437725
20
0.283013
11
0.439432
21
0.285568
0
LINE
8
BLACK
6
CONTINUOUS
10
0.439432
20
0.285568
11
0.441987
21
0.287275
0
LINE
8
BLACK
6
CONTINUOUS
10
0.441987
20
0.287275
11
0.445
21
0.287874
0
LINE
8
BLACK
6
CONTINUOUS
10
0.445
20
0.287874
11
0.505
21
0.287874
0
LINE
8
BLACK
6
CONTINUOUS
10
0.505
20
0.287874
11
0.508013
21
0.287275
0
LINE
8
BLACK
6
CONTINUOUS
10
0.608013
20
0.287275
11
0.610568
21
0.285568
0
LINE
8
BLACK
6
CONTINUOUS
10
0.610568
20
0.285568
11
0.612275
21
0.283013
0
LINE
8
BLACK
6
CONTINUOUS
10
0.612275
20
0.283013
11
0.612874
21
0.28
0
LINE
8
BLACK
6
CONTINUOUS
10
0.612874
20
0.28
11
0.612874
21
0.22
0
LINE
8
BLACK
6
CONTINUOUS
10
0.612874
20
0.22
11
0.612275
21
0.216987
0
LINE
8
BLACK
6
CONTINUOUS
10
0.612275
20
0.216987
11
0.610568
21
0.214432
0
LINE
8
BLACK
6
CONTINUOUS
10
0.610568
20
0.214432
11
0.608013
21
0.212725
0
LINE
8
BLACK
6
CONTINUOUS
10
0.608013
20
0.212725
11
0.605
21
0.212126
0
LINE
8
BLACK
6
CONTINUOUS
10
0.605
20
0.212126
11
0.545
21
0.212126
0
LINE
8
BLACK
6
CONTINUOUS
10
0.545
20
0.212126
11
0.541987
21
0.212725
0
LINE
8
BLACK
6
CONTINUOUS
10
0.541987
20
0.212725
11
0.539432
21
0.214432
0
LINE
8
BLACK
6
CONTINUOUS
10
0.539432
20
0.214432
11
0.537725
21
0.216987
0
LINE
8
BLACK
6
CONTINUOUS
10
0.537725
20
0.216987
11
0.537126
21
0.22
0
LINE
8
BLACK
6
CONTINUOUS
10
0.537126
20
0.22
11
0.537126
21
0.28
0
LINE
8
BLACK
6
CONTINUOUS
10
0.537126
20
0.28
11
0.537725
21
0.283013
0
LINE
8
BLACK
6
CONTINUOUS
10
0.537725
20
0.283013
11
0.539432
21
0.285568
0
LINE
8
BLACK
6
CONTINUOUS
10
0.539432
20
0.285568
11
0.541987
21
0.287275
0
LINE
8
BLACK
6
CONTINUOUS
10
0.541987
20
0.287275
11
0.545
21
0.287874
0
LINE
8
BLACK
6
CONTINUOUS
10
0.545
20
0.287874
11
0.605
21
0.287874
0
LINE
8
BLACK
6
CONTINUOUS
10
0.605
20
0.287874
11
0.608013
21
0.287275
0
LINE
8
BLACK
6
CONTINUOUS
10
0.708013
20
0.287275
11
0.710568
21
0.285568
0
LINE
8
BLACK
6
CONTINUOUS
10
0.710568
20
0.285568
11
0.712275
21
0.283013
0
LINE
8
BLACK
6
CONTINUOUS
10
0.712275
20
0.283013
11
0.712874
21
0.28
0
LINE
8
BLACK
6
CONTINUOUS
10
0.712874
20
0.28
11
0.712874
21
0.22
0
LINE
8
BLACK
6
CONTINUOUS
10
0.712874
20
0.22
11
0.712275
21
0.216987
0
LINE
8
BLACK
6
CONTINUOUS
10
0.712275
20
0.216987
11
0.710568
21
0.214432
0
LINE
8
BLACK
6
CONTINUOUS
10
0.710568
20
0.214432
11
0.708013
21
0.212725
0
LINE
8
BLACK
6
CONTINUOUS
10
0.708013
20
0.212725
11
0.705
21
0.212126
0
LINE
8
BLACK
6
CONTINUOUS
10
0.705
20
0.212126
11
0.645
21
0.212126
0
LINE
8
BLACK
6
CONTINUOUS
10
0.645
20
0.212126
11
0.641987
21
0.212725
0
LINE
8
BLACK
6
CONTINUOUS
10
0.641987
20
0.212725
11
0.639432
21
0.214432
0
LINE
8
BLACK
6
CONTINUOUS
10
0.639432
20
0.214432
11
0.637725
21
0.216987
0
LINE
8
BLACK
6
CONTINUOUS
10
0.637725
20
0.216987
11
0.637126
21
0.22
0
LINE
8
BLACK
6
CONTINUOUS
10
0.637126
20
0.22
11
0.637126
21
0.28
0
LINE
8
BLACK
6
CONTINUOUS
10
0.637126
20
0.28
11
0.637725
21
0.283013
0
LINE
8
BLACK
6
CONTINUOUS
10
0.637725
20
0.283013
11
0.639432
21
0.285568
0
LINE
8
BLACK
6
CONTINUOUS
10
0.639432
20
0.285568
11
0.641987
21
0.287275
0
LINE
8
BLACK
6
CONTINUOUS
10
0.641987
20
0.287275
11
0.645
21
0.287874
0
LINE
8
BLACK
6
CONTINUOUS
10
0.645
20
0.287874
11
0.705
21
0.287874
0
LINE
8
BLACK
6
CONTINUOUS
10
0.705
20
0.287874
11
0.708013
21
0.287275
0
LINE
8
BLACK
6
CONTINUOUS
10
0.808013
20
0.287275
11
0.810568
21
0.285568
0
LINE
8
BLACK
6
CONTINUOUS
10
0.810568
20
0.285568
11
0.812275
21
0.283013
0
LINE
8
BLACK
6
CONTINUOUS
10
0.812275
20
0.283013
11
0.812874
21
0.28
0
LINE
8
BLACK
6
CONTINUOUS
10
0.812874
20
0.28
11
0.812874
21
0.22
0
LINE
8
BLACK
6
CONTINUOUS
10
0.812874
20
0.22
11
0.812275
21
0.216987
0
LINE
8
BLACK
6
CONTINUOUS
10
0.812275
20
0.216987
11
0.810568
21
0.214432
0
LINE
8
BLACK
6
CONTINUOUS
10
0.810568
20
0.214432
11
0.808013
21
0.212725
0
LINE
8
BLACK
6
CONTINUOUS
10
0.808013
20
0.212725
11
0.805
21
0.212126
0
LINE
8
BLACK
6
CONTINUOUS
10
0.805
20
0.212126
11
0.745
21
0.212126
0
LINE
8
BLACK
6
CONTINUOUS
10
0.745
20
0.212126
11
0.741987
21
0.212725
0
LINE
8
BLACK
6
CONTINUOUS
10
0.741987
20
0.212725
11
0.739432
21
0.214432
0
LINE
8
BLACK
6
CONTINUOUS
10
0.739432
20
0.214432
11
0.737725
21
0.216987
0
LINE
8
BLACK
6
CONTINUOUS
10
0.737725
20
0.216987
11
0.737126
21
0.22
0
LINE
8
BLACK
6
CONTINUOUS
10
0.737126
20
0.22
11
0.737126
21
0.28
0
LINE
8
BLACK
6
CONTINUOUS
10
0.737126
20
0.28
11
0.737725
21
0.283013
0
LINE
8
BLACK
6
CONTINUOUS
10
0.737725
20
0.283013
11
0.739432
21
0.285568
0
LINE
8
BLACK
6
CONTINUOUS
10
0.739432
20
0.285568
11
0.741987
21
0.287275
0
LINE
8
BLACK
6
CONTINUOUS
10
0.741987
20
0.287275
11
0.745
21
0.287874
0
LINE
8
BLACK
6
CONTINUOUS
10
0.745
20
0.287874
11
0.805
21
0.287874
0
LINE
8
BLACK
6
CONTINUOUS
10
0.805
20
0.287874
11
0.808013
21
0.287275
0
LINE
8
BLACK
6
CONTINUOUS
10
1.00801
20
0.287275
11
1.01057
21
0.285568
0
LINE
8
BLACK
6
CONTINUOUS
10
1.01057
20
0.285568
11
1.01227
21
0.283013
0
LINE
8
BLACK
6
CONTINUOUS
10
1.01227
20
0.283013
11
1.01287
21
0.28
0
LINE
8
BLACK
6
CONTINUOUS
10
1.01287
20
0.28
11
1.01287
21
0.22
0
LINE
8
BLACK
6
CONTINUOUS
10
1.01287
20
0.22
11
1.01227
21
0.216987
0
LINE
8
BLACK
6
CONTINUOUS
10
1.01227
20
0.216987
11
1.01057
21
0.214432
0
LINE
8
BLACK
6
CONTINUOUS
10
1.01057
20
0.214432
11
1.00801
21
0.212725
0
LINE
8
BLACK
6
CONTINUOUS
10
1.00801
20
0.212725
11
1.005
21
0.212126
0
LINE
8
BLACK
6
CONTINUOUS
10
1.005
20
0.212126
11
0.945
21
0.212126
0
LINE
8
BLACK
6
CONTINUOUS
10
0.945
20
0.212126
11
0.941987
21
0.212725
0
LINE
8
BLACK
6
CONTINUOUS
10
0.941987
20
0.212725
11
0.939432
21
0.214432
0
LINE
8
BLACK
6
CONTINUOUS
10
0.939432
20
0.214432
11
0.937725
21
0.216987
0
LINE
8
BLACK
6
CONTINUOUS
10
0.937725
20
0.216987
11
0.937126
21
0.22
0
LINE
8
BLACK
6
CONTINUOUS
10
0.937126
20
0.22
11
0.937126
21
0.28
0
LINE
8
BLACK
6
CONTINUOUS
10
0.937126
20
0.28
11
0.937725
21
0.283013
0
LINE
8
BLACK
6
CONTINUOUS
10
0.937725
20
0.283013
11
0.939432
21
0.285568
0
LINE
8
BLACK
6
CONTINUOUS
10
0.939432
20
0.285568
11
0.941987
21
0.287275
0
LINE
8
BLACK
6
CONTINUOUS
10
0.941987
20
0.287275
11
0.945
21
0.287874
0
LINE
8
BLACK
6
CONTINUOUS
10
0.945
20
0.287874
11
1.005
21
0.287874
0
LINE
8
BLACK
6
CONTINUOUS
10
1.005
20
0.287874
11
1.00801
21
0.287275
0
LINE
8
BLACK
6
CONTINUOUS
10
1.55301
20
0.297275
11
1.55557
21
0.295568
0
LINE
8
BLACK
6
CONTINUOUS
10
1.55557
20
0.295568
11
1.55727
21
0.293013
0
LINE
8
BLACK
6
CONTINUOUS
10
1.55727
20
0.293013
11
1.55787
21
0.29
0
LINE
8
BLACK
6
CONTINUOUS
10
1.55787
20
0.29
11
1.55787
21
0.23
0
LINE
8
BLACK
6
CONTINUOUS
10
1.55787
20
0.23
11
1.55727
21
0.226987
0
LINE
8
BLACK
6
CONTINUOUS
10
1.55727
20
0.226987
11
1.55557
21
0.224432
0
LINE
8
BLACK
6
CONTINUOUS
10
1.55557
20
0.224432
11
1.55301
21
0.222725
0
LINE
8
BLACK
6
CONTINUOUS
10
1.55301
20
0.222725
11
1.55
21
0.222126
0
LINE
8
BLACK
6
CONTINUOUS
10
1.55
20
0.222126
11
1.49
21
0.222126
0
LINE
8
BLACK
6
CONTINUOUS
10
1.49
20
0.222126
11
1.48699
21
0.222725
0
LINE
8
BLACK
6
CONTINUOUS
10
1.48699
20
0.222725
11
1.48443
21
0.224432
0
LINE
8
BLACK
6
CONTINUOUS
10
1.48443
20
0.224432
11
1.48273
21
0.226987
0
LINE
8
BLACK
6
CONTINUOUS
10
1.48273
20
0.226987
11
1.48213
21
0.23
0
LINE
8
BLACK
6
CONTINUOUS
10
1.48213
20
0.23
11
1.48213
21
0.29
0
LINE
8
BLACK
6
CONTINUOUS
10
1.48213
20
0.29
11
1.48273
21
0.293013
0
LINE
8
BLACK
6
CONTINUOUS
10
1.48273
20
0.293013
11
1.48443
21
0.295568
0
LINE
8
BLACK
6
CONTINUOUS
10
1.48443
20
0.295568
11
1.48699
21
0.297275
0
LINE
8
BLACK
6
CONTINUOUS
10
1.48699
20
0.297275
11
1.49
21
0.297874
0
LINE
8
BLACK
6
CONTINUOUS
10
1.49
20
0.297874
11
1.55
21
0.297874
0
LINE
8
BLACK
6
CONTINUOUS
10
1.55
20
0.297874
11
1.55301
21
0.297275
0
LINE
8
BLACK
6
CONTINUOUS
10
1.65301
20
0.297275
11
1.65557
21
0.295568
0
LINE
8
BLACK
6
CONTINUOUS
10
1.65557
20
0.295568
11
1.65727
21
0.293013
0
LINE
8
BLACK
6
CONTINUOUS
10
1.65727
20
0.293013
11
1.65787
21
0.29
0
LINE
8
BLACK
6
CONTINUOUS
10
1.65787
20
0.29
11
1.65787
21
0.23
0
LINE
8
BLACK
6
CONTINUOUS
10
1.65787
20
0.23
11
1.65727
21
0.226987
0
LINE
8
BLACK
6
CONTINUOUS
10
1.65727
20
0.226987
11
1.65557
21
0.224432
0
LINE
8
BLACK
6
CONTINUOUS
10
1.65557
20
0.224432
11
1.65301
21
0.222725
0
LINE
8
BLACK
6
CONTINUOUS
10
1.65301
20
0.222725
11
1.65
21
0.222126
0
LINE
8
BLACK
6
CONTINUOUS
10
1.65
20
0.222126
11
1.59
21
0.222126
0
LINE
8
BLACK
6
CONTINUOUS
10
1.59
20
0.222126
11
1.58699
21
0.222725
0
LINE
8
BLACK
6
CONTINUOUS
10
1.58699
20
0.222725
11
1.58443
21
0.224432
0
LINE
8
BLACK
6
CONTINUOUS
10
1.58443
20
0.224432
11
1.58273
21
0.226987
0
LINE
8
BLACK
6
CONTINUOUS
10
1.58273
20
0.226987
11
1.58213
21
0.23
0
LINE
8
BLACK
6
CONTINUOUS
10
1.58213
20
0.23
11
1.58213
21
0.29
0
LINE
8
BLACK
6
CONTINUOUS
10
1.58213
20
0.29
11
1.58273
21
0.293013
0
LINE
8
BLACK
6
CONTINUOUS
10
1.58273
20
0.293013
11
1.58443
21
0.295568
0
LINE
8
BLACK
6
CONTINUOUS
10
1.58443
20
0.295568
11
1.58699
21
0.297275
0
LINE
8
BLACK
6
CONTINUOUS
10
1.58699
20
0.297275
11
1.59
21
0.297874
0
LINE
8
BLACK
6
CONTINUOUS
10
1.59
20
0.297874
11
1.65
21
0.297874
0
LINE
8
BLACK
6
CONTINUOUS
10
1.65
20
0.297874
11
1.65301
21
0.297275
0
LINE
8
BLACK
6
CONTINUOUS
10
1.00801
20
0.387275
11
1.01057
21
0.385568
0
LINE
8
BLACK
6
CONTINUOUS
10
1.01057
20
0.385568
11
1.01227
21
0.383013
0
LINE
8
BLACK
6
CONTINUOUS
10
1.01227
20
0.383013
11
1.01287
21
0.38
0
LINE
8
BLACK
6
CONTINUOUS
10
1.01287
20
0.38
11
1.01287
21
0.32
0
LINE
8
BLACK
6
CONTINUOUS
10
1.01287
20
0.32
11
1.01227
21
0.316987
0
LINE
8
BLACK
6
CONTINUOUS
10
1.01227
20
0.316987
11
1.01057
21
0.314432
0
LINE
8
BLACK
6
CONTINUOUS
10
1.01057
20
0.314432
11
1.00801
21
0.312725
0
LINE
8
BLACK
6
CONTINUOUS
10
1.00801
20
0.312725
11
1.005
21
0.312126
0
LINE
8
BLACK
6
CONTINUOUS
10
1.005
20
0.312126
11
0.945
21
0.312126
0
LINE
8
BLACK
6
CONTINUOUS
10
0.945
20
0.312126
11
0.941987
21
0.312725
0
LINE
8
BLACK
6
CONTINUOUS
10
0.941987
20
0.312725
11
0.939432
21
0.314432
0
LINE
8
BLACK
6
CONTINUOUS
10
0.939432
20
0.314432
11
0.937725
21
0.316987
0
LINE
8
BLACK
6
CONTINUOUS
10
0.937725
20
0.316987
11
0.937126
21
0.32
0
LINE
8
BLACK
6
CONTINUOUS
10
0.937126
20
0.32
11
0.937126
21
0.38
0
LINE
8
BLACK
6
CONTINUOUS
10
0.937126
20
0.38
11
0.937725
21
0.383013
0
LINE
8
BLACK
6
CONTINUOUS
10
0.937725
20
0.383013
11
0.939432
21
0.385568
0
LINE
8
BLACK
6
CONTINUOUS
10
0.939432
20
0.385568
11
0.941987
21
0.387275
0
LINE
8
BLACK
6
CONTINUOUS
10
0.941987
20
0.387275
11
0.945
21
0.387874
0
LINE
8
BLACK
6
CONTINUOUS
10
0.945
20
0.387874
11
1.005
21
0.387874
0
LINE
8
BLACK
6
CONTINUOUS
10
1.005
20
0.387874
11
1.00801
21
0.387275
0
LINE
8
BLACK
6
CONTINUOUS
10
1.40801
20
0.387275
11
1.41057
21
0.385568
0
LINE
8
BLACK
6
CONTINUOUS
10
1.41057
20
0.385568
11
1.41227
21
0.383013
0
LINE
8
BLACK
6
CONTINUOUS
10
1.41227
20
0.383013
11
1.41287
21
0.38
0
LINE
8
BLACK
6
CONTINUOUS
10
1.41287
20
0.38
11
1.41287
21
0.32
0
LINE
8
BLACK
6
CONTINUOUS
10
1.41287
20
0.32
11
1.41227
21
0.316987
0
LINE
8
BLACK
6
CONTINUOUS
10
1.41227
20
0.316987
11
1.41057
21
0.314432
0
LINE
8
BLACK
6
CONTINUOUS
10
1.41057
20
0.314432
11
1.40801
21
0.312725
0
LINE
8
BLACK
6
CONTINUOUS
10
1.40801
20
0.312725
11
1.405
21
0.312126
0
LINE
8
BLACK
6
CONTINUOUS
10
1.405
20
0.312126
11
1.345
21
0.312126
0
LINE
8
BLACK
6
CONTINUOUS
10
1.345
20
0.312126
11
1.34199
21
0.312725
0
LINE
8
BLACK
6
CONTINUOUS
10
1.34199
20
0.312725
11
1.33943
21
0.314432
0
LINE
8
BLACK
6
CONTINUOUS
10
1.33943
20
0.314432
11
1.33773
21
0.316987
0
LINE
8
BLACK
6
CONTINUOUS
10
1.33773
20
0.316987
11
1.33713
21
0.32
0
LINE
8
BLACK
6
CONTINUOUS
10
1.33713
20
0.32
11
1.33713
21
0.38
0
LINE
8
BLACK
6
CONTINUOUS
10
1.33713
20
0.38
11
1.33773
21
0.383013
0
LINE
8
BLACK
6
CONTINUOUS
10
1.33773
20
0.383013
11
1.33943
21
0.385568
0
LINE
8
BLACK
6
CONTINUOUS
10
1.33943
20
0.385568
11
1.34199
21
0.387275
0
LINE
8
BLACK
6
CONTINUOUS
10
1.34199
20
0.387275
11
1.345
21
0.387874
0
LINE
8
BLACK
6
CONTINUOUS
10
1.345
20
0.387874
11
1.405
21
0.387874
0
LINE
8
BLACK
6
CONTINUOUS
10
1.405
20
0.387874
11
1.40801
21
0.387275
0
LINE
8
BLACK
6
CONTINUOUS
10
0.908013
20
0.387275
11
0.910568
21
0.385568
0
LINE
8
BLACK
6
CONTINUOUS
10
0.910568
20
0.385568
11
0.912275
21
0.383013
0
LINE
8
BLACK
6
CONTINUOUS
10
0.912275
20
0.383013
11
0.912874
21
0.38
0
LINE
8
BLACK
6
CONTINUOUS
10
0.912874
20
0.38
11
0.912874
21
0.32
0
LINE
8
BLACK
6
CONTINUOUS
10
0.912874
20
0.32
11
0.912275
21
0.316987
0
LINE
8
BLACK
6
CONTINUOUS
10
0.912275
20
0.316987
11
0.910568
21
0.314432
0
LINE
8
BLACK
6
CONTINUOUS
10
0.910568
20
0.314432
11
0.908013
21
0.312725
0
LINE
8
BLACK
6
CONTINUOUS
10
0.908013
20
0.312725
11
0.905
21
0.312126
0
LINE
8
BLACK
6
CONTINUOUS
10
0.905
20
0.312126
11
0.845
21
0.312126
0
LINE
8
BLACK
6
CONTINUOUS
10
0.845
20
0.312126
11
0.841987
21
0.312725
0
LINE
8
BLACK
6
CONTINUOUS
10
0.841987
20
0.312725
11
0.839432
21
0.314432
0
LINE
8
BLACK
6
CONTINUOUS
10
0.839432
20
0.314432
11
0.837725
21
0.316987
0
LINE
8
BLACK
6
CONTINUOUS
10
0.837725
20
0.316987
11
0.837126
21
0.32
0
LINE
8
BLACK
6
CONTINUOUS
10
0.837126
20
0.32
11
0.837126
21
0.38
0
LINE
8
BLACK
6
CONTINUOUS
10
0.837126
20
0.38
11
0.837725
21
0.383013
0
LINE
8
BLACK
6
CONTINUOUS
10
0.837725
20
0.383013
11
0.839432
21
0.385568
0
LINE
8
BLACK
6
CONTINUOUS
10
0.839432
20
0.385568
11
0.841987
21
0.387275
0
LINE
8
BLACK
6
CONTINUOUS
10
0.841987
20
0.387275
11
0.845
21
0.387874
0
LINE
8
BLACK
6
CONTINUOUS
10
0.845
20
0.387874
11
0.905
21
0.387874
0
LINE
8
BLACK
6
CONTINUOUS
10
0.905
20
0.387874
11
0.908013
21
0.387275
0
LINE
8
BLACK
6
CONTINUOUS
10
1.20801
20
0.387275
11
1.21057
21
0.385568
0
LINE
8
BLACK
6
CONTINUOUS
10
1.21057
20
0.385568
11
1.21227
21
0.383013
0
LINE
8
BLACK
6
CONTINUOUS
10
1.21227
20
0.383013
11
1.21287
21
0.38
0
LINE
8
BLACK
6
CONTINUOUS
10
1.21287
20
0.38
11
1.21287
21
0.32
0
LINE
8
BLACK
6
CONTINUOUS
10
1.21287
20
0.32
11
1.21227
21
0.316987
0
LINE
8
BLACK
6
CONTINUOUS
10
1.21227
20
0.316987
11
1.21057
21
0.314432
0
LINE
8
BLACK
6
CONTINUOUS
10
1.21057
20
0.314432
11
1.20801
21
0.312725
0
LINE
8
BLACK
6
CONTINUOUS
10
1.20801
20
0.312725
11
1.205
21
0.312126
0
LINE
8
BLACK
6
CONTINUOUS
10
1.205
20
0.312126
11
1.145
21
0.312126
0
LINE
8
BLACK
6
CONTINUOUS
10
1.145
20
0.312126
11
1.14199
21
0.312725
0
LINE
8
BLACK
6
CONTINUOUS
10
1.14199
20
0.312725
11
1.13943
21
0.314432
0
LINE
8
BLACK
6
CONTINUOUS
10
1.13943
20
0.314432
11
1.13773
21
0.316987
0
LINE
8
BLACK
6
CONTINUOUS
10
1.13773
20
0.316987
11
1.13713
21
0.32
0
LINE
8
BLACK
6
CONTINUOUS
10
1.13713
20
0.32
11
1.13713
21
0.38
0
LINE
8
BLACK
6
CONTINUOUS
10
1.13713
20
0.38
11
1.13773
21
0.383013
0
LINE
8
BLACK
6
CONTINUOUS
10
1.13773
20
0.383013
11
1.13943
21
0.385568
0
LINE
8
BLACK
6
CONTINUOUS
10
1.13943
20
0.385568
11
1.14199
21
0.387275
0
LINE
8
BLACK
6
CONTINUOUS
10
1.14199
20
0.387275
11
1.145
21
0.387874
0
LINE
8
BLACK
6
CONTINUOUS
10
1.145
20
0.387874
11
1.205
21
0.387874
0
LINE
8
BLACK
6
CONTINUOUS
10
1.205
20
0.387874
11
1.20801
21
0.387275
0
LINE
8
BLACK
6
CONTINUOUS
10
1.30801
20
0.387275
11
1.31057
21
0.385568
0
LINE
8
BLACK
6
CONTINUOUS
10
1.31057
20
0.385568
11
1.31227
21
0.383013
0
LINE
8
BLACK
6
CONTINUOUS
10
1.31227
20
0.383013
11
1.31287
21
0.38
0
LINE
8
BLACK
6
CONTINUOUS
10
1.31287
20
0.38
11
1.31287
21
0.32
0
LINE
8
BLACK
6
CONTINUOUS
10
1.31287
20
0.32
11
1.31227
21
0.316987
0
LINE
8
BLACK
6
CONTINUOUS
10
1.31227
20
0.316987
11
1.31057
21
0.314432
0
LINE
8
BLACK
6
CONTINUOUS
10
1.31057
20
0.314432
11
1.30801
21
0.312725
0
LINE
8
BLACK
6
CONTINUOUS
10
1.30801
20
0.312725
11
1.305
21
0.312126
0
LINE
8
BLACK
6
CONTINUOUS
10
1.305
20
0.312126
11
1.245
21
0.312126
0
LINE
8
BLACK
6
CONTINUOUS
10
1.245
20
0.312126
11
1.24199
21
0.312725
0
LINE
8
BLACK
6
CONTINUOUS
10
1.24199
20
0.312725
11
1.23943
21
0.314432
0
LINE
8
BLACK
6
CONTINUOUS
10
1.23943
20
0.314432
11
1.23773
21
0.316987
0
LINE
8
BLACK
6
CONTINUOUS
10
1.23773
20
0.316987
11
1.23713
21
0.32
0
LINE
8
BLACK
6
CONTINUOUS
10
1.23713
20
0.32
11
1.23713
21
0.38
0
LINE
8
BLACK
6
CONTINUOUS
10
1.23713
20
0.38
11
1.23773
21
0.383013
0
LINE
8
BLACK
6
CONTINUOUS
10
1.23773
20
0.383013
11
1.23943
21
0.385568
0
LINE
8
BLACK
6
CONTINUOUS
10
1.23943
20
0.385568
11
1.24199
21
0.387275
0
LINE
8
BLACK
6
CONTINUOUS
10
1.24199
20
0.387275
11
1.245
21
0.387874
0
LINE
8
BLACK
6
CONTINUOUS
10
1.245
20
0.387874
11
1.305
21
0.387874
0
LINE
8
BLACK
6
CONTINUOUS
10
1.305
20
0.387874
11
1.30801
21
0.387275
0
LINE
8
BLACK
6
CONTINUOUS
10
1.10801
20
0.387275
11
1.11057
21
0.385568
0
LINE
8
BLACK
6
CONTINUOUS
10
1.11057
20
0.385568
11
1.11227
21
0.383013
0
LINE
8
BLACK
6
CONTINUOUS
10
1.11227
20
0.383013
11
1.11287
21
0.38
0
LINE
8
BLACK
6
CONTINUOUS
10
1.11287
20
0.38
11
1.11287
21
0.32
0
LINE
8
BLACK
6
CONTINUOUS
10
1.11287
20
0.32
11
1.11227
21
0.316987
0
LINE
8
BLACK
6
CONTINUOUS
10
1.11227
20
0.316987
11
1.11057
21
0.314432
0
LINE
8
BLACK
6
CONTINUOUS
10
1.11057
20
0.314432
11
1.10801
21
0.312725
0
LINE
8
BLACK
6
CONTINUOUS
10
1.10801
20
0.312725
11
1.105
21
0.312126
0
LINE
8
BLACK
6
CONTINUOUS
10
1.105
20
0.312126
11
1.045
21
0.312126
0
LINE
8
BLACK
6
CONTINUOUS
10
1.045
20
0.312126
11
1.04199
21
0.312725
0
LINE
8
BLACK
6
CONTINUOUS
10
1.04199
20
0.312725
11
1.03943
21
0.314432
0
LINE
8
BLACK
6
CONTINUOUS
10
1.03943
20
0.314432
11
1.03773
21
0.316987
0
LINE
8
BLACK
6
CONTINUOUS
10
1.03773
20
0.316987
11
1.03713
21
0.32
0
LINE
8
BLACK
6
CONTINUOUS
10
1.03713
20
0.32
11
1.03713
21
0.38
0
LINE
8
BLACK
6
CONTINUOUS
10
1.03713
20
0.38
11
1.03773
21
0.383013
0
LINE
8
BLACK
6
CONTINUOUS
10
1.03773
20
0.383013
11
1.03943
21
0.385568
0
LINE
8
BLACK
6
CONTINUOUS
10
1.03943
20
0.385568
11
1.04199
21
0.387275
0
LINE
8
BLACK
6
CONTINUOUS
10
1.04199
20
0.387275
11
1.045
21
0.387874
0
LINE
8
BLACK
6
CONTINUOUS
10
1.045
20
0.387874
11
1.105
21
0.387874
0
LINE
8
BLACK
6
CONTINUOUS
10
1.105
20
0.387874
11
1.10801
21
0.387275
0
LINE
8
BLACK
6
CONTINUOUS
10
0.508013
20
0.387275
11
0.510568
21
0.385568
0
LINE
8
BLACK
6
CONTINUOUS
10
0.510568
20
0.385568
11
0.512275
21
0.383013
0
LINE
8
BLACK
6
CONTINUOUS
10
0.512275
20
0.383013
11
0.512874
21
0.38
0
LINE
8
BLACK
6
CONTINUOUS
10
0.512874
20
0.38
11
0.512874
21
0.32
0
LINE
8
BLACK
6
CONTINUOUS
10
0.512874
20
0.32
11
0.512275
21
0.316987
0
LINE
8
BLACK
6
CONTINUOUS
10
0.512275
20
0.316987
11
0.510568
21
0.314432
0
LINE
8
BLACK
6
CONTINUOUS
10
0.510568
20
0.314432
11
0.508013
21
0.312725
0
LINE
8
BLACK
6
CONTINUOUS
10
0.508013
20
0.312725
11
0.505
21
0.312126
0
LINE
8
BLACK
6
CONTINUOUS
10
0.505
20
0.312126
11
0.445
21
0.312126
0
LINE
8
BLACK
6
CONTINUOUS
10
0.445
20
0.312126
11
0.441987
21
0.312725
0
LINE
8
BLACK
6
CONTINUOUS
10
0.441987
20
0.312725
11
0.439432
21
0.314432
0
LINE
8
BLACK
6
CONTINUOUS
10
0.439432
20
0.314432
11
0.437725
21
0.316987
0
LINE
8
BLACK
6
CONTINUOUS
10
0.437725
20
0.316987
11
0.437126
21
0.32
0
LINE
8
BLACK
6
CONTINUOUS
10
0.437126
20
0.32
11
0.437126
21
0.38
0
LINE
8
BLACK
6
CONTINUOUS
10
0.437126
20
0.38
11
0.437725
21
0.383013
0
LINE
8
BLACK
6
CONTINUOUS
10
0.437725
20
0.383013
11
0.439432
21
0.385568
0
LINE
8
BLACK
6
CONTINUOUS
10
0.439432
20
0.385568
11
0.441987
21
0.387275
0
LINE
8
BLACK
6
CONTINUOUS
10
0.441987
20
0.387275
11
0.445
21
0.387874
0
LINE
8
BLACK
6
CONTINUOUS
10
0.445
20
0.387874
11
0.505
21
0.387874
0
LINE
8
BLACK
6
CONTINUOUS
10
0.505
20
0.387874
11
0.508013
21
0.387275
0
LINE
8
BLACK
6
CONTINUOUS
10
0.608013
20
0.387275
11
0.610568
21
0.385568
0
LINE
8
BLACK
6
CONTINUOUS
10
0.610568
20
0.385568
11
0.612275
21
0.383013
0
LINE
8
BLACK
6
CONTINUOUS
10
0.612275
20
0.383013
11
0.612874
21
0.38
0
LINE
8
BLACK
6
CONTINUOUS
10
0.612874
20
0.38
11
0.612874
21
0.32
0
LINE
8
BLACK
6
CONTINUOUS
10
0.612874
20
0.32
11
0.612275
21
0.316987
0
LINE
8
BLACK
6
CONTINUOUS
10
0.612275
20
0.316987
11
0.610568
21
0.314432
0
LINE
8
BLACK
6
CONTINUOUS
10
0.610568
20
0.314432
11
0.608013
21
0.312725
0
LINE
8
BLACK
6
CONTINUOUS
10
0.608013
20
0.312725
11
0.605
21
0.312126
0
LINE
8
BLACK
6
CONTINUOUS
10
0.605
20
0.312126
11
0.545
21
0.312126
0
LINE
8
BLACK
6
CONTINUOUS
10
0.545
20
0.312126
11
0.541987
21
0.312725
0
LINE
8
BLACK
6
CONTINUOUS
10
0.541987
20
0.312725
11
0.539432
21
0.314432
0
LINE
8
BLACK
6
CONTINUOUS
10
0.539432
20
0.314432
11
0.537725
21
0.316987
0
LINE
8
BLACK
6
CONTINUOUS
10
0.537725
20
0.316987
11
0.537126
21
0.32
0
LINE
8
BLACK
6
CONTINUOUS
10
0.537126
20
0.32
11
0.537126
21
0.38
0
LINE
8
BLACK
6
CONTINUOUS
10
0.537126
20
0.38
11
0.537725
21
0.383013
0
LINE
8
BLACK
6
CONTINUOUS
10
0.537725
20
0.383013
11
0.539432
21
0.385568
0
LINE
8
BLACK
6
CONTINUOUS
10
0.539432
20
0.385568
11
0.541987
21
0.387275
0
LINE
8
BLACK
6
CONTINUOUS
10
0.541987
20
0.387275
11
0.545
21
0.387874
0
LINE
8
BLACK
6
CONTINUOUS
10
0.545
20
0.387874
11
0.605
21
0.387874
0
LINE
8
BLACK
6
CONTINUOUS
10
0.605
20
0.387874
11
0.608013
21
0.387275
0
LINE
8
BLACK
6
CONTINUOUS
10
0.808013
20
0.387275
11
0.810568
21
0.385568
0
LINE
8
BLACK
6
CONTINUOUS
10
0.810568
20
0.385568
11
0.812275
21
0.383013
0
LINE
8
BLACK
6
CONTINUOUS
10
0.812275
20
0.383013
11
0.812874
21
0.38
0
LINE
8
BLACK
6
CONTINUOUS
10
0.812874
20
0.38
11
0.812874
21
0.32
0
LINE
8
BLACK
6
CONTINUOUS
10
0.812874
20
0.32
11
0.812275
21
0.316987
0
LINE
8
BLACK
6
CONTINUOUS
10
0.812275
20
0.316987
11
0.810568
21
0.314432
0
LINE
8
BLACK
6
CONTINUOUS
10
0.810568
20
0.314432
11
0.808013
21
0.312725
0
LINE
8
BLACK
6
CONTINUOUS
10
0.808013
20
0.312725
11
0.805
21
0.312126
0
LINE
8
BLACK
6
CONTINUOUS
10
0.805
20
0.312126
11
0.745
21
0.312126
0
LINE
8
BLACK
6
CONTINUOUS
10
0.745
20
0.312126
11
0.741987
21
0.312725
0
LINE
8
BLACK
6
CONTINUOUS
10
0.741987
20
0.312725
11
0.739432
21
0.314432
0
LINE
8
BLACK
6
CONTINUOUS
10
0.739432
20
0.314432
11
0.737725
21
0.316987
0
LINE
8
BLACK
6
CONTINUOUS
10
0.737725
20
0.316987
11
0.737126
21
0.32
0
LINE
8
BLACK
6
CONTINUOUS
10
0.737126
20
0.32
11
0.737126
21
0.38
0
LINE
8
BLACK
6
CONTINUOUS
10
0.737126
20
0.38
11
0.737725
21
0.383013
0
LINE
8
BLACK
6
CONTINUOUS
10
0.737725
20
0.383013
11
0.739432
21
0.385568
0
LINE
8
BLACK
6
CONTINUOUS
10
0.739432
20
0.385568
11
0.741987
21
0.387275
0
LINE
8
BLACK
6
CONTINUOUS
10
0.741987
20
0.387275
11
0.745
21
0.387874
0
LINE
8
BLACK
6
CONTINUOUS
10
0.745
20
0.387874
11
0.805
21
0.387874
0
LINE
8
BLACK
6
CONTINUOUS
10
0.805
20
0.387874
11
0.808013
21
0.387275
0
LINE
8
BLACK
6
CONTINUOUS
10
0.708013
20
0.387275
11
0.710568
21
0.385568
0
LINE
8
BLACK
6
CONTINUOUS
10
0.710568
20
0.385568
11
0.712275
21
0.383013
0
LINE
8
BLACK
6
CONTINUOUS
10
0.712275
20
0.383013
11
0.712874
21
0.38
0
LINE
8
BLACK
6
CONTINUOUS
10
0.712874
20
0.38
11
0.712874
21
0.32
0
LINE
8
BLACK
6
CONTINUOUS
10
0.712874
20
0.32
11
0.712275
21
0.316987
0
LINE
8
BLACK
6
CONTINUOUS
10
0.712275
20
0.316987
11
0.710568
21
0.314432
0
LINE
8
BLACK
6
CONTINUOUS
10
0.710568
20
0.314432
11
0.708013
21
0.312725
0
LINE
8
BLACK
6
CONTINUOUS
10
0.708013
20
0.312725
11
0.705
21
0.312126
0
LINE
8
BLACK
6
CONTINUOUS
10
0.705
20
0.312126
11
0.645
21
0.312126
0
LINE
8
BLACK
6
CONTINUOUS
10
0.645
20
0.312126
11
0.641987
21
0.312725
0
LINE
8
BLACK
6
CONTINUOUS
10
0.641987
20
0.312725
11
0.639432
21
0.314432
0
LINE
8
BLACK
6
CONTINUOUS
10
0.639432
20
0.314432
11
0.637725
21
0.316987
0
LINE
8
BLACK
6
CONTINUOUS
10
0.637725
20
0.316987
11
0.637126
21
0.32
0
LINE
8
BLACK
6
CONTINUOUS
10
0.637126
20
0.32
11
0.637126
21
0.38
0
LINE
8
BLACK
6
CONTINUOUS
10
0.637126
20
0.38
11
0.637725
21
0.383013
0
LINE
8
BLACK
6
CONTINUOUS
10
0.637725
20
0.383013
11
0.639432
21
0.385568
0
LINE
8
BLACK
6
CONTINUOUS
10
0.639432
20
0.385568
11
0.641987
21
0.387275
0
LINE
8
BLACK
6
CONTINUOUS
10
0.641987
20
0.387275
11
0.645
21
0.387874
0
LINE
8
BLACK
6
CONTINUOUS
10
0.645
20
0.387874
11
0.705
21
0.387874
0
LINE
8
BLACK
6
CONTINUOUS
10
0.705
20
0.387874
11
0.708013
21
0.387275
0
LINE
8
BLACK
6
CONTINUOUS
10
0.233013
20
0.472275
11
0.235568
21
0.470568
0
LINE
8
BLACK
6
CONTINUOUS
10
0.235568
20
0.470568
11
0.237275
21
0.468013
0
LINE
8
BLACK
6
CONTINUOUS
10
0.237275
20
0.468013
11
0.237874
21
0.465
0
LINE
8
BLACK
6
CONTINUOUS
10
0.237874
20
0.465
11
0.237874
21
0.405
0
LINE
8
BLACK
6
CONTINUOUS
10
0.237874
20
0.405
11
0.237275
21
0.401987
0
LINE
8
BLACK
6
CONTINUOUS
10
0.237275
20
0.401987
11
0.235568
21
0.399432
0
LINE
8
BLACK
6
CONTINUOUS
10
0.235568
20
0.399432
11
0.233013
21
0.397725
0
LINE
8
BLACK
6
CONTINUOUS
10
0.233013
20
0.397725
11
0.23
21
0.397126
0
LINE
8
BLACK
6
CONTINUOUS
10
0.23
20
0.397126
11
0.17
21
0.397126
0
LINE
8
BLACK
6
CONTINUOUS
10
0.17
20
0.397126
11
0.166987
21
0.397725
0
LINE
8
BLACK
6
CONTINUOUS
10
0.166987
20
0.397725
11
0.164432
21
0.399432
0
LINE
8
BLACK
6
CONTINUOUS
10
0.164432
20
0.399432
11
0.162725
21
0.401987
0
LINE
8
BLACK
6
CONTINUOUS
10
0.162725
20
0.401987
11
0.162126
21
0.405
0
LINE
8
BLACK
6
CONTINUOUS
10
0.162126
20
0.405
11
0.162126
21
0.465
0
LINE
8
BLACK
6
CONTINUOUS
10
0.162126
20
0.465
11
0.162725
21
0.468013
0
LINE
8
BLACK
6
CONTINUOUS
10
0.162725
20
0.468013
11
0.164432
21
0.470568
0
LINE
8
BLACK
6
CONTINUOUS
10
0.164432
20
0.470568
11
0.166987
21
0.472275
0
LINE
8
BLACK
6
CONTINUOUS
10
0.166987
20
0.472275
11
0.17
21
0.472874
0
LINE
8
BLACK
6
CONTINUOUS
10
0.17
20
0.472874
11
0.23
21
0.472874
0
LINE
8
BLACK
6
CONTINUOUS
10
0.23
20
0.472874
11
0.233013
21
0.472275
0
LINE
8
BLACK
6
CONTINUOUS
10
0.133013
20
0.472275
11
0.135568
21
0.470568
0
LINE
8
BLACK
6
CONTINUOUS
10
0.135568
20
0.470568
11
0.137275
21
0.468013
0
LINE
8
BLACK
6
CONTINUOUS
10
0.137275
20
0.468013
11
0.137874
21
0.465
0
LINE
8
BLACK
6
CONTINUOUS
10
0.137874
20
0.465
11
0.137874
21
0.405
0
LINE
8
BLACK
6
CONTINUOUS
10
0.137874
20
0.405
11
0.137275
21
0.401987
0
LINE
8
BLACK
6
CONTINUOUS
10
0.137275
20
0.401987
11
0.135568
21
0.399432
0
LINE
8
BLACK
6
CONTINUOUS
10
0.135568
20
0.399432
11
0.133013
21
0.397725
0
LINE
8
BLACK
6
CONTINUOUS
10
0.133013
20
0.397725
11
0.13
21
0.397126
0
LINE
8
BLACK
6
CONTINUOUS
10
0.13
20
0.397126
11
0.07
21
0.397126
0
LINE
8
BLACK
6
CONTINUOUS
10
0.07
20
0.397126
11
0.0669868
21
0.397725
0
LINE
8
BLACK
6
CONTINUOUS
10
0.0669868
20
0.397725
11
0.0644322
21
0.399432
0
LINE
8
BLACK
6
CONTINUOUS
10
0.0644322
20
0.399432
11
0.0627254
21
0.401987
0
LINE
8
BLACK
6
CONTINUOUS
10
0.0627254
20
0.401987
11
0.0621261
21
0.405
0
LINE
8
BLACK
6
CONTINUOUS
10
0.0621261
20
0.405
11
0.062126
21
0.465
0
LINE
8
BLACK
6
CONTINUOUS
10
0.062126
20
0.465
11
0.0627254
21
0.468013
0
LINE
8
BLACK
6
CONTINUOUS
10
0.0627254
20
0.468013
11
0.0644322
21
0.470568
0
LINE
8
BLACK
6
CONTINUOUS
10
0.0644322
20
0.470568
11
0.0669868
21
0.472275
0
LINE
8
BLACK
6
CONTINUOUS
10
0.0669868
20
0.472275
11
0.07
21
0.472874
0
LINE
8
BLACK
6
CONTINUOUS
10
0.07
20
0.472874
11
0.13
21
0.472874
0
LINE
8
BLACK
6
CONTINUOUS
10
0.13
20
0.472874
11
0.133013
21
0.472275
0
LINE
8
BLACK
6
CONTINUOUS
10
2.30955
20
0.585272
11
2.31886
21
0.583037
0
LINE
8
BLACK
6
CONTINUOUS
10
2.31886
20
0.583037
11
2.3277
21
0.579372
0
LINE
8
BLACK
6
CONTINUOUS
10
2.3277
20
0.579372
11
2.33587
21
0.574369
0
LINE
8
BLACK
6
CONTINUOUS
10
2.33587
20
0.574369
11
2.34315
21
0.56815
0
LINE
8
BLACK
6
CONTINUOUS
10
2.34315
20
0.56815
11
2.34937
21
0.560869
0
LINE
8
BLACK
6
CONTINUOUS
10
2.34937
20
0.560869
11
2.35437
21
0.552704
0
LINE
8
BLACK
6
CONTINUOUS
10
2.35437
20
0.552704
11
2.35804
21
0.543857
0
LINE
8
BLACK
6
CONTINUOUS
10
2.35804
20
0.543857
11
2.36027
21
0.534546
0
LINE
8
BLACK
6
CONTINUOUS
10
2.36027
20
0.534546
11
2.36102
21
0.525
0
LINE
8
BLACK
6
CONTINUOUS
10
2.36102
20
0.525
11
2.36027
21
0.515454
0
LINE
8
BLACK
6
CONTINUOUS
10
2.36027
20
0.515454
11
2.35804
21
0.506143
0
LINE
8
BLACK
6
CONTINUOUS
10
2.35804
20
0.506143
11
2.35437
21
0.497296
0
LINE
8
BLACK
6
CONTINUOUS
10
2.35437
20
0.497296
11
2.34937
21
0.489131
0
LINE
8
BLACK
6
CONTINUOUS
10
2.34937
20
0.489131
11
2.34315
21
0.48185
0
LINE
8
BLACK
6
CONTINUOUS
10
2.34315
20
0.48185
11
2.33587
21
0.475631
0
LINE
8
BLACK
6
CONTINUOUS
10
2.33587
20
0.475631
11
2.3277
21
0.470628
0
LINE
8
BLACK
6
CONTINUOUS
10
2.3277
20
0.470628
11
2.31886
21
0.466963
0
LINE
8
BLACK
6
CONTINUOUS
10
2.31886
20
0.466963
11
2.30955
21
0.464728
0
LINE
8
BLACK
6
CONTINUOUS
10
2.30955
20
0.464728
11
2.3
21
0.463976
0
LINE
8
BLACK
6
CONTINUOUS
10
2.3
20
0.463976
11
2.29045
21
0.464728
0
LINE
8
BLACK
6
CONTINUOUS
10
2.29045
20
0.464728
11
2.28114
21
0.466963
0
LINE
8
BLACK
6
CONTINUOUS
10
2.28114
20
0.466963
11
2.2723
21
0.470628
0
LINE
8
BLACK
6
CONTINUOUS
10
2.2723
20
0.470628
11
2.26413
21
0.475631
0
LINE
8
BLACK
6
CONTINUOUS
10
2.26413
20
0.475631
11
2.25685
21
0.48185
0
LINE
8
BLACK
6
CONTINUOUS
10
2.25685
20
0.48185
11
2.25063
21
0.489131
0
LINE
8
BLACK
6
CONTINUOUS
10
2.25063
20
0.489131
11
2.24563
21
0.497296
0
LINE
8
BLACK
6
CONTINUOUS
10
2.24563
20
0.497296
11
2.24196
21
0.506143
0
LINE
8
BLACK
6
CONTINUOUS
10
2.24196
20
0.506143
11
2.23973
21
0.515454
0
LINE
8
BLACK
6
CONTINUOUS
10
2.23973
20
0.515454
11
2.23898
21
0.525
0
LINE
8
BLACK
6
CONTINUOUS
10
2.23898
20
0.525
11
2.23973
21
0.534546
0
LINE
8
BLACK
6
CONTINUOUS
10
2.23973
20
0.534546
11
2.24196
21
0.543857
0
LINE
8
BLACK
6
CONTINUOUS
10
2.24196
20
0.543857
11
2.24563
21
0.552704
0
LINE
8
BLACK
6
CONTINUOUS
10
2.24563
20
0.552704
11
2.25063
21
0.560869
0
LINE
8
BLACK
6
CONTINUOUS
10
2.25063
20
0.560869
11
2.25685
21
0.56815
0
LINE
8
BLACK
6
CONTINUOUS
10
2.25685
20
0.56815
11
2.26413
21
0.574369
0
LINE
8
BLACK
6
CONTINUOUS
10
2.26413
20
0.574369
11
2.2723
21
0.579372
0
LINE
8
BLACK
6
CONTINUOUS
10
2.2723
20
0.579372
11
2.28114
21
0.583037
0
LINE
8
BLACK
6
CONTINUOUS
10
2.28114
20
0.583037
11
2.29045
21
0.585272
0
LINE
8
BLACK
6
CONTINUOUS
10
2.29045
20
0.585272
11
2.3
21
0.586024
0
LINE
8
BLACK
6
CONTINUOUS
10
2.3
20
0.586024
11
2.30955
21
0.585272
0
LINE
8
BLACK
6
CONTINUOUS
10
2.10955
20
0.585272
11
2.11886
21
0.583037
0
LINE
8
BLACK
6
CONTINUOUS
10
2.11886
20
0.583037
11
2.1277
21
0.579372
0
LINE
8
BLACK
6
CONTINUOUS
10
2.1277
20
0.579372
11
2.13587
21
0.574369
0
LINE
8
BLACK
6
CONTINUOUS
10
2.13587
20
0.574369
11
2.14315
21
0.56815
0
LINE
8
BLACK
6
CONTINUOUS
10
2.14315
20
0.56815
11
2.14937
21
0.560869
0
LINE
8
BLACK
6
CONTINUOUS
10
2.14937
20
0.560869
11
2.15437
21
0.552704
0
LINE
8
BLACK
6
CONTINUOUS
10
2.15437
20
0.552704
11
2.15804
21
0.543857
0
LINE
8
BLACK
6
CONTINUOUS
10
2.15804
20
0.543857
11
2.16027
21
0.534546
0
LINE
8
BLACK
6
CONTINUOUS
10
2.16027
20
0.534546
11
2.16102
21
0.525
0
LINE
8
BLACK
6
CONTINUOUS
10
2.16102
20
0.525
11
2.16027
21
0.515454
0
LINE
8
BLACK
6
CONTINUOUS
10
2.16027
20
0.515454
11
2.15804
21
0.506143
0
LINE
8
BLACK
6
CONTINUOUS
10
2.15804
20
0.506143
11
2.15437
21
0.497296
0
LINE
8
BLACK
6
CONTINUOUS
10
2.15437
20
0.497296
11
2.14937
21
0.489131
0
LINE
8
BLACK
6
CONTINUOUS
10
2.14937
20
0.489131
11
2.14315
21
0.48185
0
LINE
8
BLACK
6
CONTINUOUS
10
2.14315
20
0.48185
11
2.13587
21
0.475631
0
LINE
8
BLACK
6
CONTINUOUS
10
2.13587
20
0.475631
11
2.1277
21
0.470628
0
LINE
8
BLACK
6
CONTINUOUS
10
2.1277
20
0.470628
11
2.11886
21
0.466963
0
LINE
8
BLACK
6
CONTINUOUS
10
2.11886
20
0.466963
11
2.10955
21
0.464728
0
LINE
8
BLACK
6
CONTINUOUS
10
2.10955
20
0.464728
11
2.1
21
0.463976
0
LINE
8
BLACK
6
CONTINUOUS
10
2.1
20
0.463976
11
2.09045
21
0.464728
0
LINE
8
BLACK
6
CONTINUOUS
10
2.09045
20
0.464728
11
2.08114
21
0.466963
0
LINE
8
BLACK
6
CONTINUOUS
10
2.08114
20
0.466963
11
2.0723
21
0.470628
0
LINE
8
BLACK
6
CONTINUOUS
10
2.0723
20
0.470628
11
2.06413
21
0.475631
0
LINE
8
BLACK
6
CONTINUOUS
10
2.06413
20
0.475631
11
2.05685
21
0.48185
0
LINE
8
BLACK
6
CONTINUOUS
10
2.05685
20
0.48185
11
2.05063
21
0.489131
0
LINE
8
BLACK
6
CONTINUOUS
10
2.05063
20
0.489131
11
2.04563
21
0.497296
0
LINE
8
BLACK
6
CONTINUOUS
10
2.04563
20
0.497296
11
2.04196
21
0.506143
0
LINE
8
BLACK
6
CONTINUOUS
10
2.04196
20
0.506143
11
2.03973
21
0.515454
0
LINE
8
BLACK
6
CONTINUOUS
10
2.03973
20
0.515454
11
2.03898
21
0.525
0
LINE
8
BLACK
6
CONTINUOUS
10
2.03898
20
0.525
11
2.03973
21
0.534546
0
LINE
8
BLACK
6
CONTINUOUS
10
2.03973
20
0.534546
11
2.04196
21
0.543857
0
LINE
8
BLACK
6
CONTINUOUS
10
2.04196
20
0.543857
11
2.04563
21
0.552704
0
LINE
8
BLACK
6
CONTINUOUS
10
2.04563
20
0.552704
11
2.05063
21
0.560869
0
LINE
8
BLACK
6
CONTINUOUS
10
2.05063
20
0.560869
11
2.05685
21
0.56815
0
LINE
8
BLACK
6
CONTINUOUS
10
2.05685
20
0.56815
11
2.06413
21
0.574369
0
LINE
8
BLACK
6
CONTINUOUS
10
2.06413
20
0.574369
11
2.0723
21
0.579372
0
LINE
8
BLACK
6
CONTINUOUS
10
2.0723
20
0.579372
11
2.08114
21
0.583037
0
LINE
8
BLACK
6
CONTINUOUS
10
2.08114
20
0.583037
11
2.09045
21
0.585272
0
LINE
8
BLACK
6
CONTINUOUS
10
2.09045
20
0.585272
11
2.1
21
0.586024
0
LINE
8
BLACK
6
CONTINUOUS
10
2.1
20
0.586024
11
2.10955
21
0.585272
0
LINE
8
BLACK
6
CONTINUOUS
10
0.233013
20
0.572275
11
0.235568
21
0.570568
0
LINE
8
BLACK
6
CONTINUOUS
10
0.235568
20
0.570568
11
0.237275
21
0.568013
0
LINE
8
BLACK
6
CONTINUOUS
10
0.237275
20
0.568013
11
0.237874
21
0.565
0
LINE
8
BLACK
6
CONTINUOUS
10
0.237874
20
0.565
11
0.237874
21
0.505
0
LINE
8
BLACK
6
CONTINUOUS
10
0.237874
20
0.505
11
0.237275
21
0.501987
0
LINE
8
BLACK
6
CONTINUOUS
10
0.237275
20
0.501987
11
0.235568
21
0.499432
0
LINE
8
BLACK
6
CONTINUOUS
10
0.235568
20
0.499432
11
0.233013
21
0.497725
0
LINE
8
BLACK
6
CONTINUOUS
10
0.233013
20
0.497725
11
0.23
21
0.497126
0
LINE
8
BLACK
6
CONTINUOUS
10
0.23
20
0.497126
11
0.17
21
0.497126
0
LINE
8
BLACK
6
CONTINUOUS
10
0.17
20
0.497126
11
0.166987
21
0.497725
0
LINE
8
BLACK
6
CONTINUOUS
10
0.166987
20
0.497725
11
0.164432
21
0.499432
0
LINE
8
BLACK
6
CONTINUOUS
10
0.164432
20
0.499432
11
0.162725
21
0.501987
0
LINE
8
BLACK
6
CONTINUOUS
10
0.162725
20
0.501987
11
0.162126
21
0.505
0
LINE
8
BLACK
6
CONTINUOUS
10
0.162126
20
0.505
11
0.162126
21
0.565
0
LINE
8
BLACK
6
CONTINUOUS
10
0.162126
20
0.565
11
0.162725
21
0.568013
0
LINE
8
BLACK
6
CONTINUOUS
10
0.162725
20
0.568013
11
0.164432
21
0.570568
0
LINE
8
BLACK
6
CONTINUOUS
10
0.164432
20
0.570568
11
0.166987
21
0.572275
0
LINE
8
BLACK
6
CONTINUOUS
10
0.166987
20
0.572275
11
0.17
21
0.572874
0
LINE
8
BLACK
6
CONTINUOUS
10
0.17
20
0.572874
11
0.23
21
0.572874
0
LINE
8
BLACK
6
CONTINUOUS
10
0.23
20
0.572874
11
0.233013
21
0.572275
0
LINE
8
BLACK
6
CONTINUOUS
10
0.133013
20
0.572275
11
0.135568
21
0.570568
0
LINE
8
BLACK
6
CONTINUOUS
10
0.135568
20
0.570568
11
0.137275
21
0.568013
0
LINE
8
BLACK
6
CONTINUOUS
10
0.137275
20
0.568013
11
0.137874
21
0.565
0
LINE
8
BLACK
6
CONTINUOUS
10
0.137874
20
0.565
11
0.137874
21
0.505
0
LINE
8
BLACK
6
CONTINUOUS
10
0.137874
20
0.505
11
0.137275
21
0.501987
0
LINE
8
BLACK
6
CONTINUOUS
10
0.137275
20
0.501987
11
0.135568
21
0.499432
0
LINE
8
BLACK
6
CONTINUOUS
10
0.135568
20
0.499432
11
0.133013
21
0.497725
0
LINE
8
BLACK
6
CONTINUOUS
10
0.133013
20
0.497725
11
0.13
21
0.497126
0
LINE
8
BLACK
6
CONTINUOUS
10
0.13
20
0.497126
11
0.07
21
0.497126
0
LINE
8
BLACK
6
CONTINUOUS
10
0.07
20
0.497126
11
0.0669868
21
0.497725
0
LINE
8
BLACK
6
CONTINUOUS
10
0.0669868
20
0.497725
11
0.0644322
21
0.499432
0
LINE
8
BLACK
6
CONTINUOUS
10
0.0644322
20
0.499432
11
0.0627254
21
0.501987
0
LINE
8
BLACK
6
CONTINUOUS
10
0.0627254
20
0.501987
11
0.0621261
21
0.505
0
LINE
8
BLACK
6
CONTINUOUS
10
0.0621261
20
0.505
11
0.062126
21
0.565
0
LINE
8
BLACK
6
CONTINUOUS
10
0.062126
20
0.565
11
0.0627254
21
0.568013
0
LINE
8
BLACK
6
CONTINUOUS
10
0.0627254
20
0.568013
11
0.0644322
21
0.570568
0
LINE
8
BLACK
6
CONTINUOUS
10
0.0644322
20
0.570568
11
0.0669868
21
0.572275
0
LINE
8
BLACK
6
CONTINUOUS
10
0.0669868
20
0.572275
11
0.07
21
0.572874
0
LINE
8
BLACK
6
CONTINUOUS
10
0.07
20
0.572874
11
0.13
21
0.572874
0
LINE
8
BLACK
6
CONTINUOUS
10
0.13
20
0.572874
11
0.133013
21
0.572275
0
LINE
8
BLACK
6
CONTINUOUS
10
2.20537
20
0.681833
11
2.21458
21
0.680193
0
LINE
8
BLACK
6
CONTINUOUS
10
2.21458
20
0.680193
11
2.2234
21
0.67707
0
LINE
8
BLACK
6
CONTINUOUS
10
2.2234
20
0.67707
11
2.23159
21
0.672549
0
LINE
8
BLACK
6
CONTINUOUS
10
2.23159
20
0.672549
11
2.23893
21
0.66675
0
LINE
8
BLACK
6
CONTINUOUS
10
2.23893
20
0.66675
11
2.24523
21
0.659831
0
LINE
8
BLACK
6
CONTINUOUS
10
2.24523
20
0.659831
11
2.25031
21
0.651976
0
LINE
8
BLACK
6
CONTINUOUS
10
2.25031
20
0.651976
11
2.25404
21
0.643397
0
LINE
8
BLACK
6
CONTINUOUS
10
2.25404
20
0.643397
11
2.25632
21
0.634324
0
LINE
8
BLACK
6
CONTINUOUS
10
2.25632
20
0.634324
11
2.25709
21
0.625
0
LINE
8
BLACK
6
CONTINUOUS
10
2.25709
20
0.625
11
2.25702
21
0.622211
0
LINE
8
BLACK
6
CONTINUOUS
10
2.25702
20
0.622211
11
2.2558
21
0.612936
0
LINE
8
BLACK
6
CONTINUOUS
10
2.2558
20
0.612936
11
2.25308
21
0.603985
0
LINE
8
BLACK
6
CONTINUOUS
10
2.25308
20
0.603985
11
2.24893
21
0.595598
0
LINE
8
BLACK
6
CONTINUOUS
10
2.24893
20
0.595598
11
2.24347
21
0.588001
0
LINE
8
BLACK
6
CONTINUOUS
10
2.24347
20
0.588001
11
2.23685
21
0.581398
0
LINE
8
BLACK
6
CONTINUOUS
10
2.23685
20
0.581398
11
2.22923
21
0.575965
0
LINE
8
BLACK
6
CONTINUOUS
10
2.22923
20
0.575965
11
2.22083
21
0.571849
0
LINE
8
BLACK
6
CONTINUOUS
10
2.22083
20
0.571849
11
2.21187
21
0.569161
0
LINE
8
BLACK
6
CONTINUOUS
10
2.21187
20
0.569161
11
2.20259
21
0.567972
0
LINE
8
BLACK
6
CONTINUOUS
10
2.20259
20
0.567972
11
2.19324
21
0.568315
0
LINE
8
BLACK
6
CONTINUOUS
10
2.19324
20
0.568315
11
2.18407
21
0.57018
0
LINE
8
BLACK
6
CONTINUOUS
10
2.18407
20
0.57018
11
2.17533
21
0.573517
0
LINE
8
BLACK
6
CONTINUOUS
10
2.17533
20
0.573517
11
2.16726
21
0.578237
0
LINE
8
BLACK
6
CONTINUOUS
10
2.16726
20
0.578237
11
2.16006
21
0.584213
0
LINE
8
BLACK
6
CONTINUOUS
10
2.16006
20
0.584213
11
2.15393
21
0.591284
0
LINE
8
BLACK
6
CONTINUOUS
10
2.15393
20
0.591284
11
2.14905
21
0.599261
0
LINE
8
BLACK
6
CONTINUOUS
10
2.14905
20
0.599261
11
2.14553
21
0.607929
0
LINE
8
BLACK
6
CONTINUOUS
10
2.14553
20
0.607929
11
2.14347
21
0.617055
0
LINE
8
BLACK
6
CONTINUOUS
10
2.14347
20
0.617055
11
2.14293
21
0.626395
0
LINE
8
BLACK
6
CONTINUOUS
10
2.14293
20
0.626395
11
2.14392
21
0.635697
0
LINE
8
BLACK
6
CONTINUOUS
10
2.14392
20
0.635697
11
2.14642
21
0.644712
0
LINE
8
BLACK
6
CONTINUOUS
10
2.14642
20
0.644712
11
2.15036
21
0.653197
0
LINE
8
BLACK
6
CONTINUOUS
10
2.15036
20
0.653197
11
2.15564
21
0.660926
0
LINE
8
BLACK
6
CONTINUOUS
10
2.15564
20
0.660926
11
2.1621
21
0.667689
0
LINE
8
BLACK
6
CONTINUOUS
10
2.1621
20
0.667689
11
2.16958
21
0.673306
0
LINE
8
BLACK
6
CONTINUOUS
10
2.16958
20
0.673306
11
2.17788
21
0.677626
0
LINE
8
BLACK
6
CONTINUOUS
10
2.17788
20
0.677626
11
2.18677
21
0.680532
0
LINE
8
BLACK
6
CONTINUOUS
10
2.18677
20
0.680532
11
2.19602
21
0.681948
0
LINE
8
BLACK
6
CONTINUOUS
10
2.19602
20
0.681948
11
2.20537
21
0.681833
0
LINE
8
BLACK
6
CONTINUOUS
10
0.233013
20
0.672275
11
0.235568
21
0.670568
0
LINE
8
BLACK
6
CONTINUOUS
10
0.235568
20
0.670568
11
0.237275
21
0.668013
0
LINE
8
BLACK
6
CONTINUOUS
10
0.237275
20
0.668013
11
0.237874
21
0.665
0
LINE
8
BLACK
6
CONTINUOUS
10
0.237874
20
0.665
11
0.237874
21
0.605
0
LINE
8
BLACK
6
CONTINUOUS
10
0.237874
20
0.605
11
0.237275
21
0.601987
0
LINE
8
BLACK
6
CONTINUOUS
10
0.237275
20
0.601987
11
0.235568
21
0.599432
0
LINE
8
BLACK
6
CONTINUOUS
10
0.235568
20
0.599432
11
0.233013
21
0.597725
0
LINE
8
BLACK
6
CONTINUOUS
10
0.233013
20
0.597725
11
0.23
21
0.597126
0
LINE
8
BLACK
6
CONTINUOUS
10
0.23
20
0.597126
11
0.17
21
0.597126
0
LINE
8
BLACK
6
CONTINUOUS
10
0.17
20
0.597126
11
0.166987
21
0.597725
0
LINE
8
BLACK
6
CONTINUOUS
10
0.166987
20
0.597725
11
0.164432
21
0.599432
0
LINE
8
BLACK
6
CONTINUOUS
10
0.164432
20
0.599432
11
0.162725
21
0.601987
0
LINE
8
BLACK
6
CONTINUOUS
10
0.162725
20
0.601987
11
0.162126
21
0.605
0
LINE
8
BLACK
6
CONTINUOUS
10
0.162126
20
0.605
11
0.162126
21
0.665
0
LINE
8
BLACK
6
CONTINUOUS
10
0.162126
20
0.665
11
0.162725
21
0.668013
0
LINE
8
BLACK
6
CONTINUOUS
10
0.162725
20
0.668013
11
0.164432
21
0.670568
0
LINE
8
BLACK
6
CONTINUOUS
10
0.164432
20
0.670568
11
0.166987
21
0.672275
0
LINE
8
BLACK
6
CONTINUOUS
10
0.166987
20
0.672275
11
0.17
21
0.672874
0
LINE
8
BLACK
6
CONTINUOUS
10
0.17
20
0.672874
11
0.23
21
0.672874
0
LINE
8
BLACK
6
CONTINUOUS
10
0.23
20
0.672874
11
0.233013
21
0.672275
0
LINE
8
BLACK
6
CONTINUOUS
10
0.133013
20
0.672275
11
0.135568
21
0.670568
0
LINE
8
BLACK
6
CONTINUOUS
10
0.135568
20
0.670568
11
0.137275
21
0.668013
0
LINE
8
BLACK
6
CONTINUOUS
10
0.137275
20
0.668013
11
0.137874
21
0.665
0
LINE
8
BLACK
6
CONTINUOUS
10
0.137874
20
0.665
11
0.137874
21
0.605
0
LINE
8
BLACK
6
CONTINUOUS
10
0.137874
20
0.605
11
0.137275
21
0.601987
0
LINE
8
BLACK
6
CONTINUOUS
10
0.137275
20
0.601987
11
0.135568
21
0.599432
0
LINE
8
BLACK
6
CONTINUOUS
10
0.135568
20
0.599432
11
0.133013
21
0.597725
0
LINE
8
BLACK
6
CONTINUOUS
10
0.133013
20
0.597725
11
0.13
21
0.597126
0
LINE
8
BLACK
6
CONTINUOUS
10
0.13
20
0.597126
11
0.07
21
0.597126
0
LINE
8
BLACK
6
CONTINUOUS
10
0.07
20
0.597126
11
0.0669868
21
0.597725
0
LINE
8
BLACK
6
CONTINUOUS
10
0.0669868
20
0.597725
11
0.0644322
21
0.599432
0
LINE
8
BLACK
6
CONTINUOUS
10
0.0644322
20
0.599432
11
0.0627254
21
0.601987
0
LINE
8
BLACK
6
CONTINUOUS
10
0.0627254
20
0.601987
11
0.0621261
21
0.605
0
LINE
8
BLACK
6
CONTINUOUS
10
0.0621261
20
0.605
11
0.062126
21
0.665
0
LINE
8
BLACK
6
CONTINUOUS
10
0.062126
20
0.665
11
0.0627254
21
0.668013
0
LINE
8
BLACK
6
CONTINUOUS
10
0.0627254
20
0.668013
11
0.0644322
21
0.670568
0
LINE
8
BLACK
6
CONTINUOUS
10
0.0644322
20
0.670568
11
0.0669868
21
0.672275
0
LINE
8
BLACK
6
CONTINUOUS
10
0.0669868
20
0.672275
11
0.07
21
0.672874
0
LINE
8
BLACK
6
CONTINUOUS
10
0.07
20
0.672874
11
0.13
21
0.672874
0
LINE
8
BLACK
6
CONTINUOUS
10
0.13
20
0.672874
11
0.133013
21
0.672275
0
LINE
8
BLACK
6
CONTINUOUS
10
2.30955
20
0.785272
11
2.31886
21
0.783037
0
LINE
8
BLACK
6
CONTINUOUS
10
2.31886
20
0.783037
11
2.3277
21
0.779372
0
LINE
8
BLACK
6
CONTINUOUS
10
2.3277
20
0.779372
11
2.33587
21
0.774369
0
LINE
8
BLACK
6
CONTINUOUS
10
2.33587
20
0.774369
11
2.34315
21
0.76815
0
LINE
8
BLACK
6
CONTINUOUS
10
2.34315
20
0.76815
11
2.34937
21
0.760869
0
LINE
8
BLACK
6
CONTINUOUS
10
2.34937
20
0.760869
11
2.35437
21
0.752704
0
LINE
8
BLACK
6
CONTINUOUS
10
2.35437
20
0.752704
11
2.35804
21
0.743857
0
LINE
8
BLACK
6
CONTINUOUS
10
2.35804
20
0.743857
11
2.36027
21
0.734546
0
LINE
8
BLACK
6
CONTINUOUS
10
2.36027
20
0.734546
11
2.36102
21
0.725
0
LINE
8
BLACK
6
CONTINUOUS
10
2.36102
20
0.725
11
2.36027
21
0.715454
0
LINE
8
BLACK
6
CONTINUOUS
10
2.36027
20
0.715454
11
2.35804
21
0.706143
0
LINE
8
BLACK
6
CONTINUOUS
10
2.35804
20
0.706143
11
2.35437
21
0.697296
0
LINE
8
BLACK
6
CONTINUOUS
10
2.35437
20
0.697296
11
2.34937
21
0.689131
0
LINE
8
BLACK
6
CONTINUOUS
10
2.34937
20
0.689131
11
2.34315
21
0.68185
0
LINE
8
BLACK
6
CONTINUOUS
10
2.34315
20
0.68185
11
2.33587
21
0.675631
0
LINE
8
BLACK
6
CONTINUOUS
10
2.33587
20
0.675631
11
2.3277
21
0.670628
0
LINE
8
BLACK
6
CONTINUOUS
10
2.3277
20
0.670628
11
2.31886
21
0.666963
0
LINE
8
BLACK
6
CONTINUOUS
10
2.31886
20
0.666963
11
2.30955
21
0.664728
0
LINE
8
BLACK
6
CONTINUOUS
10
2.30955
20
0.664728
11
2.3
21
0.663976
0
LINE
8
BLACK
6
CONTINUOUS
10
2.3
20
0.663976
11
2.29045
21
0.664728
0
LINE
8
BLACK
6
CONTINUOUS
10
2.29045
20
0.664728
11
2.28114
21
0.666963
0
LINE
8
BLACK
6
CONTINUOUS
10
2.28114
20
0.666963
11
2.2723
21
0.670628
0
LINE
8
BLACK
6
CONTINUOUS
10
2.2723
20
0.670628
11
2.26413
21
0.675631
0
LINE
8
BLACK
6
CONTINUOUS
10
2.26413
20
0.675631
11
2.25685
21
0.68185
0
LINE
8
BLACK
6
CONTINUOUS
10
2.25685
20
0.68185
11
2.25063
21
0.689131
0
LINE
8
BLACK
6
CONTINUOUS
10
2.25063
20
0.689131
11
2.24563
21
0.697296
0
LINE
8
BLACK
6
CONTINUOUS
10
2.24563
20
0.697296
11
2.24196
21
0.706143
0
LINE
8
BLACK
6
CONTINUOUS
10
2.24196
20
0.706143
11
2.23973
21
0.715454
0
LINE
8
BLACK
6
CONTINUOUS
10
2.23973
20
0.715454
11
2.23898
21
0.725
0
LINE
8
BLACK
6
CONTINUOUS
10
2.23898
20
0.725
11
2.23973
21
0.734546
0
LINE
8
BLACK
6
CONTINUOUS
10
2.23973
20
0.734546
11
2.24196
21
0.743857
0
LINE
8
BLACK
6
CONTINUOUS
10
2.24196
20
0.743857
11
2.24563
21
0.752704
0
LINE
8
BLACK
6
CONTINUOUS
10
2.24563
20
0.752704
11
2.25063
21
0.760869
0
LINE
8
BLACK
6
CONTINUOUS
10
2.25063
20
0.760869
11
2.25685
21
0.76815
0
LINE
8
BLACK
6
CONTINUOUS
10
2.25685
20
0.76815
11
2.26413
21
0.774369
0
LINE
8
BLACK
6
CONTINUOUS
10
2.26413
20
0.774369
11
2.2723
21
0.779372
0
LINE
8
BLACK
6
CONTINUOUS
10
2.2723
20
0.779372
11
2.28114
21
0.783037
0
LINE
8
BLACK
6
CONTINUOUS
10
2.28114
20
0.783037
11
2.29045
21
0.785272
0
LINE
8
BLACK
6
CONTINUOUS
10
2.29045
20
0.785272
11
2.3
21
0.786024
0
LINE
8
BLACK
6
CONTINUOUS
10
2.3
20
0.786024
11
2.30955
21
0.785272
0
LINE
8
BLACK
6
CONTINUOUS
10
2.10955
20
0.785272
11
2.11886
21
0.783037
0
LINE
8
BLACK
6
CONTINUOUS
10
2.11886
20
0.783037
11
2.1277
21
0.779372
0
LINE
8
BLACK
6
CONTINUOUS
10
2.1277
20
0.779372
11
2.13587
21
0.774369
0
LINE
8
BLACK
6
CONTINUOUS
10
2.13587
20
0.774369
11
2.14315
21
0.76815
0
LINE
8
BLACK
6
CONTINUOUS
10
2.14315
20
0.76815
11
2.14937
21
0.760869
0
LINE
8
BLACK
6
CONTINUOUS
10
2.14937
20
0.760869
11
2.15437
21
0.752704
0
LINE
8
BLACK
6
CONTINUOUS
10
2.15437
20
0.752704
11
2.15804
21
0.743857
0
LINE
8
BLACK
6
CONTINUOUS
10
2.15804
20
0.743857
11
2.16027
21
0.734546
0
LINE
8
BLACK
6
CONTINUOUS
10
2.16027
20
0.734546
11
2.16102
21
0.725
0
LINE
8
BLACK
6
CONTINUOUS
10
2.16102
20
0.725
11
2.16027
21
0.715454
0
LINE
8
BLACK
6
CONTINUOUS
10
2.16027
20
0.715454
11
2.15804
21
0.706143
0
LINE
8
BLACK
6
CONTINUOUS
10
2.15804
20
0.706143
11
2.15437
21
0.697296
0
LINE
8
BLACK
6
CONTINUOUS
10
2.15437
20
0.697296
11
2.14937
21
0.689131
0
LINE
8
BLACK
6
CONTINUOUS
10
2.14937
20
0.689131
11
2.14315
21
0.68185
0
LINE
8
BLACK
6
CONTINUOUS
10
2.14315
20
0.68185
11
2.13587
21
0.675631
0
LINE
8
BLACK
6
CONTINUOUS
10
2.13587
20
0.675631
11
2.1277
21
0.670628
0
LINE
8
BLACK
6
CONTINUOUS
10
2.1277
20
0.670628
11
2.11886
21
0.666963
0
LINE
8
BLACK
6
CONTINUOUS
10
2.11886
20
0.666963
11
2.10955
21
0.664728
0
LINE
8
BLACK
6
CONTINUOUS
10
2.10955
20
0.664728
11
2.1
21
0.663976
0
LINE
8
BLACK
6
CONTINUOUS
10
2.1
20
0.663976
11
2.09045
21
0.664728
0
LINE
8
BLACK
6
CONTINUOUS
10
2.09045
20
0.664728
11
2.08114
21
0.666963
0
LINE
8
BLACK
6
CONTINUOUS
10
2.08114
20
0.666963
11
2.0723
21
0.670628
0
LINE
8
BLACK
6
CONTINUOUS
10
2.0723
20
0.670628
11
2.06413
21
0.675631
0
LINE
8
BLACK
6
CONTINUOUS
10
2.06413
20
0.675631
11
2.05685
21
0.68185
0
LINE
8
BLACK
6
CONTINUOUS
10
2.05685
20
0.68185
11
2.05063
21
0.689131
0
LINE
8
BLACK
6
CONTINUOUS
10
2.05063
20
0.689131
11
2.04563
21
0.697296
0
LINE
8
BLACK
6
CONTINUOUS
10
2.04563
20
0.697296
11
2.04196
21
0.706143
0
LINE
8
BLACK
6
CONTINUOUS
10
2.04196
20
0.706143
11
2.03973
21
0.715454
0
LINE
8
BLACK
6
CONTINUOUS
10
2.03973
20
0.715454
11
2.03898
21
0.725
0
LINE
8
BLACK
6
CONTINUOUS
10
2.03898
20
0.725
11
2.03973
21
0.734546
0
LINE
8
BLACK
6
CONTINUOUS
10
2.03973
20
0.734546
11
2.04196
21
0.743857
0
LINE
8
BLACK
6
CONTINUOUS
10
2.04196
20
0.743857
11
2.04563
21
0.752704
0
LINE
8
BLACK
6
CONTINUOUS
10
2.04563
20
0.752704
11
2.05063
21
0.760869
0
LINE
8
BLACK
6
CONTINUOUS
10
2.05063
20
0.760869
11
2.05685
21
0.76815
0
LINE
8
BLACK
6
CONTINUOUS
10
2.05685
20
0.76815
11
2.06413
21
0.774369
0
LINE
8
BLACK
6
CONTINUOUS
10
2.06413
20
0.774369
11
2.0723
21
0.779372
0
LINE
8
BLACK
6
CONTINUOUS
10
2.0723
20
0.779372
11
2.08114
21
0.783037
0
LINE
8
BLACK
6
CONTINUOUS
10
2.08114
20
0.783037
11
2.09045
21
0.785272
0
LINE
8
BLACK
6
CONTINUOUS
10
2.09045
20
0.785272
11
2.1
21
0.786024
0
LINE
8
BLACK
6
CONTINUOUS
10
2.1
20
0.786024
11
2.10955
21
0.785272
0
LINE
8
BLACK
6
CONTINUOUS
10
2.30955
20
1.01027
11
2.31886
21
1.00804
0
LINE
8
BLACK
6
CONTINUOUS
10
2.31886
20
1.00804
11
2.3277
21
1.00437
0
LINE
8
BLACK
6
CONTINUOUS
10
2.3277
20
1.00437
11
2.33587
21
0.999369
0
LINE
8
BLACK
6
CONTINUOUS
10
2.33587
20
0.999369
11
2.34315
21
0.99315
0
LINE
8
BLACK
6
CONTINUOUS
10
2.34315
20
0.99315
11
2.34937
21
0.985869
0
LINE
8
BLACK
6
CONTINUOUS
10
2.34937
20
0.985869
11
2.35437
21
0.977704
0
LINE
8
BLACK
6
CONTINUOUS
10
2.35437
20
0.977704
11
2.35804
21
0.968857
0
LINE
8
BLACK
6
CONTINUOUS
10
2.35804
20
0.968857
11
2.36027
21
0.959546
0
LINE
8
BLACK
6
CONTINUOUS
10
2.36027
20
0.959546
11
2.36102
21
0.95
0
LINE
8
BLACK
6
CONTINUOUS
10
2.36102
20
0.95
11
2.36027
21
0.940454
0
LINE
8
BLACK
6
CONTINUOUS
10
2.36027
20
0.940454
11
2.35804
21
0.931143
0
LINE
8
BLACK
6
CONTINUOUS
10
2.35804
20
0.931143
11
2.35437
21
0.922296
0
LINE
8
BLACK
6
CONTINUOUS
10
2.35437
20
0.922296
11
2.34937
21
0.914131
0
LINE
8
BLACK
6
CONTINUOUS
10
2.34937
20
0.914131
11
2.34315
21
0.90685
0
LINE
8
BLACK
6
CONTINUOUS
10
2.34315
20
0.90685
11
2.33587
21
0.900631
0
LINE
8
BLACK
6
CONTINUOUS
10
2.33587
20
0.900631
11
2.3277
21
0.895628
0
LINE
8
BLACK
6
CONTINUOUS
10
2.3277
20
0.895628
11
2.31886
21
0.891963
0
LINE
8
BLACK
6
CONTINUOUS
10
2.31886
20
0.891963
11
2.30955
21
0.889728
0
LINE
8
BLACK
6
CONTINUOUS
10
2.30955
20
0.889728
11
2.3
21
0.888976
0
LINE
8
BLACK
6
CONTINUOUS
10
2.3
20
0.888976
11
2.29045
21
0.889728
0
LINE
8
BLACK
6
CONTINUOUS
10
2.29045
20
0.889728
11
2.28114
21
0.891963
0
LINE
8
BLACK
6
CONTINUOUS
10
2.28114
20
0.891963
11
2.2723
21
0.895628
0
LINE
8
BLACK
6
CONTINUOUS
10
2.2723
20
0.895628
11
2.26413
21
0.900631
0
LINE
8
BLACK
6
CONTINUOUS
10
2.26413
20
0.900631
11
2.25685
21
0.90685
0
LINE
8
BLACK
6
CONTINUOUS
10
2.25685
20
0.90685
11
2.25063
21
0.914131
0
LINE
8
BLACK
6
CONTINUOUS
10
2.25063
20
0.914131
11
2.24563
21
0.922296
0
LINE
8
BLACK
6
CONTINUOUS
10
2.24563
20
0.922296
11
2.24196
21
0.931143
0
LINE
8
BLACK
6
CONTINUOUS
10
2.24196
20
0.931143
11
2.23973
21
0.940454
0
LINE
8
BLACK
6
CONTINUOUS
10
2.23973
20
0.940454
11
2.23898
21
0.95
0
LINE
8
BLACK
6
CONTINUOUS
10
2.23898
20
0.95
11
2.23973
21
0.959546
0
LINE
8
BLACK
6
CONTINUOUS
10
2.23973
20
0.959546
11
2.24196
21
0.968857
0
LINE
8
BLACK
6
CONTINUOUS
10
2.24196
20
0.968857
11
2.24563
21
0.977704
0
LINE
8
BLACK
6
CONTINUOUS
10
2.24563
20
0.977704
11
2.25063
21
0.985869
0
LINE
8
BLACK
6
CONTINUOUS
10
2.25063
20
0.985869
11
2.25685
21
0.99315
0
LINE
8
BLACK
6
CONTINUOUS
10
2.25685
20
0.99315
11
2.26413
21
0.999369
0
LINE
8
BLACK
6
CONTINUOUS
10
2.26413
20
0.999369
11
2.2723
21
1.00437
0
LINE
8
BLACK
6
CONTINUOUS
10
2.2723
20
1.00437
11
2.28114
21
1.00804
0
LINE
8
BLACK
6
CONTINUOUS
10
2.28114
20
1.00804
11
2.29045
21
1.01027
0
LINE
8
BLACK
6
CONTINUOUS
10
2.29045
20
1.01027
11
2.3
21
1.01102
0
LINE
8
BLACK
6
CONTINUOUS
10
2.3
20
1.01102
11
2.30955
21
1.01027
0
LINE
8
BLACK
6
CONTINUOUS
10
2.10955
20
1.01027
11
2.11886
21
1.00804
0
LINE
8
BLACK
6
CONTINUOUS
10
2.11886
20
1.00804
11
2.1277
21
1.00437
0
LINE
8
BLACK
6
CONTINUOUS
10
2.1277
20
1.00437
11
2.13587
21
0.999369
0
LINE
8
BLACK
6
CONTINUOUS
10
2.13587
20
0.999369
11
2.14315
21
0.99315
0
LINE
8
BLACK
6
CONTINUOUS
10
2.14315
20
0.99315
11
2.14937
21
0.985869
0
LINE
8
BLACK
6
CONTINUOUS
10
2.14937
20
0.985869
11
2.15437
21
0.977704
0
LINE
8
BLACK
6
CONTINUOUS
10
2.15437
20
0.977704
11
2.15804
21
0.968857
0
LINE
8
BLACK
6
CONTINUOUS
10
2.15804
20
0.968857
11
2.16027
21
0.959546
0
LINE
8
BLACK
6
CONTINUOUS
10
2.16027
20
0.959546
11
2.16102
21
0.95
0
LINE
8
BLACK
6
CONTINUOUS
10
2.16102
20
0.95
11
2.16027
21
0.940454
0
LINE
8
BLACK
6
CONTINUOUS
10
2.16027
20
0.940454
11
2.15804
21
0.931143
0
LINE
8
BLACK
6
CONTINUOUS
10
2.15804
20
0.931143
11
2.15437
21
0.922296
0
LINE
8
BLACK
6
CONTINUOUS
10
2.15437
20
0.922296
11
2.14937
21
0.914131
0
LINE
8
BLACK
6
CONTINUOUS
10
2.14937
20
0.914131
11
2.14315
21
0.90685
0
LINE
8
BLACK
6
CONTINUOUS
10
2.14315
20
0.90685
11
2.13587
21
0.900631
0
LINE
8
BLACK
6
CONTINUOUS
10
2.13587
20
0.900631
11
2.1277
21
0.895628
0
LINE
8
BLACK
6
CONTINUOUS
10
2.1277
20
0.895628
11
2.11886
21
0.891963
0
LINE
8
BLACK
6
CONTINUOUS
10
2.11886
20
0.891963
11
2.10955
21
0.889728
0
LINE
8
BLACK
6
CONTINUOUS
10
2.10955
20
0.889728
11
2.1
21
0.888976
0
LINE
8
BLACK
6
CONTINUOUS
10
2.1
20
0.888976
11
2.09045
21
0.889728
0
LINE
8
BLACK
6
CONTINUOUS
10
2.09045
20
0.889728
11
2.08114
21
0.891963
0
LINE
8
BLACK
6
CONTINUOUS
10
2.08114
20
0.891963
11
2.0723
21
0.895628
0
LINE
8
BLACK
6
CONTINUOUS
10
2.0723
20
0.895628
11
2.06413
21
0.900631
0
LINE
8
BLACK
6
CONTINUOUS
10
2.06413
20
0.900631
11
2.05685
21
0.90685
0
LINE
8
BLACK
6
CONTINUOUS
10
2.05685
20
0.90685
11
2.05063
21
0.914131
0
LINE
8
BLACK
6
CONTINUOUS
10
2.05063
20
0.914131
11
2.04563
21
0.922296
0
LINE
8
BLACK
6
CONTINUOUS
10
2.04563
20
0.922296
11
2.04196
21
0.931143
0
LINE
8
BLACK
6
CONTINUOUS
10
2.04196
20
0.931143
11
2.03973
21
0.940454
0
LINE
8
BLACK
6
CONTINUOUS
10
2.03973
20
0.940454
11
2.03898
21
0.95
0
LINE
8
BLACK
6
CONTINUOUS
10
2.03898
20
0.95
11
2.03973
21
0.959546
0
LINE
8
BLACK
6
CONTINUOUS
10
2.03973
20
0.959546
11
2.04196
21
0.968857
0
LINE
8
BLACK
6
CONTINUOUS
10
2.04196
20
0.968857
11
2.04563
21
0.977704
0
LINE
8
BLACK
6
CONTINUOUS
10
2.04563
20
0.977704
11
2.05063
21
0.985869
0
LINE
8
BLACK
6
CONTINUOUS
10
2.05063
20
0.985869
11
2.05685
21
0.99315
0
LINE
8
BLACK
6
CONTINUOUS
10
2.05685
20
0.99315
11
2.06413
21
0.999369
0
LINE
8
BLACK
6
CONTINUOUS
10
2.06413
20
0.999369
11
2.0723
21
1.00437
0
LINE
8
BLACK
6
CONTINUOUS
10
2.0723
20
1.00437
11
2.08114
21
1.00804
0
LINE
8
BLACK
6
CONTINUOUS
10
2.08114
20
1.00804
11
2.09045
21
1.01027
0
LINE
8
BLACK
6
CONTINUOUS
10
2.09045
20
1.01027
11
2.1
21
1.01102
0
LINE
8
BLACK
6
CONTINUOUS
10
2.1
20
1.01102
11
2.10955
21
1.01027
0
LINE
8
BLACK
6
CONTINUOUS
10
0.133013
20
0.987275
11
0.135568
21
0.985568
0
LINE
8
BLACK
6
CONTINUOUS
10
0.135568
20
0.985568
11
0.137275
21
0.983013
0
LINE
8
BLACK
6
CONTINUOUS
10
0.137275
20
0.983013
11
0.137874
21
0.98
0
LINE
8
BLACK
6
CONTINUOUS
10
0.137874
20
0.98
11
0.137874
21
0.92
0
LINE
8
BLACK
6
CONTINUOUS
10
0.137874
20
0.92
11
0.137275
21
0.916987
0
LINE
8
BLACK
6
CONTINUOUS
10
0.137275
20
0.916987
11
0.135568
21
0.914432
0
LINE
8
BLACK
6
CONTINUOUS
10
0.135568
20
0.914432
11
0.133013
21
0.912725
0
LINE
8
BLACK
6
CONTINUOUS
10
0.133013
20
0.912725
11
0.13
21
0.912126
0
LINE
8
BLACK
6
CONTINUOUS
10
0.13
20
0.912126
11
0.07
21
0.912126
0
LINE
8
BLACK
6
CONTINUOUS
10
0.07
20
0.912126
11
0.0669868
21
0.912725
0
LINE
8
BLACK
6
CONTINUOUS
10
0.0669868
20
0.912725
11
0.0644322
21
0.914432
0
LINE
8
BLACK
6
CONTINUOUS
10
0.0644322
20
0.914432
11
0.0627254
21
0.916987
0
LINE
8
BLACK
6
CONTINUOUS
10
0.0627254
20
0.916987
11
0.0621261
21
0.92
0
LINE
8
BLACK
6
CONTINUOUS
10
0.0621261
20
0.92
11
0.062126
21
0.98
0
LINE
8
BLACK
6
CONTINUOUS
10
0.062126
20
0.98
11
0.0627254
21
0.983013
0
LINE
8
BLACK
6
CONTINUOUS
10
0.0627254
20
0.983013
11
0.0644322
21
0.985568
0
LINE
8
BLACK
6
CONTINUOUS
10
0.0644322
20
0.985568
11
0.0669868
21
0.987275
0
LINE
8
BLACK
6
CONTINUOUS
10
0.0669868
20
0.987275
11
0.07
21
0.987874
0
LINE
8
BLACK
6
CONTINUOUS
10
0.07
20
0.987874
11
0.13
21
0.987874
0
LINE
8
BLACK
6
CONTINUOUS
10
0.13
20
0.987874
11
0.133013
21
0.987275
0
LINE
8
BLACK
6
CONTINUOUS
10
0.233013
20
0.987275
11
0.235568
21
0.985568
0
LINE
8
BLACK
6
CONTINUOUS
10
0.235568
20
0.985568
11
0.237275
21
0.983013
0
LINE
8
BLACK
6
CONTINUOUS
10
0.237275
20
0.983013
11
0.237874
21
0.98
0
LINE
8
BLACK
6
CONTINUOUS
10
0.237874
20
0.98
11
0.237874
21
0.92
0
LINE
8
BLACK
6
CONTINUOUS
10
0.237874
20
0.92
11
0.237275
21
0.916987
0
LINE
8
BLACK
6
CONTINUOUS
10
0.237275
20
0.916987
11
0.235568
21
0.914432
0
LINE
8
BLACK
6
CONTINUOUS
10
0.235568
20
0.914432
11
0.233013
21
0.912725
0
LINE
8
BLACK
6
CONTINUOUS
10
0.233013
20
0.912725
11
0.23
21
0.912126
0
LINE
8
BLACK
6
CONTINUOUS
10
0.23
20
0.912126
11
0.17
21
0.912126
0
LINE
8
BLACK
6
CONTINUOUS
10
0.17
20
0.912126
11
0.166987
21
0.912725
0
LINE
8
BLACK
6
CONTINUOUS
10
0.166987
20
0.912725
11
0.164432
21
0.914432
0
LINE
8
BLACK
6
CONTINUOUS
10
0.164432
20
0.914432
11
0.162725
21
0.916987
0
LINE
8
BLACK
6
CONTINUOUS
10
0.162725
20
0.916987
11
0.162126
21
0.92
0
LINE
8
BLACK
6
CONTINUOUS
10
0.162126
20
0.92
11
0.162126
21
0.98
0
LINE
8
BLACK
6
CONTINUOUS
10
0.162126
20
0.98
11
0.162725
21
0.983013
0
LINE
8
BLACK
6
CONTINUOUS
10
0.162725
20
0.983013
11
0.164432
21
0.985568
0
LINE
8
BLACK
6
CONTINUOUS
10
0.164432
20
0.985568
11
0.166987
21
0.987275
0
LINE
8
BLACK
6
CONTINUOUS
10
0.166987
20
0.987275
11
0.17
21
0.987874
0
LINE
8
BLACK
6
CONTINUOUS
10
0.17
20
0.987874
11
0.23
21
0.987874
0
LINE
8
BLACK
6
CONTINUOUS
10
0.23
20
0.987874
11
0.233013
21
0.987275
0
LINE
8
BLACK
6
CONTINUOUS
10
2.20537
20
1.10683
11
2.21458
21
1.10519
0
LINE
8
BLACK
6
CONTINUOUS
10
2.21458
20
1.10519
11
2.2234
21
1.10207
0
LINE
8
BLACK
6
CONTINUOUS
10
2.2234
20
1.10207
11
2.23159
21
1.09755
0
LINE
8
BLACK
6
CONTINUOUS
10
2.23159
20
1.09755
11
2.23893
21
1.09175
0
LINE
8
BLACK
6
CONTINUOUS
10
2.23893
20
1.09175
11
2.24523
21
1.08483
0
LINE
8
BLACK
6
CONTINUOUS
10
2.24523
20
1.08483
11
2.25031
21
1.07698
0
LINE
8
BLACK
6
CONTINUOUS
10
2.25031
20
1.07698
11
2.25404
21
1.0684
0
LINE
8
BLACK
6
CONTINUOUS
10
2.25404
20
1.0684
11
2.25632
21
1.05932
0
LINE
8
BLACK
6
CONTINUOUS
10
2.25632
20
1.05932
11
2.25709
21
1.05
0
LINE
8
BLACK
6
CONTINUOUS
10
2.25709
20
1.05
11
2.25702
21
1.04721
0
LINE
8
BLACK
6
CONTINUOUS
10
2.25702
20
1.04721
11
2.2558
21
1.03794
0
LINE
8
BLACK
6
CONTINUOUS
10
2.2558
20
1.03794
11
2.25308
21
1.02899
0
LINE
8
BLACK
6
CONTINUOUS
10
2.25308
20
1.02899
11
2.24893
21
1.0206
0
LINE
8
BLACK
6
CONTINUOUS
10
2.24893
20
1.0206
11
2.24347
21
1.013
0
LINE
8
BLACK
6
CONTINUOUS
10
2.24347
20
1.013
11
2.23685
21
1.0064
0
LINE
8
BLACK
6
CONTINUOUS
10
2.23685
20
1.0064
11
2.22923
21
1.00096
0
LINE
8
BLACK
6
CONTINUOUS
10
2.22923
20
1.00096
11
2.22083
21
0.996849
0
LINE
8
BLACK
6
CONTINUOUS
10
2.22083
20
0.996849
11
2.21187
21
0.994161
0
LINE
8
BLACK
6
CONTINUOUS
10
2.21187
20
0.994161
11
2.20259
21
0.992972
0
LINE
8
BLACK
6
CONTINUOUS
10
2.20259
20
0.992972
11
2.19324
21
0.993315
0
LINE
8
BLACK
6
CONTINUOUS
10
2.19324
20
0.993315
11
2.18407
21
0.99518
0
LINE
8
BLACK
6
CONTINUOUS
10
2.18407
20
0.99518
11
2.17533
21
0.998517
0
LINE
8
BLACK
6
CONTINUOUS
10
2.17533
20
0.998517
11
2.16726
21
1.00324
0
LINE
8
BLACK
6
CONTINUOUS
10
2.16726
20
1.00324
11
2.16006
21
1.00921
0
LINE
8
BLACK
6
CONTINUOUS
10
2.16006
20
1.00921
11
2.15393
21
1.01628
0
LINE
8
BLACK
6
CONTINUOUS
10
2.15393
20
1.01628
11
2.14905
21
1.02426
0
LINE
8
BLACK
6
CONTINUOUS
10
2.14905
20
1.02426
11
2.14553
21
1.03293
0
LINE
8
BLACK
6
CONTINUOUS
10
2.14553
20
1.03293
11
2.14347
21
1.04206
0
LINE
8
BLACK
6
CONTINUOUS
10
2.14347
20
1.04206
11
2.14293
21
1.05139
0
LINE
8
BLACK
6
CONTINUOUS
10
2.14293
20
1.05139
11
2.14392
21
1.0607
0
LINE
8
BLACK
6
CONTINUOUS
10
2.14392
20
1.0607
11
2.14642
21
1.06971
0
LINE
8
BLACK
6
CONTINUOUS
10
2.14642
20
1.06971
11
2.15036
21
1.0782
0
LINE
8
BLACK
6
CONTINUOUS
10
2.15036
20
1.0782
11
2.15564
21
1.08593
0
LINE
8
BLACK
6
CONTINUOUS
10
2.15564
20
1.08593
11
2.1621
21
1.09269
0
LINE
8
BLACK
6
CONTINUOUS
10
2.1621
20
1.09269
11
2.16958
21
1.09831
0
LINE
8
BLACK
6
CONTINUOUS
10
2.16958
20
1.09831
11
2.17788
21
1.10263
0
LINE
8
BLACK
6
CONTINUOUS
10
2.17788
20
1.10263
11
2.18677
21
1.10553
0
LINE
8
BLACK
6
CONTINUOUS
10
2.18677
20
1.10553
11
2.19602
21
1.10695
0
LINE
8
BLACK
6
CONTINUOUS
10
2.19602
20
1.10695
11
2.20537
21
1.10683
0
LINE
8
BLACK
6
CONTINUOUS
10
0.233013
20
1.08727
11
0.235568
21
1.08557
0
LINE
8
BLACK
6
CONTINUOUS
10
0.235568
20
1.08557
11
0.237275
21
1.08301
0
LINE
8
BLACK
6
CONTINUOUS
10
0.237275
20
1.08301
11
0.237874
21
1.08
0
LINE
8
BLACK
6
CONTINUOUS
10
0.237874
20
1.08
11
0.237874
21
1.02
0
LINE
8
BLACK
6
CONTINUOUS
10
0.237874
20
1.02
11
0.237275
21
1.01699
0
LINE
8
BLACK
6
CONTINUOUS
10
0.237275
20
1.01699
11
0.235568
21
1.01443
0
LINE
8
BLACK
6
CONTINUOUS
10
0.235568
20
1.01443
11
0.233013
21
1.01273
0
LINE
8
BLACK
6
CONTINUOUS
10
0.233013
20
1.01273
11
0.23
21
1.01213
0
LINE
8
BLACK
6
CONTINUOUS
10
0.23
20
1.01213
11
0.17
21
1.01213
0
LINE
8
BLACK
6
CONTINUOUS
10
0.17
20
1.01213
11
0.166987
21
1.01273
0
LINE
8
BLACK
6
CONTINUOUS
10
0.166987
20
1.01273
11
0.164432
21
1.01443
0
LINE
8
BLACK
6
CONTINUOUS
10
0.164432
20
1.01443
11
0.162725
21
1.01699
0
LINE
8
BLACK
6
CONTINUOUS
10
0.162725
20
1.01699
11
0.162126
21
1.02
0
LINE
8
BLACK
6
CONTINUOUS
10
0.162126
20
1.02
11
0.162126
21
1.08
0
LINE
8
BLACK
6
CONTINUOUS
10
0.162126
20
1.08
11
0.162725
21
1.08301
0
LINE
8
BLACK
6
CONTINUOUS
10
0.162725
20
1.08301
11
0.164432
21
1.08557
0
LINE
8
BLACK
6
CONTINUOUS
10
0.164432
20
1.08557
11
0.166987
21
1.08727
0
LINE
8
BLACK
6
CONTINUOUS
10
0.166987
20
1.08727
11
0.17
21
1.08787
0
LINE
8
BLACK
6
CONTINUOUS
10
0.17
20
1.08787
11
0.23
21
1.08787
0
LINE
8
BLACK
6
CONTINUOUS
10
0.23
20
1.08787
11
0.233013
21
1.08727
0
LINE
8
BLACK
6
CONTINUOUS
10
0.133013
20
1.08727
11
0.135568
21
1.08557
0
LINE
8
BLACK
6
CONTINUOUS
10
0.135568
20
1.08557
11
0.137275
21
1.08301
0
LINE
8
BLACK
6
CONTINUOUS
10
0.137275
20
1.08301
11
0.137874
21
1.08
0
LINE
8
BLACK
6
CONTINUOUS
10
0.137874
20
1.08
11
0.137874
21
1.02
0
LINE
8
BLACK
6
CONTINUOUS
10
0.137874
20
1.02
11
0.137275
21
1.01699
0
LINE
8
BLACK
6
CONTINUOUS
10
0.137275
20
1.01699
11
0.135568
21
1.01443
0
LINE
8
BLACK
6
CONTINUOUS
10
0.135568
20
1.01443
11
0.133013
21
1.01273
0
LINE
8
BLACK
6
CONTINUOUS
10
0.133013
20
1.01273
11
0.13
21
1.01213
0
LINE
8
BLACK
6
CONTINUOUS
10
0.13
20
1.01213
11
0.07
21
1.01213
0
LINE
8
BLACK
6
CONTINUOUS
10
0.07
20
1.01213
11
0.0669868
21
1.01273
0
LINE
8
BLACK
6
CONTINUOUS
10
0.0669868
20
1.01273
11
0.0644322
21
1.01443
0
LINE
8
BLACK
6
CONTINUOUS
10
0.0644322
20
1.01443
11
0.0627254
21
1.01699
0
LINE
8
BLACK
6
CONTINUOUS
10
0.0627254
20
1.01699
11
0.0621261
21
1.02
0
LINE
8
BLACK
6
CONTINUOUS
10
0.0621261
20
1.02
11
0.062126
21
1.08
0
LINE
8
BLACK
6
CONTINUOUS
10
0.062126
20
1.08
11
0.0627254
21
1.08301
0
LINE
8
BLACK
6
CONTINUOUS
10
0.0627254
20
1.08301
11
0.0644322
21
1.08557
0
LINE
8
BLACK
6
CONTINUOUS
10
0.0644322
20
1.08557
11
0.0669868
21
1.08727
0
LINE
8
BLACK
6
CONTINUOUS
10
0.0669868
20
1.08727
11
0.07
21
1.08787
0
LINE
8
BLACK
6
CONTINUOUS
10
0.07
20
1.08787
11
0.13
21
1.08787
0
LINE
8
BLACK
6
CONTINUOUS
10
0.13
20
1.08787
11
0.133013
21
1.08727
0
LINE
8
BLACK
6
CONTINUOUS
10
2.10955
20
1.21027
11
2.11886
21
1.20804
0
LINE
8
BLACK
6
CONTINUOUS
10
2.11886
20
1.20804
11
2.1277
21
1.20437
0
LINE
8
BLACK
6
CONTINUOUS
10
2.1277
20
1.20437
11
2.13587
21
1.19937
0
LINE
8
BLACK
6
CONTINUOUS
10
2.13587
20
1.19937
11
2.14315
21
1.19315
0
LINE
8
BLACK
6
CONTINUOUS
10
2.14315
20
1.19315
11
2.14937
21
1.18587
0
LINE
8
BLACK
6
CONTINUOUS
10
2.14937
20
1.18587
11
2.15437
21
1.1777
0
LINE
8
BLACK
6
CONTINUOUS
10
2.15437
20
1.1777
11
2.15804
21
1.16886
0
LINE
8
BLACK
6
CONTINUOUS
10
2.15804
20
1.16886
11
2.16027
21
1.15955
0
LINE
8
BLACK
6
CONTINUOUS
10
2.16027
20
1.15955
11
2.16102
21
1.15
0
LINE
8
BLACK
6
CONTINUOUS
10
2.16102
20
1.15
11
2.16027
21
1.14045
0
LINE
8
BLACK
6
CONTINUOUS
10
2.16027
20
1.14045
11
2.15804
21
1.13114
0
LINE
8
BLACK
6
CONTINUOUS
10
2.15804
20
1.13114
11
2.15437
21
1.1223
0
LINE
8
BLACK
6
CONTINUOUS
10
2.15437
20
1.1223
11
2.14937
21
1.11413
0
LINE
8
BLACK
6
CONTINUOUS
10
2.14937
20
1.11413
11
2.14315
21
1.10685
0
LINE
8
BLACK
6
CONTINUOUS
10
2.14315
20
1.10685
11
2.13587
21
1.10063
0
LINE
8
BLACK
6
CONTINUOUS
10
2.13587
20
1.10063
11
2.1277
21
1.09563
0
LINE
8
BLACK
6
CONTINUOUS
10
2.1277
20
1.09563
11
2.11886
21
1.09196
0
LINE
8
BLACK
6
CONTINUOUS
10
2.11886
20
1.09196
11
2.10955
21
1.08973
0
LINE
8
BLACK
6
CONTINUOUS
10
2.10955
20
1.08973
11
2.1
21
1.08898
0
LINE
8
BLACK
6
CONTINUOUS
10
2.1
20
1.08898
11
2.09045
21
1.08973
0
LINE
8
BLACK
6
CONTINUOUS
10
2.09045
20
1.08973
11
2.08114
21
1.09196
0
LINE
8
BLACK
6
CONTINUOUS
10
2.08114
20
1.09196
11
2.0723
21
1.09563
0
LINE
8
BLACK
6
CONTINUOUS
10
2.0723
20
1.09563
11
2.06413
21
1.10063
0
LINE
8
BLACK
6
CONTINUOUS
10
2.06413
20
1.10063
11
2.05685
21
1.10685
0
LINE
8
BLACK
6
CONTINUOUS
10
2.05685
20
1.10685
11
2.05063
21
1.11413
0
LINE
8
BLACK
6
CONTINUOUS
10
2.05063
20
1.11413
11
2.04563
21
1.1223
0
LINE
8
BLACK
6
CONTINUOUS
10
2.04563
20
1.1223
11
2.04196
21
1.13114
0
LINE
8
BLACK
6
CONTINUOUS
10
2.04196
20
1.13114
11
2.03973
21
1.14045
0
LINE
8
BLACK
6
CONTINUOUS
10
2.03973
20
1.14045
11
2.03898
21
1.15
0
LINE
8
BLACK
6
CONTINUOUS
10
2.03898
20
1.15
11
2.03973
21
1.15955
0
LINE
8
BLACK
6
CONTINUOUS
10
2.03973
20
1.15955
11
2.04196
21
1.16886
0
LINE
8
BLACK
6
CONTINUOUS
10
2.04196
20
1.16886
11
2.04563
21
1.1777
0
LINE
8
BLACK
6
CONTINUOUS
10
2.04563
20
1.1777
11
2.05063
21
1.18587
0
LINE
8
BLACK
6
CONTINUOUS
10
2.05063
20
1.18587
11
2.05685
21
1.19315
0
LINE
8
BLACK
6
CONTINUOUS
10
2.05685
20
1.19315
11
2.06413
21
1.19937
0
LINE
8
BLACK
6
CONTINUOUS
10
2.06413
20
1.19937
11
2.0723
21
1.20437
0
LINE
8
BLACK
6
CONTINUOUS
10
2.0723
20
1.20437
11
2.08114
21
1.20804
0
LINE
8
BLACK
6
CONTINUOUS
10
2.08114
20
1.20804
11
2.09045
21
1.21027
0
LINE
8
BLACK
6
CONTINUOUS
10
2.09045
20
1.21027
11
2.1
21
1.21102
0
LINE
8
BLACK
6
CONTINUOUS
10
2.1
20
1.21102
11
2.10955
21
1.21027
0
LINE
8
BLACK
6
CONTINUOUS
10
2.30955
20
1.21027
11
2.31886
21
1.20804
0
LINE
8
BLACK
6
CONTINUOUS
10
2.31886
20
1.20804
11
2.3277
21
1.20437
0
LINE
8
BLACK
6
CONTINUOUS
10
2.3277
20
1.20437
11
2.33587
21
1.19937
0
LINE
8
BLACK
6
CONTINUOUS
10
2.33587
20
1.19937
11
2.34315
21
1.19315
0
LINE
8
BLACK
6
CONTINUOUS
10
2.34315
20
1.19315
11
2.34937
21
1.18587
0
LINE
8
BLACK
6
CONTINUOUS
10
2.34937
20
1.18587
11
2.35437
21
1.1777
0
LINE
8
BLACK
6
CONTINUOUS
10
2.35437
20
1.1777
11
2.35804
21
1.16886
0
LINE
8
BLACK
6
CONTINUOUS
10
2.35804
20
1.16886
11
2.36027
21
1.15955
0
LINE
8
BLACK
6
CONTINUOUS
10
2.36027
20
1.15955
11
2.36102
21
1.15
0
LINE
8
BLACK
6
CONTINUOUS
10
2.36102
20
1.15
11
2.36027
21
1.14045
0
LINE
8
BLACK
6
CONTINUOUS
10
2.36027
20
1.14045
11
2.35804
21
1.13114
0
LINE
8
BLACK
6
CONTINUOUS
10
2.35804
20
1.13114
11
2.35437
21
1.1223
0
LINE
8
BLACK
6
CONTINUOUS
10
2.35437
20
1.1223
11
2.34937
21
1.11413
0
LINE
8
BLACK
6
CONTINUOUS
10
2.34937
20
1.11413
11
2.34315
21
1.10685
0
LINE
8
BLACK
6
CONTINUOUS
10
2.34315
20
1.10685
11
2.33587
21
1.10063
0
LINE
8
BLACK
6
CONTINUOUS
10
2.33587
20
1.10063
11
2.3277
21
1.09563
0
LINE
8
BLACK
6
CONTINUOUS
10
2.3277
20
1.09563
11
2.31886
21
1.09196
0
LINE
8
BLACK
6
CONTINUOUS
10
2.31886
20
1.09196
11
2.30955
21
1.08973
0
LINE
8
BLACK
6
CONTINUOUS
10
2.30955
20
1.08973
11
2.3
21
1.08898
0
LINE
8
BLACK
6
CONTINUOUS
10
2.3
20
1.08898
11
2.29045
21
1.08973
0
LINE
8
BLACK
6
CONTINUOUS
10
2.29045
20
1.08973
11
2.28114
21
1.09196
0
LINE
8
BLACK
6
CONTINUOUS
10
2.28114
20
1.09196
11
2.2723
21
1.09563
0
LINE
8
BLACK
6
CONTINUOUS
10
2.2723
20
1.09563
11
2.26413
21
1.10063
0
LINE
8
BLACK
6
CONTINUOUS
10
2.26413
20
1.10063
11
2.25685
21
1.10685
0
LINE
8
BLACK
6
CONTINUOUS
10
2.25685
20
1.10685
11
2.25063
21
1.11413
0
LINE
8
BLACK
6
CONTINUOUS
10
2.25063
20
1.11413
11
2.24563
21
1.1223
0
LINE
8
BLACK
6
CONTINUOUS
10
2.24563
20
1.1223
11
2.24196
21
1.13114
0
LINE
8
BLACK
6
CONTINUOUS
10
2.24196
20
1.13114
11
2.23973
21
1.14045
0
LINE
8
BLACK
6
CONTINUOUS
10
2.23973
20
1.14045
11
2.23898
21
1.15
0
LINE
8
BLACK
6
CONTINUOUS
10
2.23898
20
1.15
11
2.23973
21
1.15955
0
LINE
8
BLACK
6
CONTINUOUS
10
2.23973
20
1.15955
11
2.24196
21
1.16886
0
LINE
8
BLACK
6
CONTINUOUS
10
2.24196
20
1.16886
11
2.24563
21
1.1777
0
LINE
8
BLACK
6
CONTINUOUS
10
2.24563
20
1.1777
11
2.25063
21
1.18587
0
LINE
8
BLACK
6
CONTINUOUS
10
2.25063
20
1.18587
11
2.25685
21
1.19315
0
LINE
8
BLACK
6
CONTINUOUS
10
2.25685
20
1.19315
11
2.26413
21
1.19937
0
LINE
8
BLACK
6
CONTINUOUS
10
2.26413
20
1.19937
11
2.2723
21
1.20437
0
LINE
8
BLACK
6
CONTINUOUS
10
2.2723
20
1.20437
11
2.28114
21
1.20804
0
LINE
8
BLACK
6
CONTINUOUS
10
2.28114
20
1.20804
11
2.29045
21
1.21027
0
LINE
8
BLACK
6
CONTINUOUS
10
2.29045
20
1.21027
11
2.3
21
1.21102
0
LINE
8
BLACK
6
CONTINUOUS
10
2.3
20
1.21102
11
2.30955
21
1.21027
0
LINE
8
BLACK
6
CONTINUOUS
10
0.133013
20
1.18727
11
0.135568
21
1.18557
0
LINE
8
BLACK
6
CONTINUOUS
10
0.135568
20
1.18557
11
0.137275
21
1.18301
0
LINE
8
BLACK
6
CONTINUOUS
10
0.137275
20
1.18301
11
0.137874
21
1.18
0
LINE
8
BLACK
6
CONTINUOUS
10
0.137874
20
1.18
11
0.137874
21
1.12
0
LINE
8
BLACK
6
CONTINUOUS
10
0.137874
20
1.12
11
0.137275
21
1.11699
0
LINE
8
BLACK
6
CONTINUOUS
10
0.137275
20
1.11699
11
0.135568
21
1.11443
0
LINE
8
BLACK
6
CONTINUOUS
10
0.135568
20
1.11443
11
0.133013
21
1.11273
0
LINE
8
BLACK
6
CONTINUOUS
10
0.133013
20
1.11273
11
0.13
21
1.11213
0
LINE
8
BLACK
6
CONTINUOUS
10
0.13
20
1.11213
11
0.07
21
1.11213
0
LINE
8
BLACK
6
CONTINUOUS
10
0.07
20
1.11213
11
0.0669868
21
1.11273
0
LINE
8
BLACK
6
CONTINUOUS
10
0.0669868
20
1.11273
11
0.0644322
21
1.11443
0
LINE
8
BLACK
6
CONTINUOUS
10
0.0644322
20
1.11443
11
0.0627254
21
1.11699
0
LINE
8
BLACK
6
CONTINUOUS
10
0.0627254
20
1.11699
11
0.0621261
21
1.12
0
LINE
8
BLACK
6
CONTINUOUS
10
0.0621261
20
1.12
11
0.062126
21
1.18
0
LINE
8
BLACK
6
CONTINUOUS
10
0.062126
20
1.18
11
0.0627254
21
1.18301
0
LINE
8
BLACK
6
CONTINUOUS
10
0.0627254
20
1.18301
11
0.0644322
21
1.18557
0
LINE
8
BLACK
6
CONTINUOUS
10
0.0644322
20
1.18557
11
0.0669868
21
1.18727
0
LINE
8
BLACK
6
CONTINUOUS
10
0.0669868
20
1.18727
11
0.07
21
1.18787
0
LINE
8
BLACK
6
CONTINUOUS
10
0.07
20
1.18787
11
0.13
21
1.18787
0
LINE
8
BLACK
6
CONTINUOUS
10
0.13
20
1.18787
11
0.133013
21
1.18727
0
LINE
8
BLACK
6
CONTINUOUS
10
0.233013
20
1.18727
11
0.235568
21
1.18557
0
LINE
8
BLACK
6
CONTINUOUS
10
0.235568
20
1.18557
11
0.237275
21
1.18301
0
LINE
8
BLACK
6
CONTINUOUS
10
0.237275
20
1.18301
11
0.237874
21
1.18
0
LINE
8
BLACK
6
CONTINUOUS
10
0.237874
20
1.18
11
0.237874
21
1.12
0
LINE
8
BLACK
6
CONTINUOUS
10
0.237874
20
1.12
11
0.237275
21
1.11699
0
LINE
8
BLACK
6
CONTINUOUS
10
0.237275
20
1.11699
11
0.235568
21
1.11443
0
LINE
8
BLACK
6
CONTINUOUS
10
0.235568
20
1.11443
11
0.233013
21
1.11273
0
LINE
8
BLACK
6
CONTINUOUS
10
0.233013
20
1.11273
11
0.23
21
1.11213
0
LINE
8
BLACK
6
CONTINUOUS
10
0.23
20
1.11213
11
0.17
21
1.11213
0
LINE
8
BLACK
6
CONTINUOUS
10
0.17
20
1.11213
11
0.166987
21
1.11273
0
LINE
8
BLACK
6
CONTINUOUS
10
0.166987
20
1.11273
11
0.164432
21
1.11443
0
LINE
8
BLACK
6
CONTINUOUS
10
0.164432
20
1.11443
11
0.162725
21
1.11699
0
LINE
8
BLACK
6
CONTINUOUS
10
0.162725
20
1.11699
11
0.162126
21
1.12
0
LINE
8
BLACK
6
CONTINUOUS
10
0.162126
20
1.12
11
0.162126
21
1.18
0
LINE
8
BLACK
6
CONTINUOUS
10
0.162126
20
1.18
11
0.162725
21
1.18301
0
LINE
8
BLACK
6
CONTINUOUS
10
0.162725
20
1.18301
11
0.164432
21
1.18557
0
LINE
8
BLACK
6
CONTINUOUS
10
0.164432
20
1.18557
11
0.166987
21
1.18727
0
LINE
8
BLACK
6
CONTINUOUS
10
0.166987
20
1.18727
11
0.17
21
1.18787
0
LINE
8
BLACK
6
CONTINUOUS
10
0.17
20
1.18787
11
0.23
21
1.18787
0
LINE
8
BLACK
6
CONTINUOUS
10
0.23
20
1.18787
11
0.233013
21
1.18727
0
LINE
8
BLACK
6
CONTINUOUS
10
0.214917
20
1.5251
11
0.228769
21
1.52266
0
LINE
8
BLACK
6
CONTINUOUS
10
0.228769
20
1.52266
11
0.242262
21
1.51868
0
LINE
8
BLACK
6
CONTINUOUS
10
0.242262
20
1.51868
11
0.255228
21
1.51323
0
LINE
8
BLACK
6
CONTINUOUS
10
0.255228
20
1.51323
11
0.267506
21
1.50637
0
LINE
8
BLACK
6
CONTINUOUS
10
0.267506
20
1.50637
11
0.278942
21
1.49818
0
LINE
8
BLACK
6
CONTINUOUS
10
0.278942
20
1.49818
11
0.289395
21
1.48877
0
LINE
8
BLACK
6
CONTINUOUS
10
0.289395
20
1.48877
11
0.298733
21
1.47825
0
LINE
8
BLACK
6
CONTINUOUS
10
0.298733
20
1.47825
11
0.306841
21
1.46676
0
LINE
8
BLACK
6
CONTINUOUS
10
0.306841
20
1.46676
11
0.313617
21
1.45444
0
LINE
8
BLACK
6
CONTINUOUS
10
0.313617
20
1.45444
11
0.318976
21
1.44143
0
LINE
8
BLACK
6
CONTINUOUS
10
0.318976
20
1.44143
11
0.322853
21
1.42791
0
LINE
8
BLACK
6
CONTINUOUS
10
0.322853
20
1.42791
11
0.325199
21
1.41404
0
LINE
8
BLACK
6
CONTINUOUS
10
0.325199
20
1.41404
11
0.325984
21
1.4
0
LINE
8
BLACK
6
CONTINUOUS
10
0.325984
20
1.4
11
0.325935
21
1.39648
0
LINE
8
BLACK
6
CONTINUOUS
10
0.325935
20
1.39648
11
0.324758
21
1.38247
0
LINE
8
BLACK
6
CONTINUOUS
10
0.324758
20
1.38247
11
0.322026
21
1.36867
0
LINE
8
BLACK
6
CONTINUOUS
10
0.322026
20
1.36867
11
0.317773
21
1.35526
0
LINE
8
BLACK
6
CONTINUOUS
10
0.317773
20
1.35526
11
0.312052
21
1.34241
0
LINE
8
BLACK
6
CONTINUOUS
10
0.312052
20
1.34241
11
0.304935
21
1.33028
0
LINE
8
BLACK
6
CONTINUOUS
10
0.304935
20
1.33028
11
0.296509
21
1.31902
0
LINE
8
BLACK
6
CONTINUOUS
10
0.296509
20
1.31902
11
0.286881
21
1.30877
0
LINE
8
BLACK
6
CONTINUOUS
10
0.286881
20
1.30877
11
0.27617
21
1.29965
0
LINE
8
BLACK
6
CONTINUOUS
10
0.27617
20
1.29965
11
0.264509
21
1.29178
0
LINE
8
BLACK
6
CONTINUOUS
10
0.264509
20
1.29178
11
0.252045
21
1.28527
0
LINE
8
BLACK
6
CONTINUOUS
10
0.252045
20
1.28527
11
0.238931
21
1.28018
0
LINE
8
BLACK
6
CONTINUOUS
10
0.238931
20
1.28018
11
0.225333
21
1.27659
0
LINE
8
BLACK
6
CONTINUOUS
10
0.225333
20
1.27659
11
0.211418
21
1.27453
0
LINE
8
BLACK
6
CONTINUOUS
10
0.211418
20
1.27453
11
0.197362
21
1.27404
0
LINE
8
BLACK
6
CONTINUOUS
10
0.197362
20
1.27404
11
0.183338
21
1.27512
0
LINE
8
BLACK
6
CONTINUOUS
10
0.183338
20
1.27512
11
0.169522
21
1.27776
0
LINE
8
BLACK
6
CONTINUOUS
10
0.169522
20
1.27776
11
0.156085
21
1.28192
0
LINE
8
BLACK
6
CONTINUOUS
10
0.156085
20
1.28192
11
0.143197
21
1.28755
0
LINE
8
BLACK
6
CONTINUOUS
10
0.143197
20
1.28755
11
0.131016
21
1.29458
0
LINE
8
BLACK
6
CONTINUOUS
10
0.131016
20
1.29458
11
0.119695
21
1.30293
0
LINE
8
BLACK
6
CONTINUOUS
10
0.119695
20
1.30293
11
0.109375
21
1.31248
0
LINE
8
BLACK
6
CONTINUOUS
10
0.109375
20
1.31248
11
0.100184
21
1.32313
0
LINE
8
BLACK
6
CONTINUOUS
10
0.100184
20
1.32313
11
0.0922376
21
1.33474
0
LINE
8
BLACK
6
CONTINUOUS
10
0.0922376
20
1.33474
11
0.0856344
21
1.34716
0
LINE
8
BLACK
6
CONTINUOUS
10
0.0856344
20
1.34716
11
0.0804566
21
1.36023
0
LINE
8
BLACK
6
CONTINUOUS
10
0.0804566
20
1.36023
11
0.0767689
21
1.37381
0
LINE
8
BLACK
6
CONTINUOUS
10
0.0767689
20
1.37381
11
0.074617
21
1.38771
0
LINE
8
BLACK
6
CONTINUOUS
10
0.074617
20
1.38771
11
0.0740281
21
1.40176
0
LINE
8
BLACK
6
CONTINUOUS
10
0.0740281
20
1.40176
11
0.0750092
21
1.41579
0
LINE
8
BLACK
6
CONTINUOUS
10
0.0750092
20
1.41579
11
0.0775483
21
1.42962
0
LINE
8
BLACK
6
CONTINUOUS
10
0.0775483
20
1.42962
11
0.0816136
21
1.44309
0
LINE
8
BLACK
6
CONTINUOUS
10
0.0816136
20
1.44309
11
0.0871544
21
1.45602
0
LINE
8
BLACK
6
CONTINUOUS
10
0.0871544
20
1.45602
11
0.0941019
21
1.46825
0
LINE
8
BLACK
6
CONTINUOUS
10
0.0941019
20
1.46825
11
0.102369
21
1.47963
0
LINE
8
BLACK
6
CONTINUOUS
10
0.102369
20
1.47963
11
0.111853
21
1.49001
0
LINE
8
BLACK
6
CONTINUOUS
10
0.111853
20
1.49001
11
0.122436
21
1.49928
0
LINE
8
BLACK
6
CONTINUOUS
10
0.122436
20
1.49928
11
0.133986
21
1.5073
0
LINE
8
BLACK
6
CONTINUOUS
10
0.133986
20
1.5073
11
0.146359
21
1.51399
0
LINE
8
BLACK
6
CONTINUOUS
10
0.146359
20
1.51399
11
0.1594
21
1.51926
0
LINE
8
BLACK
6
CONTINUOUS
10
0.1594
20
1.51926
11
0.172947
21
1.52305
0
LINE
8
BLACK
6
CONTINUOUS
10
0.172947
20
1.52305
11
0.186831
21
1.52529
0
LINE
8
BLACK
6
CONTINUOUS
10
0.186831
20
1.52529
11
0.20088
21
1.52598
0
LINE
8
BLACK
6
CONTINUOUS
10
0.20088
20
1.52598
11
0.214917
21
1.5251
0
LINE
8
BLACK
6
CONTINUOUS
10
2.21492
20
1.5251
11
2.22877
21
1.52266
0
LINE
8
BLACK
6
CONTINUOUS
10
2.22877
20
1.52266
11
2.24226
21
1.51868
0
LINE
8
BLACK
6
CONTINUOUS
10
2.24226
20
1.51868
11
2.25523
21
1.51323
0
LINE
8
BLACK
6
CONTINUOUS
10
2.25523
20
1.51323
11
2.26751
21
1.50637
0
LINE
8
BLACK
6
CONTINUOUS
10
2.26751
20
1.50637
11
2.27894
21
1.49818
0
LINE
8
BLACK
6
CONTINUOUS
10
2.27894
20
1.49818
11
2.28939
21
1.48877
0
LINE
8
BLACK
6
CONTINUOUS
10
2.28939
20
1.48877
11
2.29873
21
1.47825
0
LINE
8
BLACK
6
CONTINUOUS
10
2.29873
20
1.47825
11
2.30684
21
1.46676
0
LINE
8
BLACK
6
CONTINUOUS
10
2.30684
20
1.46676
11
2.31362
21
1.45444
0
LINE
8
BLACK
6
CONTINUOUS
10
2.31362
20
1.45444
11
2.31898
21
1.44143
0
LINE
8
BLACK
6
CONTINUOUS
10
2.31898
20
1.44143
11
2.32285
21
1.42791
0
LINE
8
BLACK
6
CONTINUOUS
10
2.32285
20
1.42791
11
2.3252
21
1.41404
0
LINE
8
BLACK
6
CONTINUOUS
10
2.3252
20
1.41404
11
2.32598
21
1.4
0
LINE
8
BLACK
6
CONTINUOUS
10
2.32598
20
1.4
11
2.32594
21
1.39648
0
LINE
8
BLACK
6
CONTINUOUS
10
2.32594
20
1.39648
11
2.32476
21
1.38247
0
LINE
8
BLACK
6
CONTINUOUS
10
2.32476
20
1.38247
11
2.32203
21
1.36867
0
LINE
8
BLACK
6
CONTINUOUS
10
2.32203
20
1.36867
11
2.31777
21
1.35526
0
LINE
8
BLACK
6
CONTINUOUS
10
2.31777
20
1.35526
11
2.31205
21
1.34241
0
LINE
8
BLACK
6
CONTINUOUS
10
2.31205
20
1.34241
11
2.30493
21
1.33028
0
LINE
8
BLACK
6
CONTINUOUS
10
2.30493
20
1.33028
11
2.29651
21
1.31902
0
LINE
8
BLACK
6
CONTINUOUS
10
2.29651
20
1.31902
11
2.28688
21
1.30877
0
LINE
8
BLACK
6
CONTINUOUS
10
2.28688
20
1.30877
11
2.27617
21
1.29965
0
LINE
8
BLACK
6
CONTINUOUS
10
2.27617
20
1.29965
11
2.26451
21
1.29178
0
LINE
8
BLACK
6
CONTINUOUS
10
2.26451
20
1.29178
11
2.25204
21
1.28527
0
LINE
8
BLACK
6
CONTINUOUS
10
2.25204
20
1.28527
11
2.23893
21
1.28018
0
LINE
8
BLACK
6
CONTINUOUS
10
2.23893
20
1.28018
11
2.22533
21
1.27659
0
LINE
8
BLACK
6
CONTINUOUS
10
2.22533
20
1.27659
11
2.21142
21
1.27453
0
LINE
8
BLACK
6
CONTINUOUS
10
2.21142
20
1.27453
11
2.19736
21
1.27404
0
LINE
8
BLACK
6
CONTINUOUS
10
2.19736
20
1.27404
11
2.18334
21
1.27512
0
LINE
8
BLACK
6
CONTINUOUS
10
2.18334
20
1.27512
11
2.16952
21
1.27776
0
LINE
8
BLACK
6
CONTINUOUS
10
2.16952
20
1.27776
11
2.15609
21
1.28192
0
LINE
8
BLACK
6
CONTINUOUS
10
2.15609
20
1.28192
11
2.1432
21
1.28755
0
LINE
8
BLACK
6
CONTINUOUS
10
2.1432
20
1.28755
11
2.13102
21
1.29458
0
LINE
8
BLACK
6
CONTINUOUS
10
2.13102
20
1.29458
11
2.11969
21
1.30293
0
LINE
8
BLACK
6
CONTINUOUS
10
2.11969
20
1.30293
11
2.10937
21
1.31248
0
LINE
8
BLACK
6
CONTINUOUS
10
2.10937
20
1.31248
11
2.10018
21
1.32313
0
LINE
8
BLACK
6
CONTINUOUS
10
2.10018
20
1.32313
11
2.09224
21
1.33474
0
LINE
8
BLACK
6
CONTINUOUS
10
2.09224
20
1.33474
11
2.08563
21
1.34716
0
LINE
8
BLACK
6
CONTINUOUS
10
2.08563
20
1.34716
11
2.08046
21
1.36023
0
LINE
8
BLACK
6
CONTINUOUS
10
2.08046
20
1.36023
11
2.07677
21
1.37381
0
LINE
8
BLACK
6
CONTINUOUS
10
2.07677
20
1.37381
11
2.07462
21
1.38771
0
LINE
8
BLACK
6
CONTINUOUS
10
2.07462
20
1.38771
11
2.07403
21
1.40176
0
LINE
8
BLACK
6
CONTINUOUS
10
2.07403
20
1.40176
11
2.07501
21
1.41579
0
LINE
8
BLACK
6
CONTINUOUS
10
2.07501
20
1.41579
11
2.07755
21
1.42962
0
LINE
8
BLACK
6
CONTINUOUS
10
2.07755
20
1.42962
11
2.08161
21
1.44309
0
LINE
8
BLACK
6
CONTINUOUS
10
2.08161
20
1.44309
11
2.08715
21
1.45602
0
LINE
8
BLACK
6
CONTINUOUS
10
2.08715
20
1.45602
11
2.0941
21
1.46825
0
LINE
8
BLACK
6
CONTINUOUS
10
2.0941
20
1.46825
11
2.10237
21
1.47963
0
LINE
8
BLACK
6
CONTINUOUS
10
2.10237
20
1.47963
11
2.11185
21
1.49001
0
LINE
8
BLACK
6
CONTINUOUS
10
2.11185
20
1.49001
11
2.12244
21
1.49928
0
LINE
8
BLACK
6
CONTINUOUS
10
2.12244
20
1.49928
11
2.13399
21
1.5073
0
LINE
8
BLACK
6
CONTINUOUS
10
2.13399
20
1.5073
11
2.14636
21
1.51399
0
LINE
8
BLACK
6
CONTINUOUS
10
2.14636
20
1.51399
11
2.1594
21
1.51926
0
LINE
8
BLACK
6
CONTINUOUS
10
2.1594
20
1.51926
11
2.17295
21
1.52305
0
LINE
8
BLACK
6
CONTINUOUS
10
2.17295
20
1.52305
11
2.18683
21
1.52529
0
LINE
8
BLACK
6
CONTINUOUS
10
2.18683
20
1.52529
11
2.20088
21
1.52598
0
LINE
8
BLACK
6
CONTINUOUS
10
2.20088
20
1.52598
11
2.21492
21
1.5251
0
LINE
8
BLACK
6
CONTINUOUS
10
0.483013
20
1.43727
11
0.485568
21
1.43557
0
LINE
8
BLACK
6
CONTINUOUS
10
0.485568
20
1.43557
11
0.487275
21
1.43301
0
LINE
8
BLACK
6
CONTINUOUS
10
0.487275
20
1.43301
11
0.487874
21
1.43
0
LINE
8
BLACK
6
CONTINUOUS
10
0.487874
20
1.43
11
0.487874
21
1.37
0
LINE
8
BLACK
6
CONTINUOUS
10
0.487874
20
1.37
11
0.487275
21
1.36699
0
LINE
8
BLACK
6
CONTINUOUS
10
0.487275
20
1.36699
11
0.485568
21
1.36443
0
LINE
8
BLACK
6
CONTINUOUS
10
0.485568
20
1.36443
11
0.483013
21
1.36273
0
LINE
8
BLACK
6
CONTINUOUS
10
0.483013
20
1.36273
11
0.48
21
1.36213
0
LINE
8
BLACK
6
CONTINUOUS
10
0.48
20
1.36213
11
0.42
21
1.36213
0
LINE
8
BLACK
6
CONTINUOUS
10
0.42
20
1.36213
11
0.416987
21
1.36273
0
LINE
8
BLACK
6
CONTINUOUS
10
0.416987
20
1.36273
11
0.414432
21
1.36443
0
LINE
8
BLACK
6
CONTINUOUS
10
0.414432
20
1.36443
11
0.412725
21
1.36699
0
LINE
8
BLACK
6
CONTINUOUS
10
0.412725
20
1.36699
11
0.412126
21
1.37
0
LINE
8
BLACK
6
CONTINUOUS
10
0.412126
20
1.37
11
0.412126
21
1.43
0
LINE
8
BLACK
6
CONTINUOUS
10
0.412126
20
1.43
11
0.412725
21
1.43301
0
LINE
8
BLACK
6
CONTINUOUS
10
0.412725
20
1.43301
11
0.414432
21
1.43557
0
LINE
8
BLACK
6
CONTINUOUS
10
0.414432
20
1.43557
11
0.416987
21
1.43727
0
LINE
8
BLACK
6
CONTINUOUS
10
0.416987
20
1.43727
11
0.42
21
1.43787
0
LINE
8
BLACK
6
CONTINUOUS
10
0.42
20
1.43787
11
0.48
21
1.43787
0
LINE
8
BLACK
6
CONTINUOUS
10
0.48
20
1.43787
11
0.483013
21
1.43727
0
LINE
8
BLACK
6
CONTINUOUS
10
0.983013
20
1.43727
11
0.985568
21
1.43557
0
LINE
8
BLACK
6
CONTINUOUS
10
0.985568
20
1.43557
11
0.987275
21
1.43301
0
LINE
8
BLACK
6
CONTINUOUS
10
0.987275
20
1.43301
11
0.987874
21
1.43
0
LINE
8
BLACK
6
CONTINUOUS
10
0.987874
20
1.43
11
0.987874
21
1.37
0
LINE
8
BLACK
6
CONTINUOUS
10
0.987874
20
1.37
11
0.987275
21
1.36699
0
LINE
8
BLACK
6
CONTINUOUS
10
0.987275
20
1.36699
11
0.985568
21
1.36443
0
LINE
8
BLACK
6
CONTINUOUS
10
0.985568
20
1.36443
11
0.983013
21
1.36273
0
LINE
8
BLACK
6
CONTINUOUS
10
0.983013
20
1.36273
11
0.98
21
1.36213
0
LINE
8
BLACK
6
CONTINUOUS
10
0.98
20
1.36213
11
0.92
21
1.36213
0
LINE
8
BLACK
6
CONTINUOUS
10
0.92
20
1.36213
11
0.916987
21
1.36273
0
LINE
8
BLACK
6
CONTINUOUS
10
0.916987
20
1.36273
11
0.914432
21
1.36443
0
LINE
8
BLACK
6
CONTINUOUS
10
0.914432
20
1.36443
11
0.912725
21
1.36699
0
LINE
8
BLACK
6
CONTINUOUS
10
0.912725
20
1.36699
11
0.912126
21
1.37
0
LINE
8
BLACK
6
CONTINUOUS
10
0.912126
20
1.37
11
0.912126
21
1.43
0
LINE
8
BLACK
6
CONTINUOUS
10
0.912126
20
1.43
11
0.912725
21
1.43301
0
LINE
8
BLACK
6
CONTINUOUS
10
0.912725
20
1.43301
11
0.914432
21
1.43557
0
LINE
8
BLACK
6
CONTINUOUS
10
0.914432
20
1.43557
11
0.916987
21
1.43727
0
LINE
8
BLACK
6
CONTINUOUS
10
0.916987
20
1.43727
11
0.92
21
1.43787
0
LINE
8
BLACK
6
CONTINUOUS
10
0.92
20
1.43787
11
0.98
21
1.43787
0
LINE
8
BLACK
6
CONTINUOUS
10
0.98
20
1.43787
11
0.983013
21
1.43727
0
LINE
8
BLACK
6
CONTINUOUS
10
0.883013
20
1.43727
11
0.885568
21
1.43557
0
LINE
8
BLACK
6
CONTINUOUS
10
0.885568
20
1.43557
11
0.887275
21
1.43301
0
LINE
8
BLACK
6
CONTINUOUS
10
0.887275
20
1.43301
11
0.887874
21
1.43
0
LINE
8
BLACK
6
CONTINUOUS
10
0.887874
20
1.43
11
0.887874
21
1.37
0
LINE
8
BLACK
6
CONTINUOUS
10
0.887874
20
1.37
11
0.887275
21
1.36699
0
LINE
8
BLACK
6
CONTINUOUS
10
0.887275
20
1.36699
11
0.885568
21
1.36443
0
LINE
8
BLACK
6
CONTINUOUS
10
0.885568
20
1.36443
11
0.883013
21
1.36273
0
LINE
8
BLACK
6
CONTINUOUS
10
0.883013
20
1.36273
11
0.88
21
1.36213
0
LINE
8
BLACK
6
CONTINUOUS
10
0.88
20
1.36213
11
0.82
21
1.36213
0
LINE
8
BLACK
6
CONTINUOUS
10
0.82
20
1.36213
11
0.816987
21
1.36273
0
LINE
8
BLACK
6
CONTINUOUS
10
0.816987
20
1.36273
11
0.814432
21
1.36443
0
LINE
8
BLACK
6
CONTINUOUS
10
0.814432
20
1.36443
11
0.812725
21
1.36699
0
LINE
8
BLACK
6
CONTINUOUS
10
0.812725
20
1.36699
11
0.812126
21
1.37
0
LINE
8
BLACK
6
CONTINUOUS
10
0.812126
20
1.37
11
0.812126
21
1.43
0
LINE
8
BLACK
6
CONTINUOUS
10
0.812126
20
1.43
11
0.812725
21
1.43301
0
LINE
8
BLACK
6
CONTINUOUS
10
0.812725
20
1.43301
11
0.814432
21
1.43557
0
LINE
8
BLACK
6
CONTINUOUS
10
0.814432
20
1.43557
11
0.816987
21
1.43727
0
LINE
8
BLACK
6
CONTINUOUS
10
0.816987
20
1.43727
11
0.82
21
1.43787
0
LINE
8
BLACK
6
CONTINUOUS
10
0.82
20
1.43787
11
0.88
21
1.43787
0
LINE
8
BLACK
6
CONTINUOUS
10
0.88
20
1.43787
11
0.883013
21
1.43727
0
LINE
8
BLACK
6
CONTINUOUS
10
1.28301
20
1.43727
11
1.28557
21
1.43557
0
LINE
8
BLACK
6
CONTINUOUS
10
1.28557
20
1.43557
11
1.28727
21
1.43301
0
LINE
8
BLACK
6
CONTINUOUS
10
1.28727
20
1.43301
11
1.28787
21
1.43
0
LINE
8
BLACK
6
CONTINUOUS
10
1.28787
20
1.43
11
1.28787
21
1.37
0
LINE
8
BLACK
6
CONTINUOUS
10
1.28787
20
1.37
11
1.28727
21
1.36699
0
LINE
8
BLACK
6
CONTINUOUS
10
1.28727
20
1.36699
11
1.28557
21
1.36443
0
LINE
8
BLACK
6
CONTINUOUS
10
1.28557
20
1.36443
11
1.28301
21
1.36273
0
LINE
8
BLACK
6
CONTINUOUS
10
1.28301
20
1.36273
11
1.28
21
1.36213
0
LINE
8
BLACK
6
CONTINUOUS
10
1.28
20
1.36213
11
1.22
21
1.36213
0
LINE
8
BLACK
6
CONTINUOUS
10
1.22
20
1.36213
11
1.21699
21
1.36273
0
LINE
8
BLACK
6
CONTINUOUS
10
1.21699
20
1.36273
11
1.21443
21
1.36443
0
LINE
8
BLACK
6
CONTINUOUS
10
1.21443
20
1.36443
11
1.21273
21
1.36699
0
LINE
8
BLACK
6
CONTINUOUS
10
1.21273
20
1.36699
11
1.21213
21
1.37
0
LINE
8
BLACK
6
CONTINUOUS
10
1.21213
20
1.37
11
1.21213
21
1.43
0
LINE
8
BLACK
6
CONTINUOUS
10
1.21213
20
1.43
11
1.21273
21
1.43301
0
LINE
8
BLACK
6
CONTINUOUS
10
1.21273
20
1.43301
11
1.21443
21
1.43557
0
LINE
8
BLACK
6
CONTINUOUS
10
1.21443
20
1.43557
11
1.21699
21
1.43727
0
LINE
8
BLACK
6
CONTINUOUS
10
1.21699
20
1.43727
11
1.22
21
1.43787
0
LINE
8
BLACK
6
CONTINUOUS
10
1.22
20
1.43787
11
1.28
21
1.43787
0
LINE
8
BLACK
6
CONTINUOUS
10
1.28
20
1.43787
11
1.28301
21
1.43727
0
LINE
8
BLACK
6
CONTINUOUS
10
0.783013
20
1.43727
11
0.785568
21
1.43557
0
LINE
8
BLACK
6
CONTINUOUS
10
0.785568
20
1.43557
11
0.787275
21
1.43301
0
LINE
8
BLACK
6
CONTINUOUS
10
0.787275
20
1.43301
11
0.787874
21
1.43
0
LINE
8
BLACK
6
CONTINUOUS
10
0.787874
20
1.43
11
0.787874
21
1.37
0
LINE
8
BLACK
6
CONTINUOUS
10
0.787874
20
1.37
11
0.787275
21
1.36699
0
LINE
8
BLACK
6
CONTINUOUS
10
0.787275
20
1.36699
11
0.785568
21
1.36443
0
LINE
8
BLACK
6
CONTINUOUS
10
0.785568
20
1.36443
11
0.783013
21
1.36273
0
LINE
8
BLACK
6
CONTINUOUS
10
0.783013
20
1.36273
11
0.78
21
1.36213
0
LINE
8
BLACK
6
CONTINUOUS
10
0.78
20
1.36213
11
0.72
21
1.36213
0
LINE
8
BLACK
6
CONTINUOUS
10
0.72
20
1.36213
11
0.716987
21
1.36273
0
LINE
8
BLACK
6
CONTINUOUS
10
0.716987
20
1.36273
11
0.714432
21
1.36443
0
LINE
8
BLACK
6
CONTINUOUS
10
0.714432
20
1.36443
11
0.712725
21
1.36699
0
LINE
8
BLACK
6
CONTINUOUS
10
0.712725
20
1.36699
11
0.712126
21
1.37
0
LINE
8
BLACK
6
CONTINUOUS
10
0.712126
20
1.37
11
0.712126
21
1.43
0
LINE
8
BLACK
6
CONTINUOUS
10
0.712126
20
1.43
11
0.712725
21
1.43301
0
LINE
8
BLACK
6
CONTINUOUS
10
0.712725
20
1.43301
11
0.714432
21
1.43557
0
LINE
8
BLACK
6
CONTINUOUS
10
0.714432
20
1.43557
11
0.716987
21
1.43727
0
LINE
8
BLACK
6
CONTINUOUS
10
0.716987
20
1.43727
11
0.72
21
1.43787
0
LINE
8
BLACK
6
CONTINUOUS
10
0.72
20
1.43787
11
0.78
21
1.43787
0
LINE
8
BLACK
6
CONTINUOUS
10
0.78
20
1.43787
11
0.783013
21
1.43727
0
LINE
8
BLACK
6
CONTINUOUS
10
0.583013
20
1.43727
11
0.585568
21
1.43557
0
LINE
8
BLACK
6
CONTINUOUS
10
0.585568
20
1.43557
11
0.587275
21
1.43301
0
LINE
8
BLACK
6
CONTINUOUS
10
0.587275
20
1.43301
11
0.587874
21
1.43
0
LINE
8
BLACK
6
CONTINUOUS
10
0.587874
20
1.43
11
0.587874
21
1.37
0
LINE
8
BLACK
6
CONTINUOUS
10
0.587874
20
1.37
11
0.587275
21
1.36699
0
LINE
8
BLACK
6
CONTINUOUS
10
0.587275
20
1.36699
11
0.585568
21
1.36443
0
LINE
8
BLACK
6
CONTINUOUS
10
0.585568
20
1.36443
11
0.583013
21
1.36273
0
LINE
8
BLACK
6
CONTINUOUS
10
0.583013
20
1.36273
11
0.58
21
1.36213
0
LINE
8
BLACK
6
CONTINUOUS
10
0.58
20
1.36213
11
0.52
21
1.36213
0
LINE
8
BLACK
6
CONTINUOUS
10
0.52
20
1.36213
11
0.516987
21
1.36273
0
LINE
8
BLACK
6
CONTINUOUS
10
0.516987
20
1.36273
11
0.514432
21
1.36443
0
LINE
8
BLACK
6
CONTINUOUS
10
0.514432
20
1.36443
11
0.512725
21
1.36699
0
LINE
8
BLACK
6
CONTINUOUS
10
0.512725
20
1.36699
11
0.512126
21
1.37
0
LINE
8
BLACK
6
CONTINUOUS
10
0.512126
20
1.37
11
0.512126
21
1.43
0
LINE
8
BLACK
6
CONTINUOUS
10
0.512126
20
1.43
11
0.512725
21
1.43301
0
LINE
8
BLACK
6
CONTINUOUS
10
0.512725
20
1.43301
11
0.514432
21
1.43557
0
LINE
8
BLACK
6
CONTINUOUS
10
0.514432
20
1.43557
11
0.516987
21
1.43727
0
LINE
8
BLACK
6
CONTINUOUS
10
0.516987
20
1.43727
11
0.52
21
1.43787
0
LINE
8
BLACK
6
CONTINUOUS
10
0.52
20
1.43787
11
0.58
21
1.43787
0
LINE
8
BLACK
6
CONTINUOUS
10
0.58
20
1.43787
11
0.583013
21
1.43727
0
LINE
8
BLACK
6
CONTINUOUS
10
1.18301
20
1.43727
11
1.18557
21
1.43557
0
LINE
8
BLACK
6
CONTINUOUS
10
1.18557
20
1.43557
11
1.18727
21
1.43301
0
LINE
8
BLACK
6
CONTINUOUS
10
1.18727
20
1.43301
11
1.18787
21
1.43
0
LINE
8
BLACK
6
CONTINUOUS
10
1.18787
20
1.43
11
1.18787
21
1.37
0
LINE
8
BLACK
6
CONTINUOUS
10
1.18787
20
1.37
11
1.18727
21
1.36699
0
LINE
8
BLACK
6
CONTINUOUS
10
1.18727
20
1.36699
11
1.18557
21
1.36443
0
LINE
8
BLACK
6
CONTINUOUS
10
1.18557
20
1.36443
11
1.18301
21
1.36273
0
LINE
8
BLACK
6
CONTINUOUS
10
1.18301
20
1.36273
11
1.18
21
1.36213
0
LINE
8
BLACK
6
CONTINUOUS
10
1.18
20
1.36213
11
1.12
21
1.36213
0
LINE
8
BLACK
6
CONTINUOUS
10
1.12
20
1.36213
11
1.11699
21
1.36273
0
LINE
8
BLACK
6
CONTINUOUS
10
1.11699
20
1.36273
11
1.11443
21
1.36443
0
LINE
8
BLACK
6
CONTINUOUS
10
1.11443
20
1.36443
11
1.11273
21
1.36699
0
LINE
8
BLACK
6
CONTINUOUS
10
1.11273
20
1.36699
11
1.11213
21
1.37
0
LINE
8
BLACK
6
CONTINUOUS
10
1.11213
20
1.37
11
1.11213
21
1.43
0
LINE
8
BLACK
6
CONTINUOUS
10
1.11213
20
1.43
11
1.11273
21
1.43301
0
LINE
8
BLACK
6
CONTINUOUS
10
1.11273
20
1.43301
11
1.11443
21
1.43557
0
LINE
8
BLACK
6
CONTINUOUS
10
1.11443
20
1.43557
11
1.11699
21
1.43727
0
LINE
8
BLACK
6
CONTINUOUS
10
1.11699
20
1.43727
11
1.12
21
1.43787
0
LINE
8
BLACK
6
CONTINUOUS
10
1.12
20
1.43787
11
1.18
21
1.43787
0
LINE
8
BLACK
6
CONTINUOUS
10
1.18
20
1.43787
11
1.18301
21
1.43727
0
LINE
8
BLACK
6
CONTINUOUS
10
0.683013
20
1.43727
11
0.685568
21
1.43557
0
LINE
8
BLACK
6
CONTINUOUS
10
0.685568
20
1.43557
11
0.687275
21
1.43301
0
LINE
8
BLACK
6
CONTINUOUS
10
0.687275
20
1.43301
11
0.687874
21
1.43
0
LINE
8
BLACK
6
CONTINUOUS
10
0.687874
20
1.43
11
0.687874
21
1.37
0
LINE
8
BLACK
6
CONTINUOUS
10
0.687874
20
1.37
11
0.687275
21
1.36699
0
LINE
8
BLACK
6
CONTINUOUS
10
0.687275
20
1.36699
11
0.685568
21
1.36443
0
LINE
8
BLACK
6
CONTINUOUS
10
0.685568
20
1.36443
11
0.683013
21
1.36273
0
LINE
8
BLACK
6
CONTINUOUS
10
0.683013
20
1.36273
11
0.68
21
1.36213
0
LINE
8
BLACK
6
CONTINUOUS
10
0.68
20
1.36213
11
0.62
21
1.36213
0
LINE
8
BLACK
6
CONTINUOUS
10
0.62
20
1.36213
11
0.616987
21
1.36273
0
LINE
8
BLACK
6
CONTINUOUS
10
0.616987
20
1.36273
11
0.614432
21
1.36443
0
LINE
8
BLACK
6
CONTINUOUS
10
0.614432
20
1.36443
11
0.612725
21
1.36699
0
LINE
8
BLACK
6
CONTINUOUS
10
0.612725
20
1.36699
11
0.612126
21
1.37
0
LINE
8
BLACK
6
CONTINUOUS
10
0.612126
20
1.37
11
0.612126
21
1.43
0
LINE
8
BLACK
6
CONTINUOUS
10
0.612126
20
1.43
11
0.612725
21
1.43301
0
LINE
8
BLACK
6
CONTINUOUS
10
0.612725
20
1.43301
11
0.614432
21
1.43557
0
LINE
8
BLACK
6
CONTINUOUS
10
0.614432
20
1.43557
11
0.616987
21
1.43727
0
LINE
8
BLACK
6
CONTINUOUS
10
0.616987
20
1.43727
11
0.62
21
1.43787
0
LINE
8
BLACK
6
CONTINUOUS
10
0.62
20
1.43787
11
0.68
21
1.43787
0
LINE
8
BLACK
6
CONTINUOUS
10
0.68
20
1.43787
11
0.683013
21
1.43727
0
LINE
8
BLACK
6
CONTINUOUS
10
1.08301
20
1.43727
11
1.08557
21
1.43557
0
LINE
8
BLACK
6
CONTINUOUS
10
1.08557
20
1.43557
11
1.08727
21
1.43301
0
LINE
8
BLACK
6
CONTINUOUS
10
1.08727
20
1.43301
11
1.08787
21
1.43
0
LINE
8
BLACK
6
CONTINUOUS
10
1.08787
20
1.43
11
1.08787
21
1.37
0
LINE
8
BLACK
6
CONTINUOUS
10
1.08787
20
1.37
11
1.08727
21
1.36699
0
LINE
8
BLACK
6
CONTINUOUS
10
1.08727
20
1.36699
11
1.08557
21
1.36443
0
LINE
8
BLACK
6
CONTINUOUS
10
1.08557
20
1.36443
11
1.08301
21
1.36273
0
LINE
8
BLACK
6
CONTINUOUS
10
1.08301
20
1.36273
11
1.08
21
1.36213
0
LINE
8
BLACK
6
CONTINUOUS
10
1.08
20
1.36213
11
1.02
21
1.36213
0
LINE
8
BLACK
6
CONTINUOUS
10
1.02
20
1.36213
11
1.01699
21
1.36273
0
LINE
8
BLACK
6
CONTINUOUS
10
1.01699
20
1.36273
11
1.01443
21
1.36443
0
LINE
8
BLACK
6
CONTINUOUS
10
1.01443
20
1.36443
11
1.01273
21
1.36699
0
LINE
8
BLACK
6
CONTINUOUS
10
1.01273
20
1.36699
11
1.01213
21
1.37
0
LINE
8
BLACK
6
CONTINUOUS
10
1.01213
20
1.37
11
1.01213
21
1.43
0
LINE
8
BLACK
6
CONTINUOUS
10
1.01213
20
1.43
11
1.01273
21
1.43301
0
LINE
8
BLACK
6
CONTINUOUS
10
1.01273
20
1.43301
11
1.01443
21
1.43557
0
LINE
8
BLACK
6
CONTINUOUS
10
1.01443
20
1.43557
11
1.01699
21
1.43727
0
LINE
8
BLACK
6
CONTINUOUS
10
1.01699
20
1.43727
11
1.02
21
1.43787
0
LINE
8
BLACK
6
CONTINUOUS
10
1.02
20
1.43787
11
1.08
21
1.43787
0
LINE
8
BLACK
6
CONTINUOUS
10
1.08
20
1.43787
11
1.08301
21
1.43727
0
LINE
8
BLACK
6
CONTINUOUS
10
0.583013
20
1.53727
11
0.585568
21
1.53557
0
LINE
8
BLACK
6
CONTINUOUS
10
0.585568
20
1.53557
11
0.587275
21
1.53301
0
LINE
8
BLACK
6
CONTINUOUS
10
0.587275
20
1.53301
11
0.587874
21
1.53
0
LINE
8
BLACK
6
CONTINUOUS
10
0.587874
20
1.53
11
0.587874
21
1.47
0
LINE
8
BLACK
6
CONTINUOUS
10
0.587874
20
1.47
11
0.587275
21
1.46699
0
LINE
8
BLACK
6
CONTINUOUS
10
0.587275
20
1.46699
11
0.585568
21
1.46443
0
LINE
8
BLACK
6
CONTINUOUS
10
0.585568
20
1.46443
11
0.583013
21
1.46273
0
LINE
8
BLACK
6
CONTINUOUS
10
0.583013
20
1.46273
11
0.58
21
1.46213
0
LINE
8
BLACK
6
CONTINUOUS
10
0.58
20
1.46213
11
0.52
21
1.46213
0
LINE
8
BLACK
6
CONTINUOUS
10
0.52
20
1.46213
11
0.516987
21
1.46273
0
LINE
8
BLACK
6
CONTINUOUS
10
0.516987
20
1.46273
11
0.514432
21
1.46443
0
LINE
8
BLACK
6
CONTINUOUS
10
0.514432
20
1.46443
11
0.512725
21
1.46699
0
LINE
8
BLACK
6
CONTINUOUS
10
0.512725
20
1.46699
11
0.512126
21
1.47
0
LINE
8
BLACK
6
CONTINUOUS
10
0.512126
20
1.47
11
0.512126
21
1.53
0
LINE
8
BLACK
6
CONTINUOUS
10
0.512126
20
1.53
11
0.512725
21
1.53301
0
LINE
8
BLACK
6
CONTINUOUS
10
0.512725
20
1.53301
11
0.514432
21
1.53557
0
LINE
8
BLACK
6
CONTINUOUS
10
0.514432
20
1.53557
11
0.516987
21
1.53727
0
LINE
8
BLACK
6
CONTINUOUS
10
0.516987
20
1.53727
11
0.52
21
1.53787
0
LINE
8
BLACK
6
CONTINUOUS
10
0.52
20
1.53787
11
0.58
21
1.53787
0
LINE
8
BLACK
6
CONTINUOUS
10
0.58
20
1.53787
11
0.583013
21
1.53727
0
LINE
8
BLACK
6
CONTINUOUS
10
1.18301
20
1.53727
11
1.18557
21
1.53557
0
LINE
8
BLACK
6
CONTINUOUS
10
1.18557
20
1.53557
11
1.18727
21
1.53301
0
LINE
8
BLACK
6
CONTINUOUS
10
1.18727
20
1.53301
11
1.18787
21
1.53
0
LINE
8
BLACK
6
CONTINUOUS
10
1.18787
20
1.53
11
1.18787
21
1.47
0
LINE
8
BLACK
6
CONTINUOUS
10
1.18787
20
1.47
11
1.18727
21
1.46699
0
LINE
8
BLACK
6
CONTINUOUS
10
1.18727
20
1.46699
11
1.18557
21
1.46443
0
LINE
8
BLACK
6
CONTINUOUS
10
1.18557
20
1.46443
11
1.18301
21
1.46273
0
LINE
8
BLACK
6
CONTINUOUS
10
1.18301
20
1.46273
11
1.18
21
1.46213
0
LINE
8
BLACK
6
CONTINUOUS
10
1.18
20
1.46213
11
1.12
21
1.46213
0
LINE
8
BLACK
6
CONTINUOUS
10
1.12
20
1.46213
11
1.11699
21
1.46273
0
LINE
8
BLACK
6
CONTINUOUS
10
1.11699
20
1.46273
11
1.11443
21
1.46443
0
LINE
8
BLACK
6
CONTINUOUS
10
1.11443
20
1.46443
11
1.11273
21
1.46699
0
LINE
8
BLACK
6
CONTINUOUS
10
1.11273
20
1.46699
11
1.11213
21
1.47
0
LINE
8
BLACK
6
CONTINUOUS
10
1.11213
20
1.47
11
1.11213
21
1.53
0
LINE
8
BLACK
6
CONTINUOUS
10
1.11213
20
1.53
11
1.11273
21
1.53301
0
LINE
8
BLACK
6
CONTINUOUS
10
1.11273
20
1.53301
11
1.11443
21
1.53557
0
LINE
8
BLACK
6
CONTINUOUS
10
1.11443
20
1.53557
11
1.11699
21
1.53727
0
LINE
8
BLACK
6
CONTINUOUS
10
1.11699
20
1.53727
11
1.12
21
1.53787
0
LINE
8
BLACK
6
CONTINUOUS
10
1.12
20
1.53787
11
1.18
21
1.53787
0
LINE
8
BLACK
6
CONTINUOUS
10
1.18
20
1.53787
11
1.18301
21
1.53727
0
LINE
8
BLACK
6
CONTINUOUS
10
0.483013
20
1.53727
11
0.485568
21
1.53557
0
LINE
8
BLACK
6
CONTINUOUS
10
0.485568
20
1.53557
11
0.487275
21
1.53301
0
LINE
8
BLACK
6
CONTINUOUS
10
0.487275
20
1.53301
11
0.487874
21
1.53
0
LINE
8
BLACK
6
CONTINUOUS
10
0.487874
20
1.53
11
0.487874
21
1.47
0
LINE
8
BLACK
6
CONTINUOUS
10
0.487874
20
1.47
11
0.487275
21
1.46699
0
LINE
8
BLACK
6
CONTINUOUS
10
0.487275
20
1.46699
11
0.485568
21
1.46443
0
LINE
8
BLACK
6
CONTINUOUS
10
0.485568
20
1.46443
11
0.483013
21
1.46273
0
LINE
8
BLACK
6
CONTINUOUS
10
0.483013
20
1.46273
11
0.48
21
1.46213
0
LINE
8
BLACK
6
CONTINUOUS
10
0.48
20
1.46213
11
0.42
21
1.46213
0
LINE
8
BLACK
6
CONTINUOUS
10
0.42
20
1.46213
11
0.416987
21
1.46273
0
LINE
8
BLACK
6
CONTINUOUS
10
0.416987
20
1.46273
11
0.414432
21
1.46443
0
LINE
8
BLACK
6
CONTINUOUS
10
0.414432
20
1.46443
11
0.412725
21
1.46699
0
LINE
8
BLACK
6
CONTINUOUS
10
0.412725
20
1.46699
11
0.412126
21
1.47
0
LINE
8
BLACK
6
CONTINUOUS
10
0.412126
20
1.47
11
0.412126
21
1.53
0
LINE
8
BLACK
6
CONTINUOUS
10
0.412126
20
1.53
11
0.412725
21
1.53301
0
LINE
8
BLACK
6
CONTINUOUS
10
0.412725
20
1.53301
11
0.414432
21
1.53557
0
LINE
8
BLACK
6
CONTINUOUS
10
0.414432
20
1.53557
11
0.416987
21
1.53727
0
LINE
8
BLACK
6
CONTINUOUS
10
0.416987
20
1.53727
11
0.42
21
1.53787
0
LINE
8
BLACK
6
CONTINUOUS
10
0.42
20
1.53787
11
0.48
21
1.53787
0
LINE
8
BLACK
6
CONTINUOUS
10
0.48
20
1.53787
11
0.483013
21
1.53727
0
LINE
8
BLACK
6
CONTINUOUS
10
1.28301
20
1.53727
11
1.28557
21
1.53557
0
LINE
8
BLACK
6
CONTINUOUS
10
1.28557
20
1.53557
11
1.28727
21
1.53301
0
LINE
8
BLACK
6
CONTINUOUS
10
1.28727
20
1.53301
11
1.28787
21
1.53
0
LINE
8
BLACK
6
CONTINUOUS
10
1.28787
20
1.53
11
1.28787
21
1.47
0
LINE
8
BLACK
6
CONTINUOUS
10
1.28787
20
1.47
11
1.28727
21
1.46699
0
LINE
8
BLACK
6
CONTINUOUS
10
1.28727
20
1.46699
11
1.28557
21
1.46443
0
LINE
8
BLACK
6
CONTINUOUS
10
1.28557
20
1.46443
11
1.28301
21
1.46273
0
LINE
8
BLACK
6
CONTINUOUS
10
1.28301
20
1.46273
11
1.28
21
1.46213
0
LINE
8
BLACK
6
CONTINUOUS
10
1.28
20
1.46213
11
1.22
21
1.46213
0
LINE
8
BLACK
6
CONTINUOUS
10
1.22
20
1.46213
11
1.21699
21
1.46273
0
LINE
8
BLACK
6
CONTINUOUS
10
1.21699
20
1.46273
11
1.21443
21
1.46443
0
LINE
8
BLACK
6
CONTINUOUS
10
1.21443
20
1.46443
11
1.21273
21
1.46699
0
LINE
8
BLACK
6
CONTINUOUS
10
1.21273
20
1.46699
11
1.21213
21
1.47
0
LINE
8
BLACK
6
CONTINUOUS
10
1.21213
20
1.47
11
1.21213
21
1.53
0
LINE
8
BLACK
6
CONTINUOUS
10
1.21213
20
1.53
11
1.21273
21
1.53301
0
LINE
8
BLACK
6
CONTINUOUS
10
1.21273
20
1.53301
11
1.21443
21
1.53557
0
LINE
8
BLACK
6
CONTINUOUS
10
1.21443
20
1.53557
11
1.21699
21
1.53727
0
LINE
8
BLACK
6
CONTINUOUS
10
1.21699
20
1.53727
11
1.22
21
1.53787
0
LINE
8
BLACK
6
CONTINUOUS
10
1.22
20
1.53787
11
1.28
21
1.53787
0
LINE
8
BLACK
6
CONTINUOUS
10
1.28
20
1.53787
11
1.28301
21
1.53727
0
LINE
8
BLACK
6
CONTINUOUS
10
0.883013
20
1.53727
11
0.885568
21
1.53557
0
LINE
8
BLACK
6
CONTINUOUS
10
0.885568
20
1.53557
11
0.887275
21
1.53301
0
LINE
8
BLACK
6
CONTINUOUS
10
0.887275
20
1.53301
11
0.887874
21
1.53
0
LINE
8
BLACK
6
CONTINUOUS
10
0.887874
20
1.53
11
0.887874
21
1.47
0
LINE
8
BLACK
6
CONTINUOUS
10
0.887874
20
1.47
11
0.887275
21
1.46699
0
LINE
8
BLACK
6
CONTINUOUS
10
0.887275
20
1.46699
11
0.885568
21
1.46443
0
LINE
8
BLACK
6
CONTINUOUS
10
0.885568
20
1.46443
11
0.883013
21
1.46273
0
LINE
8
BLACK
6
CONTINUOUS
10
0.883013
20
1.46273
11
0.88
21
1.46213
0
LINE
8
BLACK
6
CONTINUOUS
10
0.88
20
1.46213
11
0.82
21
1.46213
0
LINE
8
BLACK
6
CONTINUOUS
10
0.82
20
1.46213
11
0.816987
21
1.46273
0
LINE
8
BLACK
6
CONTINUOUS
10
0.816987
20
1.46273
11
0.814432
21
1.46443
0
LINE
8
BLACK
6
CONTINUOUS
10
0.814432
20
1.46443
11
0.812725
21
1.46699
0
LINE
8
BLACK
6
CONTINUOUS
10
0.812725
20
1.46699
11
0.812126
21
1.47
0
LINE
8
BLACK
6
CONTINUOUS
10
0.812126
20
1.47
11
0.812126
21
1.53
0
LINE
8
BLACK
6
CONTINUOUS
10
0.812126
20
1.53
11
0.812725
21
1.53301
0
LINE
8
BLACK
6
CONTINUOUS
10
0.812725
20
1.53301
11
0.814432
21
1.53557
0
LINE
8
BLACK
6
CONTINUOUS
10
0.814432
20
1.53557
11
0.816987
21
1.53727
0
LINE
8
BLACK
6
CONTINUOUS
10
0.816987
20
1.53727
11
0.82
21
1.53787
0
LINE
8
BLACK
6
CONTINUOUS
10
0.82
20
1.53787
11
0.88
21
1.53787
0
LINE
8
BLACK
6
CONTINUOUS
10
0.88
20
1.53787
11
0.883013
21
1.53727
0
LINE
8
BLACK
6
CONTINUOUS
10
0.683013
20
1.53727
11
0.685568
21
1.53557
0
LINE
8
BLACK
6
CONTINUOUS
10
0.685568
20
1.53557
11
0.687275
21
1.53301
0
LINE
8
BLACK
6
CONTINUOUS
10
0.687275
20
1.53301
11
0.687874
21
1.53
0
LINE
8
BLACK
6
CONTINUOUS
10
0.687874
20
1.53
11
0.687874
21
1.47
0
LINE
8
BLACK
6
CONTINUOUS
10
0.687874
20
1.47
11
0.687275
21
1.46699
0
LINE
8
BLACK
6
CONTINUOUS
10
0.687275
20
1.46699
11
0.685568
21
1.46443
0
LINE
8
BLACK
6
CONTINUOUS
10
0.685568
20
1.46443
11
0.683013
21
1.46273
0
LINE
8
BLACK
6
CONTINUOUS
10
0.683013
20
1.46273
11
0.68
21
1.46213
0
LINE
8
BLACK
6
CONTINUOUS
10
0.68
20
1.46213
11
0.62
21
1.46213
0
LINE
8
BLACK
6
CONTINUOUS
10
0.62
20
1.46213
11
0.616987
21
1.46273
0
LINE
8
BLACK
6
CONTINUOUS
10
0.616987
20
1.46273
11
0.614432
21
1.46443
0
LINE
8
BLACK
6
CONTINUOUS
10
0.614432
20
1.46443
11
0.612725
21
1.46699
0
LINE
8
BLACK
6
CONTINUOUS
10
0.612725
20
1.46699
11
0.612126
21
1.47
0
LINE
8
BLACK
6
CONTINUOUS
10
0.612126
20
1.47
11
0.612126
21
1.53
0
LINE
8
BLACK
6
CONTINUOUS
10
0.612126
20
1.53
11
0.612725
21
1.53301
0
LINE
8
BLACK
6
CONTINUOUS
10
0.612725
20
1.53301
11
0.614432
21
1.53557
0
LINE
8
BLACK
6
CONTINUOUS
10
0.614432
20
1.53557
11
0.616987
21
1.53727
0
LINE
8
BLACK
6
CONTINUOUS
10
0.616987
20
1.53727
11
0.62
21
1.53787
0
LINE
8
BLACK
6
CONTINUOUS
10
0.62
20
1.53787
11
0.68
21
1.53787
0
LINE
8
BLACK
6
CONTINUOUS
10
0.68
20
1.53787
11
0.683013
21
1.53727
0
LINE
8
BLACK
6
CONTINUOUS
10
0.983013
20
1.53727
11
0.985568
21
1.53557
0
LINE
8
BLACK
6
CONTINUOUS
10
0.985568
20
1.53557
11
0.987275
21
1.53301
0
LINE
8
BLACK
6
CONTINUOUS
10
0.987275
20
1.53301
11
0.987874
21
1.53
0
LINE
8
BLACK
6
CONTINUOUS
10
0.987874
20
1.53
11
0.987874
21
1.47
0
LINE
8
BLACK
6
CONTINUOUS
10
0.987874
20
1.47
11
0.987275
21
1.46699
0
LINE
8
BLACK
6
CONTINUOUS
10
0.987275
20
1.46699
11
0.985568
21
1.46443
0
LINE
8
BLACK
6
CONTINUOUS
10
0.985568
20
1.46443
11
0.983013
21
1.46273
0
LINE
8
BLACK
6
CONTINUOUS
10
0.983013
20
1.46273
11
0.98
21
1.46213
0
LINE
8
BLACK
6
CONTINUOUS
10
0.98
20
1.46213
11
0.92
21
1.46213
0
LINE
8
BLACK
6
CONTINUOUS
10
0.92
20
1.46213
11
0.916987
21
1.46273
0
LINE
8
BLACK
6
CONTINUOUS
10
0.916987
20
1.46273
11
0.914432
21
1.46443
0
LINE
8
BLACK
6
CONTINUOUS
10
0.914432
20
1.46443
11
0.912725
21
1.46699
0
LINE
8
BLACK
6
CONTINUOUS
10
0.912725
20
1.46699
11
0.912126
21
1.47
0
LINE
8
BLACK
6
CONTINUOUS
10
0.912126
20
1.47
11
0.912126
21
1.53
0
LINE
8
BLACK
6
CONTINUOUS
10
0.912126
20
1.53
11
0.912725
21
1.53301
0
LINE
8
BLACK
6
CONTINUOUS
10
0.912725
20
1.53301
11
0.914432
21
1.53557
0
LINE
8
BLACK
6
CONTINUOUS
10
0.914432
20
1.53557
11
0.916987
21
1.53727
0
LINE
8
BLACK
6
CONTINUOUS
10
0.916987
20
1.53727
11
0.92
21
1.53787
0
LINE
8
BLACK
6
CONTINUOUS
10
0.92
20
1.53787
11
0.98
21
1.53787
0
LINE
8
BLACK
6
CONTINUOUS
10
0.98
20
1.53787
11
0.983013
21
1.53727
0
LINE
8
BLACK
6
CONTINUOUS
10
1.08301
20
1.53727
11
1.08557
21
1.53557
0
LINE
8
BLACK
6
CONTINUOUS
10
1.08557
20
1.53557
11
1.08727
21
1.53301
0
LINE
8
BLACK
6
CONTINUOUS
10
1.08727
20
1.53301
11
1.08787
21
1.53
0
LINE
8
BLACK
6
CONTINUOUS
10
1.08787
20
1.53
11
1.08787
21
1.47
0
LINE
8
BLACK
6
CONTINUOUS
10
1.08787
20
1.47
11
1.08727
21
1.46699
0
LINE
8
BLACK
6
CONTINUOUS
10
1.08727
20
1.46699
11
1.08557
21
1.46443
0
LINE
8
BLACK
6
CONTINUOUS
10
1.08557
20
1.46443
11
1.08301
21
1.46273
0
LINE
8
BLACK
6
CONTINUOUS
10
1.08301
20
1.46273
11
1.08
21
1.46213
0
LINE
8
BLACK
6
CONTINUOUS
10
1.08
20
1.46213
11
1.02
21
1.46213
0
LINE
8
BLACK
6
CONTINUOUS
10
1.02
20
1.46213
11
1.01699
21
1.46273
0
LINE
8
BLACK
6
CONTINUOUS
10
1.01699
20
1.46273
11
1.01443
21
1.46443
0
LINE
8
BLACK
6
CONTINUOUS
10
1.01443
20
1.46443
11
1.01273
21
1.46699
0
LINE
8
BLACK
6
CONTINUOUS
10
1.01273
20
1.46699
11
1.01213
21
1.47
0
LINE
8
BLACK
6
CONTINUOUS
10
1.01213
20
1.47
11
1.01213
21
1.53
0
LINE
8
BLACK
6
CONTINUOUS
10
1.01213
20
1.53
11
1.01273
21
1.53301
0
LINE
8
BLACK
6
CONTINUOUS
10
1.01273
20
1.53301
11
1.01443
21
1.53557
0
LINE
8
BLACK
6
CONTINUOUS
10
1.01443
20
1.53557
11
1.01699
21
1.53727
0
LINE
8
BLACK
6
CONTINUOUS
10
1.01699
20
1.53727
11
1.02
21
1.53787
0
LINE
8
BLACK
6
CONTINUOUS
10
1.02
20
1.53787
11
1.08
21
1.53787
0
LINE
8
BLACK
6
CONTINUOUS
10
1.08
20
1.53787
11
1.08301
21
1.53727
0
LINE
8
BLACK
6
CONTINUOUS
10
0.783013
20
1.53727
11
0.785568
21
1.53557
0
LINE
8
BLACK
6
CONTINUOUS
10
0.785568
20
1.53557
11
0.787275
21
1.53301
0
LINE
8
BLACK
6
CONTINUOUS
10
0.787275
20
1.53301
11
0.787874
21
1.53
0
LINE
8
BLACK
6
CONTINUOUS
10
0.787874
20
1.53
11
0.787874
21
1.47
0
LINE
8
BLACK
6
CONTINUOUS
10
0.787874
20
1.47
11
0.787275
21
1.46699
0
LINE
8
BLACK
6
CONTINUOUS
10
0.787275
20
1.46699
11
0.785568
21
1.46443
0
LINE
8
BLACK
6
CONTINUOUS
10
0.785568
20
1.46443
11
0.783013
21
1.46273
0
LINE
8
BLACK
6
CONTINUOUS
10
0.783013
20
1.46273
11
0.78
21
1.46213
0
LINE
8
BLACK
6
CONTINUOUS
10
0.78
20
1.46213
11
0.72
21
1.46213
0
LINE
8
BLACK
6
CONTINUOUS
10
0.72
20
1.46213
11
0.716987
21
1.46273
0
LINE
8
BLACK
6
CONTINUOUS
10
0.716987
20
1.46273
11
0.714432
21
1.46443
0
LINE
8
BLACK
6
CONTINUOUS
10
0.714432
20
1.46443
11
0.712725
21
1.46699
0
LINE
8
BLACK
6
CONTINUOUS
10
0.712725
20
1.46699
11
0.712126
21
1.47
0
LINE
8
BLACK
6
CONTINUOUS
10
0.712126
20
1.47
11
0.712126
21
1.53
0
LINE
8
BLACK
6
CONTINUOUS
10
0.712126
20
1.53
11
0.712725
21
1.53301
0
LINE
8
BLACK
6
CONTINUOUS
10
0.712725
20
1.53301
11
0.714432
21
1.53557
0
LINE
8
BLACK
6
CONTINUOUS
10
0.714432
20
1.53557
11
0.716987
21
1.53727
0
LINE
8
BLACK
6
CONTINUOUS
10
0.716987
20
1.53727
11
0.72
21
1.53787
0
LINE
8
BLACK
6
CONTINUOUS
10
0.72
20
1.53787
11
0.78
21
1.53787
0
LINE
8
BLACK
6
CONTINUOUS
10
0.78
20
1.53787
11
0.783013
21
1.53727
  0
ENDSEC
  0
EOF
