  0
SECTION
  2
HEADER
  9
$ANGBASE
  50
0.0
  9
$ANGDIR
  70
1
  9
$MEASUREMENT
  70
0
  0
ENDSEC
  0
SECTION
  2
TABLES
  0
TABLE
  2
LTYPE
  70
4
  0
LTYPE
  5
40F
  2
CONTINUOUS
  70
0
  3
Solid line
  72
65
  73
0
  40
0.0
  0
LTYPE
  5
410
  2
DASHDOT
 70
0
  3
Dash Dot ____ _ ____ _
 72
65
 73
4
 40
2.0
 49
1.25
 49
-0.25
 49
0.25
 49
-0.25
  0
LTYPE
  5
411
  2
DASHED
 70
0
  3
Dashed __ __ __ __ __
 72
65
 73
2
 40
0.75
 49
0.5
 49
-0.25
  0
LTYPE
  5
43B
  2
DOTTED
 70
0
  3
Dotted .  .  .  .
 72
65
 73
2
 40
0.2
 49
0.0
 49
-0.2
  0
ENDTAB
  0
TABLE
  2
STYLE
  70
4
  0
STYLE
  2
KICAD
  70
0
  40
0
  41
1
  42
1
  50
0
  71
0
  3
isocp.shx
  0
STYLE
  2
KICADB
  70
0
  40
0
  41
1
  42
1
  50
0
  71
0
  3
isocp.shx
  0
STYLE
  2
KICADI
  70
0
  40
0
  41
1
  42
1
  50
15
  71
0
  3
isocp.shx
  0
STYLE
  2
KICADBI
  70
0
  40
0
  41
1
  42
1
  50
15
  71
0
  3
isocp.shx
  0
ENDTAB
  0
TABLE
  2
LAYER
  70
1
  0
LAYER
  2
BLACK
  70
0
  62
7
  6
CONTINUOUS
  0
ENDTAB
  0
ENDSEC
  0
SECTION
  2
ENTITIES
0
LINE
8
BLACK
6
CONTINUOUS
10
5.3510648425196852
20
-4.425105866141732
11
5.4510648425196848
21
-4.425105866141732
0
LINE
8
BLACK
6
CONTINUOUS
10
5.4510648425196848
20
-4.425105866141732
11
5.5510648425196853
21
-4.425105866141732
0
LINE
8
BLACK
6
CONTINUOUS
10
5.5510648425196853
20
-4.425105866141732
11
5.651064842519685
21
-4.425105866141732
0
LINE
8
BLACK
6
CONTINUOUS
10
5.651064842519685
20
-4.425105866141732
11
5.7510648425196846
21
-4.425105866141732
0
LINE
8
BLACK
6
CONTINUOUS
10
5.7510648425196846
20
-4.425105866141732
11
5.8510648425196852
21
-4.425105866141732
0
LINE
8
BLACK
6
CONTINUOUS
10
5.8510648425196852
20
-4.425105866141732
11
5.9510648425196848
21
-4.425105866141732
0
LINE
8
BLACK
6
CONTINUOUS
10
5.9510648425196848
20
-4.425105866141732
11
6.0510648425196845
21
-4.425105866141732
0
LINE
8
BLACK
6
CONTINUOUS
10
6.0510648425196845
20
-4.425105866141732
11
6.151064842519685
21
-4.425105866141732
0
LINE
8
BLACK
6
CONTINUOUS
10
6.151064842519685
20
-4.425105866141732
11
6.2510648425196846
21
-4.425105866141732
0
LINE
8
BLACK
6
CONTINUOUS
10
6.2510648425196846
20
-4.425105866141732
11
6.2516409055118105
21
-4.4251625984251968
0
LINE
8
BLACK
6
CONTINUOUS
10
6.2516409055118105
20
-4.4251625984251968
11
6.2527053149606298
21
-4.4256035039370074
0
LINE
8
BLACK
6
CONTINUOUS
10
6.2527053149606298
20
-4.4256035039370074
11
6.2535199606299212
21
-4.4264181496062989
0
LINE
8
BLACK
6
CONTINUOUS
10
6.2535199606299212
20
-4.4264181496062989
11
6.2539608661417319
21
-4.4274825590551181
0
LINE
8
BLACK
6
CONTINUOUS
10
6.2539608661417319
20
-4.4274825590551181
11
6.2540175984251967
21
-4.428058622047244
0
LINE
8
BLACK
6
CONTINUOUS
10
6.2540175984251967
20
-4.428058622047244
11
6.2540175984251967
21
-4.6280586220472442
0
LINE
8
BLACK
6
CONTINUOUS
10
6.2540175984251967
20
-4.6280586220472442
11
6.2539608661417319
21
-4.62863468503937
0
LINE
8
BLACK
6
CONTINUOUS
10
6.2539608661417319
20
-4.62863468503937
11
6.2535199606299212
21
-4.6296990944881893
0
LINE
8
BLACK
6
CONTINUOUS
10
6.2535199606299212
20
-4.6296990944881893
11
6.2527053149606298
21
-4.6305137401574799
0
LINE
8
BLACK
6
CONTINUOUS
10
6.2527053149606298
20
-4.6305137401574799
11
6.2516409055118105
21
-4.6309546456692914
0
LINE
8
BLACK
6
CONTINUOUS
10
6.2516409055118105
20
-4.6309546456692914
11
6.2510648425196846
21
-4.6310113779527562
0
LINE
8
BLACK
6
CONTINUOUS
10
6.2510648425196846
20
-4.6310113779527562
11
6.151064842519685
21
-4.6310113779527562
0
LINE
8
BLACK
6
CONTINUOUS
10
6.151064842519685
20
-4.6310113779527562
11
6.0510648425196845
21
-4.6310113779527562
0
LINE
8
BLACK
6
CONTINUOUS
10
6.0510648425196845
20
-4.6310113779527562
11
5.9510648425196848
21
-4.6310113779527562
0
LINE
8
BLACK
6
CONTINUOUS
10
5.9510648425196848
20
-4.6310113779527562
11
5.8510648425196852
21
-4.6310113779527562
0
LINE
8
BLACK
6
CONTINUOUS
10
5.8510648425196852
20
-4.6310113779527562
11
5.7510648425196846
21
-4.6310113779527562
0
LINE
8
BLACK
6
CONTINUOUS
10
5.7510648425196846
20
-4.6310113779527562
11
5.651064842519685
21
-4.6310113779527562
0
LINE
8
BLACK
6
CONTINUOUS
10
5.651064842519685
20
-4.6310113779527562
11
5.5510648425196853
21
-4.6310113779527562
0
LINE
8
BLACK
6
CONTINUOUS
10
5.5510648425196853
20
-4.6310113779527562
11
5.4510648425196848
21
-4.6310113779527562
0
LINE
8
BLACK
6
CONTINUOUS
10
5.4510648425196848
20
-4.6310113779527562
11
5.3510648425196852
21
-4.6310113779527562
0
LINE
8
BLACK
6
CONTINUOUS
10
5.3510648425196852
20
-4.6310113779527562
11
5.2510648425196846
21
-4.6310113779527562
0
LINE
8
BLACK
6
CONTINUOUS
10
5.2510648425196846
20
-4.6310113779527562
11
5.2504887795275588
21
-4.6309546456692914
0
LINE
8
BLACK
6
CONTINUOUS
10
5.2504887795275588
20
-4.6309546456692914
11
5.2494243700787404
21
-4.6305137401574799
0
LINE
8
BLACK
6
CONTINUOUS
10
5.2494243700787404
20
-4.6305137401574799
11
5.248609724409449
21
-4.6296990944881893
0
LINE
8
BLACK
6
CONTINUOUS
10
5.248609724409449
20
-4.6296990944881893
11
5.2481688188976374
21
-4.62863468503937
0
LINE
8
BLACK
6
CONTINUOUS
10
5.2481688188976374
20
-4.62863468503937
11
5.2481120866141735
21
-4.6280586220472442
0
LINE
8
BLACK
6
CONTINUOUS
10
5.2481120866141735
20
-4.6280586220472442
11
5.2481120866141735
21
-4.428058622047244
0
LINE
8
BLACK
6
CONTINUOUS
10
5.2481120866141735
20
-4.428058622047244
11
5.2481688188976374
21
-4.4274825590551181
0
LINE
8
BLACK
6
CONTINUOUS
10
5.2481688188976374
20
-4.4274825590551181
11
5.248609724409449
21
-4.4264181496062989
0
LINE
8
BLACK
6
CONTINUOUS
10
5.248609724409449
20
-4.4264181496062989
11
5.2494243700787404
21
-4.4256035039370074
0
LINE
8
BLACK
6
CONTINUOUS
10
5.2494243700787404
20
-4.4256035039370074
11
5.2504887795275588
21
-4.4251625984251968
0
LINE
8
BLACK
6
CONTINUOUS
10
5.2504887795275588
20
-4.4251625984251968
11
5.2510648425196846
21
-4.425105866141732
0
LINE
8
BLACK
6
CONTINUOUS
10
5.2510648425196846
20
-4.425105866141732
11
5.3510648425196852
21
-4.425105866141732
0
LINE
8
BLACK
6
CONTINUOUS
10
6.154017598425197
20
-4.431011377952756
11
6.154017598425197
21
-4.6251058661417321
0
LINE
8
BLACK
6
CONTINUOUS
10
6.154017598425197
20
-4.6251058661417321
11
6.2481120866141735
21
-4.6251058661417321
0
LINE
8
BLACK
6
CONTINUOUS
10
6.2481120866141735
20
-4.6251058661417321
11
6.2481120866141735
21
-4.431011377952756
0
LINE
8
BLACK
6
CONTINUOUS
10
6.2481120866141735
20
-4.431011377952756
11
6.154017598425197
21
-4.431011377952756
0
LINE
8
BLACK
6
CONTINUOUS
10
6.0540175984251965
20
-4.431011377952756
11
6.0540175984251965
21
-4.6251058661417321
0
LINE
8
BLACK
6
CONTINUOUS
10
6.0540175984251965
20
-4.6251058661417321
11
6.148112086614173
21
-4.6251058661417321
0
LINE
8
BLACK
6
CONTINUOUS
10
6.148112086614173
20
-4.6251058661417321
11
6.148112086614173
21
-4.431011377952756
0
LINE
8
BLACK
6
CONTINUOUS
10
6.148112086614173
20
-4.431011377952756
11
6.0540175984251965
21
-4.431011377952756
0
LINE
8
BLACK
6
CONTINUOUS
10
5.9540175984251968
20
-4.431011377952756
11
5.9540175984251968
21
-4.6251058661417321
0
LINE
8
BLACK
6
CONTINUOUS
10
5.9540175984251968
20
-4.6251058661417321
11
6.0481120866141733
21
-4.6251058661417321
0
LINE
8
BLACK
6
CONTINUOUS
10
6.0481120866141733
20
-4.6251058661417321
11
6.0481120866141733
21
-4.431011377952756
0
LINE
8
BLACK
6
CONTINUOUS
10
6.0481120866141733
20
-4.431011377952756
11
5.9540175984251968
21
-4.431011377952756
0
LINE
8
BLACK
6
CONTINUOUS
10
5.8540175984251963
20
-4.431011377952756
11
5.8540175984251963
21
-4.6251058661417321
0
LINE
8
BLACK
6
CONTINUOUS
10
5.8540175984251963
20
-4.6251058661417321
11
5.9481120866141728
21
-4.6251058661417321
0
LINE
8
BLACK
6
CONTINUOUS
10
5.9481120866141728
20
-4.6251058661417321
11
5.9481120866141728
21
-4.431011377952756
0
LINE
8
BLACK
6
CONTINUOUS
10
5.9481120866141728
20
-4.431011377952756
11
5.8540175984251963
21
-4.431011377952756
0
LINE
8
BLACK
6
CONTINUOUS
10
5.7540175984251967
20
-4.431011377952756
11
5.7540175984251967
21
-4.6251058661417321
0
LINE
8
BLACK
6
CONTINUOUS
10
5.7540175984251967
20
-4.6251058661417321
11
5.8481120866141731
21
-4.6251058661417321
0
LINE
8
BLACK
6
CONTINUOUS
10
5.8481120866141731
20
-4.6251058661417321
11
5.8481120866141731
21
-4.431011377952756
0
LINE
8
BLACK
6
CONTINUOUS
10
5.8481120866141731
20
-4.431011377952756
11
5.7540175984251967
21
-4.431011377952756
0
LINE
8
BLACK
6
CONTINUOUS
10
5.654017598425197
20
-4.431011377952756
11
5.654017598425197
21
-4.6251058661417321
0
LINE
8
BLACK
6
CONTINUOUS
10
5.654017598425197
20
-4.6251058661417321
11
5.7481120866141735
21
-4.6251058661417321
0
LINE
8
BLACK
6
CONTINUOUS
10
5.7481120866141735
20
-4.6251058661417321
11
5.7481120866141735
21
-4.431011377952756
0
LINE
8
BLACK
6
CONTINUOUS
10
5.7481120866141735
20
-4.431011377952756
11
5.654017598425197
21
-4.431011377952756
0
LINE
8
BLACK
6
CONTINUOUS
10
5.5540175984251965
20
-4.431011377952756
11
5.5540175984251965
21
-4.6251058661417321
0
LINE
8
BLACK
6
CONTINUOUS
10
5.5540175984251965
20
-4.6251058661417321
11
5.648112086614173
21
-4.6251058661417321
0
LINE
8
BLACK
6
CONTINUOUS
10
5.648112086614173
20
-4.6251058661417321
11
5.648112086614173
21
-4.431011377952756
0
LINE
8
BLACK
6
CONTINUOUS
10
5.648112086614173
20
-4.431011377952756
11
5.5540175984251965
21
-4.431011377952756
0
LINE
8
BLACK
6
CONTINUOUS
10
5.4540175984251968
20
-4.431011377952756
11
5.4540175984251968
21
-4.6251058661417321
0
LINE
8
BLACK
6
CONTINUOUS
10
5.4540175984251968
20
-4.6251058661417321
11
5.5481120866141733
21
-4.6251058661417321
0
LINE
8
BLACK
6
CONTINUOUS
10
5.5481120866141733
20
-4.6251058661417321
11
5.5481120866141733
21
-4.431011377952756
0
LINE
8
BLACK
6
CONTINUOUS
10
5.5481120866141733
20
-4.431011377952756
11
5.4540175984251968
21
-4.431011377952756
0
LINE
8
BLACK
6
CONTINUOUS
10
5.3540175984251963
20
-4.431011377952756
11
5.3540175984251963
21
-4.6251058661417321
0
LINE
8
BLACK
6
CONTINUOUS
10
5.3540175984251963
20
-4.6251058661417321
11
5.4481120866141728
21
-4.6251058661417321
0
LINE
8
BLACK
6
CONTINUOUS
10
5.4481120866141728
20
-4.6251058661417321
11
5.4481120866141728
21
-4.431011377952756
0
LINE
8
BLACK
6
CONTINUOUS
10
5.4481120866141728
20
-4.431011377952756
11
5.3540175984251963
21
-4.431011377952756
0
LINE
8
BLACK
6
CONTINUOUS
10
5.2540175984251967
20
-4.431011377952756
11
5.2540175984251967
21
-4.6251058661417321
0
LINE
8
BLACK
6
CONTINUOUS
10
5.2540175984251967
20
-4.6251058661417321
11
5.3481120866141731
21
-4.6251058661417321
0
LINE
8
BLACK
6
CONTINUOUS
10
5.3481120866141731
20
-4.6251058661417321
11
5.3481120866141731
21
-4.431011377952756
0
LINE
8
BLACK
6
CONTINUOUS
10
5.3481120866141731
20
-4.431011377952756
11
5.2540175984251967
21
-4.431011377952756
0
LINE
8
BLACK
6
CONTINUOUS
10
6.612950905511811
20
-4.5630872047244093
11
6.6139422834645671
21
-4.5636741732283461
0
LINE
8
BLACK
6
CONTINUOUS
10
6.6139422834645671
20
-4.5636741732283461
11
6.6146335826771656
21
-4.5645958661417323
0
LINE
8
BLACK
6
CONTINUOUS
10
6.6146335826771656
20
-4.5645958661417323
11
6.6149194881889759
21
-4.5657119291338581
0
LINE
8
BLACK
6
CONTINUOUS
10
6.6149194881889759
20
-4.5657119291338581
11
6.6147565748031498
21
-4.5668524409448814
0
LINE
8
BLACK
6
CONTINUOUS
10
6.6147565748031498
20
-4.5668524409448814
11
6.6141695669291334
21
-4.5678438188976376
0
LINE
8
BLACK
6
CONTINUOUS
10
6.6141695669291334
20
-4.5678438188976376
11
6.6137427559055117
21
-4.5682348425196846
0
LINE
8
BLACK
6
CONTINUOUS
10
6.6137427559055117
20
-4.5682348425196846
11
6.5939691732283467
21
-4.5830649606299207
0
LINE
8
BLACK
6
CONTINUOUS
10
6.5939691732283467
20
-4.5830649606299207
11
6.5963212598425196
21
-4.5854170472440945
0
LINE
8
BLACK
6
CONTINUOUS
10
6.5963212598425196
20
-4.5854170472440945
11
6.6119711023622045
21
-4.5854170472440945
0
LINE
8
BLACK
6
CONTINUOUS
10
6.6119711023622045
20
-4.5854170472440945
11
6.6125471653543304
21
-4.5854737795275593
0
LINE
8
BLACK
6
CONTINUOUS
10
6.6125471653543304
20
-4.5854737795275593
11
6.6136115748031497
21
-4.5859146850393699
0
LINE
8
BLACK
6
CONTINUOUS
10
6.6136115748031497
20
-4.5859146850393699
11
6.6144262204724411
21
-4.5867293307086614
0
LINE
8
BLACK
6
CONTINUOUS
10
6.6144262204724411
20
-4.5867293307086614
11
6.6148671259842518
21
-4.5877937401574806
0
LINE
8
BLACK
6
CONTINUOUS
10
6.6148671259842518
20
-4.5877937401574806
11
6.6148671259842518
21
-4.5889458661417324
0
LINE
8
BLACK
6
CONTINUOUS
10
6.6148671259842518
20
-4.5889458661417324
11
6.6144262204724411
21
-4.5900102755905507
0
LINE
8
BLACK
6
CONTINUOUS
10
6.6144262204724411
20
-4.5900102755905507
11
6.6136115748031497
21
-4.5908249212598422
0
LINE
8
BLACK
6
CONTINUOUS
10
6.6136115748031497
20
-4.5908249212598422
11
6.6125471653543304
21
-4.5912658267716537
0
LINE
8
BLACK
6
CONTINUOUS
10
6.6125471653543304
20
-4.5912658267716537
11
6.6119711023622045
21
-4.5913225590551177
0
LINE
8
BLACK
6
CONTINUOUS
10
6.6119711023622045
20
-4.5913225590551177
11
6.5726010236220471
21
-4.5913225590551177
0
LINE
8
BLACK
6
CONTINUOUS
10
6.5726010236220471
20
-4.5913225590551177
11
6.5720249606299213
21
-4.5912658267716537
0
LINE
8
BLACK
6
CONTINUOUS
10
6.5720249606299213
20
-4.5912658267716537
11
6.570960551181102
21
-4.5908249212598422
0
LINE
8
BLACK
6
CONTINUOUS
10
6.570960551181102
20
-4.5908249212598422
11
6.5701459055118105
21
-4.5900102755905507
0
LINE
8
BLACK
6
CONTINUOUS
10
6.5701459055118105
20
-4.5900102755905507
11
6.5697049999999999
21
-4.5889458661417324
0
LINE
8
BLACK
6
CONTINUOUS
10
6.5697049999999999
20
-4.5889458661417324
11
6.5697049999999999
21
-4.5877937401574806
0
LINE
8
BLACK
6
CONTINUOUS
10
6.5697049999999999
20
-4.5877937401574806
11
6.5701459055118105
21
-4.5867293307086614
0
LINE
8
BLACK
6
CONTINUOUS
10
6.5701459055118105
20
-4.5867293307086614
11
6.570960551181102
21
-4.5859146850393699
0
LINE
8
BLACK
6
CONTINUOUS
10
6.570960551181102
20
-4.5859146850393699
11
6.5720249606299213
21
-4.5854737795275593
0
LINE
8
BLACK
6
CONTINUOUS
10
6.5720249606299213
20
-4.5854737795275593
11
6.5726010236220471
21
-4.5854170472440945
0
LINE
8
BLACK
6
CONTINUOUS
10
6.5726010236220471
20
-4.5854170472440945
11
6.5879696062992128
21
-4.5854170472440945
0
LINE
8
BLACK
6
CONTINUOUS
10
6.5879696062992128
20
-4.5854170472440945
11
6.5705131102362202
21
-4.5679605511811019
0
LINE
8
BLACK
6
CONTINUOUS
10
6.5705131102362202
20
-4.5679605511811019
11
6.5701459055118105
21
-4.5675131102362201
0
LINE
8
BLACK
6
CONTINUOUS
10
6.5701459055118105
20
-4.5675131102362201
11
6.5697049999999999
21
-4.566448661417323
0
LINE
8
BLACK
6
CONTINUOUS
10
6.5697049999999999
20
-4.566448661417323
11
6.5697049999999999
21
-4.5652966141732279
0
LINE
8
BLACK
6
CONTINUOUS
10
6.5697049999999999
20
-4.5652966141732279
11
6.5701459055118105
21
-4.5642321653543307
0
LINE
8
BLACK
6
CONTINUOUS
10
6.5701459055118105
20
-4.5642321653543307
11
6.570960551181102
21
-4.5634175196850393
0
LINE
8
BLACK
6
CONTINUOUS
10
6.570960551181102
20
-4.5634175196850393
11
6.572025
21
-4.5629766141732286
0
LINE
8
BLACK
6
CONTINUOUS
10
6.572025
20
-4.5629766141732286
11
6.5731770472440942
21
-4.5629766141732286
0
LINE
8
BLACK
6
CONTINUOUS
10
6.5731770472440942
20
-4.5629766141732286
11
6.5742414960629922
21
-4.5634175196850393
0
LINE
8
BLACK
6
CONTINUOUS
10
6.5742414960629922
20
-4.5634175196850393
11
6.574688937007874
21
-4.5637847244094489
0
LINE
8
BLACK
6
CONTINUOUS
10
6.574688937007874
20
-4.5637847244094489
11
6.5897509448818896
21
-4.5788467322834645
0
LINE
8
BLACK
6
CONTINUOUS
10
6.5897509448818896
20
-4.5788467322834645
11
6.6101994488188973
21
-4.5635104330708662
0
LINE
8
BLACK
6
CONTINUOUS
10
6.6101994488188973
20
-4.5635104330708662
11
6.610694330708661
21
-4.5632101574803148
0
LINE
8
BLACK
6
CONTINUOUS
10
6.610694330708661
20
-4.5632101574803148
11
6.6118104330708656
21
-4.5629242519685036
0
LINE
8
BLACK
6
CONTINUOUS
10
6.6118104330708656
20
-4.5629242519685036
11
6.612950905511811
21
-4.5630872047244093
0
LINE
8
BLACK
6
CONTINUOUS
10
6.7529509055118107
20
-4.5630872047244093
11
6.7539422834645668
21
-4.5636741732283461
0
LINE
8
BLACK
6
CONTINUOUS
10
6.7539422834645668
20
-4.5636741732283461
11
6.7546335826771653
21
-4.5645958661417323
0
LINE
8
BLACK
6
CONTINUOUS
10
6.7546335826771653
20
-4.5645958661417323
11
6.7549194881889765
21
-4.5657119291338581
0
LINE
8
BLACK
6
CONTINUOUS
10
6.7549194881889765
20
-4.5657119291338581
11
6.7547565748031495
21
-4.5668524409448814
0
LINE
8
BLACK
6
CONTINUOUS
10
6.7547565748031495
20
-4.5668524409448814
11
6.7541695669291339
21
-4.5678438188976376
0
LINE
8
BLACK
6
CONTINUOUS
10
6.7541695669291339
20
-4.5678438188976376
11
6.7537427559055114
21
-4.5682348425196846
0
LINE
8
BLACK
6
CONTINUOUS
10
6.7537427559055114
20
-4.5682348425196846
11
6.7339691732283464
21
-4.5830649606299207
0
LINE
8
BLACK
6
CONTINUOUS
10
6.7339691732283464
20
-4.5830649606299207
11
6.7363212598425193
21
-4.5854170472440945
0
LINE
8
BLACK
6
CONTINUOUS
10
6.7363212598425193
20
-4.5854170472440945
11
6.7519711023622042
21
-4.5854170472440945
0
LINE
8
BLACK
6
CONTINUOUS
10
6.7519711023622042
20
-4.5854170472440945
11
6.752547165354331
21
-4.5854737795275593
0
LINE
8
BLACK
6
CONTINUOUS
10
6.752547165354331
20
-4.5854737795275593
11
6.7536115748031493
21
-4.5859146850393699
0
LINE
8
BLACK
6
CONTINUOUS
10
6.7536115748031493
20
-4.5859146850393699
11
6.7544262204724408
21
-4.5867293307086614
0
LINE
8
BLACK
6
CONTINUOUS
10
6.7544262204724408
20
-4.5867293307086614
11
6.7548671259842514
21
-4.5877937401574806
0
LINE
8
BLACK
6
CONTINUOUS
10
6.7548671259842514
20
-4.5877937401574806
11
6.7548671259842514
21
-4.5889458661417324
0
LINE
8
BLACK
6
CONTINUOUS
10
6.7548671259842514
20
-4.5889458661417324
11
6.7544262204724408
21
-4.5900102755905507
0
LINE
8
BLACK
6
CONTINUOUS
10
6.7544262204724408
20
-4.5900102755905507
11
6.7536115748031493
21
-4.5908249212598422
0
LINE
8
BLACK
6
CONTINUOUS
10
6.7536115748031493
20
-4.5908249212598422
11
6.752547165354331
21
-4.5912658267716537
0
LINE
8
BLACK
6
CONTINUOUS
10
6.752547165354331
20
-4.5912658267716537
11
6.7519711023622042
21
-4.5913225590551177
0
LINE
8
BLACK
6
CONTINUOUS
10
6.7519711023622042
20
-4.5913225590551177
11
6.7126010236220468
21
-4.5913225590551177
0
LINE
8
BLACK
6
CONTINUOUS
10
6.7126010236220468
20
-4.5913225590551177
11
6.7120249606299209
21
-4.5912658267716537
0
LINE
8
BLACK
6
CONTINUOUS
10
6.7120249606299209
20
-4.5912658267716537
11
6.7109605511811026
21
-4.5908249212598422
0
LINE
8
BLACK
6
CONTINUOUS
10
6.7109605511811026
20
-4.5908249212598422
11
6.7101459055118111
21
-4.5900102755905507
0
LINE
8
BLACK
6
CONTINUOUS
10
6.7101459055118111
20
-4.5900102755905507
11
6.7097049999999996
21
-4.5889458661417324
0
LINE
8
BLACK
6
CONTINUOUS
10
6.7097049999999996
20
-4.5889458661417324
11
6.7097049999999996
21
-4.5877937401574806
0
LINE
8
BLACK
6
CONTINUOUS
10
6.7097049999999996
20
-4.5877937401574806
11
6.7101459055118111
21
-4.5867293307086614
0
LINE
8
BLACK
6
CONTINUOUS
10
6.7101459055118111
20
-4.5867293307086614
11
6.7109605511811026
21
-4.5859146850393699
0
LINE
8
BLACK
6
CONTINUOUS
10
6.7109605511811026
20
-4.5859146850393699
11
6.7120249606299209
21
-4.5854737795275593
0
LINE
8
BLACK
6
CONTINUOUS
10
6.7120249606299209
20
-4.5854737795275593
11
6.7126010236220468
21
-4.5854170472440945
0
LINE
8
BLACK
6
CONTINUOUS
10
6.7126010236220468
20
-4.5854170472440945
11
6.7279696062992125
21
-4.5854170472440945
0
LINE
8
BLACK
6
CONTINUOUS
10
6.7279696062992125
20
-4.5854170472440945
11
6.7105131102362199
21
-4.5679605511811019
0
LINE
8
BLACK
6
CONTINUOUS
10
6.7105131102362199
20
-4.5679605511811019
11
6.7101459055118111
21
-4.5675131102362201
0
LINE
8
BLACK
6
CONTINUOUS
10
6.7101459055118111
20
-4.5675131102362201
11
6.7097049999999996
21
-4.566448661417323
0
LINE
8
BLACK
6
CONTINUOUS
10
6.7097049999999996
20
-4.566448661417323
11
6.7097049999999996
21
-4.5652966141732279
0
LINE
8
BLACK
6
CONTINUOUS
10
6.7097049999999996
20
-4.5652966141732279
11
6.7101459055118111
21
-4.5642321653543307
0
LINE
8
BLACK
6
CONTINUOUS
10
6.7101459055118111
20
-4.5642321653543307
11
6.7109605511811026
21
-4.5634175196850393
0
LINE
8
BLACK
6
CONTINUOUS
10
6.7109605511811026
20
-4.5634175196850393
11
6.7120249999999997
21
-4.5629766141732286
0
LINE
8
BLACK
6
CONTINUOUS
10
6.7120249999999997
20
-4.5629766141732286
11
6.7131770472440939
21
-4.5629766141732286
0
LINE
8
BLACK
6
CONTINUOUS
10
6.7131770472440939
20
-4.5629766141732286
11
6.7142414960629919
21
-4.5634175196850393
0
LINE
8
BLACK
6
CONTINUOUS
10
6.7142414960629919
20
-4.5634175196850393
11
6.7146889370078737
21
-4.5637847244094489
0
LINE
8
BLACK
6
CONTINUOUS
10
6.7146889370078737
20
-4.5637847244094489
11
6.7297509448818893
21
-4.5788467322834645
0
LINE
8
BLACK
6
CONTINUOUS
10
6.7297509448818893
20
-4.5788467322834645
11
6.7501994488188979
21
-4.5635104330708662
0
LINE
8
BLACK
6
CONTINUOUS
10
6.7501994488188979
20
-4.5635104330708662
11
6.7506943307086615
21
-4.5632101574803148
0
LINE
8
BLACK
6
CONTINUOUS
10
6.7506943307086615
20
-4.5632101574803148
11
6.7518104330708661
21
-4.5629242519685036
0
LINE
8
BLACK
6
CONTINUOUS
10
6.7518104330708661
20
-4.5629242519685036
11
6.7529509055118107
21
-4.5630872047244093
0
LINE
8
BLACK
6
CONTINUOUS
10
5.0766409055118107
20
-4.1401625984251966
11
5.0777053149606299
21
-4.1406035039370082
0
LINE
8
BLACK
6
CONTINUOUS
10
5.0777053149606299
20
-4.1406035039370082
11
5.0785199606299214
21
-4.1414181496062987
0
LINE
8
BLACK
6
CONTINUOUS
10
5.0785199606299214
20
-4.1414181496062987
11
5.078960866141732
21
-4.142482559055118
0
LINE
8
BLACK
6
CONTINUOUS
10
5.078960866141732
20
-4.142482559055118
11
5.0790175984251968
21
-4.1430586220472438
0
LINE
8
BLACK
6
CONTINUOUS
10
5.0790175984251968
20
-4.1430586220472438
11
5.0790175984251968
21
-4.4430586220472437
0
LINE
8
BLACK
6
CONTINUOUS
10
5.0790175984251968
20
-4.4430586220472437
11
5.078960866141732
21
-4.4436346850393695
0
LINE
8
BLACK
6
CONTINUOUS
10
5.078960866141732
20
-4.4436346850393695
11
5.0785199606299214
21
-4.4446990944881888
0
LINE
8
BLACK
6
CONTINUOUS
10
5.0785199606299214
20
-4.4446990944881888
11
5.0777053149606299
21
-4.4455137401574802
0
LINE
8
BLACK
6
CONTINUOUS
10
5.0777053149606299
20
-4.4455137401574802
11
5.0766409055118107
21
-4.4459546456692909
0
LINE
8
BLACK
6
CONTINUOUS
10
5.0766409055118107
20
-4.4459546456692909
11
5.0760648425196848
21
-4.4460113779527557
0
LINE
8
BLACK
6
CONTINUOUS
10
5.0760648425196848
20
-4.4460113779527557
11
4.8760648425196846
21
-4.4460113779527557
0
LINE
8
BLACK
6
CONTINUOUS
10
4.8760648425196846
20
-4.4460113779527557
11
4.8754887795275588
21
-4.4459546456692909
0
LINE
8
BLACK
6
CONTINUOUS
10
4.8754887795275588
20
-4.4459546456692909
11
4.8744243700787404
21
-4.4455137401574802
0
LINE
8
BLACK
6
CONTINUOUS
10
4.8744243700787404
20
-4.4455137401574802
11
4.873609724409449
21
-4.4446990944881888
0
LINE
8
BLACK
6
CONTINUOUS
10
4.873609724409449
20
-4.4446990944881888
11
4.8731688188976374
21
-4.4436346850393695
0
LINE
8
BLACK
6
CONTINUOUS
10
4.8731688188976374
20
-4.4436346850393695
11
4.8731120866141735
21
-4.4430586220472437
0
LINE
8
BLACK
6
CONTINUOUS
10
4.8731120866141735
20
-4.4430586220472437
11
4.8731120866141735
21
-4.1430586220472438
0
LINE
8
BLACK
6
CONTINUOUS
10
4.8731120866141735
20
-4.1430586220472438
11
4.8731688188976374
21
-4.142482559055118
0
LINE
8
BLACK
6
CONTINUOUS
10
4.8731688188976374
20
-4.142482559055118
11
4.873609724409449
21
-4.1414181496062987
0
LINE
8
BLACK
6
CONTINUOUS
10
4.873609724409449
20
-4.1414181496062987
11
4.8744243700787404
21
-4.1406035039370082
0
LINE
8
BLACK
6
CONTINUOUS
10
4.8744243700787404
20
-4.1406035039370082
11
4.8754887795275588
21
-4.1401625984251966
0
LINE
8
BLACK
6
CONTINUOUS
10
4.8754887795275588
20
-4.1401625984251966
11
4.8760648425196846
21
-4.1401058661417318
0
LINE
8
BLACK
6
CONTINUOUS
10
4.8760648425196846
20
-4.1401058661417318
11
5.0760648425196848
21
-4.1401058661417318
0
LINE
8
BLACK
6
CONTINUOUS
10
5.0760648425196848
20
-4.1401058661417318
11
5.0766409055118107
21
-4.1401625984251966
0
LINE
8
BLACK
6
CONTINUOUS
10
4.8790175984251967
20
-4.1460113779527559
11
4.8790175984251967
21
-4.4401058661417325
0
LINE
8
BLACK
6
CONTINUOUS
10
4.8790175984251967
20
-4.4401058661417325
11
5.0731120866141728
21
-4.4401058661417325
0
LINE
8
BLACK
6
CONTINUOUS
10
5.0731120866141728
20
-4.4401058661417325
11
5.0731120866141728
21
-4.1460113779527559
0
LINE
8
BLACK
6
CONTINUOUS
10
5.0731120866141728
20
-4.1460113779527559
11
4.8790175984251967
21
-4.1460113779527559
0
LINE
8
BLACK
6
CONTINUOUS
10
7.0110386614173228
20
-4.1734273622047242
11
7.0118533070866143
21
-4.1742420078740157
0
LINE
8
BLACK
6
CONTINUOUS
10
7.0118533070866143
20
-4.1742420078740157
11
7.0122942125984249
21
-4.1753064173228349
0
LINE
8
BLACK
6
CONTINUOUS
10
7.0122942125984249
20
-4.1753064173228349
11
7.0123509448818897
21
-4.1758824803149608
0
LINE
8
BLACK
6
CONTINUOUS
10
7.0123509448818897
20
-4.1758824803149608
11
7.0123509448818897
21
-4.211596771653543
0
LINE
8
BLACK
6
CONTINUOUS
10
7.0123509448818897
20
-4.211596771653543
11
7.0123222047244091
21
-4.2118883464566927
0
LINE
8
BLACK
6
CONTINUOUS
10
7.0123222047244091
20
-4.2118883464566927
11
7.0123277559055115
21
-4.2119661023622044
0
LINE
8
BLACK
6
CONTINUOUS
10
7.0123277559055115
20
-4.2119661023622044
11
7.0123044881889758
21
-4.212068346456693
0
LINE
8
BLACK
6
CONTINUOUS
10
7.0123044881889758
20
-4.212068346456693
11
7.0122942125984249
21
-4.2121728346456688
0
LINE
8
BLACK
6
CONTINUOUS
10
7.0122942125984249
20
-4.2121728346456688
11
7.0122643307086614
21
-4.212244881889764
0
LINE
8
BLACK
6
CONTINUOUS
10
7.0122643307086614
20
-4.212244881889764
11
7.0121994094488187
21
-4.2125305511811026
0
LINE
8
BLACK
6
CONTINUOUS
10
7.0121994094488187
20
-4.2125305511811026
11
7.0098184251968503
21
-4.2196733464566929
0
LINE
8
BLACK
6
CONTINUOUS
10
7.0098184251968503
20
-4.2196733464566929
11
7.0095824409448815
21
-4.2202019291338582
0
LINE
8
BLACK
6
CONTINUOUS
10
7.0095824409448815
20
-4.2202019291338582
11
7.0095129133858265
21
-4.2202820472440941
0
LINE
8
BLACK
6
CONTINUOUS
10
7.0095129133858265
20
-4.2202820472440941
11
7.0094723622047246
21
-4.2203800393700783
0
LINE
8
BLACK
6
CONTINUOUS
10
7.0094723622047246
20
-4.2203800393700783
11
7.0091051181102362
21
-4.2208275196850389
0
LINE
8
BLACK
6
CONTINUOUS
10
7.0091051181102362
20
-4.2208275196850389
11
7.0043432283464568
21
-4.2255894488188979
0
LINE
8
BLACK
6
CONTINUOUS
10
7.0043432283464568
20
-4.2255894488188979
11
7.003895787401575
21
-4.2259566535433066
0
LINE
8
BLACK
6
CONTINUOUS
10
7.003895787401575
20
-4.2259566535433066
11
7.0037977952755908
21
-4.2259972047244094
0
LINE
8
BLACK
6
CONTINUOUS
10
7.0037977952755908
20
-4.2259972047244094
11
7.0037176377952752
21
-4.2260667716535432
0
LINE
8
BLACK
6
CONTINUOUS
10
7.0037176377952752
20
-4.2260667716535432
11
7.00318905511811
21
-4.226302755905512
0
LINE
8
BLACK
6
CONTINUOUS
10
7.00318905511811
20
-4.226302755905512
11
6.9960461811023622
21
-4.2286837007874016
0
LINE
8
BLACK
6
CONTINUOUS
10
6.9960461811023622
20
-4.2286837007874016
11
6.995760590551181
21
-4.2287486220472443
0
LINE
8
BLACK
6
CONTINUOUS
10
6.995760590551181
20
-4.2287486220472443
11
6.995688503937008
21
-4.2287785039370078
0
LINE
8
BLACK
6
CONTINUOUS
10
6.995688503937008
20
-4.2287785039370078
11
6.9955839763779526
21
-4.2287887795275587
0
LINE
8
BLACK
6
CONTINUOUS
10
6.9955839763779526
20
-4.2287887795275587
11
6.9954817322834648
21
-4.2288120472440944
0
LINE
8
BLACK
6
CONTINUOUS
10
6.9954817322834648
20
-4.2288120472440944
11
6.9954039763779523
21
-4.2288064960629921
0
LINE
8
BLACK
6
CONTINUOUS
10
6.9954039763779523
20
-4.2288064960629921
11
6.9951124409448822
21
-4.2288352362204726
0
LINE
8
BLACK
6
CONTINUOUS
10
6.9951124409448822
20
-4.2288352362204726
11
6.9903505511811019
21
-4.2288352362204726
0
LINE
8
BLACK
6
CONTINUOUS
10
6.9903505511811019
20
-4.2288352362204726
11
6.9897744881889761
21
-4.2287785039370078
0
LINE
8
BLACK
6
CONTINUOUS
10
6.9897744881889761
20
-4.2287785039370078
11
6.9887100787401577
21
-4.2283375984251972
0
LINE
8
BLACK
6
CONTINUOUS
10
6.9887100787401577
20
-4.2283375984251972
11
6.9878954330708662
21
-4.2275229527559057
0
LINE
8
BLACK
6
CONTINUOUS
10
6.9878954330708662
20
-4.2275229527559057
11
6.9874545275590547
21
-4.2264585433070865
0
LINE
8
BLACK
6
CONTINUOUS
10
6.9874545275590547
20
-4.2264585433070865
11
6.9874545275590547
21
-4.2253064173228347
0
LINE
8
BLACK
6
CONTINUOUS
10
6.9874545275590547
20
-4.2253064173228347
11
6.9878954330708662
21
-4.2242420078740155
0
LINE
8
BLACK
6
CONTINUOUS
10
6.9878954330708662
20
-4.2242420078740155
11
6.9887100787401577
21
-4.223427362204724
0
LINE
8
BLACK
6
CONTINUOUS
10
6.9887100787401577
20
-4.223427362204724
11
6.9897744881889761
21
-4.2229864566929134
0
LINE
8
BLACK
6
CONTINUOUS
10
6.9897744881889761
20
-4.2229864566929134
11
6.9903505511811019
21
-4.2229297244094486
0
LINE
8
BLACK
6
CONTINUOUS
10
6.9903505511811019
20
-4.2229297244094486
11
6.9946333070866142
21
-4.2229297244094486
0
LINE
8
BLACK
6
CONTINUOUS
10
6.9946333070866142
20
-4.2229297244094486
11
7.0006602362204724
21
-4.2209207480314959
0
LINE
8
BLACK
6
CONTINUOUS
10
7.0006602362204724
20
-4.2209207480314959
11
7.0044364173228342
21
-4.2171445669291341
0
LINE
8
BLACK
6
CONTINUOUS
10
7.0044364173228342
20
-4.2171445669291341
11
7.0064454330708656
21
-4.2111175984251972
0
LINE
8
BLACK
6
CONTINUOUS
10
7.0064454330708656
20
-4.2111175984251972
11
7.0064454330708656
21
-4.1758824803149608
0
LINE
8
BLACK
6
CONTINUOUS
10
7.0064454330708656
20
-4.1758824803149608
11
7.0065021653543305
21
-4.1753064173228349
0
LINE
8
BLACK
6
CONTINUOUS
10
7.0065021653543305
20
-4.1753064173228349
11
7.006943070866142
21
-4.1742420078740157
0
LINE
8
BLACK
6
CONTINUOUS
10
7.006943070866142
20
-4.1742420078740157
11
7.0077577165354326
21
-4.1734273622047242
0
LINE
8
BLACK
6
CONTINUOUS
10
7.0077577165354326
20
-4.1734273622047242
11
7.0088221259842518
21
-4.1729864566929136
0
LINE
8
BLACK
6
CONTINUOUS
10
7.0088221259842518
20
-4.1729864566929136
11
7.0099742519685035
21
-4.1729864566929136
0
LINE
8
BLACK
6
CONTINUOUS
10
7.0099742519685035
20
-4.1729864566929136
11
7.0110386614173228
21
-4.1734273622047242
0
LINE
8
BLACK
6
CONTINUOUS
10
7.0504504330708659
20
-4.1729864566929136
11
7.0505484251968502
21
-4.1730270472440942
0
LINE
8
BLACK
6
CONTINUOUS
10
7.0505484251968502
20
-4.1730270472440942
11
7.0506542519685036
21
-4.1730345669291333
0
LINE
8
BLACK
6
CONTINUOUS
10
7.0506542519685036
20
-4.1730345669291333
11
7.0511948818897636
21
-4.1732414566929137
0
LINE
8
BLACK
6
CONTINUOUS
10
7.0511948818897636
20
-4.1732414566929137
11
7.055956771653543
21
-4.1756224015748034
0
LINE
8
BLACK
6
CONTINUOUS
10
7.055956771653543
20
-4.1756224015748034
11
7.0562046850393703
21
-4.1757784645669291
0
LINE
8
BLACK
6
CONTINUOUS
10
7.0562046850393703
20
-4.1757784645669291
11
7.0562767322834645
21
-4.1758083070866139
0
LINE
8
BLACK
6
CONTINUOUS
10
7.0562767322834645
20
-4.1758083070866139
11
7.0563577952755905
21
-4.1758748425196845
0
LINE
8
BLACK
6
CONTINUOUS
10
7.0563577952755905
20
-4.1758748425196845
11
7.056446614173228
21
-4.1759307480314956
0
LINE
8
BLACK
6
CONTINUOUS
10
7.056446614173228
20
-4.1759307480314956
11
7.0564976771653543
21
-4.1759896456692909
0
LINE
8
BLACK
6
CONTINUOUS
10
7.0564976771653543
20
-4.1759896456692909
11
7.0567241732283463
21
-4.1761755118110235
0
LINE
8
BLACK
6
CONTINUOUS
10
7.0567241732283463
20
-4.1761755118110235
11
7.059105118110236
21
-4.1785564566929132
0
LINE
8
BLACK
6
CONTINUOUS
10
7.059105118110236
20
-4.1785564566929132
11
7.0592909448818899
21
-4.1787829133858265
0
LINE
8
BLACK
6
CONTINUOUS
10
7.0592909448818899
20
-4.1787829133858265
11
7.0593498425196852
21
-4.1788339763779527
0
LINE
8
BLACK
6
CONTINUOUS
10
7.0593498425196852
20
-4.1788339763779527
11
7.0594057086614175
21
-4.1789227165354328
0
LINE
8
BLACK
6
CONTINUOUS
10
7.0594057086614175
20
-4.1789227165354328
11
7.0594723228346457
21
-4.179003897637795
0
LINE
8
BLACK
6
CONTINUOUS
10
7.0594723228346457
20
-4.179003897637795
11
7.0595021653543304
21
-4.1790759448818893
0
LINE
8
BLACK
6
CONTINUOUS
10
7.0595021653543304
20
-4.1790759448818893
11
7.0596582283464562
21
-4.1793238582677166
0
LINE
8
BLACK
6
CONTINUOUS
10
7.0596582283464562
20
-4.1793238582677166
11
7.0620392125984246
21
-4.1840857480314959
0
LINE
8
BLACK
6
CONTINUOUS
10
7.0620392125984246
20
-4.1840857480314959
11
7.062246102362205
21
-4.1846263385826772
0
LINE
8
BLACK
6
CONTINUOUS
10
7.062246102362205
20
-4.1846263385826772
11
7.0622536220472441
21
-4.1847322047244093
0
LINE
8
BLACK
6
CONTINUOUS
10
7.0622536220472441
20
-4.1847322047244093
11
7.0622942125984247
21
-4.1848301968503936
0
LINE
8
BLACK
6
CONTINUOUS
10
7.0622942125984247
20
-4.1848301968503936
11
7.0623509448818895
21
-4.1854062598425195
0
LINE
8
BLACK
6
CONTINUOUS
10
7.0623509448818895
20
-4.1854062598425195
11
7.0623509448818895
21
-4.1901681889763776
0
LINE
8
BLACK
6
CONTINUOUS
10
7.0623509448818895
20
-4.1901681889763776
11
7.062322204724409
21
-4.1904597637795273
0
LINE
8
BLACK
6
CONTINUOUS
10
7.062322204724409
20
-4.1904597637795273
11
7.0623277559055113
21
-4.190537519685039
0
LINE
8
BLACK
6
CONTINUOUS
10
7.0623277559055113
20
-4.190537519685039
11
7.0623044881889765
21
-4.1906397637795276
0
LINE
8
BLACK
6
CONTINUOUS
10
7.0623044881889765
20
-4.1906397637795276
11
7.0622942125984247
21
-4.1907442519685034
0
LINE
8
BLACK
6
CONTINUOUS
10
7.0622942125984247
20
-4.1907442519685034
11
7.0622643307086612
21
-4.1908162992125986
0
LINE
8
BLACK
6
CONTINUOUS
10
7.0622643307086612
20
-4.1908162992125986
11
7.0621994094488185
21
-4.1911019685039372
0
LINE
8
BLACK
6
CONTINUOUS
10
7.0621994094488185
20
-4.1911019685039372
11
7.0598184251968501
21
-4.1982447637795275
0
LINE
8
BLACK
6
CONTINUOUS
10
7.0598184251968501
20
-4.1982447637795275
11
7.0595824409448813
21
-4.1987733464566928
0
LINE
8
BLACK
6
CONTINUOUS
10
7.0595824409448813
20
-4.1987733464566928
11
7.0595128740157476
21
-4.1988535039370074
0
LINE
8
BLACK
6
CONTINUOUS
10
7.0595128740157476
20
-4.1988535039370074
11
7.0594723228346457
21
-4.1989514960629917
0
LINE
8
BLACK
6
CONTINUOUS
10
7.0594723228346457
20
-4.1989514960629917
11
7.059105118110236
21
-4.1993989370078735
0
LINE
8
BLACK
6
CONTINUOUS
10
7.059105118110236
20
-4.1993989370078735
11
7.0355743700787396
21
-4.2229297244094486
0
LINE
8
BLACK
6
CONTINUOUS
10
7.0355743700787396
20
-4.2229297244094486
11
7.0593981889763775
21
-4.2229297244094486
0
LINE
8
BLACK
6
CONTINUOUS
10
7.0593981889763775
20
-4.2229297244094486
11
7.0599742519685034
21
-4.2229864566929134
0
LINE
8
BLACK
6
CONTINUOUS
10
7.0599742519685034
20
-4.2229864566929134
11
7.0610386614173226
21
-4.223427362204724
0
LINE
8
BLACK
6
CONTINUOUS
10
7.0610386614173226
20
-4.223427362204724
11
7.0618533070866141
21
-4.2242420078740155
0
LINE
8
BLACK
6
CONTINUOUS
10
7.0618533070866141
20
-4.2242420078740155
11
7.0622942125984247
21
-4.2253064173228347
0
LINE
8
BLACK
6
CONTINUOUS
10
7.0622942125984247
20
-4.2253064173228347
11
7.0622942125984247
21
-4.2264585433070865
0
LINE
8
BLACK
6
CONTINUOUS
10
7.0622942125984247
20
-4.2264585433070865
11
7.0618533070866141
21
-4.2275229527559057
0
LINE
8
BLACK
6
CONTINUOUS
10
7.0618533070866141
20
-4.2275229527559057
11
7.0610386614173226
21
-4.2283375984251972
0
LINE
8
BLACK
6
CONTINUOUS
10
7.0610386614173226
20
-4.2283375984251972
11
7.0599742519685034
21
-4.2287785039370078
0
LINE
8
BLACK
6
CONTINUOUS
10
7.0599742519685034
20
-4.2287785039370078
11
7.0593981889763775
21
-4.2288352362204726
0
LINE
8
BLACK
6
CONTINUOUS
10
7.0593981889763775
20
-4.2288352362204726
11
7.0284457874015747
21
-4.2288352362204726
0
LINE
8
BLACK
6
CONTINUOUS
10
7.0284457874015747
20
-4.2288352362204726
11
7.0278697244094488
21
-4.2287785039370078
0
LINE
8
BLACK
6
CONTINUOUS
10
7.0278697244094488
20
-4.2287785039370078
11
7.0268053149606295
21
-4.2283375984251972
0
LINE
8
BLACK
6
CONTINUOUS
10
7.0268053149606295
20
-4.2283375984251972
11
7.0259906692913381
21
-4.2275229527559057
0
LINE
8
BLACK
6
CONTINUOUS
10
7.0259906692913381
20
-4.2275229527559057
11
7.0255497637795274
21
-4.2264585433070865
0
LINE
8
BLACK
6
CONTINUOUS
10
7.0255497637795274
20
-4.2264585433070865
11
7.0255497637795274
21
-4.2253064173228347
0
LINE
8
BLACK
6
CONTINUOUS
10
7.0255497637795274
20
-4.2253064173228347
11
7.0259906692913381
21
-4.2242420078740155
0
LINE
8
BLACK
6
CONTINUOUS
10
7.0259906692913381
20
-4.2242420078740155
11
7.0263578740157477
21
-4.2237945669291337
0
LINE
8
BLACK
6
CONTINUOUS
10
7.0263578740157477
20
-4.2237945669291337
11
7.0544364173228349
21
-4.1957159448818899
0
LINE
8
BLACK
6
CONTINUOUS
10
7.0544364173228349
20
-4.1957159448818899
11
7.0564454330708664
21
-4.1896890157480318
0
LINE
8
BLACK
6
CONTINUOUS
10
7.0564454330708664
20
-4.1896890157480318
11
7.0564454330708664
21
-4.1861033464566928
0
LINE
8
BLACK
6
CONTINUOUS
10
7.0564454330708664
20
-4.1861033464566928
11
7.0545904724409443
21
-4.1823934645669292
0
LINE
8
BLACK
6
CONTINUOUS
10
7.0545904724409443
20
-4.1823934645669292
11
7.0528871653543304
21
-4.1806901574803152
0
LINE
8
BLACK
6
CONTINUOUS
10
7.0528871653543304
20
-4.1806901574803152
11
7.0491773228346455
21
-4.1788352362204719
0
LINE
8
BLACK
6
CONTINUOUS
10
7.0491773228346455
20
-4.1788352362204719
11
7.0386666141732279
21
-4.1788352362204719
0
LINE
8
BLACK
6
CONTINUOUS
10
7.0386666141732279
20
-4.1788352362204719
11
7.0349567716535431
21
-4.1806901574803152
0
LINE
8
BLACK
6
CONTINUOUS
10
7.0349567716535431
20
-4.1806901574803152
11
7.0329146456692913
21
-4.182732283464567
0
LINE
8
BLACK
6
CONTINUOUS
10
7.0329146456692913
20
-4.182732283464567
11
7.0324672047244094
21
-4.1830994881889767
0
LINE
8
BLACK
6
CONTINUOUS
10
7.0324672047244094
20
-4.1830994881889767
11
7.0314027559055114
21
-4.1835403937007873
0
LINE
8
BLACK
6
CONTINUOUS
10
7.0314027559055114
20
-4.1835403937007873
11
7.0302507086614172
21
-4.1835403937007873
0
LINE
8
BLACK
6
CONTINUOUS
10
7.0302507086614172
20
-4.1835403937007873
11
7.0291862598425192
21
-4.1830994881889767
0
LINE
8
BLACK
6
CONTINUOUS
10
7.0291862598425192
20
-4.1830994881889767
11
7.0283716141732278
21
-4.1822848425196852
0
LINE
8
BLACK
6
CONTINUOUS
10
7.0283716141732278
20
-4.1822848425196852
11
7.0279307086614171
21
-4.1812203937007872
0
LINE
8
BLACK
6
CONTINUOUS
10
7.0279307086614171
20
-4.1812203937007872
11
7.0279307086614171
21
-4.180068346456693
0
LINE
8
BLACK
6
CONTINUOUS
10
7.0279307086614171
20
-4.180068346456693
11
7.0283716141732278
21
-4.179003897637795
0
LINE
8
BLACK
6
CONTINUOUS
10
7.0283716141732278
20
-4.179003897637795
11
7.0287388188976374
21
-4.1785564566929132
0
LINE
8
BLACK
6
CONTINUOUS
10
7.0287388188976374
20
-4.1785564566929132
11
7.0311197637795271
21
-4.1761755118110235
0
LINE
8
BLACK
6
CONTINUOUS
10
7.0311197637795271
20
-4.1761755118110235
11
7.0313461023622041
21
-4.1759897244094484
0
LINE
8
BLACK
6
CONTINUOUS
10
7.0313461023622041
20
-4.1759897244094484
11
7.0313972834645666
21
-4.1759307480314956
0
LINE
8
BLACK
6
CONTINUOUS
10
7.0313972834645666
20
-4.1759307480314956
11
7.0314862204724404
21
-4.175874763779527
0
LINE
8
BLACK
6
CONTINUOUS
10
7.0314862204724404
20
-4.175874763779527
11
7.0315672047244089
21
-4.1758083070866139
0
LINE
8
BLACK
6
CONTINUOUS
10
7.0315672047244089
20
-4.1758083070866139
11
7.0316391338582678
21
-4.1757784645669291
0
LINE
8
BLACK
6
CONTINUOUS
10
7.0316391338582678
20
-4.1757784645669291
11
7.0318871653543304
21
-4.1756224015748034
0
LINE
8
BLACK
6
CONTINUOUS
10
7.0318871653543304
20
-4.1756224015748034
11
7.0366490944881885
21
-4.1732414566929137
0
LINE
8
BLACK
6
CONTINUOUS
10
7.0366490944881885
20
-4.1732414566929137
11
7.0371897244094486
21
-4.1730345669291333
0
LINE
8
BLACK
6
CONTINUOUS
10
7.0371897244094486
20
-4.1730345669291333
11
7.0372955118110232
21
-4.1730270472440942
0
LINE
8
BLACK
6
CONTINUOUS
10
7.0372955118110232
20
-4.1730270472440942
11
7.0373935433070862
21
-4.1729864566929136
0
LINE
8
BLACK
6
CONTINUOUS
10
7.0373935433070862
20
-4.1729864566929136
11
7.0379696062992121
21
-4.1729297244094488
0
LINE
8
BLACK
6
CONTINUOUS
10
7.0379696062992121
20
-4.1729297244094488
11
7.0498743700787401
21
-4.1729297244094488
0
LINE
8
BLACK
6
CONTINUOUS
10
7.0498743700787401
20
-4.1729297244094488
11
7.0504504330708659
21
-4.1729864566929136
0
LINE
8
BLACK
6
CONTINUOUS
10
7.0375644881889761
20
-4.1157100393700787
11
7.0488674015748032
21
-4.1179583070866137
0
LINE
8
BLACK
6
CONTINUOUS
10
7.0488674015748032
20
-4.1179583070866137
11
7.059780157480315
21
-4.1216626771653546
0
LINE
8
BLACK
6
CONTINUOUS
10
7.059780157480315
20
-4.1216626771653546
11
7.0701160236220471
21
-4.1267597637795275
0
LINE
8
BLACK
6
CONTINUOUS
10
7.0701160236220471
20
-4.1267597637795275
11
7.0796981496062994
21
-4.1331623622047244
0
LINE
8
BLACK
6
CONTINUOUS
10
7.0796981496062994
20
-4.1331623622047244
11
7.0883625984251966
21
-4.1407608661417319
0
LINE
8
BLACK
6
CONTINUOUS
10
7.0883625984251966
20
-4.1407608661417319
11
7.0959611023622049
21
-4.1494253149606299
0
LINE
8
BLACK
6
CONTINUOUS
10
7.0959611023622049
20
-4.1494253149606299
11
7.102363700787401
21
-4.1590074803149601
0
LINE
8
BLACK
6
CONTINUOUS
10
7.102363700787401
20
-4.1590074803149601
11
7.1074607874015747
21
-4.1693433070866144
0
LINE
8
BLACK
6
CONTINUOUS
10
7.1074607874015747
20
-4.1693433070866144
11
7.1111651574803147
21
-4.1802560629921262
0
LINE
8
BLACK
6
CONTINUOUS
10
7.1111651574803147
20
-4.1802560629921262
11
7.1134134251968506
21
-4.1915589763779524
0
LINE
8
BLACK
6
CONTINUOUS
10
7.1134134251968506
20
-4.1915589763779524
11
7.1141671653543304
21
-4.2030586220472443
0
LINE
8
BLACK
6
CONTINUOUS
10
7.1141671653543304
20
-4.2030586220472443
11
7.1134134251968506
21
-4.2145582677165354
0
LINE
8
BLACK
6
CONTINUOUS
10
7.1134134251968506
20
-4.2145582677165354
11
7.1111651574803147
21
-4.2258611811023625
0
LINE
8
BLACK
6
CONTINUOUS
10
7.1111651574803147
20
-4.2258611811023625
11
7.1074607874015747
21
-4.2367739370078743
0
LINE
8
BLACK
6
CONTINUOUS
10
7.1074607874015747
20
-4.2367739370078743
11
7.102363700787401
21
-4.2471098031496064
0
LINE
8
BLACK
6
CONTINUOUS
10
7.102363700787401
20
-4.2471098031496064
11
7.0959611023622049
21
-4.2566919291338579
0
LINE
8
BLACK
6
CONTINUOUS
10
7.0959611023622049
20
-4.2566919291338579
11
7.0883625984251966
21
-4.2653563779527559
0
LINE
8
BLACK
6
CONTINUOUS
10
7.0883625984251966
20
-4.2653563779527559
11
7.0796981496062994
21
-4.2729548818897634
0
LINE
8
BLACK
6
CONTINUOUS
10
7.0796981496062994
20
-4.2729548818897634
11
7.0701160236220471
21
-4.2793574803149603
0
LINE
8
BLACK
6
CONTINUOUS
10
7.0701160236220471
20
-4.2793574803149603
11
7.059780157480315
21
-4.2844545669291341
0
LINE
8
BLACK
6
CONTINUOUS
10
7.059780157480315
20
-4.2844545669291341
11
7.0488674015748032
21
-4.2881589370078741
0
LINE
8
BLACK
6
CONTINUOUS
10
7.0488674015748032
20
-4.2881589370078741
11
7.0375644881889761
21
-4.2904072047244091
0
LINE
8
BLACK
6
CONTINUOUS
10
7.0375644881889761
20
-4.2904072047244091
11
7.026064842519685
21
-4.2911609448818897
0
LINE
8
BLACK
6
CONTINUOUS
10
7.026064842519685
20
-4.2911609448818897
11
7.0145651968503939
21
-4.2904072047244091
0
LINE
8
BLACK
6
CONTINUOUS
10
7.0145651968503939
20
-4.2904072047244091
11
7.0032622834645668
21
-4.2881589370078741
0
LINE
8
BLACK
6
CONTINUOUS
10
7.0032622834645668
20
-4.2881589370078741
11
6.992349527559055
21
-4.2844545669291341
0
LINE
8
BLACK
6
CONTINUOUS
10
6.992349527559055
20
-4.2844545669291341
11
6.9820136614173229
21
-4.2793574803149603
0
LINE
8
BLACK
6
CONTINUOUS
10
6.9820136614173229
20
-4.2793574803149603
11
6.9724315354330706
21
-4.2729548818897634
0
LINE
8
BLACK
6
CONTINUOUS
10
6.9724315354330706
20
-4.2729548818897634
11
6.9637670866141734
21
-4.2653563779527559
0
LINE
8
BLACK
6
CONTINUOUS
10
6.9637670866141734
20
-4.2653563779527559
11
6.9561685826771651
21
-4.2566919291338579
0
LINE
8
BLACK
6
CONTINUOUS
10
6.9561685826771651
20
-4.2566919291338579
11
6.9497659842519681
21
-4.2471098031496064
0
LINE
8
BLACK
6
CONTINUOUS
10
6.9497659842519681
20
-4.2471098031496064
11
6.9446688976377953
21
-4.2367739370078743
0
LINE
8
BLACK
6
CONTINUOUS
10
6.9446688976377953
20
-4.2367739370078743
11
6.9409645275590552
21
-4.2258611811023625
0
LINE
8
BLACK
6
CONTINUOUS
10
6.9409645275590552
20
-4.2258611811023625
11
6.9387162598425194
21
-4.2145582677165354
0
LINE
8
BLACK
6
CONTINUOUS
10
6.9387162598425194
20
-4.2145582677165354
11
6.9379625196850396
21
-4.2030586220472443
0
LINE
8
BLACK
6
CONTINUOUS
10
6.9379625196850396
20
-4.2030586220472443
11
6.9387162598425194
21
-4.1915589763779524
0
LINE
8
BLACK
6
CONTINUOUS
10
6.9387162598425194
20
-4.1915589763779524
11
6.9409645275590552
21
-4.1802560629921262
0
LINE
8
BLACK
6
CONTINUOUS
10
6.9409645275590552
20
-4.1802560629921262
11
6.9446688976377953
21
-4.1693433070866144
0
LINE
8
BLACK
6
CONTINUOUS
10
6.9446688976377953
20
-4.1693433070866144
11
6.9497659842519681
21
-4.1590074803149601
0
LINE
8
BLACK
6
CONTINUOUS
10
6.9497659842519681
20
-4.1590074803149601
11
6.9561685826771651
21
-4.1494253149606299
0
LINE
8
BLACK
6
CONTINUOUS
10
6.9561685826771651
20
-4.1494253149606299
11
6.9637670866141734
21
-4.1407608661417319
0
LINE
8
BLACK
6
CONTINUOUS
10
6.9637670866141734
20
-4.1407608661417319
11
6.9724315354330706
21
-4.1331623622047244
0
LINE
8
BLACK
6
CONTINUOUS
10
6.9724315354330706
20
-4.1331623622047244
11
6.9820137007874017
21
-4.1267597637795275
0
LINE
8
BLACK
6
CONTINUOUS
10
6.9820137007874017
20
-4.1267597637795275
11
6.992349527559055
21
-4.1216626771653546
0
LINE
8
BLACK
6
CONTINUOUS
10
6.992349527559055
20
-4.1216626771653546
11
7.0032622834645668
21
-4.1179583070866137
0
LINE
8
BLACK
6
CONTINUOUS
10
7.0032622834645668
20
-4.1179583070866137
11
7.0145651968503939
21
-4.1157100393700787
0
LINE
8
BLACK
6
CONTINUOUS
10
7.0145651968503939
20
-4.1157100393700787
11
7.026064842519685
21
-4.1149562992125981
0
LINE
8
BLACK
6
CONTINUOUS
10
7.026064842519685
20
-4.1149562992125981
11
7.0375644881889761
21
-4.1157100393700787
0
LINE
8
BLACK
6
CONTINUOUS
10
6.9444433070866136
20
-4.2142772440944878
11
6.9467311417322835
21
-4.2252868897637796
0
LINE
8
BLACK
6
CONTINUOUS
10
6.9467311417322835
20
-4.2252868897637796
11
6.9504968110236218
21
-4.2358824409448816
0
LINE
8
BLACK
6
CONTINUOUS
10
6.9504968110236218
20
-4.2358824409448816
11
6.9556701574803146
21
-4.2458665748031494
0
LINE
8
BLACK
6
CONTINUOUS
10
6.9556701574803146
20
-4.2458665748031494
11
6.9621548425196851
21
-4.2550532677165354
0
LINE
8
BLACK
6
CONTINUOUS
10
6.9621548425196851
20
-4.2550532677165354
11
6.9698300393700787
21
-4.2632713779527558
0
LINE
8
BLACK
6
CONTINUOUS
10
6.9698300393700787
20
-4.2632713779527558
11
6.9785527952755908
21
-4.270367874015748
0
LINE
8
BLACK
6
CONTINUOUS
10
6.9785527952755908
20
-4.270367874015748
11
6.988160590551181
21
-4.2762105118110236
0
LINE
8
BLACK
6
CONTINUOUS
10
6.988160590551181
20
-4.2762105118110236
11
6.9984744881889762
21
-4.2806904724409449
0
LINE
8
BLACK
6
CONTINUOUS
10
6.9984744881889762
20
-4.2806904724409449
11
7.0093023228346452
21
-4.2837242913385829
0
LINE
8
BLACK
6
CONTINUOUS
10
7.0093023228346452
20
-4.2837242913385829
11
7.0204424409448816
21
-4.2852554330708656
0
LINE
8
BLACK
6
CONTINUOUS
10
7.0204424409448816
20
-4.2852554330708656
11
7.0316872440944884
21
-4.2852554330708656
0
LINE
8
BLACK
6
CONTINUOUS
10
7.0316872440944884
20
-4.2852554330708656
11
7.0428273622047239
21
-4.2837242913385829
0
LINE
8
BLACK
6
CONTINUOUS
10
7.0428273622047239
20
-4.2837242913385829
11
7.0536551968503938
21
-4.2806904724409449
0
LINE
8
BLACK
6
CONTINUOUS
10
7.0536551968503938
20
-4.2806904724409449
11
7.063969094488189
21
-4.2762105118110236
0
LINE
8
BLACK
6
CONTINUOUS
10
7.063969094488189
20
-4.2762105118110236
11
7.0735768897637792
21
-4.270367874015748
0
LINE
8
BLACK
6
CONTINUOUS
10
7.0735768897637792
20
-4.270367874015748
11
7.0822996456692913
21
-4.2632713779527558
0
LINE
8
BLACK
6
CONTINUOUS
10
7.0822996456692913
20
-4.2632713779527558
11
7.0899748425196849
21
-4.2550532677165354
0
LINE
8
BLACK
6
CONTINUOUS
10
7.0899748425196849
20
-4.2550532677165354
11
7.0964595275590545
21
-4.2458665748031494
0
LINE
8
BLACK
6
CONTINUOUS
10
7.0964595275590545
20
-4.2458665748031494
11
7.1016328740157482
21
-4.2358824409448816
0
LINE
8
BLACK
6
CONTINUOUS
10
7.1016328740157482
20
-4.2358824409448816
11
7.1053985433070865
21
-4.2252868897637796
0
LINE
8
BLACK
6
CONTINUOUS
10
7.1053985433070865
20
-4.2252868897637796
11
7.1076863779527555
21
-4.2142772440944878
0
LINE
8
BLACK
6
CONTINUOUS
10
7.1076863779527555
20
-4.2142772440944878
11
7.1084537401574801
21
-4.2030586220472443
0
LINE
8
BLACK
6
CONTINUOUS
10
7.1084537401574801
20
-4.2030586220472443
11
7.1076863779527555
21
-4.19184
0
LINE
8
BLACK
6
CONTINUOUS
10
7.1076863779527555
20
-4.19184
11
7.1053985433070865
21
-4.1808303543307082
0
LINE
8
BLACK
6
CONTINUOUS
10
7.1053985433070865
20
-4.1808303543307082
11
7.1016328740157482
21
-4.1702348031496062
0
LINE
8
BLACK
6
CONTINUOUS
10
7.1016328740157482
20
-4.1702348031496062
11
7.0964595275590545
21
-4.1602506692913384
0
LINE
8
BLACK
6
CONTINUOUS
10
7.0964595275590545
20
-4.1602506692913384
11
7.0899748425196849
21
-4.1510639763779524
0
LINE
8
BLACK
6
CONTINUOUS
10
7.0899748425196849
20
-4.1510639763779524
11
7.0822996456692913
21
-4.142845866141732
0
LINE
8
BLACK
6
CONTINUOUS
10
7.0822996456692913
20
-4.142845866141732
11
7.0735768897637792
21
-4.1357493700787398
0
LINE
8
BLACK
6
CONTINUOUS
10
7.0735768897637792
20
-4.1357493700787398
11
7.063969094488189
21
-4.1299067322834642
0
LINE
8
BLACK
6
CONTINUOUS
10
7.063969094488189
20
-4.1299067322834642
11
7.0536551968503938
21
-4.1254267716535429
0
LINE
8
BLACK
6
CONTINUOUS
10
7.0536551968503938
20
-4.1254267716535429
11
7.0428273622047239
21
-4.1223929527559058
0
LINE
8
BLACK
6
CONTINUOUS
10
7.0428273622047239
20
-4.1223929527559058
11
7.0316872440944884
21
-4.1208618110236221
0
LINE
8
BLACK
6
CONTINUOUS
10
7.0316872440944884
20
-4.1208618110236221
11
7.0204424409448816
21
-4.1208618110236221
0
LINE
8
BLACK
6
CONTINUOUS
10
7.0204424409448816
20
-4.1208618110236221
11
7.0093023228346452
21
-4.1223929527559058
0
LINE
8
BLACK
6
CONTINUOUS
10
7.0093023228346452
20
-4.1223929527559058
11
6.9984744881889762
21
-4.1254267716535429
0
LINE
8
BLACK
6
CONTINUOUS
10
6.9984744881889762
20
-4.1254267716535429
11
6.988160590551181
21
-4.1299067322834642
0
LINE
8
BLACK
6
CONTINUOUS
10
6.988160590551181
20
-4.1299067322834642
11
6.9785527952755908
21
-4.1357493700787398
0
LINE
8
BLACK
6
CONTINUOUS
10
6.9785527952755908
20
-4.1357493700787398
11
6.9698300393700787
21
-4.142845866141732
0
LINE
8
BLACK
6
CONTINUOUS
10
6.9698300393700787
20
-4.142845866141732
11
6.9621548425196851
21
-4.1510639763779524
0
LINE
8
BLACK
6
CONTINUOUS
10
6.9621548425196851
20
-4.1510639763779524
11
6.9556701574803146
21
-4.1602506692913384
0
LINE
8
BLACK
6
CONTINUOUS
10
6.9556701574803146
20
-4.1602506692913384
11
6.9504968110236218
21
-4.1702348031496062
0
LINE
8
BLACK
6
CONTINUOUS
10
6.9504968110236218
20
-4.1702348031496062
11
6.9467311417322835
21
-4.1808303543307082
0
LINE
8
BLACK
6
CONTINUOUS
10
6.9467311417322835
20
-4.1808303543307082
11
6.9444433070866136
21
-4.19184
0
LINE
8
BLACK
6
CONTINUOUS
10
6.9444433070866136
20
-4.19184
11
6.9436759448818899
21
-4.2030586220472443
0
LINE
8
BLACK
6
CONTINUOUS
10
6.9436759448818899
20
-4.2030586220472443
11
6.9444433070866136
21
-4.2142772440944878
0
LINE
8
BLACK
6
CONTINUOUS
10
7.1644361811023618
20
-4.0623673228346453
11
7.165500590551181
21
-4.0628082283464568
0
LINE
8
BLACK
6
CONTINUOUS
10
7.165500590551181
20
-4.0628082283464568
11
7.1663152362204725
21
-4.0636228740157483
0
LINE
8
BLACK
6
CONTINUOUS
10
7.1663152362204725
20
-4.0636228740157483
11
7.1667561417322831
21
-4.0646872834645666
0
LINE
8
BLACK
6
CONTINUOUS
10
7.1667561417322831
20
-4.0646872834645666
11
7.166812874015748
21
-4.0652633464566925
0
LINE
8
BLACK
6
CONTINUOUS
10
7.166812874015748
20
-4.0652633464566925
11
7.166812874015748
21
-4.3408538976377953
0
LINE
8
BLACK
6
CONTINUOUS
10
7.166812874015748
20
-4.3408538976377953
11
7.1667561417322831
21
-4.3414299606299211
0
LINE
8
BLACK
6
CONTINUOUS
10
7.1667561417322831
20
-4.3414299606299211
11
7.1663152362204725
21
-4.3424943700787404
0
LINE
8
BLACK
6
CONTINUOUS
10
7.1663152362204725
20
-4.3424943700787404
11
7.165500590551181
21
-4.343309015748031
0
LINE
8
BLACK
6
CONTINUOUS
10
7.165500590551181
20
-4.343309015748031
11
7.1644361811023618
21
-4.3437499212598425
0
LINE
8
BLACK
6
CONTINUOUS
10
7.1644361811023618
20
-4.3437499212598425
11
7.1638601181102359
21
-4.3438066535433073
0
LINE
8
BLACK
6
CONTINUOUS
10
7.1638601181102359
20
-4.3438066535433073
11
6.8882695669291341
21
-4.3438066535433073
0
LINE
8
BLACK
6
CONTINUOUS
10
6.8882695669291341
20
-4.3438066535433073
11
6.8876935039370073
21
-4.3437499212598425
0
LINE
8
BLACK
6
CONTINUOUS
10
6.8876935039370073
20
-4.3437499212598425
11
6.8866290944881889
21
-4.343309015748031
0
LINE
8
BLACK
6
CONTINUOUS
10
6.8866290944881889
20
-4.343309015748031
11
6.8858144488188975
21
-4.3424943700787404
0
LINE
8
BLACK
6
CONTINUOUS
10
6.8858144488188975
20
-4.3424943700787404
11
6.8853735433070868
21
-4.3414299606299211
0
LINE
8
BLACK
6
CONTINUOUS
10
6.8853735433070868
20
-4.3414299606299211
11
6.885316811023622
21
-4.3408538976377953
0
LINE
8
BLACK
6
CONTINUOUS
10
6.885316811023622
20
-4.3408538976377953
11
6.885316811023622
21
-4.0652633464566925
0
LINE
8
BLACK
6
CONTINUOUS
10
6.885316811023622
20
-4.0652633464566925
11
6.8853735433070868
21
-4.0646872834645666
0
LINE
8
BLACK
6
CONTINUOUS
10
6.8853735433070868
20
-4.0646872834645666
11
6.8858144488188975
21
-4.0636228740157483
0
LINE
8
BLACK
6
CONTINUOUS
10
6.8858144488188975
20
-4.0636228740157483
11
6.8866290944881889
21
-4.0628082283464568
0
LINE
8
BLACK
6
CONTINUOUS
10
6.8866290944881889
20
-4.0628082283464568
11
6.8876935039370073
21
-4.0623673228346453
0
LINE
8
BLACK
6
CONTINUOUS
10
6.8876935039370073
20
-4.0623673228346453
11
6.8882695669291341
21
-4.0623105905511814
0
LINE
8
BLACK
6
CONTINUOUS
10
6.8882695669291341
20
-4.0623105905511814
11
7.1638601181102359
21
-4.0623105905511814
0
LINE
8
BLACK
6
CONTINUOUS
10
7.1638601181102359
20
-4.0623105905511814
11
7.1644361811023618
21
-4.0623673228346453
0
LINE
8
BLACK
6
CONTINUOUS
10
6.8912223228346452
20
-4.0682161023622045
11
6.8912223228346452
21
-4.3379011417322833
0
LINE
8
BLACK
6
CONTINUOUS
10
6.8912223228346452
20
-4.3379011417322833
11
7.1609073622047239
21
-4.3379011417322833
0
LINE
8
BLACK
6
CONTINUOUS
10
7.1609073622047239
20
-4.3379011417322833
11
7.1609073622047239
21
-4.0682161023622045
0
LINE
8
BLACK
6
CONTINUOUS
10
7.1609073622047239
20
-4.0682161023622045
11
6.8912223228346452
21
-4.0682161023622045
0
LINE
8
BLACK
6
CONTINUOUS
10
5.0766409055118107
20
-3.6251625984251969
11
5.0777053149606299
21
-3.6256035039370076
0
LINE
8
BLACK
6
CONTINUOUS
10
5.0777053149606299
20
-3.6256035039370076
11
5.0785199606299214
21
-3.626418149606299
0
LINE
8
BLACK
6
CONTINUOUS
10
5.0785199606299214
20
-3.626418149606299
11
5.078960866141732
21
-3.6274825590551179
0
LINE
8
BLACK
6
CONTINUOUS
10
5.078960866141732
20
-3.6274825590551179
11
5.0790175984251968
21
-3.6280586220472442
0
LINE
8
BLACK
6
CONTINUOUS
10
5.0790175984251968
20
-3.6280586220472442
11
5.0790175984251968
21
-3.928058622047244
0
LINE
8
BLACK
6
CONTINUOUS
10
5.0790175984251968
20
-3.928058622047244
11
5.078960866141732
21
-3.9286346850393699
0
LINE
8
BLACK
6
CONTINUOUS
10
5.078960866141732
20
-3.9286346850393699
11
5.0785199606299214
21
-3.9296990944881891
0
LINE
8
BLACK
6
CONTINUOUS
10
5.0785199606299214
20
-3.9296990944881891
11
5.0777053149606299
21
-3.9305137401574801
0
LINE
8
BLACK
6
CONTINUOUS
10
5.0777053149606299
20
-3.9305137401574801
11
5.0766409055118107
21
-3.9309546456692912
0
LINE
8
BLACK
6
CONTINUOUS
10
5.0766409055118107
20
-3.9309546456692912
11
5.0760648425196848
21
-3.931011377952756
0
LINE
8
BLACK
6
CONTINUOUS
10
5.0760648425196848
20
-3.931011377952756
11
4.8760648425196846
21
-3.931011377952756
0
LINE
8
BLACK
6
CONTINUOUS
10
4.8760648425196846
20
-3.931011377952756
11
4.8754887795275588
21
-3.9309546456692912
0
LINE
8
BLACK
6
CONTINUOUS
10
4.8754887795275588
20
-3.9309546456692912
11
4.8744243700787404
21
-3.9305137401574801
0
LINE
8
BLACK
6
CONTINUOUS
10
4.8744243700787404
20
-3.9305137401574801
11
4.873609724409449
21
-3.9296990944881891
0
LINE
8
BLACK
6
CONTINUOUS
10
4.873609724409449
20
-3.9296990944881891
11
4.8731688188976374
21
-3.9286346850393699
0
LINE
8
BLACK
6
CONTINUOUS
10
4.8731688188976374
20
-3.9286346850393699
11
4.8731120866141735
21
-3.928058622047244
0
LINE
8
BLACK
6
CONTINUOUS
10
4.8731120866141735
20
-3.928058622047244
11
4.8731120866141735
21
-3.6280586220472442
0
LINE
8
BLACK
6
CONTINUOUS
10
4.8731120866141735
20
-3.6280586220472442
11
4.8731688188976374
21
-3.6274825590551179
0
LINE
8
BLACK
6
CONTINUOUS
10
4.8731688188976374
20
-3.6274825590551179
11
4.873609724409449
21
-3.626418149606299
0
LINE
8
BLACK
6
CONTINUOUS
10
4.873609724409449
20
-3.626418149606299
11
4.8744243700787404
21
-3.6256035039370076
0
LINE
8
BLACK
6
CONTINUOUS
10
4.8744243700787404
20
-3.6256035039370076
11
4.8754887795275588
21
-3.6251625984251969
0
LINE
8
BLACK
6
CONTINUOUS
10
4.8754887795275588
20
-3.6251625984251969
11
4.8760648425196846
21
-3.6251058661417321
0
LINE
8
BLACK
6
CONTINUOUS
10
4.8760648425196846
20
-3.6251058661417321
11
5.0760648425196848
21
-3.6251058661417321
0
LINE
8
BLACK
6
CONTINUOUS
10
5.0760648425196848
20
-3.6251058661417321
11
5.0766409055118107
21
-3.6251625984251969
0
LINE
8
BLACK
6
CONTINUOUS
10
4.8790175984251967
20
-3.6310113779527557
11
4.8790175984251967
21
-3.9251058661417324
0
LINE
8
BLACK
6
CONTINUOUS
10
4.8790175984251967
20
-3.9251058661417324
11
5.0731120866141728
21
-3.9251058661417324
0
LINE
8
BLACK
6
CONTINUOUS
10
5.0731120866141728
20
-3.9251058661417324
11
5.0731120866141728
21
-3.6310113779527557
0
LINE
8
BLACK
6
CONTINUOUS
10
5.0731120866141728
20
-3.6310113779527557
11
4.8790175984251967
21
-3.6310113779527557
0
LINE
8
BLACK
6
CONTINUOUS
10
7.0110386614173228
20
-3.7484273622047244
11
7.0118533070866143
21
-3.7492420078740158
0
LINE
8
BLACK
6
CONTINUOUS
10
7.0118533070866143
20
-3.7492420078740158
11
7.0122942125984249
21
-3.7503064173228347
0
LINE
8
BLACK
6
CONTINUOUS
10
7.0122942125984249
20
-3.7503064173228347
11
7.0123509448818897
21
-3.7508824803149605
0
LINE
8
BLACK
6
CONTINUOUS
10
7.0123509448818897
20
-3.7508824803149605
11
7.0123509448818897
21
-3.7865967716535431
0
LINE
8
BLACK
6
CONTINUOUS
10
7.0123509448818897
20
-3.7865967716535431
11
7.0123222047244091
21
-3.7868883464566929
0
LINE
8
BLACK
6
CONTINUOUS
10
7.0123222047244091
20
-3.7868883464566929
11
7.0123277559055115
21
-3.7869661023622045
0
LINE
8
BLACK
6
CONTINUOUS
10
7.0123277559055115
20
-3.7869661023622045
11
7.0123044881889758
21
-3.7870683464566928
0
LINE
8
BLACK
6
CONTINUOUS
10
7.0123044881889758
20
-3.7870683464566928
11
7.0122942125984249
21
-3.787172834645669
0
LINE
8
BLACK
6
CONTINUOUS
10
7.0122942125984249
20
-3.787172834645669
11
7.0122643307086614
21
-3.7872448818897637
0
LINE
8
BLACK
6
CONTINUOUS
10
7.0122643307086614
20
-3.7872448818897637
11
7.0121994094488187
21
-3.7875305511811024
0
LINE
8
BLACK
6
CONTINUOUS
10
7.0121994094488187
20
-3.7875305511811024
11
7.0098184251968503
21
-3.7946733464566926
0
LINE
8
BLACK
6
CONTINUOUS
10
7.0098184251968503
20
-3.7946733464566926
11
7.0095824409448815
21
-3.7952019291338583
0
LINE
8
BLACK
6
CONTINUOUS
10
7.0095824409448815
20
-3.7952019291338583
11
7.0095129133858265
21
-3.7952820472440942
0
LINE
8
BLACK
6
CONTINUOUS
10
7.0095129133858265
20
-3.7952820472440942
11
7.0094723622047246
21
-3.7953800393700785
0
LINE
8
BLACK
6
CONTINUOUS
10
7.0094723622047246
20
-3.7953800393700785
11
7.0091051181102362
21
-3.7958275196850391
0
LINE
8
BLACK
6
CONTINUOUS
10
7.0091051181102362
20
-3.7958275196850391
11
7.0043432283464568
21
-3.8005894488188976
0
LINE
8
BLACK
6
CONTINUOUS
10
7.0043432283464568
20
-3.8005894488188976
11
7.003895787401575
21
-3.8009566535433068
0
LINE
8
BLACK
6
CONTINUOUS
10
7.003895787401575
20
-3.8009566535433068
11
7.0037977952755908
21
-3.8009972047244092
0
LINE
8
BLACK
6
CONTINUOUS
10
7.0037977952755908
20
-3.8009972047244092
11
7.0037176377952752
21
-3.8010667716535433
0
LINE
8
BLACK
6
CONTINUOUS
10
7.0037176377952752
20
-3.8010667716535433
11
7.00318905511811
21
-3.8013027559055117
0
LINE
8
BLACK
6
CONTINUOUS
10
7.00318905511811
20
-3.8013027559055117
11
6.9960461811023622
21
-3.8036837007874014
0
LINE
8
BLACK
6
CONTINUOUS
10
6.9960461811023622
20
-3.8036837007874014
11
6.995760590551181
21
-3.8037486220472441
0
LINE
8
BLACK
6
CONTINUOUS
10
6.995760590551181
20
-3.8037486220472441
11
6.995688503937008
21
-3.803778503937008
0
LINE
8
BLACK
6
CONTINUOUS
10
6.995688503937008
20
-3.803778503937008
11
6.9955839763779526
21
-3.8037887795275589
0
LINE
8
BLACK
6
CONTINUOUS
10
6.9955839763779526
20
-3.8037887795275589
11
6.9954817322834648
21
-3.8038120472440946
0
LINE
8
BLACK
6
CONTINUOUS
10
6.9954817322834648
20
-3.8038120472440946
11
6.9954039763779523
21
-3.8038064960629923
0
LINE
8
BLACK
6
CONTINUOUS
10
6.9954039763779523
20
-3.8038064960629923
11
6.9951124409448822
21
-3.8038352362204724
0
LINE
8
BLACK
6
CONTINUOUS
10
6.9951124409448822
20
-3.8038352362204724
11
6.9903505511811019
21
-3.8038352362204724
0
LINE
8
BLACK
6
CONTINUOUS
10
6.9903505511811019
20
-3.8038352362204724
11
6.9897744881889761
21
-3.803778503937008
0
LINE
8
BLACK
6
CONTINUOUS
10
6.9897744881889761
20
-3.803778503937008
11
6.9887100787401577
21
-3.8033375984251969
0
LINE
8
BLACK
6
CONTINUOUS
10
6.9887100787401577
20
-3.8033375984251969
11
6.9878954330708662
21
-3.8025229527559055
0
LINE
8
BLACK
6
CONTINUOUS
10
6.9878954330708662
20
-3.8025229527559055
11
6.9874545275590547
21
-3.8014585433070867
0
LINE
8
BLACK
6
CONTINUOUS
10
6.9874545275590547
20
-3.8014585433070867
11
6.9874545275590547
21
-3.8003064173228345
0
LINE
8
BLACK
6
CONTINUOUS
10
6.9874545275590547
20
-3.8003064173228345
11
6.9878954330708662
21
-3.7992420078740157
0
LINE
8
BLACK
6
CONTINUOUS
10
6.9878954330708662
20
-3.7992420078740157
11
6.9887100787401577
21
-3.7984273622047242
0
LINE
8
BLACK
6
CONTINUOUS
10
6.9887100787401577
20
-3.7984273622047242
11
6.9897744881889761
21
-3.7979864566929131
0
LINE
8
BLACK
6
CONTINUOUS
10
6.9897744881889761
20
-3.7979864566929131
11
6.9903505511811019
21
-3.7979297244094488
0
LINE
8
BLACK
6
CONTINUOUS
10
6.9903505511811019
20
-3.7979297244094488
11
6.9946333070866142
21
-3.7979297244094488
0
LINE
8
BLACK
6
CONTINUOUS
10
6.9946333070866142
20
-3.7979297244094488
11
7.0006602362204724
21
-3.795920748031496
0
LINE
8
BLACK
6
CONTINUOUS
10
7.0006602362204724
20
-3.795920748031496
11
7.0044364173228342
21
-3.7921445669291338
0
LINE
8
BLACK
6
CONTINUOUS
10
7.0044364173228342
20
-3.7921445669291338
11
7.0064454330708656
21
-3.7861175984251969
0
LINE
8
BLACK
6
CONTINUOUS
10
7.0064454330708656
20
-3.7861175984251969
11
7.0064454330708656
21
-3.7508824803149605
0
LINE
8
BLACK
6
CONTINUOUS
10
7.0064454330708656
20
-3.7508824803149605
11
7.0065021653543305
21
-3.7503064173228347
0
LINE
8
BLACK
6
CONTINUOUS
10
7.0065021653543305
20
-3.7503064173228347
11
7.006943070866142
21
-3.7492420078740158
0
LINE
8
BLACK
6
CONTINUOUS
10
7.006943070866142
20
-3.7492420078740158
11
7.0077577165354326
21
-3.7484273622047244
0
LINE
8
BLACK
6
CONTINUOUS
10
7.0077577165354326
20
-3.7484273622047244
11
7.0088221259842518
21
-3.7479864566929133
0
LINE
8
BLACK
6
CONTINUOUS
10
7.0088221259842518
20
-3.7479864566929133
11
7.0099742519685035
21
-3.7479864566929133
0
LINE
8
BLACK
6
CONTINUOUS
10
7.0099742519685035
20
-3.7479864566929133
11
7.0110386614173228
21
-3.7484273622047244
0
LINE
8
BLACK
6
CONTINUOUS
10
7.0597028346456687
20
-3.7479597244094487
11
7.05978031496063
21
-3.7479545669291339
0
LINE
8
BLACK
6
CONTINUOUS
10
7.05978031496063
20
-3.7479545669291339
11
7.0598336614173229
21
-3.7479725984251968
0
LINE
8
BLACK
6
CONTINUOUS
10
7.0598336614173229
20
-3.7479725984251968
11
7.0599742519685034
21
-3.7479864566929133
0
LINE
8
BLACK
6
CONTINUOUS
10
7.0599742519685034
20
-3.7479864566929133
11
7.0604174409448817
21
-3.7481700393700788
0
LINE
8
BLACK
6
CONTINUOUS
10
7.0604174409448817
20
-3.7481700393700788
11
7.0608716929133859
21
-3.7483236614173228
0
LINE
8
BLACK
6
CONTINUOUS
10
7.0608716929133859
20
-3.7483236614173228
11
7.060946653543307
21
-3.7483892125984251
0
LINE
8
BLACK
6
CONTINUOUS
10
7.060946653543307
20
-3.7483892125984251
11
7.0610386614173226
21
-3.7484273622047244
0
LINE
8
BLACK
6
CONTINUOUS
10
7.0610386614173226
20
-3.7484273622047244
11
7.0613776377952755
21
-3.7487663385826773
0
LINE
8
BLACK
6
CONTINUOUS
10
7.0613776377952755
20
-3.7487663385826773
11
7.061738779527559
21
-3.7490823228346457
0
LINE
8
BLACK
6
CONTINUOUS
10
7.061738779527559
20
-3.7490823228346457
11
7.0617829527559053
21
-3.7491716535433071
0
LINE
8
BLACK
6
CONTINUOUS
10
7.0617829527559053
20
-3.7491716535433071
11
7.0618533070866141
21
-3.7492420078740158
0
LINE
8
BLACK
6
CONTINUOUS
10
7.0618533070866141
20
-3.7492420078740158
11
7.0620367716535428
21
-3.7496849212598424
0
LINE
8
BLACK
6
CONTINUOUS
10
7.0620367716535428
20
-3.7496849212598424
11
7.0622494881889759
21
-3.7501150787401576
0
LINE
8
BLACK
6
CONTINUOUS
10
7.0622494881889759
20
-3.7501150787401576
11
7.0622561023622046
21
-3.750214409448819
0
LINE
8
BLACK
6
CONTINUOUS
10
7.0622561023622046
20
-3.750214409448819
11
7.0622942125984247
21
-3.7503064173228347
0
LINE
8
BLACK
6
CONTINUOUS
10
7.0622942125984247
20
-3.7503064173228347
11
7.0622942125984247
21
-3.7507861023622047
0
LINE
8
BLACK
6
CONTINUOUS
10
7.0622942125984247
20
-3.7507861023622047
11
7.0623261023622046
21
-3.7512646062992125
0
LINE
8
BLACK
6
CONTINUOUS
10
7.0623261023622046
20
-3.7512646062992125
11
7.0622942125984247
21
-3.7513588976377954
0
LINE
8
BLACK
6
CONTINUOUS
10
7.0622942125984247
20
-3.7513588976377954
11
7.0622942125984247
21
-3.7514585433070864
0
LINE
8
BLACK
6
CONTINUOUS
10
7.0622942125984247
20
-3.7514585433070864
11
7.062110590551181
21
-3.7519017322834647
0
LINE
8
BLACK
6
CONTINUOUS
10
7.062110590551181
20
-3.7519017322834647
11
7.0619570078740157
21
-3.7523559842519685
0
LINE
8
BLACK
6
CONTINUOUS
10
7.0619570078740157
20
-3.7523559842519685
11
7.0618748818897634
21
-3.7524708267716536
0
LINE
8
BLACK
6
CONTINUOUS
10
7.0618748818897634
20
-3.7524708267716536
11
7.0618533070866141
21
-3.7525229527559056
0
LINE
8
BLACK
6
CONTINUOUS
10
7.0618533070866141
20
-3.7525229527559056
11
7.0617983464566931
21
-3.7525778740157478
0
LINE
8
BLACK
6
CONTINUOUS
10
7.0617983464566931
20
-3.7525778740157478
11
7.0616203543307083
21
-3.7528268897637793
0
LINE
8
BLACK
6
CONTINUOUS
10
7.0616203543307083
20
-3.7528268897637793
11
7.0492387007874013
21
-3.7669773228346455
0
LINE
8
BLACK
6
CONTINUOUS
10
7.0492387007874013
20
-3.7669773228346455
11
7.0498743700787401
21
-3.7669773228346455
0
LINE
8
BLACK
6
CONTINUOUS
10
7.0498743700787401
20
-3.7669773228346455
11
7.0504504330708659
21
-3.7670340551181103
0
LINE
8
BLACK
6
CONTINUOUS
10
7.0504504330708659
20
-3.7670340551181103
11
7.0505484251968502
21
-3.7670746456692914
0
LINE
8
BLACK
6
CONTINUOUS
10
7.0505484251968502
20
-3.7670746456692914
11
7.0506542519685036
21
-3.7670821653543305
0
LINE
8
BLACK
6
CONTINUOUS
10
7.0506542519685036
20
-3.7670821653543305
11
7.0511948818897636
21
-3.76728905511811
0
LINE
8
BLACK
6
CONTINUOUS
10
7.0511948818897636
20
-3.76728905511811
11
7.055956771653543
21
-3.7696700000000001
0
LINE
8
BLACK
6
CONTINUOUS
10
7.055956771653543
20
-3.7696700000000001
11
7.0562046850393703
21
-3.7698260629921259
0
LINE
8
BLACK
6
CONTINUOUS
10
7.0562046850393703
20
-3.7698260629921259
11
7.0562767322834645
21
-3.769855905511811
0
LINE
8
BLACK
6
CONTINUOUS
10
7.0562767322834645
20
-3.769855905511811
11
7.0563577952755905
21
-3.7699224409448817
0
LINE
8
BLACK
6
CONTINUOUS
10
7.0563577952755905
20
-3.7699224409448817
11
7.056446614173228
21
-3.7699783464566927
0
LINE
8
BLACK
6
CONTINUOUS
10
7.056446614173228
20
-3.7699783464566927
11
7.0564976771653543
21
-3.770037244094488
0
LINE
8
BLACK
6
CONTINUOUS
10
7.0564976771653543
20
-3.770037244094488
11
7.0567241732283463
21
-3.7702231102362203
0
LINE
8
BLACK
6
CONTINUOUS
10
7.0567241732283463
20
-3.7702231102362203
11
7.0591051574803148
21
-3.7726041338582674
0
LINE
8
BLACK
6
CONTINUOUS
10
7.0591051574803148
20
-3.7726041338582674
11
7.0592909842519687
21
-3.7728305511811024
0
LINE
8
BLACK
6
CONTINUOUS
10
7.0592909842519687
20
-3.7728305511811024
11
7.0593498425196852
21
-3.7728816141732282
0
LINE
8
BLACK
6
CONTINUOUS
10
7.0593498425196852
20
-3.7728816141732282
11
7.0594056692913387
21
-3.77297031496063
0
LINE
8
BLACK
6
CONTINUOUS
10
7.0594056692913387
20
-3.77297031496063
11
7.0594723622047244
21
-3.7730515748031497
0
LINE
8
BLACK
6
CONTINUOUS
10
7.0594723622047244
20
-3.7730515748031497
11
7.0595022047244091
21
-3.7731236614173227
0
LINE
8
BLACK
6
CONTINUOUS
10
7.0595022047244091
20
-3.7731236614173227
11
7.0596582283464562
21
-3.773371496062992
0
LINE
8
BLACK
6
CONTINUOUS
10
7.0596582283464562
20
-3.773371496062992
11
7.0620392125984246
21
-3.7781333858267714
0
LINE
8
BLACK
6
CONTINUOUS
10
7.0620392125984246
20
-3.7781333858267714
11
7.062246102362205
21
-3.7786739763779527
0
LINE
8
BLACK
6
CONTINUOUS
10
7.062246102362205
20
-3.7786739763779527
11
7.0622536220472441
21
-3.7787798425196848
0
LINE
8
BLACK
6
CONTINUOUS
10
7.0622536220472441
20
-3.7787798425196848
11
7.0622942125984247
21
-3.7788778346456691
0
LINE
8
BLACK
6
CONTINUOUS
10
7.0622942125984247
20
-3.7788778346456691
11
7.0623509448818895
21
-3.7794538976377954
0
LINE
8
BLACK
6
CONTINUOUS
10
7.0623509448818895
20
-3.7794538976377954
11
7.0623509448818895
21
-3.7913586614173229
0
LINE
8
BLACK
6
CONTINUOUS
10
7.0623509448818895
20
-3.7913586614173229
11
7.0622942125984247
21
-3.7919347244094488
0
LINE
8
BLACK
6
CONTINUOUS
10
7.0622942125984247
20
-3.7919347244094488
11
7.0622536220472441
21
-3.7920326771653543
0
LINE
8
BLACK
6
CONTINUOUS
10
7.0622536220472441
20
-3.7920326771653543
11
7.062246102362205
21
-3.7921385826771652
0
LINE
8
BLACK
6
CONTINUOUS
10
7.062246102362205
20
-3.7921385826771652
11
7.0620392125984246
21
-3.7926791732283465
0
LINE
8
BLACK
6
CONTINUOUS
10
7.0620392125984246
20
-3.7926791732283465
11
7.0596582283464562
21
-3.7974410629921258
0
LINE
8
BLACK
6
CONTINUOUS
10
7.0596582283464562
20
-3.7974410629921258
11
7.0595022047244091
21
-3.7976888582677164
0
LINE
8
BLACK
6
CONTINUOUS
10
7.0595022047244091
20
-3.7976888582677164
11
7.0594723622047244
21
-3.7977609842519686
0
LINE
8
BLACK
6
CONTINUOUS
10
7.0594723622047244
20
-3.7977609842519686
11
7.0594056692913387
21
-3.7978422047244091
0
LINE
8
BLACK
6
CONTINUOUS
10
7.0594056692913387
20
-3.7978422047244091
11
7.0593498425196852
21
-3.7979309448818896
0
LINE
8
BLACK
6
CONTINUOUS
10
7.0593498425196852
20
-3.7979309448818896
11
7.0592909842519687
21
-3.7979819685039371
0
LINE
8
BLACK
6
CONTINUOUS
10
7.0592909842519687
20
-3.7979819685039371
11
7.0591051574803148
21
-3.7982084251968504
0
LINE
8
BLACK
6
CONTINUOUS
10
7.0591051574803148
20
-3.7982084251968504
11
7.0567241732283463
21
-3.8005894488188976
0
LINE
8
BLACK
6
CONTINUOUS
10
7.0567241732283463
20
-3.8005894488188976
11
7.0564976771653543
21
-3.8007752755905511
0
LINE
8
BLACK
6
CONTINUOUS
10
7.0564976771653543
20
-3.8007752755905511
11
7.056446614173228
21
-3.8008342125984251
0
LINE
8
BLACK
6
CONTINUOUS
10
7.056446614173228
20
-3.8008342125984251
11
7.0563577952755905
21
-3.8008900787401574
0
LINE
8
BLACK
6
CONTINUOUS
10
7.0563577952755905
20
-3.8008900787401574
11
7.0562767322834645
21
-3.8009566535433068
0
LINE
8
BLACK
6
CONTINUOUS
10
7.0562767322834645
20
-3.8009566535433068
11
7.0562046850393703
21
-3.8009864566929132
0
LINE
8
BLACK
6
CONTINUOUS
10
7.0562046850393703
20
-3.8009864566929132
11
7.055956771653543
21
-3.8011425590551182
0
LINE
8
BLACK
6
CONTINUOUS
10
7.055956771653543
20
-3.8011425590551182
11
7.0511948818897636
21
-3.8035235039370079
0
LINE
8
BLACK
6
CONTINUOUS
10
7.0511948818897636
20
-3.8035235039370079
11
7.0506542519685036
21
-3.8037303937007874
0
LINE
8
BLACK
6
CONTINUOUS
10
7.0506542519685036
20
-3.8037303937007874
11
7.0505484251968502
21
-3.8037378740157481
0
LINE
8
BLACK
6
CONTINUOUS
10
7.0505484251968502
20
-3.8037378740157481
11
7.0504504330708659
21
-3.803778503937008
0
LINE
8
BLACK
6
CONTINUOUS
10
7.0504504330708659
20
-3.803778503937008
11
7.0498743700787401
21
-3.8038352362204724
0
LINE
8
BLACK
6
CONTINUOUS
10
7.0498743700787401
20
-3.8038352362204724
11
7.0355886614173224
21
-3.8038352362204724
0
LINE
8
BLACK
6
CONTINUOUS
10
7.0355886614173224
20
-3.8038352362204724
11
7.0350125984251966
21
-3.803778503937008
0
LINE
8
BLACK
6
CONTINUOUS
10
7.0350125984251966
20
-3.803778503937008
11
7.0349145669291335
21
-3.8037378740157481
0
LINE
8
BLACK
6
CONTINUOUS
10
7.0349145669291335
20
-3.8037378740157481
11
7.0348087795275589
21
-3.8037303937007874
0
LINE
8
BLACK
6
CONTINUOUS
10
7.0348087795275589
20
-3.8037303937007874
11
7.0342681496062989
21
-3.8035235039370079
0
LINE
8
BLACK
6
CONTINUOUS
10
7.0342681496062989
20
-3.8035235039370079
11
7.0295062204724408
21
-3.8011425590551182
0
LINE
8
BLACK
6
CONTINUOUS
10
7.0295062204724408
20
-3.8011425590551182
11
7.0292581889763781
21
-3.8009864566929132
0
LINE
8
BLACK
6
CONTINUOUS
10
7.0292581889763781
20
-3.8009864566929132
11
7.0291862598425192
21
-3.8009566535433068
0
LINE
8
BLACK
6
CONTINUOUS
10
7.0291862598425192
20
-3.8009566535433068
11
7.0291052755905508
21
-3.8008901574803149
0
LINE
8
BLACK
6
CONTINUOUS
10
7.0291052755905508
20
-3.8008901574803149
11
7.0290163385826769
21
-3.8008342125984251
0
LINE
8
BLACK
6
CONTINUOUS
10
7.0290163385826769
20
-3.8008342125984251
11
7.0289651574803145
21
-3.8007751968503936
0
LINE
8
BLACK
6
CONTINUOUS
10
7.0289651574803145
20
-3.8007751968503936
11
7.0287388188976374
21
-3.8005894488188976
0
LINE
8
BLACK
6
CONTINUOUS
10
7.0287388188976374
20
-3.8005894488188976
11
7.0263578740157477
21
-3.7982084645669292
0
LINE
8
BLACK
6
CONTINUOUS
10
7.0263578740157477
20
-3.7982084645669292
11
7.0259906299212593
21
-3.7977609842519686
0
LINE
8
BLACK
6
CONTINUOUS
10
7.0259906299212593
20
-3.7977609842519686
11
7.0255497637795274
21
-3.7966965748031494
0
LINE
8
BLACK
6
CONTINUOUS
10
7.0255497637795274
20
-3.7966965748031494
11
7.0255497637795274
21
-3.7955444881889764
0
LINE
8
BLACK
6
CONTINUOUS
10
7.0255497637795274
20
-3.7955444881889764
11
7.0259906692913381
21
-3.7944800787401576
0
LINE
8
BLACK
6
CONTINUOUS
10
7.0259906692913381
20
-3.7944800787401576
11
7.0268053543307083
21
-3.7936653937007874
0
LINE
8
BLACK
6
CONTINUOUS
10
7.0268053543307083
20
-3.7936653937007874
11
7.0278697637795275
21
-3.793224527559055
0
LINE
8
BLACK
6
CONTINUOUS
10
7.0278697637795275
20
-3.793224527559055
11
7.0290218503937005
21
-3.793224527559055
0
LINE
8
BLACK
6
CONTINUOUS
10
7.0290218503937005
20
-3.793224527559055
11
7.0300862598425198
21
-3.7936654330708661
0
LINE
8
BLACK
6
CONTINUOUS
10
7.0300862598425198
20
-3.7936654330708661
11
7.0305337007874016
21
-3.7940326377952753
0
LINE
8
BLACK
6
CONTINUOUS
10
7.0305337007874016
20
-3.7940326377952753
11
7.0325758267716534
21
-3.7960748031496063
0
LINE
8
BLACK
6
CONTINUOUS
10
7.0325758267716534
20
-3.7960748031496063
11
7.0362856692913383
21
-3.7979297244094488
0
LINE
8
BLACK
6
CONTINUOUS
10
7.0362856692913383
20
-3.7979297244094488
11
7.0491773228346455
21
-3.7979297244094488
0
LINE
8
BLACK
6
CONTINUOUS
10
7.0491773228346455
20
-3.7979297244094488
11
7.0528871259842516
21
-3.7960748031496063
0
LINE
8
BLACK
6
CONTINUOUS
10
7.0528871259842516
20
-3.7960748031496063
11
7.0545904330708664
21
-3.7943714566929132
0
LINE
8
BLACK
6
CONTINUOUS
10
7.0545904330708664
20
-3.7943714566929132
11
7.0564454330708664
21
-3.7906615354330708
0
LINE
8
BLACK
6
CONTINUOUS
10
7.0564454330708664
20
-3.7906615354330708
11
7.0564454330708664
21
-3.7801509842519683
0
LINE
8
BLACK
6
CONTINUOUS
10
7.0564454330708664
20
-3.7801509842519683
11
7.0545904330708664
21
-3.7764410629921259
0
LINE
8
BLACK
6
CONTINUOUS
10
7.0545904330708664
20
-3.7764410629921259
11
7.0528871259842516
21
-3.7747377165354328
0
LINE
8
BLACK
6
CONTINUOUS
10
7.0528871259842516
20
-3.7747377165354328
11
7.0491773228346455
21
-3.7728828346456691
0
LINE
8
BLACK
6
CONTINUOUS
10
7.0491773228346455
20
-3.7728828346456691
11
7.0427314960629923
21
-3.7728828346456691
0
LINE
8
BLACK
6
CONTINUOUS
10
7.0427314960629923
20
-3.7728828346456691
11
7.0424268110236214
21
-3.7728527952755906
0
LINE
8
BLACK
6
CONTINUOUS
10
7.0424268110236214
20
-3.7728527952755906
11
7.0423493700787398
21
-3.7728579921259842
0
LINE
8
BLACK
6
CONTINUOUS
10
7.0423493700787398
20
-3.7728579921259842
11
7.0422959842519681
21
-3.7728399212598425
0
LINE
8
BLACK
6
CONTINUOUS
10
7.0422959842519681
20
-3.7728399212598425
11
7.0421554330708656
21
-3.7728261023622047
0
LINE
8
BLACK
6
CONTINUOUS
10
7.0421554330708656
20
-3.7728261023622047
11
7.0417122047244094
21
-3.7726424803149605
0
LINE
8
BLACK
6
CONTINUOUS
10
7.0417122047244094
20
-3.7726424803149605
11
7.0412579921259839
21
-3.7724888976377953
0
LINE
8
BLACK
6
CONTINUOUS
10
7.0412579921259839
20
-3.7724888976377953
11
7.0411830314960628
21
-3.7724233070866142
0
LINE
8
BLACK
6
CONTINUOUS
10
7.0411830314960628
20
-3.7724233070866142
11
7.0410910236220472
21
-3.7723851968503936
0
LINE
8
BLACK
6
CONTINUOUS
10
7.0410910236220472
20
-3.7723851968503936
11
7.0407518503937006
21
-3.772046023622047
0
LINE
8
BLACK
6
CONTINUOUS
10
7.0407518503937006
20
-3.772046023622047
11
7.0403909055118108
21
-3.7717301968503936
0
LINE
8
BLACK
6
CONTINUOUS
10
7.0403909055118108
20
-3.7717301968503936
11
7.0403467322834645
21
-3.771640905511811
0
LINE
8
BLACK
6
CONTINUOUS
10
7.0403467322834645
20
-3.771640905511811
11
7.0402763779527557
21
-3.7715705511811022
0
LINE
8
BLACK
6
CONTINUOUS
10
7.0402763779527557
20
-3.7715705511811022
11
7.0400928346456695
21
-3.7711274803149606
0
LINE
8
BLACK
6
CONTINUOUS
10
7.0400928346456695
20
-3.7711274803149606
11
7.0398801968503939
21
-3.7706974803149604
0
LINE
8
BLACK
6
CONTINUOUS
10
7.0398801968503939
20
-3.7706974803149604
11
7.0398735433070865
21
-3.7705981102362203
0
LINE
8
BLACK
6
CONTINUOUS
10
7.0398735433070865
20
-3.7705981102362203
11
7.0398354724409451
21
-3.7705061417322834
0
LINE
8
BLACK
6
CONTINUOUS
10
7.0398354724409451
20
-3.7705061417322834
11
7.0398354724409451
21
-3.7700264173228346
0
LINE
8
BLACK
6
CONTINUOUS
10
7.0398354724409451
20
-3.7700264173228346
11
7.0398035826771652
21
-3.7695479527559055
0
LINE
8
BLACK
6
CONTINUOUS
10
7.0398035826771652
20
-3.7695479527559055
11
7.0398354724409451
21
-3.7694536220472439
0
LINE
8
BLACK
6
CONTINUOUS
10
7.0398354724409451
20
-3.7694536220472439
11
7.0398354724409451
21
-3.7693540157480312
0
LINE
8
BLACK
6
CONTINUOUS
10
7.0398354724409451
20
-3.7693540157480312
11
7.0400190551181101
21
-3.7689107874015746
0
LINE
8
BLACK
6
CONTINUOUS
10
7.0400190551181101
20
-3.7689107874015746
11
7.0401726771653541
21
-3.7684565748031496
0
LINE
8
BLACK
6
CONTINUOUS
10
7.0401726771653541
20
-3.7684565748031496
11
7.0402547637795276
21
-3.7683416929133857
0
LINE
8
BLACK
6
CONTINUOUS
10
7.0402547637795276
20
-3.7683416929133857
11
7.0402763779527557
21
-3.7682896062992124
0
LINE
8
BLACK
6
CONTINUOUS
10
7.0402763779527557
20
-3.7682896062992124
11
7.0403312992125979
21
-3.7682346456692914
0
LINE
8
BLACK
6
CONTINUOUS
10
7.0403312992125979
20
-3.7682346456692914
11
7.0405093307086615
21
-3.7679856692913387
0
LINE
8
BLACK
6
CONTINUOUS
10
7.0405093307086615
20
-3.7679856692913387
11
7.0528909842519685
21
-3.7538352362204725
0
LINE
8
BLACK
6
CONTINUOUS
10
7.0528909842519685
20
-3.7538352362204725
11
7.0284457874015747
21
-3.7538352362204725
0
LINE
8
BLACK
6
CONTINUOUS
10
7.0284457874015747
20
-3.7538352362204725
11
7.0278697244094488
21
-3.7537785039370077
0
LINE
8
BLACK
6
CONTINUOUS
10
7.0278697244094488
20
-3.7537785039370077
11
7.0268053149606295
21
-3.7533375984251967
0
LINE
8
BLACK
6
CONTINUOUS
10
7.0268053149606295
20
-3.7533375984251967
11
7.0259906692913381
21
-3.7525229527559056
0
LINE
8
BLACK
6
CONTINUOUS
10
7.0259906692913381
20
-3.7525229527559056
11
7.0255497637795274
21
-3.7514585433070864
0
LINE
8
BLACK
6
CONTINUOUS
10
7.0255497637795274
20
-3.7514585433070864
11
7.0255497637795274
21
-3.7503064173228347
0
LINE
8
BLACK
6
CONTINUOUS
10
7.0255497637795274
20
-3.7503064173228347
11
7.0259906692913381
21
-3.7492420078740158
0
LINE
8
BLACK
6
CONTINUOUS
10
7.0259906692913381
20
-3.7492420078740158
11
7.0268053149606295
21
-3.7484273622047244
0
LINE
8
BLACK
6
CONTINUOUS
10
7.0268053149606295
20
-3.7484273622047244
11
7.0278697244094488
21
-3.7479864566929133
0
LINE
8
BLACK
6
CONTINUOUS
10
7.0278697244094488
20
-3.7479864566929133
11
7.0284457874015747
21
-3.7479297244094489
0
LINE
8
BLACK
6
CONTINUOUS
10
7.0284457874015747
20
-3.7479297244094489
11
7.0593981889763775
21
-3.7479297244094489
0
LINE
8
BLACK
6
CONTINUOUS
10
7.0593981889763775
20
-3.7479297244094489
11
7.0597028346456687
21
-3.7479597244094487
0
LINE
8
BLACK
6
CONTINUOUS
10
7.0375644881889761
20
-3.6907100393700785
11
7.0488674015748032
21
-3.6929583070866139
0
LINE
8
BLACK
6
CONTINUOUS
10
7.0488674015748032
20
-3.6929583070866139
11
7.059780157480315
21
-3.6966626771653543
0
LINE
8
BLACK
6
CONTINUOUS
10
7.059780157480315
20
-3.6966626771653543
11
7.0701160236220471
21
-3.7017597637795276
0
LINE
8
BLACK
6
CONTINUOUS
10
7.0701160236220471
20
-3.7017597637795276
11
7.0796981496062994
21
-3.7081623622047242
0
LINE
8
BLACK
6
CONTINUOUS
10
7.0796981496062994
20
-3.7081623622047242
11
7.0883625984251966
21
-3.7157608661417321
0
LINE
8
BLACK
6
CONTINUOUS
10
7.0883625984251966
20
-3.7157608661417321
11
7.0959611023622049
21
-3.7244253149606297
0
LINE
8
BLACK
6
CONTINUOUS
10
7.0959611023622049
20
-3.7244253149606297
11
7.102363700787401
21
-3.7340074803149603
0
LINE
8
BLACK
6
CONTINUOUS
10
7.102363700787401
20
-3.7340074803149603
11
7.1074607874015747
21
-3.7443433070866141
0
LINE
8
BLACK
6
CONTINUOUS
10
7.1074607874015747
20
-3.7443433070866141
11
7.1111651574803147
21
-3.7552560629921259
0
LINE
8
BLACK
6
CONTINUOUS
10
7.1111651574803147
20
-3.7552560629921259
11
7.1134134251968506
21
-3.7665589763779526
0
LINE
8
BLACK
6
CONTINUOUS
10
7.1134134251968506
20
-3.7665589763779526
11
7.1141671653543304
21
-3.7780586220472441
0
LINE
8
BLACK
6
CONTINUOUS
10
7.1141671653543304
20
-3.7780586220472441
11
7.1134134251968506
21
-3.7895582677165351
0
LINE
8
BLACK
6
CONTINUOUS
10
7.1134134251968506
20
-3.7895582677165351
11
7.1111651574803147
21
-3.8008611811023623
0
LINE
8
BLACK
6
CONTINUOUS
10
7.1111651574803147
20
-3.8008611811023623
11
7.1074607874015747
21
-3.811773937007874
0
LINE
8
BLACK
6
CONTINUOUS
10
7.1074607874015747
20
-3.811773937007874
11
7.102363700787401
21
-3.8221098031496061
0
LINE
8
BLACK
6
CONTINUOUS
10
7.102363700787401
20
-3.8221098031496061
11
7.0959611023622049
21
-3.831691929133858
0
LINE
8
BLACK
6
CONTINUOUS
10
7.0959611023622049
20
-3.831691929133858
11
7.0883625984251966
21
-3.8403563779527556
0
LINE
8
BLACK
6
CONTINUOUS
10
7.0883625984251966
20
-3.8403563779527556
11
7.0796981496062994
21
-3.8479548818897635
0
LINE
8
BLACK
6
CONTINUOUS
10
7.0796981496062994
20
-3.8479548818897635
11
7.0701160236220471
21
-3.8543574803149605
0
LINE
8
BLACK
6
CONTINUOUS
10
7.0701160236220471
20
-3.8543574803149605
11
7.059780157480315
21
-3.8594545669291338
0
LINE
8
BLACK
6
CONTINUOUS
10
7.059780157480315
20
-3.8594545669291338
11
7.0488674015748032
21
-3.8631589370078738
0
LINE
8
BLACK
6
CONTINUOUS
10
7.0488674015748032
20
-3.8631589370078738
11
7.0375644881889761
21
-3.8654072047244092
0
LINE
8
BLACK
6
CONTINUOUS
10
7.0375644881889761
20
-3.8654072047244092
11
7.026064842519685
21
-3.8661609448818899
0
LINE
8
BLACK
6
CONTINUOUS
10
7.026064842519685
20
-3.8661609448818899
11
7.0145651968503939
21
-3.8654072047244092
0
LINE
8
BLACK
6
CONTINUOUS
10
7.0145651968503939
20
-3.8654072047244092
11
7.0032622834645668
21
-3.8631589370078738
0
LINE
8
BLACK
6
CONTINUOUS
10
7.0032622834645668
20
-3.8631589370078738
11
6.992349527559055
21
-3.8594545669291338
0
LINE
8
BLACK
6
CONTINUOUS
10
6.992349527559055
20
-3.8594545669291338
11
6.9820136614173229
21
-3.8543574803149605
0
LINE
8
BLACK
6
CONTINUOUS
10
6.9820136614173229
20
-3.8543574803149605
11
6.9724315354330706
21
-3.8479548818897635
0
LINE
8
BLACK
6
CONTINUOUS
10
6.9724315354330706
20
-3.8479548818897635
11
6.9637670866141734
21
-3.8403563779527556
0
LINE
8
BLACK
6
CONTINUOUS
10
6.9637670866141734
20
-3.8403563779527556
11
6.9561685826771651
21
-3.831691929133858
0
LINE
8
BLACK
6
CONTINUOUS
10
6.9561685826771651
20
-3.831691929133858
11
6.9497659842519681
21
-3.8221098031496061
0
LINE
8
BLACK
6
CONTINUOUS
10
6.9497659842519681
20
-3.8221098031496061
11
6.9446688976377953
21
-3.811773937007874
0
LINE
8
BLACK
6
CONTINUOUS
10
6.9446688976377953
20
-3.811773937007874
11
6.9409645275590552
21
-3.8008611811023623
0
LINE
8
BLACK
6
CONTINUOUS
10
6.9409645275590552
20
-3.8008611811023623
11
6.9387162598425194
21
-3.7895582677165351
0
LINE
8
BLACK
6
CONTINUOUS
10
6.9387162598425194
20
-3.7895582677165351
11
6.9379625196850396
21
-3.7780586220472441
0
LINE
8
BLACK
6
CONTINUOUS
10
6.9379625196850396
20
-3.7780586220472441
11
6.9387162598425194
21
-3.7665589763779526
0
LINE
8
BLACK
6
CONTINUOUS
10
6.9387162598425194
20
-3.7665589763779526
11
6.9409645275590552
21
-3.7552560629921259
0
LINE
8
BLACK
6
CONTINUOUS
10
6.9409645275590552
20
-3.7552560629921259
11
6.9446688976377953
21
-3.7443433070866141
0
LINE
8
BLACK
6
CONTINUOUS
10
6.9446688976377953
20
-3.7443433070866141
11
6.9497659842519681
21
-3.7340074803149603
0
LINE
8
BLACK
6
CONTINUOUS
10
6.9497659842519681
20
-3.7340074803149603
11
6.9561685826771651
21
-3.7244253149606297
0
LINE
8
BLACK
6
CONTINUOUS
10
6.9561685826771651
20
-3.7244253149606297
11
6.9637670866141734
21
-3.7157608661417321
0
LINE
8
BLACK
6
CONTINUOUS
10
6.9637670866141734
20
-3.7157608661417321
11
6.9724315354330706
21
-3.7081623622047242
0
LINE
8
BLACK
6
CONTINUOUS
10
6.9724315354330706
20
-3.7081623622047242
11
6.9820137007874017
21
-3.7017597637795276
0
LINE
8
BLACK
6
CONTINUOUS
10
6.9820137007874017
20
-3.7017597637795276
11
6.992349527559055
21
-3.6966626771653543
0
LINE
8
BLACK
6
CONTINUOUS
10
6.992349527559055
20
-3.6966626771653543
11
7.0032622834645668
21
-3.6929583070866139
0
LINE
8
BLACK
6
CONTINUOUS
10
7.0032622834645668
20
-3.6929583070866139
11
7.0145651968503939
21
-3.6907100393700785
0
LINE
8
BLACK
6
CONTINUOUS
10
7.0145651968503939
20
-3.6907100393700785
11
7.026064842519685
21
-3.6899562992125983
0
LINE
8
BLACK
6
CONTINUOUS
10
7.026064842519685
20
-3.6899562992125983
11
7.0375644881889761
21
-3.6907100393700785
0
LINE
8
BLACK
6
CONTINUOUS
10
6.9444433070866136
20
-3.789277244094488
11
6.9467311417322835
21
-3.8002868897637794
0
LINE
8
BLACK
6
CONTINUOUS
10
6.9467311417322835
20
-3.8002868897637794
11
6.9504968110236218
21
-3.8108824409448818
0
LINE
8
BLACK
6
CONTINUOUS
10
6.9504968110236218
20
-3.8108824409448818
11
6.9556701574803146
21
-3.8208665748031496
0
LINE
8
BLACK
6
CONTINUOUS
10
6.9556701574803146
20
-3.8208665748031496
11
6.9621548425196851
21
-3.8300532677165355
0
LINE
8
BLACK
6
CONTINUOUS
10
6.9621548425196851
20
-3.8300532677165355
11
6.9698300393700787
21
-3.838271377952756
0
LINE
8
BLACK
6
CONTINUOUS
10
6.9698300393700787
20
-3.838271377952756
11
6.9785527952755908
21
-3.8453678740157478
0
LINE
8
BLACK
6
CONTINUOUS
10
6.9785527952755908
20
-3.8453678740157478
11
6.988160590551181
21
-3.8512105118110234
0
LINE
8
BLACK
6
CONTINUOUS
10
6.988160590551181
20
-3.8512105118110234
11
6.9984744881889762
21
-3.8556904724409446
0
LINE
8
BLACK
6
CONTINUOUS
10
6.9984744881889762
20
-3.8556904724409446
11
7.0093023228346452
21
-3.8587242913385826
0
LINE
8
BLACK
6
CONTINUOUS
10
7.0093023228346452
20
-3.8587242913385826
11
7.0204424409448816
21
-3.8602554330708663
0
LINE
8
BLACK
6
CONTINUOUS
10
7.0204424409448816
20
-3.8602554330708663
11
7.0316872440944884
21
-3.8602554330708663
0
LINE
8
BLACK
6
CONTINUOUS
10
7.0316872440944884
20
-3.8602554330708663
11
7.0428273622047239
21
-3.8587242913385826
0
LINE
8
BLACK
6
CONTINUOUS
10
7.0428273622047239
20
-3.8587242913385826
11
7.0536551968503938
21
-3.8556904724409446
0
LINE
8
BLACK
6
CONTINUOUS
10
7.0536551968503938
20
-3.8556904724409446
11
7.063969094488189
21
-3.8512105118110234
0
LINE
8
BLACK
6
CONTINUOUS
10
7.063969094488189
20
-3.8512105118110234
11
7.0735768897637792
21
-3.8453678740157478
0
LINE
8
BLACK
6
CONTINUOUS
10
7.0735768897637792
20
-3.8453678740157478
11
7.0822996456692913
21
-3.838271377952756
0
LINE
8
BLACK
6
CONTINUOUS
10
7.0822996456692913
20
-3.838271377952756
11
7.0899748425196849
21
-3.8300532677165355
0
LINE
8
BLACK
6
CONTINUOUS
10
7.0899748425196849
20
-3.8300532677165355
11
7.0964595275590545
21
-3.8208665748031496
0
LINE
8
BLACK
6
CONTINUOUS
10
7.0964595275590545
20
-3.8208665748031496
11
7.1016328740157482
21
-3.8108824409448818
0
LINE
8
BLACK
6
CONTINUOUS
10
7.1016328740157482
20
-3.8108824409448818
11
7.1053985433070865
21
-3.8002868897637794
0
LINE
8
BLACK
6
CONTINUOUS
10
7.1053985433070865
20
-3.8002868897637794
11
7.1076863779527555
21
-3.789277244094488
0
LINE
8
BLACK
6
CONTINUOUS
10
7.1076863779527555
20
-3.789277244094488
11
7.1084537401574801
21
-3.7780586220472441
0
LINE
8
BLACK
6
CONTINUOUS
10
7.1084537401574801
20
-3.7780586220472441
11
7.1076863779527555
21
-3.7668399999999997
0
LINE
8
BLACK
6
CONTINUOUS
10
7.1076863779527555
20
-3.7668399999999997
11
7.1053985433070865
21
-3.7558303543307088
0
LINE
8
BLACK
6
CONTINUOUS
10
7.1053985433070865
20
-3.7558303543307088
11
7.1016328740157482
21
-3.7452348031496063
0
LINE
8
BLACK
6
CONTINUOUS
10
7.1016328740157482
20
-3.7452348031496063
11
7.0964595275590545
21
-3.7352506692913385
0
LINE
8
BLACK
6
CONTINUOUS
10
7.0964595275590545
20
-3.7352506692913385
11
7.0899748425196849
21
-3.7260639763779526
0
LINE
8
BLACK
6
CONTINUOUS
10
7.0899748425196849
20
-3.7260639763779526
11
7.0822996456692913
21
-3.7178458661417322
0
LINE
8
BLACK
6
CONTINUOUS
10
7.0822996456692913
20
-3.7178458661417322
11
7.0735768897637792
21
-3.71074937007874
0
LINE
8
BLACK
6
CONTINUOUS
10
7.0735768897637792
20
-3.71074937007874
11
7.063969094488189
21
-3.7049067322834643
0
LINE
8
BLACK
6
CONTINUOUS
10
7.063969094488189
20
-3.7049067322834643
11
7.0536551968503938
21
-3.7004267716535431
0
LINE
8
BLACK
6
CONTINUOUS
10
7.0536551968503938
20
-3.7004267716535431
11
7.0428273622047239
21
-3.6973929527559055
0
LINE
8
BLACK
6
CONTINUOUS
10
7.0428273622047239
20
-3.6973929527559055
11
7.0316872440944884
21
-3.6958618110236219
0
LINE
8
BLACK
6
CONTINUOUS
10
7.0316872440944884
20
-3.6958618110236219
11
7.0204424409448816
21
-3.6958618110236219
0
LINE
8
BLACK
6
CONTINUOUS
10
7.0204424409448816
20
-3.6958618110236219
11
7.0093023228346452
21
-3.6973929527559055
0
LINE
8
BLACK
6
CONTINUOUS
10
7.0093023228346452
20
-3.6973929527559055
11
6.9984744881889762
21
-3.7004267716535431
0
LINE
8
BLACK
6
CONTINUOUS
10
6.9984744881889762
20
-3.7004267716535431
11
6.988160590551181
21
-3.7049067322834643
0
LINE
8
BLACK
6
CONTINUOUS
10
6.988160590551181
20
-3.7049067322834643
11
6.9785527952755908
21
-3.71074937007874
0
LINE
8
BLACK
6
CONTINUOUS
10
6.9785527952755908
20
-3.71074937007874
11
6.9698300393700787
21
-3.7178458661417322
0
LINE
8
BLACK
6
CONTINUOUS
10
6.9698300393700787
20
-3.7178458661417322
11
6.9621548425196851
21
-3.7260639763779526
0
LINE
8
BLACK
6
CONTINUOUS
10
6.9621548425196851
20
-3.7260639763779526
11
6.9556701574803146
21
-3.7352506692913385
0
LINE
8
BLACK
6
CONTINUOUS
10
6.9556701574803146
20
-3.7352506692913385
11
6.9504968110236218
21
-3.7452348031496063
0
LINE
8
BLACK
6
CONTINUOUS
10
6.9504968110236218
20
-3.7452348031496063
11
6.9467311417322835
21
-3.7558303543307088
0
LINE
8
BLACK
6
CONTINUOUS
10
6.9467311417322835
20
-3.7558303543307088
11
6.9444433070866136
21
-3.7668399999999997
0
LINE
8
BLACK
6
CONTINUOUS
10
6.9444433070866136
20
-3.7668399999999997
11
6.9436759448818899
21
-3.7780586220472441
0
LINE
8
BLACK
6
CONTINUOUS
10
6.9436759448818899
20
-3.7780586220472441
11
6.9444433070866136
21
-3.789277244094488
0
LINE
8
BLACK
6
CONTINUOUS
10
7.1644361811023618
20
-3.6373673228346455
11
7.165500590551181
21
-3.6378082283464566
0
LINE
8
BLACK
6
CONTINUOUS
10
7.165500590551181
20
-3.6378082283464566
11
7.1663152362204725
21
-3.638622874015748
0
LINE
8
BLACK
6
CONTINUOUS
10
7.1663152362204725
20
-3.638622874015748
11
7.1667561417322831
21
-3.6396872834645668
0
LINE
8
BLACK
6
CONTINUOUS
10
7.1667561417322831
20
-3.6396872834645668
11
7.166812874015748
21
-3.6402633464566927
0
LINE
8
BLACK
6
CONTINUOUS
10
7.166812874015748
20
-3.6402633464566927
11
7.166812874015748
21
-3.915853897637795
0
LINE
8
BLACK
6
CONTINUOUS
10
7.166812874015748
20
-3.915853897637795
11
7.1667561417322831
21
-3.9164299606299213
0
LINE
8
BLACK
6
CONTINUOUS
10
7.1667561417322831
20
-3.9164299606299213
11
7.1663152362204725
21
-3.9174943700787401
0
LINE
8
BLACK
6
CONTINUOUS
10
7.1663152362204725
20
-3.9174943700787401
11
7.165500590551181
21
-3.9183090157480316
0
LINE
8
BLACK
6
CONTINUOUS
10
7.165500590551181
20
-3.9183090157480316
11
7.1644361811023618
21
-3.9187499212598422
0
LINE
8
BLACK
6
CONTINUOUS
10
7.1644361811023618
20
-3.9187499212598422
11
7.1638601181102359
21
-3.918806653543307
0
LINE
8
BLACK
6
CONTINUOUS
10
7.1638601181102359
20
-3.918806653543307
11
6.8882695669291341
21
-3.918806653543307
0
LINE
8
BLACK
6
CONTINUOUS
10
6.8882695669291341
20
-3.918806653543307
11
6.8876935039370073
21
-3.9187499212598422
0
LINE
8
BLACK
6
CONTINUOUS
10
6.8876935039370073
20
-3.9187499212598422
11
6.8866290944881889
21
-3.9183090157480316
0
LINE
8
BLACK
6
CONTINUOUS
10
6.8866290944881889
20
-3.9183090157480316
11
6.8858144488188975
21
-3.9174943700787401
0
LINE
8
BLACK
6
CONTINUOUS
10
6.8858144488188975
20
-3.9174943700787401
11
6.8853735433070868
21
-3.9164299606299213
0
LINE
8
BLACK
6
CONTINUOUS
10
6.8853735433070868
20
-3.9164299606299213
11
6.885316811023622
21
-3.915853897637795
0
LINE
8
BLACK
6
CONTINUOUS
10
6.885316811023622
20
-3.915853897637795
11
6.885316811023622
21
-3.6402633464566927
0
LINE
8
BLACK
6
CONTINUOUS
10
6.885316811023622
20
-3.6402633464566927
11
6.8853735433070868
21
-3.6396872834645668
0
LINE
8
BLACK
6
CONTINUOUS
10
6.8853735433070868
20
-3.6396872834645668
11
6.8858144488188975
21
-3.638622874015748
0
LINE
8
BLACK
6
CONTINUOUS
10
6.8858144488188975
20
-3.638622874015748
11
6.8866290944881889
21
-3.6378082283464566
0
LINE
8
BLACK
6
CONTINUOUS
10
6.8866290944881889
20
-3.6378082283464566
11
6.8876935039370073
21
-3.6373673228346455
0
LINE
8
BLACK
6
CONTINUOUS
10
6.8876935039370073
20
-3.6373673228346455
11
6.8882695669291341
21
-3.6373105905511811
0
LINE
8
BLACK
6
CONTINUOUS
10
6.8882695669291341
20
-3.6373105905511811
11
7.1638601181102359
21
-3.6373105905511811
0
LINE
8
BLACK
6
CONTINUOUS
10
7.1638601181102359
20
-3.6373105905511811
11
7.1644361811023618
21
-3.6373673228346455
0
LINE
8
BLACK
6
CONTINUOUS
10
6.8912223228346452
20
-3.6432161023622047
11
6.8912223228346452
21
-3.9129011417322834
0
LINE
8
BLACK
6
CONTINUOUS
10
6.8912223228346452
20
-3.9129011417322834
11
7.1609073622047239
21
-3.9129011417322834
0
LINE
8
BLACK
6
CONTINUOUS
10
7.1609073622047239
20
-3.9129011417322834
11
7.1609073622047239
21
-3.6432161023622047
0
LINE
8
BLACK
6
CONTINUOUS
10
7.1609073622047239
20
-3.6432161023622047
11
6.8912223228346452
21
-3.6432161023622047
0
LINE
8
BLACK
6
CONTINUOUS
10
5.3260648425196848
20
-3.275105866141732
11
5.4260648425196853
21
-3.275105866141732
0
LINE
8
BLACK
6
CONTINUOUS
10
5.4260648425196853
20
-3.275105866141732
11
5.526064842519685
21
-3.275105866141732
0
LINE
8
BLACK
6
CONTINUOUS
10
5.526064842519685
20
-3.275105866141732
11
5.6260648425196846
21
-3.275105866141732
0
LINE
8
BLACK
6
CONTINUOUS
10
5.6260648425196846
20
-3.275105866141732
11
5.7260648425196852
21
-3.275105866141732
0
LINE
8
BLACK
6
CONTINUOUS
10
5.7260648425196852
20
-3.275105866141732
11
5.8260648425196848
21
-3.275105866141732
0
LINE
8
BLACK
6
CONTINUOUS
10
5.8260648425196848
20
-3.275105866141732
11
5.9260648425196845
21
-3.275105866141732
0
LINE
8
BLACK
6
CONTINUOUS
10
5.9260648425196845
20
-3.275105866141732
11
6.026064842519685
21
-3.275105866141732
0
LINE
8
BLACK
6
CONTINUOUS
10
6.026064842519685
20
-3.275105866141732
11
6.1260648425196846
21
-3.275105866141732
0
LINE
8
BLACK
6
CONTINUOUS
10
6.1260648425196846
20
-3.275105866141732
11
6.1266409055118105
21
-3.2751625984251969
0
LINE
8
BLACK
6
CONTINUOUS
10
6.1266409055118105
20
-3.2751625984251969
11
6.1277053149606298
21
-3.2756035039370079
0
LINE
8
BLACK
6
CONTINUOUS
10
6.1277053149606298
20
-3.2756035039370079
11
6.1285199606299212
21
-3.276418149606299
0
LINE
8
BLACK
6
CONTINUOUS
10
6.1285199606299212
20
-3.276418149606299
11
6.1289608661417319
21
-3.2774825590551182
0
LINE
8
BLACK
6
CONTINUOUS
10
6.1289608661417319
20
-3.2774825590551182
11
6.1290175984251967
21
-3.2780586220472441
0
LINE
8
BLACK
6
CONTINUOUS
10
6.1290175984251967
20
-3.2780586220472441
11
6.1290175984251967
21
-3.4780586220472438
0
LINE
8
BLACK
6
CONTINUOUS
10
6.1290175984251967
20
-3.4780586220472438
11
6.1289608661417319
21
-3.4786346850393701
0
LINE
8
BLACK
6
CONTINUOUS
10
6.1289608661417319
20
-3.4786346850393701
11
6.1285199606299212
21
-3.4796990944881889
0
LINE
8
BLACK
6
CONTINUOUS
10
6.1285199606299212
20
-3.4796990944881889
11
6.1277053149606298
21
-3.4805137401574804
0
LINE
8
BLACK
6
CONTINUOUS
10
6.1277053149606298
20
-3.4805137401574804
11
6.1266409055118105
21
-3.4809546456692915
0
LINE
8
BLACK
6
CONTINUOUS
10
6.1266409055118105
20
-3.4809546456692915
11
6.1260648425196846
21
-3.4810113779527558
0
LINE
8
BLACK
6
CONTINUOUS
10
6.1260648425196846
20
-3.4810113779527558
11
6.026064842519685
21
-3.4810113779527558
0
LINE
8
BLACK
6
CONTINUOUS
10
6.026064842519685
20
-3.4810113779527558
11
5.9260648425196845
21
-3.4810113779527558
0
LINE
8
BLACK
6
CONTINUOUS
10
5.9260648425196845
20
-3.4810113779527558
11
5.8260648425196848
21
-3.4810113779527558
0
LINE
8
BLACK
6
CONTINUOUS
10
5.8260648425196848
20
-3.4810113779527558
11
5.7260648425196852
21
-3.4810113779527558
0
LINE
8
BLACK
6
CONTINUOUS
10
5.7260648425196852
20
-3.4810113779527558
11
5.6260648425196846
21
-3.4810113779527558
0
LINE
8
BLACK
6
CONTINUOUS
10
5.6260648425196846
20
-3.4810113779527558
11
5.526064842519685
21
-3.4810113779527558
0
LINE
8
BLACK
6
CONTINUOUS
10
5.526064842519685
20
-3.4810113779527558
11
5.4260648425196853
21
-3.4810113779527558
0
LINE
8
BLACK
6
CONTINUOUS
10
5.4260648425196853
20
-3.4810113779527558
11
5.3260648425196848
21
-3.4810113779527558
0
LINE
8
BLACK
6
CONTINUOUS
10
5.3260648425196848
20
-3.4810113779527558
11
5.2260648425196852
21
-3.4810113779527558
0
LINE
8
BLACK
6
CONTINUOUS
10
5.2260648425196852
20
-3.4810113779527558
11
5.2254887795275593
21
-3.4809546456692915
0
LINE
8
BLACK
6
CONTINUOUS
10
5.2254887795275593
20
-3.4809546456692915
11
5.2244243700787401
21
-3.4805137401574804
0
LINE
8
BLACK
6
CONTINUOUS
10
5.2244243700787401
20
-3.4805137401574804
11
5.2236097244094486
21
-3.4796990944881889
0
LINE
8
BLACK
6
CONTINUOUS
10
5.2236097244094486
20
-3.4796990944881889
11
5.223168818897638
21
-3.4786346850393701
0
LINE
8
BLACK
6
CONTINUOUS
10
5.223168818897638
20
-3.4786346850393701
11
5.2231120866141731
21
-3.4780586220472438
0
LINE
8
BLACK
6
CONTINUOUS
10
5.2231120866141731
20
-3.4780586220472438
11
5.2231120866141731
21
-3.2780586220472441
0
LINE
8
BLACK
6
CONTINUOUS
10
5.2231120866141731
20
-3.2780586220472441
11
5.223168818897638
21
-3.2774825590551182
0
LINE
8
BLACK
6
CONTINUOUS
10
5.223168818897638
20
-3.2774825590551182
11
5.2236097244094486
21
-3.276418149606299
0
LINE
8
BLACK
6
CONTINUOUS
10
5.2236097244094486
20
-3.276418149606299
11
5.2244243700787401
21
-3.2756035039370079
0
LINE
8
BLACK
6
CONTINUOUS
10
5.2244243700787401
20
-3.2756035039370079
11
5.2254887795275593
21
-3.2751625984251969
0
LINE
8
BLACK
6
CONTINUOUS
10
5.2254887795275593
20
-3.2751625984251969
11
5.2260648425196852
21
-3.275105866141732
0
LINE
8
BLACK
6
CONTINUOUS
10
5.2260648425196852
20
-3.275105866141732
11
5.3260648425196848
21
-3.275105866141732
0
LINE
8
BLACK
6
CONTINUOUS
10
6.029017598425197
20
-3.2810113779527557
11
6.029017598425197
21
-3.4751058661417322
0
LINE
8
BLACK
6
CONTINUOUS
10
6.029017598425197
20
-3.4751058661417322
11
6.1231120866141735
21
-3.4751058661417322
0
LINE
8
BLACK
6
CONTINUOUS
10
6.1231120866141735
20
-3.4751058661417322
11
6.1231120866141735
21
-3.2810113779527557
0
LINE
8
BLACK
6
CONTINUOUS
10
6.1231120866141735
20
-3.2810113779527557
11
6.029017598425197
21
-3.2810113779527557
0
LINE
8
BLACK
6
CONTINUOUS
10
5.9290175984251965
20
-3.2810113779527557
11
5.9290175984251965
21
-3.4751058661417322
0
LINE
8
BLACK
6
CONTINUOUS
10
5.9290175984251965
20
-3.4751058661417322
11
6.023112086614173
21
-3.4751058661417322
0
LINE
8
BLACK
6
CONTINUOUS
10
6.023112086614173
20
-3.4751058661417322
11
6.023112086614173
21
-3.2810113779527557
0
LINE
8
BLACK
6
CONTINUOUS
10
6.023112086614173
20
-3.2810113779527557
11
5.9290175984251965
21
-3.2810113779527557
0
LINE
8
BLACK
6
CONTINUOUS
10
5.8290175984251968
20
-3.2810113779527557
11
5.8290175984251968
21
-3.4751058661417322
0
LINE
8
BLACK
6
CONTINUOUS
10
5.8290175984251968
20
-3.4751058661417322
11
5.9231120866141733
21
-3.4751058661417322
0
LINE
8
BLACK
6
CONTINUOUS
10
5.9231120866141733
20
-3.4751058661417322
11
5.9231120866141733
21
-3.2810113779527557
0
LINE
8
BLACK
6
CONTINUOUS
10
5.9231120866141733
20
-3.2810113779527557
11
5.8290175984251968
21
-3.2810113779527557
0
LINE
8
BLACK
6
CONTINUOUS
10
5.7290175984251963
20
-3.2810113779527557
11
5.7290175984251963
21
-3.4751058661417322
0
LINE
8
BLACK
6
CONTINUOUS
10
5.7290175984251963
20
-3.4751058661417322
11
5.8231120866141728
21
-3.4751058661417322
0
LINE
8
BLACK
6
CONTINUOUS
10
5.8231120866141728
20
-3.4751058661417322
11
5.8231120866141728
21
-3.2810113779527557
0
LINE
8
BLACK
6
CONTINUOUS
10
5.8231120866141728
20
-3.2810113779527557
11
5.7290175984251963
21
-3.2810113779527557
0
LINE
8
BLACK
6
CONTINUOUS
10
5.6290175984251967
20
-3.2810113779527557
11
5.6290175984251967
21
-3.4751058661417322
0
LINE
8
BLACK
6
CONTINUOUS
10
5.6290175984251967
20
-3.4751058661417322
11
5.7231120866141731
21
-3.4751058661417322
0
LINE
8
BLACK
6
CONTINUOUS
10
5.7231120866141731
20
-3.4751058661417322
11
5.7231120866141731
21
-3.2810113779527557
0
LINE
8
BLACK
6
CONTINUOUS
10
5.7231120866141731
20
-3.2810113779527557
11
5.6290175984251967
21
-3.2810113779527557
0
LINE
8
BLACK
6
CONTINUOUS
10
5.529017598425197
20
-3.2810113779527557
11
5.529017598425197
21
-3.4751058661417322
0
LINE
8
BLACK
6
CONTINUOUS
10
5.529017598425197
20
-3.4751058661417322
11
5.6231120866141735
21
-3.4751058661417322
0
LINE
8
BLACK
6
CONTINUOUS
10
5.6231120866141735
20
-3.4751058661417322
11
5.6231120866141735
21
-3.2810113779527557
0
LINE
8
BLACK
6
CONTINUOUS
10
5.6231120866141735
20
-3.2810113779527557
11
5.529017598425197
21
-3.2810113779527557
0
LINE
8
BLACK
6
CONTINUOUS
10
5.4290175984251965
20
-3.2810113779527557
11
5.4290175984251965
21
-3.4751058661417322
0
LINE
8
BLACK
6
CONTINUOUS
10
5.4290175984251965
20
-3.4751058661417322
11
5.523112086614173
21
-3.4751058661417322
0
LINE
8
BLACK
6
CONTINUOUS
10
5.523112086614173
20
-3.4751058661417322
11
5.523112086614173
21
-3.2810113779527557
0
LINE
8
BLACK
6
CONTINUOUS
10
5.523112086614173
20
-3.2810113779527557
11
5.4290175984251965
21
-3.2810113779527557
0
LINE
8
BLACK
6
CONTINUOUS
10
5.3290175984251968
20
-3.2810113779527557
11
5.3290175984251968
21
-3.4751058661417322
0
LINE
8
BLACK
6
CONTINUOUS
10
5.3290175984251968
20
-3.4751058661417322
11
5.4231120866141733
21
-3.4751058661417322
0
LINE
8
BLACK
6
CONTINUOUS
10
5.4231120866141733
20
-3.4751058661417322
11
5.4231120866141733
21
-3.2810113779527557
0
LINE
8
BLACK
6
CONTINUOUS
10
5.4231120866141733
20
-3.2810113779527557
11
5.3290175984251968
21
-3.2810113779527557
0
LINE
8
BLACK
6
CONTINUOUS
10
5.2290175984251963
20
-3.2810113779527557
11
5.2290175984251963
21
-3.4751058661417322
0
LINE
8
BLACK
6
CONTINUOUS
10
5.2290175984251963
20
-3.4751058661417322
11
5.3231120866141728
21
-3.4751058661417322
0
LINE
8
BLACK
6
CONTINUOUS
10
5.3231120866141728
20
-3.4751058661417322
11
5.3231120866141728
21
-3.2810113779527557
0
LINE
8
BLACK
6
CONTINUOUS
10
5.3231120866141728
20
-3.2810113779527557
11
5.2290175984251963
21
-3.2810113779527557
0
CIRCLE
8
BLACK
10
6.2010648425196848
20
-4.5780586220472443
40
0.0068897637795276
0
CIRCLE
8
BLACK
10
6.2010648425196848
20
-4.4780586220472438
40
0.0068897637795276
0
CIRCLE
8
BLACK
10
6.4460648425196849
20
-4.6680586220472442
40
0.0068897637795276
0
CIRCLE
8
BLACK
10
6.4460648425196849
20
-4.5680586220472437
40
0.0068897637795276
0
CIRCLE
8
BLACK
10
6.3460648425196853
20
-4.6680586220472442
40
0.0068897637795276
0
CIRCLE
8
BLACK
10
6.3460648425196853
20
-4.5680586220472437
40
0.0068897637795276
0
CIRCLE
8
BLACK
10
4.9260648425196853
20
-3.678058622047244
40
0.0068897637795276
0
CIRCLE
8
BLACK
10
5.026064842519685
20
-3.678058622047244
40
0.0068897637795276
0
CIRCLE
8
BLACK
10
4.9260648425196853
20
-3.7780586220472441
40
0.0068897637795276
0
CIRCLE
8
BLACK
10
5.026064842519685
20
-3.7780586220472441
40
0.0068897637795276
0
CIRCLE
8
BLACK
10
4.9260648425196853
20
-3.8780586220472442
40
0.0068897637795276
0
CIRCLE
8
BLACK
10
5.026064842519685
20
-3.8780586220472442
40
0.0068897637795276
0
CIRCLE
8
BLACK
10
4.9260648425196853
20
-4.1930586220472437
40
0.0068897637795276
0
CIRCLE
8
BLACK
10
5.026064842519685
20
-4.1930586220472437
40
0.0068897637795276
0
CIRCLE
8
BLACK
10
4.9260648425196853
20
-4.2930586220472442
40
0.0068897637795276
0
CIRCLE
8
BLACK
10
5.026064842519685
20
-4.2930586220472442
40
0.0068897637795276
0
CIRCLE
8
BLACK
10
4.9260648425196853
20
-4.3930586220472438
40
0.0068897637795276
0
CIRCLE
8
BLACK
10
5.026064842519685
20
-4.3930586220472438
40
0.0068897637795276
0
CIRCLE
8
BLACK
10
5.8010648425196853
20
-4.5780586220472443
40
0.0068897637795276
0
CIRCLE
8
BLACK
10
5.8010648425196853
20
-4.4780586220472438
40
0.0068897637795276
0
CIRCLE
8
BLACK
10
5.6010648425196852
20
-4.4780586220472438
40
0.0068897637795276
0
CIRCLE
8
BLACK
10
5.6010648425196852
20
-4.5780586220472443
40
0.0068897637795276
0
CIRCLE
8
BLACK
10
5.5010648425196846
20
-4.5780586220472443
40
0.0068897637795276
0
CIRCLE
8
BLACK
10
5.5010648425196846
20
-4.4780586220472438
40
0.0068897637795276
0
CIRCLE
8
BLACK
10
5.401064842519685
20
-4.4780586220472438
40
0.0068897637795276
0
CIRCLE
8
BLACK
10
5.401064842519685
20
-4.5780586220472443
40
0.0068897637795276
0
CIRCLE
8
BLACK
10
5.3010648425196853
20
-4.4780586220472438
40
0.0068897637795276
0
CIRCLE
8
BLACK
10
5.3010648425196853
20
-4.5780586220472443
40
0.0068897637795276
0
CIRCLE
8
BLACK
10
5.901064842519685
20
-4.5780586220472443
40
0.0068897637795276
0
CIRCLE
8
BLACK
10
5.901064842519685
20
-4.4780586220472438
40
0.0068897637795276
0
CIRCLE
8
BLACK
10
6.1010648425196852
20
-4.5780586220472443
40
0.0068897637795276
0
CIRCLE
8
BLACK
10
6.1010648425196852
20
-4.4780586220472438
40
0.0068897637795276
0
CIRCLE
8
BLACK
10
6.0010648425196846
20
-4.5780586220472443
40
0.0068897637795276
0
CIRCLE
8
BLACK
10
6.0010648425196846
20
-4.4780586220472438
40
0.0068897637795276
0
CIRCLE
8
BLACK
10
5.026064842519685
20
-3.428058622047244
40
0.0068897637795276
0
CIRCLE
8
BLACK
10
7.026064842519685
20
-4.6280586220472442
40
0.0068897637795276
0
CIRCLE
8
BLACK
10
5.026064842519685
20
-4.6280586220472442
40
0.0068897637795276
0
CIRCLE
8
BLACK
10
7.026064842519685
20
-3.428058622047244
40
0.0068897637795276
0
CIRCLE
8
BLACK
10
7.026064842519685
20
-3.7780586220472441
40
0.0068897637795276
0
CIRCLE
8
BLACK
10
6.9260648425196845
20
-3.678058622047244
40
0.0068897637795276
0
CIRCLE
8
BLACK
10
6.9260648425196845
20
-3.8780586220472442
40
0.0068897637795276
0
CIRCLE
8
BLACK
10
7.1260648425196846
20
-3.678058622047244
40
0.0068897637795276
0
CIRCLE
8
BLACK
10
7.1260648425196846
20
-3.8780586220472442
40
0.0068897637795276
0
CIRCLE
8
BLACK
10
5.7010648425196848
20
-4.5780586220472443
40
0.0068897637795276
0
CIRCLE
8
BLACK
10
5.7010648425196848
20
-4.4780586220472438
40
0.0068897637795276
0
CIRCLE
8
BLACK
10
5.776064842519685
20
-3.428058622047244
40
0.0068897637795276
0
CIRCLE
8
BLACK
10
5.776064842519685
20
-3.3280586220472439
40
0.0068897637795276
0
CIRCLE
8
BLACK
10
5.6760648425196853
20
-3.428058622047244
40
0.0068897637795276
0
CIRCLE
8
BLACK
10
5.6760648425196853
20
-3.3280586220472439
40
0.0068897637795276
0
CIRCLE
8
BLACK
10
5.5760648425196848
20
-3.428058622047244
40
0.0068897637795276
0
CIRCLE
8
BLACK
10
5.5760648425196848
20
-3.3280586220472439
40
0.0068897637795276
0
CIRCLE
8
BLACK
10
5.8760648425196846
20
-3.428058622047244
40
0.0068897637795276
0
CIRCLE
8
BLACK
10
5.8760648425196846
20
-3.3280586220472439
40
0.0068897637795276
0
CIRCLE
8
BLACK
10
5.4760648425196852
20
-3.428058622047244
40
0.0068897637795276
0
CIRCLE
8
BLACK
10
5.4760648425196852
20
-3.3280586220472439
40
0.0068897637795276
0
CIRCLE
8
BLACK
10
5.9760648425196852
20
-3.428058622047244
40
0.0068897637795276
0
CIRCLE
8
BLACK
10
5.9760648425196852
20
-3.3280586220472439
40
0.0068897637795276
0
CIRCLE
8
BLACK
10
5.3760648425196846
20
-3.428058622047244
40
0.0068897637795276
0
CIRCLE
8
BLACK
10
5.3760648425196846
20
-3.3280586220472439
40
0.0068897637795276
0
CIRCLE
8
BLACK
10
5.276064842519685
20
-3.428058622047244
40
0.0068897637795276
0
CIRCLE
8
BLACK
10
5.276064842519685
20
-3.3280586220472439
40
0.0068897637795276
0
CIRCLE
8
BLACK
10
6.0760648425196848
20
-3.428058622047244
40
0.0068897637795276
0
CIRCLE
8
BLACK
10
6.0760648425196848
20
-3.3280586220472439
40
0.0068897637795276
0
CIRCLE
8
BLACK
10
7.026064842519685
20
-4.2030586220472443
40
0.0068897637795276
0
CIRCLE
8
BLACK
10
6.9260648425196845
20
-4.1030586220472438
40
0.0068897637795276
0
CIRCLE
8
BLACK
10
6.9260648425196845
20
-4.303058622047244
40
0.0068897637795276
0
CIRCLE
8
BLACK
10
7.1260648425196846
20
-4.1030586220472438
40
0.0068897637795276
0
CIRCLE
8
BLACK
10
7.1260648425196846
20
-4.303058622047244
40
0.0068897637795276
0
CIRCLE
8
BLACK
10
6.5960648425196853
20
-4.6580586220472444
40
0.0068897637795276
0
CIRCLE
8
BLACK
10
6.736064842519685
20
-4.6580586220472444
40
0.0068897637795276
0
CIRCLE
8
BLACK
10
5.9719309842519683
20
-3.9420349999999997
40
0.0039370078740157
0
CIRCLE
8
BLACK
10
5.9246868897637794
20
-3.9420349999999997
40
0.0039370078740157
0
CIRCLE
8
BLACK
10
5.8774427952755905
20
-3.9420349999999997
40
0.0039370078740157
0
CIRCLE
8
BLACK
10
5.8301987007874017
20
-3.9420349999999997
40
0.0039370078740157
0
CIRCLE
8
BLACK
10
5.9719309842519683
20
-4.0030586220472442
40
0.0039370078740157
0
CIRCLE
8
BLACK
10
5.9246868897637794
20
-4.0030586220472442
40
0.0039370078740157
0
CIRCLE
8
BLACK
10
5.8774427952755905
20
-4.0030586220472442
40
0.0039370078740157
0
CIRCLE
8
BLACK
10
5.8301987007874017
20
-4.0030586220472442
40
0.0039370078740157
0
CIRCLE
8
BLACK
10
5.9719309842519683
20
-4.0640822440944877
40
0.0039370078740157
0
CIRCLE
8
BLACK
10
5.9246868897637794
20
-4.0640822440944877
40
0.0039370078740157
0
CIRCLE
8
BLACK
10
5.8774427952755905
20
-4.0640822440944877
40
0.0039370078740157
0
CIRCLE
8
BLACK
10
5.8301987007874017
20
-4.0640822440944877
40
0.0039370078740157
  0
ENDSEC
  0
EOF
