  0
SECTION
  2
HEADER
  9
$ANGBASE
  50
0.0
  9
$ANGDIR
  70
1
  9
$MEASUREMENT
  70
0
  0
ENDSEC
  0
SECTION
  2
TABLES
  0
TABLE
  2
LTYPE
  70
4
  0
LTYPE
  5
40F
  2
CONTINUOUS
  70
0
  3
Solid line
  72
65
  73
0
  40
0.0
  0
LTYPE
  5
410
  2
DASHDOT
 70
0
  3
Dash Dot ____ _ ____ _
 72
65
 73
4
 40
2.0
 49
1.25
 49
-0.25
 49
0.25
 49
-0.25
  0
LTYPE
  5
411
  2
DASHED
 70
0
  3
Dashed __ __ __ __ __
 72
65
 73
2
 40
0.75
 49
0.5
 49
-0.25
  0
LTYPE
  5
43B
  2
DOTTED
 70
0
  3
Dotted .  .  .  .
 72
65
 73
2
 40
0.2
 49
0.0
 49
-0.2
  0
ENDTAB
  0
TABLE
  2
STYLE
  70
4
  0
STYLE
  2
KICAD
  70
0
  40
0
  41
1
  42
1
  50
0
  71
0
  3
isocp.shx
  0
STYLE
  2
KICADB
  70
0
  40
0
  41
1
  42
1
  50
0
  71
0
  3
isocp.shx
  0
STYLE
  2
KICADI
  70
0
  40
0
  41
1
  42
1
  50
15
  71
0
  3
isocp.shx
  0
STYLE
  2
KICADBI
  70
0
  40
0
  41
1
  42
1
  50
15
  71
0
  3
isocp.shx
  0
ENDTAB
  0
TABLE
  2
LAYER
  70
1
  0
LAYER
  2
BLACK
  70
0
  62
7
  6
CONTINUOUS
  0
ENDTAB
  0
ENDSEC
  0
SECTION
  2
ENTITIES
0
LINE
8
BLACK
6
CONTINUOUS
10
5.52856
20
-4.78306
11
5.47356
21
-4.78306
0
LINE
8
BLACK
6
CONTINUOUS
10
5.47356
20
-4.78306
11
5.47356
21
-4.74806
0
LINE
8
BLACK
6
CONTINUOUS
10
5.47356
20
-4.74806
11
5.52856
21
-4.74806
0
LINE
8
BLACK
6
CONTINUOUS
10
5.52856
20
-4.74806
11
5.52856
21
-4.78306
0
LINE
8
BLACK
6
CONTINUOUS
10
5.62856
20
-4.78306
11
5.57356
21
-4.78306
0
LINE
8
BLACK
6
CONTINUOUS
10
5.57356
20
-4.78306
11
5.57356
21
-4.74806
0
LINE
8
BLACK
6
CONTINUOUS
10
5.57356
20
-4.74806
11
5.62856
21
-4.74806
0
LINE
8
BLACK
6
CONTINUOUS
10
5.62856
20
-4.74806
11
5.62856
21
-4.78306
0
LINE
8
BLACK
6
CONTINUOUS
10
6.02856
20
-4.78306
11
5.97356
21
-4.78306
0
LINE
8
BLACK
6
CONTINUOUS
10
5.97356
20
-4.78306
11
5.97356
21
-4.74806
0
LINE
8
BLACK
6
CONTINUOUS
10
5.97356
20
-4.74806
11
6.02856
21
-4.74806
0
LINE
8
BLACK
6
CONTINUOUS
10
6.02856
20
-4.74806
11
6.02856
21
-4.78306
0
LINE
8
BLACK
6
CONTINUOUS
10
6.12856
20
-4.78306
11
6.07356
21
-4.78306
0
LINE
8
BLACK
6
CONTINUOUS
10
6.07356
20
-4.78306
11
6.07356
21
-4.74806
0
LINE
8
BLACK
6
CONTINUOUS
10
6.07356
20
-4.74806
11
6.12856
21
-4.74806
0
LINE
8
BLACK
6
CONTINUOUS
10
6.12856
20
-4.74806
11
6.12856
21
-4.78306
0
LINE
8
BLACK
6
CONTINUOUS
10
6.62559
20
-4.75845
11
6.56654
21
-4.75845
0
LINE
8
BLACK
6
CONTINUOUS
10
6.56654
20
-4.75845
11
6.56654
21
-4.72105
0
LINE
8
BLACK
6
CONTINUOUS
10
6.56654
20
-4.72105
11
6.62559
21
-4.72105
0
LINE
8
BLACK
6
CONTINUOUS
10
6.62559
20
-4.72105
11
6.62559
21
-4.75845
0
LINE
8
BLACK
6
CONTINUOUS
10
6.76559
20
-4.75845
11
6.70654
21
-4.75845
0
LINE
8
BLACK
6
CONTINUOUS
10
6.70654
20
-4.75845
11
6.70654
21
-4.72105
0
LINE
8
BLACK
6
CONTINUOUS
10
6.70654
20
-4.72105
11
6.76559
21
-4.72105
0
LINE
8
BLACK
6
CONTINUOUS
10
6.76559
20
-4.72105
11
6.76559
21
-4.75845
0
LINE
8
BLACK
6
CONTINUOUS
10
5.52856
20
-4.70806
11
5.47356
21
-4.70806
0
LINE
8
BLACK
6
CONTINUOUS
10
5.47356
20
-4.70806
11
5.47356
21
-4.67306
0
LINE
8
BLACK
6
CONTINUOUS
10
5.47356
20
-4.67306
11
5.52856
21
-4.67306
0
LINE
8
BLACK
6
CONTINUOUS
10
5.52856
20
-4.67306
11
5.52856
21
-4.70806
0
LINE
8
BLACK
6
CONTINUOUS
10
5.62856
20
-4.70806
11
5.57356
21
-4.70806
0
LINE
8
BLACK
6
CONTINUOUS
10
5.57356
20
-4.70806
11
5.57356
21
-4.67306
0
LINE
8
BLACK
6
CONTINUOUS
10
5.57356
20
-4.67306
11
5.62856
21
-4.67306
0
LINE
8
BLACK
6
CONTINUOUS
10
5.62856
20
-4.67306
11
5.62856
21
-4.70806
0
LINE
8
BLACK
6
CONTINUOUS
10
6.02856
20
-4.70806
11
5.97356
21
-4.70806
0
LINE
8
BLACK
6
CONTINUOUS
10
5.97356
20
-4.70806
11
5.97356
21
-4.67306
0
LINE
8
BLACK
6
CONTINUOUS
10
5.97356
20
-4.67306
11
6.02856
21
-4.67306
0
LINE
8
BLACK
6
CONTINUOUS
10
6.02856
20
-4.67306
11
6.02856
21
-4.70806
0
LINE
8
BLACK
6
CONTINUOUS
10
6.12856
20
-4.70806
11
6.07356
21
-4.70806
0
LINE
8
BLACK
6
CONTINUOUS
10
6.07356
20
-4.70806
11
6.07356
21
-4.67306
0
LINE
8
BLACK
6
CONTINUOUS
10
6.07356
20
-4.67306
11
6.12856
21
-4.67306
0
LINE
8
BLACK
6
CONTINUOUS
10
6.12856
20
-4.67306
11
6.12856
21
-4.70806
0
LINE
8
BLACK
6
CONTINUOUS
10
6.62559
20
-4.59507
11
6.56654
21
-4.59507
0
LINE
8
BLACK
6
CONTINUOUS
10
6.56654
20
-4.59507
11
6.56654
21
-4.55766
0
LINE
8
BLACK
6
CONTINUOUS
10
6.56654
20
-4.55766
11
6.62559
21
-4.55766
0
LINE
8
BLACK
6
CONTINUOUS
10
6.62559
20
-4.55766
11
6.62559
21
-4.59507
0
LINE
8
BLACK
6
CONTINUOUS
10
6.76559
20
-4.59507
11
6.70654
21
-4.59507
0
LINE
8
BLACK
6
CONTINUOUS
10
6.70654
20
-4.59507
11
6.70654
21
-4.55766
0
LINE
8
BLACK
6
CONTINUOUS
10
6.70654
20
-4.55766
11
6.76559
21
-4.55766
0
LINE
8
BLACK
6
CONTINUOUS
10
6.76559
20
-4.55766
11
6.76559
21
-4.59507
0
LINE
8
BLACK
6
CONTINUOUS
10
6.76356
20
-4.52306
11
6.70856
21
-4.52306
0
LINE
8
BLACK
6
CONTINUOUS
10
6.70856
20
-4.52306
11
6.70856
21
-4.48806
0
LINE
8
BLACK
6
CONTINUOUS
10
6.70856
20
-4.48806
11
6.76356
21
-4.48806
0
LINE
8
BLACK
6
CONTINUOUS
10
6.76356
20
-4.48806
11
6.76356
21
-4.52306
0
LINE
8
BLACK
6
CONTINUOUS
10
6.62356
20
-4.52056
11
6.56856
21
-4.52056
0
LINE
8
BLACK
6
CONTINUOUS
10
6.56856
20
-4.52056
11
6.56856
21
-4.48556
0
LINE
8
BLACK
6
CONTINUOUS
10
6.56856
20
-4.48556
11
6.62356
21
-4.48556
0
LINE
8
BLACK
6
CONTINUOUS
10
6.62356
20
-4.48556
11
6.62356
21
-4.52056
0
LINE
8
BLACK
6
CONTINUOUS
10
6.76356
20
-4.44806
11
6.70856
21
-4.44806
0
LINE
8
BLACK
6
CONTINUOUS
10
6.70856
20
-4.44806
11
6.70856
21
-4.41306
0
LINE
8
BLACK
6
CONTINUOUS
10
6.70856
20
-4.41306
11
6.76356
21
-4.41306
0
LINE
8
BLACK
6
CONTINUOUS
10
6.76356
20
-4.41306
11
6.76356
21
-4.44806
0
LINE
8
BLACK
6
CONTINUOUS
10
6.62356
20
-4.44556
11
6.56856
21
-4.44556
0
LINE
8
BLACK
6
CONTINUOUS
10
6.56856
20
-4.44556
11
6.56856
21
-4.41056
0
LINE
8
BLACK
6
CONTINUOUS
10
6.56856
20
-4.41056
11
6.62356
21
-4.41056
0
LINE
8
BLACK
6
CONTINUOUS
10
6.62356
20
-4.41056
11
6.62356
21
-4.44556
0
LINE
8
BLACK
6
CONTINUOUS
10
6.44559
20
-4.43995
11
6.38654
21
-4.43995
0
LINE
8
BLACK
6
CONTINUOUS
10
6.38654
20
-4.43995
11
6.38654
21
-4.38877
0
LINE
8
BLACK
6
CONTINUOUS
10
6.38654
20
-4.38877
11
6.44559
21
-4.38877
0
LINE
8
BLACK
6
CONTINUOUS
10
6.44559
20
-4.38877
11
6.44559
21
-4.43995
0
LINE
8
BLACK
6
CONTINUOUS
10
5.32856
20
-4.40806
11
5.27356
21
-4.40806
0
LINE
8
BLACK
6
CONTINUOUS
10
5.27356
20
-4.40806
11
5.27356
21
-4.37306
0
LINE
8
BLACK
6
CONTINUOUS
10
5.27356
20
-4.37306
11
5.32856
21
-4.37306
0
LINE
8
BLACK
6
CONTINUOUS
10
5.32856
20
-4.37306
11
5.32856
21
-4.40806
0
LINE
8
BLACK
6
CONTINUOUS
10
5.42856
20
-4.40806
11
5.37356
21
-4.40806
0
LINE
8
BLACK
6
CONTINUOUS
10
5.37356
20
-4.40806
11
5.37356
21
-4.37306
0
LINE
8
BLACK
6
CONTINUOUS
10
5.37356
20
-4.37306
11
5.42856
21
-4.37306
0
LINE
8
BLACK
6
CONTINUOUS
10
5.42856
20
-4.37306
11
5.42856
21
-4.40806
0
LINE
8
BLACK
6
CONTINUOUS
10
5.52856
20
-4.40806
11
5.47356
21
-4.40806
0
LINE
8
BLACK
6
CONTINUOUS
10
5.47356
20
-4.40806
11
5.47356
21
-4.37306
0
LINE
8
BLACK
6
CONTINUOUS
10
5.47356
20
-4.37306
11
5.52856
21
-4.37306
0
LINE
8
BLACK
6
CONTINUOUS
10
5.52856
20
-4.37306
11
5.52856
21
-4.40806
0
LINE
8
BLACK
6
CONTINUOUS
10
5.62856
20
-4.40806
11
5.57356
21
-4.40806
0
LINE
8
BLACK
6
CONTINUOUS
10
5.57356
20
-4.40806
11
5.57356
21
-4.37306
0
LINE
8
BLACK
6
CONTINUOUS
10
5.57356
20
-4.37306
11
5.62856
21
-4.37306
0
LINE
8
BLACK
6
CONTINUOUS
10
5.62856
20
-4.37306
11
5.62856
21
-4.40806
0
LINE
8
BLACK
6
CONTINUOUS
10
5.82856
20
-4.40806
11
5.77356
21
-4.40806
0
LINE
8
BLACK
6
CONTINUOUS
10
5.77356
20
-4.40806
11
5.77356
21
-4.37306
0
LINE
8
BLACK
6
CONTINUOUS
10
5.77356
20
-4.37306
11
5.82856
21
-4.37306
0
LINE
8
BLACK
6
CONTINUOUS
10
5.82856
20
-4.37306
11
5.82856
21
-4.40806
0
LINE
8
BLACK
6
CONTINUOUS
10
5.92856
20
-4.40806
11
5.87356
21
-4.40806
0
LINE
8
BLACK
6
CONTINUOUS
10
5.87356
20
-4.40806
11
5.87356
21
-4.37306
0
LINE
8
BLACK
6
CONTINUOUS
10
5.87356
20
-4.37306
11
5.92856
21
-4.37306
0
LINE
8
BLACK
6
CONTINUOUS
10
5.92856
20
-4.37306
11
5.92856
21
-4.40806
0
LINE
8
BLACK
6
CONTINUOUS
10
6.02856
20
-4.40806
11
5.97356
21
-4.40806
0
LINE
8
BLACK
6
CONTINUOUS
10
5.97356
20
-4.40806
11
5.97356
21
-4.37306
0
LINE
8
BLACK
6
CONTINUOUS
10
5.97356
20
-4.37306
11
6.02856
21
-4.37306
0
LINE
8
BLACK
6
CONTINUOUS
10
6.02856
20
-4.37306
11
6.02856
21
-4.40806
0
LINE
8
BLACK
6
CONTINUOUS
10
6.12856
20
-4.40806
11
6.07356
21
-4.40806
0
LINE
8
BLACK
6
CONTINUOUS
10
6.07356
20
-4.40806
11
6.07356
21
-4.37306
0
LINE
8
BLACK
6
CONTINUOUS
10
6.07356
20
-4.37306
11
6.12856
21
-4.37306
0
LINE
8
BLACK
6
CONTINUOUS
10
6.12856
20
-4.37306
11
6.12856
21
-4.40806
0
LINE
8
BLACK
6
CONTINUOUS
10
6.22856
20
-4.40806
11
6.17356
21
-4.40806
0
LINE
8
BLACK
6
CONTINUOUS
10
6.17356
20
-4.40806
11
6.17356
21
-4.37306
0
LINE
8
BLACK
6
CONTINUOUS
10
6.17356
20
-4.37306
11
6.22856
21
-4.37306
0
LINE
8
BLACK
6
CONTINUOUS
10
6.22856
20
-4.37306
11
6.22856
21
-4.40806
0
LINE
8
BLACK
6
CONTINUOUS
10
6.32856
20
-4.38306
11
6.27356
21
-4.38306
0
LINE
8
BLACK
6
CONTINUOUS
10
6.27356
20
-4.38306
11
6.27356
21
-4.34806
0
LINE
8
BLACK
6
CONTINUOUS
10
6.27356
20
-4.34806
11
6.32856
21
-4.34806
0
LINE
8
BLACK
6
CONTINUOUS
10
6.32856
20
-4.34806
11
6.32856
21
-4.38306
0
LINE
8
BLACK
6
CONTINUOUS
10
6.47512
20
-4.37499
11
6.35701
21
-4.37499
0
LINE
8
BLACK
6
CONTINUOUS
10
6.35701
20
-4.37499
11
6.35701
21
-4.34743
0
LINE
8
BLACK
6
CONTINUOUS
10
6.35701
20
-4.34743
11
6.47512
21
-4.34743
0
LINE
8
BLACK
6
CONTINUOUS
10
6.47512
20
-4.34743
11
6.47512
21
-4.37499
0
LINE
8
BLACK
6
CONTINUOUS
10
6.54441
20
-4.37121
11
6.50898
21
-4.37121
0
LINE
8
BLACK
6
CONTINUOUS
10
6.50898
20
-4.37121
11
6.50898
21
-4.33971
0
LINE
8
BLACK
6
CONTINUOUS
10
6.50898
20
-4.33971
11
6.54441
21
-4.33971
0
LINE
8
BLACK
6
CONTINUOUS
10
6.54441
20
-4.33971
11
6.54441
21
-4.37121
0
LINE
8
BLACK
6
CONTINUOUS
10
6.69441
20
-4.37121
11
6.65898
21
-4.37121
0
LINE
8
BLACK
6
CONTINUOUS
10
6.65898
20
-4.37121
11
6.65898
21
-4.33971
0
LINE
8
BLACK
6
CONTINUOUS
10
6.65898
20
-4.33971
11
6.69441
21
-4.33971
0
LINE
8
BLACK
6
CONTINUOUS
10
6.69441
20
-4.33971
11
6.69441
21
-4.37121
0
LINE
8
BLACK
6
CONTINUOUS
10
6.62315
20
-4.33381
11
6.58772
21
-4.33381
0
LINE
8
BLACK
6
CONTINUOUS
10
6.58772
20
-4.33381
11
6.58772
21
-4.30231
0
LINE
8
BLACK
6
CONTINUOUS
10
6.58772
20
-4.30231
11
6.62315
21
-4.30231
0
LINE
8
BLACK
6
CONTINUOUS
10
6.62315
20
-4.30231
11
6.62315
21
-4.33381
0
LINE
8
BLACK
6
CONTINUOUS
10
6.77315
20
-4.33381
11
6.73772
21
-4.33381
0
LINE
8
BLACK
6
CONTINUOUS
10
6.73772
20
-4.33381
11
6.73772
21
-4.30231
0
LINE
8
BLACK
6
CONTINUOUS
10
6.73772
20
-4.30231
11
6.77315
21
-4.30231
0
LINE
8
BLACK
6
CONTINUOUS
10
6.77315
20
-4.30231
11
6.77315
21
-4.33381
0
LINE
8
BLACK
6
CONTINUOUS
10
6.44559
20
-4.33365
11
6.38654
21
-4.33365
0
LINE
8
BLACK
6
CONTINUOUS
10
6.38654
20
-4.33365
11
6.38654
21
-4.28247
0
LINE
8
BLACK
6
CONTINUOUS
10
6.38654
20
-4.28247
11
6.44559
21
-4.28247
0
LINE
8
BLACK
6
CONTINUOUS
10
6.44559
20
-4.28247
11
6.44559
21
-4.33365
0
LINE
8
BLACK
6
CONTINUOUS
10
5.32856
20
-4.33306
11
5.27356
21
-4.33306
0
LINE
8
BLACK
6
CONTINUOUS
10
5.27356
20
-4.33306
11
5.27356
21
-4.29806
0
LINE
8
BLACK
6
CONTINUOUS
10
5.27356
20
-4.29806
11
5.32856
21
-4.29806
0
LINE
8
BLACK
6
CONTINUOUS
10
5.32856
20
-4.29806
11
5.32856
21
-4.33306
0
LINE
8
BLACK
6
CONTINUOUS
10
5.42856
20
-4.33306
11
5.37356
21
-4.33306
0
LINE
8
BLACK
6
CONTINUOUS
10
5.37356
20
-4.33306
11
5.37356
21
-4.29806
0
LINE
8
BLACK
6
CONTINUOUS
10
5.37356
20
-4.29806
11
5.42856
21
-4.29806
0
LINE
8
BLACK
6
CONTINUOUS
10
5.42856
20
-4.29806
11
5.42856
21
-4.33306
0
LINE
8
BLACK
6
CONTINUOUS
10
5.52856
20
-4.33306
11
5.47356
21
-4.33306
0
LINE
8
BLACK
6
CONTINUOUS
10
5.47356
20
-4.33306
11
5.47356
21
-4.29806
0
LINE
8
BLACK
6
CONTINUOUS
10
5.47356
20
-4.29806
11
5.52856
21
-4.29806
0
LINE
8
BLACK
6
CONTINUOUS
10
5.52856
20
-4.29806
11
5.52856
21
-4.33306
0
LINE
8
BLACK
6
CONTINUOUS
10
5.62856
20
-4.33306
11
5.57356
21
-4.33306
0
LINE
8
BLACK
6
CONTINUOUS
10
5.57356
20
-4.33306
11
5.57356
21
-4.29806
0
LINE
8
BLACK
6
CONTINUOUS
10
5.57356
20
-4.29806
11
5.62856
21
-4.29806
0
LINE
8
BLACK
6
CONTINUOUS
10
5.62856
20
-4.29806
11
5.62856
21
-4.33306
0
LINE
8
BLACK
6
CONTINUOUS
10
5.82856
20
-4.33306
11
5.77356
21
-4.33306
0
LINE
8
BLACK
6
CONTINUOUS
10
5.77356
20
-4.33306
11
5.77356
21
-4.29806
0
LINE
8
BLACK
6
CONTINUOUS
10
5.77356
20
-4.29806
11
5.82856
21
-4.29806
0
LINE
8
BLACK
6
CONTINUOUS
10
5.82856
20
-4.29806
11
5.82856
21
-4.33306
0
LINE
8
BLACK
6
CONTINUOUS
10
5.92856
20
-4.33306
11
5.87356
21
-4.33306
0
LINE
8
BLACK
6
CONTINUOUS
10
5.87356
20
-4.33306
11
5.87356
21
-4.29806
0
LINE
8
BLACK
6
CONTINUOUS
10
5.87356
20
-4.29806
11
5.92856
21
-4.29806
0
LINE
8
BLACK
6
CONTINUOUS
10
5.92856
20
-4.29806
11
5.92856
21
-4.33306
0
LINE
8
BLACK
6
CONTINUOUS
10
6.02856
20
-4.33306
11
5.97356
21
-4.33306
0
LINE
8
BLACK
6
CONTINUOUS
10
5.97356
20
-4.33306
11
5.97356
21
-4.29806
0
LINE
8
BLACK
6
CONTINUOUS
10
5.97356
20
-4.29806
11
6.02856
21
-4.29806
0
LINE
8
BLACK
6
CONTINUOUS
10
6.02856
20
-4.29806
11
6.02856
21
-4.33306
0
LINE
8
BLACK
6
CONTINUOUS
10
6.12856
20
-4.33306
11
6.07356
21
-4.33306
0
LINE
8
BLACK
6
CONTINUOUS
10
6.07356
20
-4.33306
11
6.07356
21
-4.29806
0
LINE
8
BLACK
6
CONTINUOUS
10
6.07356
20
-4.29806
11
6.12856
21
-4.29806
0
LINE
8
BLACK
6
CONTINUOUS
10
6.12856
20
-4.29806
11
6.12856
21
-4.33306
0
LINE
8
BLACK
6
CONTINUOUS
10
6.22856
20
-4.33306
11
6.17356
21
-4.33306
0
LINE
8
BLACK
6
CONTINUOUS
10
6.17356
20
-4.33306
11
6.17356
21
-4.29806
0
LINE
8
BLACK
6
CONTINUOUS
10
6.17356
20
-4.29806
11
6.22856
21
-4.29806
0
LINE
8
BLACK
6
CONTINUOUS
10
6.22856
20
-4.29806
11
6.22856
21
-4.33306
0
LINE
8
BLACK
6
CONTINUOUS
10
6.32856
20
-4.30806
11
6.27356
21
-4.30806
0
LINE
8
BLACK
6
CONTINUOUS
10
6.27356
20
-4.30806
11
6.27356
21
-4.27306
0
LINE
8
BLACK
6
CONTINUOUS
10
6.27356
20
-4.27306
11
6.32856
21
-4.27306
0
LINE
8
BLACK
6
CONTINUOUS
10
6.32856
20
-4.27306
11
6.32856
21
-4.30806
0
LINE
8
BLACK
6
CONTINUOUS
10
6.54441
20
-4.29641
11
6.50898
21
-4.29641
0
LINE
8
BLACK
6
CONTINUOUS
10
6.50898
20
-4.29641
11
6.50898
21
-4.26491
0
LINE
8
BLACK
6
CONTINUOUS
10
6.50898
20
-4.26491
11
6.54441
21
-4.26491
0
LINE
8
BLACK
6
CONTINUOUS
10
6.54441
20
-4.26491
11
6.54441
21
-4.29641
0
LINE
8
BLACK
6
CONTINUOUS
10
6.69441
20
-4.29641
11
6.65898
21
-4.29641
0
LINE
8
BLACK
6
CONTINUOUS
10
6.65898
20
-4.29641
11
6.65898
21
-4.26491
0
LINE
8
BLACK
6
CONTINUOUS
10
6.65898
20
-4.26491
11
6.69441
21
-4.26491
0
LINE
8
BLACK
6
CONTINUOUS
10
6.69441
20
-4.26491
11
6.69441
21
-4.29641
0
LINE
8
BLACK
6
CONTINUOUS
10
5.83856
20
-4.26556
11
5.80356
21
-4.26556
0
LINE
8
BLACK
6
CONTINUOUS
10
5.80356
20
-4.26556
11
5.80356
21
-4.21056
0
LINE
8
BLACK
6
CONTINUOUS
10
5.80356
20
-4.21056
11
5.83856
21
-4.21056
0
LINE
8
BLACK
6
CONTINUOUS
10
5.83856
20
-4.21056
11
5.83856
21
-4.26556
0
LINE
8
BLACK
6
CONTINUOUS
10
5.91356
20
-4.26556
11
5.87856
21
-4.26556
0
LINE
8
BLACK
6
CONTINUOUS
10
5.87856
20
-4.26556
11
5.87856
21
-4.21056
0
LINE
8
BLACK
6
CONTINUOUS
10
5.87856
20
-4.21056
11
5.91356
21
-4.21056
0
LINE
8
BLACK
6
CONTINUOUS
10
5.91356
20
-4.21056
11
5.91356
21
-4.26556
0
LINE
8
BLACK
6
CONTINUOUS
10
6.16356
20
-4.25806
11
6.10856
21
-4.25806
0
LINE
8
BLACK
6
CONTINUOUS
10
6.10856
20
-4.25806
11
6.10856
21
-4.22306
0
LINE
8
BLACK
6
CONTINUOUS
10
6.10856
20
-4.22306
11
6.16356
21
-4.22306
0
LINE
8
BLACK
6
CONTINUOUS
10
6.16356
20
-4.22306
11
6.16356
21
-4.25806
0
LINE
8
BLACK
6
CONTINUOUS
10
6.24356
20
-4.25806
11
6.18856
21
-4.25806
0
LINE
8
BLACK
6
CONTINUOUS
10
6.18856
20
-4.25806
11
6.18856
21
-4.22306
0
LINE
8
BLACK
6
CONTINUOUS
10
6.18856
20
-4.22306
11
6.24356
21
-4.22306
0
LINE
8
BLACK
6
CONTINUOUS
10
6.24356
20
-4.22306
11
6.24356
21
-4.25806
0
LINE
8
BLACK
6
CONTINUOUS
10
6.08356
20
-4.25556
11
6.02856
21
-4.25556
0
LINE
8
BLACK
6
CONTINUOUS
10
6.02856
20
-4.25556
11
6.02856
21
-4.22056
0
LINE
8
BLACK
6
CONTINUOUS
10
6.02856
20
-4.22056
11
6.08356
21
-4.22056
0
LINE
8
BLACK
6
CONTINUOUS
10
6.08356
20
-4.22056
11
6.08356
21
-4.25556
0
LINE
8
BLACK
6
CONTINUOUS
10
6.35856
20
-4.21254
11
6.32356
21
-4.21254
0
LINE
8
BLACK
6
CONTINUOUS
10
6.32356
20
-4.21254
11
6.32356
21
-4.15754
0
LINE
8
BLACK
6
CONTINUOUS
10
6.32356
20
-4.15754
11
6.35856
21
-4.15754
0
LINE
8
BLACK
6
CONTINUOUS
10
6.35856
20
-4.15754
11
6.35856
21
-4.21254
0
LINE
8
BLACK
6
CONTINUOUS
10
6.43356
20
-4.21254
11
6.39856
21
-4.21254
0
LINE
8
BLACK
6
CONTINUOUS
10
6.39856
20
-4.21254
11
6.39856
21
-4.15754
0
LINE
8
BLACK
6
CONTINUOUS
10
6.39856
20
-4.15754
11
6.43356
21
-4.15754
0
LINE
8
BLACK
6
CONTINUOUS
10
6.43356
20
-4.15754
11
6.43356
21
-4.21254
0
LINE
8
BLACK
6
CONTINUOUS
10
6.16356
20
-4.18306
11
6.10856
21
-4.18306
0
LINE
8
BLACK
6
CONTINUOUS
10
6.10856
20
-4.18306
11
6.10856
21
-4.14806
0
LINE
8
BLACK
6
CONTINUOUS
10
6.10856
20
-4.14806
11
6.16356
21
-4.14806
0
LINE
8
BLACK
6
CONTINUOUS
10
6.16356
20
-4.14806
11
6.16356
21
-4.18306
0
LINE
8
BLACK
6
CONTINUOUS
10
6.24356
20
-4.18306
11
6.18856
21
-4.18306
0
LINE
8
BLACK
6
CONTINUOUS
10
6.18856
20
-4.18306
11
6.18856
21
-4.14806
0
LINE
8
BLACK
6
CONTINUOUS
10
6.18856
20
-4.14806
11
6.24356
21
-4.14806
0
LINE
8
BLACK
6
CONTINUOUS
10
6.24356
20
-4.14806
11
6.24356
21
-4.18306
0
LINE
8
BLACK
6
CONTINUOUS
10
6.08356
20
-4.18056
11
6.02856
21
-4.18056
0
LINE
8
BLACK
6
CONTINUOUS
10
6.02856
20
-4.18056
11
6.02856
21
-4.14556
0
LINE
8
BLACK
6
CONTINUOUS
10
6.02856
20
-4.14556
11
6.08356
21
-4.14556
0
LINE
8
BLACK
6
CONTINUOUS
10
6.08356
20
-4.14556
11
6.08356
21
-4.18056
0
LINE
8
BLACK
6
CONTINUOUS
10
5.21106
20
-4.16306
11
5.13106
21
-4.16306
0
LINE
8
BLACK
6
CONTINUOUS
10
5.13106
20
-4.16306
11
5.13106
21
-4.12306
0
LINE
8
BLACK
6
CONTINUOUS
10
5.13106
20
-4.12306
11
5.21106
21
-4.12306
0
LINE
8
BLACK
6
CONTINUOUS
10
5.21106
20
-4.12306
11
5.21106
21
-4.16306
0
LINE
8
BLACK
6
CONTINUOUS
10
5.47106
20
-4.12506
11
5.39106
21
-4.12506
0
LINE
8
BLACK
6
CONTINUOUS
10
5.39106
20
-4.12506
11
5.39106
21
-3.98106
0
LINE
8
BLACK
6
CONTINUOUS
10
5.39106
20
-3.98106
11
5.47106
21
-3.98106
0
LINE
8
BLACK
6
CONTINUOUS
10
5.47106
20
-3.98106
11
5.47106
21
-4.12506
0
LINE
8
BLACK
6
CONTINUOUS
10
5.81588
20
-4.08297
11
5.81668
21
-4.0835
0
LINE
8
BLACK
6
CONTINUOUS
10
5.81668
20
-4.0835
11
5.81722
21
-4.0843
0
LINE
8
BLACK
6
CONTINUOUS
10
5.81722
20
-4.0843
11
5.8174
21
-4.08524
0
LINE
8
BLACK
6
CONTINUOUS
10
5.8174
20
-4.08524
11
5.8174
21
-4.11379
0
LINE
8
BLACK
6
CONTINUOUS
10
5.8174
20
-4.11379
11
5.81722
21
-4.11473
0
LINE
8
BLACK
6
CONTINUOUS
10
5.81722
20
-4.11473
11
5.81668
21
-4.11553
0
LINE
8
BLACK
6
CONTINUOUS
10
5.81668
20
-4.11553
11
5.81588
21
-4.11606
0
LINE
8
BLACK
6
CONTINUOUS
10
5.81588
20
-4.11606
11
5.81494
21
-4.11625
0
LINE
8
BLACK
6
CONTINUOUS
10
5.81494
20
-4.11625
11
5.81002
21
-4.11625
0
LINE
8
BLACK
6
CONTINUOUS
10
5.81002
20
-4.11625
11
5.80908
21
-4.11606
0
LINE
8
BLACK
6
CONTINUOUS
10
5.80908
20
-4.11606
11
5.80828
21
-4.11553
0
LINE
8
BLACK
6
CONTINUOUS
10
5.80828
20
-4.11553
11
5.80775
21
-4.11473
0
LINE
8
BLACK
6
CONTINUOUS
10
5.80775
20
-4.11473
11
5.80756
21
-4.11379
0
LINE
8
BLACK
6
CONTINUOUS
10
5.80756
20
-4.11379
11
5.80756
21
-4.08524
0
LINE
8
BLACK
6
CONTINUOUS
10
5.80756
20
-4.08524
11
5.80775
21
-4.0843
0
LINE
8
BLACK
6
CONTINUOUS
10
5.80775
20
-4.0843
11
5.80828
21
-4.0835
0
LINE
8
BLACK
6
CONTINUOUS
10
5.80828
20
-4.0835
11
5.80908
21
-4.08297
0
LINE
8
BLACK
6
CONTINUOUS
10
5.80908
20
-4.08297
11
5.81002
21
-4.08278
0
LINE
8
BLACK
6
CONTINUOUS
10
5.81002
20
-4.08278
11
5.81494
21
-4.08278
0
LINE
8
BLACK
6
CONTINUOUS
10
5.81494
20
-4.08278
11
5.81588
21
-4.08297
0
LINE
8
BLACK
6
CONTINUOUS
10
5.83557
20
-4.08297
11
5.83637
21
-4.0835
0
LINE
8
BLACK
6
CONTINUOUS
10
5.83637
20
-4.0835
11
5.8369
21
-4.0843
0
LINE
8
BLACK
6
CONTINUOUS
10
5.8369
20
-4.0843
11
5.83709
21
-4.08524
0
LINE
8
BLACK
6
CONTINUOUS
10
5.83709
20
-4.08524
11
5.83709
21
-4.11379
0
LINE
8
BLACK
6
CONTINUOUS
10
5.83709
20
-4.11379
11
5.8369
21
-4.11473
0
LINE
8
BLACK
6
CONTINUOUS
10
5.8369
20
-4.11473
11
5.83637
21
-4.11553
0
LINE
8
BLACK
6
CONTINUOUS
10
5.83637
20
-4.11553
11
5.83557
21
-4.11606
0
LINE
8
BLACK
6
CONTINUOUS
10
5.83557
20
-4.11606
11
5.83463
21
-4.11625
0
LINE
8
BLACK
6
CONTINUOUS
10
5.83463
20
-4.11625
11
5.82971
21
-4.11625
0
LINE
8
BLACK
6
CONTINUOUS
10
5.82971
20
-4.11625
11
5.82876
21
-4.11606
0
LINE
8
BLACK
6
CONTINUOUS
10
5.82876
20
-4.11606
11
5.82797
21
-4.11553
0
LINE
8
BLACK
6
CONTINUOUS
10
5.82797
20
-4.11553
11
5.82743
21
-4.11473
0
LINE
8
BLACK
6
CONTINUOUS
10
5.82743
20
-4.11473
11
5.82725
21
-4.11379
0
LINE
8
BLACK
6
CONTINUOUS
10
5.82725
20
-4.11379
11
5.82725
21
-4.08524
0
LINE
8
BLACK
6
CONTINUOUS
10
5.82725
20
-4.08524
11
5.82743
21
-4.0843
0
LINE
8
BLACK
6
CONTINUOUS
10
5.82743
20
-4.0843
11
5.82797
21
-4.0835
0
LINE
8
BLACK
6
CONTINUOUS
10
5.82797
20
-4.0835
11
5.82876
21
-4.08297
0
LINE
8
BLACK
6
CONTINUOUS
10
5.82876
20
-4.08297
11
5.82971
21
-4.08278
0
LINE
8
BLACK
6
CONTINUOUS
10
5.82971
20
-4.08278
11
5.83463
21
-4.08278
0
LINE
8
BLACK
6
CONTINUOUS
10
5.83463
20
-4.08278
11
5.83557
21
-4.08297
0
LINE
8
BLACK
6
CONTINUOUS
10
5.85525
20
-4.08297
11
5.85605
21
-4.0835
0
LINE
8
BLACK
6
CONTINUOUS
10
5.85605
20
-4.0835
11
5.85659
21
-4.0843
0
LINE
8
BLACK
6
CONTINUOUS
10
5.85659
20
-4.0843
11
5.85677
21
-4.08524
0
LINE
8
BLACK
6
CONTINUOUS
10
5.85677
20
-4.08524
11
5.85677
21
-4.11379
0
LINE
8
BLACK
6
CONTINUOUS
10
5.85677
20
-4.11379
11
5.85659
21
-4.11473
0
LINE
8
BLACK
6
CONTINUOUS
10
5.85659
20
-4.11473
11
5.85605
21
-4.11553
0
LINE
8
BLACK
6
CONTINUOUS
10
5.85605
20
-4.11553
11
5.85525
21
-4.11606
0
LINE
8
BLACK
6
CONTINUOUS
10
5.85525
20
-4.11606
11
5.85431
21
-4.11625
0
LINE
8
BLACK
6
CONTINUOUS
10
5.85431
20
-4.11625
11
5.84939
21
-4.11625
0
LINE
8
BLACK
6
CONTINUOUS
10
5.84939
20
-4.11625
11
5.84845
21
-4.11606
0
LINE
8
BLACK
6
CONTINUOUS
10
5.84845
20
-4.11606
11
5.84765
21
-4.11553
0
LINE
8
BLACK
6
CONTINUOUS
10
5.84765
20
-4.11553
11
5.84712
21
-4.11473
0
LINE
8
BLACK
6
CONTINUOUS
10
5.84712
20
-4.11473
11
5.84693
21
-4.11379
0
LINE
8
BLACK
6
CONTINUOUS
10
5.84693
20
-4.11379
11
5.84693
21
-4.08524
0
LINE
8
BLACK
6
CONTINUOUS
10
5.84693
20
-4.08524
11
5.84712
21
-4.0843
0
LINE
8
BLACK
6
CONTINUOUS
10
5.84712
20
-4.0843
11
5.84765
21
-4.0835
0
LINE
8
BLACK
6
CONTINUOUS
10
5.84765
20
-4.0835
11
5.84845
21
-4.08297
0
LINE
8
BLACK
6
CONTINUOUS
10
5.84845
20
-4.08297
11
5.84939
21
-4.08278
0
LINE
8
BLACK
6
CONTINUOUS
10
5.84939
20
-4.08278
11
5.85431
21
-4.08278
0
LINE
8
BLACK
6
CONTINUOUS
10
5.85431
20
-4.08278
11
5.85525
21
-4.08297
0
LINE
8
BLACK
6
CONTINUOUS
10
5.87494
20
-4.08297
11
5.87574
21
-4.0835
0
LINE
8
BLACK
6
CONTINUOUS
10
5.87574
20
-4.0835
11
5.87627
21
-4.0843
0
LINE
8
BLACK
6
CONTINUOUS
10
5.87627
20
-4.0843
11
5.87646
21
-4.08524
0
LINE
8
BLACK
6
CONTINUOUS
10
5.87646
20
-4.08524
11
5.87646
21
-4.11379
0
LINE
8
BLACK
6
CONTINUOUS
10
5.87646
20
-4.11379
11
5.87627
21
-4.11473
0
LINE
8
BLACK
6
CONTINUOUS
10
5.87627
20
-4.11473
11
5.87574
21
-4.11553
0
LINE
8
BLACK
6
CONTINUOUS
10
5.87574
20
-4.11553
11
5.87494
21
-4.11606
0
LINE
8
BLACK
6
CONTINUOUS
10
5.87494
20
-4.11606
11
5.874
21
-4.11625
0
LINE
8
BLACK
6
CONTINUOUS
10
5.874
20
-4.11625
11
5.86908
21
-4.11625
0
LINE
8
BLACK
6
CONTINUOUS
10
5.86908
20
-4.11625
11
5.86813
21
-4.11606
0
LINE
8
BLACK
6
CONTINUOUS
10
5.86813
20
-4.11606
11
5.86734
21
-4.11553
0
LINE
8
BLACK
6
CONTINUOUS
10
5.86734
20
-4.11553
11
5.8668
21
-4.11473
0
LINE
8
BLACK
6
CONTINUOUS
10
5.8668
20
-4.11473
11
5.86662
21
-4.11379
0
LINE
8
BLACK
6
CONTINUOUS
10
5.86662
20
-4.11379
11
5.86662
21
-4.08524
0
LINE
8
BLACK
6
CONTINUOUS
10
5.86662
20
-4.08524
11
5.8668
21
-4.0843
0
LINE
8
BLACK
6
CONTINUOUS
10
5.8668
20
-4.0843
11
5.86734
21
-4.0835
0
LINE
8
BLACK
6
CONTINUOUS
10
5.86734
20
-4.0835
11
5.86813
21
-4.08297
0
LINE
8
BLACK
6
CONTINUOUS
10
5.86813
20
-4.08297
11
5.86908
21
-4.08278
0
LINE
8
BLACK
6
CONTINUOUS
10
5.86908
20
-4.08278
11
5.874
21
-4.08278
0
LINE
8
BLACK
6
CONTINUOUS
10
5.874
20
-4.08278
11
5.87494
21
-4.08297
0
LINE
8
BLACK
6
CONTINUOUS
10
5.89462
20
-4.08297
11
5.89542
21
-4.0835
0
LINE
8
BLACK
6
CONTINUOUS
10
5.89542
20
-4.0835
11
5.89596
21
-4.0843
0
LINE
8
BLACK
6
CONTINUOUS
10
5.89596
20
-4.0843
11
5.89614
21
-4.08524
0
LINE
8
BLACK
6
CONTINUOUS
10
5.89614
20
-4.08524
11
5.89614
21
-4.11379
0
LINE
8
BLACK
6
CONTINUOUS
10
5.89614
20
-4.11379
11
5.89596
21
-4.11473
0
LINE
8
BLACK
6
CONTINUOUS
10
5.89596
20
-4.11473
11
5.89542
21
-4.11553
0
LINE
8
BLACK
6
CONTINUOUS
10
5.89542
20
-4.11553
11
5.89462
21
-4.11606
0
LINE
8
BLACK
6
CONTINUOUS
10
5.89462
20
-4.11606
11
5.89368
21
-4.11625
0
LINE
8
BLACK
6
CONTINUOUS
10
5.89368
20
-4.11625
11
5.88876
21
-4.11625
0
LINE
8
BLACK
6
CONTINUOUS
10
5.88876
20
-4.11625
11
5.88782
21
-4.11606
0
LINE
8
BLACK
6
CONTINUOUS
10
5.88782
20
-4.11606
11
5.88702
21
-4.11553
0
LINE
8
BLACK
6
CONTINUOUS
10
5.88702
20
-4.11553
11
5.88649
21
-4.11473
0
LINE
8
BLACK
6
CONTINUOUS
10
5.88649
20
-4.11473
11
5.8863
21
-4.11379
0
LINE
8
BLACK
6
CONTINUOUS
10
5.8863
20
-4.11379
11
5.8863
21
-4.08524
0
LINE
8
BLACK
6
CONTINUOUS
10
5.8863
20
-4.08524
11
5.88649
21
-4.0843
0
LINE
8
BLACK
6
CONTINUOUS
10
5.88649
20
-4.0843
11
5.88702
21
-4.0835
0
LINE
8
BLACK
6
CONTINUOUS
10
5.88702
20
-4.0835
11
5.88782
21
-4.08297
0
LINE
8
BLACK
6
CONTINUOUS
10
5.88782
20
-4.08297
11
5.88876
21
-4.08278
0
LINE
8
BLACK
6
CONTINUOUS
10
5.88876
20
-4.08278
11
5.89368
21
-4.08278
0
LINE
8
BLACK
6
CONTINUOUS
10
5.89368
20
-4.08278
11
5.89462
21
-4.08297
0
LINE
8
BLACK
6
CONTINUOUS
10
5.91431
20
-4.08297
11
5.91511
21
-4.0835
0
LINE
8
BLACK
6
CONTINUOUS
10
5.91511
20
-4.0835
11
5.91564
21
-4.0843
0
LINE
8
BLACK
6
CONTINUOUS
10
5.91564
20
-4.0843
11
5.91583
21
-4.08524
0
LINE
8
BLACK
6
CONTINUOUS
10
5.91583
20
-4.08524
11
5.91583
21
-4.11379
0
LINE
8
BLACK
6
CONTINUOUS
10
5.91583
20
-4.11379
11
5.91564
21
-4.11473
0
LINE
8
BLACK
6
CONTINUOUS
10
5.91564
20
-4.11473
11
5.91511
21
-4.11553
0
LINE
8
BLACK
6
CONTINUOUS
10
5.91511
20
-4.11553
11
5.91431
21
-4.11606
0
LINE
8
BLACK
6
CONTINUOUS
10
5.91431
20
-4.11606
11
5.91337
21
-4.11625
0
LINE
8
BLACK
6
CONTINUOUS
10
5.91337
20
-4.11625
11
5.90845
21
-4.11625
0
LINE
8
BLACK
6
CONTINUOUS
10
5.90845
20
-4.11625
11
5.90751
21
-4.11606
0
LINE
8
BLACK
6
CONTINUOUS
10
5.90751
20
-4.11606
11
5.90671
21
-4.11553
0
LINE
8
BLACK
6
CONTINUOUS
10
5.90671
20
-4.11553
11
5.90617
21
-4.11473
0
LINE
8
BLACK
6
CONTINUOUS
10
5.90617
20
-4.11473
11
5.90599
21
-4.11379
0
LINE
8
BLACK
6
CONTINUOUS
10
5.90599
20
-4.11379
11
5.90599
21
-4.08524
0
LINE
8
BLACK
6
CONTINUOUS
10
5.90599
20
-4.08524
11
5.90617
21
-4.0843
0
LINE
8
BLACK
6
CONTINUOUS
10
5.90617
20
-4.0843
11
5.90671
21
-4.0835
0
LINE
8
BLACK
6
CONTINUOUS
10
5.90671
20
-4.0835
11
5.90751
21
-4.08297
0
LINE
8
BLACK
6
CONTINUOUS
10
5.90751
20
-4.08297
11
5.90845
21
-4.08278
0
LINE
8
BLACK
6
CONTINUOUS
10
5.90845
20
-4.08278
11
5.91337
21
-4.08278
0
LINE
8
BLACK
6
CONTINUOUS
10
5.91337
20
-4.08278
11
5.91431
21
-4.08297
0
LINE
8
BLACK
6
CONTINUOUS
10
5.93399
20
-4.08297
11
5.93479
21
-4.0835
0
LINE
8
BLACK
6
CONTINUOUS
10
5.93479
20
-4.0835
11
5.93533
21
-4.0843
0
LINE
8
BLACK
6
CONTINUOUS
10
5.93533
20
-4.0843
11
5.93551
21
-4.08524
0
LINE
8
BLACK
6
CONTINUOUS
10
5.93551
20
-4.08524
11
5.93551
21
-4.11379
0
LINE
8
BLACK
6
CONTINUOUS
10
5.93551
20
-4.11379
11
5.93533
21
-4.11473
0
LINE
8
BLACK
6
CONTINUOUS
10
5.93533
20
-4.11473
11
5.93479
21
-4.11553
0
LINE
8
BLACK
6
CONTINUOUS
10
5.93479
20
-4.11553
11
5.93399
21
-4.11606
0
LINE
8
BLACK
6
CONTINUOUS
10
5.93399
20
-4.11606
11
5.93305
21
-4.11625
0
LINE
8
BLACK
6
CONTINUOUS
10
5.93305
20
-4.11625
11
5.92813
21
-4.11625
0
LINE
8
BLACK
6
CONTINUOUS
10
5.92813
20
-4.11625
11
5.92719
21
-4.11606
0
LINE
8
BLACK
6
CONTINUOUS
10
5.92719
20
-4.11606
11
5.92639
21
-4.11553
0
LINE
8
BLACK
6
CONTINUOUS
10
5.92639
20
-4.11553
11
5.92586
21
-4.11473
0
LINE
8
BLACK
6
CONTINUOUS
10
5.92586
20
-4.11473
11
5.92567
21
-4.11379
0
LINE
8
BLACK
6
CONTINUOUS
10
5.92567
20
-4.11379
11
5.92567
21
-4.08524
0
LINE
8
BLACK
6
CONTINUOUS
10
5.92567
20
-4.08524
11
5.92586
21
-4.0843
0
LINE
8
BLACK
6
CONTINUOUS
10
5.92586
20
-4.0843
11
5.92639
21
-4.0835
0
LINE
8
BLACK
6
CONTINUOUS
10
5.92639
20
-4.0835
11
5.92719
21
-4.08297
0
LINE
8
BLACK
6
CONTINUOUS
10
5.92719
20
-4.08297
11
5.92813
21
-4.08278
0
LINE
8
BLACK
6
CONTINUOUS
10
5.92813
20
-4.08278
11
5.93305
21
-4.08278
0
LINE
8
BLACK
6
CONTINUOUS
10
5.93305
20
-4.08278
11
5.93399
21
-4.08297
0
LINE
8
BLACK
6
CONTINUOUS
10
5.95368
20
-4.08297
11
5.95448
21
-4.0835
0
LINE
8
BLACK
6
CONTINUOUS
10
5.95448
20
-4.0835
11
5.95501
21
-4.0843
0
LINE
8
BLACK
6
CONTINUOUS
10
5.95501
20
-4.0843
11
5.9552
21
-4.08524
0
LINE
8
BLACK
6
CONTINUOUS
10
5.9552
20
-4.08524
11
5.9552
21
-4.11379
0
LINE
8
BLACK
6
CONTINUOUS
10
5.9552
20
-4.11379
11
5.95501
21
-4.11473
0
LINE
8
BLACK
6
CONTINUOUS
10
5.95501
20
-4.11473
11
5.95448
21
-4.11553
0
LINE
8
BLACK
6
CONTINUOUS
10
5.95448
20
-4.11553
11
5.95368
21
-4.11606
0
LINE
8
BLACK
6
CONTINUOUS
10
5.95368
20
-4.11606
11
5.95274
21
-4.11625
0
LINE
8
BLACK
6
CONTINUOUS
10
5.95274
20
-4.11625
11
5.94782
21
-4.11625
0
LINE
8
BLACK
6
CONTINUOUS
10
5.94782
20
-4.11625
11
5.94688
21
-4.11606
0
LINE
8
BLACK
6
CONTINUOUS
10
5.94688
20
-4.11606
11
5.94608
21
-4.11553
0
LINE
8
BLACK
6
CONTINUOUS
10
5.94608
20
-4.11553
11
5.94554
21
-4.11473
0
LINE
8
BLACK
6
CONTINUOUS
10
5.94554
20
-4.11473
11
5.94536
21
-4.11379
0
LINE
8
BLACK
6
CONTINUOUS
10
5.94536
20
-4.11379
11
5.94536
21
-4.08524
0
LINE
8
BLACK
6
CONTINUOUS
10
5.94536
20
-4.08524
11
5.94554
21
-4.0843
0
LINE
8
BLACK
6
CONTINUOUS
10
5.94554
20
-4.0843
11
5.94608
21
-4.0835
0
LINE
8
BLACK
6
CONTINUOUS
10
5.94608
20
-4.0835
11
5.94688
21
-4.08297
0
LINE
8
BLACK
6
CONTINUOUS
10
5.94688
20
-4.08297
11
5.94782
21
-4.08278
0
LINE
8
BLACK
6
CONTINUOUS
10
5.94782
20
-4.08278
11
5.95274
21
-4.08278
0
LINE
8
BLACK
6
CONTINUOUS
10
5.95274
20
-4.08278
11
5.95368
21
-4.08297
0
LINE
8
BLACK
6
CONTINUOUS
10
5.97336
20
-4.08297
11
5.97416
21
-4.0835
0
LINE
8
BLACK
6
CONTINUOUS
10
5.97416
20
-4.0835
11
5.9747
21
-4.0843
0
LINE
8
BLACK
6
CONTINUOUS
10
5.9747
20
-4.0843
11
5.97488
21
-4.08524
0
LINE
8
BLACK
6
CONTINUOUS
10
5.97488
20
-4.08524
11
5.97488
21
-4.11379
0
LINE
8
BLACK
6
CONTINUOUS
10
5.97488
20
-4.11379
11
5.9747
21
-4.11473
0
LINE
8
BLACK
6
CONTINUOUS
10
5.9747
20
-4.11473
11
5.97416
21
-4.11553
0
LINE
8
BLACK
6
CONTINUOUS
10
5.97416
20
-4.11553
11
5.97336
21
-4.11606
0
LINE
8
BLACK
6
CONTINUOUS
10
5.97336
20
-4.11606
11
5.97242
21
-4.11625
0
LINE
8
BLACK
6
CONTINUOUS
10
5.97242
20
-4.11625
11
5.9675
21
-4.11625
0
LINE
8
BLACK
6
CONTINUOUS
10
5.9675
20
-4.11625
11
5.96656
21
-4.11606
0
LINE
8
BLACK
6
CONTINUOUS
10
5.96656
20
-4.11606
11
5.96576
21
-4.11553
0
LINE
8
BLACK
6
CONTINUOUS
10
5.96576
20
-4.11553
11
5.96523
21
-4.11473
0
LINE
8
BLACK
6
CONTINUOUS
10
5.96523
20
-4.11473
11
5.96504
21
-4.11379
0
LINE
8
BLACK
6
CONTINUOUS
10
5.96504
20
-4.11379
11
5.96504
21
-4.08524
0
LINE
8
BLACK
6
CONTINUOUS
10
5.96504
20
-4.08524
11
5.96523
21
-4.0843
0
LINE
8
BLACK
6
CONTINUOUS
10
5.96523
20
-4.0843
11
5.96576
21
-4.0835
0
LINE
8
BLACK
6
CONTINUOUS
10
5.96576
20
-4.0835
11
5.96656
21
-4.08297
0
LINE
8
BLACK
6
CONTINUOUS
10
5.96656
20
-4.08297
11
5.9675
21
-4.08278
0
LINE
8
BLACK
6
CONTINUOUS
10
5.9675
20
-4.08278
11
5.97242
21
-4.08278
0
LINE
8
BLACK
6
CONTINUOUS
10
5.97242
20
-4.08278
11
5.97336
21
-4.08297
0
LINE
8
BLACK
6
CONTINUOUS
10
5.99305
20
-4.08297
11
5.99385
21
-4.0835
0
LINE
8
BLACK
6
CONTINUOUS
10
5.99385
20
-4.0835
11
5.99438
21
-4.0843
0
LINE
8
BLACK
6
CONTINUOUS
10
5.99438
20
-4.0843
11
5.99457
21
-4.08524
0
LINE
8
BLACK
6
CONTINUOUS
10
5.99457
20
-4.08524
11
5.99457
21
-4.11379
0
LINE
8
BLACK
6
CONTINUOUS
10
5.99457
20
-4.11379
11
5.99438
21
-4.11473
0
LINE
8
BLACK
6
CONTINUOUS
10
5.99438
20
-4.11473
11
5.99385
21
-4.11553
0
LINE
8
BLACK
6
CONTINUOUS
10
5.99385
20
-4.11553
11
5.99305
21
-4.11606
0
LINE
8
BLACK
6
CONTINUOUS
10
5.99305
20
-4.11606
11
5.99211
21
-4.11625
0
LINE
8
BLACK
6
CONTINUOUS
10
5.99211
20
-4.11625
11
5.98719
21
-4.11625
0
LINE
8
BLACK
6
CONTINUOUS
10
5.98719
20
-4.11625
11
5.98625
21
-4.11606
0
LINE
8
BLACK
6
CONTINUOUS
10
5.98625
20
-4.11606
11
5.98545
21
-4.11553
0
LINE
8
BLACK
6
CONTINUOUS
10
5.98545
20
-4.11553
11
5.98491
21
-4.11473
0
LINE
8
BLACK
6
CONTINUOUS
10
5.98491
20
-4.11473
11
5.98473
21
-4.11379
0
LINE
8
BLACK
6
CONTINUOUS
10
5.98473
20
-4.11379
11
5.98473
21
-4.08524
0
LINE
8
BLACK
6
CONTINUOUS
10
5.98473
20
-4.08524
11
5.98491
21
-4.0843
0
LINE
8
BLACK
6
CONTINUOUS
10
5.98491
20
-4.0843
11
5.98545
21
-4.0835
0
LINE
8
BLACK
6
CONTINUOUS
10
5.98545
20
-4.0835
11
5.98625
21
-4.08297
0
LINE
8
BLACK
6
CONTINUOUS
10
5.98625
20
-4.08297
11
5.98719
21
-4.08278
0
LINE
8
BLACK
6
CONTINUOUS
10
5.98719
20
-4.08278
11
5.99211
21
-4.08278
0
LINE
8
BLACK
6
CONTINUOUS
10
5.99211
20
-4.08278
11
5.99305
21
-4.08297
0
LINE
8
BLACK
6
CONTINUOUS
10
5.55356
20
-4.11056
11
5.49856
21
-4.11056
0
LINE
8
BLACK
6
CONTINUOUS
10
5.49856
20
-4.11056
11
5.49856
21
-4.07556
0
LINE
8
BLACK
6
CONTINUOUS
10
5.49856
20
-4.07556
11
5.55356
21
-4.07556
0
LINE
8
BLACK
6
CONTINUOUS
10
5.55356
20
-4.07556
11
5.55356
21
-4.11056
0
LINE
8
BLACK
6
CONTINUOUS
10
5.07856
20
-4.10806
11
5.02356
21
-4.10806
0
LINE
8
BLACK
6
CONTINUOUS
10
5.02356
20
-4.10806
11
5.02356
21
-4.07306
0
LINE
8
BLACK
6
CONTINUOUS
10
5.02356
20
-4.07306
11
5.07856
21
-4.07306
0
LINE
8
BLACK
6
CONTINUOUS
10
5.07856
20
-4.07306
11
5.07856
21
-4.10806
0
LINE
8
BLACK
6
CONTINUOUS
10
5.62856
20
-4.10806
11
5.57356
21
-4.10806
0
LINE
8
BLACK
6
CONTINUOUS
10
5.57356
20
-4.10806
11
5.57356
21
-4.07306
0
LINE
8
BLACK
6
CONTINUOUS
10
5.57356
20
-4.07306
11
5.62856
21
-4.07306
0
LINE
8
BLACK
6
CONTINUOUS
10
5.62856
20
-4.07306
11
5.62856
21
-4.10806
0
LINE
8
BLACK
6
CONTINUOUS
10
5.70356
20
-4.10806
11
5.64856
21
-4.10806
0
LINE
8
BLACK
6
CONTINUOUS
10
5.64856
20
-4.10806
11
5.64856
21
-4.07306
0
LINE
8
BLACK
6
CONTINUOUS
10
5.64856
20
-4.07306
11
5.70356
21
-4.07306
0
LINE
8
BLACK
6
CONTINUOUS
10
5.70356
20
-4.07306
11
5.70356
21
-4.10806
0
LINE
8
BLACK
6
CONTINUOUS
10
6.40856
20
-4.09906
11
6.35356
21
-4.09906
0
LINE
8
BLACK
6
CONTINUOUS
10
6.35356
20
-4.09906
11
6.35356
21
-4.06406
0
LINE
8
BLACK
6
CONTINUOUS
10
6.35356
20
-4.06406
11
6.40856
21
-4.06406
0
LINE
8
BLACK
6
CONTINUOUS
10
6.40856
20
-4.06406
11
6.40856
21
-4.09906
0
LINE
8
BLACK
6
CONTINUOUS
10
6.60856
20
-4.09906
11
6.55356
21
-4.09906
0
LINE
8
BLACK
6
CONTINUOUS
10
6.55356
20
-4.09906
11
6.55356
21
-4.06406
0
LINE
8
BLACK
6
CONTINUOUS
10
6.55356
20
-4.06406
11
6.60856
21
-4.06406
0
LINE
8
BLACK
6
CONTINUOUS
10
6.60856
20
-4.06406
11
6.60856
21
-4.09906
0
LINE
8
BLACK
6
CONTINUOUS
10
6.75856
20
-4.09906
11
6.70356
21
-4.09906
0
LINE
8
BLACK
6
CONTINUOUS
10
6.70356
20
-4.09906
11
6.70356
21
-4.06406
0
LINE
8
BLACK
6
CONTINUOUS
10
6.70356
20
-4.06406
11
6.75856
21
-4.06406
0
LINE
8
BLACK
6
CONTINUOUS
10
6.75856
20
-4.06406
11
6.75856
21
-4.09906
0
LINE
8
BLACK
6
CONTINUOUS
10
6.32856
20
-4.08306
11
6.27356
21
-4.08306
0
LINE
8
BLACK
6
CONTINUOUS
10
6.27356
20
-4.08306
11
6.27356
21
-4.04806
0
LINE
8
BLACK
6
CONTINUOUS
10
6.27356
20
-4.04806
11
6.32856
21
-4.04806
0
LINE
8
BLACK
6
CONTINUOUS
10
6.32856
20
-4.04806
11
6.32856
21
-4.08306
0
LINE
8
BLACK
6
CONTINUOUS
10
5.80014
20
-4.06722
11
5.80093
21
-4.06776
0
LINE
8
BLACK
6
CONTINUOUS
10
5.80093
20
-4.06776
11
5.80147
21
-4.06855
0
LINE
8
BLACK
6
CONTINUOUS
10
5.80147
20
-4.06855
11
5.80166
21
-4.0695
0
LINE
8
BLACK
6
CONTINUOUS
10
5.80166
20
-4.0695
11
5.80166
21
-4.07442
0
LINE
8
BLACK
6
CONTINUOUS
10
5.80166
20
-4.07442
11
5.80147
21
-4.07536
0
LINE
8
BLACK
6
CONTINUOUS
10
5.80147
20
-4.07536
11
5.80093
21
-4.07616
0
LINE
8
BLACK
6
CONTINUOUS
10
5.80093
20
-4.07616
11
5.80014
21
-4.07669
0
LINE
8
BLACK
6
CONTINUOUS
10
5.80014
20
-4.07669
11
5.79919
21
-4.07688
0
LINE
8
BLACK
6
CONTINUOUS
10
5.79919
20
-4.07688
11
5.77065
21
-4.07688
0
LINE
8
BLACK
6
CONTINUOUS
10
5.77065
20
-4.07688
11
5.76971
21
-4.07669
0
LINE
8
BLACK
6
CONTINUOUS
10
5.76971
20
-4.07669
11
5.76891
21
-4.07616
0
LINE
8
BLACK
6
CONTINUOUS
10
5.76891
20
-4.07616
11
5.76838
21
-4.07536
0
LINE
8
BLACK
6
CONTINUOUS
10
5.76838
20
-4.07536
11
5.76819
21
-4.07442
0
LINE
8
BLACK
6
CONTINUOUS
10
5.76819
20
-4.07442
11
5.76819
21
-4.0695
0
LINE
8
BLACK
6
CONTINUOUS
10
5.76819
20
-4.0695
11
5.76838
21
-4.06855
0
LINE
8
BLACK
6
CONTINUOUS
10
5.76838
20
-4.06855
11
5.76891
21
-4.06776
0
LINE
8
BLACK
6
CONTINUOUS
10
5.76891
20
-4.06776
11
5.76971
21
-4.06722
0
LINE
8
BLACK
6
CONTINUOUS
10
5.76971
20
-4.06722
11
5.77065
21
-4.06703
0
LINE
8
BLACK
6
CONTINUOUS
10
5.77065
20
-4.06703
11
5.79919
21
-4.06703
0
LINE
8
BLACK
6
CONTINUOUS
10
5.79919
20
-4.06703
11
5.80014
21
-4.06722
0
LINE
8
BLACK
6
CONTINUOUS
10
6.03242
20
-4.06722
11
6.03322
21
-4.06776
0
LINE
8
BLACK
6
CONTINUOUS
10
6.03322
20
-4.06776
11
6.03375
21
-4.06855
0
LINE
8
BLACK
6
CONTINUOUS
10
6.03375
20
-4.06855
11
6.03394
21
-4.0695
0
LINE
8
BLACK
6
CONTINUOUS
10
6.03394
20
-4.0695
11
6.03394
21
-4.07442
0
LINE
8
BLACK
6
CONTINUOUS
10
6.03394
20
-4.07442
11
6.03375
21
-4.07536
0
LINE
8
BLACK
6
CONTINUOUS
10
6.03375
20
-4.07536
11
6.03322
21
-4.07616
0
LINE
8
BLACK
6
CONTINUOUS
10
6.03322
20
-4.07616
11
6.03242
21
-4.07669
0
LINE
8
BLACK
6
CONTINUOUS
10
6.03242
20
-4.07669
11
6.03148
21
-4.07688
0
LINE
8
BLACK
6
CONTINUOUS
10
6.03148
20
-4.07688
11
6.00293
21
-4.07688
0
LINE
8
BLACK
6
CONTINUOUS
10
6.00293
20
-4.07688
11
6.00199
21
-4.07669
0
LINE
8
BLACK
6
CONTINUOUS
10
6.00199
20
-4.07669
11
6.0012
21
-4.07616
0
LINE
8
BLACK
6
CONTINUOUS
10
6.0012
20
-4.07616
11
6.00066
21
-4.07536
0
LINE
8
BLACK
6
CONTINUOUS
10
6.00066
20
-4.07536
11
6.00047
21
-4.07442
0
LINE
8
BLACK
6
CONTINUOUS
10
6.00047
20
-4.07442
11
6.00047
21
-4.0695
0
LINE
8
BLACK
6
CONTINUOUS
10
6.00047
20
-4.0695
11
6.00066
21
-4.06855
0
LINE
8
BLACK
6
CONTINUOUS
10
6.00066
20
-4.06855
11
6.0012
21
-4.06776
0
LINE
8
BLACK
6
CONTINUOUS
10
6.0012
20
-4.06776
11
6.00199
21
-4.06722
0
LINE
8
BLACK
6
CONTINUOUS
10
6.00199
20
-4.06722
11
6.00293
21
-4.06703
0
LINE
8
BLACK
6
CONTINUOUS
10
6.00293
20
-4.06703
11
6.03148
21
-4.06703
0
LINE
8
BLACK
6
CONTINUOUS
10
6.03148
20
-4.06703
11
6.03242
21
-4.06722
0
LINE
8
BLACK
6
CONTINUOUS
10
5.21106
20
-4.07306
11
5.13106
21
-4.07306
0
LINE
8
BLACK
6
CONTINUOUS
10
5.13106
20
-4.07306
11
5.13106
21
-4.03306
0
LINE
8
BLACK
6
CONTINUOUS
10
5.13106
20
-4.03306
11
5.21106
21
-4.03306
0
LINE
8
BLACK
6
CONTINUOUS
10
5.21106
20
-4.03306
11
5.21106
21
-4.07306
0
LINE
8
BLACK
6
CONTINUOUS
10
5.86858
20
-4.00687
11
5.87178
21
-4.00901
0
LINE
8
BLACK
6
CONTINUOUS
10
5.87178
20
-4.00901
11
5.87391
21
-4.0122
0
LINE
8
BLACK
6
CONTINUOUS
10
5.87391
20
-4.0122
11
5.87466
21
-4.01597
0
LINE
8
BLACK
6
CONTINUOUS
10
5.87466
20
-4.01597
11
5.87466
21
-4.05117
0
LINE
8
BLACK
6
CONTINUOUS
10
5.87466
20
-4.05117
11
5.87391
21
-4.05494
0
LINE
8
BLACK
6
CONTINUOUS
10
5.87391
20
-4.05494
11
5.87178
21
-4.05813
0
LINE
8
BLACK
6
CONTINUOUS
10
5.87178
20
-4.05813
11
5.86858
21
-4.06027
0
LINE
8
BLACK
6
CONTINUOUS
10
5.86858
20
-4.06027
11
5.86482
21
-4.06102
0
LINE
8
BLACK
6
CONTINUOUS
10
5.86482
20
-4.06102
11
5.84282
21
-4.06102
0
LINE
8
BLACK
6
CONTINUOUS
10
5.84282
20
-4.06102
11
5.83906
21
-4.06027
0
LINE
8
BLACK
6
CONTINUOUS
10
5.83906
20
-4.06027
11
5.83586
21
-4.05813
0
LINE
8
BLACK
6
CONTINUOUS
10
5.83586
20
-4.05813
11
5.83373
21
-4.05494
0
LINE
8
BLACK
6
CONTINUOUS
10
5.83373
20
-4.05494
11
5.83298
21
-4.05117
0
LINE
8
BLACK
6
CONTINUOUS
10
5.83298
20
-4.05117
11
5.83298
21
-4.01597
0
LINE
8
BLACK
6
CONTINUOUS
10
5.83298
20
-4.01597
11
5.83373
21
-4.0122
0
LINE
8
BLACK
6
CONTINUOUS
10
5.83373
20
-4.0122
11
5.83586
21
-4.00901
0
LINE
8
BLACK
6
CONTINUOUS
10
5.83586
20
-4.00901
11
5.83906
21
-4.00687
0
LINE
8
BLACK
6
CONTINUOUS
10
5.83906
20
-4.00687
11
5.84282
21
-4.00612
0
LINE
8
BLACK
6
CONTINUOUS
10
5.84282
20
-4.00612
11
5.86482
21
-4.00612
0
LINE
8
BLACK
6
CONTINUOUS
10
5.86482
20
-4.00612
11
5.86858
21
-4.00687
0
LINE
8
BLACK
6
CONTINUOUS
10
5.91583
20
-4.00687
11
5.91902
21
-4.00901
0
LINE
8
BLACK
6
CONTINUOUS
10
5.91902
20
-4.00901
11
5.92115
21
-4.0122
0
LINE
8
BLACK
6
CONTINUOUS
10
5.92115
20
-4.0122
11
5.9219
21
-4.01597
0
LINE
8
BLACK
6
CONTINUOUS
10
5.9219
20
-4.01597
11
5.9219
21
-4.05117
0
LINE
8
BLACK
6
CONTINUOUS
10
5.9219
20
-4.05117
11
5.92115
21
-4.05494
0
LINE
8
BLACK
6
CONTINUOUS
10
5.92115
20
-4.05494
11
5.91902
21
-4.05813
0
LINE
8
BLACK
6
CONTINUOUS
10
5.91902
20
-4.05813
11
5.91583
21
-4.06027
0
LINE
8
BLACK
6
CONTINUOUS
10
5.91583
20
-4.06027
11
5.91206
21
-4.06102
0
LINE
8
BLACK
6
CONTINUOUS
10
5.91206
20
-4.06102
11
5.89007
21
-4.06102
0
LINE
8
BLACK
6
CONTINUOUS
10
5.89007
20
-4.06102
11
5.8863
21
-4.06027
0
LINE
8
BLACK
6
CONTINUOUS
10
5.8863
20
-4.06027
11
5.88311
21
-4.05813
0
LINE
8
BLACK
6
CONTINUOUS
10
5.88311
20
-4.05813
11
5.88098
21
-4.05494
0
LINE
8
BLACK
6
CONTINUOUS
10
5.88098
20
-4.05494
11
5.88023
21
-4.05117
0
LINE
8
BLACK
6
CONTINUOUS
10
5.88023
20
-4.05117
11
5.88023
21
-4.01597
0
LINE
8
BLACK
6
CONTINUOUS
10
5.88023
20
-4.01597
11
5.88098
21
-4.0122
0
LINE
8
BLACK
6
CONTINUOUS
10
5.88098
20
-4.0122
11
5.88311
21
-4.00901
0
LINE
8
BLACK
6
CONTINUOUS
10
5.88311
20
-4.00901
11
5.8863
21
-4.00687
0
LINE
8
BLACK
6
CONTINUOUS
10
5.8863
20
-4.00687
11
5.89007
21
-4.00612
0
LINE
8
BLACK
6
CONTINUOUS
10
5.89007
20
-4.00612
11
5.91206
21
-4.00612
0
LINE
8
BLACK
6
CONTINUOUS
10
5.91206
20
-4.00612
11
5.91583
21
-4.00687
0
LINE
8
BLACK
6
CONTINUOUS
10
5.96307
20
-4.00687
11
5.96627
21
-4.00901
0
LINE
8
BLACK
6
CONTINUOUS
10
5.96627
20
-4.00901
11
5.9684
21
-4.0122
0
LINE
8
BLACK
6
CONTINUOUS
10
5.9684
20
-4.0122
11
5.96915
21
-4.01597
0
LINE
8
BLACK
6
CONTINUOUS
10
5.96915
20
-4.01597
11
5.96915
21
-4.05117
0
LINE
8
BLACK
6
CONTINUOUS
10
5.96915
20
-4.05117
11
5.9684
21
-4.05494
0
LINE
8
BLACK
6
CONTINUOUS
10
5.9684
20
-4.05494
11
5.96627
21
-4.05813
0
LINE
8
BLACK
6
CONTINUOUS
10
5.96627
20
-4.05813
11
5.96307
21
-4.06027
0
LINE
8
BLACK
6
CONTINUOUS
10
5.96307
20
-4.06027
11
5.95931
21
-4.06102
0
LINE
8
BLACK
6
CONTINUOUS
10
5.95931
20
-4.06102
11
5.93731
21
-4.06102
0
LINE
8
BLACK
6
CONTINUOUS
10
5.93731
20
-4.06102
11
5.93355
21
-4.06027
0
LINE
8
BLACK
6
CONTINUOUS
10
5.93355
20
-4.06027
11
5.93035
21
-4.05813
0
LINE
8
BLACK
6
CONTINUOUS
10
5.93035
20
-4.05813
11
5.92822
21
-4.05494
0
LINE
8
BLACK
6
CONTINUOUS
10
5.92822
20
-4.05494
11
5.92747
21
-4.05117
0
LINE
8
BLACK
6
CONTINUOUS
10
5.92747
20
-4.05117
11
5.92747
21
-4.01597
0
LINE
8
BLACK
6
CONTINUOUS
10
5.92747
20
-4.01597
11
5.92822
21
-4.0122
0
LINE
8
BLACK
6
CONTINUOUS
10
5.92822
20
-4.0122
11
5.93035
21
-4.00901
0
LINE
8
BLACK
6
CONTINUOUS
10
5.93035
20
-4.00901
11
5.93355
21
-4.00687
0
LINE
8
BLACK
6
CONTINUOUS
10
5.93355
20
-4.00687
11
5.93731
21
-4.00612
0
LINE
8
BLACK
6
CONTINUOUS
10
5.93731
20
-4.00612
11
5.95931
21
-4.00612
0
LINE
8
BLACK
6
CONTINUOUS
10
5.95931
20
-4.00612
11
5.96307
21
-4.00687
0
LINE
8
BLACK
6
CONTINUOUS
10
5.80014
20
-4.04754
11
5.80093
21
-4.04807
0
LINE
8
BLACK
6
CONTINUOUS
10
5.80093
20
-4.04807
11
5.80147
21
-4.04887
0
LINE
8
BLACK
6
CONTINUOUS
10
5.80147
20
-4.04887
11
5.80166
21
-4.04981
0
LINE
8
BLACK
6
CONTINUOUS
10
5.80166
20
-4.04981
11
5.80166
21
-4.05473
0
LINE
8
BLACK
6
CONTINUOUS
10
5.80166
20
-4.05473
11
5.80147
21
-4.05567
0
LINE
8
BLACK
6
CONTINUOUS
10
5.80147
20
-4.05567
11
5.80093
21
-4.05647
0
LINE
8
BLACK
6
CONTINUOUS
10
5.80093
20
-4.05647
11
5.80014
21
-4.05701
0
LINE
8
BLACK
6
CONTINUOUS
10
5.80014
20
-4.05701
11
5.79919
21
-4.05719
0
LINE
8
BLACK
6
CONTINUOUS
10
5.79919
20
-4.05719
11
5.77065
21
-4.05719
0
LINE
8
BLACK
6
CONTINUOUS
10
5.77065
20
-4.05719
11
5.76971
21
-4.05701
0
LINE
8
BLACK
6
CONTINUOUS
10
5.76971
20
-4.05701
11
5.76891
21
-4.05647
0
LINE
8
BLACK
6
CONTINUOUS
10
5.76891
20
-4.05647
11
5.76838
21
-4.05567
0
LINE
8
BLACK
6
CONTINUOUS
10
5.76838
20
-4.05567
11
5.76819
21
-4.05473
0
LINE
8
BLACK
6
CONTINUOUS
10
5.76819
20
-4.05473
11
5.76819
21
-4.04981
0
LINE
8
BLACK
6
CONTINUOUS
10
5.76819
20
-4.04981
11
5.76838
21
-4.04887
0
LINE
8
BLACK
6
CONTINUOUS
10
5.76838
20
-4.04887
11
5.76891
21
-4.04807
0
LINE
8
BLACK
6
CONTINUOUS
10
5.76891
20
-4.04807
11
5.76971
21
-4.04754
0
LINE
8
BLACK
6
CONTINUOUS
10
5.76971
20
-4.04754
11
5.77065
21
-4.04735
0
LINE
8
BLACK
6
CONTINUOUS
10
5.77065
20
-4.04735
11
5.79919
21
-4.04735
0
LINE
8
BLACK
6
CONTINUOUS
10
5.79919
20
-4.04735
11
5.80014
21
-4.04754
0
LINE
8
BLACK
6
CONTINUOUS
10
6.03242
20
-4.04754
11
6.03322
21
-4.04807
0
LINE
8
BLACK
6
CONTINUOUS
10
6.03322
20
-4.04807
11
6.03375
21
-4.04887
0
LINE
8
BLACK
6
CONTINUOUS
10
6.03375
20
-4.04887
11
6.03394
21
-4.04981
0
LINE
8
BLACK
6
CONTINUOUS
10
6.03394
20
-4.04981
11
6.03394
21
-4.05473
0
LINE
8
BLACK
6
CONTINUOUS
10
6.03394
20
-4.05473
11
6.03375
21
-4.05567
0
LINE
8
BLACK
6
CONTINUOUS
10
6.03375
20
-4.05567
11
6.03322
21
-4.05647
0
LINE
8
BLACK
6
CONTINUOUS
10
6.03322
20
-4.05647
11
6.03242
21
-4.05701
0
LINE
8
BLACK
6
CONTINUOUS
10
6.03242
20
-4.05701
11
6.03148
21
-4.05719
0
LINE
8
BLACK
6
CONTINUOUS
10
6.03148
20
-4.05719
11
6.00293
21
-4.05719
0
LINE
8
BLACK
6
CONTINUOUS
10
6.00293
20
-4.05719
11
6.00199
21
-4.05701
0
LINE
8
BLACK
6
CONTINUOUS
10
6.00199
20
-4.05701
11
6.0012
21
-4.05647
0
LINE
8
BLACK
6
CONTINUOUS
10
6.0012
20
-4.05647
11
6.00066
21
-4.05567
0
LINE
8
BLACK
6
CONTINUOUS
10
6.00066
20
-4.05567
11
6.00047
21
-4.05473
0
LINE
8
BLACK
6
CONTINUOUS
10
6.00047
20
-4.05473
11
6.00047
21
-4.04981
0
LINE
8
BLACK
6
CONTINUOUS
10
6.00047
20
-4.04981
11
6.00066
21
-4.04887
0
LINE
8
BLACK
6
CONTINUOUS
10
6.00066
20
-4.04887
11
6.0012
21
-4.04807
0
LINE
8
BLACK
6
CONTINUOUS
10
6.0012
20
-4.04807
11
6.00199
21
-4.04754
0
LINE
8
BLACK
6
CONTINUOUS
10
6.00199
20
-4.04754
11
6.00293
21
-4.04735
0
LINE
8
BLACK
6
CONTINUOUS
10
6.00293
20
-4.04735
11
6.03148
21
-4.04735
0
LINE
8
BLACK
6
CONTINUOUS
10
6.03148
20
-4.04735
11
6.03242
21
-4.04754
0
LINE
8
BLACK
6
CONTINUOUS
10
5.80014
20
-4.02785
11
5.80093
21
-4.02839
0
LINE
8
BLACK
6
CONTINUOUS
10
5.80093
20
-4.02839
11
5.80147
21
-4.02918
0
LINE
8
BLACK
6
CONTINUOUS
10
5.80147
20
-4.02918
11
5.80166
21
-4.03013
0
LINE
8
BLACK
6
CONTINUOUS
10
5.80166
20
-4.03013
11
5.80166
21
-4.03505
0
LINE
8
BLACK
6
CONTINUOUS
10
5.80166
20
-4.03505
11
5.80147
21
-4.03599
0
LINE
8
BLACK
6
CONTINUOUS
10
5.80147
20
-4.03599
11
5.80093
21
-4.03679
0
LINE
8
BLACK
6
CONTINUOUS
10
5.80093
20
-4.03679
11
5.80014
21
-4.03732
0
LINE
8
BLACK
6
CONTINUOUS
10
5.80014
20
-4.03732
11
5.79919
21
-4.03751
0
LINE
8
BLACK
6
CONTINUOUS
10
5.79919
20
-4.03751
11
5.77065
21
-4.03751
0
LINE
8
BLACK
6
CONTINUOUS
10
5.77065
20
-4.03751
11
5.76971
21
-4.03732
0
LINE
8
BLACK
6
CONTINUOUS
10
5.76971
20
-4.03732
11
5.76891
21
-4.03679
0
LINE
8
BLACK
6
CONTINUOUS
10
5.76891
20
-4.03679
11
5.76838
21
-4.03599
0
LINE
8
BLACK
6
CONTINUOUS
10
5.76838
20
-4.03599
11
5.76819
21
-4.03505
0
LINE
8
BLACK
6
CONTINUOUS
10
5.76819
20
-4.03505
11
5.76819
21
-4.03013
0
LINE
8
BLACK
6
CONTINUOUS
10
5.76819
20
-4.03013
11
5.76838
21
-4.02918
0
LINE
8
BLACK
6
CONTINUOUS
10
5.76838
20
-4.02918
11
5.76891
21
-4.02839
0
LINE
8
BLACK
6
CONTINUOUS
10
5.76891
20
-4.02839
11
5.76971
21
-4.02785
0
LINE
8
BLACK
6
CONTINUOUS
10
5.76971
20
-4.02785
11
5.77065
21
-4.02766
0
LINE
8
BLACK
6
CONTINUOUS
10
5.77065
20
-4.02766
11
5.79919
21
-4.02766
0
LINE
8
BLACK
6
CONTINUOUS
10
5.79919
20
-4.02766
11
5.80014
21
-4.02785
0
LINE
8
BLACK
6
CONTINUOUS
10
6.03242
20
-4.02785
11
6.03322
21
-4.02839
0
LINE
8
BLACK
6
CONTINUOUS
10
6.03322
20
-4.02839
11
6.03375
21
-4.02918
0
LINE
8
BLACK
6
CONTINUOUS
10
6.03375
20
-4.02918
11
6.03394
21
-4.03013
0
LINE
8
BLACK
6
CONTINUOUS
10
6.03394
20
-4.03013
11
6.03394
21
-4.03505
0
LINE
8
BLACK
6
CONTINUOUS
10
6.03394
20
-4.03505
11
6.03375
21
-4.03599
0
LINE
8
BLACK
6
CONTINUOUS
10
6.03375
20
-4.03599
11
6.03322
21
-4.03679
0
LINE
8
BLACK
6
CONTINUOUS
10
6.03322
20
-4.03679
11
6.03242
21
-4.03732
0
LINE
8
BLACK
6
CONTINUOUS
10
6.03242
20
-4.03732
11
6.03148
21
-4.03751
0
LINE
8
BLACK
6
CONTINUOUS
10
6.03148
20
-4.03751
11
6.00293
21
-4.03751
0
LINE
8
BLACK
6
CONTINUOUS
10
6.00293
20
-4.03751
11
6.00199
21
-4.03732
0
LINE
8
BLACK
6
CONTINUOUS
10
6.00199
20
-4.03732
11
6.0012
21
-4.03679
0
LINE
8
BLACK
6
CONTINUOUS
10
6.0012
20
-4.03679
11
6.00066
21
-4.03599
0
LINE
8
BLACK
6
CONTINUOUS
10
6.00066
20
-4.03599
11
6.00047
21
-4.03505
0
LINE
8
BLACK
6
CONTINUOUS
10
6.00047
20
-4.03505
11
6.00047
21
-4.03013
0
LINE
8
BLACK
6
CONTINUOUS
10
6.00047
20
-4.03013
11
6.00066
21
-4.02918
0
LINE
8
BLACK
6
CONTINUOUS
10
6.00066
20
-4.02918
11
6.0012
21
-4.02839
0
LINE
8
BLACK
6
CONTINUOUS
10
6.0012
20
-4.02839
11
6.00199
21
-4.02785
0
LINE
8
BLACK
6
CONTINUOUS
10
6.00199
20
-4.02785
11
6.00293
21
-4.02766
0
LINE
8
BLACK
6
CONTINUOUS
10
6.00293
20
-4.02766
11
6.03148
21
-4.02766
0
LINE
8
BLACK
6
CONTINUOUS
10
6.03148
20
-4.02766
11
6.03242
21
-4.02785
0
LINE
8
BLACK
6
CONTINUOUS
10
5.55356
20
-4.03556
11
5.49856
21
-4.03556
0
LINE
8
BLACK
6
CONTINUOUS
10
5.49856
20
-4.03556
11
5.49856
21
-4.00056
0
LINE
8
BLACK
6
CONTINUOUS
10
5.49856
20
-4.00056
11
5.55356
21
-4.00056
0
LINE
8
BLACK
6
CONTINUOUS
10
5.55356
20
-4.00056
11
5.55356
21
-4.03556
0
LINE
8
BLACK
6
CONTINUOUS
10
5.07856
20
-4.03306
11
5.02356
21
-4.03306
0
LINE
8
BLACK
6
CONTINUOUS
10
5.02356
20
-4.03306
11
5.02356
21
-3.99806
0
LINE
8
BLACK
6
CONTINUOUS
10
5.02356
20
-3.99806
11
5.07856
21
-3.99806
0
LINE
8
BLACK
6
CONTINUOUS
10
5.07856
20
-3.99806
11
5.07856
21
-4.03306
0
LINE
8
BLACK
6
CONTINUOUS
10
5.62856
20
-4.03306
11
5.57356
21
-4.03306
0
LINE
8
BLACK
6
CONTINUOUS
10
5.57356
20
-4.03306
11
5.57356
21
-3.99806
0
LINE
8
BLACK
6
CONTINUOUS
10
5.57356
20
-3.99806
11
5.62856
21
-3.99806
0
LINE
8
BLACK
6
CONTINUOUS
10
5.62856
20
-3.99806
11
5.62856
21
-4.03306
0
LINE
8
BLACK
6
CONTINUOUS
10
5.70356
20
-4.03306
11
5.64856
21
-4.03306
0
LINE
8
BLACK
6
CONTINUOUS
10
5.64856
20
-4.03306
11
5.64856
21
-3.99806
0
LINE
8
BLACK
6
CONTINUOUS
10
5.64856
20
-3.99806
11
5.70356
21
-3.99806
0
LINE
8
BLACK
6
CONTINUOUS
10
5.70356
20
-3.99806
11
5.70356
21
-4.03306
0
LINE
8
BLACK
6
CONTINUOUS
10
6.40856
20
-4.02406
11
6.35356
21
-4.02406
0
LINE
8
BLACK
6
CONTINUOUS
10
6.35356
20
-4.02406
11
6.35356
21
-3.98906
0
LINE
8
BLACK
6
CONTINUOUS
10
6.35356
20
-3.98906
11
6.40856
21
-3.98906
0
LINE
8
BLACK
6
CONTINUOUS
10
6.40856
20
-3.98906
11
6.40856
21
-4.02406
0
LINE
8
BLACK
6
CONTINUOUS
10
6.60856
20
-4.02406
11
6.55356
21
-4.02406
0
LINE
8
BLACK
6
CONTINUOUS
10
6.55356
20
-4.02406
11
6.55356
21
-3.98906
0
LINE
8
BLACK
6
CONTINUOUS
10
6.55356
20
-3.98906
11
6.60856
21
-3.98906
0
LINE
8
BLACK
6
CONTINUOUS
10
6.60856
20
-3.98906
11
6.60856
21
-4.02406
0
LINE
8
BLACK
6
CONTINUOUS
10
6.75856
20
-4.02406
11
6.70356
21
-4.02406
0
LINE
8
BLACK
6
CONTINUOUS
10
6.70356
20
-4.02406
11
6.70356
21
-3.98906
0
LINE
8
BLACK
6
CONTINUOUS
10
6.70356
20
-3.98906
11
6.75856
21
-3.98906
0
LINE
8
BLACK
6
CONTINUOUS
10
6.75856
20
-3.98906
11
6.75856
21
-4.02406
0
LINE
8
BLACK
6
CONTINUOUS
10
5.80014
20
-4.00817
11
5.80093
21
-4.0087
0
LINE
8
BLACK
6
CONTINUOUS
10
5.80093
20
-4.0087
11
5.80147
21
-4.0095
0
LINE
8
BLACK
6
CONTINUOUS
10
5.80147
20
-4.0095
11
5.80166
21
-4.01044
0
LINE
8
BLACK
6
CONTINUOUS
10
5.80166
20
-4.01044
11
5.80166
21
-4.01536
0
LINE
8
BLACK
6
CONTINUOUS
10
5.80166
20
-4.01536
11
5.80147
21
-4.0163
0
LINE
8
BLACK
6
CONTINUOUS
10
5.80147
20
-4.0163
11
5.80093
21
-4.0171
0
LINE
8
BLACK
6
CONTINUOUS
10
5.80093
20
-4.0171
11
5.80014
21
-4.01764
0
LINE
8
BLACK
6
CONTINUOUS
10
5.80014
20
-4.01764
11
5.79919
21
-4.01782
0
LINE
8
BLACK
6
CONTINUOUS
10
5.79919
20
-4.01782
11
5.77065
21
-4.01782
0
LINE
8
BLACK
6
CONTINUOUS
10
5.77065
20
-4.01782
11
5.76971
21
-4.01764
0
LINE
8
BLACK
6
CONTINUOUS
10
5.76971
20
-4.01764
11
5.76891
21
-4.0171
0
LINE
8
BLACK
6
CONTINUOUS
10
5.76891
20
-4.0171
11
5.76838
21
-4.0163
0
LINE
8
BLACK
6
CONTINUOUS
10
5.76838
20
-4.0163
11
5.76819
21
-4.01536
0
LINE
8
BLACK
6
CONTINUOUS
10
5.76819
20
-4.01536
11
5.76819
21
-4.01044
0
LINE
8
BLACK
6
CONTINUOUS
10
5.76819
20
-4.01044
11
5.76838
21
-4.0095
0
LINE
8
BLACK
6
CONTINUOUS
10
5.76838
20
-4.0095
11
5.76891
21
-4.0087
0
LINE
8
BLACK
6
CONTINUOUS
10
5.76891
20
-4.0087
11
5.76971
21
-4.00817
0
LINE
8
BLACK
6
CONTINUOUS
10
5.76971
20
-4.00817
11
5.77065
21
-4.00798
0
LINE
8
BLACK
6
CONTINUOUS
10
5.77065
20
-4.00798
11
5.79919
21
-4.00798
0
LINE
8
BLACK
6
CONTINUOUS
10
5.79919
20
-4.00798
11
5.80014
21
-4.00817
0
LINE
8
BLACK
6
CONTINUOUS
10
6.03242
20
-4.00817
11
6.03322
21
-4.0087
0
LINE
8
BLACK
6
CONTINUOUS
10
6.03322
20
-4.0087
11
6.03375
21
-4.0095
0
LINE
8
BLACK
6
CONTINUOUS
10
6.03375
20
-4.0095
11
6.03394
21
-4.01044
0
LINE
8
BLACK
6
CONTINUOUS
10
6.03394
20
-4.01044
11
6.03394
21
-4.01536
0
LINE
8
BLACK
6
CONTINUOUS
10
6.03394
20
-4.01536
11
6.03375
21
-4.0163
0
LINE
8
BLACK
6
CONTINUOUS
10
6.03375
20
-4.0163
11
6.03322
21
-4.0171
0
LINE
8
BLACK
6
CONTINUOUS
10
6.03322
20
-4.0171
11
6.03242
21
-4.01764
0
LINE
8
BLACK
6
CONTINUOUS
10
6.03242
20
-4.01764
11
6.03148
21
-4.01782
0
LINE
8
BLACK
6
CONTINUOUS
10
6.03148
20
-4.01782
11
6.00293
21
-4.01782
0
LINE
8
BLACK
6
CONTINUOUS
10
6.00293
20
-4.01782
11
6.00199
21
-4.01764
0
LINE
8
BLACK
6
CONTINUOUS
10
6.00199
20
-4.01764
11
6.0012
21
-4.0171
0
LINE
8
BLACK
6
CONTINUOUS
10
6.0012
20
-4.0171
11
6.00066
21
-4.0163
0
LINE
8
BLACK
6
CONTINUOUS
10
6.00066
20
-4.0163
11
6.00047
21
-4.01536
0
LINE
8
BLACK
6
CONTINUOUS
10
6.00047
20
-4.01536
11
6.00047
21
-4.01044
0
LINE
8
BLACK
6
CONTINUOUS
10
6.00047
20
-4.01044
11
6.00066
21
-4.0095
0
LINE
8
BLACK
6
CONTINUOUS
10
6.00066
20
-4.0095
11
6.0012
21
-4.0087
0
LINE
8
BLACK
6
CONTINUOUS
10
6.0012
20
-4.0087
11
6.00199
21
-4.00817
0
LINE
8
BLACK
6
CONTINUOUS
10
6.00199
20
-4.00817
11
6.00293
21
-4.00798
0
LINE
8
BLACK
6
CONTINUOUS
10
6.00293
20
-4.00798
11
6.03148
21
-4.00798
0
LINE
8
BLACK
6
CONTINUOUS
10
6.03148
20
-4.00798
11
6.03242
21
-4.00817
0
LINE
8
BLACK
6
CONTINUOUS
10
6.22856
20
-4.00806
11
6.17356
21
-4.00806
0
LINE
8
BLACK
6
CONTINUOUS
10
6.17356
20
-4.00806
11
6.17356
21
-3.97306
0
LINE
8
BLACK
6
CONTINUOUS
10
6.17356
20
-3.97306
11
6.22856
21
-3.97306
0
LINE
8
BLACK
6
CONTINUOUS
10
6.22856
20
-3.97306
11
6.22856
21
-4.00806
0
LINE
8
BLACK
6
CONTINUOUS
10
6.32856
20
-4.00806
11
6.27356
21
-4.00806
0
LINE
8
BLACK
6
CONTINUOUS
10
6.27356
20
-4.00806
11
6.27356
21
-3.97306
0
LINE
8
BLACK
6
CONTINUOUS
10
6.27356
20
-3.97306
11
6.32856
21
-3.97306
0
LINE
8
BLACK
6
CONTINUOUS
10
6.32856
20
-3.97306
11
6.32856
21
-4.00806
0
LINE
8
BLACK
6
CONTINUOUS
10
5.86858
20
-3.94585
11
5.87178
21
-3.94798
0
LINE
8
BLACK
6
CONTINUOUS
10
5.87178
20
-3.94798
11
5.87391
21
-3.95118
0
LINE
8
BLACK
6
CONTINUOUS
10
5.87391
20
-3.95118
11
5.87466
21
-3.95494
0
LINE
8
BLACK
6
CONTINUOUS
10
5.87466
20
-3.95494
11
5.87466
21
-3.99015
0
LINE
8
BLACK
6
CONTINUOUS
10
5.87466
20
-3.99015
11
5.87391
21
-3.99392
0
LINE
8
BLACK
6
CONTINUOUS
10
5.87391
20
-3.99392
11
5.87178
21
-3.99711
0
LINE
8
BLACK
6
CONTINUOUS
10
5.87178
20
-3.99711
11
5.86858
21
-3.99924
0
LINE
8
BLACK
6
CONTINUOUS
10
5.86858
20
-3.99924
11
5.86482
21
-3.99999
0
LINE
8
BLACK
6
CONTINUOUS
10
5.86482
20
-3.99999
11
5.84282
21
-3.99999
0
LINE
8
BLACK
6
CONTINUOUS
10
5.84282
20
-3.99999
11
5.83906
21
-3.99924
0
LINE
8
BLACK
6
CONTINUOUS
10
5.83906
20
-3.99924
11
5.83586
21
-3.99711
0
LINE
8
BLACK
6
CONTINUOUS
10
5.83586
20
-3.99711
11
5.83373
21
-3.99392
0
LINE
8
BLACK
6
CONTINUOUS
10
5.83373
20
-3.99392
11
5.83298
21
-3.99015
0
LINE
8
BLACK
6
CONTINUOUS
10
5.83298
20
-3.99015
11
5.83298
21
-3.95494
0
LINE
8
BLACK
6
CONTINUOUS
10
5.83298
20
-3.95494
11
5.83373
21
-3.95118
0
LINE
8
BLACK
6
CONTINUOUS
10
5.83373
20
-3.95118
11
5.83586
21
-3.94798
0
LINE
8
BLACK
6
CONTINUOUS
10
5.83586
20
-3.94798
11
5.83906
21
-3.94585
0
LINE
8
BLACK
6
CONTINUOUS
10
5.83906
20
-3.94585
11
5.84282
21
-3.9451
0
LINE
8
BLACK
6
CONTINUOUS
10
5.84282
20
-3.9451
11
5.86482
21
-3.9451
0
LINE
8
BLACK
6
CONTINUOUS
10
5.86482
20
-3.9451
11
5.86858
21
-3.94585
0
LINE
8
BLACK
6
CONTINUOUS
10
5.91583
20
-3.94585
11
5.91902
21
-3.94798
0
LINE
8
BLACK
6
CONTINUOUS
10
5.91902
20
-3.94798
11
5.92115
21
-3.95118
0
LINE
8
BLACK
6
CONTINUOUS
10
5.92115
20
-3.95118
11
5.9219
21
-3.95494
0
LINE
8
BLACK
6
CONTINUOUS
10
5.9219
20
-3.95494
11
5.9219
21
-3.99015
0
LINE
8
BLACK
6
CONTINUOUS
10
5.9219
20
-3.99015
11
5.92115
21
-3.99392
0
LINE
8
BLACK
6
CONTINUOUS
10
5.92115
20
-3.99392
11
5.91902
21
-3.99711
0
LINE
8
BLACK
6
CONTINUOUS
10
5.91902
20
-3.99711
11
5.91583
21
-3.99924
0
LINE
8
BLACK
6
CONTINUOUS
10
5.91583
20
-3.99924
11
5.91206
21
-3.99999
0
LINE
8
BLACK
6
CONTINUOUS
10
5.91206
20
-3.99999
11
5.89007
21
-3.99999
0
LINE
8
BLACK
6
CONTINUOUS
10
5.89007
20
-3.99999
11
5.8863
21
-3.99924
0
LINE
8
BLACK
6
CONTINUOUS
10
5.8863
20
-3.99924
11
5.88311
21
-3.99711
0
LINE
8
BLACK
6
CONTINUOUS
10
5.88311
20
-3.99711
11
5.88098
21
-3.99392
0
LINE
8
BLACK
6
CONTINUOUS
10
5.88098
20
-3.99392
11
5.88023
21
-3.99015
0
LINE
8
BLACK
6
CONTINUOUS
10
5.88023
20
-3.99015
11
5.88023
21
-3.95494
0
LINE
8
BLACK
6
CONTINUOUS
10
5.88023
20
-3.95494
11
5.88098
21
-3.95118
0
LINE
8
BLACK
6
CONTINUOUS
10
5.88098
20
-3.95118
11
5.88311
21
-3.94798
0
LINE
8
BLACK
6
CONTINUOUS
10
5.88311
20
-3.94798
11
5.8863
21
-3.94585
0
LINE
8
BLACK
6
CONTINUOUS
10
5.8863
20
-3.94585
11
5.89007
21
-3.9451
0
LINE
8
BLACK
6
CONTINUOUS
10
5.89007
20
-3.9451
11
5.91206
21
-3.9451
0
LINE
8
BLACK
6
CONTINUOUS
10
5.91206
20
-3.9451
11
5.91583
21
-3.94585
0
LINE
8
BLACK
6
CONTINUOUS
10
5.96307
20
-3.94585
11
5.96627
21
-3.94798
0
LINE
8
BLACK
6
CONTINUOUS
10
5.96627
20
-3.94798
11
5.9684
21
-3.95118
0
LINE
8
BLACK
6
CONTINUOUS
10
5.9684
20
-3.95118
11
5.96915
21
-3.95494
0
LINE
8
BLACK
6
CONTINUOUS
10
5.96915
20
-3.95494
11
5.96915
21
-3.99015
0
LINE
8
BLACK
6
CONTINUOUS
10
5.96915
20
-3.99015
11
5.9684
21
-3.99392
0
LINE
8
BLACK
6
CONTINUOUS
10
5.9684
20
-3.99392
11
5.96627
21
-3.99711
0
LINE
8
BLACK
6
CONTINUOUS
10
5.96627
20
-3.99711
11
5.96307
21
-3.99924
0
LINE
8
BLACK
6
CONTINUOUS
10
5.96307
20
-3.99924
11
5.95931
21
-3.99999
0
LINE
8
BLACK
6
CONTINUOUS
10
5.95931
20
-3.99999
11
5.93731
21
-3.99999
0
LINE
8
BLACK
6
CONTINUOUS
10
5.93731
20
-3.99999
11
5.93355
21
-3.99924
0
LINE
8
BLACK
6
CONTINUOUS
10
5.93355
20
-3.99924
11
5.93035
21
-3.99711
0
LINE
8
BLACK
6
CONTINUOUS
10
5.93035
20
-3.99711
11
5.92822
21
-3.99392
0
LINE
8
BLACK
6
CONTINUOUS
10
5.92822
20
-3.99392
11
5.92747
21
-3.99015
0
LINE
8
BLACK
6
CONTINUOUS
10
5.92747
20
-3.99015
11
5.92747
21
-3.95494
0
LINE
8
BLACK
6
CONTINUOUS
10
5.92747
20
-3.95494
11
5.92822
21
-3.95118
0
LINE
8
BLACK
6
CONTINUOUS
10
5.92822
20
-3.95118
11
5.93035
21
-3.94798
0
LINE
8
BLACK
6
CONTINUOUS
10
5.93035
20
-3.94798
11
5.93355
21
-3.94585
0
LINE
8
BLACK
6
CONTINUOUS
10
5.93355
20
-3.94585
11
5.93731
21
-3.9451
0
LINE
8
BLACK
6
CONTINUOUS
10
5.93731
20
-3.9451
11
5.95931
21
-3.9451
0
LINE
8
BLACK
6
CONTINUOUS
10
5.95931
20
-3.9451
11
5.96307
21
-3.94585
0
LINE
8
BLACK
6
CONTINUOUS
10
5.80014
20
-3.98848
11
5.80093
21
-3.98902
0
LINE
8
BLACK
6
CONTINUOUS
10
5.80093
20
-3.98902
11
5.80147
21
-3.98981
0
LINE
8
BLACK
6
CONTINUOUS
10
5.80147
20
-3.98981
11
5.80166
21
-3.99076
0
LINE
8
BLACK
6
CONTINUOUS
10
5.80166
20
-3.99076
11
5.80166
21
-3.99568
0
LINE
8
BLACK
6
CONTINUOUS
10
5.80166
20
-3.99568
11
5.80147
21
-3.99662
0
LINE
8
BLACK
6
CONTINUOUS
10
5.80147
20
-3.99662
11
5.80093
21
-3.99742
0
LINE
8
BLACK
6
CONTINUOUS
10
5.80093
20
-3.99742
11
5.80014
21
-3.99795
0
LINE
8
BLACK
6
CONTINUOUS
10
5.80014
20
-3.99795
11
5.79919
21
-3.99814
0
LINE
8
BLACK
6
CONTINUOUS
10
5.79919
20
-3.99814
11
5.77065
21
-3.99814
0
LINE
8
BLACK
6
CONTINUOUS
10
5.77065
20
-3.99814
11
5.76971
21
-3.99795
0
LINE
8
BLACK
6
CONTINUOUS
10
5.76971
20
-3.99795
11
5.76891
21
-3.99742
0
LINE
8
BLACK
6
CONTINUOUS
10
5.76891
20
-3.99742
11
5.76838
21
-3.99662
0
LINE
8
BLACK
6
CONTINUOUS
10
5.76838
20
-3.99662
11
5.76819
21
-3.99568
0
LINE
8
BLACK
6
CONTINUOUS
10
5.76819
20
-3.99568
11
5.76819
21
-3.99076
0
LINE
8
BLACK
6
CONTINUOUS
10
5.76819
20
-3.99076
11
5.76838
21
-3.98981
0
LINE
8
BLACK
6
CONTINUOUS
10
5.76838
20
-3.98981
11
5.76891
21
-3.98902
0
LINE
8
BLACK
6
CONTINUOUS
10
5.76891
20
-3.98902
11
5.76971
21
-3.98848
0
LINE
8
BLACK
6
CONTINUOUS
10
5.76971
20
-3.98848
11
5.77065
21
-3.98829
0
LINE
8
BLACK
6
CONTINUOUS
10
5.77065
20
-3.98829
11
5.79919
21
-3.98829
0
LINE
8
BLACK
6
CONTINUOUS
10
5.79919
20
-3.98829
11
5.80014
21
-3.98848
0
LINE
8
BLACK
6
CONTINUOUS
10
6.03242
20
-3.98848
11
6.03322
21
-3.98902
0
LINE
8
BLACK
6
CONTINUOUS
10
6.03322
20
-3.98902
11
6.03375
21
-3.98981
0
LINE
8
BLACK
6
CONTINUOUS
10
6.03375
20
-3.98981
11
6.03394
21
-3.99076
0
LINE
8
BLACK
6
CONTINUOUS
10
6.03394
20
-3.99076
11
6.03394
21
-3.99568
0
LINE
8
BLACK
6
CONTINUOUS
10
6.03394
20
-3.99568
11
6.03375
21
-3.99662
0
LINE
8
BLACK
6
CONTINUOUS
10
6.03375
20
-3.99662
11
6.03322
21
-3.99742
0
LINE
8
BLACK
6
CONTINUOUS
10
6.03322
20
-3.99742
11
6.03242
21
-3.99795
0
LINE
8
BLACK
6
CONTINUOUS
10
6.03242
20
-3.99795
11
6.03148
21
-3.99814
0
LINE
8
BLACK
6
CONTINUOUS
10
6.03148
20
-3.99814
11
6.00293
21
-3.99814
0
LINE
8
BLACK
6
CONTINUOUS
10
6.00293
20
-3.99814
11
6.00199
21
-3.99795
0
LINE
8
BLACK
6
CONTINUOUS
10
6.00199
20
-3.99795
11
6.0012
21
-3.99742
0
LINE
8
BLACK
6
CONTINUOUS
10
6.0012
20
-3.99742
11
6.00066
21
-3.99662
0
LINE
8
BLACK
6
CONTINUOUS
10
6.00066
20
-3.99662
11
6.00047
21
-3.99568
0
LINE
8
BLACK
6
CONTINUOUS
10
6.00047
20
-3.99568
11
6.00047
21
-3.99076
0
LINE
8
BLACK
6
CONTINUOUS
10
6.00047
20
-3.99076
11
6.00066
21
-3.98981
0
LINE
8
BLACK
6
CONTINUOUS
10
6.00066
20
-3.98981
11
6.0012
21
-3.98902
0
LINE
8
BLACK
6
CONTINUOUS
10
6.0012
20
-3.98902
11
6.00199
21
-3.98848
0
LINE
8
BLACK
6
CONTINUOUS
10
6.00199
20
-3.98848
11
6.00293
21
-3.98829
0
LINE
8
BLACK
6
CONTINUOUS
10
6.00293
20
-3.98829
11
6.03148
21
-3.98829
0
LINE
8
BLACK
6
CONTINUOUS
10
6.03148
20
-3.98829
11
6.03242
21
-3.98848
0
LINE
8
BLACK
6
CONTINUOUS
10
5.21106
20
-3.98306
11
5.13106
21
-3.98306
0
LINE
8
BLACK
6
CONTINUOUS
10
5.13106
20
-3.98306
11
5.13106
21
-3.94306
0
LINE
8
BLACK
6
CONTINUOUS
10
5.13106
20
-3.94306
11
5.21106
21
-3.94306
0
LINE
8
BLACK
6
CONTINUOUS
10
5.21106
20
-3.94306
11
5.21106
21
-3.98306
0
LINE
8
BLACK
6
CONTINUOUS
10
5.80014
20
-3.9688
11
5.80093
21
-3.96933
0
LINE
8
BLACK
6
CONTINUOUS
10
5.80093
20
-3.96933
11
5.80147
21
-3.97013
0
LINE
8
BLACK
6
CONTINUOUS
10
5.80147
20
-3.97013
11
5.80166
21
-3.97107
0
LINE
8
BLACK
6
CONTINUOUS
10
5.80166
20
-3.97107
11
5.80166
21
-3.97599
0
LINE
8
BLACK
6
CONTINUOUS
10
5.80166
20
-3.97599
11
5.80147
21
-3.97693
0
LINE
8
BLACK
6
CONTINUOUS
10
5.80147
20
-3.97693
11
5.80093
21
-3.97773
0
LINE
8
BLACK
6
CONTINUOUS
10
5.80093
20
-3.97773
11
5.80014
21
-3.97826
0
LINE
8
BLACK
6
CONTINUOUS
10
5.80014
20
-3.97826
11
5.79919
21
-3.97845
0
LINE
8
BLACK
6
CONTINUOUS
10
5.79919
20
-3.97845
11
5.77065
21
-3.97845
0
LINE
8
BLACK
6
CONTINUOUS
10
5.77065
20
-3.97845
11
5.76971
21
-3.97826
0
LINE
8
BLACK
6
CONTINUOUS
10
5.76971
20
-3.97826
11
5.76891
21
-3.97773
0
LINE
8
BLACK
6
CONTINUOUS
10
5.76891
20
-3.97773
11
5.76838
21
-3.97693
0
LINE
8
BLACK
6
CONTINUOUS
10
5.76838
20
-3.97693
11
5.76819
21
-3.97599
0
LINE
8
BLACK
6
CONTINUOUS
10
5.76819
20
-3.97599
11
5.76819
21
-3.97107
0
LINE
8
BLACK
6
CONTINUOUS
10
5.76819
20
-3.97107
11
5.76838
21
-3.97013
0
LINE
8
BLACK
6
CONTINUOUS
10
5.76838
20
-3.97013
11
5.76891
21
-3.96933
0
LINE
8
BLACK
6
CONTINUOUS
10
5.76891
20
-3.96933
11
5.76971
21
-3.9688
0
LINE
8
BLACK
6
CONTINUOUS
10
5.76971
20
-3.9688
11
5.77065
21
-3.96861
0
LINE
8
BLACK
6
CONTINUOUS
10
5.77065
20
-3.96861
11
5.79919
21
-3.96861
0
LINE
8
BLACK
6
CONTINUOUS
10
5.79919
20
-3.96861
11
5.80014
21
-3.9688
0
LINE
8
BLACK
6
CONTINUOUS
10
6.03242
20
-3.9688
11
6.03322
21
-3.96933
0
LINE
8
BLACK
6
CONTINUOUS
10
6.03322
20
-3.96933
11
6.03375
21
-3.97013
0
LINE
8
BLACK
6
CONTINUOUS
10
6.03375
20
-3.97013
11
6.03394
21
-3.97107
0
LINE
8
BLACK
6
CONTINUOUS
10
6.03394
20
-3.97107
11
6.03394
21
-3.97599
0
LINE
8
BLACK
6
CONTINUOUS
10
6.03394
20
-3.97599
11
6.03375
21
-3.97693
0
LINE
8
BLACK
6
CONTINUOUS
10
6.03375
20
-3.97693
11
6.03322
21
-3.97773
0
LINE
8
BLACK
6
CONTINUOUS
10
6.03322
20
-3.97773
11
6.03242
21
-3.97826
0
LINE
8
BLACK
6
CONTINUOUS
10
6.03242
20
-3.97826
11
6.03148
21
-3.97845
0
LINE
8
BLACK
6
CONTINUOUS
10
6.03148
20
-3.97845
11
6.00293
21
-3.97845
0
LINE
8
BLACK
6
CONTINUOUS
10
6.00293
20
-3.97845
11
6.00199
21
-3.97826
0
LINE
8
BLACK
6
CONTINUOUS
10
6.00199
20
-3.97826
11
6.0012
21
-3.97773
0
LINE
8
BLACK
6
CONTINUOUS
10
6.0012
20
-3.97773
11
6.00066
21
-3.97693
0
LINE
8
BLACK
6
CONTINUOUS
10
6.00066
20
-3.97693
11
6.00047
21
-3.97599
0
LINE
8
BLACK
6
CONTINUOUS
10
6.00047
20
-3.97599
11
6.00047
21
-3.97107
0
LINE
8
BLACK
6
CONTINUOUS
10
6.00047
20
-3.97107
11
6.00066
21
-3.97013
0
LINE
8
BLACK
6
CONTINUOUS
10
6.00066
20
-3.97013
11
6.0012
21
-3.96933
0
LINE
8
BLACK
6
CONTINUOUS
10
6.0012
20
-3.96933
11
6.00199
21
-3.9688
0
LINE
8
BLACK
6
CONTINUOUS
10
6.00199
20
-3.9688
11
6.00293
21
-3.96861
0
LINE
8
BLACK
6
CONTINUOUS
10
6.00293
20
-3.96861
11
6.03148
21
-3.96861
0
LINE
8
BLACK
6
CONTINUOUS
10
6.03148
20
-3.96861
11
6.03242
21
-3.9688
0
LINE
8
BLACK
6
CONTINUOUS
10
5.80014
20
-3.94911
11
5.80093
21
-3.94965
0
LINE
8
BLACK
6
CONTINUOUS
10
5.80093
20
-3.94965
11
5.80147
21
-3.95044
0
LINE
8
BLACK
6
CONTINUOUS
10
5.80147
20
-3.95044
11
5.80166
21
-3.95139
0
LINE
8
BLACK
6
CONTINUOUS
10
5.80166
20
-3.95139
11
5.80166
21
-3.95631
0
LINE
8
BLACK
6
CONTINUOUS
10
5.80166
20
-3.95631
11
5.80147
21
-3.95725
0
LINE
8
BLACK
6
CONTINUOUS
10
5.80147
20
-3.95725
11
5.80093
21
-3.95805
0
LINE
8
BLACK
6
CONTINUOUS
10
5.80093
20
-3.95805
11
5.80014
21
-3.95858
0
LINE
8
BLACK
6
CONTINUOUS
10
5.80014
20
-3.95858
11
5.79919
21
-3.95877
0
LINE
8
BLACK
6
CONTINUOUS
10
5.79919
20
-3.95877
11
5.77065
21
-3.95877
0
LINE
8
BLACK
6
CONTINUOUS
10
5.77065
20
-3.95877
11
5.76971
21
-3.95858
0
LINE
8
BLACK
6
CONTINUOUS
10
5.76971
20
-3.95858
11
5.76891
21
-3.95805
0
LINE
8
BLACK
6
CONTINUOUS
10
5.76891
20
-3.95805
11
5.76838
21
-3.95725
0
LINE
8
BLACK
6
CONTINUOUS
10
5.76838
20
-3.95725
11
5.76819
21
-3.95631
0
LINE
8
BLACK
6
CONTINUOUS
10
5.76819
20
-3.95631
11
5.76819
21
-3.95139
0
LINE
8
BLACK
6
CONTINUOUS
10
5.76819
20
-3.95139
11
5.76838
21
-3.95044
0
LINE
8
BLACK
6
CONTINUOUS
10
5.76838
20
-3.95044
11
5.76891
21
-3.94965
0
LINE
8
BLACK
6
CONTINUOUS
10
5.76891
20
-3.94965
11
5.76971
21
-3.94911
0
LINE
8
BLACK
6
CONTINUOUS
10
5.76971
20
-3.94911
11
5.77065
21
-3.94892
0
LINE
8
BLACK
6
CONTINUOUS
10
5.77065
20
-3.94892
11
5.79919
21
-3.94892
0
LINE
8
BLACK
6
CONTINUOUS
10
5.79919
20
-3.94892
11
5.80014
21
-3.94911
0
LINE
8
BLACK
6
CONTINUOUS
10
6.03242
20
-3.94911
11
6.03322
21
-3.94965
0
LINE
8
BLACK
6
CONTINUOUS
10
6.03322
20
-3.94965
11
6.03375
21
-3.95044
0
LINE
8
BLACK
6
CONTINUOUS
10
6.03375
20
-3.95044
11
6.03394
21
-3.95139
0
LINE
8
BLACK
6
CONTINUOUS
10
6.03394
20
-3.95139
11
6.03394
21
-3.95631
0
LINE
8
BLACK
6
CONTINUOUS
10
6.03394
20
-3.95631
11
6.03375
21
-3.95725
0
LINE
8
BLACK
6
CONTINUOUS
10
6.03375
20
-3.95725
11
6.03322
21
-3.95805
0
LINE
8
BLACK
6
CONTINUOUS
10
6.03322
20
-3.95805
11
6.03242
21
-3.95858
0
LINE
8
BLACK
6
CONTINUOUS
10
6.03242
20
-3.95858
11
6.03148
21
-3.95877
0
LINE
8
BLACK
6
CONTINUOUS
10
6.03148
20
-3.95877
11
6.00293
21
-3.95877
0
LINE
8
BLACK
6
CONTINUOUS
10
6.00293
20
-3.95877
11
6.00199
21
-3.95858
0
LINE
8
BLACK
6
CONTINUOUS
10
6.00199
20
-3.95858
11
6.0012
21
-3.95805
0
LINE
8
BLACK
6
CONTINUOUS
10
6.0012
20
-3.95805
11
6.00066
21
-3.95725
0
LINE
8
BLACK
6
CONTINUOUS
10
6.00066
20
-3.95725
11
6.00047
21
-3.95631
0
LINE
8
BLACK
6
CONTINUOUS
10
6.00047
20
-3.95631
11
6.00047
21
-3.95139
0
LINE
8
BLACK
6
CONTINUOUS
10
6.00047
20
-3.95139
11
6.00066
21
-3.95044
0
LINE
8
BLACK
6
CONTINUOUS
10
6.00066
20
-3.95044
11
6.0012
21
-3.94965
0
LINE
8
BLACK
6
CONTINUOUS
10
6.0012
20
-3.94965
11
6.00199
21
-3.94911
0
LINE
8
BLACK
6
CONTINUOUS
10
6.00199
20
-3.94911
11
6.00293
21
-3.94892
0
LINE
8
BLACK
6
CONTINUOUS
10
6.00293
20
-3.94892
11
6.03148
21
-3.94892
0
LINE
8
BLACK
6
CONTINUOUS
10
6.03148
20
-3.94892
11
6.03242
21
-3.94911
0
LINE
8
BLACK
6
CONTINUOUS
10
5.62856
20
-3.95806
11
5.57356
21
-3.95806
0
LINE
8
BLACK
6
CONTINUOUS
10
5.57356
20
-3.95806
11
5.57356
21
-3.92306
0
LINE
8
BLACK
6
CONTINUOUS
10
5.57356
20
-3.92306
11
5.62856
21
-3.92306
0
LINE
8
BLACK
6
CONTINUOUS
10
5.62856
20
-3.92306
11
5.62856
21
-3.95806
0
LINE
8
BLACK
6
CONTINUOUS
10
6.31106
20
-3.94656
11
6.27606
21
-3.94656
0
LINE
8
BLACK
6
CONTINUOUS
10
6.27606
20
-3.94656
11
6.27606
21
-3.89156
0
LINE
8
BLACK
6
CONTINUOUS
10
6.27606
20
-3.89156
11
6.31106
21
-3.89156
0
LINE
8
BLACK
6
CONTINUOUS
10
6.31106
20
-3.89156
11
6.31106
21
-3.94656
0
LINE
8
BLACK
6
CONTINUOUS
10
6.38606
20
-3.94656
11
6.35106
21
-3.94656
0
LINE
8
BLACK
6
CONTINUOUS
10
6.35106
20
-3.94656
11
6.35106
21
-3.89156
0
LINE
8
BLACK
6
CONTINUOUS
10
6.35106
20
-3.89156
11
6.38606
21
-3.89156
0
LINE
8
BLACK
6
CONTINUOUS
10
6.38606
20
-3.89156
11
6.38606
21
-3.94656
0
LINE
8
BLACK
6
CONTINUOUS
10
6.46106
20
-3.94656
11
6.42606
21
-3.94656
0
LINE
8
BLACK
6
CONTINUOUS
10
6.42606
20
-3.94656
11
6.42606
21
-3.89156
0
LINE
8
BLACK
6
CONTINUOUS
10
6.42606
20
-3.89156
11
6.46106
21
-3.89156
0
LINE
8
BLACK
6
CONTINUOUS
10
6.46106
20
-3.89156
11
6.46106
21
-3.94656
0
LINE
8
BLACK
6
CONTINUOUS
10
6.53606
20
-3.94656
11
6.50106
21
-3.94656
0
LINE
8
BLACK
6
CONTINUOUS
10
6.50106
20
-3.94656
11
6.50106
21
-3.89156
0
LINE
8
BLACK
6
CONTINUOUS
10
6.50106
20
-3.89156
11
6.53606
21
-3.89156
0
LINE
8
BLACK
6
CONTINUOUS
10
6.53606
20
-3.89156
11
6.53606
21
-3.94656
0
LINE
8
BLACK
6
CONTINUOUS
10
6.61106
20
-3.94656
11
6.57606
21
-3.94656
0
LINE
8
BLACK
6
CONTINUOUS
10
6.57606
20
-3.94656
11
6.57606
21
-3.89156
0
LINE
8
BLACK
6
CONTINUOUS
10
6.57606
20
-3.89156
11
6.61106
21
-3.89156
0
LINE
8
BLACK
6
CONTINUOUS
10
6.61106
20
-3.89156
11
6.61106
21
-3.94656
0
LINE
8
BLACK
6
CONTINUOUS
10
6.68606
20
-3.94656
11
6.65106
21
-3.94656
0
LINE
8
BLACK
6
CONTINUOUS
10
6.65106
20
-3.94656
11
6.65106
21
-3.89156
0
LINE
8
BLACK
6
CONTINUOUS
10
6.65106
20
-3.89156
11
6.68606
21
-3.89156
0
LINE
8
BLACK
6
CONTINUOUS
10
6.68606
20
-3.89156
11
6.68606
21
-3.94656
0
LINE
8
BLACK
6
CONTINUOUS
10
6.75606
20
-3.94556
11
6.72106
21
-3.94556
0
LINE
8
BLACK
6
CONTINUOUS
10
6.72106
20
-3.94556
11
6.72106
21
-3.89056
0
LINE
8
BLACK
6
CONTINUOUS
10
6.72106
20
-3.89056
11
6.75606
21
-3.89056
0
LINE
8
BLACK
6
CONTINUOUS
10
6.75606
20
-3.89056
11
6.75606
21
-3.94556
0
LINE
8
BLACK
6
CONTINUOUS
10
6.83106
20
-3.94556
11
6.79606
21
-3.94556
0
LINE
8
BLACK
6
CONTINUOUS
10
6.79606
20
-3.94556
11
6.79606
21
-3.89056
0
LINE
8
BLACK
6
CONTINUOUS
10
6.79606
20
-3.89056
11
6.83106
21
-3.89056
0
LINE
8
BLACK
6
CONTINUOUS
10
6.83106
20
-3.89056
11
6.83106
21
-3.94556
0
LINE
8
BLACK
6
CONTINUOUS
10
5.80014
20
-3.92943
11
5.80093
21
-3.92996
0
LINE
8
BLACK
6
CONTINUOUS
10
5.80093
20
-3.92996
11
5.80147
21
-3.93076
0
LINE
8
BLACK
6
CONTINUOUS
10
5.80147
20
-3.93076
11
5.80166
21
-3.9317
0
LINE
8
BLACK
6
CONTINUOUS
10
5.80166
20
-3.9317
11
5.80166
21
-3.93662
0
LINE
8
BLACK
6
CONTINUOUS
10
5.80166
20
-3.93662
11
5.80147
21
-3.93756
0
LINE
8
BLACK
6
CONTINUOUS
10
5.80147
20
-3.93756
11
5.80093
21
-3.93836
0
LINE
8
BLACK
6
CONTINUOUS
10
5.80093
20
-3.93836
11
5.80014
21
-3.93889
0
LINE
8
BLACK
6
CONTINUOUS
10
5.80014
20
-3.93889
11
5.79919
21
-3.93908
0
LINE
8
BLACK
6
CONTINUOUS
10
5.79919
20
-3.93908
11
5.77065
21
-3.93908
0
LINE
8
BLACK
6
CONTINUOUS
10
5.77065
20
-3.93908
11
5.76971
21
-3.93889
0
LINE
8
BLACK
6
CONTINUOUS
10
5.76971
20
-3.93889
11
5.76891
21
-3.93836
0
LINE
8
BLACK
6
CONTINUOUS
10
5.76891
20
-3.93836
11
5.76838
21
-3.93756
0
LINE
8
BLACK
6
CONTINUOUS
10
5.76838
20
-3.93756
11
5.76819
21
-3.93662
0
LINE
8
BLACK
6
CONTINUOUS
10
5.76819
20
-3.93662
11
5.76819
21
-3.9317
0
LINE
8
BLACK
6
CONTINUOUS
10
5.76819
20
-3.9317
11
5.76838
21
-3.93076
0
LINE
8
BLACK
6
CONTINUOUS
10
5.76838
20
-3.93076
11
5.76891
21
-3.92996
0
LINE
8
BLACK
6
CONTINUOUS
10
5.76891
20
-3.92996
11
5.76971
21
-3.92943
0
LINE
8
BLACK
6
CONTINUOUS
10
5.76971
20
-3.92943
11
5.77065
21
-3.92924
0
LINE
8
BLACK
6
CONTINUOUS
10
5.77065
20
-3.92924
11
5.79919
21
-3.92924
0
LINE
8
BLACK
6
CONTINUOUS
10
5.79919
20
-3.92924
11
5.80014
21
-3.92943
0
LINE
8
BLACK
6
CONTINUOUS
10
6.03242
20
-3.92943
11
6.03322
21
-3.92996
0
LINE
8
BLACK
6
CONTINUOUS
10
6.03322
20
-3.92996
11
6.03375
21
-3.93076
0
LINE
8
BLACK
6
CONTINUOUS
10
6.03375
20
-3.93076
11
6.03394
21
-3.9317
0
LINE
8
BLACK
6
CONTINUOUS
10
6.03394
20
-3.9317
11
6.03394
21
-3.93662
0
LINE
8
BLACK
6
CONTINUOUS
10
6.03394
20
-3.93662
11
6.03375
21
-3.93756
0
LINE
8
BLACK
6
CONTINUOUS
10
6.03375
20
-3.93756
11
6.03322
21
-3.93836
0
LINE
8
BLACK
6
CONTINUOUS
10
6.03322
20
-3.93836
11
6.03242
21
-3.93889
0
LINE
8
BLACK
6
CONTINUOUS
10
6.03242
20
-3.93889
11
6.03148
21
-3.93908
0
LINE
8
BLACK
6
CONTINUOUS
10
6.03148
20
-3.93908
11
6.00293
21
-3.93908
0
LINE
8
BLACK
6
CONTINUOUS
10
6.00293
20
-3.93908
11
6.00199
21
-3.93889
0
LINE
8
BLACK
6
CONTINUOUS
10
6.00199
20
-3.93889
11
6.0012
21
-3.93836
0
LINE
8
BLACK
6
CONTINUOUS
10
6.0012
20
-3.93836
11
6.00066
21
-3.93756
0
LINE
8
BLACK
6
CONTINUOUS
10
6.00066
20
-3.93756
11
6.00047
21
-3.93662
0
LINE
8
BLACK
6
CONTINUOUS
10
6.00047
20
-3.93662
11
6.00047
21
-3.9317
0
LINE
8
BLACK
6
CONTINUOUS
10
6.00047
20
-3.9317
11
6.00066
21
-3.93076
0
LINE
8
BLACK
6
CONTINUOUS
10
6.00066
20
-3.93076
11
6.0012
21
-3.92996
0
LINE
8
BLACK
6
CONTINUOUS
10
6.0012
20
-3.92996
11
6.00199
21
-3.92943
0
LINE
8
BLACK
6
CONTINUOUS
10
6.00199
20
-3.92943
11
6.00293
21
-3.92924
0
LINE
8
BLACK
6
CONTINUOUS
10
6.00293
20
-3.92924
11
6.03148
21
-3.92924
0
LINE
8
BLACK
6
CONTINUOUS
10
6.03148
20
-3.92924
11
6.03242
21
-3.92943
0
LINE
8
BLACK
6
CONTINUOUS
10
6.22856
20
-3.93306
11
6.17356
21
-3.93306
0
LINE
8
BLACK
6
CONTINUOUS
10
6.17356
20
-3.93306
11
6.17356
21
-3.89806
0
LINE
8
BLACK
6
CONTINUOUS
10
6.17356
20
-3.89806
11
6.22856
21
-3.89806
0
LINE
8
BLACK
6
CONTINUOUS
10
6.22856
20
-3.89806
11
6.22856
21
-3.93306
0
LINE
8
BLACK
6
CONTINUOUS
10
5.81588
20
-3.89006
11
5.81668
21
-3.89059
0
LINE
8
BLACK
6
CONTINUOUS
10
5.81668
20
-3.89059
11
5.81722
21
-3.89139
0
LINE
8
BLACK
6
CONTINUOUS
10
5.81722
20
-3.89139
11
5.8174
21
-3.89233
0
LINE
8
BLACK
6
CONTINUOUS
10
5.8174
20
-3.89233
11
5.8174
21
-3.92087
0
LINE
8
BLACK
6
CONTINUOUS
10
5.8174
20
-3.92087
11
5.81722
21
-3.92182
0
LINE
8
BLACK
6
CONTINUOUS
10
5.81722
20
-3.92182
11
5.81668
21
-3.92261
0
LINE
8
BLACK
6
CONTINUOUS
10
5.81668
20
-3.92261
11
5.81588
21
-3.92315
0
LINE
8
BLACK
6
CONTINUOUS
10
5.81588
20
-3.92315
11
5.81494
21
-3.92333
0
LINE
8
BLACK
6
CONTINUOUS
10
5.81494
20
-3.92333
11
5.81002
21
-3.92333
0
LINE
8
BLACK
6
CONTINUOUS
10
5.81002
20
-3.92333
11
5.80908
21
-3.92315
0
LINE
8
BLACK
6
CONTINUOUS
10
5.80908
20
-3.92315
11
5.80828
21
-3.92261
0
LINE
8
BLACK
6
CONTINUOUS
10
5.80828
20
-3.92261
11
5.80775
21
-3.92182
0
LINE
8
BLACK
6
CONTINUOUS
10
5.80775
20
-3.92182
11
5.80756
21
-3.92087
0
LINE
8
BLACK
6
CONTINUOUS
10
5.80756
20
-3.92087
11
5.80756
21
-3.89233
0
LINE
8
BLACK
6
CONTINUOUS
10
5.80756
20
-3.89233
11
5.80775
21
-3.89139
0
LINE
8
BLACK
6
CONTINUOUS
10
5.80775
20
-3.89139
11
5.80828
21
-3.89059
0
LINE
8
BLACK
6
CONTINUOUS
10
5.80828
20
-3.89059
11
5.80908
21
-3.89006
0
LINE
8
BLACK
6
CONTINUOUS
10
5.80908
20
-3.89006
11
5.81002
21
-3.88987
0
LINE
8
BLACK
6
CONTINUOUS
10
5.81002
20
-3.88987
11
5.81494
21
-3.88987
0
LINE
8
BLACK
6
CONTINUOUS
10
5.81494
20
-3.88987
11
5.81588
21
-3.89006
0
LINE
8
BLACK
6
CONTINUOUS
10
5.83557
20
-3.89006
11
5.83637
21
-3.89059
0
LINE
8
BLACK
6
CONTINUOUS
10
5.83637
20
-3.89059
11
5.8369
21
-3.89139
0
LINE
8
BLACK
6
CONTINUOUS
10
5.8369
20
-3.89139
11
5.83709
21
-3.89233
0
LINE
8
BLACK
6
CONTINUOUS
10
5.83709
20
-3.89233
11
5.83709
21
-3.92087
0
LINE
8
BLACK
6
CONTINUOUS
10
5.83709
20
-3.92087
11
5.8369
21
-3.92182
0
LINE
8
BLACK
6
CONTINUOUS
10
5.8369
20
-3.92182
11
5.83637
21
-3.92261
0
LINE
8
BLACK
6
CONTINUOUS
10
5.83637
20
-3.92261
11
5.83557
21
-3.92315
0
LINE
8
BLACK
6
CONTINUOUS
10
5.83557
20
-3.92315
11
5.83463
21
-3.92333
0
LINE
8
BLACK
6
CONTINUOUS
10
5.83463
20
-3.92333
11
5.82971
21
-3.92333
0
LINE
8
BLACK
6
CONTINUOUS
10
5.82971
20
-3.92333
11
5.82876
21
-3.92315
0
LINE
8
BLACK
6
CONTINUOUS
10
5.82876
20
-3.92315
11
5.82797
21
-3.92261
0
LINE
8
BLACK
6
CONTINUOUS
10
5.82797
20
-3.92261
11
5.82743
21
-3.92182
0
LINE
8
BLACK
6
CONTINUOUS
10
5.82743
20
-3.92182
11
5.82725
21
-3.92087
0
LINE
8
BLACK
6
CONTINUOUS
10
5.82725
20
-3.92087
11
5.82725
21
-3.89233
0
LINE
8
BLACK
6
CONTINUOUS
10
5.82725
20
-3.89233
11
5.82743
21
-3.89139
0
LINE
8
BLACK
6
CONTINUOUS
10
5.82743
20
-3.89139
11
5.82797
21
-3.89059
0
LINE
8
BLACK
6
CONTINUOUS
10
5.82797
20
-3.89059
11
5.82876
21
-3.89006
0
LINE
8
BLACK
6
CONTINUOUS
10
5.82876
20
-3.89006
11
5.82971
21
-3.88987
0
LINE
8
BLACK
6
CONTINUOUS
10
5.82971
20
-3.88987
11
5.83463
21
-3.88987
0
LINE
8
BLACK
6
CONTINUOUS
10
5.83463
20
-3.88987
11
5.83557
21
-3.89006
0
LINE
8
BLACK
6
CONTINUOUS
10
5.85525
20
-3.89006
11
5.85605
21
-3.89059
0
LINE
8
BLACK
6
CONTINUOUS
10
5.85605
20
-3.89059
11
5.85659
21
-3.89139
0
LINE
8
BLACK
6
CONTINUOUS
10
5.85659
20
-3.89139
11
5.85677
21
-3.89233
0
LINE
8
BLACK
6
CONTINUOUS
10
5.85677
20
-3.89233
11
5.85677
21
-3.92087
0
LINE
8
BLACK
6
CONTINUOUS
10
5.85677
20
-3.92087
11
5.85659
21
-3.92182
0
LINE
8
BLACK
6
CONTINUOUS
10
5.85659
20
-3.92182
11
5.85605
21
-3.92261
0
LINE
8
BLACK
6
CONTINUOUS
10
5.85605
20
-3.92261
11
5.85525
21
-3.92315
0
LINE
8
BLACK
6
CONTINUOUS
10
5.85525
20
-3.92315
11
5.85431
21
-3.92333
0
LINE
8
BLACK
6
CONTINUOUS
10
5.85431
20
-3.92333
11
5.84939
21
-3.92333
0
LINE
8
BLACK
6
CONTINUOUS
10
5.84939
20
-3.92333
11
5.84845
21
-3.92315
0
LINE
8
BLACK
6
CONTINUOUS
10
5.84845
20
-3.92315
11
5.84765
21
-3.92261
0
LINE
8
BLACK
6
CONTINUOUS
10
5.84765
20
-3.92261
11
5.84712
21
-3.92182
0
LINE
8
BLACK
6
CONTINUOUS
10
5.84712
20
-3.92182
11
5.84693
21
-3.92087
0
LINE
8
BLACK
6
CONTINUOUS
10
5.84693
20
-3.92087
11
5.84693
21
-3.89233
0
LINE
8
BLACK
6
CONTINUOUS
10
5.84693
20
-3.89233
11
5.84712
21
-3.89139
0
LINE
8
BLACK
6
CONTINUOUS
10
5.84712
20
-3.89139
11
5.84765
21
-3.89059
0
LINE
8
BLACK
6
CONTINUOUS
10
5.84765
20
-3.89059
11
5.84845
21
-3.89006
0
LINE
8
BLACK
6
CONTINUOUS
10
5.84845
20
-3.89006
11
5.84939
21
-3.88987
0
LINE
8
BLACK
6
CONTINUOUS
10
5.84939
20
-3.88987
11
5.85431
21
-3.88987
0
LINE
8
BLACK
6
CONTINUOUS
10
5.85431
20
-3.88987
11
5.85525
21
-3.89006
0
LINE
8
BLACK
6
CONTINUOUS
10
5.87494
20
-3.89006
11
5.87574
21
-3.89059
0
LINE
8
BLACK
6
CONTINUOUS
10
5.87574
20
-3.89059
11
5.87627
21
-3.89139
0
LINE
8
BLACK
6
CONTINUOUS
10
5.87627
20
-3.89139
11
5.87646
21
-3.89233
0
LINE
8
BLACK
6
CONTINUOUS
10
5.87646
20
-3.89233
11
5.87646
21
-3.92087
0
LINE
8
BLACK
6
CONTINUOUS
10
5.87646
20
-3.92087
11
5.87627
21
-3.92182
0
LINE
8
BLACK
6
CONTINUOUS
10
5.87627
20
-3.92182
11
5.87574
21
-3.92261
0
LINE
8
BLACK
6
CONTINUOUS
10
5.87574
20
-3.92261
11
5.87494
21
-3.92315
0
LINE
8
BLACK
6
CONTINUOUS
10
5.87494
20
-3.92315
11
5.874
21
-3.92333
0
LINE
8
BLACK
6
CONTINUOUS
10
5.874
20
-3.92333
11
5.86908
21
-3.92333
0
LINE
8
BLACK
6
CONTINUOUS
10
5.86908
20
-3.92333
11
5.86813
21
-3.92315
0
LINE
8
BLACK
6
CONTINUOUS
10
5.86813
20
-3.92315
11
5.86734
21
-3.92261
0
LINE
8
BLACK
6
CONTINUOUS
10
5.86734
20
-3.92261
11
5.8668
21
-3.92182
0
LINE
8
BLACK
6
CONTINUOUS
10
5.8668
20
-3.92182
11
5.86662
21
-3.92087
0
LINE
8
BLACK
6
CONTINUOUS
10
5.86662
20
-3.92087
11
5.86662
21
-3.89233
0
LINE
8
BLACK
6
CONTINUOUS
10
5.86662
20
-3.89233
11
5.8668
21
-3.89139
0
LINE
8
BLACK
6
CONTINUOUS
10
5.8668
20
-3.89139
11
5.86734
21
-3.89059
0
LINE
8
BLACK
6
CONTINUOUS
10
5.86734
20
-3.89059
11
5.86813
21
-3.89006
0
LINE
8
BLACK
6
CONTINUOUS
10
5.86813
20
-3.89006
11
5.86908
21
-3.88987
0
LINE
8
BLACK
6
CONTINUOUS
10
5.86908
20
-3.88987
11
5.874
21
-3.88987
0
LINE
8
BLACK
6
CONTINUOUS
10
5.874
20
-3.88987
11
5.87494
21
-3.89006
0
LINE
8
BLACK
6
CONTINUOUS
10
5.89462
20
-3.89006
11
5.89542
21
-3.89059
0
LINE
8
BLACK
6
CONTINUOUS
10
5.89542
20
-3.89059
11
5.89596
21
-3.89139
0
LINE
8
BLACK
6
CONTINUOUS
10
5.89596
20
-3.89139
11
5.89614
21
-3.89233
0
LINE
8
BLACK
6
CONTINUOUS
10
5.89614
20
-3.89233
11
5.89614
21
-3.92087
0
LINE
8
BLACK
6
CONTINUOUS
10
5.89614
20
-3.92087
11
5.89596
21
-3.92182
0
LINE
8
BLACK
6
CONTINUOUS
10
5.89596
20
-3.92182
11
5.89542
21
-3.92261
0
LINE
8
BLACK
6
CONTINUOUS
10
5.89542
20
-3.92261
11
5.89462
21
-3.92315
0
LINE
8
BLACK
6
CONTINUOUS
10
5.89462
20
-3.92315
11
5.89368
21
-3.92333
0
LINE
8
BLACK
6
CONTINUOUS
10
5.89368
20
-3.92333
11
5.88876
21
-3.92333
0
LINE
8
BLACK
6
CONTINUOUS
10
5.88876
20
-3.92333
11
5.88782
21
-3.92315
0
LINE
8
BLACK
6
CONTINUOUS
10
5.88782
20
-3.92315
11
5.88702
21
-3.92261
0
LINE
8
BLACK
6
CONTINUOUS
10
5.88702
20
-3.92261
11
5.88649
21
-3.92182
0
LINE
8
BLACK
6
CONTINUOUS
10
5.88649
20
-3.92182
11
5.8863
21
-3.92087
0
LINE
8
BLACK
6
CONTINUOUS
10
5.8863
20
-3.92087
11
5.8863
21
-3.89233
0
LINE
8
BLACK
6
CONTINUOUS
10
5.8863
20
-3.89233
11
5.88649
21
-3.89139
0
LINE
8
BLACK
6
CONTINUOUS
10
5.88649
20
-3.89139
11
5.88702
21
-3.89059
0
LINE
8
BLACK
6
CONTINUOUS
10
5.88702
20
-3.89059
11
5.88782
21
-3.89006
0
LINE
8
BLACK
6
CONTINUOUS
10
5.88782
20
-3.89006
11
5.88876
21
-3.88987
0
LINE
8
BLACK
6
CONTINUOUS
10
5.88876
20
-3.88987
11
5.89368
21
-3.88987
0
LINE
8
BLACK
6
CONTINUOUS
10
5.89368
20
-3.88987
11
5.89462
21
-3.89006
0
LINE
8
BLACK
6
CONTINUOUS
10
5.91431
20
-3.89006
11
5.91511
21
-3.89059
0
LINE
8
BLACK
6
CONTINUOUS
10
5.91511
20
-3.89059
11
5.91564
21
-3.89139
0
LINE
8
BLACK
6
CONTINUOUS
10
5.91564
20
-3.89139
11
5.91583
21
-3.89233
0
LINE
8
BLACK
6
CONTINUOUS
10
5.91583
20
-3.89233
11
5.91583
21
-3.92087
0
LINE
8
BLACK
6
CONTINUOUS
10
5.91583
20
-3.92087
11
5.91564
21
-3.92182
0
LINE
8
BLACK
6
CONTINUOUS
10
5.91564
20
-3.92182
11
5.91511
21
-3.92261
0
LINE
8
BLACK
6
CONTINUOUS
10
5.91511
20
-3.92261
11
5.91431
21
-3.92315
0
LINE
8
BLACK
6
CONTINUOUS
10
5.91431
20
-3.92315
11
5.91337
21
-3.92333
0
LINE
8
BLACK
6
CONTINUOUS
10
5.91337
20
-3.92333
11
5.90845
21
-3.92333
0
LINE
8
BLACK
6
CONTINUOUS
10
5.90845
20
-3.92333
11
5.90751
21
-3.92315
0
LINE
8
BLACK
6
CONTINUOUS
10
5.90751
20
-3.92315
11
5.90671
21
-3.92261
0
LINE
8
BLACK
6
CONTINUOUS
10
5.90671
20
-3.92261
11
5.90617
21
-3.92182
0
LINE
8
BLACK
6
CONTINUOUS
10
5.90617
20
-3.92182
11
5.90599
21
-3.92087
0
LINE
8
BLACK
6
CONTINUOUS
10
5.90599
20
-3.92087
11
5.90599
21
-3.89233
0
LINE
8
BLACK
6
CONTINUOUS
10
5.90599
20
-3.89233
11
5.90617
21
-3.89139
0
LINE
8
BLACK
6
CONTINUOUS
10
5.90617
20
-3.89139
11
5.90671
21
-3.89059
0
LINE
8
BLACK
6
CONTINUOUS
10
5.90671
20
-3.89059
11
5.90751
21
-3.89006
0
LINE
8
BLACK
6
CONTINUOUS
10
5.90751
20
-3.89006
11
5.90845
21
-3.88987
0
LINE
8
BLACK
6
CONTINUOUS
10
5.90845
20
-3.88987
11
5.91337
21
-3.88987
0
LINE
8
BLACK
6
CONTINUOUS
10
5.91337
20
-3.88987
11
5.91431
21
-3.89006
0
LINE
8
BLACK
6
CONTINUOUS
10
5.93399
20
-3.89006
11
5.93479
21
-3.89059
0
LINE
8
BLACK
6
CONTINUOUS
10
5.93479
20
-3.89059
11
5.93533
21
-3.89139
0
LINE
8
BLACK
6
CONTINUOUS
10
5.93533
20
-3.89139
11
5.93551
21
-3.89233
0
LINE
8
BLACK
6
CONTINUOUS
10
5.93551
20
-3.89233
11
5.93551
21
-3.92087
0
LINE
8
BLACK
6
CONTINUOUS
10
5.93551
20
-3.92087
11
5.93533
21
-3.92182
0
LINE
8
BLACK
6
CONTINUOUS
10
5.93533
20
-3.92182
11
5.93479
21
-3.92261
0
LINE
8
BLACK
6
CONTINUOUS
10
5.93479
20
-3.92261
11
5.93399
21
-3.92315
0
LINE
8
BLACK
6
CONTINUOUS
10
5.93399
20
-3.92315
11
5.93305
21
-3.92333
0
LINE
8
BLACK
6
CONTINUOUS
10
5.93305
20
-3.92333
11
5.92813
21
-3.92333
0
LINE
8
BLACK
6
CONTINUOUS
10
5.92813
20
-3.92333
11
5.92719
21
-3.92315
0
LINE
8
BLACK
6
CONTINUOUS
10
5.92719
20
-3.92315
11
5.92639
21
-3.92261
0
LINE
8
BLACK
6
CONTINUOUS
10
5.92639
20
-3.92261
11
5.92586
21
-3.92182
0
LINE
8
BLACK
6
CONTINUOUS
10
5.92586
20
-3.92182
11
5.92567
21
-3.92087
0
LINE
8
BLACK
6
CONTINUOUS
10
5.92567
20
-3.92087
11
5.92567
21
-3.89233
0
LINE
8
BLACK
6
CONTINUOUS
10
5.92567
20
-3.89233
11
5.92586
21
-3.89139
0
LINE
8
BLACK
6
CONTINUOUS
10
5.92586
20
-3.89139
11
5.92639
21
-3.89059
0
LINE
8
BLACK
6
CONTINUOUS
10
5.92639
20
-3.89059
11
5.92719
21
-3.89006
0
LINE
8
BLACK
6
CONTINUOUS
10
5.92719
20
-3.89006
11
5.92813
21
-3.88987
0
LINE
8
BLACK
6
CONTINUOUS
10
5.92813
20
-3.88987
11
5.93305
21
-3.88987
0
LINE
8
BLACK
6
CONTINUOUS
10
5.93305
20
-3.88987
11
5.93399
21
-3.89006
0
LINE
8
BLACK
6
CONTINUOUS
10
5.95368
20
-3.89006
11
5.95448
21
-3.89059
0
LINE
8
BLACK
6
CONTINUOUS
10
5.95448
20
-3.89059
11
5.95501
21
-3.89139
0
LINE
8
BLACK
6
CONTINUOUS
10
5.95501
20
-3.89139
11
5.9552
21
-3.89233
0
LINE
8
BLACK
6
CONTINUOUS
10
5.9552
20
-3.89233
11
5.9552
21
-3.92087
0
LINE
8
BLACK
6
CONTINUOUS
10
5.9552
20
-3.92087
11
5.95501
21
-3.92182
0
LINE
8
BLACK
6
CONTINUOUS
10
5.95501
20
-3.92182
11
5.95448
21
-3.92261
0
LINE
8
BLACK
6
CONTINUOUS
10
5.95448
20
-3.92261
11
5.95368
21
-3.92315
0
LINE
8
BLACK
6
CONTINUOUS
10
5.95368
20
-3.92315
11
5.95274
21
-3.92333
0
LINE
8
BLACK
6
CONTINUOUS
10
5.95274
20
-3.92333
11
5.94782
21
-3.92333
0
LINE
8
BLACK
6
CONTINUOUS
10
5.94782
20
-3.92333
11
5.94688
21
-3.92315
0
LINE
8
BLACK
6
CONTINUOUS
10
5.94688
20
-3.92315
11
5.94608
21
-3.92261
0
LINE
8
BLACK
6
CONTINUOUS
10
5.94608
20
-3.92261
11
5.94554
21
-3.92182
0
LINE
8
BLACK
6
CONTINUOUS
10
5.94554
20
-3.92182
11
5.94536
21
-3.92087
0
LINE
8
BLACK
6
CONTINUOUS
10
5.94536
20
-3.92087
11
5.94536
21
-3.89233
0
LINE
8
BLACK
6
CONTINUOUS
10
5.94536
20
-3.89233
11
5.94554
21
-3.89139
0
LINE
8
BLACK
6
CONTINUOUS
10
5.94554
20
-3.89139
11
5.94608
21
-3.89059
0
LINE
8
BLACK
6
CONTINUOUS
10
5.94608
20
-3.89059
11
5.94688
21
-3.89006
0
LINE
8
BLACK
6
CONTINUOUS
10
5.94688
20
-3.89006
11
5.94782
21
-3.88987
0
LINE
8
BLACK
6
CONTINUOUS
10
5.94782
20
-3.88987
11
5.95274
21
-3.88987
0
LINE
8
BLACK
6
CONTINUOUS
10
5.95274
20
-3.88987
11
5.95368
21
-3.89006
0
LINE
8
BLACK
6
CONTINUOUS
10
5.97336
20
-3.89006
11
5.97416
21
-3.89059
0
LINE
8
BLACK
6
CONTINUOUS
10
5.97416
20
-3.89059
11
5.9747
21
-3.89139
0
LINE
8
BLACK
6
CONTINUOUS
10
5.9747
20
-3.89139
11
5.97488
21
-3.89233
0
LINE
8
BLACK
6
CONTINUOUS
10
5.97488
20
-3.89233
11
5.97488
21
-3.92087
0
LINE
8
BLACK
6
CONTINUOUS
10
5.97488
20
-3.92087
11
5.9747
21
-3.92182
0
LINE
8
BLACK
6
CONTINUOUS
10
5.9747
20
-3.92182
11
5.97416
21
-3.92261
0
LINE
8
BLACK
6
CONTINUOUS
10
5.97416
20
-3.92261
11
5.97336
21
-3.92315
0
LINE
8
BLACK
6
CONTINUOUS
10
5.97336
20
-3.92315
11
5.97242
21
-3.92333
0
LINE
8
BLACK
6
CONTINUOUS
10
5.97242
20
-3.92333
11
5.9675
21
-3.92333
0
LINE
8
BLACK
6
CONTINUOUS
10
5.9675
20
-3.92333
11
5.96656
21
-3.92315
0
LINE
8
BLACK
6
CONTINUOUS
10
5.96656
20
-3.92315
11
5.96576
21
-3.92261
0
LINE
8
BLACK
6
CONTINUOUS
10
5.96576
20
-3.92261
11
5.96523
21
-3.92182
0
LINE
8
BLACK
6
CONTINUOUS
10
5.96523
20
-3.92182
11
5.96504
21
-3.92087
0
LINE
8
BLACK
6
CONTINUOUS
10
5.96504
20
-3.92087
11
5.96504
21
-3.89233
0
LINE
8
BLACK
6
CONTINUOUS
10
5.96504
20
-3.89233
11
5.96523
21
-3.89139
0
LINE
8
BLACK
6
CONTINUOUS
10
5.96523
20
-3.89139
11
5.96576
21
-3.89059
0
LINE
8
BLACK
6
CONTINUOUS
10
5.96576
20
-3.89059
11
5.96656
21
-3.89006
0
LINE
8
BLACK
6
CONTINUOUS
10
5.96656
20
-3.89006
11
5.9675
21
-3.88987
0
LINE
8
BLACK
6
CONTINUOUS
10
5.9675
20
-3.88987
11
5.97242
21
-3.88987
0
LINE
8
BLACK
6
CONTINUOUS
10
5.97242
20
-3.88987
11
5.97336
21
-3.89006
0
LINE
8
BLACK
6
CONTINUOUS
10
5.99305
20
-3.89006
11
5.99385
21
-3.89059
0
LINE
8
BLACK
6
CONTINUOUS
10
5.99385
20
-3.89059
11
5.99438
21
-3.89139
0
LINE
8
BLACK
6
CONTINUOUS
10
5.99438
20
-3.89139
11
5.99457
21
-3.89233
0
LINE
8
BLACK
6
CONTINUOUS
10
5.99457
20
-3.89233
11
5.99457
21
-3.92087
0
LINE
8
BLACK
6
CONTINUOUS
10
5.99457
20
-3.92087
11
5.99438
21
-3.92182
0
LINE
8
BLACK
6
CONTINUOUS
10
5.99438
20
-3.92182
11
5.99385
21
-3.92261
0
LINE
8
BLACK
6
CONTINUOUS
10
5.99385
20
-3.92261
11
5.99305
21
-3.92315
0
LINE
8
BLACK
6
CONTINUOUS
10
5.99305
20
-3.92315
11
5.99211
21
-3.92333
0
LINE
8
BLACK
6
CONTINUOUS
10
5.99211
20
-3.92333
11
5.98719
21
-3.92333
0
LINE
8
BLACK
6
CONTINUOUS
10
5.98719
20
-3.92333
11
5.98625
21
-3.92315
0
LINE
8
BLACK
6
CONTINUOUS
10
5.98625
20
-3.92315
11
5.98545
21
-3.92261
0
LINE
8
BLACK
6
CONTINUOUS
10
5.98545
20
-3.92261
11
5.98491
21
-3.92182
0
LINE
8
BLACK
6
CONTINUOUS
10
5.98491
20
-3.92182
11
5.98473
21
-3.92087
0
LINE
8
BLACK
6
CONTINUOUS
10
5.98473
20
-3.92087
11
5.98473
21
-3.89233
0
LINE
8
BLACK
6
CONTINUOUS
10
5.98473
20
-3.89233
11
5.98491
21
-3.89139
0
LINE
8
BLACK
6
CONTINUOUS
10
5.98491
20
-3.89139
11
5.98545
21
-3.89059
0
LINE
8
BLACK
6
CONTINUOUS
10
5.98545
20
-3.89059
11
5.98625
21
-3.89006
0
LINE
8
BLACK
6
CONTINUOUS
10
5.98625
20
-3.89006
11
5.98719
21
-3.88987
0
LINE
8
BLACK
6
CONTINUOUS
10
5.98719
20
-3.88987
11
5.99211
21
-3.88987
0
LINE
8
BLACK
6
CONTINUOUS
10
5.99211
20
-3.88987
11
5.99305
21
-3.89006
0
LINE
8
BLACK
6
CONTINUOUS
10
5.62856
20
-3.88306
11
5.57356
21
-3.88306
0
LINE
8
BLACK
6
CONTINUOUS
10
5.57356
20
-3.88306
11
5.57356
21
-3.84806
0
LINE
8
BLACK
6
CONTINUOUS
10
5.57356
20
-3.84806
11
5.62856
21
-3.84806
0
LINE
8
BLACK
6
CONTINUOUS
10
5.62856
20
-3.84806
11
5.62856
21
-3.88306
0
LINE
8
BLACK
6
CONTINUOUS
10
5.25856
20
-3.87556
11
5.22356
21
-3.87556
0
LINE
8
BLACK
6
CONTINUOUS
10
5.22356
20
-3.87556
11
5.22356
21
-3.82056
0
LINE
8
BLACK
6
CONTINUOUS
10
5.22356
20
-3.82056
11
5.25856
21
-3.82056
0
LINE
8
BLACK
6
CONTINUOUS
10
5.25856
20
-3.82056
11
5.25856
21
-3.87556
0
LINE
8
BLACK
6
CONTINUOUS
10
5.33356
20
-3.87556
11
5.29856
21
-3.87556
0
LINE
8
BLACK
6
CONTINUOUS
10
5.29856
20
-3.87556
11
5.29856
21
-3.82056
0
LINE
8
BLACK
6
CONTINUOUS
10
5.29856
20
-3.82056
11
5.33356
21
-3.82056
0
LINE
8
BLACK
6
CONTINUOUS
10
5.33356
20
-3.82056
11
5.33356
21
-3.87556
0
LINE
8
BLACK
6
CONTINUOUS
10
5.18453
20
-3.84755
11
5.1176
21
-3.84755
0
LINE
8
BLACK
6
CONTINUOUS
10
5.1176
20
-3.84755
11
5.1176
21
-3.79637
0
LINE
8
BLACK
6
CONTINUOUS
10
5.1176
20
-3.79637
11
5.18453
21
-3.79637
0
LINE
8
BLACK
6
CONTINUOUS
10
5.18453
20
-3.79637
11
5.18453
21
-3.84755
0
LINE
8
BLACK
6
CONTINUOUS
10
5.66732
20
-3.81349
11
5.62795
21
-3.81349
0
LINE
8
BLACK
6
CONTINUOUS
10
5.62795
20
-3.81349
11
5.62795
21
-3.74263
0
LINE
8
BLACK
6
CONTINUOUS
10
5.62795
20
-3.74263
11
5.66732
21
-3.74263
0
LINE
8
BLACK
6
CONTINUOUS
10
5.66732
20
-3.74263
11
5.66732
21
-3.81349
0
LINE
8
BLACK
6
CONTINUOUS
10
5.76575
20
-3.81349
11
5.72638
21
-3.81349
0
LINE
8
BLACK
6
CONTINUOUS
10
5.72638
20
-3.81349
11
5.72638
21
-3.74263
0
LINE
8
BLACK
6
CONTINUOUS
10
5.72638
20
-3.74263
11
5.76575
21
-3.74263
0
LINE
8
BLACK
6
CONTINUOUS
10
5.76575
20
-3.74263
11
5.76575
21
-3.81349
0
LINE
8
BLACK
6
CONTINUOUS
10
6.28106
20
-3.80556
11
6.24606
21
-3.80556
0
LINE
8
BLACK
6
CONTINUOUS
10
6.24606
20
-3.80556
11
6.24606
21
-3.75056
0
LINE
8
BLACK
6
CONTINUOUS
10
6.24606
20
-3.75056
11
6.28106
21
-3.75056
0
LINE
8
BLACK
6
CONTINUOUS
10
6.28106
20
-3.75056
11
6.28106
21
-3.80556
0
LINE
8
BLACK
6
CONTINUOUS
10
6.35606
20
-3.80556
11
6.32106
21
-3.80556
0
LINE
8
BLACK
6
CONTINUOUS
10
6.32106
20
-3.80556
11
6.32106
21
-3.75056
0
LINE
8
BLACK
6
CONTINUOUS
10
6.32106
20
-3.75056
11
6.35606
21
-3.75056
0
LINE
8
BLACK
6
CONTINUOUS
10
6.35606
20
-3.75056
11
6.35606
21
-3.80556
0
LINE
8
BLACK
6
CONTINUOUS
10
6.43106
20
-3.80556
11
6.39606
21
-3.80556
0
LINE
8
BLACK
6
CONTINUOUS
10
6.39606
20
-3.80556
11
6.39606
21
-3.75056
0
LINE
8
BLACK
6
CONTINUOUS
10
6.39606
20
-3.75056
11
6.43106
21
-3.75056
0
LINE
8
BLACK
6
CONTINUOUS
10
6.43106
20
-3.75056
11
6.43106
21
-3.80556
0
LINE
8
BLACK
6
CONTINUOUS
10
6.50606
20
-3.80556
11
6.47106
21
-3.80556
0
LINE
8
BLACK
6
CONTINUOUS
10
6.47106
20
-3.80556
11
6.47106
21
-3.75056
0
LINE
8
BLACK
6
CONTINUOUS
10
6.47106
20
-3.75056
11
6.50606
21
-3.75056
0
LINE
8
BLACK
6
CONTINUOUS
10
6.50606
20
-3.75056
11
6.50606
21
-3.80556
0
LINE
8
BLACK
6
CONTINUOUS
10
6.58106
20
-3.80556
11
6.54606
21
-3.80556
0
LINE
8
BLACK
6
CONTINUOUS
10
6.54606
20
-3.80556
11
6.54606
21
-3.75056
0
LINE
8
BLACK
6
CONTINUOUS
10
6.54606
20
-3.75056
11
6.58106
21
-3.75056
0
LINE
8
BLACK
6
CONTINUOUS
10
6.58106
20
-3.75056
11
6.58106
21
-3.80556
0
LINE
8
BLACK
6
CONTINUOUS
10
6.65606
20
-3.80556
11
6.62106
21
-3.80556
0
LINE
8
BLACK
6
CONTINUOUS
10
6.62106
20
-3.80556
11
6.62106
21
-3.75056
0
LINE
8
BLACK
6
CONTINUOUS
10
6.62106
20
-3.75056
11
6.65606
21
-3.75056
0
LINE
8
BLACK
6
CONTINUOUS
10
6.65606
20
-3.75056
11
6.65606
21
-3.80556
0
LINE
8
BLACK
6
CONTINUOUS
10
6.73106
20
-3.80556
11
6.69606
21
-3.80556
0
LINE
8
BLACK
6
CONTINUOUS
10
6.69606
20
-3.80556
11
6.69606
21
-3.75056
0
LINE
8
BLACK
6
CONTINUOUS
10
6.69606
20
-3.75056
11
6.73106
21
-3.75056
0
LINE
8
BLACK
6
CONTINUOUS
10
6.73106
20
-3.75056
11
6.73106
21
-3.80556
0
LINE
8
BLACK
6
CONTINUOUS
10
6.80606
20
-3.80556
11
6.77106
21
-3.80556
0
LINE
8
BLACK
6
CONTINUOUS
10
6.77106
20
-3.80556
11
6.77106
21
-3.75056
0
LINE
8
BLACK
6
CONTINUOUS
10
6.77106
20
-3.75056
11
6.80606
21
-3.75056
0
LINE
8
BLACK
6
CONTINUOUS
10
6.80606
20
-3.75056
11
6.80606
21
-3.80556
0
LINE
8
BLACK
6
CONTINUOUS
10
5.90776
20
-3.79617
11
5.83689
21
-3.79617
0
LINE
8
BLACK
6
CONTINUOUS
10
5.83689
20
-3.79617
11
5.83689
21
-3.74892
0
LINE
8
BLACK
6
CONTINUOUS
10
5.83689
20
-3.74892
11
5.90776
21
-3.74892
0
LINE
8
BLACK
6
CONTINUOUS
10
5.90776
20
-3.74892
11
5.90776
21
-3.79617
0
LINE
8
BLACK
6
CONTINUOUS
10
6.06524
20
-3.79617
11
5.99437
21
-3.79617
0
LINE
8
BLACK
6
CONTINUOUS
10
5.99437
20
-3.79617
11
5.99437
21
-3.74892
0
LINE
8
BLACK
6
CONTINUOUS
10
5.99437
20
-3.74892
11
6.06524
21
-3.74892
0
LINE
8
BLACK
6
CONTINUOUS
10
6.06524
20
-3.74892
11
6.06524
21
-3.79617
0
LINE
8
BLACK
6
CONTINUOUS
10
5.25856
20
-3.79556
11
5.22356
21
-3.79556
0
LINE
8
BLACK
6
CONTINUOUS
10
5.22356
20
-3.79556
11
5.22356
21
-3.74056
0
LINE
8
BLACK
6
CONTINUOUS
10
5.22356
20
-3.74056
11
5.25856
21
-3.74056
0
LINE
8
BLACK
6
CONTINUOUS
10
5.25856
20
-3.74056
11
5.25856
21
-3.79556
0
LINE
8
BLACK
6
CONTINUOUS
10
5.33356
20
-3.79556
11
5.29856
21
-3.79556
0
LINE
8
BLACK
6
CONTINUOUS
10
5.29856
20
-3.79556
11
5.29856
21
-3.74056
0
LINE
8
BLACK
6
CONTINUOUS
10
5.29856
20
-3.74056
11
5.33356
21
-3.74056
0
LINE
8
BLACK
6
CONTINUOUS
10
5.33356
20
-3.74056
11
5.33356
21
-3.79556
0
LINE
8
BLACK
6
CONTINUOUS
10
5.50356
20
-3.78556
11
5.44856
21
-3.78556
0
LINE
8
BLACK
6
CONTINUOUS
10
5.44856
20
-3.78556
11
5.44856
21
-3.75056
0
LINE
8
BLACK
6
CONTINUOUS
10
5.44856
20
-3.75056
11
5.50356
21
-3.75056
0
LINE
8
BLACK
6
CONTINUOUS
10
5.50356
20
-3.75056
11
5.50356
21
-3.78556
0
LINE
8
BLACK
6
CONTINUOUS
10
6.20356
20
-3.78306
11
6.14856
21
-3.78306
0
LINE
8
BLACK
6
CONTINUOUS
10
6.14856
20
-3.78306
11
6.14856
21
-3.74806
0
LINE
8
BLACK
6
CONTINUOUS
10
6.14856
20
-3.74806
11
6.20356
21
-3.74806
0
LINE
8
BLACK
6
CONTINUOUS
10
6.20356
20
-3.74806
11
6.20356
21
-3.78306
0
LINE
8
BLACK
6
CONTINUOUS
10
5.50356
20
-3.71056
11
5.44856
21
-3.71056
0
LINE
8
BLACK
6
CONTINUOUS
10
5.44856
20
-3.71056
11
5.44856
21
-3.67556
0
LINE
8
BLACK
6
CONTINUOUS
10
5.44856
20
-3.67556
11
5.50356
21
-3.67556
0
LINE
8
BLACK
6
CONTINUOUS
10
5.50356
20
-3.67556
11
5.50356
21
-3.71056
0
LINE
8
BLACK
6
CONTINUOUS
10
5.18453
20
-3.70975
11
5.1176
21
-3.70975
0
LINE
8
BLACK
6
CONTINUOUS
10
5.1176
20
-3.70975
11
5.1176
21
-3.65857
0
LINE
8
BLACK
6
CONTINUOUS
10
5.1176
20
-3.65857
11
5.18453
21
-3.65857
0
LINE
8
BLACK
6
CONTINUOUS
10
5.18453
20
-3.65857
11
5.18453
21
-3.70975
0
LINE
8
BLACK
6
CONTINUOUS
10
6.20356
20
-3.70806
11
6.14856
21
-3.70806
0
LINE
8
BLACK
6
CONTINUOUS
10
6.14856
20
-3.70806
11
6.14856
21
-3.67306
0
LINE
8
BLACK
6
CONTINUOUS
10
6.14856
20
-3.67306
11
6.20356
21
-3.67306
0
LINE
8
BLACK
6
CONTINUOUS
10
6.20356
20
-3.67306
11
6.20356
21
-3.70806
0
LINE
8
BLACK
6
CONTINUOUS
10
6.45356
20
-3.70806
11
6.39856
21
-3.70806
0
LINE
8
BLACK
6
CONTINUOUS
10
6.39856
20
-3.70806
11
6.39856
21
-3.67306
0
LINE
8
BLACK
6
CONTINUOUS
10
6.39856
20
-3.67306
11
6.45356
21
-3.67306
0
LINE
8
BLACK
6
CONTINUOUS
10
6.45356
20
-3.67306
11
6.45356
21
-3.70806
0
LINE
8
BLACK
6
CONTINUOUS
10
6.57856
20
-3.70806
11
6.52356
21
-3.70806
0
LINE
8
BLACK
6
CONTINUOUS
10
6.52356
20
-3.70806
11
6.52356
21
-3.67306
0
LINE
8
BLACK
6
CONTINUOUS
10
6.52356
20
-3.67306
11
6.57856
21
-3.67306
0
LINE
8
BLACK
6
CONTINUOUS
10
6.57856
20
-3.67306
11
6.57856
21
-3.70806
0
LINE
8
BLACK
6
CONTINUOUS
10
6.70356
20
-3.70806
11
6.64856
21
-3.70806
0
LINE
8
BLACK
6
CONTINUOUS
10
6.64856
20
-3.70806
11
6.64856
21
-3.67306
0
LINE
8
BLACK
6
CONTINUOUS
10
6.64856
20
-3.67306
11
6.70356
21
-3.67306
0
LINE
8
BLACK
6
CONTINUOUS
10
6.70356
20
-3.67306
11
6.70356
21
-3.70806
0
LINE
8
BLACK
6
CONTINUOUS
10
6.28106
20
-3.70556
11
6.24606
21
-3.70556
0
LINE
8
BLACK
6
CONTINUOUS
10
6.24606
20
-3.70556
11
6.24606
21
-3.65056
0
LINE
8
BLACK
6
CONTINUOUS
10
6.24606
20
-3.65056
11
6.28106
21
-3.65056
0
LINE
8
BLACK
6
CONTINUOUS
10
6.28106
20
-3.65056
11
6.28106
21
-3.70556
0
LINE
8
BLACK
6
CONTINUOUS
10
6.35606
20
-3.70556
11
6.32106
21
-3.70556
0
LINE
8
BLACK
6
CONTINUOUS
10
6.32106
20
-3.70556
11
6.32106
21
-3.65056
0
LINE
8
BLACK
6
CONTINUOUS
10
6.32106
20
-3.65056
11
6.35606
21
-3.65056
0
LINE
8
BLACK
6
CONTINUOUS
10
6.35606
20
-3.65056
11
6.35606
21
-3.70556
0
LINE
8
BLACK
6
CONTINUOUS
10
5.90776
20
-3.70168
11
5.83689
21
-3.70168
0
LINE
8
BLACK
6
CONTINUOUS
10
5.83689
20
-3.70168
11
5.83689
21
-3.65444
0
LINE
8
BLACK
6
CONTINUOUS
10
5.83689
20
-3.65444
11
5.90776
21
-3.65444
0
LINE
8
BLACK
6
CONTINUOUS
10
5.90776
20
-3.65444
11
5.90776
21
-3.70168
0
LINE
8
BLACK
6
CONTINUOUS
10
6.06524
20
-3.70168
11
5.99437
21
-3.70168
0
LINE
8
BLACK
6
CONTINUOUS
10
5.99437
20
-3.70168
11
5.99437
21
-3.65444
0
LINE
8
BLACK
6
CONTINUOUS
10
5.99437
20
-3.65444
11
6.06524
21
-3.65444
0
LINE
8
BLACK
6
CONTINUOUS
10
6.06524
20
-3.65444
11
6.06524
21
-3.70168
0
LINE
8
BLACK
6
CONTINUOUS
10
6.45356
20
-3.63306
11
6.39856
21
-3.63306
0
LINE
8
BLACK
6
CONTINUOUS
10
6.39856
20
-3.63306
11
6.39856
21
-3.59806
0
LINE
8
BLACK
6
CONTINUOUS
10
6.39856
20
-3.59806
11
6.45356
21
-3.59806
0
LINE
8
BLACK
6
CONTINUOUS
10
6.45356
20
-3.59806
11
6.45356
21
-3.63306
0
LINE
8
BLACK
6
CONTINUOUS
10
6.57856
20
-3.63306
11
6.52356
21
-3.63306
0
LINE
8
BLACK
6
CONTINUOUS
10
6.52356
20
-3.63306
11
6.52356
21
-3.59806
0
LINE
8
BLACK
6
CONTINUOUS
10
6.52356
20
-3.59806
11
6.57856
21
-3.59806
0
LINE
8
BLACK
6
CONTINUOUS
10
6.57856
20
-3.59806
11
6.57856
21
-3.63306
0
LINE
8
BLACK
6
CONTINUOUS
10
6.70356
20
-3.63306
11
6.64856
21
-3.63306
0
LINE
8
BLACK
6
CONTINUOUS
10
6.64856
20
-3.63306
11
6.64856
21
-3.59806
0
LINE
8
BLACK
6
CONTINUOUS
10
6.64856
20
-3.59806
11
6.70356
21
-3.59806
0
LINE
8
BLACK
6
CONTINUOUS
10
6.70356
20
-3.59806
11
6.70356
21
-3.63306
0
LINE
8
BLACK
6
CONTINUOUS
10
6.29356
20
-3.61056
11
6.23856
21
-3.61056
0
LINE
8
BLACK
6
CONTINUOUS
10
6.23856
20
-3.61056
11
6.23856
21
-3.57556
0
LINE
8
BLACK
6
CONTINUOUS
10
6.23856
20
-3.57556
11
6.29356
21
-3.57556
0
LINE
8
BLACK
6
CONTINUOUS
10
6.29356
20
-3.57556
11
6.29356
21
-3.61056
0
LINE
8
BLACK
6
CONTINUOUS
10
5.30356
20
-3.60806
11
5.24856
21
-3.60806
0
LINE
8
BLACK
6
CONTINUOUS
10
5.24856
20
-3.60806
11
5.24856
21
-3.57306
0
LINE
8
BLACK
6
CONTINUOUS
10
5.24856
20
-3.57306
11
5.30356
21
-3.57306
0
LINE
8
BLACK
6
CONTINUOUS
10
5.30356
20
-3.57306
11
5.30356
21
-3.60806
0
LINE
8
BLACK
6
CONTINUOUS
10
5.40356
20
-3.60806
11
5.34856
21
-3.60806
0
LINE
8
BLACK
6
CONTINUOUS
10
5.34856
20
-3.60806
11
5.34856
21
-3.57306
0
LINE
8
BLACK
6
CONTINUOUS
10
5.34856
20
-3.57306
11
5.40356
21
-3.57306
0
LINE
8
BLACK
6
CONTINUOUS
10
5.40356
20
-3.57306
11
5.40356
21
-3.60806
0
LINE
8
BLACK
6
CONTINUOUS
10
5.50356
20
-3.60806
11
5.44856
21
-3.60806
0
LINE
8
BLACK
6
CONTINUOUS
10
5.44856
20
-3.60806
11
5.44856
21
-3.57306
0
LINE
8
BLACK
6
CONTINUOUS
10
5.44856
20
-3.57306
11
5.50356
21
-3.57306
0
LINE
8
BLACK
6
CONTINUOUS
10
5.50356
20
-3.57306
11
5.50356
21
-3.60806
0
LINE
8
BLACK
6
CONTINUOUS
10
5.60356
20
-3.60806
11
5.54856
21
-3.60806
0
LINE
8
BLACK
6
CONTINUOUS
10
5.54856
20
-3.60806
11
5.54856
21
-3.57306
0
LINE
8
BLACK
6
CONTINUOUS
10
5.54856
20
-3.57306
11
5.60356
21
-3.57306
0
LINE
8
BLACK
6
CONTINUOUS
10
5.60356
20
-3.57306
11
5.60356
21
-3.60806
0
LINE
8
BLACK
6
CONTINUOUS
10
5.70356
20
-3.60806
11
5.64856
21
-3.60806
0
LINE
8
BLACK
6
CONTINUOUS
10
5.64856
20
-3.60806
11
5.64856
21
-3.57306
0
LINE
8
BLACK
6
CONTINUOUS
10
5.64856
20
-3.57306
11
5.70356
21
-3.57306
0
LINE
8
BLACK
6
CONTINUOUS
10
5.70356
20
-3.57306
11
5.70356
21
-3.60806
0
LINE
8
BLACK
6
CONTINUOUS
10
5.80356
20
-3.60806
11
5.74856
21
-3.60806
0
LINE
8
BLACK
6
CONTINUOUS
10
5.74856
20
-3.60806
11
5.74856
21
-3.57306
0
LINE
8
BLACK
6
CONTINUOUS
10
5.74856
20
-3.57306
11
5.80356
21
-3.57306
0
LINE
8
BLACK
6
CONTINUOUS
10
5.80356
20
-3.57306
11
5.80356
21
-3.60806
0
LINE
8
BLACK
6
CONTINUOUS
10
5.90356
20
-3.60806
11
5.84856
21
-3.60806
0
LINE
8
BLACK
6
CONTINUOUS
10
5.84856
20
-3.60806
11
5.84856
21
-3.57306
0
LINE
8
BLACK
6
CONTINUOUS
10
5.84856
20
-3.57306
11
5.90356
21
-3.57306
0
LINE
8
BLACK
6
CONTINUOUS
10
5.90356
20
-3.57306
11
5.90356
21
-3.60806
0
LINE
8
BLACK
6
CONTINUOUS
10
5.97856
20
-3.60806
11
5.92356
21
-3.60806
0
LINE
8
BLACK
6
CONTINUOUS
10
5.92356
20
-3.60806
11
5.92356
21
-3.57306
0
LINE
8
BLACK
6
CONTINUOUS
10
5.92356
20
-3.57306
11
5.97856
21
-3.57306
0
LINE
8
BLACK
6
CONTINUOUS
10
5.97856
20
-3.57306
11
5.97856
21
-3.60806
0
LINE
8
BLACK
6
CONTINUOUS
10
6.05356
20
-3.60806
11
5.99856
21
-3.60806
0
LINE
8
BLACK
6
CONTINUOUS
10
5.99856
20
-3.60806
11
5.99856
21
-3.57306
0
LINE
8
BLACK
6
CONTINUOUS
10
5.99856
20
-3.57306
11
6.05356
21
-3.57306
0
LINE
8
BLACK
6
CONTINUOUS
10
6.05356
20
-3.57306
11
6.05356
21
-3.60806
0
LINE
8
BLACK
6
CONTINUOUS
10
6.13356
20
-3.60556
11
6.07856
21
-3.60556
0
LINE
8
BLACK
6
CONTINUOUS
10
6.07856
20
-3.60556
11
6.07856
21
-3.57056
0
LINE
8
BLACK
6
CONTINUOUS
10
6.07856
20
-3.57056
11
6.13356
21
-3.57056
0
LINE
8
BLACK
6
CONTINUOUS
10
6.13356
20
-3.57056
11
6.13356
21
-3.60556
0
LINE
8
BLACK
6
CONTINUOUS
10
6.29356
20
-3.53556
11
6.23856
21
-3.53556
0
LINE
8
BLACK
6
CONTINUOUS
10
6.23856
20
-3.53556
11
6.23856
21
-3.50056
0
LINE
8
BLACK
6
CONTINUOUS
10
6.23856
20
-3.50056
11
6.29356
21
-3.50056
0
LINE
8
BLACK
6
CONTINUOUS
10
6.29356
20
-3.50056
11
6.29356
21
-3.53556
0
LINE
8
BLACK
6
CONTINUOUS
10
5.30356
20
-3.53306
11
5.24856
21
-3.53306
0
LINE
8
BLACK
6
CONTINUOUS
10
5.24856
20
-3.53306
11
5.24856
21
-3.49806
0
LINE
8
BLACK
6
CONTINUOUS
10
5.24856
20
-3.49806
11
5.30356
21
-3.49806
0
LINE
8
BLACK
6
CONTINUOUS
10
5.30356
20
-3.49806
11
5.30356
21
-3.53306
0
LINE
8
BLACK
6
CONTINUOUS
10
5.40356
20
-3.53306
11
5.34856
21
-3.53306
0
LINE
8
BLACK
6
CONTINUOUS
10
5.34856
20
-3.53306
11
5.34856
21
-3.49806
0
LINE
8
BLACK
6
CONTINUOUS
10
5.34856
20
-3.49806
11
5.40356
21
-3.49806
0
LINE
8
BLACK
6
CONTINUOUS
10
5.40356
20
-3.49806
11
5.40356
21
-3.53306
0
LINE
8
BLACK
6
CONTINUOUS
10
5.50356
20
-3.53306
11
5.44856
21
-3.53306
0
LINE
8
BLACK
6
CONTINUOUS
10
5.44856
20
-3.53306
11
5.44856
21
-3.49806
0
LINE
8
BLACK
6
CONTINUOUS
10
5.44856
20
-3.49806
11
5.50356
21
-3.49806
0
LINE
8
BLACK
6
CONTINUOUS
10
5.50356
20
-3.49806
11
5.50356
21
-3.53306
0
LINE
8
BLACK
6
CONTINUOUS
10
5.60356
20
-3.53306
11
5.54856
21
-3.53306
0
LINE
8
BLACK
6
CONTINUOUS
10
5.54856
20
-3.53306
11
5.54856
21
-3.49806
0
LINE
8
BLACK
6
CONTINUOUS
10
5.54856
20
-3.49806
11
5.60356
21
-3.49806
0
LINE
8
BLACK
6
CONTINUOUS
10
5.60356
20
-3.49806
11
5.60356
21
-3.53306
0
LINE
8
BLACK
6
CONTINUOUS
10
5.70356
20
-3.53306
11
5.64856
21
-3.53306
0
LINE
8
BLACK
6
CONTINUOUS
10
5.64856
20
-3.53306
11
5.64856
21
-3.49806
0
LINE
8
BLACK
6
CONTINUOUS
10
5.64856
20
-3.49806
11
5.70356
21
-3.49806
0
LINE
8
BLACK
6
CONTINUOUS
10
5.70356
20
-3.49806
11
5.70356
21
-3.53306
0
LINE
8
BLACK
6
CONTINUOUS
10
5.80356
20
-3.53306
11
5.74856
21
-3.53306
0
LINE
8
BLACK
6
CONTINUOUS
10
5.74856
20
-3.53306
11
5.74856
21
-3.49806
0
LINE
8
BLACK
6
CONTINUOUS
10
5.74856
20
-3.49806
11
5.80356
21
-3.49806
0
LINE
8
BLACK
6
CONTINUOUS
10
5.80356
20
-3.49806
11
5.80356
21
-3.53306
0
LINE
8
BLACK
6
CONTINUOUS
10
5.90356
20
-3.53306
11
5.84856
21
-3.53306
0
LINE
8
BLACK
6
CONTINUOUS
10
5.84856
20
-3.53306
11
5.84856
21
-3.49806
0
LINE
8
BLACK
6
CONTINUOUS
10
5.84856
20
-3.49806
11
5.90356
21
-3.49806
0
LINE
8
BLACK
6
CONTINUOUS
10
5.90356
20
-3.49806
11
5.90356
21
-3.53306
0
LINE
8
BLACK
6
CONTINUOUS
10
5.97856
20
-3.53306
11
5.92356
21
-3.53306
0
LINE
8
BLACK
6
CONTINUOUS
10
5.92356
20
-3.53306
11
5.92356
21
-3.49806
0
LINE
8
BLACK
6
CONTINUOUS
10
5.92356
20
-3.49806
11
5.97856
21
-3.49806
0
LINE
8
BLACK
6
CONTINUOUS
10
5.97856
20
-3.49806
11
5.97856
21
-3.53306
0
LINE
8
BLACK
6
CONTINUOUS
10
6.05356
20
-3.53306
11
5.99856
21
-3.53306
0
LINE
8
BLACK
6
CONTINUOUS
10
5.99856
20
-3.53306
11
5.99856
21
-3.49806
0
LINE
8
BLACK
6
CONTINUOUS
10
5.99856
20
-3.49806
11
6.05356
21
-3.49806
0
LINE
8
BLACK
6
CONTINUOUS
10
6.05356
20
-3.49806
11
6.05356
21
-3.53306
0
LINE
8
BLACK
6
CONTINUOUS
10
6.13356
20
-3.53056
11
6.07856
21
-3.53056
0
LINE
8
BLACK
6
CONTINUOUS
10
6.07856
20
-3.53056
11
6.07856
21
-3.49556
0
LINE
8
BLACK
6
CONTINUOUS
10
6.07856
20
-3.49556
11
6.13356
21
-3.49556
0
LINE
8
BLACK
6
CONTINUOUS
10
6.13356
20
-3.49556
11
6.13356
21
-3.53056
0
LINE
8
BLACK
6
CONTINUOUS
10
6.21356
20
-3.45556
11
6.15856
21
-3.45556
0
LINE
8
BLACK
6
CONTINUOUS
10
6.15856
20
-3.45556
11
6.15856
21
-3.42056
0
LINE
8
BLACK
6
CONTINUOUS
10
6.15856
20
-3.42056
11
6.21356
21
-3.42056
0
LINE
8
BLACK
6
CONTINUOUS
10
6.21356
20
-3.42056
11
6.21356
21
-3.45556
0
LINE
8
BLACK
6
CONTINUOUS
10
6.21356
20
-3.38056
11
6.15856
21
-3.38056
0
LINE
8
BLACK
6
CONTINUOUS
10
6.15856
20
-3.38056
11
6.15856
21
-3.34556
0
LINE
8
BLACK
6
CONTINUOUS
10
6.15856
20
-3.34556
11
6.21356
21
-3.34556
0
LINE
8
BLACK
6
CONTINUOUS
10
6.21356
20
-3.34556
11
6.21356
21
-3.38056
  0
ENDSEC
  0
EOF
