  0
SECTION
  2
HEADER
  9
$ANGBASE
  50
0.0
  9
$ANGDIR
  70
1
  9
$MEASUREMENT
  70
0
  0
ENDSEC
  0
SECTION
  2
TABLES
  0
TABLE
  2
LTYPE
  70
4
  0
LTYPE
  5
40F
  2
CONTINUOUS
  70
0
  3
Solid line
  72
65
  73
0
  40
0.0
  0
LTYPE
  5
410
  2
DASHDOT
 70
0
  3
Dash Dot ____ _ ____ _
 72
65
 73
4
 40
2.0
 49
1.25
 49
-0.25
 49
0.25
 49
-0.25
  0
LTYPE
  5
411
  2
DASHED
 70
0
  3
Dashed __ __ __ __ __
 72
65
 73
2
 40
0.75
 49
0.5
 49
-0.25
  0
LTYPE
  5
43B
  2
DOTTED
 70
0
  3
Dotted .  .  .  .
 72
65
 73
2
 40
0.2
 49
0.0
 49
-0.2
  0
ENDTAB
  0
TABLE
  2
STYLE
  70
4
  0
STYLE
  2
KICAD
  70
0
  40
0
  41
1
  42
1
  50
0
  71
0
  3
isocp.shx
  0
STYLE
  2
KICADB
  70
0
  40
0
  41
1
  42
1
  50
0
  71
0
  3
isocp.shx
  0
STYLE
  2
KICADI
  70
0
  40
0
  41
1
  42
1
  50
15
  71
0
  3
isocp.shx
  0
STYLE
  2
KICADBI
  70
0
  40
0
  41
1
  42
1
  50
15
  71
0
  3
isocp.shx
  0
ENDTAB
  0
TABLE
  2
LAYER
  70
1
  0
LAYER
  2
BLACK
  70
0
  62
7
  6
CONTINUOUS
  0
ENDTAB
  0
ENDSEC
  0
SECTION
  2
ENTITIES
0
LINE
8
BLACK
6
CONTINUOUS
10
5.35106
20
-4.42511
11
5.45106
21
-4.42511
0
LINE
8
BLACK
6
CONTINUOUS
10
5.45106
20
-4.42511
11
5.55106
21
-4.42511
0
LINE
8
BLACK
6
CONTINUOUS
10
5.55106
20
-4.42511
11
5.65106
21
-4.42511
0
LINE
8
BLACK
6
CONTINUOUS
10
5.65106
20
-4.42511
11
5.75106
21
-4.42511
0
LINE
8
BLACK
6
CONTINUOUS
10
5.75106
20
-4.42511
11
5.85106
21
-4.42511
0
LINE
8
BLACK
6
CONTINUOUS
10
5.85106
20
-4.42511
11
5.95106
21
-4.42511
0
LINE
8
BLACK
6
CONTINUOUS
10
5.95106
20
-4.42511
11
6.05106
21
-4.42511
0
LINE
8
BLACK
6
CONTINUOUS
10
6.05106
20
-4.42511
11
6.15106
21
-4.42511
0
LINE
8
BLACK
6
CONTINUOUS
10
6.15106
20
-4.42511
11
6.25106
21
-4.42511
0
LINE
8
BLACK
6
CONTINUOUS
10
6.25106
20
-4.42511
11
6.25145
21
-4.42517
0
LINE
8
BLACK
6
CONTINUOUS
10
6.25145
20
-4.42517
11
6.25158
21
-4.42515
0
LINE
8
BLACK
6
CONTINUOUS
10
6.25158
20
-4.42515
11
6.25169
21
-4.42522
0
LINE
8
BLACK
6
CONTINUOUS
10
6.25169
20
-4.42522
11
6.25207
21
-4.42528
0
LINE
8
BLACK
6
CONTINUOUS
10
6.25207
20
-4.42528
11
6.25266
21
-4.42578
0
LINE
8
BLACK
6
CONTINUOUS
10
6.25266
20
-4.42578
11
6.25333
21
-4.42616
0
LINE
8
BLACK
6
CONTINUOUS
10
6.25333
20
-4.42616
11
6.25342
21
-4.42641
0
LINE
8
BLACK
6
CONTINUOUS
10
6.25342
20
-4.42641
11
6.25362
21
-4.42658
0
LINE
8
BLACK
6
CONTINUOUS
10
6.25362
20
-4.42658
11
6.25376
21
-4.42734
0
LINE
8
BLACK
6
CONTINUOUS
10
6.25376
20
-4.42734
11
6.25402
21
-4.42806
0
LINE
8
BLACK
6
CONTINUOUS
10
6.25402
20
-4.42806
11
6.25402
21
-4.62806
0
LINE
8
BLACK
6
CONTINUOUS
10
6.25402
20
-4.62806
11
6.25395
21
-4.62844
0
LINE
8
BLACK
6
CONTINUOUS
10
6.25395
20
-4.62844
11
6.25397
21
-4.62857
0
LINE
8
BLACK
6
CONTINUOUS
10
6.25397
20
-4.62857
11
6.25391
21
-4.62868
0
LINE
8
BLACK
6
CONTINUOUS
10
6.25391
20
-4.62868
11
6.25384
21
-4.62907
0
LINE
8
BLACK
6
CONTINUOUS
10
6.25384
20
-4.62907
11
6.25335
21
-4.62966
0
LINE
8
BLACK
6
CONTINUOUS
10
6.25335
20
-4.62966
11
6.25296
21
-4.63032
0
LINE
8
BLACK
6
CONTINUOUS
10
6.25296
20
-4.63032
11
6.25271
21
-4.63041
0
LINE
8
BLACK
6
CONTINUOUS
10
6.25271
20
-4.63041
11
6.25254
21
-4.63062
0
LINE
8
BLACK
6
CONTINUOUS
10
6.25254
20
-4.63062
11
6.25179
21
-4.63075
0
LINE
8
BLACK
6
CONTINUOUS
10
6.25179
20
-4.63075
11
6.25106
21
-4.63101
0
LINE
8
BLACK
6
CONTINUOUS
10
6.25106
20
-4.63101
11
6.15106
21
-4.63101
0
LINE
8
BLACK
6
CONTINUOUS
10
6.15106
20
-4.63101
11
6.05106
21
-4.63101
0
LINE
8
BLACK
6
CONTINUOUS
10
6.05106
20
-4.63101
11
5.95106
21
-4.63101
0
LINE
8
BLACK
6
CONTINUOUS
10
5.95106
20
-4.63101
11
5.85106
21
-4.63101
0
LINE
8
BLACK
6
CONTINUOUS
10
5.85106
20
-4.63101
11
5.75106
21
-4.63101
0
LINE
8
BLACK
6
CONTINUOUS
10
5.75106
20
-4.63101
11
5.65106
21
-4.63101
0
LINE
8
BLACK
6
CONTINUOUS
10
5.65106
20
-4.63101
11
5.55106
21
-4.63101
0
LINE
8
BLACK
6
CONTINUOUS
10
5.55106
20
-4.63101
11
5.45106
21
-4.63101
0
LINE
8
BLACK
6
CONTINUOUS
10
5.45106
20
-4.63101
11
5.35106
21
-4.63101
0
LINE
8
BLACK
6
CONTINUOUS
10
5.35106
20
-4.63101
11
5.25106
21
-4.63101
0
LINE
8
BLACK
6
CONTINUOUS
10
5.25106
20
-4.63101
11
5.25068
21
-4.63094
0
LINE
8
BLACK
6
CONTINUOUS
10
5.25068
20
-4.63094
11
5.25055
21
-4.63097
0
LINE
8
BLACK
6
CONTINUOUS
10
5.25055
20
-4.63097
11
5.25044
21
-4.6309
0
LINE
8
BLACK
6
CONTINUOUS
10
5.25044
20
-4.6309
11
5.25005
21
-4.63083
0
LINE
8
BLACK
6
CONTINUOUS
10
5.25005
20
-4.63083
11
5.24947
21
-4.63034
0
LINE
8
BLACK
6
CONTINUOUS
10
5.24947
20
-4.63034
11
5.2488
21
-4.62996
0
LINE
8
BLACK
6
CONTINUOUS
10
5.2488
20
-4.62996
11
5.24871
21
-4.62971
0
LINE
8
BLACK
6
CONTINUOUS
10
5.24871
20
-4.62971
11
5.24851
21
-4.62953
0
LINE
8
BLACK
6
CONTINUOUS
10
5.24851
20
-4.62953
11
5.24837
21
-4.62878
0
LINE
8
BLACK
6
CONTINUOUS
10
5.24837
20
-4.62878
11
5.24811
21
-4.62806
0
LINE
8
BLACK
6
CONTINUOUS
10
5.24811
20
-4.62806
11
5.24811
21
-4.42806
0
LINE
8
BLACK
6
CONTINUOUS
10
5.24811
20
-4.42806
11
5.24818
21
-4.42768
0
LINE
8
BLACK
6
CONTINUOUS
10
5.24818
20
-4.42768
11
5.24816
21
-4.42755
0
LINE
8
BLACK
6
CONTINUOUS
10
5.24816
20
-4.42755
11
5.24822
21
-4.42743
0
LINE
8
BLACK
6
CONTINUOUS
10
5.24822
20
-4.42743
11
5.24829
21
-4.42705
0
LINE
8
BLACK
6
CONTINUOUS
10
5.24829
20
-4.42705
11
5.24878
21
-4.42646
0
LINE
8
BLACK
6
CONTINUOUS
10
5.24878
20
-4.42646
11
5.24917
21
-4.4258
0
LINE
8
BLACK
6
CONTINUOUS
10
5.24917
20
-4.4258
11
5.24942
21
-4.42571
0
LINE
8
BLACK
6
CONTINUOUS
10
5.24942
20
-4.42571
11
5.24959
21
-4.4255
0
LINE
8
BLACK
6
CONTINUOUS
10
5.24959
20
-4.4255
11
5.25034
21
-4.42537
0
LINE
8
BLACK
6
CONTINUOUS
10
5.25034
20
-4.42537
11
5.25106
21
-4.42511
0
LINE
8
BLACK
6
CONTINUOUS
10
5.25106
20
-4.42511
11
5.35106
21
-4.42511
0
LINE
8
BLACK
6
CONTINUOUS
10
6.15402
20
-4.43101
11
6.15402
21
-4.62511
0
LINE
8
BLACK
6
CONTINUOUS
10
6.15402
20
-4.62511
11
6.24811
21
-4.62511
0
LINE
8
BLACK
6
CONTINUOUS
10
6.24811
20
-4.62511
11
6.24811
21
-4.43101
0
LINE
8
BLACK
6
CONTINUOUS
10
6.24811
20
-4.43101
11
6.15402
21
-4.43101
0
LINE
8
BLACK
6
CONTINUOUS
10
6.05402
20
-4.43101
11
6.05402
21
-4.62511
0
LINE
8
BLACK
6
CONTINUOUS
10
6.05402
20
-4.62511
11
6.14811
21
-4.62511
0
LINE
8
BLACK
6
CONTINUOUS
10
6.14811
20
-4.62511
11
6.14811
21
-4.43101
0
LINE
8
BLACK
6
CONTINUOUS
10
6.14811
20
-4.43101
11
6.05402
21
-4.43101
0
LINE
8
BLACK
6
CONTINUOUS
10
5.95402
20
-4.43101
11
5.95402
21
-4.62511
0
LINE
8
BLACK
6
CONTINUOUS
10
5.95402
20
-4.62511
11
6.04811
21
-4.62511
0
LINE
8
BLACK
6
CONTINUOUS
10
6.04811
20
-4.62511
11
6.04811
21
-4.43101
0
LINE
8
BLACK
6
CONTINUOUS
10
6.04811
20
-4.43101
11
5.95402
21
-4.43101
0
LINE
8
BLACK
6
CONTINUOUS
10
5.85402
20
-4.43101
11
5.85402
21
-4.62511
0
LINE
8
BLACK
6
CONTINUOUS
10
5.85402
20
-4.62511
11
5.94811
21
-4.62511
0
LINE
8
BLACK
6
CONTINUOUS
10
5.94811
20
-4.62511
11
5.94811
21
-4.43101
0
LINE
8
BLACK
6
CONTINUOUS
10
5.94811
20
-4.43101
11
5.85402
21
-4.43101
0
LINE
8
BLACK
6
CONTINUOUS
10
5.75402
20
-4.43101
11
5.75402
21
-4.62511
0
LINE
8
BLACK
6
CONTINUOUS
10
5.75402
20
-4.62511
11
5.84811
21
-4.62511
0
LINE
8
BLACK
6
CONTINUOUS
10
5.84811
20
-4.62511
11
5.84811
21
-4.43101
0
LINE
8
BLACK
6
CONTINUOUS
10
5.84811
20
-4.43101
11
5.75402
21
-4.43101
0
LINE
8
BLACK
6
CONTINUOUS
10
5.65402
20
-4.43101
11
5.65402
21
-4.62511
0
LINE
8
BLACK
6
CONTINUOUS
10
5.65402
20
-4.62511
11
5.74811
21
-4.62511
0
LINE
8
BLACK
6
CONTINUOUS
10
5.74811
20
-4.62511
11
5.74811
21
-4.43101
0
LINE
8
BLACK
6
CONTINUOUS
10
5.74811
20
-4.43101
11
5.65402
21
-4.43101
0
LINE
8
BLACK
6
CONTINUOUS
10
5.55402
20
-4.43101
11
5.55402
21
-4.62511
0
LINE
8
BLACK
6
CONTINUOUS
10
5.55402
20
-4.62511
11
5.64811
21
-4.62511
0
LINE
8
BLACK
6
CONTINUOUS
10
5.64811
20
-4.62511
11
5.64811
21
-4.43101
0
LINE
8
BLACK
6
CONTINUOUS
10
5.64811
20
-4.43101
11
5.55402
21
-4.43101
0
LINE
8
BLACK
6
CONTINUOUS
10
5.45402
20
-4.43101
11
5.45402
21
-4.62511
0
LINE
8
BLACK
6
CONTINUOUS
10
5.45402
20
-4.62511
11
5.54811
21
-4.62511
0
LINE
8
BLACK
6
CONTINUOUS
10
5.54811
20
-4.62511
11
5.54811
21
-4.43101
0
LINE
8
BLACK
6
CONTINUOUS
10
5.54811
20
-4.43101
11
5.45402
21
-4.43101
0
LINE
8
BLACK
6
CONTINUOUS
10
5.35402
20
-4.43101
11
5.35402
21
-4.62511
0
LINE
8
BLACK
6
CONTINUOUS
10
5.35402
20
-4.62511
11
5.44811
21
-4.62511
0
LINE
8
BLACK
6
CONTINUOUS
10
5.44811
20
-4.62511
11
5.44811
21
-4.43101
0
LINE
8
BLACK
6
CONTINUOUS
10
5.44811
20
-4.43101
11
5.35402
21
-4.43101
0
LINE
8
BLACK
6
CONTINUOUS
10
5.25402
20
-4.43101
11
5.25402
21
-4.62511
0
LINE
8
BLACK
6
CONTINUOUS
10
5.25402
20
-4.62511
11
5.34811
21
-4.62511
0
LINE
8
BLACK
6
CONTINUOUS
10
5.34811
20
-4.62511
11
5.34811
21
-4.43101
0
LINE
8
BLACK
6
CONTINUOUS
10
5.34811
20
-4.43101
11
5.25402
21
-4.43101
0
LINE
8
BLACK
6
CONTINUOUS
10
6.57469
20
-4.56378
11
6.58975
21
-4.57885
0
LINE
8
BLACK
6
CONTINUOUS
10
6.58975
20
-4.57885
11
6.6102
21
-4.56351
0
LINE
8
BLACK
6
CONTINUOUS
10
6.6102
20
-4.56351
11
6.61111
21
-4.56305
0
LINE
8
BLACK
6
CONTINUOUS
10
6.61111
20
-4.56305
11
6.61313
21
-4.56316
0
LINE
8
BLACK
6
CONTINUOUS
10
6.61313
20
-4.56316
11
6.61461
21
-4.56454
0
LINE
8
BLACK
6
CONTINUOUS
10
6.61461
20
-4.56454
11
6.61485
21
-4.56654
0
LINE
8
BLACK
6
CONTINUOUS
10
6.61485
20
-4.56654
11
6.61374
21
-4.56823
0
LINE
8
BLACK
6
CONTINUOUS
10
6.61374
20
-4.56823
11
6.59397
21
-4.58306
0
LINE
8
BLACK
6
CONTINUOUS
10
6.59397
20
-4.58306
11
6.59632
21
-4.58542
0
LINE
8
BLACK
6
CONTINUOUS
10
6.59632
20
-4.58542
11
6.61197
21
-4.58542
0
LINE
8
BLACK
6
CONTINUOUS
10
6.61197
20
-4.58542
11
6.61298
21
-4.5856
0
LINE
8
BLACK
6
CONTINUOUS
10
6.61298
20
-4.5856
11
6.61453
21
-4.58689
0
LINE
8
BLACK
6
CONTINUOUS
10
6.61453
20
-4.58689
11
6.61488
21
-4.58888
0
LINE
8
BLACK
6
CONTINUOUS
10
6.61488
20
-4.58888
11
6.61387
21
-4.59063
0
LINE
8
BLACK
6
CONTINUOUS
10
6.61387
20
-4.59063
11
6.61197
21
-4.59132
0
LINE
8
BLACK
6
CONTINUOUS
10
6.61197
20
-4.59132
11
6.5726
21
-4.59132
0
LINE
8
BLACK
6
CONTINUOUS
10
6.5726
20
-4.59132
11
6.57159
21
-4.59114
0
LINE
8
BLACK
6
CONTINUOUS
10
6.57159
20
-4.59114
11
6.57004
21
-4.58985
0
LINE
8
BLACK
6
CONTINUOUS
10
6.57004
20
-4.58985
11
6.56969
21
-4.58786
0
LINE
8
BLACK
6
CONTINUOUS
10
6.56969
20
-4.58786
11
6.5707
21
-4.58611
0
LINE
8
BLACK
6
CONTINUOUS
10
6.5707
20
-4.58611
11
6.5726
21
-4.58542
0
LINE
8
BLACK
6
CONTINUOUS
10
6.5726
20
-4.58542
11
6.58797
21
-4.58542
0
LINE
8
BLACK
6
CONTINUOUS
10
6.58797
20
-4.58542
11
6.57051
21
-4.56796
0
LINE
8
BLACK
6
CONTINUOUS
10
6.57051
20
-4.56796
11
6.56992
21
-4.56712
0
LINE
8
BLACK
6
CONTINUOUS
10
6.56992
20
-4.56712
11
6.56975
21
-4.56511
0
LINE
8
BLACK
6
CONTINUOUS
10
6.56975
20
-4.56511
11
6.57091
21
-4.56345
0
LINE
8
BLACK
6
CONTINUOUS
10
6.57091
20
-4.56345
11
6.57286
21
-4.56293
0
LINE
8
BLACK
6
CONTINUOUS
10
6.57286
20
-4.56293
11
6.57469
21
-4.56378
0
LINE
8
BLACK
6
CONTINUOUS
10
6.71469
20
-4.56378
11
6.72975
21
-4.57885
0
LINE
8
BLACK
6
CONTINUOUS
10
6.72975
20
-4.57885
11
6.7502
21
-4.56351
0
LINE
8
BLACK
6
CONTINUOUS
10
6.7502
20
-4.56351
11
6.75111
21
-4.56305
0
LINE
8
BLACK
6
CONTINUOUS
10
6.75111
20
-4.56305
11
6.75313
21
-4.56316
0
LINE
8
BLACK
6
CONTINUOUS
10
6.75313
20
-4.56316
11
6.75461
21
-4.56454
0
LINE
8
BLACK
6
CONTINUOUS
10
6.75461
20
-4.56454
11
6.75485
21
-4.56654
0
LINE
8
BLACK
6
CONTINUOUS
10
6.75485
20
-4.56654
11
6.75374
21
-4.56823
0
LINE
8
BLACK
6
CONTINUOUS
10
6.75374
20
-4.56823
11
6.73397
21
-4.58306
0
LINE
8
BLACK
6
CONTINUOUS
10
6.73397
20
-4.58306
11
6.73632
21
-4.58542
0
LINE
8
BLACK
6
CONTINUOUS
10
6.73632
20
-4.58542
11
6.75197
21
-4.58542
0
LINE
8
BLACK
6
CONTINUOUS
10
6.75197
20
-4.58542
11
6.75298
21
-4.5856
0
LINE
8
BLACK
6
CONTINUOUS
10
6.75298
20
-4.5856
11
6.75453
21
-4.58689
0
LINE
8
BLACK
6
CONTINUOUS
10
6.75453
20
-4.58689
11
6.75488
21
-4.58888
0
LINE
8
BLACK
6
CONTINUOUS
10
6.75488
20
-4.58888
11
6.75387
21
-4.59063
0
LINE
8
BLACK
6
CONTINUOUS
10
6.75387
20
-4.59063
11
6.75197
21
-4.59132
0
LINE
8
BLACK
6
CONTINUOUS
10
6.75197
20
-4.59132
11
6.7126
21
-4.59132
0
LINE
8
BLACK
6
CONTINUOUS
10
6.7126
20
-4.59132
11
6.71159
21
-4.59114
0
LINE
8
BLACK
6
CONTINUOUS
10
6.71159
20
-4.59114
11
6.71004
21
-4.58985
0
LINE
8
BLACK
6
CONTINUOUS
10
6.71004
20
-4.58985
11
6.70969
21
-4.58786
0
LINE
8
BLACK
6
CONTINUOUS
10
6.70969
20
-4.58786
11
6.7107
21
-4.58611
0
LINE
8
BLACK
6
CONTINUOUS
10
6.7107
20
-4.58611
11
6.7126
21
-4.58542
0
LINE
8
BLACK
6
CONTINUOUS
10
6.7126
20
-4.58542
11
6.72797
21
-4.58542
0
LINE
8
BLACK
6
CONTINUOUS
10
6.72797
20
-4.58542
11
6.71051
21
-4.56796
0
LINE
8
BLACK
6
CONTINUOUS
10
6.71051
20
-4.56796
11
6.70992
21
-4.56712
0
LINE
8
BLACK
6
CONTINUOUS
10
6.70992
20
-4.56712
11
6.70975
21
-4.56511
0
LINE
8
BLACK
6
CONTINUOUS
10
6.70975
20
-4.56511
11
6.71091
21
-4.56345
0
LINE
8
BLACK
6
CONTINUOUS
10
6.71091
20
-4.56345
11
6.71286
21
-4.56293
0
LINE
8
BLACK
6
CONTINUOUS
10
6.71286
20
-4.56293
11
6.71469
21
-4.56378
0
LINE
8
BLACK
6
CONTINUOUS
10
5.07645
20
-4.14017
11
5.07658
21
-4.14015
0
LINE
8
BLACK
6
CONTINUOUS
10
5.07658
20
-4.14015
11
5.07669
21
-4.14022
0
LINE
8
BLACK
6
CONTINUOUS
10
5.07669
20
-4.14022
11
5.07707
21
-4.14028
0
LINE
8
BLACK
6
CONTINUOUS
10
5.07707
20
-4.14028
11
5.07766
21
-4.14078
0
LINE
8
BLACK
6
CONTINUOUS
10
5.07766
20
-4.14078
11
5.07833
21
-4.14116
0
LINE
8
BLACK
6
CONTINUOUS
10
5.07833
20
-4.14116
11
5.07842
21
-4.14141
0
LINE
8
BLACK
6
CONTINUOUS
10
5.07842
20
-4.14141
11
5.07862
21
-4.14158
0
LINE
8
BLACK
6
CONTINUOUS
10
5.07862
20
-4.14158
11
5.07876
21
-4.14234
0
LINE
8
BLACK
6
CONTINUOUS
10
5.07876
20
-4.14234
11
5.07902
21
-4.14306
0
LINE
8
BLACK
6
CONTINUOUS
10
5.07902
20
-4.14306
11
5.07902
21
-4.44306
0
LINE
8
BLACK
6
CONTINUOUS
10
5.07902
20
-4.44306
11
5.07895
21
-4.44344
0
LINE
8
BLACK
6
CONTINUOUS
10
5.07895
20
-4.44344
11
5.07897
21
-4.44357
0
LINE
8
BLACK
6
CONTINUOUS
10
5.07897
20
-4.44357
11
5.07891
21
-4.44368
0
LINE
8
BLACK
6
CONTINUOUS
10
5.07891
20
-4.44368
11
5.07884
21
-4.44407
0
LINE
8
BLACK
6
CONTINUOUS
10
5.07884
20
-4.44407
11
5.07835
21
-4.44466
0
LINE
8
BLACK
6
CONTINUOUS
10
5.07835
20
-4.44466
11
5.07796
21
-4.44532
0
LINE
8
BLACK
6
CONTINUOUS
10
5.07796
20
-4.44532
11
5.07771
21
-4.44541
0
LINE
8
BLACK
6
CONTINUOUS
10
5.07771
20
-4.44541
11
5.07754
21
-4.44562
0
LINE
8
BLACK
6
CONTINUOUS
10
5.07754
20
-4.44562
11
5.07679
21
-4.44575
0
LINE
8
BLACK
6
CONTINUOUS
10
5.07679
20
-4.44575
11
5.07606
21
-4.44601
0
LINE
8
BLACK
6
CONTINUOUS
10
5.07606
20
-4.44601
11
4.87606
21
-4.44601
0
LINE
8
BLACK
6
CONTINUOUS
10
4.87606
20
-4.44601
11
4.87568
21
-4.44594
0
LINE
8
BLACK
6
CONTINUOUS
10
4.87568
20
-4.44594
11
4.87555
21
-4.44597
0
LINE
8
BLACK
6
CONTINUOUS
10
4.87555
20
-4.44597
11
4.87544
21
-4.4459
0
LINE
8
BLACK
6
CONTINUOUS
10
4.87544
20
-4.4459
11
4.87505
21
-4.44583
0
LINE
8
BLACK
6
CONTINUOUS
10
4.87505
20
-4.44583
11
4.87447
21
-4.44534
0
LINE
8
BLACK
6
CONTINUOUS
10
4.87447
20
-4.44534
11
4.8738
21
-4.44496
0
LINE
8
BLACK
6
CONTINUOUS
10
4.8738
20
-4.44496
11
4.87371
21
-4.44471
0
LINE
8
BLACK
6
CONTINUOUS
10
4.87371
20
-4.44471
11
4.87351
21
-4.44454
0
LINE
8
BLACK
6
CONTINUOUS
10
4.87351
20
-4.44454
11
4.87337
21
-4.44378
0
LINE
8
BLACK
6
CONTINUOUS
10
4.87337
20
-4.44378
11
4.87311
21
-4.44306
0
LINE
8
BLACK
6
CONTINUOUS
10
4.87311
20
-4.44306
11
4.87311
21
-4.14306
0
LINE
8
BLACK
6
CONTINUOUS
10
4.87311
20
-4.14306
11
4.87318
21
-4.14268
0
LINE
8
BLACK
6
CONTINUOUS
10
4.87318
20
-4.14268
11
4.87316
21
-4.14255
0
LINE
8
BLACK
6
CONTINUOUS
10
4.87316
20
-4.14255
11
4.87322
21
-4.14243
0
LINE
8
BLACK
6
CONTINUOUS
10
4.87322
20
-4.14243
11
4.87329
21
-4.14205
0
LINE
8
BLACK
6
CONTINUOUS
10
4.87329
20
-4.14205
11
4.87378
21
-4.14146
0
LINE
8
BLACK
6
CONTINUOUS
10
4.87378
20
-4.14146
11
4.87417
21
-4.1408
0
LINE
8
BLACK
6
CONTINUOUS
10
4.87417
20
-4.1408
11
4.87442
21
-4.14071
0
LINE
8
BLACK
6
CONTINUOUS
10
4.87442
20
-4.14071
11
4.87459
21
-4.1405
0
LINE
8
BLACK
6
CONTINUOUS
10
4.87459
20
-4.1405
11
4.87534
21
-4.14037
0
LINE
8
BLACK
6
CONTINUOUS
10
4.87534
20
-4.14037
11
4.87606
21
-4.14011
0
LINE
8
BLACK
6
CONTINUOUS
10
4.87606
20
-4.14011
11
5.07606
21
-4.14011
0
LINE
8
BLACK
6
CONTINUOUS
10
5.07606
20
-4.14011
11
5.07645
21
-4.14017
0
LINE
8
BLACK
6
CONTINUOUS
10
4.87902
20
-4.14601
11
4.87902
21
-4.44011
0
LINE
8
BLACK
6
CONTINUOUS
10
4.87902
20
-4.44011
11
5.07311
21
-4.44011
0
LINE
8
BLACK
6
CONTINUOUS
10
5.07311
20
-4.44011
11
5.07311
21
-4.14601
0
LINE
8
BLACK
6
CONTINUOUS
10
5.07311
20
-4.14601
11
4.87902
21
-4.14601
0
LINE
8
BLACK
6
CONTINUOUS
10
7.01166
20
-4.17398
11
7.01235
21
-4.17588
0
LINE
8
BLACK
6
CONTINUOUS
10
7.01235
20
-4.17588
11
7.01235
21
-4.2116
0
LINE
8
BLACK
6
CONTINUOUS
10
7.01235
20
-4.2116
11
7.0122
21
-4.21247
0
LINE
8
BLACK
6
CONTINUOUS
10
7.0122
20
-4.21247
11
7.0122
21
-4.21253
0
LINE
8
BLACK
6
CONTINUOUS
10
7.0122
20
-4.21253
11
7.00982
21
-4.21967
0
LINE
8
BLACK
6
CONTINUOUS
10
7.00982
20
-4.21967
11
7.00933
21
-4.22058
0
LINE
8
BLACK
6
CONTINUOUS
10
7.00933
20
-4.22058
11
7.00918
21
-4.22067
0
LINE
8
BLACK
6
CONTINUOUS
10
7.00918
20
-4.22067
11
7.00911
21
-4.22083
0
LINE
8
BLACK
6
CONTINUOUS
10
7.00911
20
-4.22083
11
7.00434
21
-4.22559
0
LINE
8
BLACK
6
CONTINUOUS
10
7.00434
20
-4.22559
11
7.0035
21
-4.22618
0
LINE
8
BLACK
6
CONTINUOUS
10
7.0035
20
-4.22618
11
7.00333
21
-4.22619
0
LINE
8
BLACK
6
CONTINUOUS
10
7.00333
20
-4.22619
11
7.00319
21
-4.2263
0
LINE
8
BLACK
6
CONTINUOUS
10
7.00319
20
-4.2263
11
6.99605
21
-4.22868
0
LINE
8
BLACK
6
CONTINUOUS
10
6.99605
20
-4.22868
11
6.99517
21
-4.22881
0
LINE
8
BLACK
6
CONTINUOUS
10
6.99517
20
-4.22881
11
6.99511
21
-4.22884
0
LINE
8
BLACK
6
CONTINUOUS
10
6.99511
20
-4.22884
11
6.99035
21
-4.22884
0
LINE
8
BLACK
6
CONTINUOUS
10
6.99035
20
-4.22884
11
6.98934
21
-4.22866
0
LINE
8
BLACK
6
CONTINUOUS
10
6.98934
20
-4.22866
11
6.98779
21
-4.22736
0
LINE
8
BLACK
6
CONTINUOUS
10
6.98779
20
-4.22736
11
6.98744
21
-4.22537
0
LINE
8
BLACK
6
CONTINUOUS
10
6.98744
20
-4.22537
11
6.98845
21
-4.22362
0
LINE
8
BLACK
6
CONTINUOUS
10
6.98845
20
-4.22362
11
6.99035
21
-4.22293
0
LINE
8
BLACK
6
CONTINUOUS
10
6.99035
20
-4.22293
11
6.99463
21
-4.22293
0
LINE
8
BLACK
6
CONTINUOUS
10
6.99463
20
-4.22293
11
7.00066
21
-4.22092
0
LINE
8
BLACK
6
CONTINUOUS
10
7.00066
20
-4.22092
11
7.00444
21
-4.21714
0
LINE
8
BLACK
6
CONTINUOUS
10
7.00444
20
-4.21714
11
7.00645
21
-4.21112
0
LINE
8
BLACK
6
CONTINUOUS
10
7.00645
20
-4.21112
11
7.00645
21
-4.17588
0
LINE
8
BLACK
6
CONTINUOUS
10
7.00645
20
-4.17588
11
7.00662
21
-4.17487
0
LINE
8
BLACK
6
CONTINUOUS
10
7.00662
20
-4.17487
11
7.00792
21
-4.17333
0
LINE
8
BLACK
6
CONTINUOUS
10
7.00792
20
-4.17333
11
7.00991
21
-4.17297
0
LINE
8
BLACK
6
CONTINUOUS
10
7.00991
20
-4.17297
11
7.01166
21
-4.17398
0
LINE
8
BLACK
6
CONTINUOUS
10
7.05088
20
-4.17311
11
7.05102
21
-4.17322
0
LINE
8
BLACK
6
CONTINUOUS
10
7.05102
20
-4.17322
11
7.05119
21
-4.17324
0
LINE
8
BLACK
6
CONTINUOUS
10
7.05119
20
-4.17324
11
7.05596
21
-4.17562
0
LINE
8
BLACK
6
CONTINUOUS
10
7.05596
20
-4.17562
11
7.05667
21
-4.17615
0
LINE
8
BLACK
6
CONTINUOUS
10
7.05667
20
-4.17615
11
7.05672
21
-4.17618
0
LINE
8
BLACK
6
CONTINUOUS
10
7.05672
20
-4.17618
11
7.05911
21
-4.17856
0
LINE
8
BLACK
6
CONTINUOUS
10
7.05911
20
-4.17856
11
7.05961
21
-4.17928
0
LINE
8
BLACK
6
CONTINUOUS
10
7.05961
20
-4.17928
11
7.05966
21
-4.17932
0
LINE
8
BLACK
6
CONTINUOUS
10
7.05966
20
-4.17932
11
7.06204
21
-4.18409
0
LINE
8
BLACK
6
CONTINUOUS
10
7.06204
20
-4.18409
11
7.06233
21
-4.18507
0
LINE
8
BLACK
6
CONTINUOUS
10
7.06233
20
-4.18507
11
7.06229
21
-4.18524
0
LINE
8
BLACK
6
CONTINUOUS
10
7.06229
20
-4.18524
11
7.06235
21
-4.18541
0
LINE
8
BLACK
6
CONTINUOUS
10
7.06235
20
-4.18541
11
7.06235
21
-4.19017
0
LINE
8
BLACK
6
CONTINUOUS
10
7.06235
20
-4.19017
11
7.0622
21
-4.19104
0
LINE
8
BLACK
6
CONTINUOUS
10
7.0622
20
-4.19104
11
7.0622
21
-4.1911
0
LINE
8
BLACK
6
CONTINUOUS
10
7.0622
20
-4.1911
11
7.05982
21
-4.19824
0
LINE
8
BLACK
6
CONTINUOUS
10
7.05982
20
-4.19824
11
7.05933
21
-4.19915
0
LINE
8
BLACK
6
CONTINUOUS
10
7.05933
20
-4.19915
11
7.05918
21
-4.19924
0
LINE
8
BLACK
6
CONTINUOUS
10
7.05918
20
-4.19924
11
7.05911
21
-4.1994
0
LINE
8
BLACK
6
CONTINUOUS
10
7.05911
20
-4.1994
11
7.03557
21
-4.22293
0
LINE
8
BLACK
6
CONTINUOUS
10
7.03557
20
-4.22293
11
7.0594
21
-4.22293
0
LINE
8
BLACK
6
CONTINUOUS
10
7.0594
20
-4.22293
11
7.06041
21
-4.22311
0
LINE
8
BLACK
6
CONTINUOUS
10
7.06041
20
-4.22311
11
7.06196
21
-4.22441
0
LINE
8
BLACK
6
CONTINUOUS
10
7.06196
20
-4.22441
11
7.06231
21
-4.2264
0
LINE
8
BLACK
6
CONTINUOUS
10
7.06231
20
-4.2264
11
7.0613
21
-4.22814
0
LINE
8
BLACK
6
CONTINUOUS
10
7.0613
20
-4.22814
11
7.0594
21
-4.22884
0
LINE
8
BLACK
6
CONTINUOUS
10
7.0594
20
-4.22884
11
7.02845
21
-4.22884
0
LINE
8
BLACK
6
CONTINUOUS
10
7.02845
20
-4.22884
11
7.02781
21
-4.22872
0
LINE
8
BLACK
6
CONTINUOUS
10
7.02781
20
-4.22872
11
7.02768
21
-4.22873
0
LINE
8
BLACK
6
CONTINUOUS
10
7.02768
20
-4.22873
11
7.02762
21
-4.22869
0
LINE
8
BLACK
6
CONTINUOUS
10
7.02762
20
-4.22869
11
7.02744
21
-4.22866
0
LINE
8
BLACK
6
CONTINUOUS
10
7.02744
20
-4.22866
11
7.02675
21
-4.22809
0
LINE
8
BLACK
6
CONTINUOUS
10
7.02675
20
-4.22809
11
7.02603
21
-4.22758
0
LINE
8
BLACK
6
CONTINUOUS
10
7.02603
20
-4.22758
11
7.02599
21
-4.22745
0
LINE
8
BLACK
6
CONTINUOUS
10
7.02599
20
-4.22745
11
7.02589
21
-4.22736
0
LINE
8
BLACK
6
CONTINUOUS
10
7.02589
20
-4.22736
11
7.02573
21
-4.22648
0
LINE
8
BLACK
6
CONTINUOUS
10
7.02573
20
-4.22648
11
7.0255
21
-4.22563
0
LINE
8
BLACK
6
CONTINUOUS
10
7.0255
20
-4.22563
11
7.02556
21
-4.2255
0
LINE
8
BLACK
6
CONTINUOUS
10
7.02556
20
-4.2255
11
7.02554
21
-4.22537
0
LINE
8
BLACK
6
CONTINUOUS
10
7.02554
20
-4.22537
11
7.02598
21
-4.2246
0
LINE
8
BLACK
6
CONTINUOUS
10
7.02598
20
-4.2246
11
7.02636
21
-4.22379
0
LINE
8
BLACK
6
CONTINUOUS
10
7.02636
20
-4.22379
11
7.05444
21
-4.19572
0
LINE
8
BLACK
6
CONTINUOUS
10
7.05444
20
-4.19572
11
7.05645
21
-4.18969
0
LINE
8
BLACK
6
CONTINUOUS
10
7.05645
20
-4.18969
11
7.05645
21
-4.1861
0
LINE
8
BLACK
6
CONTINUOUS
10
7.05645
20
-4.1861
11
7.05459
21
-4.18239
0
LINE
8
BLACK
6
CONTINUOUS
10
7.05459
20
-4.18239
11
7.05289
21
-4.18069
0
LINE
8
BLACK
6
CONTINUOUS
10
7.05289
20
-4.18069
11
7.04918
21
-4.17884
0
LINE
8
BLACK
6
CONTINUOUS
10
7.04918
20
-4.17884
11
7.03867
21
-4.17884
0
LINE
8
BLACK
6
CONTINUOUS
10
7.03867
20
-4.17884
11
7.03496
21
-4.18069
0
LINE
8
BLACK
6
CONTINUOUS
10
7.03496
20
-4.18069
11
7.03291
21
-4.18273
0
LINE
8
BLACK
6
CONTINUOUS
10
7.03291
20
-4.18273
11
7.03207
21
-4.18332
0
LINE
8
BLACK
6
CONTINUOUS
10
7.03207
20
-4.18332
11
7.03006
21
-4.1835
0
LINE
8
BLACK
6
CONTINUOUS
10
7.03006
20
-4.1835
11
7.02841
21
-4.18234
0
LINE
8
BLACK
6
CONTINUOUS
10
7.02841
20
-4.18234
11
7.02789
21
-4.18039
0
LINE
8
BLACK
6
CONTINUOUS
10
7.02789
20
-4.18039
11
7.02874
21
-4.17856
0
LINE
8
BLACK
6
CONTINUOUS
10
7.02874
20
-4.17856
11
7.03112
21
-4.17618
0
LINE
8
BLACK
6
CONTINUOUS
10
7.03112
20
-4.17618
11
7.03184
21
-4.17567
0
LINE
8
BLACK
6
CONTINUOUS
10
7.03184
20
-4.17567
11
7.03189
21
-4.17562
0
LINE
8
BLACK
6
CONTINUOUS
10
7.03189
20
-4.17562
11
7.03665
21
-4.17324
0
LINE
8
BLACK
6
CONTINUOUS
10
7.03665
20
-4.17324
11
7.03763
21
-4.17295
0
LINE
8
BLACK
6
CONTINUOUS
10
7.03763
20
-4.17295
11
7.0378
21
-4.17299
0
LINE
8
BLACK
6
CONTINUOUS
10
7.0378
20
-4.17299
11
7.03797
21
-4.17293
0
LINE
8
BLACK
6
CONTINUOUS
10
7.03797
20
-4.17293
11
7.04987
21
-4.17293
0
LINE
8
BLACK
6
CONTINUOUS
10
7.04987
20
-4.17293
11
7.05088
21
-4.17311
0
LINE
8
BLACK
6
CONTINUOUS
10
7.03756
20
-4.11571
11
7.04887
21
-4.11796
0
LINE
8
BLACK
6
CONTINUOUS
10
7.04887
20
-4.11796
11
7.05978
21
-4.12166
0
LINE
8
BLACK
6
CONTINUOUS
10
7.05978
20
-4.12166
11
7.07012
21
-4.12676
0
LINE
8
BLACK
6
CONTINUOUS
10
7.07012
20
-4.12676
11
7.0797
21
-4.13316
0
LINE
8
BLACK
6
CONTINUOUS
10
7.0797
20
-4.13316
11
7.08836
21
-4.14076
0
LINE
8
BLACK
6
CONTINUOUS
10
7.08836
20
-4.14076
11
7.09596
21
-4.14943
0
LINE
8
BLACK
6
CONTINUOUS
10
7.09596
20
-4.14943
11
7.10236
21
-4.15901
0
LINE
8
BLACK
6
CONTINUOUS
10
7.10236
20
-4.15901
11
7.10746
21
-4.16934
0
LINE
8
BLACK
6
CONTINUOUS
10
7.10746
20
-4.16934
11
7.11117
21
-4.18026
0
LINE
8
BLACK
6
CONTINUOUS
10
7.11117
20
-4.18026
11
7.11341
21
-4.19156
0
LINE
8
BLACK
6
CONTINUOUS
10
7.11341
20
-4.19156
11
7.11417
21
-4.20306
0
LINE
8
BLACK
6
CONTINUOUS
10
7.11417
20
-4.20306
11
7.11341
21
-4.21456
0
LINE
8
BLACK
6
CONTINUOUS
10
7.11341
20
-4.21456
11
7.11117
21
-4.22586
0
LINE
8
BLACK
6
CONTINUOUS
10
7.11117
20
-4.22586
11
7.10746
21
-4.23677
0
LINE
8
BLACK
6
CONTINUOUS
10
7.10746
20
-4.23677
11
7.10236
21
-4.24711
0
LINE
8
BLACK
6
CONTINUOUS
10
7.10236
20
-4.24711
11
7.09596
21
-4.25669
0
LINE
8
BLACK
6
CONTINUOUS
10
7.09596
20
-4.25669
11
7.08836
21
-4.26536
0
LINE
8
BLACK
6
CONTINUOUS
10
7.08836
20
-4.26536
11
7.0797
21
-4.27295
0
LINE
8
BLACK
6
CONTINUOUS
10
7.0797
20
-4.27295
11
7.07012
21
-4.27936
0
LINE
8
BLACK
6
CONTINUOUS
10
7.07012
20
-4.27936
11
7.05978
21
-4.28445
0
LINE
8
BLACK
6
CONTINUOUS
10
7.05978
20
-4.28445
11
7.04887
21
-4.28816
0
LINE
8
BLACK
6
CONTINUOUS
10
7.04887
20
-4.28816
11
7.03756
21
-4.29041
0
LINE
8
BLACK
6
CONTINUOUS
10
7.03756
20
-4.29041
11
7.02606
21
-4.29116
0
LINE
8
BLACK
6
CONTINUOUS
10
7.02606
20
-4.29116
11
7.01457
21
-4.29041
0
LINE
8
BLACK
6
CONTINUOUS
10
7.01457
20
-4.29041
11
7.00326
21
-4.28816
0
LINE
8
BLACK
6
CONTINUOUS
10
7.00326
20
-4.28816
11
6.99235
21
-4.28445
0
LINE
8
BLACK
6
CONTINUOUS
10
6.99235
20
-4.28445
11
6.98201
21
-4.27936
0
LINE
8
BLACK
6
CONTINUOUS
10
6.98201
20
-4.27936
11
6.97243
21
-4.27295
0
LINE
8
BLACK
6
CONTINUOUS
10
6.97243
20
-4.27295
11
6.96377
21
-4.26536
0
LINE
8
BLACK
6
CONTINUOUS
10
6.96377
20
-4.26536
11
6.95617
21
-4.25669
0
LINE
8
BLACK
6
CONTINUOUS
10
6.95617
20
-4.25669
11
6.94977
21
-4.24711
0
LINE
8
BLACK
6
CONTINUOUS
10
6.94977
20
-4.24711
11
6.94467
21
-4.23677
0
LINE
8
BLACK
6
CONTINUOUS
10
6.94467
20
-4.23677
11
6.94096
21
-4.22586
0
LINE
8
BLACK
6
CONTINUOUS
10
6.94096
20
-4.22586
11
6.93872
21
-4.21456
0
LINE
8
BLACK
6
CONTINUOUS
10
6.93872
20
-4.21456
11
6.93796
21
-4.20306
0
LINE
8
BLACK
6
CONTINUOUS
10
6.93796
20
-4.20306
11
6.93872
21
-4.19156
0
LINE
8
BLACK
6
CONTINUOUS
10
6.93872
20
-4.19156
11
6.94096
21
-4.18026
0
LINE
8
BLACK
6
CONTINUOUS
10
6.94096
20
-4.18026
11
6.94467
21
-4.16934
0
LINE
8
BLACK
6
CONTINUOUS
10
6.94467
20
-4.16934
11
6.94977
21
-4.15901
0
LINE
8
BLACK
6
CONTINUOUS
10
6.94977
20
-4.15901
11
6.95617
21
-4.14943
0
LINE
8
BLACK
6
CONTINUOUS
10
6.95617
20
-4.14943
11
6.96377
21
-4.14076
0
LINE
8
BLACK
6
CONTINUOUS
10
6.96377
20
-4.14076
11
6.97243
21
-4.13316
0
LINE
8
BLACK
6
CONTINUOUS
10
6.97243
20
-4.13316
11
6.98201
21
-4.12676
0
LINE
8
BLACK
6
CONTINUOUS
10
6.98201
20
-4.12676
11
6.99235
21
-4.12166
0
LINE
8
BLACK
6
CONTINUOUS
10
6.99235
20
-4.12166
11
7.00326
21
-4.11796
0
LINE
8
BLACK
6
CONTINUOUS
10
7.00326
20
-4.11796
11
7.01457
21
-4.11571
0
LINE
8
BLACK
6
CONTINUOUS
10
7.01457
20
-4.11571
11
7.02606
21
-4.11496
0
LINE
8
BLACK
6
CONTINUOUS
10
7.02606
20
-4.11496
11
7.03756
21
-4.11571
0
LINE
8
BLACK
6
CONTINUOUS
10
6.94444
20
-4.21428
11
6.94673
21
-4.22529
0
LINE
8
BLACK
6
CONTINUOUS
10
6.94673
20
-4.22529
11
6.9505
21
-4.23588
0
LINE
8
BLACK
6
CONTINUOUS
10
6.9505
20
-4.23588
11
6.95567
21
-4.24587
0
LINE
8
BLACK
6
CONTINUOUS
10
6.95567
20
-4.24587
11
6.96215
21
-4.25505
0
LINE
8
BLACK
6
CONTINUOUS
10
6.96215
20
-4.25505
11
6.96983
21
-4.26327
0
LINE
8
BLACK
6
CONTINUOUS
10
6.96983
20
-4.26327
11
6.97855
21
-4.27037
0
LINE
8
BLACK
6
CONTINUOUS
10
6.97855
20
-4.27037
11
6.98816
21
-4.27621
0
LINE
8
BLACK
6
CONTINUOUS
10
6.98816
20
-4.27621
11
6.99847
21
-4.28069
0
LINE
8
BLACK
6
CONTINUOUS
10
6.99847
20
-4.28069
11
7.0093
21
-4.28372
0
LINE
8
BLACK
6
CONTINUOUS
10
7.0093
20
-4.28372
11
7.02044
21
-4.28526
0
LINE
8
BLACK
6
CONTINUOUS
10
7.02044
20
-4.28526
11
7.03169
21
-4.28526
0
LINE
8
BLACK
6
CONTINUOUS
10
7.03169
20
-4.28526
11
7.04283
21
-4.28372
0
LINE
8
BLACK
6
CONTINUOUS
10
7.04283
20
-4.28372
11
7.05366
21
-4.28069
0
LINE
8
BLACK
6
CONTINUOUS
10
7.05366
20
-4.28069
11
7.06397
21
-4.27621
0
LINE
8
BLACK
6
CONTINUOUS
10
7.06397
20
-4.27621
11
7.07358
21
-4.27037
0
LINE
8
BLACK
6
CONTINUOUS
10
7.07358
20
-4.27037
11
7.0823
21
-4.26327
0
LINE
8
BLACK
6
CONTINUOUS
10
7.0823
20
-4.26327
11
7.08997
21
-4.25505
0
LINE
8
BLACK
6
CONTINUOUS
10
7.08997
20
-4.25505
11
7.09646
21
-4.24587
0
LINE
8
BLACK
6
CONTINUOUS
10
7.09646
20
-4.24587
11
7.10163
21
-4.23588
0
LINE
8
BLACK
6
CONTINUOUS
10
7.10163
20
-4.23588
11
7.1054
21
-4.22529
0
LINE
8
BLACK
6
CONTINUOUS
10
7.1054
20
-4.22529
11
7.10769
21
-4.21428
0
LINE
8
BLACK
6
CONTINUOUS
10
7.10769
20
-4.21428
11
7.10845
21
-4.20306
0
LINE
8
BLACK
6
CONTINUOUS
10
7.10845
20
-4.20306
11
7.10769
21
-4.19184
0
LINE
8
BLACK
6
CONTINUOUS
10
7.10769
20
-4.19184
11
7.1054
21
-4.18083
0
LINE
8
BLACK
6
CONTINUOUS
10
7.1054
20
-4.18083
11
7.10163
21
-4.17023
0
LINE
8
BLACK
6
CONTINUOUS
10
7.10163
20
-4.17023
11
7.09646
21
-4.16025
0
LINE
8
BLACK
6
CONTINUOUS
10
7.09646
20
-4.16025
11
7.08997
21
-4.15106
0
LINE
8
BLACK
6
CONTINUOUS
10
7.08997
20
-4.15106
11
7.0823
21
-4.14285
0
LINE
8
BLACK
6
CONTINUOUS
10
7.0823
20
-4.14285
11
7.07358
21
-4.13575
0
LINE
8
BLACK
6
CONTINUOUS
10
7.07358
20
-4.13575
11
7.06397
21
-4.12991
0
LINE
8
BLACK
6
CONTINUOUS
10
7.06397
20
-4.12991
11
7.05366
21
-4.12543
0
LINE
8
BLACK
6
CONTINUOUS
10
7.05366
20
-4.12543
11
7.04283
21
-4.12239
0
LINE
8
BLACK
6
CONTINUOUS
10
7.04283
20
-4.12239
11
7.03169
21
-4.12086
0
LINE
8
BLACK
6
CONTINUOUS
10
7.03169
20
-4.12086
11
7.02044
21
-4.12086
0
LINE
8
BLACK
6
CONTINUOUS
10
7.02044
20
-4.12086
11
7.0093
21
-4.12239
0
LINE
8
BLACK
6
CONTINUOUS
10
7.0093
20
-4.12239
11
6.99847
21
-4.12543
0
LINE
8
BLACK
6
CONTINUOUS
10
6.99847
20
-4.12543
11
6.98816
21
-4.12991
0
LINE
8
BLACK
6
CONTINUOUS
10
6.98816
20
-4.12991
11
6.97855
21
-4.13575
0
LINE
8
BLACK
6
CONTINUOUS
10
6.97855
20
-4.13575
11
6.96983
21
-4.14285
0
LINE
8
BLACK
6
CONTINUOUS
10
6.96983
20
-4.14285
11
6.96215
21
-4.15106
0
LINE
8
BLACK
6
CONTINUOUS
10
6.96215
20
-4.15106
11
6.95567
21
-4.16025
0
LINE
8
BLACK
6
CONTINUOUS
10
6.95567
20
-4.16025
11
6.9505
21
-4.17023
0
LINE
8
BLACK
6
CONTINUOUS
10
6.9505
20
-4.17023
11
6.94673
21
-4.18083
0
LINE
8
BLACK
6
CONTINUOUS
10
6.94673
20
-4.18083
11
6.94444
21
-4.19184
0
LINE
8
BLACK
6
CONTINUOUS
10
6.94444
20
-4.19184
11
6.94368
21
-4.20306
0
LINE
8
BLACK
6
CONTINUOUS
10
6.94368
20
-4.20306
11
6.94444
21
-4.21428
0
LINE
8
BLACK
6
CONTINUOUS
10
7.16424
20
-4.06238
11
7.16437
21
-4.06236
0
LINE
8
BLACK
6
CONTINUOUS
10
7.16437
20
-4.06236
11
7.16449
21
-4.06242
0
LINE
8
BLACK
6
CONTINUOUS
10
7.16449
20
-4.06242
11
7.16487
21
-4.06249
0
LINE
8
BLACK
6
CONTINUOUS
10
7.16487
20
-4.06249
11
7.16546
21
-4.06298
0
LINE
8
BLACK
6
CONTINUOUS
10
7.16546
20
-4.06298
11
7.16612
21
-4.06337
0
LINE
8
BLACK
6
CONTINUOUS
10
7.16612
20
-4.06337
11
7.16621
21
-4.06362
0
LINE
8
BLACK
6
CONTINUOUS
10
7.16621
20
-4.06362
11
7.16642
21
-4.06379
0
LINE
8
BLACK
6
CONTINUOUS
10
7.16642
20
-4.06379
11
7.16655
21
-4.06454
0
LINE
8
BLACK
6
CONTINUOUS
10
7.16655
20
-4.06454
11
7.16681
21
-4.06526
0
LINE
8
BLACK
6
CONTINUOUS
10
7.16681
20
-4.06526
11
7.16681
21
-4.34085
0
LINE
8
BLACK
6
CONTINUOUS
10
7.16681
20
-4.34085
11
7.16675
21
-4.34124
0
LINE
8
BLACK
6
CONTINUOUS
10
7.16675
20
-4.34124
11
7.16677
21
-4.34137
0
LINE
8
BLACK
6
CONTINUOUS
10
7.16677
20
-4.34137
11
7.1667
21
-4.34148
0
LINE
8
BLACK
6
CONTINUOUS
10
7.1667
20
-4.34148
11
7.16663
21
-4.34186
0
LINE
8
BLACK
6
CONTINUOUS
10
7.16663
20
-4.34186
11
7.16614
21
-4.34245
0
LINE
8
BLACK
6
CONTINUOUS
10
7.16614
20
-4.34245
11
7.16576
21
-4.34312
0
LINE
8
BLACK
6
CONTINUOUS
10
7.16576
20
-4.34312
11
7.16551
21
-4.34321
0
LINE
8
BLACK
6
CONTINUOUS
10
7.16551
20
-4.34321
11
7.16534
21
-4.34341
0
LINE
8
BLACK
6
CONTINUOUS
10
7.16534
20
-4.34341
11
7.16458
21
-4.34354
0
LINE
8
BLACK
6
CONTINUOUS
10
7.16458
20
-4.34354
11
7.16386
21
-4.34381
0
LINE
8
BLACK
6
CONTINUOUS
10
7.16386
20
-4.34381
11
6.88827
21
-4.34381
0
LINE
8
BLACK
6
CONTINUOUS
10
6.88827
20
-4.34381
11
6.88789
21
-4.34374
0
LINE
8
BLACK
6
CONTINUOUS
10
6.88789
20
-4.34374
11
6.88776
21
-4.34376
0
LINE
8
BLACK
6
CONTINUOUS
10
6.88776
20
-4.34376
11
6.88764
21
-4.3437
0
LINE
8
BLACK
6
CONTINUOUS
10
6.88764
20
-4.3437
11
6.88726
21
-4.34363
0
LINE
8
BLACK
6
CONTINUOUS
10
6.88726
20
-4.34363
11
6.88667
21
-4.34314
0
LINE
8
BLACK
6
CONTINUOUS
10
6.88667
20
-4.34314
11
6.88601
21
-4.34275
0
LINE
8
BLACK
6
CONTINUOUS
10
6.88601
20
-4.34275
11
6.88592
21
-4.3425
0
LINE
8
BLACK
6
CONTINUOUS
10
6.88592
20
-4.3425
11
6.88571
21
-4.34233
0
LINE
8
BLACK
6
CONTINUOUS
10
6.88571
20
-4.34233
11
6.88558
21
-4.34157
0
LINE
8
BLACK
6
CONTINUOUS
10
6.88558
20
-4.34157
11
6.88532
21
-4.34085
0
LINE
8
BLACK
6
CONTINUOUS
10
6.88532
20
-4.34085
11
6.88532
21
-4.06526
0
LINE
8
BLACK
6
CONTINUOUS
10
6.88532
20
-4.06526
11
6.88538
21
-4.06488
0
LINE
8
BLACK
6
CONTINUOUS
10
6.88538
20
-4.06488
11
6.88536
21
-4.06475
0
LINE
8
BLACK
6
CONTINUOUS
10
6.88536
20
-4.06475
11
6.88543
21
-4.06464
0
LINE
8
BLACK
6
CONTINUOUS
10
6.88543
20
-4.06464
11
6.88549
21
-4.06425
0
LINE
8
BLACK
6
CONTINUOUS
10
6.88549
20
-4.06425
11
6.88599
21
-4.06367
0
LINE
8
BLACK
6
CONTINUOUS
10
6.88599
20
-4.06367
11
6.88637
21
-4.063
0
LINE
8
BLACK
6
CONTINUOUS
10
6.88637
20
-4.063
11
6.88662
21
-4.06291
0
LINE
8
BLACK
6
CONTINUOUS
10
6.88662
20
-4.06291
11
6.88679
21
-4.06271
0
LINE
8
BLACK
6
CONTINUOUS
10
6.88679
20
-4.06271
11
6.88755
21
-4.06257
0
LINE
8
BLACK
6
CONTINUOUS
10
6.88755
20
-4.06257
11
6.88827
21
-4.06231
0
LINE
8
BLACK
6
CONTINUOUS
10
6.88827
20
-4.06231
11
7.16386
21
-4.06231
0
LINE
8
BLACK
6
CONTINUOUS
10
7.16386
20
-4.06231
11
7.16424
21
-4.06238
0
LINE
8
BLACK
6
CONTINUOUS
10
6.89122
20
-4.06822
11
6.89122
21
-4.3379
0
LINE
8
BLACK
6
CONTINUOUS
10
6.89122
20
-4.3379
11
7.16091
21
-4.3379
0
LINE
8
BLACK
6
CONTINUOUS
10
7.16091
20
-4.3379
11
7.16091
21
-4.06822
0
LINE
8
BLACK
6
CONTINUOUS
10
7.16091
20
-4.06822
11
6.89122
21
-4.06822
0
LINE
8
BLACK
6
CONTINUOUS
10
5.07645
20
-3.62517
11
5.07658
21
-3.62515
0
LINE
8
BLACK
6
CONTINUOUS
10
5.07658
20
-3.62515
11
5.07669
21
-3.62522
0
LINE
8
BLACK
6
CONTINUOUS
10
5.07669
20
-3.62522
11
5.07707
21
-3.62528
0
LINE
8
BLACK
6
CONTINUOUS
10
5.07707
20
-3.62528
11
5.07766
21
-3.62578
0
LINE
8
BLACK
6
CONTINUOUS
10
5.07766
20
-3.62578
11
5.07833
21
-3.62616
0
LINE
8
BLACK
6
CONTINUOUS
10
5.07833
20
-3.62616
11
5.07842
21
-3.62641
0
LINE
8
BLACK
6
CONTINUOUS
10
5.07842
20
-3.62641
11
5.07862
21
-3.62658
0
LINE
8
BLACK
6
CONTINUOUS
10
5.07862
20
-3.62658
11
5.07876
21
-3.62734
0
LINE
8
BLACK
6
CONTINUOUS
10
5.07876
20
-3.62734
11
5.07902
21
-3.62806
0
LINE
8
BLACK
6
CONTINUOUS
10
5.07902
20
-3.62806
11
5.07902
21
-3.92806
0
LINE
8
BLACK
6
CONTINUOUS
10
5.07902
20
-3.92806
11
5.07895
21
-3.92844
0
LINE
8
BLACK
6
CONTINUOUS
10
5.07895
20
-3.92844
11
5.07897
21
-3.92857
0
LINE
8
BLACK
6
CONTINUOUS
10
5.07897
20
-3.92857
11
5.07891
21
-3.92868
0
LINE
8
BLACK
6
CONTINUOUS
10
5.07891
20
-3.92868
11
5.07884
21
-3.92907
0
LINE
8
BLACK
6
CONTINUOUS
10
5.07884
20
-3.92907
11
5.07835
21
-3.92966
0
LINE
8
BLACK
6
CONTINUOUS
10
5.07835
20
-3.92966
11
5.07796
21
-3.93032
0
LINE
8
BLACK
6
CONTINUOUS
10
5.07796
20
-3.93032
11
5.07771
21
-3.93041
0
LINE
8
BLACK
6
CONTINUOUS
10
5.07771
20
-3.93041
11
5.07754
21
-3.93062
0
LINE
8
BLACK
6
CONTINUOUS
10
5.07754
20
-3.93062
11
5.07679
21
-3.93075
0
LINE
8
BLACK
6
CONTINUOUS
10
5.07679
20
-3.93075
11
5.07606
21
-3.93101
0
LINE
8
BLACK
6
CONTINUOUS
10
5.07606
20
-3.93101
11
4.87606
21
-3.93101
0
LINE
8
BLACK
6
CONTINUOUS
10
4.87606
20
-3.93101
11
4.87568
21
-3.93094
0
LINE
8
BLACK
6
CONTINUOUS
10
4.87568
20
-3.93094
11
4.87555
21
-3.93097
0
LINE
8
BLACK
6
CONTINUOUS
10
4.87555
20
-3.93097
11
4.87544
21
-3.9309
0
LINE
8
BLACK
6
CONTINUOUS
10
4.87544
20
-3.9309
11
4.87505
21
-3.93083
0
LINE
8
BLACK
6
CONTINUOUS
10
4.87505
20
-3.93083
11
4.87447
21
-3.93034
0
LINE
8
BLACK
6
CONTINUOUS
10
4.87447
20
-3.93034
11
4.8738
21
-3.92996
0
LINE
8
BLACK
6
CONTINUOUS
10
4.8738
20
-3.92996
11
4.87371
21
-3.92971
0
LINE
8
BLACK
6
CONTINUOUS
10
4.87371
20
-3.92971
11
4.87351
21
-3.92954
0
LINE
8
BLACK
6
CONTINUOUS
10
4.87351
20
-3.92954
11
4.87337
21
-3.92878
0
LINE
8
BLACK
6
CONTINUOUS
10
4.87337
20
-3.92878
11
4.87311
21
-3.92806
0
LINE
8
BLACK
6
CONTINUOUS
10
4.87311
20
-3.92806
11
4.87311
21
-3.62806
0
LINE
8
BLACK
6
CONTINUOUS
10
4.87311
20
-3.62806
11
4.87318
21
-3.62768
0
LINE
8
BLACK
6
CONTINUOUS
10
4.87318
20
-3.62768
11
4.87316
21
-3.62755
0
LINE
8
BLACK
6
CONTINUOUS
10
4.87316
20
-3.62755
11
4.87322
21
-3.62743
0
LINE
8
BLACK
6
CONTINUOUS
10
4.87322
20
-3.62743
11
4.87329
21
-3.62705
0
LINE
8
BLACK
6
CONTINUOUS
10
4.87329
20
-3.62705
11
4.87378
21
-3.62646
0
LINE
8
BLACK
6
CONTINUOUS
10
4.87378
20
-3.62646
11
4.87417
21
-3.6258
0
LINE
8
BLACK
6
CONTINUOUS
10
4.87417
20
-3.6258
11
4.87442
21
-3.62571
0
LINE
8
BLACK
6
CONTINUOUS
10
4.87442
20
-3.62571
11
4.87459
21
-3.6255
0
LINE
8
BLACK
6
CONTINUOUS
10
4.87459
20
-3.6255
11
4.87534
21
-3.62537
0
LINE
8
BLACK
6
CONTINUOUS
10
4.87534
20
-3.62537
11
4.87606
21
-3.62511
0
LINE
8
BLACK
6
CONTINUOUS
10
4.87606
20
-3.62511
11
5.07606
21
-3.62511
0
LINE
8
BLACK
6
CONTINUOUS
10
5.07606
20
-3.62511
11
5.07645
21
-3.62517
0
LINE
8
BLACK
6
CONTINUOUS
10
4.87902
20
-3.63101
11
4.87902
21
-3.92511
0
LINE
8
BLACK
6
CONTINUOUS
10
4.87902
20
-3.92511
11
5.07311
21
-3.92511
0
LINE
8
BLACK
6
CONTINUOUS
10
5.07311
20
-3.92511
11
5.07311
21
-3.63101
0
LINE
8
BLACK
6
CONTINUOUS
10
5.07311
20
-3.63101
11
4.87902
21
-3.63101
0
LINE
8
BLACK
6
CONTINUOUS
10
7.01166
20
-3.74898
11
7.01235
21
-3.75088
0
LINE
8
BLACK
6
CONTINUOUS
10
7.01235
20
-3.75088
11
7.01235
21
-3.7866
0
LINE
8
BLACK
6
CONTINUOUS
10
7.01235
20
-3.7866
11
7.0122
21
-3.78747
0
LINE
8
BLACK
6
CONTINUOUS
10
7.0122
20
-3.78747
11
7.0122
21
-3.78753
0
LINE
8
BLACK
6
CONTINUOUS
10
7.0122
20
-3.78753
11
7.00982
21
-3.79467
0
LINE
8
BLACK
6
CONTINUOUS
10
7.00982
20
-3.79467
11
7.00933
21
-3.79558
0
LINE
8
BLACK
6
CONTINUOUS
10
7.00933
20
-3.79558
11
7.00918
21
-3.79567
0
LINE
8
BLACK
6
CONTINUOUS
10
7.00918
20
-3.79567
11
7.00911
21
-3.79583
0
LINE
8
BLACK
6
CONTINUOUS
10
7.00911
20
-3.79583
11
7.00434
21
-3.80059
0
LINE
8
BLACK
6
CONTINUOUS
10
7.00434
20
-3.80059
11
7.0035
21
-3.80118
0
LINE
8
BLACK
6
CONTINUOUS
10
7.0035
20
-3.80118
11
7.00333
21
-3.80119
0
LINE
8
BLACK
6
CONTINUOUS
10
7.00333
20
-3.80119
11
7.00319
21
-3.8013
0
LINE
8
BLACK
6
CONTINUOUS
10
7.00319
20
-3.8013
11
6.99605
21
-3.80368
0
LINE
8
BLACK
6
CONTINUOUS
10
6.99605
20
-3.80368
11
6.99517
21
-3.80381
0
LINE
8
BLACK
6
CONTINUOUS
10
6.99517
20
-3.80381
11
6.99511
21
-3.80384
0
LINE
8
BLACK
6
CONTINUOUS
10
6.99511
20
-3.80384
11
6.99035
21
-3.80384
0
LINE
8
BLACK
6
CONTINUOUS
10
6.99035
20
-3.80384
11
6.98934
21
-3.80366
0
LINE
8
BLACK
6
CONTINUOUS
10
6.98934
20
-3.80366
11
6.98779
21
-3.80236
0
LINE
8
BLACK
6
CONTINUOUS
10
6.98779
20
-3.80236
11
6.98744
21
-3.80037
0
LINE
8
BLACK
6
CONTINUOUS
10
6.98744
20
-3.80037
11
6.98845
21
-3.79862
0
LINE
8
BLACK
6
CONTINUOUS
10
6.98845
20
-3.79862
11
6.99035
21
-3.79793
0
LINE
8
BLACK
6
CONTINUOUS
10
6.99035
20
-3.79793
11
6.99463
21
-3.79793
0
LINE
8
BLACK
6
CONTINUOUS
10
6.99463
20
-3.79793
11
7.00066
21
-3.79592
0
LINE
8
BLACK
6
CONTINUOUS
10
7.00066
20
-3.79592
11
7.00444
21
-3.79214
0
LINE
8
BLACK
6
CONTINUOUS
10
7.00444
20
-3.79214
11
7.00645
21
-3.78612
0
LINE
8
BLACK
6
CONTINUOUS
10
7.00645
20
-3.78612
11
7.00645
21
-3.75088
0
LINE
8
BLACK
6
CONTINUOUS
10
7.00645
20
-3.75088
11
7.00662
21
-3.74987
0
LINE
8
BLACK
6
CONTINUOUS
10
7.00662
20
-3.74987
11
7.00792
21
-3.74833
0
LINE
8
BLACK
6
CONTINUOUS
10
7.00792
20
-3.74833
11
7.00991
21
-3.74797
0
LINE
8
BLACK
6
CONTINUOUS
10
7.00991
20
-3.74797
11
7.01166
21
-3.74898
0
LINE
8
BLACK
6
CONTINUOUS
10
7.05984
20
-3.74801
11
7.05997
21
-3.74799
0
LINE
8
BLACK
6
CONTINUOUS
10
7.05997
20
-3.74799
11
7.06008
21
-3.74805
0
LINE
8
BLACK
6
CONTINUOUS
10
7.06008
20
-3.74805
11
7.06041
21
-3.74811
0
LINE
8
BLACK
6
CONTINUOUS
10
7.06041
20
-3.74811
11
7.06102
21
-3.74862
0
LINE
8
BLACK
6
CONTINUOUS
10
7.06102
20
-3.74862
11
7.0617
21
-3.74903
0
LINE
8
BLACK
6
CONTINUOUS
10
7.0617
20
-3.74903
11
7.06177
21
-3.74925
0
LINE
8
BLACK
6
CONTINUOUS
10
7.06177
20
-3.74925
11
7.06196
21
-3.74941
0
LINE
8
BLACK
6
CONTINUOUS
10
7.06196
20
-3.74941
11
7.06209
21
-3.75019
0
LINE
8
BLACK
6
CONTINUOUS
10
7.06209
20
-3.75019
11
7.06235
21
-3.75094
0
LINE
8
BLACK
6
CONTINUOUS
10
7.06235
20
-3.75094
11
7.06227
21
-3.75116
0
LINE
8
BLACK
6
CONTINUOUS
10
7.06227
20
-3.75116
11
7.06231
21
-3.7514
0
LINE
8
BLACK
6
CONTINUOUS
10
7.06231
20
-3.7514
11
7.06191
21
-3.75208
0
LINE
8
BLACK
6
CONTINUOUS
10
7.06191
20
-3.75208
11
7.06162
21
-3.75283
0
LINE
8
BLACK
6
CONTINUOUS
10
7.06162
20
-3.75283
11
7.04924
21
-3.76698
0
LINE
8
BLACK
6
CONTINUOUS
10
7.04924
20
-3.76698
11
7.04987
21
-3.76698
0
LINE
8
BLACK
6
CONTINUOUS
10
7.04987
20
-3.76698
11
7.05088
21
-3.76716
0
LINE
8
BLACK
6
CONTINUOUS
10
7.05088
20
-3.76716
11
7.05102
21
-3.76727
0
LINE
8
BLACK
6
CONTINUOUS
10
7.05102
20
-3.76727
11
7.05119
21
-3.76729
0
LINE
8
BLACK
6
CONTINUOUS
10
7.05119
20
-3.76729
11
7.05596
21
-3.76967
0
LINE
8
BLACK
6
CONTINUOUS
10
7.05596
20
-3.76967
11
7.05667
21
-3.7702
0
LINE
8
BLACK
6
CONTINUOUS
10
7.05667
20
-3.7702
11
7.05672
21
-3.77022
0
LINE
8
BLACK
6
CONTINUOUS
10
7.05672
20
-3.77022
11
7.05911
21
-3.7726
0
LINE
8
BLACK
6
CONTINUOUS
10
7.05911
20
-3.7726
11
7.05961
21
-3.77333
0
LINE
8
BLACK
6
CONTINUOUS
10
7.05961
20
-3.77333
11
7.05966
21
-3.77337
0
LINE
8
BLACK
6
CONTINUOUS
10
7.05966
20
-3.77337
11
7.06204
21
-3.77813
0
LINE
8
BLACK
6
CONTINUOUS
10
7.06204
20
-3.77813
11
7.06233
21
-3.77912
0
LINE
8
BLACK
6
CONTINUOUS
10
7.06233
20
-3.77912
11
7.06229
21
-3.77929
0
LINE
8
BLACK
6
CONTINUOUS
10
7.06229
20
-3.77929
11
7.06235
21
-3.77945
0
LINE
8
BLACK
6
CONTINUOUS
10
7.06235
20
-3.77945
11
7.06235
21
-3.79136
0
LINE
8
BLACK
6
CONTINUOUS
10
7.06235
20
-3.79136
11
7.06217
21
-3.79237
0
LINE
8
BLACK
6
CONTINUOUS
10
7.06217
20
-3.79237
11
7.06206
21
-3.7925
0
LINE
8
BLACK
6
CONTINUOUS
10
7.06206
20
-3.7925
11
7.06204
21
-3.79268
0
LINE
8
BLACK
6
CONTINUOUS
10
7.06204
20
-3.79268
11
7.05966
21
-3.79744
0
LINE
8
BLACK
6
CONTINUOUS
10
7.05966
20
-3.79744
11
7.05913
21
-3.79815
0
LINE
8
BLACK
6
CONTINUOUS
10
7.05913
20
-3.79815
11
7.05911
21
-3.79821
0
LINE
8
BLACK
6
CONTINUOUS
10
7.05911
20
-3.79821
11
7.05672
21
-3.80059
0
LINE
8
BLACK
6
CONTINUOUS
10
7.05672
20
-3.80059
11
7.056
21
-3.8011
0
LINE
8
BLACK
6
CONTINUOUS
10
7.056
20
-3.8011
11
7.05596
21
-3.80114
0
LINE
8
BLACK
6
CONTINUOUS
10
7.05596
20
-3.80114
11
7.05119
21
-3.80352
0
LINE
8
BLACK
6
CONTINUOUS
10
7.05119
20
-3.80352
11
7.05021
21
-3.80382
0
LINE
8
BLACK
6
CONTINUOUS
10
7.05021
20
-3.80382
11
7.05004
21
-3.80377
0
LINE
8
BLACK
6
CONTINUOUS
10
7.05004
20
-3.80377
11
7.04987
21
-3.80384
0
LINE
8
BLACK
6
CONTINUOUS
10
7.04987
20
-3.80384
11
7.03559
21
-3.80384
0
LINE
8
BLACK
6
CONTINUOUS
10
7.03559
20
-3.80384
11
7.03458
21
-3.80366
0
LINE
8
BLACK
6
CONTINUOUS
10
7.03458
20
-3.80366
11
7.03444
21
-3.80354
0
LINE
8
BLACK
6
CONTINUOUS
10
7.03444
20
-3.80354
11
7.03427
21
-3.80352
0
LINE
8
BLACK
6
CONTINUOUS
10
7.03427
20
-3.80352
11
7.02951
21
-3.80114
0
LINE
8
BLACK
6
CONTINUOUS
10
7.02951
20
-3.80114
11
7.0288
21
-3.80062
0
LINE
8
BLACK
6
CONTINUOUS
10
7.0288
20
-3.80062
11
7.02874
21
-3.80059
0
LINE
8
BLACK
6
CONTINUOUS
10
7.02874
20
-3.80059
11
7.02636
21
-3.79821
0
LINE
8
BLACK
6
CONTINUOUS
10
7.02636
20
-3.79821
11
7.02577
21
-3.79737
0
LINE
8
BLACK
6
CONTINUOUS
10
7.02577
20
-3.79737
11
7.02559
21
-3.79536
0
LINE
8
BLACK
6
CONTINUOUS
10
7.02559
20
-3.79536
11
7.02675
21
-3.7937
0
LINE
8
BLACK
6
CONTINUOUS
10
7.02675
20
-3.7937
11
7.0287
21
-3.79318
0
LINE
8
BLACK
6
CONTINUOUS
10
7.0287
20
-3.79318
11
7.03053
21
-3.79403
0
LINE
8
BLACK
6
CONTINUOUS
10
7.03053
20
-3.79403
11
7.03258
21
-3.79607
0
LINE
8
BLACK
6
CONTINUOUS
10
7.03258
20
-3.79607
11
7.03629
21
-3.79793
0
LINE
8
BLACK
6
CONTINUOUS
10
7.03629
20
-3.79793
11
7.04918
21
-3.79793
0
LINE
8
BLACK
6
CONTINUOUS
10
7.04918
20
-3.79793
11
7.05289
21
-3.79607
0
LINE
8
BLACK
6
CONTINUOUS
10
7.05289
20
-3.79607
11
7.05459
21
-3.79437
0
LINE
8
BLACK
6
CONTINUOUS
10
7.05459
20
-3.79437
11
7.05645
21
-3.79066
0
LINE
8
BLACK
6
CONTINUOUS
10
7.05645
20
-3.79066
11
7.05645
21
-3.78015
0
LINE
8
BLACK
6
CONTINUOUS
10
7.05645
20
-3.78015
11
7.05459
21
-3.77644
0
LINE
8
BLACK
6
CONTINUOUS
10
7.05459
20
-3.77644
11
7.05289
21
-3.77474
0
LINE
8
BLACK
6
CONTINUOUS
10
7.05289
20
-3.77474
11
7.04918
21
-3.77288
0
LINE
8
BLACK
6
CONTINUOUS
10
7.04918
20
-3.77288
11
7.04273
21
-3.77288
0
LINE
8
BLACK
6
CONTINUOUS
10
7.04273
20
-3.77288
11
7.04229
21
-3.77281
0
LINE
8
BLACK
6
CONTINUOUS
10
7.04229
20
-3.77281
11
7.04216
21
-3.77283
0
LINE
8
BLACK
6
CONTINUOUS
10
7.04216
20
-3.77283
11
7.04205
21
-3.77276
0
LINE
8
BLACK
6
CONTINUOUS
10
7.04205
20
-3.77276
11
7.04172
21
-3.7727
0
LINE
8
BLACK
6
CONTINUOUS
10
7.04172
20
-3.7727
11
7.04111
21
-3.77219
0
LINE
8
BLACK
6
CONTINUOUS
10
7.04111
20
-3.77219
11
7.04043
21
-3.77178
0
LINE
8
BLACK
6
CONTINUOUS
10
7.04043
20
-3.77178
11
7.04035
21
-3.77156
0
LINE
8
BLACK
6
CONTINUOUS
10
7.04035
20
-3.77156
11
7.04017
21
-3.77141
0
LINE
8
BLACK
6
CONTINUOUS
10
7.04017
20
-3.77141
11
7.04004
21
-3.77062
0
LINE
8
BLACK
6
CONTINUOUS
10
7.04004
20
-3.77062
11
7.03978
21
-3.76987
0
LINE
8
BLACK
6
CONTINUOUS
10
7.03978
20
-3.76987
11
7.03986
21
-3.76965
0
LINE
8
BLACK
6
CONTINUOUS
10
7.03986
20
-3.76965
11
7.03982
21
-3.76942
0
LINE
8
BLACK
6
CONTINUOUS
10
7.03982
20
-3.76942
11
7.04022
21
-3.76873
0
LINE
8
BLACK
6
CONTINUOUS
10
7.04022
20
-3.76873
11
7.04051
21
-3.76799
0
LINE
8
BLACK
6
CONTINUOUS
10
7.04051
20
-3.76799
11
7.05289
21
-3.75384
0
LINE
8
BLACK
6
CONTINUOUS
10
7.05289
20
-3.75384
11
7.02845
21
-3.75384
0
LINE
8
BLACK
6
CONTINUOUS
10
7.02845
20
-3.75384
11
7.02744
21
-3.75366
0
LINE
8
BLACK
6
CONTINUOUS
10
7.02744
20
-3.75366
11
7.02589
21
-3.75236
0
LINE
8
BLACK
6
CONTINUOUS
10
7.02589
20
-3.75236
11
7.02554
21
-3.75037
0
LINE
8
BLACK
6
CONTINUOUS
10
7.02554
20
-3.75037
11
7.02655
21
-3.74862
0
LINE
8
BLACK
6
CONTINUOUS
10
7.02655
20
-3.74862
11
7.02845
21
-3.74793
0
LINE
8
BLACK
6
CONTINUOUS
10
7.02845
20
-3.74793
11
7.0594
21
-3.74793
0
LINE
8
BLACK
6
CONTINUOUS
10
7.0594
20
-3.74793
11
7.05984
21
-3.74801
0
LINE
8
BLACK
6
CONTINUOUS
10
7.03756
20
-3.69071
11
7.04887
21
-3.69296
0
LINE
8
BLACK
6
CONTINUOUS
10
7.04887
20
-3.69296
11
7.05978
21
-3.69666
0
LINE
8
BLACK
6
CONTINUOUS
10
7.05978
20
-3.69666
11
7.07012
21
-3.70176
0
LINE
8
BLACK
6
CONTINUOUS
10
7.07012
20
-3.70176
11
7.0797
21
-3.70816
0
LINE
8
BLACK
6
CONTINUOUS
10
7.0797
20
-3.70816
11
7.08836
21
-3.71576
0
LINE
8
BLACK
6
CONTINUOUS
10
7.08836
20
-3.71576
11
7.09596
21
-3.72443
0
LINE
8
BLACK
6
CONTINUOUS
10
7.09596
20
-3.72443
11
7.10236
21
-3.73401
0
LINE
8
BLACK
6
CONTINUOUS
10
7.10236
20
-3.73401
11
7.10746
21
-3.74434
0
LINE
8
BLACK
6
CONTINUOUS
10
7.10746
20
-3.74434
11
7.11117
21
-3.75526
0
LINE
8
BLACK
6
CONTINUOUS
10
7.11117
20
-3.75526
11
7.11341
21
-3.76656
0
LINE
8
BLACK
6
CONTINUOUS
10
7.11341
20
-3.76656
11
7.11417
21
-3.77806
0
LINE
8
BLACK
6
CONTINUOUS
10
7.11417
20
-3.77806
11
7.11341
21
-3.78956
0
LINE
8
BLACK
6
CONTINUOUS
10
7.11341
20
-3.78956
11
7.11117
21
-3.80086
0
LINE
8
BLACK
6
CONTINUOUS
10
7.11117
20
-3.80086
11
7.10746
21
-3.81177
0
LINE
8
BLACK
6
CONTINUOUS
10
7.10746
20
-3.81177
11
7.10236
21
-3.82211
0
LINE
8
BLACK
6
CONTINUOUS
10
7.10236
20
-3.82211
11
7.09596
21
-3.83169
0
LINE
8
BLACK
6
CONTINUOUS
10
7.09596
20
-3.83169
11
7.08836
21
-3.84036
0
LINE
8
BLACK
6
CONTINUOUS
10
7.08836
20
-3.84036
11
7.0797
21
-3.84795
0
LINE
8
BLACK
6
CONTINUOUS
10
7.0797
20
-3.84795
11
7.07012
21
-3.85436
0
LINE
8
BLACK
6
CONTINUOUS
10
7.07012
20
-3.85436
11
7.05978
21
-3.85945
0
LINE
8
BLACK
6
CONTINUOUS
10
7.05978
20
-3.85945
11
7.04887
21
-3.86316
0
LINE
8
BLACK
6
CONTINUOUS
10
7.04887
20
-3.86316
11
7.03756
21
-3.86541
0
LINE
8
BLACK
6
CONTINUOUS
10
7.03756
20
-3.86541
11
7.02606
21
-3.86616
0
LINE
8
BLACK
6
CONTINUOUS
10
7.02606
20
-3.86616
11
7.01457
21
-3.86541
0
LINE
8
BLACK
6
CONTINUOUS
10
7.01457
20
-3.86541
11
7.00326
21
-3.86316
0
LINE
8
BLACK
6
CONTINUOUS
10
7.00326
20
-3.86316
11
6.99235
21
-3.85945
0
LINE
8
BLACK
6
CONTINUOUS
10
6.99235
20
-3.85945
11
6.98201
21
-3.85436
0
LINE
8
BLACK
6
CONTINUOUS
10
6.98201
20
-3.85436
11
6.97243
21
-3.84795
0
LINE
8
BLACK
6
CONTINUOUS
10
6.97243
20
-3.84795
11
6.96377
21
-3.84036
0
LINE
8
BLACK
6
CONTINUOUS
10
6.96377
20
-3.84036
11
6.95617
21
-3.83169
0
LINE
8
BLACK
6
CONTINUOUS
10
6.95617
20
-3.83169
11
6.94977
21
-3.82211
0
LINE
8
BLACK
6
CONTINUOUS
10
6.94977
20
-3.82211
11
6.94467
21
-3.81177
0
LINE
8
BLACK
6
CONTINUOUS
10
6.94467
20
-3.81177
11
6.94096
21
-3.80086
0
LINE
8
BLACK
6
CONTINUOUS
10
6.94096
20
-3.80086
11
6.93872
21
-3.78956
0
LINE
8
BLACK
6
CONTINUOUS
10
6.93872
20
-3.78956
11
6.93796
21
-3.77806
0
LINE
8
BLACK
6
CONTINUOUS
10
6.93796
20
-3.77806
11
6.93872
21
-3.76656
0
LINE
8
BLACK
6
CONTINUOUS
10
6.93872
20
-3.76656
11
6.94096
21
-3.75526
0
LINE
8
BLACK
6
CONTINUOUS
10
6.94096
20
-3.75526
11
6.94467
21
-3.74434
0
LINE
8
BLACK
6
CONTINUOUS
10
6.94467
20
-3.74434
11
6.94977
21
-3.73401
0
LINE
8
BLACK
6
CONTINUOUS
10
6.94977
20
-3.73401
11
6.95617
21
-3.72443
0
LINE
8
BLACK
6
CONTINUOUS
10
6.95617
20
-3.72443
11
6.96377
21
-3.71576
0
LINE
8
BLACK
6
CONTINUOUS
10
6.96377
20
-3.71576
11
6.97243
21
-3.70816
0
LINE
8
BLACK
6
CONTINUOUS
10
6.97243
20
-3.70816
11
6.98201
21
-3.70176
0
LINE
8
BLACK
6
CONTINUOUS
10
6.98201
20
-3.70176
11
6.99235
21
-3.69666
0
LINE
8
BLACK
6
CONTINUOUS
10
6.99235
20
-3.69666
11
7.00326
21
-3.69296
0
LINE
8
BLACK
6
CONTINUOUS
10
7.00326
20
-3.69296
11
7.01457
21
-3.69071
0
LINE
8
BLACK
6
CONTINUOUS
10
7.01457
20
-3.69071
11
7.02606
21
-3.68996
0
LINE
8
BLACK
6
CONTINUOUS
10
7.02606
20
-3.68996
11
7.03756
21
-3.69071
0
LINE
8
BLACK
6
CONTINUOUS
10
6.94444
20
-3.78928
11
6.94673
21
-3.80029
0
LINE
8
BLACK
6
CONTINUOUS
10
6.94673
20
-3.80029
11
6.9505
21
-3.81088
0
LINE
8
BLACK
6
CONTINUOUS
10
6.9505
20
-3.81088
11
6.95567
21
-3.82087
0
LINE
8
BLACK
6
CONTINUOUS
10
6.95567
20
-3.82087
11
6.96215
21
-3.83005
0
LINE
8
BLACK
6
CONTINUOUS
10
6.96215
20
-3.83005
11
6.96983
21
-3.83827
0
LINE
8
BLACK
6
CONTINUOUS
10
6.96983
20
-3.83827
11
6.97855
21
-3.84537
0
LINE
8
BLACK
6
CONTINUOUS
10
6.97855
20
-3.84537
11
6.98816
21
-3.85121
0
LINE
8
BLACK
6
CONTINUOUS
10
6.98816
20
-3.85121
11
6.99847
21
-3.85569
0
LINE
8
BLACK
6
CONTINUOUS
10
6.99847
20
-3.85569
11
7.0093
21
-3.85872
0
LINE
8
BLACK
6
CONTINUOUS
10
7.0093
20
-3.85872
11
7.02044
21
-3.86026
0
LINE
8
BLACK
6
CONTINUOUS
10
7.02044
20
-3.86026
11
7.03169
21
-3.86026
0
LINE
8
BLACK
6
CONTINUOUS
10
7.03169
20
-3.86026
11
7.04283
21
-3.85872
0
LINE
8
BLACK
6
CONTINUOUS
10
7.04283
20
-3.85872
11
7.05366
21
-3.85569
0
LINE
8
BLACK
6
CONTINUOUS
10
7.05366
20
-3.85569
11
7.06397
21
-3.85121
0
LINE
8
BLACK
6
CONTINUOUS
10
7.06397
20
-3.85121
11
7.07358
21
-3.84537
0
LINE
8
BLACK
6
CONTINUOUS
10
7.07358
20
-3.84537
11
7.0823
21
-3.83827
0
LINE
8
BLACK
6
CONTINUOUS
10
7.0823
20
-3.83827
11
7.08997
21
-3.83005
0
LINE
8
BLACK
6
CONTINUOUS
10
7.08997
20
-3.83005
11
7.09646
21
-3.82087
0
LINE
8
BLACK
6
CONTINUOUS
10
7.09646
20
-3.82087
11
7.10163
21
-3.81088
0
LINE
8
BLACK
6
CONTINUOUS
10
7.10163
20
-3.81088
11
7.1054
21
-3.80029
0
LINE
8
BLACK
6
CONTINUOUS
10
7.1054
20
-3.80029
11
7.10769
21
-3.78928
0
LINE
8
BLACK
6
CONTINUOUS
10
7.10769
20
-3.78928
11
7.10845
21
-3.77806
0
LINE
8
BLACK
6
CONTINUOUS
10
7.10845
20
-3.77806
11
7.10769
21
-3.76684
0
LINE
8
BLACK
6
CONTINUOUS
10
7.10769
20
-3.76684
11
7.1054
21
-3.75583
0
LINE
8
BLACK
6
CONTINUOUS
10
7.1054
20
-3.75583
11
7.10163
21
-3.74523
0
LINE
8
BLACK
6
CONTINUOUS
10
7.10163
20
-3.74523
11
7.09646
21
-3.73525
0
LINE
8
BLACK
6
CONTINUOUS
10
7.09646
20
-3.73525
11
7.08997
21
-3.72606
0
LINE
8
BLACK
6
CONTINUOUS
10
7.08997
20
-3.72606
11
7.0823
21
-3.71785
0
LINE
8
BLACK
6
CONTINUOUS
10
7.0823
20
-3.71785
11
7.07358
21
-3.71075
0
LINE
8
BLACK
6
CONTINUOUS
10
7.07358
20
-3.71075
11
7.06397
21
-3.70491
0
LINE
8
BLACK
6
CONTINUOUS
10
7.06397
20
-3.70491
11
7.05366
21
-3.70043
0
LINE
8
BLACK
6
CONTINUOUS
10
7.05366
20
-3.70043
11
7.04283
21
-3.69739
0
LINE
8
BLACK
6
CONTINUOUS
10
7.04283
20
-3.69739
11
7.03169
21
-3.69586
0
LINE
8
BLACK
6
CONTINUOUS
10
7.03169
20
-3.69586
11
7.02044
21
-3.69586
0
LINE
8
BLACK
6
CONTINUOUS
10
7.02044
20
-3.69586
11
7.0093
21
-3.69739
0
LINE
8
BLACK
6
CONTINUOUS
10
7.0093
20
-3.69739
11
6.99847
21
-3.70043
0
LINE
8
BLACK
6
CONTINUOUS
10
6.99847
20
-3.70043
11
6.98816
21
-3.70491
0
LINE
8
BLACK
6
CONTINUOUS
10
6.98816
20
-3.70491
11
6.97855
21
-3.71075
0
LINE
8
BLACK
6
CONTINUOUS
10
6.97855
20
-3.71075
11
6.96983
21
-3.71785
0
LINE
8
BLACK
6
CONTINUOUS
10
6.96983
20
-3.71785
11
6.96215
21
-3.72606
0
LINE
8
BLACK
6
CONTINUOUS
10
6.96215
20
-3.72606
11
6.95567
21
-3.73525
0
LINE
8
BLACK
6
CONTINUOUS
10
6.95567
20
-3.73525
11
6.9505
21
-3.74523
0
LINE
8
BLACK
6
CONTINUOUS
10
6.9505
20
-3.74523
11
6.94673
21
-3.75583
0
LINE
8
BLACK
6
CONTINUOUS
10
6.94673
20
-3.75583
11
6.94444
21
-3.76684
0
LINE
8
BLACK
6
CONTINUOUS
10
6.94444
20
-3.76684
11
6.94368
21
-3.77806
0
LINE
8
BLACK
6
CONTINUOUS
10
6.94368
20
-3.77806
11
6.94444
21
-3.78928
0
LINE
8
BLACK
6
CONTINUOUS
10
7.16424
20
-3.63738
11
7.16437
21
-3.63736
0
LINE
8
BLACK
6
CONTINUOUS
10
7.16437
20
-3.63736
11
7.16449
21
-3.63742
0
LINE
8
BLACK
6
CONTINUOUS
10
7.16449
20
-3.63742
11
7.16487
21
-3.63749
0
LINE
8
BLACK
6
CONTINUOUS
10
7.16487
20
-3.63749
11
7.16546
21
-3.63798
0
LINE
8
BLACK
6
CONTINUOUS
10
7.16546
20
-3.63798
11
7.16612
21
-3.63837
0
LINE
8
BLACK
6
CONTINUOUS
10
7.16612
20
-3.63837
11
7.16621
21
-3.63862
0
LINE
8
BLACK
6
CONTINUOUS
10
7.16621
20
-3.63862
11
7.16642
21
-3.63879
0
LINE
8
BLACK
6
CONTINUOUS
10
7.16642
20
-3.63879
11
7.16655
21
-3.63954
0
LINE
8
BLACK
6
CONTINUOUS
10
7.16655
20
-3.63954
11
7.16681
21
-3.64026
0
LINE
8
BLACK
6
CONTINUOUS
10
7.16681
20
-3.64026
11
7.16681
21
-3.91585
0
LINE
8
BLACK
6
CONTINUOUS
10
7.16681
20
-3.91585
11
7.16675
21
-3.91624
0
LINE
8
BLACK
6
CONTINUOUS
10
7.16675
20
-3.91624
11
7.16677
21
-3.91637
0
LINE
8
BLACK
6
CONTINUOUS
10
7.16677
20
-3.91637
11
7.1667
21
-3.91648
0
LINE
8
BLACK
6
CONTINUOUS
10
7.1667
20
-3.91648
11
7.16663
21
-3.91686
0
LINE
8
BLACK
6
CONTINUOUS
10
7.16663
20
-3.91686
11
7.16614
21
-3.91745
0
LINE
8
BLACK
6
CONTINUOUS
10
7.16614
20
-3.91745
11
7.16576
21
-3.91812
0
LINE
8
BLACK
6
CONTINUOUS
10
7.16576
20
-3.91812
11
7.16551
21
-3.91821
0
LINE
8
BLACK
6
CONTINUOUS
10
7.16551
20
-3.91821
11
7.16534
21
-3.91841
0
LINE
8
BLACK
6
CONTINUOUS
10
7.16534
20
-3.91841
11
7.16458
21
-3.91854
0
LINE
8
BLACK
6
CONTINUOUS
10
7.16458
20
-3.91854
11
7.16386
21
-3.91881
0
LINE
8
BLACK
6
CONTINUOUS
10
7.16386
20
-3.91881
11
6.88827
21
-3.91881
0
LINE
8
BLACK
6
CONTINUOUS
10
6.88827
20
-3.91881
11
6.88789
21
-3.91874
0
LINE
8
BLACK
6
CONTINUOUS
10
6.88789
20
-3.91874
11
6.88776
21
-3.91876
0
LINE
8
BLACK
6
CONTINUOUS
10
6.88776
20
-3.91876
11
6.88764
21
-3.9187
0
LINE
8
BLACK
6
CONTINUOUS
10
6.88764
20
-3.9187
11
6.88726
21
-3.91863
0
LINE
8
BLACK
6
CONTINUOUS
10
6.88726
20
-3.91863
11
6.88667
21
-3.91814
0
LINE
8
BLACK
6
CONTINUOUS
10
6.88667
20
-3.91814
11
6.88601
21
-3.91775
0
LINE
8
BLACK
6
CONTINUOUS
10
6.88601
20
-3.91775
11
6.88592
21
-3.9175
0
LINE
8
BLACK
6
CONTINUOUS
10
6.88592
20
-3.9175
11
6.88571
21
-3.91733
0
LINE
8
BLACK
6
CONTINUOUS
10
6.88571
20
-3.91733
11
6.88558
21
-3.91657
0
LINE
8
BLACK
6
CONTINUOUS
10
6.88558
20
-3.91657
11
6.88532
21
-3.91585
0
LINE
8
BLACK
6
CONTINUOUS
10
6.88532
20
-3.91585
11
6.88532
21
-3.64026
0
LINE
8
BLACK
6
CONTINUOUS
10
6.88532
20
-3.64026
11
6.88538
21
-3.63988
0
LINE
8
BLACK
6
CONTINUOUS
10
6.88538
20
-3.63988
11
6.88536
21
-3.63975
0
LINE
8
BLACK
6
CONTINUOUS
10
6.88536
20
-3.63975
11
6.88543
21
-3.63964
0
LINE
8
BLACK
6
CONTINUOUS
10
6.88543
20
-3.63964
11
6.88549
21
-3.63925
0
LINE
8
BLACK
6
CONTINUOUS
10
6.88549
20
-3.63925
11
6.88599
21
-3.63867
0
LINE
8
BLACK
6
CONTINUOUS
10
6.88599
20
-3.63867
11
6.88637
21
-3.638
0
LINE
8
BLACK
6
CONTINUOUS
10
6.88637
20
-3.638
11
6.88662
21
-3.63791
0
LINE
8
BLACK
6
CONTINUOUS
10
6.88662
20
-3.63791
11
6.88679
21
-3.63771
0
LINE
8
BLACK
6
CONTINUOUS
10
6.88679
20
-3.63771
11
6.88755
21
-3.63757
0
LINE
8
BLACK
6
CONTINUOUS
10
6.88755
20
-3.63757
11
6.88827
21
-3.63731
0
LINE
8
BLACK
6
CONTINUOUS
10
6.88827
20
-3.63731
11
7.16386
21
-3.63731
0
LINE
8
BLACK
6
CONTINUOUS
10
7.16386
20
-3.63731
11
7.16424
21
-3.63738
0
LINE
8
BLACK
6
CONTINUOUS
10
6.89122
20
-3.64322
11
6.89122
21
-3.9129
0
LINE
8
BLACK
6
CONTINUOUS
10
6.89122
20
-3.9129
11
7.16091
21
-3.9129
0
LINE
8
BLACK
6
CONTINUOUS
10
7.16091
20
-3.9129
11
7.16091
21
-3.64322
0
LINE
8
BLACK
6
CONTINUOUS
10
7.16091
20
-3.64322
11
6.89122
21
-3.64322
0
LINE
8
BLACK
6
CONTINUOUS
10
5.32606
20
-3.27511
11
5.42606
21
-3.27511
0
LINE
8
BLACK
6
CONTINUOUS
10
5.42606
20
-3.27511
11
5.52606
21
-3.27511
0
LINE
8
BLACK
6
CONTINUOUS
10
5.52606
20
-3.27511
11
5.62606
21
-3.27511
0
LINE
8
BLACK
6
CONTINUOUS
10
5.62606
20
-3.27511
11
5.72606
21
-3.27511
0
LINE
8
BLACK
6
CONTINUOUS
10
5.72606
20
-3.27511
11
5.82606
21
-3.27511
0
LINE
8
BLACK
6
CONTINUOUS
10
5.82606
20
-3.27511
11
5.92606
21
-3.27511
0
LINE
8
BLACK
6
CONTINUOUS
10
5.92606
20
-3.27511
11
6.02606
21
-3.27511
0
LINE
8
BLACK
6
CONTINUOUS
10
6.02606
20
-3.27511
11
6.12606
21
-3.27511
0
LINE
8
BLACK
6
CONTINUOUS
10
6.12606
20
-3.27511
11
6.12645
21
-3.27517
0
LINE
8
BLACK
6
CONTINUOUS
10
6.12645
20
-3.27517
11
6.12658
21
-3.27515
0
LINE
8
BLACK
6
CONTINUOUS
10
6.12658
20
-3.27515
11
6.12669
21
-3.27522
0
LINE
8
BLACK
6
CONTINUOUS
10
6.12669
20
-3.27522
11
6.12707
21
-3.27528
0
LINE
8
BLACK
6
CONTINUOUS
10
6.12707
20
-3.27528
11
6.12766
21
-3.27578
0
LINE
8
BLACK
6
CONTINUOUS
10
6.12766
20
-3.27578
11
6.12833
21
-3.27616
0
LINE
8
BLACK
6
CONTINUOUS
10
6.12833
20
-3.27616
11
6.12842
21
-3.27641
0
LINE
8
BLACK
6
CONTINUOUS
10
6.12842
20
-3.27641
11
6.12862
21
-3.27658
0
LINE
8
BLACK
6
CONTINUOUS
10
6.12862
20
-3.27658
11
6.12876
21
-3.27734
0
LINE
8
BLACK
6
CONTINUOUS
10
6.12876
20
-3.27734
11
6.12902
21
-3.27806
0
LINE
8
BLACK
6
CONTINUOUS
10
6.12902
20
-3.27806
11
6.12902
21
-3.47806
0
LINE
8
BLACK
6
CONTINUOUS
10
6.12902
20
-3.47806
11
6.12895
21
-3.47844
0
LINE
8
BLACK
6
CONTINUOUS
10
6.12895
20
-3.47844
11
6.12897
21
-3.47857
0
LINE
8
BLACK
6
CONTINUOUS
10
6.12897
20
-3.47857
11
6.12891
21
-3.47868
0
LINE
8
BLACK
6
CONTINUOUS
10
6.12891
20
-3.47868
11
6.12884
21
-3.47907
0
LINE
8
BLACK
6
CONTINUOUS
10
6.12884
20
-3.47907
11
6.12835
21
-3.47966
0
LINE
8
BLACK
6
CONTINUOUS
10
6.12835
20
-3.47966
11
6.12796
21
-3.48032
0
LINE
8
BLACK
6
CONTINUOUS
10
6.12796
20
-3.48032
11
6.12771
21
-3.48041
0
LINE
8
BLACK
6
CONTINUOUS
10
6.12771
20
-3.48041
11
6.12754
21
-3.48062
0
LINE
8
BLACK
6
CONTINUOUS
10
6.12754
20
-3.48062
11
6.12679
21
-3.48075
0
LINE
8
BLACK
6
CONTINUOUS
10
6.12679
20
-3.48075
11
6.12606
21
-3.48101
0
LINE
8
BLACK
6
CONTINUOUS
10
6.12606
20
-3.48101
11
6.02606
21
-3.48101
0
LINE
8
BLACK
6
CONTINUOUS
10
6.02606
20
-3.48101
11
5.92606
21
-3.48101
0
LINE
8
BLACK
6
CONTINUOUS
10
5.92606
20
-3.48101
11
5.82606
21
-3.48101
0
LINE
8
BLACK
6
CONTINUOUS
10
5.82606
20
-3.48101
11
5.72606
21
-3.48101
0
LINE
8
BLACK
6
CONTINUOUS
10
5.72606
20
-3.48101
11
5.62606
21
-3.48101
0
LINE
8
BLACK
6
CONTINUOUS
10
5.62606
20
-3.48101
11
5.52606
21
-3.48101
0
LINE
8
BLACK
6
CONTINUOUS
10
5.52606
20
-3.48101
11
5.42606
21
-3.48101
0
LINE
8
BLACK
6
CONTINUOUS
10
5.42606
20
-3.48101
11
5.32606
21
-3.48101
0
LINE
8
BLACK
6
CONTINUOUS
10
5.32606
20
-3.48101
11
5.22606
21
-3.48101
0
LINE
8
BLACK
6
CONTINUOUS
10
5.22606
20
-3.48101
11
5.22568
21
-3.48094
0
LINE
8
BLACK
6
CONTINUOUS
10
5.22568
20
-3.48094
11
5.22555
21
-3.48097
0
LINE
8
BLACK
6
CONTINUOUS
10
5.22555
20
-3.48097
11
5.22544
21
-3.4809
0
LINE
8
BLACK
6
CONTINUOUS
10
5.22544
20
-3.4809
11
5.22505
21
-3.48083
0
LINE
8
BLACK
6
CONTINUOUS
10
5.22505
20
-3.48083
11
5.22447
21
-3.48034
0
LINE
8
BLACK
6
CONTINUOUS
10
5.22447
20
-3.48034
11
5.2238
21
-3.47996
0
LINE
8
BLACK
6
CONTINUOUS
10
5.2238
20
-3.47996
11
5.22371
21
-3.47971
0
LINE
8
BLACK
6
CONTINUOUS
10
5.22371
20
-3.47971
11
5.22351
21
-3.47953
0
LINE
8
BLACK
6
CONTINUOUS
10
5.22351
20
-3.47953
11
5.22337
21
-3.47878
0
LINE
8
BLACK
6
CONTINUOUS
10
5.22337
20
-3.47878
11
5.22311
21
-3.47806
0
LINE
8
BLACK
6
CONTINUOUS
10
5.22311
20
-3.47806
11
5.22311
21
-3.27806
0
LINE
8
BLACK
6
CONTINUOUS
10
5.22311
20
-3.27806
11
5.22318
21
-3.27768
0
LINE
8
BLACK
6
CONTINUOUS
10
5.22318
20
-3.27768
11
5.22316
21
-3.27755
0
LINE
8
BLACK
6
CONTINUOUS
10
5.22316
20
-3.27755
11
5.22322
21
-3.27743
0
LINE
8
BLACK
6
CONTINUOUS
10
5.22322
20
-3.27743
11
5.22329
21
-3.27705
0
LINE
8
BLACK
6
CONTINUOUS
10
5.22329
20
-3.27705
11
5.22378
21
-3.27646
0
LINE
8
BLACK
6
CONTINUOUS
10
5.22378
20
-3.27646
11
5.22417
21
-3.2758
0
LINE
8
BLACK
6
CONTINUOUS
10
5.22417
20
-3.2758
11
5.22442
21
-3.27571
0
LINE
8
BLACK
6
CONTINUOUS
10
5.22442
20
-3.27571
11
5.22459
21
-3.2755
0
LINE
8
BLACK
6
CONTINUOUS
10
5.22459
20
-3.2755
11
5.22534
21
-3.27537
0
LINE
8
BLACK
6
CONTINUOUS
10
5.22534
20
-3.27537
11
5.22606
21
-3.27511
0
LINE
8
BLACK
6
CONTINUOUS
10
5.22606
20
-3.27511
11
5.32606
21
-3.27511
0
LINE
8
BLACK
6
CONTINUOUS
10
6.02902
20
-3.28101
11
6.02902
21
-3.47511
0
LINE
8
BLACK
6
CONTINUOUS
10
6.02902
20
-3.47511
11
6.12311
21
-3.47511
0
LINE
8
BLACK
6
CONTINUOUS
10
6.12311
20
-3.47511
11
6.12311
21
-3.28101
0
LINE
8
BLACK
6
CONTINUOUS
10
6.12311
20
-3.28101
11
6.02902
21
-3.28101
0
LINE
8
BLACK
6
CONTINUOUS
10
5.92902
20
-3.28101
11
5.92902
21
-3.47511
0
LINE
8
BLACK
6
CONTINUOUS
10
5.92902
20
-3.47511
11
6.02311
21
-3.47511
0
LINE
8
BLACK
6
CONTINUOUS
10
6.02311
20
-3.47511
11
6.02311
21
-3.28101
0
LINE
8
BLACK
6
CONTINUOUS
10
6.02311
20
-3.28101
11
5.92902
21
-3.28101
0
LINE
8
BLACK
6
CONTINUOUS
10
5.82902
20
-3.28101
11
5.82902
21
-3.47511
0
LINE
8
BLACK
6
CONTINUOUS
10
5.82902
20
-3.47511
11
5.92311
21
-3.47511
0
LINE
8
BLACK
6
CONTINUOUS
10
5.92311
20
-3.47511
11
5.92311
21
-3.28101
0
LINE
8
BLACK
6
CONTINUOUS
10
5.92311
20
-3.28101
11
5.82902
21
-3.28101
0
LINE
8
BLACK
6
CONTINUOUS
10
5.72902
20
-3.28101
11
5.72902
21
-3.47511
0
LINE
8
BLACK
6
CONTINUOUS
10
5.72902
20
-3.47511
11
5.82311
21
-3.47511
0
LINE
8
BLACK
6
CONTINUOUS
10
5.82311
20
-3.47511
11
5.82311
21
-3.28101
0
LINE
8
BLACK
6
CONTINUOUS
10
5.82311
20
-3.28101
11
5.72902
21
-3.28101
0
LINE
8
BLACK
6
CONTINUOUS
10
5.62902
20
-3.28101
11
5.62902
21
-3.47511
0
LINE
8
BLACK
6
CONTINUOUS
10
5.62902
20
-3.47511
11
5.72311
21
-3.47511
0
LINE
8
BLACK
6
CONTINUOUS
10
5.72311
20
-3.47511
11
5.72311
21
-3.28101
0
LINE
8
BLACK
6
CONTINUOUS
10
5.72311
20
-3.28101
11
5.62902
21
-3.28101
0
LINE
8
BLACK
6
CONTINUOUS
10
5.52902
20
-3.28101
11
5.52902
21
-3.47511
0
LINE
8
BLACK
6
CONTINUOUS
10
5.52902
20
-3.47511
11
5.62311
21
-3.47511
0
LINE
8
BLACK
6
CONTINUOUS
10
5.62311
20
-3.47511
11
5.62311
21
-3.28101
0
LINE
8
BLACK
6
CONTINUOUS
10
5.62311
20
-3.28101
11
5.52902
21
-3.28101
0
LINE
8
BLACK
6
CONTINUOUS
10
5.42902
20
-3.28101
11
5.42902
21
-3.47511
0
LINE
8
BLACK
6
CONTINUOUS
10
5.42902
20
-3.47511
11
5.52311
21
-3.47511
0
LINE
8
BLACK
6
CONTINUOUS
10
5.52311
20
-3.47511
11
5.52311
21
-3.28101
0
LINE
8
BLACK
6
CONTINUOUS
10
5.52311
20
-3.28101
11
5.42902
21
-3.28101
0
LINE
8
BLACK
6
CONTINUOUS
10
5.32902
20
-3.28101
11
5.32902
21
-3.47511
0
LINE
8
BLACK
6
CONTINUOUS
10
5.32902
20
-3.47511
11
5.42311
21
-3.47511
0
LINE
8
BLACK
6
CONTINUOUS
10
5.42311
20
-3.47511
11
5.42311
21
-3.28101
0
LINE
8
BLACK
6
CONTINUOUS
10
5.42311
20
-3.28101
11
5.32902
21
-3.28101
0
LINE
8
BLACK
6
CONTINUOUS
10
5.22902
20
-3.28101
11
5.22902
21
-3.47511
0
LINE
8
BLACK
6
CONTINUOUS
10
5.22902
20
-3.47511
11
5.32311
21
-3.47511
0
LINE
8
BLACK
6
CONTINUOUS
10
5.32311
20
-3.47511
11
5.32311
21
-3.28101
0
LINE
8
BLACK
6
CONTINUOUS
10
5.32311
20
-3.28101
11
5.22902
21
-3.28101
  0
ENDSEC
  0
EOF
