  0
SECTION
  2
HEADER
  9
$ANGBASE
  50
0.0
  9
$ANGDIR
  70
1
  9
$MEASUREMENT
  70
0
  0
ENDSEC
  0
SECTION
  2
TABLES
  0
TABLE
  2
LTYPE
  70
4
  0
LTYPE
  5
40F
  2
CONTINUOUS
  70
0
  3
Solid line
  72
65
  73
0
  40
0.0
  0
LTYPE
  5
410
  2
DASHDOT
 70
0
  3
Dash Dot ____ _ ____ _
 72
65
 73
4
 40
2.0
 49
1.25
 49
-0.25
 49
0.25
 49
-0.25
  0
LTYPE
  5
411
  2
DASHED
 70
0
  3
Dashed __ __ __ __ __
 72
65
 73
2
 40
0.75
 49
0.5
 49
-0.25
  0
LTYPE
  5
43B
  2
DOTTED
 70
0
  3
Dotted .  .  .  .
 72
65
 73
2
 40
0.2
 49
0.0
 49
-0.2
  0
ENDTAB
  0
TABLE
  2
STYLE
  70
4
  0
STYLE
  2
KICAD
  70
0
  40
0
  41
1
  42
1
  50
0
  71
0
  3
isocp.shx
  0
STYLE
  2
KICADB
  70
0
  40
0
  41
1
  42
1
  50
0
  71
0
  3
isocp.shx
  0
STYLE
  2
KICADI
  70
0
  40
0
  41
1
  42
1
  50
15
  71
0
  3
isocp.shx
  0
STYLE
  2
KICADBI
  70
0
  40
0
  41
1
  42
1
  50
15
  71
0
  3
isocp.shx
  0
ENDTAB
  0
TABLE
  2
LAYER
  70
1
  0
LAYER
  2
BLACK
  70
0
  62
7
  6
CONTINUOUS
  0
ENDTAB
  0
ENDSEC
  0
SECTION
  2
ENTITIES
0
LINE
8
BLACK
6
CONTINUOUS
10
6.6333706299212594
20
-4.2482516535433072
11
6.633903307086614
21
-4.248784330708661
0
LINE
8
BLACK
6
CONTINUOUS
10
6.633903307086614
20
-4.248784330708661
11
6.6339782283464563
21
-4.2491609842519686
0
LINE
8
BLACK
6
CONTINUOUS
10
6.6339782283464563
20
-4.2491609842519686
11
6.6339782283464563
21
-4.3869562598425196
0
LINE
8
BLACK
6
CONTINUOUS
10
6.6339782283464563
20
-4.3869562598425196
11
6.633903307086614
21
-4.3873329133858263
0
LINE
8
BLACK
6
CONTINUOUS
10
6.633903307086614
20
-4.3873329133858263
11
6.6333706299212594
21
-4.387865590551181
0
LINE
8
BLACK
6
CONTINUOUS
10
6.6333706299212594
20
-4.387865590551181
11
6.6329939763779526
21
-4.3879405118110233
0
LINE
8
BLACK
6
CONTINUOUS
10
6.6329939763779526
20
-4.3879405118110233
11
6.4991357086614174
21
-4.3879405118110233
0
LINE
8
BLACK
6
CONTINUOUS
10
6.4991357086614174
20
-4.3879405118110233
11
6.4987590551181098
21
-4.387865590551181
0
LINE
8
BLACK
6
CONTINUOUS
10
6.4987590551181098
20
-4.387865590551181
11
6.498226377952756
21
-4.3873329133858263
0
LINE
8
BLACK
6
CONTINUOUS
10
6.498226377952756
20
-4.3873329133858263
11
6.4981514566929128
21
-4.3869562598425196
0
LINE
8
BLACK
6
CONTINUOUS
10
6.4981514566929128
20
-4.3869562598425196
11
6.4981514566929128
21
-4.2491609842519686
0
LINE
8
BLACK
6
CONTINUOUS
10
6.4981514566929128
20
-4.2491609842519686
11
6.498226377952756
21
-4.248784330708661
0
LINE
8
BLACK
6
CONTINUOUS
10
6.498226377952756
20
-4.248784330708661
11
6.4987590551181098
21
-4.2482516535433072
0
LINE
8
BLACK
6
CONTINUOUS
10
6.4987590551181098
20
-4.2482516535433072
11
6.4991357086614174
21
-4.248176732283464
0
LINE
8
BLACK
6
CONTINUOUS
10
6.4991357086614174
20
-4.248176732283464
11
6.6329939763779526
21
-4.248176732283464
0
LINE
8
BLACK
6
CONTINUOUS
10
6.6329939763779526
20
-4.248176732283464
11
6.6333706299212594
21
-4.2482516535433072
0
LINE
8
BLACK
6
CONTINUOUS
10
6.5001199606299211
20
-4.2501452362204724
11
6.5001199606299211
21
-4.3859720078740159
0
LINE
8
BLACK
6
CONTINUOUS
10
6.5001199606299211
20
-4.3859720078740159
11
6.6320097244094489
21
-4.3859720078740159
0
LINE
8
BLACK
6
CONTINUOUS
10
6.6320097244094489
20
-4.3859720078740159
11
6.6320097244094489
21
-4.2501452362204724
0
LINE
8
BLACK
6
CONTINUOUS
10
6.6320097244094489
20
-4.2501452362204724
11
6.5001199606299211
21
-4.2501452362204724
0
LINE
8
BLACK
6
CONTINUOUS
10
6.7833706299212597
20
-4.2482516535433072
11
6.7839033070866144
21
-4.248784330708661
0
LINE
8
BLACK
6
CONTINUOUS
10
6.7839033070866144
20
-4.248784330708661
11
6.7839782283464567
21
-4.2491609842519686
0
LINE
8
BLACK
6
CONTINUOUS
10
6.7839782283464567
20
-4.2491609842519686
11
6.7839782283464567
21
-4.3869562598425196
0
LINE
8
BLACK
6
CONTINUOUS
10
6.7839782283464567
20
-4.3869562598425196
11
6.7839033070866144
21
-4.3873329133858263
0
LINE
8
BLACK
6
CONTINUOUS
10
6.7839033070866144
20
-4.3873329133858263
11
6.7833706299212597
21
-4.387865590551181
0
LINE
8
BLACK
6
CONTINUOUS
10
6.7833706299212597
20
-4.387865590551181
11
6.782993976377953
21
-4.3879405118110233
0
LINE
8
BLACK
6
CONTINUOUS
10
6.782993976377953
20
-4.3879405118110233
11
6.6491357086614169
21
-4.3879405118110233
0
LINE
8
BLACK
6
CONTINUOUS
10
6.6491357086614169
20
-4.3879405118110233
11
6.6487590551181102
21
-4.387865590551181
0
LINE
8
BLACK
6
CONTINUOUS
10
6.6487590551181102
20
-4.387865590551181
11
6.6482263779527555
21
-4.3873329133858263
0
LINE
8
BLACK
6
CONTINUOUS
10
6.6482263779527555
20
-4.3873329133858263
11
6.6481514566929132
21
-4.3869562598425196
0
LINE
8
BLACK
6
CONTINUOUS
10
6.6481514566929132
20
-4.3869562598425196
11
6.6481514566929132
21
-4.2491609842519686
0
LINE
8
BLACK
6
CONTINUOUS
10
6.6481514566929132
20
-4.2491609842519686
11
6.6482263779527555
21
-4.248784330708661
0
LINE
8
BLACK
6
CONTINUOUS
10
6.6482263779527555
20
-4.248784330708661
11
6.6487590551181102
21
-4.2482516535433072
0
LINE
8
BLACK
6
CONTINUOUS
10
6.6487590551181102
20
-4.2482516535433072
11
6.6491357086614169
21
-4.248176732283464
0
LINE
8
BLACK
6
CONTINUOUS
10
6.6491357086614169
20
-4.248176732283464
11
6.782993976377953
21
-4.248176732283464
0
LINE
8
BLACK
6
CONTINUOUS
10
6.782993976377953
20
-4.248176732283464
11
6.7833706299212597
21
-4.2482516535433072
0
LINE
8
BLACK
6
CONTINUOUS
10
6.6501199606299215
20
-4.2501452362204724
11
6.6501199606299215
21
-4.3859720078740159
0
LINE
8
BLACK
6
CONTINUOUS
10
6.6501199606299215
20
-4.3859720078740159
11
6.7820097244094484
21
-4.3859720078740159
0
LINE
8
BLACK
6
CONTINUOUS
10
6.7820097244094484
20
-4.3859720078740159
11
6.7820097244094484
21
-4.2501452362204724
0
LINE
8
BLACK
6
CONTINUOUS
10
6.7820097244094484
20
-4.2501452362204724
11
6.6501199606299215
21
-4.2501452362204724
0
LINE
8
BLACK
6
CONTINUOUS
10
6.0439611811023619
20
-3.8793146456692913
11
6.0444938582677166
21
-3.8798473228346455
0
LINE
8
BLACK
6
CONTINUOUS
10
6.0444938582677166
20
-3.8798473228346455
11
6.0445687795275589
21
-3.8802239763779527
0
LINE
8
BLACK
6
CONTINUOUS
10
6.0445687795275589
20
-3.8802239763779527
11
6.0445687795275589
21
-4.1258932677165356
0
LINE
8
BLACK
6
CONTINUOUS
10
6.0445687795275589
20
-4.1258932677165356
11
6.0444938582677166
21
-4.1262699212598424
0
LINE
8
BLACK
6
CONTINUOUS
10
6.0444938582677166
20
-4.1262699212598424
11
6.0439611811023619
21
-4.126802598425197
0
LINE
8
BLACK
6
CONTINUOUS
10
6.0439611811023619
20
-4.126802598425197
11
6.0435845275590552
21
-4.1268775196850394
0
LINE
8
BLACK
6
CONTINUOUS
10
6.0435845275590552
20
-4.1268775196850394
11
5.7585451574803148
21
-4.1268775196850394
0
LINE
8
BLACK
6
CONTINUOUS
10
5.7585451574803148
20
-4.1268775196850394
11
5.7581685039370081
21
-4.126802598425197
0
LINE
8
BLACK
6
CONTINUOUS
10
5.7581685039370081
20
-4.126802598425197
11
5.7576358267716534
21
-4.1262699212598424
0
LINE
8
BLACK
6
CONTINUOUS
10
5.7576358267716534
20
-4.1262699212598424
11
5.7575609055118111
21
-4.1258932677165356
0
LINE
8
BLACK
6
CONTINUOUS
10
5.7575609055118111
20
-4.1258932677165356
11
5.7575609055118111
21
-3.8802239763779527
0
LINE
8
BLACK
6
CONTINUOUS
10
5.7575609055118111
20
-3.8802239763779527
11
5.7576358267716534
21
-3.8798473228346455
0
LINE
8
BLACK
6
CONTINUOUS
10
5.7576358267716534
20
-3.8798473228346455
11
5.7581685039370081
21
-3.8793146456692913
0
LINE
8
BLACK
6
CONTINUOUS
10
5.7581685039370081
20
-3.8793146456692913
11
5.7585451574803148
21
-3.8792397244094485
0
LINE
8
BLACK
6
CONTINUOUS
10
5.7585451574803148
20
-3.8792397244094485
11
6.0435845275590552
21
-3.8792397244094485
0
LINE
8
BLACK
6
CONTINUOUS
10
6.0435845275590552
20
-3.8792397244094485
11
6.0439611811023619
21
-3.8793146456692913
0
LINE
8
BLACK
6
CONTINUOUS
10
5.7595294094488185
20
-3.8812082283464564
11
5.7595294094488185
21
-4.124909015748031
0
LINE
8
BLACK
6
CONTINUOUS
10
5.7595294094488185
20
-4.124909015748031
11
6.0426002755905515
21
-4.124909015748031
0
LINE
8
BLACK
6
CONTINUOUS
10
6.0426002755905515
20
-4.124909015748031
11
6.0426002755905515
21
-3.8812082283464564
0
LINE
8
BLACK
6
CONTINUOUS
10
6.0426002755905515
20
-3.8812082283464564
11
5.7595294094488185
21
-3.8812082283464564
0
LINE
8
BLACK
6
CONTINUOUS
10
5.1947485826771649
20
-3.6478185826771652
11
5.1952812598425195
21
-3.6483512598425194
0
LINE
8
BLACK
6
CONTINUOUS
10
5.1952812598425195
20
-3.6483512598425194
11
5.1953561811023619
21
-3.6487279133858266
0
LINE
8
BLACK
6
CONTINUOUS
10
5.1953561811023619
20
-3.6487279133858266
11
5.1953561811023619
21
-3.8573893307086613
0
LINE
8
BLACK
6
CONTINUOUS
10
5.1953561811023619
20
-3.8573893307086613
11
5.1952812598425195
21
-3.8577659842519685
0
LINE
8
BLACK
6
CONTINUOUS
10
5.1952812598425195
20
-3.8577659842519685
11
5.1947485826771649
21
-3.8582986614173227
0
LINE
8
BLACK
6
CONTINUOUS
10
5.1947485826771649
20
-3.8582986614173227
11
5.1943719291338581
21
-3.8583735826771655
0
LINE
8
BLACK
6
CONTINUOUS
10
5.1943719291338581
20
-3.8583735826771655
11
5.1077577559055118
21
-3.8583735826771655
0
LINE
8
BLACK
6
CONTINUOUS
10
5.1077577559055118
20
-3.8583735826771655
11
5.1073811023622042
21
-3.8582986614173227
0
LINE
8
BLACK
6
CONTINUOUS
10
5.1073811023622042
20
-3.8582986614173227
11
5.1068484251968504
21
-3.8577659842519685
0
LINE
8
BLACK
6
CONTINUOUS
10
5.1068484251968504
20
-3.8577659842519685
11
5.1067735039370081
21
-3.8573893307086613
0
LINE
8
BLACK
6
CONTINUOUS
10
5.1067735039370081
20
-3.8573893307086613
11
5.1067735039370081
21
-3.6487279133858266
0
LINE
8
BLACK
6
CONTINUOUS
10
5.1067735039370081
20
-3.6487279133858266
11
5.1068484251968504
21
-3.6483512598425194
0
LINE
8
BLACK
6
CONTINUOUS
10
5.1068484251968504
20
-3.6483512598425194
11
5.1073811023622042
21
-3.6478185826771652
0
LINE
8
BLACK
6
CONTINUOUS
10
5.1073811023622042
20
-3.6478185826771652
11
5.1077577559055118
21
-3.6477436614173229
0
LINE
8
BLACK
6
CONTINUOUS
10
5.1077577559055118
20
-3.6477436614173229
11
5.1943719291338581
21
-3.6477436614173229
0
LINE
8
BLACK
6
CONTINUOUS
10
5.1943719291338581
20
-3.6477436614173229
11
5.1947485826771649
21
-3.6478185826771652
0
LINE
8
BLACK
6
CONTINUOUS
10
5.1087420078740156
20
-3.6497121653543307
11
5.1087420078740156
21
-3.8564050787401576
0
LINE
8
BLACK
6
CONTINUOUS
10
5.1087420078740156
20
-3.8564050787401576
11
5.1933876771653544
21
-3.8564050787401576
0
LINE
8
BLACK
6
CONTINUOUS
10
5.1933876771653544
20
-3.8564050787401576
11
5.1933876771653544
21
-3.6497121653543307
0
LINE
8
BLACK
6
CONTINUOUS
10
5.1933876771653544
20
-3.6497121653543307
11
5.1087420078740156
21
-3.6497121653543307
0
LINE
8
BLACK
6
CONTINUOUS
10
6.0774257480314962
20
-3.6417162204724409
11
6.0779584251968499
21
-3.6422488976377951
0
LINE
8
BLACK
6
CONTINUOUS
10
6.0779584251968499
20
-3.6422488976377951
11
6.0780333464566931
21
-3.6426255511811023
0
LINE
8
BLACK
6
CONTINUOUS
10
6.0780333464566931
20
-3.6426255511811023
11
6.0780333464566931
21
-3.8079798818897639
0
LINE
8
BLACK
6
CONTINUOUS
10
6.0780333464566931
20
-3.8079798818897639
11
6.0779584251968499
21
-3.8083565354330706
0
LINE
8
BLACK
6
CONTINUOUS
10
6.0779584251968499
20
-3.8083565354330706
11
6.0774257480314962
21
-3.8088892125984253
0
LINE
8
BLACK
6
CONTINUOUS
10
6.0774257480314962
20
-3.8088892125984253
11
6.0770490944881885
21
-3.8089641338582676
0
LINE
8
BLACK
6
CONTINUOUS
10
6.0770490944881885
20
-3.8089641338582676
11
5.8250805905511811
21
-3.8089641338582676
0
LINE
8
BLACK
6
CONTINUOUS
10
5.8250805905511811
20
-3.8089641338582676
11
5.8247039370078735
21
-3.8088892125984253
0
LINE
8
BLACK
6
CONTINUOUS
10
5.8247039370078735
20
-3.8088892125984253
11
5.8241712598425197
21
-3.8083565354330706
0
LINE
8
BLACK
6
CONTINUOUS
10
5.8241712598425197
20
-3.8083565354330706
11
5.8240963385826774
21
-3.8079798818897639
0
LINE
8
BLACK
6
CONTINUOUS
10
5.8240963385826774
20
-3.8079798818897639
11
5.8240963385826774
21
-3.6426255511811023
0
LINE
8
BLACK
6
CONTINUOUS
10
5.8240963385826774
20
-3.6426255511811023
11
5.8241712598425197
21
-3.6422488976377951
0
LINE
8
BLACK
6
CONTINUOUS
10
5.8241712598425197
20
-3.6422488976377951
11
5.8247039370078735
21
-3.6417162204724409
0
LINE
8
BLACK
6
CONTINUOUS
10
5.8247039370078735
20
-3.6417162204724409
11
5.8250805905511811
21
-3.6416412992125982
0
LINE
8
BLACK
6
CONTINUOUS
10
5.8250805905511811
20
-3.6416412992125982
11
6.0770490944881885
21
-3.6416412992125982
0
LINE
8
BLACK
6
CONTINUOUS
10
6.0770490944881885
20
-3.6416412992125982
11
6.0774257480314962
21
-3.6417162204724409
0
LINE
8
BLACK
6
CONTINUOUS
10
5.8260648425196848
20
-3.643609803149606
11
5.8260648425196848
21
-3.8069956299212597
0
LINE
8
BLACK
6
CONTINUOUS
10
5.8260648425196848
20
-3.8069956299212597
11
6.0760648425196848
21
-3.8069956299212597
0
LINE
8
BLACK
6
CONTINUOUS
10
6.0760648425196848
20
-3.8069956299212597
11
6.0760648425196848
21
-3.643609803149606
0
LINE
8
BLACK
6
CONTINUOUS
10
6.0760648425196848
20
-3.643609803149606
11
5.8260648425196848
21
-3.643609803149606
0
CIRCLE
8
BLACK
10
6.2010648425196848
20
-4.5780586220472443
40
0.0068897637795276
0
CIRCLE
8
BLACK
10
6.2010648425196848
20
-4.4780586220472438
40
0.0068897637795276
0
CIRCLE
8
BLACK
10
6.4460648425196849
20
-4.6680586220472442
40
0.0068897637795276
0
CIRCLE
8
BLACK
10
6.4460648425196849
20
-4.5680586220472437
40
0.0068897637795276
0
CIRCLE
8
BLACK
10
6.3460648425196853
20
-4.6680586220472442
40
0.0068897637795276
0
CIRCLE
8
BLACK
10
6.3460648425196853
20
-4.5680586220472437
40
0.0068897637795276
0
CIRCLE
8
BLACK
10
4.9260648425196853
20
-3.678058622047244
40
0.0068897637795276
0
CIRCLE
8
BLACK
10
5.026064842519685
20
-3.678058622047244
40
0.0068897637795276
0
CIRCLE
8
BLACK
10
4.9260648425196853
20
-3.7780586220472441
40
0.0068897637795276
0
CIRCLE
8
BLACK
10
5.026064842519685
20
-3.7780586220472441
40
0.0068897637795276
0
CIRCLE
8
BLACK
10
4.9260648425196853
20
-3.8780586220472442
40
0.0068897637795276
0
CIRCLE
8
BLACK
10
5.026064842519685
20
-3.8780586220472442
40
0.0068897637795276
0
CIRCLE
8
BLACK
10
4.9260648425196853
20
-4.1930586220472437
40
0.0068897637795276
0
CIRCLE
8
BLACK
10
5.026064842519685
20
-4.1930586220472437
40
0.0068897637795276
0
CIRCLE
8
BLACK
10
4.9260648425196853
20
-4.2930586220472442
40
0.0068897637795276
0
CIRCLE
8
BLACK
10
5.026064842519685
20
-4.2930586220472442
40
0.0068897637795276
0
CIRCLE
8
BLACK
10
4.9260648425196853
20
-4.3930586220472438
40
0.0068897637795276
0
CIRCLE
8
BLACK
10
5.026064842519685
20
-4.3930586220472438
40
0.0068897637795276
0
CIRCLE
8
BLACK
10
5.8010648425196853
20
-4.5780586220472443
40
0.0068897637795276
0
CIRCLE
8
BLACK
10
5.8010648425196853
20
-4.4780586220472438
40
0.0068897637795276
0
CIRCLE
8
BLACK
10
5.6010648425196852
20
-4.4780586220472438
40
0.0068897637795276
0
CIRCLE
8
BLACK
10
5.6010648425196852
20
-4.5780586220472443
40
0.0068897637795276
0
CIRCLE
8
BLACK
10
5.5010648425196846
20
-4.5780586220472443
40
0.0068897637795276
0
CIRCLE
8
BLACK
10
5.5010648425196846
20
-4.4780586220472438
40
0.0068897637795276
0
CIRCLE
8
BLACK
10
5.401064842519685
20
-4.4780586220472438
40
0.0068897637795276
0
CIRCLE
8
BLACK
10
5.401064842519685
20
-4.5780586220472443
40
0.0068897637795276
0
CIRCLE
8
BLACK
10
5.3010648425196853
20
-4.4780586220472438
40
0.0068897637795276
0
CIRCLE
8
BLACK
10
5.3010648425196853
20
-4.5780586220472443
40
0.0068897637795276
0
CIRCLE
8
BLACK
10
5.901064842519685
20
-4.5780586220472443
40
0.0068897637795276
0
CIRCLE
8
BLACK
10
5.901064842519685
20
-4.4780586220472438
40
0.0068897637795276
0
CIRCLE
8
BLACK
10
6.1010648425196852
20
-4.5780586220472443
40
0.0068897637795276
0
CIRCLE
8
BLACK
10
6.1010648425196852
20
-4.4780586220472438
40
0.0068897637795276
0
CIRCLE
8
BLACK
10
6.0010648425196846
20
-4.5780586220472443
40
0.0068897637795276
0
CIRCLE
8
BLACK
10
6.0010648425196846
20
-4.4780586220472438
40
0.0068897637795276
0
CIRCLE
8
BLACK
10
5.026064842519685
20
-3.428058622047244
40
0.0068897637795276
0
CIRCLE
8
BLACK
10
7.026064842519685
20
-4.6280586220472442
40
0.0068897637795276
0
CIRCLE
8
BLACK
10
5.026064842519685
20
-4.6280586220472442
40
0.0068897637795276
0
CIRCLE
8
BLACK
10
7.026064842519685
20
-3.428058622047244
40
0.0068897637795276
0
CIRCLE
8
BLACK
10
7.026064842519685
20
-3.7780586220472441
40
0.0068897637795276
0
CIRCLE
8
BLACK
10
6.9260648425196845
20
-3.678058622047244
40
0.0068897637795276
0
CIRCLE
8
BLACK
10
6.9260648425196845
20
-3.8780586220472442
40
0.0068897637795276
0
CIRCLE
8
BLACK
10
7.1260648425196846
20
-3.678058622047244
40
0.0068897637795276
0
CIRCLE
8
BLACK
10
7.1260648425196846
20
-3.8780586220472442
40
0.0068897637795276
0
CIRCLE
8
BLACK
10
5.7010648425196848
20
-4.5780586220472443
40
0.0068897637795276
0
CIRCLE
8
BLACK
10
5.7010648425196848
20
-4.4780586220472438
40
0.0068897637795276
0
CIRCLE
8
BLACK
10
5.776064842519685
20
-3.428058622047244
40
0.0068897637795276
0
CIRCLE
8
BLACK
10
5.776064842519685
20
-3.3280586220472439
40
0.0068897637795276
0
CIRCLE
8
BLACK
10
5.6760648425196853
20
-3.428058622047244
40
0.0068897637795276
0
CIRCLE
8
BLACK
10
5.6760648425196853
20
-3.3280586220472439
40
0.0068897637795276
0
CIRCLE
8
BLACK
10
5.5760648425196848
20
-3.428058622047244
40
0.0068897637795276
0
CIRCLE
8
BLACK
10
5.5760648425196848
20
-3.3280586220472439
40
0.0068897637795276
0
CIRCLE
8
BLACK
10
5.8760648425196846
20
-3.428058622047244
40
0.0068897637795276
0
CIRCLE
8
BLACK
10
5.8760648425196846
20
-3.3280586220472439
40
0.0068897637795276
0
CIRCLE
8
BLACK
10
5.4760648425196852
20
-3.428058622047244
40
0.0068897637795276
0
CIRCLE
8
BLACK
10
5.4760648425196852
20
-3.3280586220472439
40
0.0068897637795276
0
CIRCLE
8
BLACK
10
5.9760648425196852
20
-3.428058622047244
40
0.0068897637795276
0
CIRCLE
8
BLACK
10
5.9760648425196852
20
-3.3280586220472439
40
0.0068897637795276
0
CIRCLE
8
BLACK
10
5.3760648425196846
20
-3.428058622047244
40
0.0068897637795276
0
CIRCLE
8
BLACK
10
5.3760648425196846
20
-3.3280586220472439
40
0.0068897637795276
0
CIRCLE
8
BLACK
10
5.276064842519685
20
-3.428058622047244
40
0.0068897637795276
0
CIRCLE
8
BLACK
10
5.276064842519685
20
-3.3280586220472439
40
0.0068897637795276
0
CIRCLE
8
BLACK
10
6.0760648425196848
20
-3.428058622047244
40
0.0068897637795276
0
CIRCLE
8
BLACK
10
6.0760648425196848
20
-3.3280586220472439
40
0.0068897637795276
0
CIRCLE
8
BLACK
10
7.026064842519685
20
-4.2030586220472443
40
0.0068897637795276
0
CIRCLE
8
BLACK
10
6.9260648425196845
20
-4.1030586220472438
40
0.0068897637795276
0
CIRCLE
8
BLACK
10
6.9260648425196845
20
-4.303058622047244
40
0.0068897637795276
0
CIRCLE
8
BLACK
10
7.1260648425196846
20
-4.1030586220472438
40
0.0068897637795276
0
CIRCLE
8
BLACK
10
7.1260648425196846
20
-4.303058622047244
40
0.0068897637795276
0
CIRCLE
8
BLACK
10
6.5960648425196853
20
-4.6580586220472444
40
0.0068897637795276
0
CIRCLE
8
BLACK
10
6.736064842519685
20
-4.6580586220472444
40
0.0068897637795276
0
CIRCLE
8
BLACK
10
5.9719309842519683
20
-3.9420349999999997
40
0.0039370078740157
0
CIRCLE
8
BLACK
10
5.9246868897637794
20
-3.9420349999999997
40
0.0039370078740157
0
CIRCLE
8
BLACK
10
5.8774427952755905
20
-3.9420349999999997
40
0.0039370078740157
0
CIRCLE
8
BLACK
10
5.8301987007874017
20
-3.9420349999999997
40
0.0039370078740157
0
CIRCLE
8
BLACK
10
5.9719309842519683
20
-4.0030586220472442
40
0.0039370078740157
0
CIRCLE
8
BLACK
10
5.9246868897637794
20
-4.0030586220472442
40
0.0039370078740157
0
CIRCLE
8
BLACK
10
5.8774427952755905
20
-4.0030586220472442
40
0.0039370078740157
0
CIRCLE
8
BLACK
10
5.8301987007874017
20
-4.0030586220472442
40
0.0039370078740157
0
CIRCLE
8
BLACK
10
5.9719309842519683
20
-4.0640822440944877
40
0.0039370078740157
0
CIRCLE
8
BLACK
10
5.9246868897637794
20
-4.0640822440944877
40
0.0039370078740157
0
CIRCLE
8
BLACK
10
5.8774427952755905
20
-4.0640822440944877
40
0.0039370078740157
0
CIRCLE
8
BLACK
10
5.8301987007874017
20
-4.0640822440944877
40
0.0039370078740157
  0
ENDSEC
  0
EOF
