  0
SECTION
  2
HEADER
  9
$ANGBASE
  50
0.0
  9
$ANGDIR
  70
1
  9
$MEASUREMENT
  70
0
  0
ENDSEC
  0
SECTION
  2
TABLES
  0
TABLE
  2
LTYPE
  70
4
  0
LTYPE
  5
40F
  2
CONTINUOUS
  70
0
  3
Solid line
  72
65
  73
0
  40
0.0
  0
LTYPE
  5
410
  2
DASHDOT
 70
0
  3
Dash Dot ____ _ ____ _
 72
65
 73
4
 40
2.0
 49
1.25
 49
-0.25
 49
0.25
 49
-0.25
  0
LTYPE
  5
411
  2
DASHED
 70
0
  3
Dashed __ __ __ __ __
 72
65
 73
2
 40
0.75
 49
0.5
 49
-0.25
  0
LTYPE
  5
43B
  2
DOTTED
 70
0
  3
Dotted .  .  .  .
 72
65
 73
2
 40
0.2
 49
0.0
 49
-0.2
  0
ENDTAB
  0
TABLE
  2
STYLE
  70
4
  0
STYLE
  2
KICAD
  70
0
  40
0
  41
1
  42
1
  50
0
  71
0
  3
isocp.shx
  0
STYLE
  2
KICADB
  70
0
  40
0
  41
1
  42
1
  50
0
  71
0
  3
isocp.shx
  0
STYLE
  2
KICADI
  70
0
  40
0
  41
1
  42
1
  50
15
  71
0
  3
isocp.shx
  0
STYLE
  2
KICADBI
  70
0
  40
0
  41
1
  42
1
  50
15
  71
0
  3
isocp.shx
  0
ENDTAB
  0
TABLE
  2
LAYER
  70
1
  0
LAYER
  2
BLACK
  70
0
  62
7
  6
CONTINUOUS
  0
ENDTAB
  0
ENDSEC
  0
SECTION
  2
ENTITIES
0
LINE
8
BLACK
6
CONTINUOUS
10
1.2025
20
0.045
11
1.1475
21
0.045
0
LINE
8
BLACK
6
CONTINUOUS
10
1.1475
20
0.045
11
1.1475
21
0.08
0
LINE
8
BLACK
6
CONTINUOUS
10
1.1475
20
0.08
11
1.2025
21
0.08
0
LINE
8
BLACK
6
CONTINUOUS
10
1.2025
20
0.08
11
1.2025
21
0.045
0
LINE
8
BLACK
6
CONTINUOUS
10
1.3025
20
0.045
11
1.2475
21
0.045
0
LINE
8
BLACK
6
CONTINUOUS
10
1.2475
20
0.045
11
1.2475
21
0.08
0
LINE
8
BLACK
6
CONTINUOUS
10
1.2475
20
0.08
11
1.3025
21
0.08
0
LINE
8
BLACK
6
CONTINUOUS
10
1.3025
20
0.08
11
1.3025
21
0.045
0
LINE
8
BLACK
6
CONTINUOUS
10
0.7025
20
0.045
11
0.6475
21
0.045
0
LINE
8
BLACK
6
CONTINUOUS
10
0.6475
20
0.045
11
0.6475
21
0.08
0
LINE
8
BLACK
6
CONTINUOUS
10
0.6475
20
0.08
11
0.7025
21
0.08
0
LINE
8
BLACK
6
CONTINUOUS
10
0.7025
20
0.08
11
0.7025
21
0.045
0
LINE
8
BLACK
6
CONTINUOUS
10
0.8025
20
0.045
11
0.7475
21
0.045
0
LINE
8
BLACK
6
CONTINUOUS
10
0.7475
20
0.045
11
0.7475
21
0.08
0
LINE
8
BLACK
6
CONTINUOUS
10
0.7475
20
0.08
11
0.8025
21
0.08
0
LINE
8
BLACK
6
CONTINUOUS
10
0.8025
20
0.08
11
0.8025
21
0.045
0
LINE
8
BLACK
6
CONTINUOUS
10
1.93953
20
0.0696063
11
1.88047
21
0.0696063
0
LINE
8
BLACK
6
CONTINUOUS
10
1.88047
20
0.0696063
11
1.88047
21
0.107008
0
LINE
8
BLACK
6
CONTINUOUS
10
1.88047
20
0.107008
11
1.93953
21
0.107008
0
LINE
8
BLACK
6
CONTINUOUS
10
1.93953
20
0.107008
11
1.93953
21
0.0696063
0
LINE
8
BLACK
6
CONTINUOUS
10
1.79953
20
0.0696063
11
1.74047
21
0.0696063
0
LINE
8
BLACK
6
CONTINUOUS
10
1.74047
20
0.0696063
11
1.74047
21
0.107008
0
LINE
8
BLACK
6
CONTINUOUS
10
1.74047
20
0.107008
11
1.79953
21
0.107008
0
LINE
8
BLACK
6
CONTINUOUS
10
1.79953
20
0.107008
11
1.79953
21
0.0696063
0
LINE
8
BLACK
6
CONTINUOUS
10
1.2025
20
0.12
11
1.1475
21
0.12
0
LINE
8
BLACK
6
CONTINUOUS
10
1.1475
20
0.12
11
1.1475
21
0.155
0
LINE
8
BLACK
6
CONTINUOUS
10
1.1475
20
0.155
11
1.2025
21
0.155
0
LINE
8
BLACK
6
CONTINUOUS
10
1.2025
20
0.155
11
1.2025
21
0.12
0
LINE
8
BLACK
6
CONTINUOUS
10
0.7025
20
0.12
11
0.6475
21
0.12
0
LINE
8
BLACK
6
CONTINUOUS
10
0.6475
20
0.12
11
0.6475
21
0.155
0
LINE
8
BLACK
6
CONTINUOUS
10
0.6475
20
0.155
11
0.7025
21
0.155
0
LINE
8
BLACK
6
CONTINUOUS
10
0.7025
20
0.155
11
0.7025
21
0.12
0
LINE
8
BLACK
6
CONTINUOUS
10
1.3025
20
0.12
11
1.2475
21
0.12
0
LINE
8
BLACK
6
CONTINUOUS
10
1.2475
20
0.12
11
1.2475
21
0.155
0
LINE
8
BLACK
6
CONTINUOUS
10
1.2475
20
0.155
11
1.3025
21
0.155
0
LINE
8
BLACK
6
CONTINUOUS
10
1.3025
20
0.155
11
1.3025
21
0.12
0
LINE
8
BLACK
6
CONTINUOUS
10
0.8025
20
0.12
11
0.7475
21
0.12
0
LINE
8
BLACK
6
CONTINUOUS
10
0.7475
20
0.12
11
0.7475
21
0.155
0
LINE
8
BLACK
6
CONTINUOUS
10
0.7475
20
0.155
11
0.8025
21
0.155
0
LINE
8
BLACK
6
CONTINUOUS
10
0.8025
20
0.155
11
0.8025
21
0.12
0
LINE
8
BLACK
6
CONTINUOUS
10
1.79953
20
0.232992
11
1.74047
21
0.232992
0
LINE
8
BLACK
6
CONTINUOUS
10
1.74047
20
0.232992
11
1.74047
21
0.270394
0
LINE
8
BLACK
6
CONTINUOUS
10
1.74047
20
0.270394
11
1.79953
21
0.270394
0
LINE
8
BLACK
6
CONTINUOUS
10
1.79953
20
0.270394
11
1.79953
21
0.232992
0
LINE
8
BLACK
6
CONTINUOUS
10
1.93953
20
0.232992
11
1.88047
21
0.232992
0
LINE
8
BLACK
6
CONTINUOUS
10
1.88047
20
0.232992
11
1.88047
21
0.270394
0
LINE
8
BLACK
6
CONTINUOUS
10
1.88047
20
0.270394
11
1.93953
21
0.270394
0
LINE
8
BLACK
6
CONTINUOUS
10
1.93953
20
0.270394
11
1.93953
21
0.232992
0
LINE
8
BLACK
6
CONTINUOUS
10
1.9375
20
0.305
11
1.8825
21
0.305
0
LINE
8
BLACK
6
CONTINUOUS
10
1.8825
20
0.305
11
1.8825
21
0.34
0
LINE
8
BLACK
6
CONTINUOUS
10
1.8825
20
0.34
11
1.9375
21
0.34
0
LINE
8
BLACK
6
CONTINUOUS
10
1.9375
20
0.34
11
1.9375
21
0.305
0
LINE
8
BLACK
6
CONTINUOUS
10
1.7975
20
0.3075
11
1.7425
21
0.3075
0
LINE
8
BLACK
6
CONTINUOUS
10
1.7425
20
0.3075
11
1.7425
21
0.3425
0
LINE
8
BLACK
6
CONTINUOUS
10
1.7425
20
0.3425
11
1.7975
21
0.3425
0
LINE
8
BLACK
6
CONTINUOUS
10
1.7975
20
0.3425
11
1.7975
21
0.3075
0
LINE
8
BLACK
6
CONTINUOUS
10
1.9375
20
0.38
11
1.8825
21
0.38
0
LINE
8
BLACK
6
CONTINUOUS
10
1.8825
20
0.38
11
1.8825
21
0.415
0
LINE
8
BLACK
6
CONTINUOUS
10
1.8825
20
0.415
11
1.9375
21
0.415
0
LINE
8
BLACK
6
CONTINUOUS
10
1.9375
20
0.415
11
1.9375
21
0.38
0
LINE
8
BLACK
6
CONTINUOUS
10
1.7975
20
0.3825
11
1.7425
21
0.3825
0
LINE
8
BLACK
6
CONTINUOUS
10
1.7425
20
0.3825
11
1.7425
21
0.4175
0
LINE
8
BLACK
6
CONTINUOUS
10
1.7425
20
0.4175
11
1.7975
21
0.4175
0
LINE
8
BLACK
6
CONTINUOUS
10
1.7975
20
0.4175
11
1.7975
21
0.3825
0
LINE
8
BLACK
6
CONTINUOUS
10
1.61953
20
0.38811
11
1.56047
21
0.38811
0
LINE
8
BLACK
6
CONTINUOUS
10
1.56047
20
0.38811
11
1.56047
21
0.439291
0
LINE
8
BLACK
6
CONTINUOUS
10
1.56047
20
0.439291
11
1.61953
21
0.439291
0
LINE
8
BLACK
6
CONTINUOUS
10
1.61953
20
0.439291
11
1.61953
21
0.38811
0
LINE
8
BLACK
6
CONTINUOUS
10
1.1025
20
0.42
11
1.0475
21
0.42
0
LINE
8
BLACK
6
CONTINUOUS
10
1.0475
20
0.42
11
1.0475
21
0.455
0
LINE
8
BLACK
6
CONTINUOUS
10
1.0475
20
0.455
11
1.1025
21
0.455
0
LINE
8
BLACK
6
CONTINUOUS
10
1.1025
20
0.455
11
1.1025
21
0.42
0
LINE
8
BLACK
6
CONTINUOUS
10
1.0025
20
0.42
11
0.9475
21
0.42
0
LINE
8
BLACK
6
CONTINUOUS
10
0.9475
20
0.42
11
0.9475
21
0.455
0
LINE
8
BLACK
6
CONTINUOUS
10
0.9475
20
0.455
11
1.0025
21
0.455
0
LINE
8
BLACK
6
CONTINUOUS
10
1.0025
20
0.455
11
1.0025
21
0.42
0
LINE
8
BLACK
6
CONTINUOUS
10
0.8025
20
0.42
11
0.7475
21
0.42
0
LINE
8
BLACK
6
CONTINUOUS
10
0.7475
20
0.42
11
0.7475
21
0.455
0
LINE
8
BLACK
6
CONTINUOUS
10
0.7475
20
0.455
11
0.8025
21
0.455
0
LINE
8
BLACK
6
CONTINUOUS
10
0.8025
20
0.455
11
0.8025
21
0.42
0
LINE
8
BLACK
6
CONTINUOUS
10
0.7025
20
0.42
11
0.6475
21
0.42
0
LINE
8
BLACK
6
CONTINUOUS
10
0.6475
20
0.42
11
0.6475
21
0.455
0
LINE
8
BLACK
6
CONTINUOUS
10
0.6475
20
0.455
11
0.7025
21
0.455
0
LINE
8
BLACK
6
CONTINUOUS
10
0.7025
20
0.455
11
0.7025
21
0.42
0
LINE
8
BLACK
6
CONTINUOUS
10
0.6025
20
0.42
11
0.5475
21
0.42
0
LINE
8
BLACK
6
CONTINUOUS
10
0.5475
20
0.42
11
0.5475
21
0.455
0
LINE
8
BLACK
6
CONTINUOUS
10
0.5475
20
0.455
11
0.6025
21
0.455
0
LINE
8
BLACK
6
CONTINUOUS
10
0.6025
20
0.455
11
0.6025
21
0.42
0
LINE
8
BLACK
6
CONTINUOUS
10
0.5025
20
0.42
11
0.4475
21
0.42
0
LINE
8
BLACK
6
CONTINUOUS
10
0.4475
20
0.42
11
0.4475
21
0.455
0
LINE
8
BLACK
6
CONTINUOUS
10
0.4475
20
0.455
11
0.5025
21
0.455
0
LINE
8
BLACK
6
CONTINUOUS
10
0.5025
20
0.455
11
0.5025
21
0.42
0
LINE
8
BLACK
6
CONTINUOUS
10
1.2025
20
0.42
11
1.1475
21
0.42
0
LINE
8
BLACK
6
CONTINUOUS
10
1.1475
20
0.42
11
1.1475
21
0.455
0
LINE
8
BLACK
6
CONTINUOUS
10
1.1475
20
0.455
11
1.2025
21
0.455
0
LINE
8
BLACK
6
CONTINUOUS
10
1.2025
20
0.455
11
1.2025
21
0.42
0
LINE
8
BLACK
6
CONTINUOUS
10
1.4025
20
0.42
11
1.3475
21
0.42
0
LINE
8
BLACK
6
CONTINUOUS
10
1.3475
20
0.42
11
1.3475
21
0.455
0
LINE
8
BLACK
6
CONTINUOUS
10
1.3475
20
0.455
11
1.4025
21
0.455
0
LINE
8
BLACK
6
CONTINUOUS
10
1.4025
20
0.455
11
1.4025
21
0.42
0
LINE
8
BLACK
6
CONTINUOUS
10
1.3025
20
0.42
11
1.2475
21
0.42
0
LINE
8
BLACK
6
CONTINUOUS
10
1.2475
20
0.42
11
1.2475
21
0.455
0
LINE
8
BLACK
6
CONTINUOUS
10
1.2475
20
0.455
11
1.3025
21
0.455
0
LINE
8
BLACK
6
CONTINUOUS
10
1.3025
20
0.455
11
1.3025
21
0.42
0
LINE
8
BLACK
6
CONTINUOUS
10
1.5025
20
0.445
11
1.4475
21
0.445
0
LINE
8
BLACK
6
CONTINUOUS
10
1.4475
20
0.445
11
1.4475
21
0.48
0
LINE
8
BLACK
6
CONTINUOUS
10
1.4475
20
0.48
11
1.5025
21
0.48
0
LINE
8
BLACK
6
CONTINUOUS
10
1.5025
20
0.48
11
1.5025
21
0.445
0
LINE
8
BLACK
6
CONTINUOUS
10
1.64906
20
0.453071
11
1.53094
21
0.453071
0
LINE
8
BLACK
6
CONTINUOUS
10
1.53094
20
0.453071
11
1.53094
21
0.48063
0
LINE
8
BLACK
6
CONTINUOUS
10
1.53094
20
0.48063
11
1.64906
21
0.48063
0
LINE
8
BLACK
6
CONTINUOUS
10
1.64906
20
0.48063
11
1.64906
21
0.453071
0
LINE
8
BLACK
6
CONTINUOUS
10
1.86835
20
0.45685
11
1.83291
21
0.45685
0
LINE
8
BLACK
6
CONTINUOUS
10
1.83291
20
0.45685
11
1.83291
21
0.488346
0
LINE
8
BLACK
6
CONTINUOUS
10
1.83291
20
0.488346
11
1.86835
21
0.488346
0
LINE
8
BLACK
6
CONTINUOUS
10
1.86835
20
0.488346
11
1.86835
21
0.45685
0
LINE
8
BLACK
6
CONTINUOUS
10
1.71835
20
0.45685
11
1.68291
21
0.45685
0
LINE
8
BLACK
6
CONTINUOUS
10
1.68291
20
0.45685
11
1.68291
21
0.488346
0
LINE
8
BLACK
6
CONTINUOUS
10
1.68291
20
0.488346
11
1.71835
21
0.488346
0
LINE
8
BLACK
6
CONTINUOUS
10
1.71835
20
0.488346
11
1.71835
21
0.45685
0
LINE
8
BLACK
6
CONTINUOUS
10
1.79709
20
0.494252
11
1.76165
21
0.494252
0
LINE
8
BLACK
6
CONTINUOUS
10
1.76165
20
0.494252
11
1.76165
21
0.525748
0
LINE
8
BLACK
6
CONTINUOUS
10
1.76165
20
0.525748
11
1.79709
21
0.525748
0
LINE
8
BLACK
6
CONTINUOUS
10
1.79709
20
0.525748
11
1.79709
21
0.494252
0
LINE
8
BLACK
6
CONTINUOUS
10
1.94709
20
0.494252
11
1.91165
21
0.494252
0
LINE
8
BLACK
6
CONTINUOUS
10
1.91165
20
0.494252
11
1.91165
21
0.525748
0
LINE
8
BLACK
6
CONTINUOUS
10
1.91165
20
0.525748
11
1.94709
21
0.525748
0
LINE
8
BLACK
6
CONTINUOUS
10
1.94709
20
0.525748
11
1.94709
21
0.494252
0
LINE
8
BLACK
6
CONTINUOUS
10
1.61953
20
0.494409
11
1.56047
21
0.494409
0
LINE
8
BLACK
6
CONTINUOUS
10
1.56047
20
0.494409
11
1.56047
21
0.545591
0
LINE
8
BLACK
6
CONTINUOUS
10
1.56047
20
0.545591
11
1.61953
21
0.545591
0
LINE
8
BLACK
6
CONTINUOUS
10
1.61953
20
0.545591
11
1.61953
21
0.494409
0
LINE
8
BLACK
6
CONTINUOUS
10
1.1025
20
0.495
11
1.0475
21
0.495
0
LINE
8
BLACK
6
CONTINUOUS
10
1.0475
20
0.495
11
1.0475
21
0.53
0
LINE
8
BLACK
6
CONTINUOUS
10
1.0475
20
0.53
11
1.1025
21
0.53
0
LINE
8
BLACK
6
CONTINUOUS
10
1.1025
20
0.53
11
1.1025
21
0.495
0
LINE
8
BLACK
6
CONTINUOUS
10
0.6025
20
0.495
11
0.5475
21
0.495
0
LINE
8
BLACK
6
CONTINUOUS
10
0.5475
20
0.495
11
0.5475
21
0.53
0
LINE
8
BLACK
6
CONTINUOUS
10
0.5475
20
0.53
11
0.6025
21
0.53
0
LINE
8
BLACK
6
CONTINUOUS
10
0.6025
20
0.53
11
0.6025
21
0.495
0
LINE
8
BLACK
6
CONTINUOUS
10
1.3025
20
0.495
11
1.2475
21
0.495
0
LINE
8
BLACK
6
CONTINUOUS
10
1.2475
20
0.495
11
1.2475
21
0.53
0
LINE
8
BLACK
6
CONTINUOUS
10
1.2475
20
0.53
11
1.3025
21
0.53
0
LINE
8
BLACK
6
CONTINUOUS
10
1.3025
20
0.53
11
1.3025
21
0.495
0
LINE
8
BLACK
6
CONTINUOUS
10
1.4025
20
0.495
11
1.3475
21
0.495
0
LINE
8
BLACK
6
CONTINUOUS
10
1.3475
20
0.495
11
1.3475
21
0.53
0
LINE
8
BLACK
6
CONTINUOUS
10
1.3475
20
0.53
11
1.4025
21
0.53
0
LINE
8
BLACK
6
CONTINUOUS
10
1.4025
20
0.53
11
1.4025
21
0.495
0
LINE
8
BLACK
6
CONTINUOUS
10
1.0025
20
0.495
11
0.9475
21
0.495
0
LINE
8
BLACK
6
CONTINUOUS
10
0.9475
20
0.495
11
0.9475
21
0.53
0
LINE
8
BLACK
6
CONTINUOUS
10
0.9475
20
0.53
11
1.0025
21
0.53
0
LINE
8
BLACK
6
CONTINUOUS
10
1.0025
20
0.53
11
1.0025
21
0.495
0
LINE
8
BLACK
6
CONTINUOUS
10
0.8025
20
0.495
11
0.7475
21
0.495
0
LINE
8
BLACK
6
CONTINUOUS
10
0.7475
20
0.495
11
0.7475
21
0.53
0
LINE
8
BLACK
6
CONTINUOUS
10
0.7475
20
0.53
11
0.8025
21
0.53
0
LINE
8
BLACK
6
CONTINUOUS
10
0.8025
20
0.53
11
0.8025
21
0.495
0
LINE
8
BLACK
6
CONTINUOUS
10
0.5025
20
0.495
11
0.4475
21
0.495
0
LINE
8
BLACK
6
CONTINUOUS
10
0.4475
20
0.495
11
0.4475
21
0.53
0
LINE
8
BLACK
6
CONTINUOUS
10
0.4475
20
0.53
11
0.5025
21
0.53
0
LINE
8
BLACK
6
CONTINUOUS
10
0.5025
20
0.53
11
0.5025
21
0.495
0
LINE
8
BLACK
6
CONTINUOUS
10
0.7025
20
0.495
11
0.6475
21
0.495
0
LINE
8
BLACK
6
CONTINUOUS
10
0.6475
20
0.495
11
0.6475
21
0.53
0
LINE
8
BLACK
6
CONTINUOUS
10
0.6475
20
0.53
11
0.7025
21
0.53
0
LINE
8
BLACK
6
CONTINUOUS
10
0.7025
20
0.53
11
0.7025
21
0.495
0
LINE
8
BLACK
6
CONTINUOUS
10
1.2025
20
0.495
11
1.1475
21
0.495
0
LINE
8
BLACK
6
CONTINUOUS
10
1.1475
20
0.495
11
1.1475
21
0.53
0
LINE
8
BLACK
6
CONTINUOUS
10
1.1475
20
0.53
11
1.2025
21
0.53
0
LINE
8
BLACK
6
CONTINUOUS
10
1.2025
20
0.53
11
1.2025
21
0.495
0
LINE
8
BLACK
6
CONTINUOUS
10
1.5025
20
0.52
11
1.4475
21
0.52
0
LINE
8
BLACK
6
CONTINUOUS
10
1.4475
20
0.52
11
1.4475
21
0.555
0
LINE
8
BLACK
6
CONTINUOUS
10
1.4475
20
0.555
11
1.5025
21
0.555
0
LINE
8
BLACK
6
CONTINUOUS
10
1.5025
20
0.555
11
1.5025
21
0.52
0
LINE
8
BLACK
6
CONTINUOUS
10
1.86835
20
0.531654
11
1.83291
21
0.531654
0
LINE
8
BLACK
6
CONTINUOUS
10
1.83291
20
0.531654
11
1.83291
21
0.56315
0
LINE
8
BLACK
6
CONTINUOUS
10
1.83291
20
0.56315
11
1.86835
21
0.56315
0
LINE
8
BLACK
6
CONTINUOUS
10
1.86835
20
0.56315
11
1.86835
21
0.531654
0
LINE
8
BLACK
6
CONTINUOUS
10
1.71835
20
0.531654
11
1.68291
21
0.531654
0
LINE
8
BLACK
6
CONTINUOUS
10
1.68291
20
0.531654
11
1.68291
21
0.56315
0
LINE
8
BLACK
6
CONTINUOUS
10
1.68291
20
0.56315
11
1.71835
21
0.56315
0
LINE
8
BLACK
6
CONTINUOUS
10
1.71835
20
0.56315
11
1.71835
21
0.531654
0
LINE
8
BLACK
6
CONTINUOUS
10
1.0125
20
0.5625
11
0.9775
21
0.5625
0
LINE
8
BLACK
6
CONTINUOUS
10
0.9775
20
0.5625
11
0.9775
21
0.6175
0
LINE
8
BLACK
6
CONTINUOUS
10
0.9775
20
0.6175
11
1.0125
21
0.6175
0
LINE
8
BLACK
6
CONTINUOUS
10
1.0125
20
0.6175
11
1.0125
21
0.5625
0
LINE
8
BLACK
6
CONTINUOUS
10
1.0875
20
0.5625
11
1.0525
21
0.5625
0
LINE
8
BLACK
6
CONTINUOUS
10
1.0525
20
0.5625
11
1.0525
21
0.6175
0
LINE
8
BLACK
6
CONTINUOUS
10
1.0525
20
0.6175
11
1.0875
21
0.6175
0
LINE
8
BLACK
6
CONTINUOUS
10
1.0875
20
0.6175
11
1.0875
21
0.5625
0
LINE
8
BLACK
6
CONTINUOUS
10
1.4175
20
0.57
11
1.3625
21
0.57
0
LINE
8
BLACK
6
CONTINUOUS
10
1.3625
20
0.57
11
1.3625
21
0.605
0
LINE
8
BLACK
6
CONTINUOUS
10
1.3625
20
0.605
11
1.4175
21
0.605
0
LINE
8
BLACK
6
CONTINUOUS
10
1.4175
20
0.605
11
1.4175
21
0.57
0
LINE
8
BLACK
6
CONTINUOUS
10
1.3375
20
0.57
11
1.2825
21
0.57
0
LINE
8
BLACK
6
CONTINUOUS
10
1.2825
20
0.57
11
1.2825
21
0.605
0
LINE
8
BLACK
6
CONTINUOUS
10
1.2825
20
0.605
11
1.3375
21
0.605
0
LINE
8
BLACK
6
CONTINUOUS
10
1.3375
20
0.605
11
1.3375
21
0.57
0
LINE
8
BLACK
6
CONTINUOUS
10
1.2575
20
0.5725
11
1.2025
21
0.5725
0
LINE
8
BLACK
6
CONTINUOUS
10
1.2025
20
0.5725
11
1.2025
21
0.6075
0
LINE
8
BLACK
6
CONTINUOUS
10
1.2025
20
0.6075
11
1.2575
21
0.6075
0
LINE
8
BLACK
6
CONTINUOUS
10
1.2575
20
0.6075
11
1.2575
21
0.5725
0
LINE
8
BLACK
6
CONTINUOUS
10
1.6075
20
0.6025
11
1.5725
21
0.6025
0
LINE
8
BLACK
6
CONTINUOUS
10
1.5725
20
0.6025
11
1.5725
21
0.6575
0
LINE
8
BLACK
6
CONTINUOUS
10
1.5725
20
0.6575
11
1.6075
21
0.6575
0
LINE
8
BLACK
6
CONTINUOUS
10
1.6075
20
0.6575
11
1.6075
21
0.6025
0
LINE
8
BLACK
6
CONTINUOUS
10
1.5325
20
0.6025
11
1.4975
21
0.6025
0
LINE
8
BLACK
6
CONTINUOUS
10
1.4975
20
0.6025
11
1.4975
21
0.6575
0
LINE
8
BLACK
6
CONTINUOUS
10
1.4975
20
0.6575
11
1.5325
21
0.6575
0
LINE
8
BLACK
6
CONTINUOUS
10
1.5325
20
0.6575
11
1.5325
21
0.6025
0
LINE
8
BLACK
6
CONTINUOUS
10
1.3375
20
0.645
11
1.2825
21
0.645
0
LINE
8
BLACK
6
CONTINUOUS
10
1.2825
20
0.645
11
1.2825
21
0.68
0
LINE
8
BLACK
6
CONTINUOUS
10
1.2825
20
0.68
11
1.3375
21
0.68
0
LINE
8
BLACK
6
CONTINUOUS
10
1.3375
20
0.68
11
1.3375
21
0.645
0
LINE
8
BLACK
6
CONTINUOUS
10
1.4175
20
0.645
11
1.3625
21
0.645
0
LINE
8
BLACK
6
CONTINUOUS
10
1.3625
20
0.645
11
1.3625
21
0.68
0
LINE
8
BLACK
6
CONTINUOUS
10
1.3625
20
0.68
11
1.4175
21
0.68
0
LINE
8
BLACK
6
CONTINUOUS
10
1.4175
20
0.68
11
1.4175
21
0.645
0
LINE
8
BLACK
6
CONTINUOUS
10
1.2575
20
0.6475
11
1.2025
21
0.6475
0
LINE
8
BLACK
6
CONTINUOUS
10
1.2025
20
0.6475
11
1.2025
21
0.6825
0
LINE
8
BLACK
6
CONTINUOUS
10
1.2025
20
0.6825
11
1.2575
21
0.6825
0
LINE
8
BLACK
6
CONTINUOUS
10
1.2575
20
0.6825
11
1.2575
21
0.6475
0
LINE
8
BLACK
6
CONTINUOUS
10
0.385
20
0.665
11
0.305
21
0.665
0
LINE
8
BLACK
6
CONTINUOUS
10
0.305
20
0.665
11
0.305
21
0.705
0
LINE
8
BLACK
6
CONTINUOUS
10
0.305
20
0.705
11
0.385
21
0.705
0
LINE
8
BLACK
6
CONTINUOUS
10
0.385
20
0.705
11
0.385
21
0.665
0
LINE
8
BLACK
6
CONTINUOUS
10
0.645
20
0.703
11
0.565
21
0.703
0
LINE
8
BLACK
6
CONTINUOUS
10
0.565
20
0.703
11
0.565
21
0.847
0
LINE
8
BLACK
6
CONTINUOUS
10
0.565
20
0.847
11
0.645
21
0.847
0
LINE
8
BLACK
6
CONTINUOUS
10
0.645
20
0.847
11
0.645
21
0.703
0
LINE
8
BLACK
6
CONTINUOUS
10
1.08824
20
0.745088
11
1.08904
21
0.744555
0
LINE
8
BLACK
6
CONTINUOUS
10
1.08904
20
0.744555
11
1.08958
21
0.743757
0
LINE
8
BLACK
6
CONTINUOUS
10
1.08958
20
0.743757
11
1.08976
21
0.742815
0
LINE
8
BLACK
6
CONTINUOUS
10
1.08976
20
0.742815
11
1.08976
21
0.714272
0
LINE
8
BLACK
6
CONTINUOUS
10
1.08976
20
0.714272
11
1.08958
21
0.71333
0
LINE
8
BLACK
6
CONTINUOUS
10
1.08958
20
0.71333
11
1.08904
21
0.712532
0
LINE
8
BLACK
6
CONTINUOUS
10
1.08904
20
0.712532
11
1.08824
21
0.711998
0
LINE
8
BLACK
6
CONTINUOUS
10
1.08824
20
0.711998
11
1.0873
21
0.711811
0
LINE
8
BLACK
6
CONTINUOUS
10
1.0873
20
0.711811
11
1.08238
21
0.711811
0
LINE
8
BLACK
6
CONTINUOUS
10
1.08238
20
0.711811
11
1.08144
21
0.711998
0
LINE
8
BLACK
6
CONTINUOUS
10
1.08144
20
0.711998
11
1.08064
21
0.712532
0
LINE
8
BLACK
6
CONTINUOUS
10
1.08064
20
0.712532
11
1.08011
21
0.71333
0
LINE
8
BLACK
6
CONTINUOUS
10
1.08011
20
0.71333
11
1.07992
21
0.714272
0
LINE
8
BLACK
6
CONTINUOUS
10
1.07992
20
0.714272
11
1.07992
21
0.742815
0
LINE
8
BLACK
6
CONTINUOUS
10
1.07992
20
0.742815
11
1.08011
21
0.743757
0
LINE
8
BLACK
6
CONTINUOUS
10
1.08011
20
0.743757
11
1.08064
21
0.744555
0
LINE
8
BLACK
6
CONTINUOUS
10
1.08064
20
0.744555
11
1.08144
21
0.745088
0
LINE
8
BLACK
6
CONTINUOUS
10
1.08144
20
0.745088
11
1.08238
21
0.745276
0
LINE
8
BLACK
6
CONTINUOUS
10
1.08238
20
0.745276
11
1.0873
21
0.745276
0
LINE
8
BLACK
6
CONTINUOUS
10
1.0873
20
0.745276
11
1.08824
21
0.745088
0
LINE
8
BLACK
6
CONTINUOUS
10
0.98982
20
0.745088
11
0.990618
21
0.744555
0
LINE
8
BLACK
6
CONTINUOUS
10
0.990618
20
0.744555
11
0.991151
21
0.743757
0
LINE
8
BLACK
6
CONTINUOUS
10
0.991151
20
0.743757
11
0.991339
21
0.742815
0
LINE
8
BLACK
6
CONTINUOUS
10
0.991339
20
0.742815
11
0.991339
21
0.714272
0
LINE
8
BLACK
6
CONTINUOUS
10
0.991339
20
0.714272
11
0.991151
21
0.71333
0
LINE
8
BLACK
6
CONTINUOUS
10
0.991151
20
0.71333
11
0.990618
21
0.712532
0
LINE
8
BLACK
6
CONTINUOUS
10
0.990618
20
0.712532
11
0.98982
21
0.711998
0
LINE
8
BLACK
6
CONTINUOUS
10
0.98982
20
0.711998
11
0.988878
21
0.711811
0
LINE
8
BLACK
6
CONTINUOUS
10
0.988878
20
0.711811
11
0.983957
21
0.711811
0
LINE
8
BLACK
6
CONTINUOUS
10
0.983957
20
0.711811
11
0.983015
21
0.711998
0
LINE
8
BLACK
6
CONTINUOUS
10
0.983015
20
0.711998
11
0.982217
21
0.712532
0
LINE
8
BLACK
6
CONTINUOUS
10
0.982217
20
0.712532
11
0.981683
21
0.71333
0
LINE
8
BLACK
6
CONTINUOUS
10
0.981683
20
0.71333
11
0.981496
21
0.714272
0
LINE
8
BLACK
6
CONTINUOUS
10
0.981496
20
0.714272
11
0.981496
21
0.742815
0
LINE
8
BLACK
6
CONTINUOUS
10
0.981496
20
0.742815
11
0.981683
21
0.743757
0
LINE
8
BLACK
6
CONTINUOUS
10
0.981683
20
0.743757
11
0.982217
21
0.744555
0
LINE
8
BLACK
6
CONTINUOUS
10
0.982217
20
0.744555
11
0.983015
21
0.745088
0
LINE
8
BLACK
6
CONTINUOUS
10
0.983015
20
0.745088
11
0.983957
21
0.745276
0
LINE
8
BLACK
6
CONTINUOUS
10
0.983957
20
0.745276
11
0.988878
21
0.745276
0
LINE
8
BLACK
6
CONTINUOUS
10
0.988878
20
0.745276
11
0.98982
21
0.745088
0
LINE
8
BLACK
6
CONTINUOUS
10
1.10793
20
0.745088
11
1.10873
21
0.744555
0
LINE
8
BLACK
6
CONTINUOUS
10
1.10873
20
0.744555
11
1.10926
21
0.743757
0
LINE
8
BLACK
6
CONTINUOUS
10
1.10926
20
0.743757
11
1.10945
21
0.742815
0
LINE
8
BLACK
6
CONTINUOUS
10
1.10945
20
0.742815
11
1.10945
21
0.714272
0
LINE
8
BLACK
6
CONTINUOUS
10
1.10945
20
0.714272
11
1.10926
21
0.71333
0
LINE
8
BLACK
6
CONTINUOUS
10
1.10926
20
0.71333
11
1.10873
21
0.712532
0
LINE
8
BLACK
6
CONTINUOUS
10
1.10873
20
0.712532
11
1.10793
21
0.711998
0
LINE
8
BLACK
6
CONTINUOUS
10
1.10793
20
0.711998
11
1.10699
21
0.711811
0
LINE
8
BLACK
6
CONTINUOUS
10
1.10699
20
0.711811
11
1.10207
21
0.711811
0
LINE
8
BLACK
6
CONTINUOUS
10
1.10207
20
0.711811
11
1.10113
21
0.711998
0
LINE
8
BLACK
6
CONTINUOUS
10
1.10113
20
0.711998
11
1.10033
21
0.712532
0
LINE
8
BLACK
6
CONTINUOUS
10
1.10033
20
0.712532
11
1.09979
21
0.71333
0
LINE
8
BLACK
6
CONTINUOUS
10
1.09979
20
0.71333
11
1.09961
21
0.714272
0
LINE
8
BLACK
6
CONTINUOUS
10
1.09961
20
0.714272
11
1.09961
21
0.742815
0
LINE
8
BLACK
6
CONTINUOUS
10
1.09961
20
0.742815
11
1.09979
21
0.743757
0
LINE
8
BLACK
6
CONTINUOUS
10
1.09979
20
0.743757
11
1.10033
21
0.744555
0
LINE
8
BLACK
6
CONTINUOUS
10
1.10033
20
0.744555
11
1.10113
21
0.745088
0
LINE
8
BLACK
6
CONTINUOUS
10
1.10113
20
0.745088
11
1.10207
21
0.745276
0
LINE
8
BLACK
6
CONTINUOUS
10
1.10207
20
0.745276
11
1.10699
21
0.745276
0
LINE
8
BLACK
6
CONTINUOUS
10
1.10699
20
0.745276
11
1.10793
21
0.745088
0
LINE
8
BLACK
6
CONTINUOUS
10
1.0095
20
0.745088
11
1.0103
21
0.744555
0
LINE
8
BLACK
6
CONTINUOUS
10
1.0103
20
0.744555
11
1.01084
21
0.743757
0
LINE
8
BLACK
6
CONTINUOUS
10
1.01084
20
0.743757
11
1.01102
21
0.742815
0
LINE
8
BLACK
6
CONTINUOUS
10
1.01102
20
0.742815
11
1.01102
21
0.714272
0
LINE
8
BLACK
6
CONTINUOUS
10
1.01102
20
0.714272
11
1.01084
21
0.71333
0
LINE
8
BLACK
6
CONTINUOUS
10
1.01084
20
0.71333
11
1.0103
21
0.712532
0
LINE
8
BLACK
6
CONTINUOUS
10
1.0103
20
0.712532
11
1.0095
21
0.711998
0
LINE
8
BLACK
6
CONTINUOUS
10
1.0095
20
0.711998
11
1.00856
21
0.711811
0
LINE
8
BLACK
6
CONTINUOUS
10
1.00856
20
0.711811
11
1.00364
21
0.711811
0
LINE
8
BLACK
6
CONTINUOUS
10
1.00364
20
0.711811
11
1.0027
21
0.711998
0
LINE
8
BLACK
6
CONTINUOUS
10
1.0027
20
0.711998
11
1.0019
21
0.712532
0
LINE
8
BLACK
6
CONTINUOUS
10
1.0019
20
0.712532
11
1.00137
21
0.71333
0
LINE
8
BLACK
6
CONTINUOUS
10
1.00137
20
0.71333
11
1.00118
21
0.714272
0
LINE
8
BLACK
6
CONTINUOUS
10
1.00118
20
0.714272
11
1.00118
21
0.742815
0
LINE
8
BLACK
6
CONTINUOUS
10
1.00118
20
0.742815
11
1.00137
21
0.743757
0
LINE
8
BLACK
6
CONTINUOUS
10
1.00137
20
0.743757
11
1.0019
21
0.744555
0
LINE
8
BLACK
6
CONTINUOUS
10
1.0019
20
0.744555
11
1.0027
21
0.745088
0
LINE
8
BLACK
6
CONTINUOUS
10
1.0027
20
0.745088
11
1.00364
21
0.745276
0
LINE
8
BLACK
6
CONTINUOUS
10
1.00364
20
0.745276
11
1.00856
21
0.745276
0
LINE
8
BLACK
6
CONTINUOUS
10
1.00856
20
0.745276
11
1.0095
21
0.745088
0
LINE
8
BLACK
6
CONTINUOUS
10
1.02919
20
0.745088
11
1.02999
21
0.744555
0
LINE
8
BLACK
6
CONTINUOUS
10
1.02999
20
0.744555
11
1.03052
21
0.743757
0
LINE
8
BLACK
6
CONTINUOUS
10
1.03052
20
0.743757
11
1.03071
21
0.742815
0
LINE
8
BLACK
6
CONTINUOUS
10
1.03071
20
0.742815
11
1.03071
21
0.714272
0
LINE
8
BLACK
6
CONTINUOUS
10
1.03071
20
0.714272
11
1.03052
21
0.71333
0
LINE
8
BLACK
6
CONTINUOUS
10
1.03052
20
0.71333
11
1.02999
21
0.712532
0
LINE
8
BLACK
6
CONTINUOUS
10
1.02999
20
0.712532
11
1.02919
21
0.711998
0
LINE
8
BLACK
6
CONTINUOUS
10
1.02919
20
0.711998
11
1.02825
21
0.711811
0
LINE
8
BLACK
6
CONTINUOUS
10
1.02825
20
0.711811
11
1.02333
21
0.711811
0
LINE
8
BLACK
6
CONTINUOUS
10
1.02333
20
0.711811
11
1.02239
21
0.711998
0
LINE
8
BLACK
6
CONTINUOUS
10
1.02239
20
0.711998
11
1.02159
21
0.712532
0
LINE
8
BLACK
6
CONTINUOUS
10
1.02159
20
0.712532
11
1.02105
21
0.71333
0
LINE
8
BLACK
6
CONTINUOUS
10
1.02105
20
0.71333
11
1.02087
21
0.714272
0
LINE
8
BLACK
6
CONTINUOUS
10
1.02087
20
0.714272
11
1.02087
21
0.742815
0
LINE
8
BLACK
6
CONTINUOUS
10
1.02087
20
0.742815
11
1.02105
21
0.743757
0
LINE
8
BLACK
6
CONTINUOUS
10
1.02105
20
0.743757
11
1.02159
21
0.744555
0
LINE
8
BLACK
6
CONTINUOUS
10
1.02159
20
0.744555
11
1.02239
21
0.745088
0
LINE
8
BLACK
6
CONTINUOUS
10
1.02239
20
0.745088
11
1.02333
21
0.745276
0
LINE
8
BLACK
6
CONTINUOUS
10
1.02333
20
0.745276
11
1.02825
21
0.745276
0
LINE
8
BLACK
6
CONTINUOUS
10
1.02825
20
0.745276
11
1.02919
21
0.745088
0
LINE
8
BLACK
6
CONTINUOUS
10
1.12761
20
0.745088
11
1.12841
21
0.744555
0
LINE
8
BLACK
6
CONTINUOUS
10
1.12841
20
0.744555
11
1.12895
21
0.743757
0
LINE
8
BLACK
6
CONTINUOUS
10
1.12895
20
0.743757
11
1.12913
21
0.742815
0
LINE
8
BLACK
6
CONTINUOUS
10
1.12913
20
0.742815
11
1.12913
21
0.714272
0
LINE
8
BLACK
6
CONTINUOUS
10
1.12913
20
0.714272
11
1.12895
21
0.71333
0
LINE
8
BLACK
6
CONTINUOUS
10
1.12895
20
0.71333
11
1.12841
21
0.712532
0
LINE
8
BLACK
6
CONTINUOUS
10
1.12841
20
0.712532
11
1.12761
21
0.711998
0
LINE
8
BLACK
6
CONTINUOUS
10
1.12761
20
0.711998
11
1.12667
21
0.711811
0
LINE
8
BLACK
6
CONTINUOUS
10
1.12667
20
0.711811
11
1.12175
21
0.711811
0
LINE
8
BLACK
6
CONTINUOUS
10
1.12175
20
0.711811
11
1.12081
21
0.711998
0
LINE
8
BLACK
6
CONTINUOUS
10
1.12081
20
0.711998
11
1.12001
21
0.712532
0
LINE
8
BLACK
6
CONTINUOUS
10
1.12001
20
0.712532
11
1.11948
21
0.71333
0
LINE
8
BLACK
6
CONTINUOUS
10
1.11948
20
0.71333
11
1.11929
21
0.714272
0
LINE
8
BLACK
6
CONTINUOUS
10
1.11929
20
0.714272
11
1.11929
21
0.742815
0
LINE
8
BLACK
6
CONTINUOUS
10
1.11929
20
0.742815
11
1.11948
21
0.743757
0
LINE
8
BLACK
6
CONTINUOUS
10
1.11948
20
0.743757
11
1.12001
21
0.744555
0
LINE
8
BLACK
6
CONTINUOUS
10
1.12001
20
0.744555
11
1.12081
21
0.745088
0
LINE
8
BLACK
6
CONTINUOUS
10
1.12081
20
0.745088
11
1.12175
21
0.745276
0
LINE
8
BLACK
6
CONTINUOUS
10
1.12175
20
0.745276
11
1.12667
21
0.745276
0
LINE
8
BLACK
6
CONTINUOUS
10
1.12667
20
0.745276
11
1.12761
21
0.745088
0
LINE
8
BLACK
6
CONTINUOUS
10
1.04887
20
0.745088
11
1.04967
21
0.744555
0
LINE
8
BLACK
6
CONTINUOUS
10
1.04967
20
0.744555
11
1.05021
21
0.743757
0
LINE
8
BLACK
6
CONTINUOUS
10
1.05021
20
0.743757
11
1.05039
21
0.742815
0
LINE
8
BLACK
6
CONTINUOUS
10
1.05039
20
0.742815
11
1.05039
21
0.714272
0
LINE
8
BLACK
6
CONTINUOUS
10
1.05039
20
0.714272
11
1.05021
21
0.71333
0
LINE
8
BLACK
6
CONTINUOUS
10
1.05021
20
0.71333
11
1.04967
21
0.712532
0
LINE
8
BLACK
6
CONTINUOUS
10
1.04967
20
0.712532
11
1.04887
21
0.711998
0
LINE
8
BLACK
6
CONTINUOUS
10
1.04887
20
0.711998
11
1.04793
21
0.711811
0
LINE
8
BLACK
6
CONTINUOUS
10
1.04793
20
0.711811
11
1.04301
21
0.711811
0
LINE
8
BLACK
6
CONTINUOUS
10
1.04301
20
0.711811
11
1.04207
21
0.711998
0
LINE
8
BLACK
6
CONTINUOUS
10
1.04207
20
0.711998
11
1.04127
21
0.712532
0
LINE
8
BLACK
6
CONTINUOUS
10
1.04127
20
0.712532
11
1.04074
21
0.71333
0
LINE
8
BLACK
6
CONTINUOUS
10
1.04074
20
0.71333
11
1.04055
21
0.714272
0
LINE
8
BLACK
6
CONTINUOUS
10
1.04055
20
0.714272
11
1.04055
21
0.742815
0
LINE
8
BLACK
6
CONTINUOUS
10
1.04055
20
0.742815
11
1.04074
21
0.743757
0
LINE
8
BLACK
6
CONTINUOUS
10
1.04074
20
0.743757
11
1.04127
21
0.744555
0
LINE
8
BLACK
6
CONTINUOUS
10
1.04127
20
0.744555
11
1.04207
21
0.745088
0
LINE
8
BLACK
6
CONTINUOUS
10
1.04207
20
0.745088
11
1.04301
21
0.745276
0
LINE
8
BLACK
6
CONTINUOUS
10
1.04301
20
0.745276
11
1.04793
21
0.745276
0
LINE
8
BLACK
6
CONTINUOUS
10
1.04793
20
0.745276
11
1.04887
21
0.745088
0
LINE
8
BLACK
6
CONTINUOUS
10
1.06856
20
0.745088
11
1.06936
21
0.744555
0
LINE
8
BLACK
6
CONTINUOUS
10
1.06936
20
0.744555
11
1.06989
21
0.743757
0
LINE
8
BLACK
6
CONTINUOUS
10
1.06989
20
0.743757
11
1.07008
21
0.742815
0
LINE
8
BLACK
6
CONTINUOUS
10
1.07008
20
0.742815
11
1.07008
21
0.714272
0
LINE
8
BLACK
6
CONTINUOUS
10
1.07008
20
0.714272
11
1.06989
21
0.71333
0
LINE
8
BLACK
6
CONTINUOUS
10
1.06989
20
0.71333
11
1.06936
21
0.712532
0
LINE
8
BLACK
6
CONTINUOUS
10
1.06936
20
0.712532
11
1.06856
21
0.711998
0
LINE
8
BLACK
6
CONTINUOUS
10
1.06856
20
0.711998
11
1.06762
21
0.711811
0
LINE
8
BLACK
6
CONTINUOUS
10
1.06762
20
0.711811
11
1.0627
21
0.711811
0
LINE
8
BLACK
6
CONTINUOUS
10
1.0627
20
0.711811
11
1.06176
21
0.711998
0
LINE
8
BLACK
6
CONTINUOUS
10
1.06176
20
0.711998
11
1.06096
21
0.712532
0
LINE
8
BLACK
6
CONTINUOUS
10
1.06096
20
0.712532
11
1.06042
21
0.71333
0
LINE
8
BLACK
6
CONTINUOUS
10
1.06042
20
0.71333
11
1.06024
21
0.714272
0
LINE
8
BLACK
6
CONTINUOUS
10
1.06024
20
0.714272
11
1.06024
21
0.742815
0
LINE
8
BLACK
6
CONTINUOUS
10
1.06024
20
0.742815
11
1.06042
21
0.743757
0
LINE
8
BLACK
6
CONTINUOUS
10
1.06042
20
0.743757
11
1.06096
21
0.744555
0
LINE
8
BLACK
6
CONTINUOUS
10
1.06096
20
0.744555
11
1.06176
21
0.745088
0
LINE
8
BLACK
6
CONTINUOUS
10
1.06176
20
0.745088
11
1.0627
21
0.745276
0
LINE
8
BLACK
6
CONTINUOUS
10
1.0627
20
0.745276
11
1.06762
21
0.745276
0
LINE
8
BLACK
6
CONTINUOUS
10
1.06762
20
0.745276
11
1.06856
21
0.745088
0
LINE
8
BLACK
6
CONTINUOUS
10
1.1473
20
0.745088
11
1.1481
21
0.744555
0
LINE
8
BLACK
6
CONTINUOUS
10
1.1481
20
0.744555
11
1.14863
21
0.743757
0
LINE
8
BLACK
6
CONTINUOUS
10
1.14863
20
0.743757
11
1.14882
21
0.742815
0
LINE
8
BLACK
6
CONTINUOUS
10
1.14882
20
0.742815
11
1.14882
21
0.714272
0
LINE
8
BLACK
6
CONTINUOUS
10
1.14882
20
0.714272
11
1.14863
21
0.71333
0
LINE
8
BLACK
6
CONTINUOUS
10
1.14863
20
0.71333
11
1.1481
21
0.712532
0
LINE
8
BLACK
6
CONTINUOUS
10
1.1481
20
0.712532
11
1.1473
21
0.711998
0
LINE
8
BLACK
6
CONTINUOUS
10
1.1473
20
0.711998
11
1.14636
21
0.711811
0
LINE
8
BLACK
6
CONTINUOUS
10
1.14636
20
0.711811
11
1.14144
21
0.711811
0
LINE
8
BLACK
6
CONTINUOUS
10
1.14144
20
0.711811
11
1.1405
21
0.711998
0
LINE
8
BLACK
6
CONTINUOUS
10
1.1405
20
0.711998
11
1.1397
21
0.712532
0
LINE
8
BLACK
6
CONTINUOUS
10
1.1397
20
0.712532
11
1.13916
21
0.71333
0
LINE
8
BLACK
6
CONTINUOUS
10
1.13916
20
0.71333
11
1.13898
21
0.714272
0
LINE
8
BLACK
6
CONTINUOUS
10
1.13898
20
0.714272
11
1.13898
21
0.742815
0
LINE
8
BLACK
6
CONTINUOUS
10
1.13898
20
0.742815
11
1.13916
21
0.743757
0
LINE
8
BLACK
6
CONTINUOUS
10
1.13916
20
0.743757
11
1.1397
21
0.744555
0
LINE
8
BLACK
6
CONTINUOUS
10
1.1397
20
0.744555
11
1.1405
21
0.745088
0
LINE
8
BLACK
6
CONTINUOUS
10
1.1405
20
0.745088
11
1.14144
21
0.745276
0
LINE
8
BLACK
6
CONTINUOUS
10
1.14144
20
0.745276
11
1.14636
21
0.745276
0
LINE
8
BLACK
6
CONTINUOUS
10
1.14636
20
0.745276
11
1.1473
21
0.745088
0
LINE
8
BLACK
6
CONTINUOUS
10
1.16698
20
0.745088
11
1.16778
21
0.744555
0
LINE
8
BLACK
6
CONTINUOUS
10
1.16778
20
0.744555
11
1.16832
21
0.743757
0
LINE
8
BLACK
6
CONTINUOUS
10
1.16832
20
0.743757
11
1.1685
21
0.742815
0
LINE
8
BLACK
6
CONTINUOUS
10
1.1685
20
0.742815
11
1.1685
21
0.714272
0
LINE
8
BLACK
6
CONTINUOUS
10
1.1685
20
0.714272
11
1.16832
21
0.71333
0
LINE
8
BLACK
6
CONTINUOUS
10
1.16832
20
0.71333
11
1.16778
21
0.712532
0
LINE
8
BLACK
6
CONTINUOUS
10
1.16778
20
0.712532
11
1.16698
21
0.711998
0
LINE
8
BLACK
6
CONTINUOUS
10
1.16698
20
0.711998
11
1.16604
21
0.711811
0
LINE
8
BLACK
6
CONTINUOUS
10
1.16604
20
0.711811
11
1.16112
21
0.711811
0
LINE
8
BLACK
6
CONTINUOUS
10
1.16112
20
0.711811
11
1.16018
21
0.711998
0
LINE
8
BLACK
6
CONTINUOUS
10
1.16018
20
0.711998
11
1.15938
21
0.712532
0
LINE
8
BLACK
6
CONTINUOUS
10
1.15938
20
0.712532
11
1.15885
21
0.71333
0
LINE
8
BLACK
6
CONTINUOUS
10
1.15885
20
0.71333
11
1.15866
21
0.714272
0
LINE
8
BLACK
6
CONTINUOUS
10
1.15866
20
0.714272
11
1.15866
21
0.742815
0
LINE
8
BLACK
6
CONTINUOUS
10
1.15866
20
0.742815
11
1.15885
21
0.743757
0
LINE
8
BLACK
6
CONTINUOUS
10
1.15885
20
0.743757
11
1.15938
21
0.744555
0
LINE
8
BLACK
6
CONTINUOUS
10
1.15938
20
0.744555
11
1.16018
21
0.745088
0
LINE
8
BLACK
6
CONTINUOUS
10
1.16018
20
0.745088
11
1.16112
21
0.745276
0
LINE
8
BLACK
6
CONTINUOUS
10
1.16112
20
0.745276
11
1.16604
21
0.745276
0
LINE
8
BLACK
6
CONTINUOUS
10
1.16604
20
0.745276
11
1.16698
21
0.745088
0
LINE
8
BLACK
6
CONTINUOUS
10
0.7275
20
0.7175
11
0.6725
21
0.7175
0
LINE
8
BLACK
6
CONTINUOUS
10
0.6725
20
0.7175
11
0.6725
21
0.7525
0
LINE
8
BLACK
6
CONTINUOUS
10
0.6725
20
0.7525
11
0.7275
21
0.7525
0
LINE
8
BLACK
6
CONTINUOUS
10
0.7275
20
0.7525
11
0.7275
21
0.7175
0
LINE
8
BLACK
6
CONTINUOUS
10
0.8775
20
0.72
11
0.8225
21
0.72
0
LINE
8
BLACK
6
CONTINUOUS
10
0.8225
20
0.72
11
0.8225
21
0.755
0
LINE
8
BLACK
6
CONTINUOUS
10
0.8225
20
0.755
11
0.8775
21
0.755
0
LINE
8
BLACK
6
CONTINUOUS
10
0.8775
20
0.755
11
0.8775
21
0.72
0
LINE
8
BLACK
6
CONTINUOUS
10
0.2525
20
0.72
11
0.1975
21
0.72
0
LINE
8
BLACK
6
CONTINUOUS
10
0.1975
20
0.72
11
0.1975
21
0.755
0
LINE
8
BLACK
6
CONTINUOUS
10
0.1975
20
0.755
11
0.2525
21
0.755
0
LINE
8
BLACK
6
CONTINUOUS
10
0.2525
20
0.755
11
0.2525
21
0.72
0
LINE
8
BLACK
6
CONTINUOUS
10
0.8025
20
0.72
11
0.7475
21
0.72
0
LINE
8
BLACK
6
CONTINUOUS
10
0.7475
20
0.72
11
0.7475
21
0.755
0
LINE
8
BLACK
6
CONTINUOUS
10
0.7475
20
0.755
11
0.8025
21
0.755
0
LINE
8
BLACK
6
CONTINUOUS
10
0.8025
20
0.755
11
0.8025
21
0.72
0
LINE
8
BLACK
6
CONTINUOUS
10
1.7825
20
0.729
11
1.7275
21
0.729
0
LINE
8
BLACK
6
CONTINUOUS
10
1.7275
20
0.729
11
1.7275
21
0.764
0
LINE
8
BLACK
6
CONTINUOUS
10
1.7275
20
0.764
11
1.7825
21
0.764
0
LINE
8
BLACK
6
CONTINUOUS
10
1.7825
20
0.764
11
1.7825
21
0.729
0
LINE
8
BLACK
6
CONTINUOUS
10
1.5825
20
0.729
11
1.5275
21
0.729
0
LINE
8
BLACK
6
CONTINUOUS
10
1.5275
20
0.729
11
1.5275
21
0.764
0
LINE
8
BLACK
6
CONTINUOUS
10
1.5275
20
0.764
11
1.5825
21
0.764
0
LINE
8
BLACK
6
CONTINUOUS
10
1.5825
20
0.764
11
1.5825
21
0.729
0
LINE
8
BLACK
6
CONTINUOUS
10
1.9325
20
0.729
11
1.8775
21
0.729
0
LINE
8
BLACK
6
CONTINUOUS
10
1.8775
20
0.729
11
1.8775
21
0.764
0
LINE
8
BLACK
6
CONTINUOUS
10
1.8775
20
0.764
11
1.9325
21
0.764
0
LINE
8
BLACK
6
CONTINUOUS
10
1.9325
20
0.764
11
1.9325
21
0.729
0
LINE
8
BLACK
6
CONTINUOUS
10
1.5025
20
0.745
11
1.4475
21
0.745
0
LINE
8
BLACK
6
CONTINUOUS
10
1.4475
20
0.745
11
1.4475
21
0.78
0
LINE
8
BLACK
6
CONTINUOUS
10
1.4475
20
0.78
11
1.5025
21
0.78
0
LINE
8
BLACK
6
CONTINUOUS
10
1.5025
20
0.78
11
1.5025
21
0.745
0
LINE
8
BLACK
6
CONTINUOUS
10
0.974072
20
0.760836
11
0.97487
21
0.760303
0
LINE
8
BLACK
6
CONTINUOUS
10
0.97487
20
0.760303
11
0.975403
21
0.759505
0
LINE
8
BLACK
6
CONTINUOUS
10
0.975403
20
0.759505
11
0.975591
21
0.758563
0
LINE
8
BLACK
6
CONTINUOUS
10
0.975591
20
0.758563
11
0.975591
21
0.753642
0
LINE
8
BLACK
6
CONTINUOUS
10
0.975591
20
0.753642
11
0.975403
21
0.7527
0
LINE
8
BLACK
6
CONTINUOUS
10
0.975403
20
0.7527
11
0.97487
21
0.751902
0
LINE
8
BLACK
6
CONTINUOUS
10
0.97487
20
0.751902
11
0.974072
21
0.751368
0
LINE
8
BLACK
6
CONTINUOUS
10
0.974072
20
0.751368
11
0.97313
21
0.751181
0
LINE
8
BLACK
6
CONTINUOUS
10
0.97313
20
0.751181
11
0.944587
21
0.751181
0
LINE
8
BLACK
6
CONTINUOUS
10
0.944587
20
0.751181
11
0.943645
21
0.751368
0
LINE
8
BLACK
6
CONTINUOUS
10
0.943645
20
0.751368
11
0.942847
21
0.751902
0
LINE
8
BLACK
6
CONTINUOUS
10
0.942847
20
0.751902
11
0.942313
21
0.7527
0
LINE
8
BLACK
6
CONTINUOUS
10
0.942313
20
0.7527
11
0.942126
21
0.753642
0
LINE
8
BLACK
6
CONTINUOUS
10
0.942126
20
0.753642
11
0.942126
21
0.758563
0
LINE
8
BLACK
6
CONTINUOUS
10
0.942126
20
0.758563
11
0.942313
21
0.759505
0
LINE
8
BLACK
6
CONTINUOUS
10
0.942313
20
0.759505
11
0.942847
21
0.760303
0
LINE
8
BLACK
6
CONTINUOUS
10
0.942847
20
0.760303
11
0.943645
21
0.760836
0
LINE
8
BLACK
6
CONTINUOUS
10
0.943645
20
0.760836
11
0.944587
21
0.761024
0
LINE
8
BLACK
6
CONTINUOUS
10
0.944587
20
0.761024
11
0.97313
21
0.761024
0
LINE
8
BLACK
6
CONTINUOUS
10
0.97313
20
0.761024
11
0.974072
21
0.760836
0
LINE
8
BLACK
6
CONTINUOUS
10
1.20636
20
0.760836
11
1.20715
21
0.760303
0
LINE
8
BLACK
6
CONTINUOUS
10
1.20715
20
0.760303
11
1.20769
21
0.759505
0
LINE
8
BLACK
6
CONTINUOUS
10
1.20769
20
0.759505
11
1.20787
21
0.758563
0
LINE
8
BLACK
6
CONTINUOUS
10
1.20787
20
0.758563
11
1.20787
21
0.753642
0
LINE
8
BLACK
6
CONTINUOUS
10
1.20787
20
0.753642
11
1.20769
21
0.7527
0
LINE
8
BLACK
6
CONTINUOUS
10
1.20769
20
0.7527
11
1.20715
21
0.751902
0
LINE
8
BLACK
6
CONTINUOUS
10
1.20715
20
0.751902
11
1.20636
21
0.751368
0
LINE
8
BLACK
6
CONTINUOUS
10
1.20636
20
0.751368
11
1.20541
21
0.751181
0
LINE
8
BLACK
6
CONTINUOUS
10
1.20541
20
0.751181
11
1.17687
21
0.751181
0
LINE
8
BLACK
6
CONTINUOUS
10
1.17687
20
0.751181
11
1.17593
21
0.751368
0
LINE
8
BLACK
6
CONTINUOUS
10
1.17593
20
0.751368
11
1.17513
21
0.751902
0
LINE
8
BLACK
6
CONTINUOUS
10
1.17513
20
0.751902
11
1.1746
21
0.7527
0
LINE
8
BLACK
6
CONTINUOUS
10
1.1746
20
0.7527
11
1.17441
21
0.753642
0
LINE
8
BLACK
6
CONTINUOUS
10
1.17441
20
0.753642
11
1.17441
21
0.758563
0
LINE
8
BLACK
6
CONTINUOUS
10
1.17441
20
0.758563
11
1.1746
21
0.759505
0
LINE
8
BLACK
6
CONTINUOUS
10
1.1746
20
0.759505
11
1.17513
21
0.760303
0
LINE
8
BLACK
6
CONTINUOUS
10
1.17513
20
0.760303
11
1.17593
21
0.760836
0
LINE
8
BLACK
6
CONTINUOUS
10
1.17593
20
0.760836
11
1.17687
21
0.761024
0
LINE
8
BLACK
6
CONTINUOUS
10
1.17687
20
0.761024
11
1.20541
21
0.761024
0
LINE
8
BLACK
6
CONTINUOUS
10
1.20541
20
0.761024
11
1.20636
21
0.760836
0
LINE
8
BLACK
6
CONTINUOUS
10
0.385
20
0.755
11
0.305
21
0.755
0
LINE
8
BLACK
6
CONTINUOUS
10
0.305
20
0.755
11
0.305
21
0.795
0
LINE
8
BLACK
6
CONTINUOUS
10
0.305
20
0.795
11
0.385
21
0.795
0
LINE
8
BLACK
6
CONTINUOUS
10
0.385
20
0.795
11
0.385
21
0.755
0
LINE
8
BLACK
6
CONTINUOUS
10
1.04252
20
0.821185
11
1.04571
21
0.819052
0
LINE
8
BLACK
6
CONTINUOUS
10
1.04571
20
0.819052
11
1.04785
21
0.815859
0
LINE
8
BLACK
6
CONTINUOUS
10
1.04785
20
0.815859
11
1.04859
21
0.812092
0
LINE
8
BLACK
6
CONTINUOUS
10
1.04859
20
0.812092
11
1.04859
21
0.776884
0
LINE
8
BLACK
6
CONTINUOUS
10
1.04859
20
0.776884
11
1.04785
21
0.773118
0
LINE
8
BLACK
6
CONTINUOUS
10
1.04785
20
0.773118
11
1.04571
21
0.769925
0
LINE
8
BLACK
6
CONTINUOUS
10
1.04571
20
0.769925
11
1.04252
21
0.767791
0
LINE
8
BLACK
6
CONTINUOUS
10
1.04252
20
0.767791
11
1.03875
21
0.767042
0
LINE
8
BLACK
6
CONTINUOUS
10
1.03875
20
0.767042
11
1.01676
21
0.767042
0
LINE
8
BLACK
6
CONTINUOUS
10
1.01676
20
0.767042
11
1.01299
21
0.767791
0
LINE
8
BLACK
6
CONTINUOUS
10
1.01299
20
0.767791
11
1.0098
21
0.769925
0
LINE
8
BLACK
6
CONTINUOUS
10
1.0098
20
0.769925
11
1.00767
21
0.773118
0
LINE
8
BLACK
6
CONTINUOUS
10
1.00767
20
0.773118
11
1.00692
21
0.776884
0
LINE
8
BLACK
6
CONTINUOUS
10
1.00692
20
0.776884
11
1.00692
21
0.812092
0
LINE
8
BLACK
6
CONTINUOUS
10
1.00692
20
0.812092
11
1.00767
21
0.815859
0
LINE
8
BLACK
6
CONTINUOUS
10
1.00767
20
0.815859
11
1.0098
21
0.819052
0
LINE
8
BLACK
6
CONTINUOUS
10
1.0098
20
0.819052
11
1.01299
21
0.821185
0
LINE
8
BLACK
6
CONTINUOUS
10
1.01299
20
0.821185
11
1.01676
21
0.821935
0
LINE
8
BLACK
6
CONTINUOUS
10
1.01676
20
0.821935
11
1.03875
21
0.821935
0
LINE
8
BLACK
6
CONTINUOUS
10
1.03875
20
0.821935
11
1.04252
21
0.821185
0
LINE
8
BLACK
6
CONTINUOUS
10
1.08976
20
0.821185
11
1.09296
21
0.819052
0
LINE
8
BLACK
6
CONTINUOUS
10
1.09296
20
0.819052
11
1.09509
21
0.815859
0
LINE
8
BLACK
6
CONTINUOUS
10
1.09509
20
0.815859
11
1.09584
21
0.812092
0
LINE
8
BLACK
6
CONTINUOUS
10
1.09584
20
0.812092
11
1.09584
21
0.776884
0
LINE
8
BLACK
6
CONTINUOUS
10
1.09584
20
0.776884
11
1.09509
21
0.773118
0
LINE
8
BLACK
6
CONTINUOUS
10
1.09509
20
0.773118
11
1.09296
21
0.769925
0
LINE
8
BLACK
6
CONTINUOUS
10
1.09296
20
0.769925
11
1.08976
21
0.767791
0
LINE
8
BLACK
6
CONTINUOUS
10
1.08976
20
0.767791
11
1.086
21
0.767042
0
LINE
8
BLACK
6
CONTINUOUS
10
1.086
20
0.767042
11
1.064
21
0.767042
0
LINE
8
BLACK
6
CONTINUOUS
10
1.064
20
0.767042
11
1.06024
21
0.767791
0
LINE
8
BLACK
6
CONTINUOUS
10
1.06024
20
0.767791
11
1.05704
21
0.769925
0
LINE
8
BLACK
6
CONTINUOUS
10
1.05704
20
0.769925
11
1.05491
21
0.773118
0
LINE
8
BLACK
6
CONTINUOUS
10
1.05491
20
0.773118
11
1.05416
21
0.776884
0
LINE
8
BLACK
6
CONTINUOUS
10
1.05416
20
0.776884
11
1.05416
21
0.812092
0
LINE
8
BLACK
6
CONTINUOUS
10
1.05416
20
0.812092
11
1.05491
21
0.815859
0
LINE
8
BLACK
6
CONTINUOUS
10
1.05491
20
0.815859
11
1.05704
21
0.819052
0
LINE
8
BLACK
6
CONTINUOUS
10
1.05704
20
0.819052
11
1.06024
21
0.821185
0
LINE
8
BLACK
6
CONTINUOUS
10
1.06024
20
0.821185
11
1.064
21
0.821935
0
LINE
8
BLACK
6
CONTINUOUS
10
1.064
20
0.821935
11
1.086
21
0.821935
0
LINE
8
BLACK
6
CONTINUOUS
10
1.086
20
0.821935
11
1.08976
21
0.821185
0
LINE
8
BLACK
6
CONTINUOUS
10
1.13701
20
0.821185
11
1.1402
21
0.819052
0
LINE
8
BLACK
6
CONTINUOUS
10
1.1402
20
0.819052
11
1.14233
21
0.815859
0
LINE
8
BLACK
6
CONTINUOUS
10
1.14233
20
0.815859
11
1.14308
21
0.812092
0
LINE
8
BLACK
6
CONTINUOUS
10
1.14308
20
0.812092
11
1.14308
21
0.776884
0
LINE
8
BLACK
6
CONTINUOUS
10
1.14308
20
0.776884
11
1.14233
21
0.773118
0
LINE
8
BLACK
6
CONTINUOUS
10
1.14233
20
0.773118
11
1.1402
21
0.769925
0
LINE
8
BLACK
6
CONTINUOUS
10
1.1402
20
0.769925
11
1.13701
21
0.767791
0
LINE
8
BLACK
6
CONTINUOUS
10
1.13701
20
0.767791
11
1.13324
21
0.767042
0
LINE
8
BLACK
6
CONTINUOUS
10
1.13324
20
0.767042
11
1.11125
21
0.767042
0
LINE
8
BLACK
6
CONTINUOUS
10
1.11125
20
0.767042
11
1.10748
21
0.767791
0
LINE
8
BLACK
6
CONTINUOUS
10
1.10748
20
0.767791
11
1.10429
21
0.769925
0
LINE
8
BLACK
6
CONTINUOUS
10
1.10429
20
0.769925
11
1.10215
21
0.773118
0
LINE
8
BLACK
6
CONTINUOUS
10
1.10215
20
0.773118
11
1.10141
21
0.776884
0
LINE
8
BLACK
6
CONTINUOUS
10
1.10141
20
0.776884
11
1.10141
21
0.812092
0
LINE
8
BLACK
6
CONTINUOUS
10
1.10141
20
0.812092
11
1.10215
21
0.815859
0
LINE
8
BLACK
6
CONTINUOUS
10
1.10215
20
0.815859
11
1.10429
21
0.819052
0
LINE
8
BLACK
6
CONTINUOUS
10
1.10429
20
0.819052
11
1.10748
21
0.821185
0
LINE
8
BLACK
6
CONTINUOUS
10
1.10748
20
0.821185
11
1.11125
21
0.821935
0
LINE
8
BLACK
6
CONTINUOUS
10
1.11125
20
0.821935
11
1.13324
21
0.821935
0
LINE
8
BLACK
6
CONTINUOUS
10
1.13324
20
0.821935
11
1.13701
21
0.821185
0
LINE
8
BLACK
6
CONTINUOUS
10
1.20636
20
0.780521
11
1.20715
21
0.779988
0
LINE
8
BLACK
6
CONTINUOUS
10
1.20715
20
0.779988
11
1.20769
21
0.77919
0
LINE
8
BLACK
6
CONTINUOUS
10
1.20769
20
0.77919
11
1.20787
21
0.778248
0
LINE
8
BLACK
6
CONTINUOUS
10
1.20787
20
0.778248
11
1.20787
21
0.773327
0
LINE
8
BLACK
6
CONTINUOUS
10
1.20787
20
0.773327
11
1.20769
21
0.772385
0
LINE
8
BLACK
6
CONTINUOUS
10
1.20769
20
0.772385
11
1.20715
21
0.771587
0
LINE
8
BLACK
6
CONTINUOUS
10
1.20715
20
0.771587
11
1.20636
21
0.771053
0
LINE
8
BLACK
6
CONTINUOUS
10
1.20636
20
0.771053
11
1.20541
21
0.770866
0
LINE
8
BLACK
6
CONTINUOUS
10
1.20541
20
0.770866
11
1.17687
21
0.770866
0
LINE
8
BLACK
6
CONTINUOUS
10
1.17687
20
0.770866
11
1.17593
21
0.771053
0
LINE
8
BLACK
6
CONTINUOUS
10
1.17593
20
0.771053
11
1.17513
21
0.771587
0
LINE
8
BLACK
6
CONTINUOUS
10
1.17513
20
0.771587
11
1.1746
21
0.772385
0
LINE
8
BLACK
6
CONTINUOUS
10
1.1746
20
0.772385
11
1.17441
21
0.773327
0
LINE
8
BLACK
6
CONTINUOUS
10
1.17441
20
0.773327
11
1.17441
21
0.778248
0
LINE
8
BLACK
6
CONTINUOUS
10
1.17441
20
0.778248
11
1.1746
21
0.77919
0
LINE
8
BLACK
6
CONTINUOUS
10
1.1746
20
0.77919
11
1.17513
21
0.779988
0
LINE
8
BLACK
6
CONTINUOUS
10
1.17513
20
0.779988
11
1.17593
21
0.780521
0
LINE
8
BLACK
6
CONTINUOUS
10
1.17593
20
0.780521
11
1.17687
21
0.780709
0
LINE
8
BLACK
6
CONTINUOUS
10
1.17687
20
0.780709
11
1.20541
21
0.780709
0
LINE
8
BLACK
6
CONTINUOUS
10
1.20541
20
0.780709
11
1.20636
21
0.780521
0
LINE
8
BLACK
6
CONTINUOUS
10
0.974072
20
0.780521
11
0.97487
21
0.779988
0
LINE
8
BLACK
6
CONTINUOUS
10
0.97487
20
0.779988
11
0.975403
21
0.77919
0
LINE
8
BLACK
6
CONTINUOUS
10
0.975403
20
0.77919
11
0.975591
21
0.778248
0
LINE
8
BLACK
6
CONTINUOUS
10
0.975591
20
0.778248
11
0.975591
21
0.773327
0
LINE
8
BLACK
6
CONTINUOUS
10
0.975591
20
0.773327
11
0.975403
21
0.772385
0
LINE
8
BLACK
6
CONTINUOUS
10
0.975403
20
0.772385
11
0.97487
21
0.771587
0
LINE
8
BLACK
6
CONTINUOUS
10
0.97487
20
0.771587
11
0.974072
21
0.771053
0
LINE
8
BLACK
6
CONTINUOUS
10
0.974072
20
0.771053
11
0.97313
21
0.770866
0
LINE
8
BLACK
6
CONTINUOUS
10
0.97313
20
0.770866
11
0.944587
21
0.770866
0
LINE
8
BLACK
6
CONTINUOUS
10
0.944587
20
0.770866
11
0.943645
21
0.771053
0
LINE
8
BLACK
6
CONTINUOUS
10
0.943645
20
0.771053
11
0.942847
21
0.771587
0
LINE
8
BLACK
6
CONTINUOUS
10
0.942847
20
0.771587
11
0.942313
21
0.772385
0
LINE
8
BLACK
6
CONTINUOUS
10
0.942313
20
0.772385
11
0.942126
21
0.773327
0
LINE
8
BLACK
6
CONTINUOUS
10
0.942126
20
0.773327
11
0.942126
21
0.778248
0
LINE
8
BLACK
6
CONTINUOUS
10
0.942126
20
0.778248
11
0.942313
21
0.77919
0
LINE
8
BLACK
6
CONTINUOUS
10
0.942313
20
0.77919
11
0.942847
21
0.779988
0
LINE
8
BLACK
6
CONTINUOUS
10
0.942847
20
0.779988
11
0.943645
21
0.780521
0
LINE
8
BLACK
6
CONTINUOUS
10
0.943645
20
0.780521
11
0.944587
21
0.780709
0
LINE
8
BLACK
6
CONTINUOUS
10
0.944587
20
0.780709
11
0.97313
21
0.780709
0
LINE
8
BLACK
6
CONTINUOUS
10
0.97313
20
0.780709
11
0.974072
21
0.780521
0
LINE
8
BLACK
6
CONTINUOUS
10
1.20636
20
0.800206
11
1.20715
21
0.799673
0
LINE
8
BLACK
6
CONTINUOUS
10
1.20715
20
0.799673
11
1.20769
21
0.798875
0
LINE
8
BLACK
6
CONTINUOUS
10
1.20769
20
0.798875
11
1.20787
21
0.797933
0
LINE
8
BLACK
6
CONTINUOUS
10
1.20787
20
0.797933
11
1.20787
21
0.793012
0
LINE
8
BLACK
6
CONTINUOUS
10
1.20787
20
0.793012
11
1.20769
21
0.79207
0
LINE
8
BLACK
6
CONTINUOUS
10
1.20769
20
0.79207
11
1.20715
21
0.791272
0
LINE
8
BLACK
6
CONTINUOUS
10
1.20715
20
0.791272
11
1.20636
21
0.790739
0
LINE
8
BLACK
6
CONTINUOUS
10
1.20636
20
0.790739
11
1.20541
21
0.790551
0
LINE
8
BLACK
6
CONTINUOUS
10
1.20541
20
0.790551
11
1.17687
21
0.790551
0
LINE
8
BLACK
6
CONTINUOUS
10
1.17687
20
0.790551
11
1.17593
21
0.790739
0
LINE
8
BLACK
6
CONTINUOUS
10
1.17593
20
0.790739
11
1.17513
21
0.791272
0
LINE
8
BLACK
6
CONTINUOUS
10
1.17513
20
0.791272
11
1.1746
21
0.79207
0
LINE
8
BLACK
6
CONTINUOUS
10
1.1746
20
0.79207
11
1.17441
21
0.793012
0
LINE
8
BLACK
6
CONTINUOUS
10
1.17441
20
0.793012
11
1.17441
21
0.797933
0
LINE
8
BLACK
6
CONTINUOUS
10
1.17441
20
0.797933
11
1.1746
21
0.798875
0
LINE
8
BLACK
6
CONTINUOUS
10
1.1746
20
0.798875
11
1.17513
21
0.799673
0
LINE
8
BLACK
6
CONTINUOUS
10
1.17513
20
0.799673
11
1.17593
21
0.800206
0
LINE
8
BLACK
6
CONTINUOUS
10
1.17593
20
0.800206
11
1.17687
21
0.800394
0
LINE
8
BLACK
6
CONTINUOUS
10
1.17687
20
0.800394
11
1.20541
21
0.800394
0
LINE
8
BLACK
6
CONTINUOUS
10
1.20541
20
0.800394
11
1.20636
21
0.800206
0
LINE
8
BLACK
6
CONTINUOUS
10
0.974072
20
0.800206
11
0.97487
21
0.799673
0
LINE
8
BLACK
6
CONTINUOUS
10
0.97487
20
0.799673
11
0.975403
21
0.798875
0
LINE
8
BLACK
6
CONTINUOUS
10
0.975403
20
0.798875
11
0.975591
21
0.797933
0
LINE
8
BLACK
6
CONTINUOUS
10
0.975591
20
0.797933
11
0.975591
21
0.793012
0
LINE
8
BLACK
6
CONTINUOUS
10
0.975591
20
0.793012
11
0.975403
21
0.79207
0
LINE
8
BLACK
6
CONTINUOUS
10
0.975403
20
0.79207
11
0.97487
21
0.791272
0
LINE
8
BLACK
6
CONTINUOUS
10
0.97487
20
0.791272
11
0.974072
21
0.790739
0
LINE
8
BLACK
6
CONTINUOUS
10
0.974072
20
0.790739
11
0.97313
21
0.790551
0
LINE
8
BLACK
6
CONTINUOUS
10
0.97313
20
0.790551
11
0.944587
21
0.790551
0
LINE
8
BLACK
6
CONTINUOUS
10
0.944587
20
0.790551
11
0.943645
21
0.790739
0
LINE
8
BLACK
6
CONTINUOUS
10
0.943645
20
0.790739
11
0.942847
21
0.791272
0
LINE
8
BLACK
6
CONTINUOUS
10
0.942847
20
0.791272
11
0.942313
21
0.79207
0
LINE
8
BLACK
6
CONTINUOUS
10
0.942313
20
0.79207
11
0.942126
21
0.793012
0
LINE
8
BLACK
6
CONTINUOUS
10
0.942126
20
0.793012
11
0.942126
21
0.797933
0
LINE
8
BLACK
6
CONTINUOUS
10
0.942126
20
0.797933
11
0.942313
21
0.798875
0
LINE
8
BLACK
6
CONTINUOUS
10
0.942313
20
0.798875
11
0.942847
21
0.799673
0
LINE
8
BLACK
6
CONTINUOUS
10
0.942847
20
0.799673
11
0.943645
21
0.800206
0
LINE
8
BLACK
6
CONTINUOUS
10
0.943645
20
0.800206
11
0.944587
21
0.800394
0
LINE
8
BLACK
6
CONTINUOUS
10
0.944587
20
0.800394
11
0.97313
21
0.800394
0
LINE
8
BLACK
6
CONTINUOUS
10
0.97313
20
0.800394
11
0.974072
21
0.800206
0
LINE
8
BLACK
6
CONTINUOUS
10
0.7275
20
0.7925
11
0.6725
21
0.7925
0
LINE
8
BLACK
6
CONTINUOUS
10
0.6725
20
0.7925
11
0.6725
21
0.8275
0
LINE
8
BLACK
6
CONTINUOUS
10
0.6725
20
0.8275
11
0.7275
21
0.8275
0
LINE
8
BLACK
6
CONTINUOUS
10
0.7275
20
0.8275
11
0.7275
21
0.7925
0
LINE
8
BLACK
6
CONTINUOUS
10
0.8775
20
0.795
11
0.8225
21
0.795
0
LINE
8
BLACK
6
CONTINUOUS
10
0.8225
20
0.795
11
0.8225
21
0.83
0
LINE
8
BLACK
6
CONTINUOUS
10
0.8225
20
0.83
11
0.8775
21
0.83
0
LINE
8
BLACK
6
CONTINUOUS
10
0.8775
20
0.83
11
0.8775
21
0.795
0
LINE
8
BLACK
6
CONTINUOUS
10
0.2525
20
0.795
11
0.1975
21
0.795
0
LINE
8
BLACK
6
CONTINUOUS
10
0.1975
20
0.795
11
0.1975
21
0.83
0
LINE
8
BLACK
6
CONTINUOUS
10
0.1975
20
0.83
11
0.2525
21
0.83
0
LINE
8
BLACK
6
CONTINUOUS
10
0.2525
20
0.83
11
0.2525
21
0.795
0
LINE
8
BLACK
6
CONTINUOUS
10
0.8025
20
0.795
11
0.7475
21
0.795
0
LINE
8
BLACK
6
CONTINUOUS
10
0.7475
20
0.795
11
0.7475
21
0.83
0
LINE
8
BLACK
6
CONTINUOUS
10
0.7475
20
0.83
11
0.8025
21
0.83
0
LINE
8
BLACK
6
CONTINUOUS
10
0.8025
20
0.83
11
0.8025
21
0.795
0
LINE
8
BLACK
6
CONTINUOUS
10
1.5825
20
0.804
11
1.5275
21
0.804
0
LINE
8
BLACK
6
CONTINUOUS
10
1.5275
20
0.804
11
1.5275
21
0.839
0
LINE
8
BLACK
6
CONTINUOUS
10
1.5275
20
0.839
11
1.5825
21
0.839
0
LINE
8
BLACK
6
CONTINUOUS
10
1.5825
20
0.839
11
1.5825
21
0.804
0
LINE
8
BLACK
6
CONTINUOUS
10
1.9325
20
0.804
11
1.8775
21
0.804
0
LINE
8
BLACK
6
CONTINUOUS
10
1.8775
20
0.804
11
1.8775
21
0.839
0
LINE
8
BLACK
6
CONTINUOUS
10
1.8775
20
0.839
11
1.9325
21
0.839
0
LINE
8
BLACK
6
CONTINUOUS
10
1.9325
20
0.839
11
1.9325
21
0.804
0
LINE
8
BLACK
6
CONTINUOUS
10
1.7825
20
0.804
11
1.7275
21
0.804
0
LINE
8
BLACK
6
CONTINUOUS
10
1.7275
20
0.804
11
1.7275
21
0.839
0
LINE
8
BLACK
6
CONTINUOUS
10
1.7275
20
0.839
11
1.7825
21
0.839
0
LINE
8
BLACK
6
CONTINUOUS
10
1.7825
20
0.839
11
1.7825
21
0.804
0
LINE
8
BLACK
6
CONTINUOUS
10
1.20636
20
0.819891
11
1.20715
21
0.819358
0
LINE
8
BLACK
6
CONTINUOUS
10
1.20715
20
0.819358
11
1.20769
21
0.81856
0
LINE
8
BLACK
6
CONTINUOUS
10
1.20769
20
0.81856
11
1.20787
21
0.817618
0
LINE
8
BLACK
6
CONTINUOUS
10
1.20787
20
0.817618
11
1.20787
21
0.812697
0
LINE
8
BLACK
6
CONTINUOUS
10
1.20787
20
0.812697
11
1.20769
21
0.811755
0
LINE
8
BLACK
6
CONTINUOUS
10
1.20769
20
0.811755
11
1.20715
21
0.810957
0
LINE
8
BLACK
6
CONTINUOUS
10
1.20715
20
0.810957
11
1.20636
21
0.810424
0
LINE
8
BLACK
6
CONTINUOUS
10
1.20636
20
0.810424
11
1.20541
21
0.810236
0
LINE
8
BLACK
6
CONTINUOUS
10
1.20541
20
0.810236
11
1.17687
21
0.810236
0
LINE
8
BLACK
6
CONTINUOUS
10
1.17687
20
0.810236
11
1.17593
21
0.810424
0
LINE
8
BLACK
6
CONTINUOUS
10
1.17593
20
0.810424
11
1.17513
21
0.810957
0
LINE
8
BLACK
6
CONTINUOUS
10
1.17513
20
0.810957
11
1.1746
21
0.811755
0
LINE
8
BLACK
6
CONTINUOUS
10
1.1746
20
0.811755
11
1.17441
21
0.812697
0
LINE
8
BLACK
6
CONTINUOUS
10
1.17441
20
0.812697
11
1.17441
21
0.817618
0
LINE
8
BLACK
6
CONTINUOUS
10
1.17441
20
0.817618
11
1.1746
21
0.81856
0
LINE
8
BLACK
6
CONTINUOUS
10
1.1746
20
0.81856
11
1.17513
21
0.819358
0
LINE
8
BLACK
6
CONTINUOUS
10
1.17513
20
0.819358
11
1.17593
21
0.819891
0
LINE
8
BLACK
6
CONTINUOUS
10
1.17593
20
0.819891
11
1.17687
21
0.820079
0
LINE
8
BLACK
6
CONTINUOUS
10
1.17687
20
0.820079
11
1.20541
21
0.820079
0
LINE
8
BLACK
6
CONTINUOUS
10
1.20541
20
0.820079
11
1.20636
21
0.819891
0
LINE
8
BLACK
6
CONTINUOUS
10
0.974072
20
0.819891
11
0.97487
21
0.819358
0
LINE
8
BLACK
6
CONTINUOUS
10
0.97487
20
0.819358
11
0.975403
21
0.81856
0
LINE
8
BLACK
6
CONTINUOUS
10
0.975403
20
0.81856
11
0.975591
21
0.817618
0
LINE
8
BLACK
6
CONTINUOUS
10
0.975591
20
0.817618
11
0.975591
21
0.812697
0
LINE
8
BLACK
6
CONTINUOUS
10
0.975591
20
0.812697
11
0.975403
21
0.811755
0
LINE
8
BLACK
6
CONTINUOUS
10
0.975403
20
0.811755
11
0.97487
21
0.810957
0
LINE
8
BLACK
6
CONTINUOUS
10
0.97487
20
0.810957
11
0.974072
21
0.810424
0
LINE
8
BLACK
6
CONTINUOUS
10
0.974072
20
0.810424
11
0.97313
21
0.810236
0
LINE
8
BLACK
6
CONTINUOUS
10
0.97313
20
0.810236
11
0.944587
21
0.810236
0
LINE
8
BLACK
6
CONTINUOUS
10
0.944587
20
0.810236
11
0.943645
21
0.810424
0
LINE
8
BLACK
6
CONTINUOUS
10
0.943645
20
0.810424
11
0.942847
21
0.810957
0
LINE
8
BLACK
6
CONTINUOUS
10
0.942847
20
0.810957
11
0.942313
21
0.811755
0
LINE
8
BLACK
6
CONTINUOUS
10
0.942313
20
0.811755
11
0.942126
21
0.812697
0
LINE
8
BLACK
6
CONTINUOUS
10
0.942126
20
0.812697
11
0.942126
21
0.817618
0
LINE
8
BLACK
6
CONTINUOUS
10
0.942126
20
0.817618
11
0.942313
21
0.81856
0
LINE
8
BLACK
6
CONTINUOUS
10
0.942313
20
0.81856
11
0.942847
21
0.819358
0
LINE
8
BLACK
6
CONTINUOUS
10
0.942847
20
0.819358
11
0.943645
21
0.819891
0
LINE
8
BLACK
6
CONTINUOUS
10
0.943645
20
0.819891
11
0.944587
21
0.820079
0
LINE
8
BLACK
6
CONTINUOUS
10
0.944587
20
0.820079
11
0.97313
21
0.820079
0
LINE
8
BLACK
6
CONTINUOUS
10
0.97313
20
0.820079
11
0.974072
21
0.819891
0
LINE
8
BLACK
6
CONTINUOUS
10
1.4025
20
0.82
11
1.3475
21
0.82
0
LINE
8
BLACK
6
CONTINUOUS
10
1.3475
20
0.82
11
1.3475
21
0.855
0
LINE
8
BLACK
6
CONTINUOUS
10
1.3475
20
0.855
11
1.4025
21
0.855
0
LINE
8
BLACK
6
CONTINUOUS
10
1.4025
20
0.855
11
1.4025
21
0.82
0
LINE
8
BLACK
6
CONTINUOUS
10
1.5025
20
0.82
11
1.4475
21
0.82
0
LINE
8
BLACK
6
CONTINUOUS
10
1.4475
20
0.82
11
1.4475
21
0.855
0
LINE
8
BLACK
6
CONTINUOUS
10
1.4475
20
0.855
11
1.5025
21
0.855
0
LINE
8
BLACK
6
CONTINUOUS
10
1.5025
20
0.855
11
1.5025
21
0.82
0
LINE
8
BLACK
6
CONTINUOUS
10
1.13701
20
0.882209
11
1.1402
21
0.880075
0
LINE
8
BLACK
6
CONTINUOUS
10
1.1402
20
0.880075
11
1.14233
21
0.876882
0
LINE
8
BLACK
6
CONTINUOUS
10
1.14233
20
0.876882
11
1.14308
21
0.873116
0
LINE
8
BLACK
6
CONTINUOUS
10
1.14308
20
0.873116
11
1.14308
21
0.837908
0
LINE
8
BLACK
6
CONTINUOUS
10
1.14308
20
0.837908
11
1.14233
21
0.834141
0
LINE
8
BLACK
6
CONTINUOUS
10
1.14233
20
0.834141
11
1.1402
21
0.830948
0
LINE
8
BLACK
6
CONTINUOUS
10
1.1402
20
0.830948
11
1.13701
21
0.828815
0
LINE
8
BLACK
6
CONTINUOUS
10
1.13701
20
0.828815
11
1.13324
21
0.828065
0
LINE
8
BLACK
6
CONTINUOUS
10
1.13324
20
0.828065
11
1.11125
21
0.828065
0
LINE
8
BLACK
6
CONTINUOUS
10
1.11125
20
0.828065
11
1.10748
21
0.828815
0
LINE
8
BLACK
6
CONTINUOUS
10
1.10748
20
0.828815
11
1.10429
21
0.830948
0
LINE
8
BLACK
6
CONTINUOUS
10
1.10429
20
0.830948
11
1.10215
21
0.834141
0
LINE
8
BLACK
6
CONTINUOUS
10
1.10215
20
0.834141
11
1.10141
21
0.837908
0
LINE
8
BLACK
6
CONTINUOUS
10
1.10141
20
0.837908
11
1.10141
21
0.873116
0
LINE
8
BLACK
6
CONTINUOUS
10
1.10141
20
0.873116
11
1.10215
21
0.876882
0
LINE
8
BLACK
6
CONTINUOUS
10
1.10215
20
0.876882
11
1.10429
21
0.880075
0
LINE
8
BLACK
6
CONTINUOUS
10
1.10429
20
0.880075
11
1.10748
21
0.882209
0
LINE
8
BLACK
6
CONTINUOUS
10
1.10748
20
0.882209
11
1.11125
21
0.882958
0
LINE
8
BLACK
6
CONTINUOUS
10
1.11125
20
0.882958
11
1.13324
21
0.882958
0
LINE
8
BLACK
6
CONTINUOUS
10
1.13324
20
0.882958
11
1.13701
21
0.882209
0
LINE
8
BLACK
6
CONTINUOUS
10
1.08976
20
0.882209
11
1.09296
21
0.880075
0
LINE
8
BLACK
6
CONTINUOUS
10
1.09296
20
0.880075
11
1.09509
21
0.876882
0
LINE
8
BLACK
6
CONTINUOUS
10
1.09509
20
0.876882
11
1.09584
21
0.873116
0
LINE
8
BLACK
6
CONTINUOUS
10
1.09584
20
0.873116
11
1.09584
21
0.837908
0
LINE
8
BLACK
6
CONTINUOUS
10
1.09584
20
0.837908
11
1.09509
21
0.834141
0
LINE
8
BLACK
6
CONTINUOUS
10
1.09509
20
0.834141
11
1.09296
21
0.830948
0
LINE
8
BLACK
6
CONTINUOUS
10
1.09296
20
0.830948
11
1.08976
21
0.828815
0
LINE
8
BLACK
6
CONTINUOUS
10
1.08976
20
0.828815
11
1.086
21
0.828065
0
LINE
8
BLACK
6
CONTINUOUS
10
1.086
20
0.828065
11
1.064
21
0.828065
0
LINE
8
BLACK
6
CONTINUOUS
10
1.064
20
0.828065
11
1.06024
21
0.828815
0
LINE
8
BLACK
6
CONTINUOUS
10
1.06024
20
0.828815
11
1.05704
21
0.830948
0
LINE
8
BLACK
6
CONTINUOUS
10
1.05704
20
0.830948
11
1.05491
21
0.834141
0
LINE
8
BLACK
6
CONTINUOUS
10
1.05491
20
0.834141
11
1.05416
21
0.837908
0
LINE
8
BLACK
6
CONTINUOUS
10
1.05416
20
0.837908
11
1.05416
21
0.873116
0
LINE
8
BLACK
6
CONTINUOUS
10
1.05416
20
0.873116
11
1.05491
21
0.876882
0
LINE
8
BLACK
6
CONTINUOUS
10
1.05491
20
0.876882
11
1.05704
21
0.880075
0
LINE
8
BLACK
6
CONTINUOUS
10
1.05704
20
0.880075
11
1.06024
21
0.882209
0
LINE
8
BLACK
6
CONTINUOUS
10
1.06024
20
0.882209
11
1.064
21
0.882958
0
LINE
8
BLACK
6
CONTINUOUS
10
1.064
20
0.882958
11
1.086
21
0.882958
0
LINE
8
BLACK
6
CONTINUOUS
10
1.086
20
0.882958
11
1.08976
21
0.882209
0
LINE
8
BLACK
6
CONTINUOUS
10
1.04252
20
0.882209
11
1.04571
21
0.880075
0
LINE
8
BLACK
6
CONTINUOUS
10
1.04571
20
0.880075
11
1.04785
21
0.876882
0
LINE
8
BLACK
6
CONTINUOUS
10
1.04785
20
0.876882
11
1.04859
21
0.873116
0
LINE
8
BLACK
6
CONTINUOUS
10
1.04859
20
0.873116
11
1.04859
21
0.837908
0
LINE
8
BLACK
6
CONTINUOUS
10
1.04859
20
0.837908
11
1.04785
21
0.834141
0
LINE
8
BLACK
6
CONTINUOUS
10
1.04785
20
0.834141
11
1.04571
21
0.830948
0
LINE
8
BLACK
6
CONTINUOUS
10
1.04571
20
0.830948
11
1.04252
21
0.828815
0
LINE
8
BLACK
6
CONTINUOUS
10
1.04252
20
0.828815
11
1.03875
21
0.828065
0
LINE
8
BLACK
6
CONTINUOUS
10
1.03875
20
0.828065
11
1.01676
21
0.828065
0
LINE
8
BLACK
6
CONTINUOUS
10
1.01676
20
0.828065
11
1.01299
21
0.828815
0
LINE
8
BLACK
6
CONTINUOUS
10
1.01299
20
0.828815
11
1.0098
21
0.830948
0
LINE
8
BLACK
6
CONTINUOUS
10
1.0098
20
0.830948
11
1.00767
21
0.834141
0
LINE
8
BLACK
6
CONTINUOUS
10
1.00767
20
0.834141
11
1.00692
21
0.837908
0
LINE
8
BLACK
6
CONTINUOUS
10
1.00692
20
0.837908
11
1.00692
21
0.873116
0
LINE
8
BLACK
6
CONTINUOUS
10
1.00692
20
0.873116
11
1.00767
21
0.876882
0
LINE
8
BLACK
6
CONTINUOUS
10
1.00767
20
0.876882
11
1.0098
21
0.880075
0
LINE
8
BLACK
6
CONTINUOUS
10
1.0098
20
0.880075
11
1.01299
21
0.882209
0
LINE
8
BLACK
6
CONTINUOUS
10
1.01299
20
0.882209
11
1.01676
21
0.882958
0
LINE
8
BLACK
6
CONTINUOUS
10
1.01676
20
0.882958
11
1.03875
21
0.882958
0
LINE
8
BLACK
6
CONTINUOUS
10
1.03875
20
0.882958
11
1.04252
21
0.882209
0
LINE
8
BLACK
6
CONTINUOUS
10
0.974072
20
0.839576
11
0.97487
21
0.839043
0
LINE
8
BLACK
6
CONTINUOUS
10
0.97487
20
0.839043
11
0.975403
21
0.838245
0
LINE
8
BLACK
6
CONTINUOUS
10
0.975403
20
0.838245
11
0.975591
21
0.837303
0
LINE
8
BLACK
6
CONTINUOUS
10
0.975591
20
0.837303
11
0.975591
21
0.832382
0
LINE
8
BLACK
6
CONTINUOUS
10
0.975591
20
0.832382
11
0.975403
21
0.83144
0
LINE
8
BLACK
6
CONTINUOUS
10
0.975403
20
0.83144
11
0.97487
21
0.830642
0
LINE
8
BLACK
6
CONTINUOUS
10
0.97487
20
0.830642
11
0.974072
21
0.830109
0
LINE
8
BLACK
6
CONTINUOUS
10
0.974072
20
0.830109
11
0.97313
21
0.829921
0
LINE
8
BLACK
6
CONTINUOUS
10
0.97313
20
0.829921
11
0.944587
21
0.829921
0
LINE
8
BLACK
6
CONTINUOUS
10
0.944587
20
0.829921
11
0.943645
21
0.830109
0
LINE
8
BLACK
6
CONTINUOUS
10
0.943645
20
0.830109
11
0.942847
21
0.830642
0
LINE
8
BLACK
6
CONTINUOUS
10
0.942847
20
0.830642
11
0.942313
21
0.83144
0
LINE
8
BLACK
6
CONTINUOUS
10
0.942313
20
0.83144
11
0.942126
21
0.832382
0
LINE
8
BLACK
6
CONTINUOUS
10
0.942126
20
0.832382
11
0.942126
21
0.837303
0
LINE
8
BLACK
6
CONTINUOUS
10
0.942126
20
0.837303
11
0.942313
21
0.838245
0
LINE
8
BLACK
6
CONTINUOUS
10
0.942313
20
0.838245
11
0.942847
21
0.839043
0
LINE
8
BLACK
6
CONTINUOUS
10
0.942847
20
0.839043
11
0.943645
21
0.839576
0
LINE
8
BLACK
6
CONTINUOUS
10
0.943645
20
0.839576
11
0.944587
21
0.839764
0
LINE
8
BLACK
6
CONTINUOUS
10
0.944587
20
0.839764
11
0.97313
21
0.839764
0
LINE
8
BLACK
6
CONTINUOUS
10
0.97313
20
0.839764
11
0.974072
21
0.839576
0
LINE
8
BLACK
6
CONTINUOUS
10
1.20636
20
0.839576
11
1.20715
21
0.839043
0
LINE
8
BLACK
6
CONTINUOUS
10
1.20715
20
0.839043
11
1.20769
21
0.838245
0
LINE
8
BLACK
6
CONTINUOUS
10
1.20769
20
0.838245
11
1.20787
21
0.837303
0
LINE
8
BLACK
6
CONTINUOUS
10
1.20787
20
0.837303
11
1.20787
21
0.832382
0
LINE
8
BLACK
6
CONTINUOUS
10
1.20787
20
0.832382
11
1.20769
21
0.83144
0
LINE
8
BLACK
6
CONTINUOUS
10
1.20769
20
0.83144
11
1.20715
21
0.830642
0
LINE
8
BLACK
6
CONTINUOUS
10
1.20715
20
0.830642
11
1.20636
21
0.830109
0
LINE
8
BLACK
6
CONTINUOUS
10
1.20636
20
0.830109
11
1.20541
21
0.829921
0
LINE
8
BLACK
6
CONTINUOUS
10
1.20541
20
0.829921
11
1.17687
21
0.829921
0
LINE
8
BLACK
6
CONTINUOUS
10
1.17687
20
0.829921
11
1.17593
21
0.830109
0
LINE
8
BLACK
6
CONTINUOUS
10
1.17593
20
0.830109
11
1.17513
21
0.830642
0
LINE
8
BLACK
6
CONTINUOUS
10
1.17513
20
0.830642
11
1.1746
21
0.83144
0
LINE
8
BLACK
6
CONTINUOUS
10
1.1746
20
0.83144
11
1.17441
21
0.832382
0
LINE
8
BLACK
6
CONTINUOUS
10
1.17441
20
0.832382
11
1.17441
21
0.837303
0
LINE
8
BLACK
6
CONTINUOUS
10
1.17441
20
0.837303
11
1.1746
21
0.838245
0
LINE
8
BLACK
6
CONTINUOUS
10
1.1746
20
0.838245
11
1.17513
21
0.839043
0
LINE
8
BLACK
6
CONTINUOUS
10
1.17513
20
0.839043
11
1.17593
21
0.839576
0
LINE
8
BLACK
6
CONTINUOUS
10
1.17593
20
0.839576
11
1.17687
21
0.839764
0
LINE
8
BLACK
6
CONTINUOUS
10
1.17687
20
0.839764
11
1.20541
21
0.839764
0
LINE
8
BLACK
6
CONTINUOUS
10
1.20541
20
0.839764
11
1.20636
21
0.839576
0
LINE
8
BLACK
6
CONTINUOUS
10
0.385
20
0.845
11
0.305
21
0.845
0
LINE
8
BLACK
6
CONTINUOUS
10
0.305
20
0.845
11
0.305
21
0.885
0
LINE
8
BLACK
6
CONTINUOUS
10
0.305
20
0.885
11
0.385
21
0.885
0
LINE
8
BLACK
6
CONTINUOUS
10
0.385
20
0.885
11
0.385
21
0.845
0
LINE
8
BLACK
6
CONTINUOUS
10
0.974072
20
0.859261
11
0.97487
21
0.858728
0
LINE
8
BLACK
6
CONTINUOUS
10
0.97487
20
0.858728
11
0.975403
21
0.85793
0
LINE
8
BLACK
6
CONTINUOUS
10
0.975403
20
0.85793
11
0.975591
21
0.856988
0
LINE
8
BLACK
6
CONTINUOUS
10
0.975591
20
0.856988
11
0.975591
21
0.852067
0
LINE
8
BLACK
6
CONTINUOUS
10
0.975591
20
0.852067
11
0.975403
21
0.851125
0
LINE
8
BLACK
6
CONTINUOUS
10
0.975403
20
0.851125
11
0.97487
21
0.850327
0
LINE
8
BLACK
6
CONTINUOUS
10
0.97487
20
0.850327
11
0.974072
21
0.849794
0
LINE
8
BLACK
6
CONTINUOUS
10
0.974072
20
0.849794
11
0.97313
21
0.849606
0
LINE
8
BLACK
6
CONTINUOUS
10
0.97313
20
0.849606
11
0.944587
21
0.849606
0
LINE
8
BLACK
6
CONTINUOUS
10
0.944587
20
0.849606
11
0.943645
21
0.849794
0
LINE
8
BLACK
6
CONTINUOUS
10
0.943645
20
0.849794
11
0.942847
21
0.850327
0
LINE
8
BLACK
6
CONTINUOUS
10
0.942847
20
0.850327
11
0.942313
21
0.851125
0
LINE
8
BLACK
6
CONTINUOUS
10
0.942313
20
0.851125
11
0.942126
21
0.852067
0
LINE
8
BLACK
6
CONTINUOUS
10
0.942126
20
0.852067
11
0.942126
21
0.856988
0
LINE
8
BLACK
6
CONTINUOUS
10
0.942126
20
0.856988
11
0.942313
21
0.85793
0
LINE
8
BLACK
6
CONTINUOUS
10
0.942313
20
0.85793
11
0.942847
21
0.858728
0
LINE
8
BLACK
6
CONTINUOUS
10
0.942847
20
0.858728
11
0.943645
21
0.859261
0
LINE
8
BLACK
6
CONTINUOUS
10
0.943645
20
0.859261
11
0.944587
21
0.859449
0
LINE
8
BLACK
6
CONTINUOUS
10
0.944587
20
0.859449
11
0.97313
21
0.859449
0
LINE
8
BLACK
6
CONTINUOUS
10
0.97313
20
0.859449
11
0.974072
21
0.859261
0
LINE
8
BLACK
6
CONTINUOUS
10
1.20636
20
0.859261
11
1.20715
21
0.858728
0
LINE
8
BLACK
6
CONTINUOUS
10
1.20715
20
0.858728
11
1.20769
21
0.85793
0
LINE
8
BLACK
6
CONTINUOUS
10
1.20769
20
0.85793
11
1.20787
21
0.856988
0
LINE
8
BLACK
6
CONTINUOUS
10
1.20787
20
0.856988
11
1.20787
21
0.852067
0
LINE
8
BLACK
6
CONTINUOUS
10
1.20787
20
0.852067
11
1.20769
21
0.851125
0
LINE
8
BLACK
6
CONTINUOUS
10
1.20769
20
0.851125
11
1.20715
21
0.850327
0
LINE
8
BLACK
6
CONTINUOUS
10
1.20715
20
0.850327
11
1.20636
21
0.849794
0
LINE
8
BLACK
6
CONTINUOUS
10
1.20636
20
0.849794
11
1.20541
21
0.849606
0
LINE
8
BLACK
6
CONTINUOUS
10
1.20541
20
0.849606
11
1.17687
21
0.849606
0
LINE
8
BLACK
6
CONTINUOUS
10
1.17687
20
0.849606
11
1.17593
21
0.849794
0
LINE
8
BLACK
6
CONTINUOUS
10
1.17593
20
0.849794
11
1.17513
21
0.850327
0
LINE
8
BLACK
6
CONTINUOUS
10
1.17513
20
0.850327
11
1.1746
21
0.851125
0
LINE
8
BLACK
6
CONTINUOUS
10
1.1746
20
0.851125
11
1.17441
21
0.852067
0
LINE
8
BLACK
6
CONTINUOUS
10
1.17441
20
0.852067
11
1.17441
21
0.856988
0
LINE
8
BLACK
6
CONTINUOUS
10
1.17441
20
0.856988
11
1.1746
21
0.85793
0
LINE
8
BLACK
6
CONTINUOUS
10
1.1746
20
0.85793
11
1.17513
21
0.858728
0
LINE
8
BLACK
6
CONTINUOUS
10
1.17513
20
0.858728
11
1.17593
21
0.859261
0
LINE
8
BLACK
6
CONTINUOUS
10
1.17593
20
0.859261
11
1.17687
21
0.859449
0
LINE
8
BLACK
6
CONTINUOUS
10
1.17687
20
0.859449
11
1.20541
21
0.859449
0
LINE
8
BLACK
6
CONTINUOUS
10
1.20541
20
0.859449
11
1.20636
21
0.859261
0
LINE
8
BLACK
6
CONTINUOUS
10
1.20636
20
0.878947
11
1.20715
21
0.878413
0
LINE
8
BLACK
6
CONTINUOUS
10
1.20715
20
0.878413
11
1.20769
21
0.877615
0
LINE
8
BLACK
6
CONTINUOUS
10
1.20769
20
0.877615
11
1.20787
21
0.876673
0
LINE
8
BLACK
6
CONTINUOUS
10
1.20787
20
0.876673
11
1.20787
21
0.871752
0
LINE
8
BLACK
6
CONTINUOUS
10
1.20787
20
0.871752
11
1.20769
21
0.87081
0
LINE
8
BLACK
6
CONTINUOUS
10
1.20769
20
0.87081
11
1.20715
21
0.870012
0
LINE
8
BLACK
6
CONTINUOUS
10
1.20715
20
0.870012
11
1.20636
21
0.869479
0
LINE
8
BLACK
6
CONTINUOUS
10
1.20636
20
0.869479
11
1.20541
21
0.869291
0
LINE
8
BLACK
6
CONTINUOUS
10
1.20541
20
0.869291
11
1.17687
21
0.869291
0
LINE
8
BLACK
6
CONTINUOUS
10
1.17687
20
0.869291
11
1.17593
21
0.869479
0
LINE
8
BLACK
6
CONTINUOUS
10
1.17593
20
0.869479
11
1.17513
21
0.870012
0
LINE
8
BLACK
6
CONTINUOUS
10
1.17513
20
0.870012
11
1.1746
21
0.87081
0
LINE
8
BLACK
6
CONTINUOUS
10
1.1746
20
0.87081
11
1.17441
21
0.871752
0
LINE
8
BLACK
6
CONTINUOUS
10
1.17441
20
0.871752
11
1.17441
21
0.876673
0
LINE
8
BLACK
6
CONTINUOUS
10
1.17441
20
0.876673
11
1.1746
21
0.877615
0
LINE
8
BLACK
6
CONTINUOUS
10
1.1746
20
0.877615
11
1.17513
21
0.878413
0
LINE
8
BLACK
6
CONTINUOUS
10
1.17513
20
0.878413
11
1.17593
21
0.878947
0
LINE
8
BLACK
6
CONTINUOUS
10
1.17593
20
0.878947
11
1.17687
21
0.879134
0
LINE
8
BLACK
6
CONTINUOUS
10
1.17687
20
0.879134
11
1.20541
21
0.879134
0
LINE
8
BLACK
6
CONTINUOUS
10
1.20541
20
0.879134
11
1.20636
21
0.878947
0
LINE
8
BLACK
6
CONTINUOUS
10
0.974072
20
0.878947
11
0.97487
21
0.878413
0
LINE
8
BLACK
6
CONTINUOUS
10
0.97487
20
0.878413
11
0.975403
21
0.877615
0
LINE
8
BLACK
6
CONTINUOUS
10
0.975403
20
0.877615
11
0.975591
21
0.876673
0
LINE
8
BLACK
6
CONTINUOUS
10
0.975591
20
0.876673
11
0.975591
21
0.871752
0
LINE
8
BLACK
6
CONTINUOUS
10
0.975591
20
0.871752
11
0.975403
21
0.87081
0
LINE
8
BLACK
6
CONTINUOUS
10
0.975403
20
0.87081
11
0.97487
21
0.870012
0
LINE
8
BLACK
6
CONTINUOUS
10
0.97487
20
0.870012
11
0.974072
21
0.869479
0
LINE
8
BLACK
6
CONTINUOUS
10
0.974072
20
0.869479
11
0.97313
21
0.869291
0
LINE
8
BLACK
6
CONTINUOUS
10
0.97313
20
0.869291
11
0.944587
21
0.869291
0
LINE
8
BLACK
6
CONTINUOUS
10
0.944587
20
0.869291
11
0.943645
21
0.869479
0
LINE
8
BLACK
6
CONTINUOUS
10
0.943645
20
0.869479
11
0.942847
21
0.870012
0
LINE
8
BLACK
6
CONTINUOUS
10
0.942847
20
0.870012
11
0.942313
21
0.87081
0
LINE
8
BLACK
6
CONTINUOUS
10
0.942313
20
0.87081
11
0.942126
21
0.871752
0
LINE
8
BLACK
6
CONTINUOUS
10
0.942126
20
0.871752
11
0.942126
21
0.876673
0
LINE
8
BLACK
6
CONTINUOUS
10
0.942126
20
0.876673
11
0.942313
21
0.877615
0
LINE
8
BLACK
6
CONTINUOUS
10
0.942313
20
0.877615
11
0.942847
21
0.878413
0
LINE
8
BLACK
6
CONTINUOUS
10
0.942847
20
0.878413
11
0.943645
21
0.878947
0
LINE
8
BLACK
6
CONTINUOUS
10
0.943645
20
0.878947
11
0.944587
21
0.879134
0
LINE
8
BLACK
6
CONTINUOUS
10
0.944587
20
0.879134
11
0.97313
21
0.879134
0
LINE
8
BLACK
6
CONTINUOUS
10
0.97313
20
0.879134
11
0.974072
21
0.878947
0
LINE
8
BLACK
6
CONTINUOUS
10
0.8025
20
0.87
11
0.7475
21
0.87
0
LINE
8
BLACK
6
CONTINUOUS
10
0.7475
20
0.87
11
0.7475
21
0.905
0
LINE
8
BLACK
6
CONTINUOUS
10
0.7475
20
0.905
11
0.8025
21
0.905
0
LINE
8
BLACK
6
CONTINUOUS
10
0.8025
20
0.905
11
0.8025
21
0.87
0
LINE
8
BLACK
6
CONTINUOUS
10
1.635
20
0.8815
11
1.6
21
0.8815
0
LINE
8
BLACK
6
CONTINUOUS
10
1.6
20
0.8815
11
1.6
21
0.9365
0
LINE
8
BLACK
6
CONTINUOUS
10
1.6
20
0.9365
11
1.635
21
0.9365
0
LINE
8
BLACK
6
CONTINUOUS
10
1.635
20
0.9365
11
1.635
21
0.8815
0
LINE
8
BLACK
6
CONTINUOUS
10
1.71
20
0.8815
11
1.675
21
0.8815
0
LINE
8
BLACK
6
CONTINUOUS
10
1.675
20
0.8815
11
1.675
21
0.9365
0
LINE
8
BLACK
6
CONTINUOUS
10
1.675
20
0.9365
11
1.71
21
0.9365
0
LINE
8
BLACK
6
CONTINUOUS
10
1.71
20
0.9365
11
1.71
21
0.8815
0
LINE
8
BLACK
6
CONTINUOUS
10
1.56
20
0.8815
11
1.525
21
0.8815
0
LINE
8
BLACK
6
CONTINUOUS
10
1.525
20
0.8815
11
1.525
21
0.9365
0
LINE
8
BLACK
6
CONTINUOUS
10
1.525
20
0.9365
11
1.56
21
0.9365
0
LINE
8
BLACK
6
CONTINUOUS
10
1.56
20
0.9365
11
1.56
21
0.8815
0
LINE
8
BLACK
6
CONTINUOUS
10
1.485
20
0.8815
11
1.45
21
0.8815
0
LINE
8
BLACK
6
CONTINUOUS
10
1.45
20
0.8815
11
1.45
21
0.9365
0
LINE
8
BLACK
6
CONTINUOUS
10
1.45
20
0.9365
11
1.485
21
0.9365
0
LINE
8
BLACK
6
CONTINUOUS
10
1.485
20
0.9365
11
1.485
21
0.8815
0
LINE
8
BLACK
6
CONTINUOUS
10
1.86
20
0.8815
11
1.825
21
0.8815
0
LINE
8
BLACK
6
CONTINUOUS
10
1.825
20
0.8815
11
1.825
21
0.9365
0
LINE
8
BLACK
6
CONTINUOUS
10
1.825
20
0.9365
11
1.86
21
0.9365
0
LINE
8
BLACK
6
CONTINUOUS
10
1.86
20
0.9365
11
1.86
21
0.8815
0
LINE
8
BLACK
6
CONTINUOUS
10
1.785
20
0.8815
11
1.75
21
0.8815
0
LINE
8
BLACK
6
CONTINUOUS
10
1.75
20
0.8815
11
1.75
21
0.9365
0
LINE
8
BLACK
6
CONTINUOUS
10
1.75
20
0.9365
11
1.785
21
0.9365
0
LINE
8
BLACK
6
CONTINUOUS
10
1.785
20
0.9365
11
1.785
21
0.8815
0
LINE
8
BLACK
6
CONTINUOUS
10
1.93
20
0.8825
11
1.895
21
0.8825
0
LINE
8
BLACK
6
CONTINUOUS
10
1.895
20
0.8825
11
1.895
21
0.9375
0
LINE
8
BLACK
6
CONTINUOUS
10
1.895
20
0.9375
11
1.93
21
0.9375
0
LINE
8
BLACK
6
CONTINUOUS
10
1.93
20
0.9375
11
1.93
21
0.8825
0
LINE
8
BLACK
6
CONTINUOUS
10
2.005
20
0.8825
11
1.97
21
0.8825
0
LINE
8
BLACK
6
CONTINUOUS
10
1.97
20
0.8825
11
1.97
21
0.9375
0
LINE
8
BLACK
6
CONTINUOUS
10
1.97
20
0.9375
11
2.005
21
0.9375
0
LINE
8
BLACK
6
CONTINUOUS
10
2.005
20
0.9375
11
2.005
21
0.8825
0
LINE
8
BLACK
6
CONTINUOUS
10
0.974072
20
0.898632
11
0.97487
21
0.898098
0
LINE
8
BLACK
6
CONTINUOUS
10
0.97487
20
0.898098
11
0.975403
21
0.8973
0
LINE
8
BLACK
6
CONTINUOUS
10
0.975403
20
0.8973
11
0.975591
21
0.896358
0
LINE
8
BLACK
6
CONTINUOUS
10
0.975591
20
0.896358
11
0.975591
21
0.891437
0
LINE
8
BLACK
6
CONTINUOUS
10
0.975591
20
0.891437
11
0.975403
21
0.890495
0
LINE
8
BLACK
6
CONTINUOUS
10
0.975403
20
0.890495
11
0.97487
21
0.889697
0
LINE
8
BLACK
6
CONTINUOUS
10
0.97487
20
0.889697
11
0.974072
21
0.889164
0
LINE
8
BLACK
6
CONTINUOUS
10
0.974072
20
0.889164
11
0.97313
21
0.888976
0
LINE
8
BLACK
6
CONTINUOUS
10
0.97313
20
0.888976
11
0.944587
21
0.888976
0
LINE
8
BLACK
6
CONTINUOUS
10
0.944587
20
0.888976
11
0.943645
21
0.889164
0
LINE
8
BLACK
6
CONTINUOUS
10
0.943645
20
0.889164
11
0.942847
21
0.889697
0
LINE
8
BLACK
6
CONTINUOUS
10
0.942847
20
0.889697
11
0.942313
21
0.890495
0
LINE
8
BLACK
6
CONTINUOUS
10
0.942313
20
0.890495
11
0.942126
21
0.891437
0
LINE
8
BLACK
6
CONTINUOUS
10
0.942126
20
0.891437
11
0.942126
21
0.896358
0
LINE
8
BLACK
6
CONTINUOUS
10
0.942126
20
0.896358
11
0.942313
21
0.8973
0
LINE
8
BLACK
6
CONTINUOUS
10
0.942313
20
0.8973
11
0.942847
21
0.898098
0
LINE
8
BLACK
6
CONTINUOUS
10
0.942847
20
0.898098
11
0.943645
21
0.898632
0
LINE
8
BLACK
6
CONTINUOUS
10
0.943645
20
0.898632
11
0.944587
21
0.898819
0
LINE
8
BLACK
6
CONTINUOUS
10
0.944587
20
0.898819
11
0.97313
21
0.898819
0
LINE
8
BLACK
6
CONTINUOUS
10
0.97313
20
0.898819
11
0.974072
21
0.898632
0
LINE
8
BLACK
6
CONTINUOUS
10
1.20636
20
0.898632
11
1.20715
21
0.898098
0
LINE
8
BLACK
6
CONTINUOUS
10
1.20715
20
0.898098
11
1.20769
21
0.8973
0
LINE
8
BLACK
6
CONTINUOUS
10
1.20769
20
0.8973
11
1.20787
21
0.896358
0
LINE
8
BLACK
6
CONTINUOUS
10
1.20787
20
0.896358
11
1.20787
21
0.891437
0
LINE
8
BLACK
6
CONTINUOUS
10
1.20787
20
0.891437
11
1.20769
21
0.890495
0
LINE
8
BLACK
6
CONTINUOUS
10
1.20769
20
0.890495
11
1.20715
21
0.889697
0
LINE
8
BLACK
6
CONTINUOUS
10
1.20715
20
0.889697
11
1.20636
21
0.889164
0
LINE
8
BLACK
6
CONTINUOUS
10
1.20636
20
0.889164
11
1.20541
21
0.888976
0
LINE
8
BLACK
6
CONTINUOUS
10
1.20541
20
0.888976
11
1.17687
21
0.888976
0
LINE
8
BLACK
6
CONTINUOUS
10
1.17687
20
0.888976
11
1.17593
21
0.889164
0
LINE
8
BLACK
6
CONTINUOUS
10
1.17593
20
0.889164
11
1.17513
21
0.889697
0
LINE
8
BLACK
6
CONTINUOUS
10
1.17513
20
0.889697
11
1.1746
21
0.890495
0
LINE
8
BLACK
6
CONTINUOUS
10
1.1746
20
0.890495
11
1.17441
21
0.891437
0
LINE
8
BLACK
6
CONTINUOUS
10
1.17441
20
0.891437
11
1.17441
21
0.896358
0
LINE
8
BLACK
6
CONTINUOUS
10
1.17441
20
0.896358
11
1.1746
21
0.8973
0
LINE
8
BLACK
6
CONTINUOUS
10
1.1746
20
0.8973
11
1.17513
21
0.898098
0
LINE
8
BLACK
6
CONTINUOUS
10
1.17513
20
0.898098
11
1.17593
21
0.898632
0
LINE
8
BLACK
6
CONTINUOUS
10
1.17593
20
0.898632
11
1.17687
21
0.898819
0
LINE
8
BLACK
6
CONTINUOUS
10
1.17687
20
0.898819
11
1.20541
21
0.898819
0
LINE
8
BLACK
6
CONTINUOUS
10
1.20541
20
0.898819
11
1.20636
21
0.898632
0
LINE
8
BLACK
6
CONTINUOUS
10
1.4025
20
0.895
11
1.3475
21
0.895
0
LINE
8
BLACK
6
CONTINUOUS
10
1.3475
20
0.895
11
1.3475
21
0.93
0
LINE
8
BLACK
6
CONTINUOUS
10
1.3475
20
0.93
11
1.4025
21
0.93
0
LINE
8
BLACK
6
CONTINUOUS
10
1.4025
20
0.93
11
1.4025
21
0.895
0
LINE
8
BLACK
6
CONTINUOUS
10
1.12761
20
0.938002
11
1.12841
21
0.937468
0
LINE
8
BLACK
6
CONTINUOUS
10
1.12841
20
0.937468
11
1.12895
21
0.93667
0
LINE
8
BLACK
6
CONTINUOUS
10
1.12895
20
0.93667
11
1.12913
21
0.935728
0
LINE
8
BLACK
6
CONTINUOUS
10
1.12913
20
0.935728
11
1.12913
21
0.907185
0
LINE
8
BLACK
6
CONTINUOUS
10
1.12913
20
0.907185
11
1.12895
21
0.906243
0
LINE
8
BLACK
6
CONTINUOUS
10
1.12895
20
0.906243
11
1.12841
21
0.905445
0
LINE
8
BLACK
6
CONTINUOUS
10
1.12841
20
0.905445
11
1.12761
21
0.904912
0
LINE
8
BLACK
6
CONTINUOUS
10
1.12761
20
0.904912
11
1.12667
21
0.904724
0
LINE
8
BLACK
6
CONTINUOUS
10
1.12667
20
0.904724
11
1.12175
21
0.904724
0
LINE
8
BLACK
6
CONTINUOUS
10
1.12175
20
0.904724
11
1.12081
21
0.904912
0
LINE
8
BLACK
6
CONTINUOUS
10
1.12081
20
0.904912
11
1.12001
21
0.905445
0
LINE
8
BLACK
6
CONTINUOUS
10
1.12001
20
0.905445
11
1.11948
21
0.906243
0
LINE
8
BLACK
6
CONTINUOUS
10
1.11948
20
0.906243
11
1.11929
21
0.907185
0
LINE
8
BLACK
6
CONTINUOUS
10
1.11929
20
0.907185
11
1.11929
21
0.935728
0
LINE
8
BLACK
6
CONTINUOUS
10
1.11929
20
0.935728
11
1.11948
21
0.93667
0
LINE
8
BLACK
6
CONTINUOUS
10
1.11948
20
0.93667
11
1.12001
21
0.937468
0
LINE
8
BLACK
6
CONTINUOUS
10
1.12001
20
0.937468
11
1.12081
21
0.938002
0
LINE
8
BLACK
6
CONTINUOUS
10
1.12081
20
0.938002
11
1.12175
21
0.938189
0
LINE
8
BLACK
6
CONTINUOUS
10
1.12175
20
0.938189
11
1.12667
21
0.938189
0
LINE
8
BLACK
6
CONTINUOUS
10
1.12667
20
0.938189
11
1.12761
21
0.938002
0
LINE
8
BLACK
6
CONTINUOUS
10
1.1473
20
0.938002
11
1.1481
21
0.937468
0
LINE
8
BLACK
6
CONTINUOUS
10
1.1481
20
0.937468
11
1.14863
21
0.93667
0
LINE
8
BLACK
6
CONTINUOUS
10
1.14863
20
0.93667
11
1.14882
21
0.935728
0
LINE
8
BLACK
6
CONTINUOUS
10
1.14882
20
0.935728
11
1.14882
21
0.907185
0
LINE
8
BLACK
6
CONTINUOUS
10
1.14882
20
0.907185
11
1.14863
21
0.906243
0
LINE
8
BLACK
6
CONTINUOUS
10
1.14863
20
0.906243
11
1.1481
21
0.905445
0
LINE
8
BLACK
6
CONTINUOUS
10
1.1481
20
0.905445
11
1.1473
21
0.904912
0
LINE
8
BLACK
6
CONTINUOUS
10
1.1473
20
0.904912
11
1.14636
21
0.904724
0
LINE
8
BLACK
6
CONTINUOUS
10
1.14636
20
0.904724
11
1.14144
21
0.904724
0
LINE
8
BLACK
6
CONTINUOUS
10
1.14144
20
0.904724
11
1.1405
21
0.904912
0
LINE
8
BLACK
6
CONTINUOUS
10
1.1405
20
0.904912
11
1.1397
21
0.905445
0
LINE
8
BLACK
6
CONTINUOUS
10
1.1397
20
0.905445
11
1.13916
21
0.906243
0
LINE
8
BLACK
6
CONTINUOUS
10
1.13916
20
0.906243
11
1.13898
21
0.907185
0
LINE
8
BLACK
6
CONTINUOUS
10
1.13898
20
0.907185
11
1.13898
21
0.935728
0
LINE
8
BLACK
6
CONTINUOUS
10
1.13898
20
0.935728
11
1.13916
21
0.93667
0
LINE
8
BLACK
6
CONTINUOUS
10
1.13916
20
0.93667
11
1.1397
21
0.937468
0
LINE
8
BLACK
6
CONTINUOUS
10
1.1397
20
0.937468
11
1.1405
21
0.938002
0
LINE
8
BLACK
6
CONTINUOUS
10
1.1405
20
0.938002
11
1.14144
21
0.938189
0
LINE
8
BLACK
6
CONTINUOUS
10
1.14144
20
0.938189
11
1.14636
21
0.938189
0
LINE
8
BLACK
6
CONTINUOUS
10
1.14636
20
0.938189
11
1.1473
21
0.938002
0
LINE
8
BLACK
6
CONTINUOUS
10
1.16698
20
0.938002
11
1.16778
21
0.937468
0
LINE
8
BLACK
6
CONTINUOUS
10
1.16778
20
0.937468
11
1.16832
21
0.93667
0
LINE
8
BLACK
6
CONTINUOUS
10
1.16832
20
0.93667
11
1.1685
21
0.935728
0
LINE
8
BLACK
6
CONTINUOUS
10
1.1685
20
0.935728
11
1.1685
21
0.907185
0
LINE
8
BLACK
6
CONTINUOUS
10
1.1685
20
0.907185
11
1.16832
21
0.906243
0
LINE
8
BLACK
6
CONTINUOUS
10
1.16832
20
0.906243
11
1.16778
21
0.905445
0
LINE
8
BLACK
6
CONTINUOUS
10
1.16778
20
0.905445
11
1.16698
21
0.904912
0
LINE
8
BLACK
6
CONTINUOUS
10
1.16698
20
0.904912
11
1.16604
21
0.904724
0
LINE
8
BLACK
6
CONTINUOUS
10
1.16604
20
0.904724
11
1.16112
21
0.904724
0
LINE
8
BLACK
6
CONTINUOUS
10
1.16112
20
0.904724
11
1.16018
21
0.904912
0
LINE
8
BLACK
6
CONTINUOUS
10
1.16018
20
0.904912
11
1.15938
21
0.905445
0
LINE
8
BLACK
6
CONTINUOUS
10
1.15938
20
0.905445
11
1.15885
21
0.906243
0
LINE
8
BLACK
6
CONTINUOUS
10
1.15885
20
0.906243
11
1.15866
21
0.907185
0
LINE
8
BLACK
6
CONTINUOUS
10
1.15866
20
0.907185
11
1.15866
21
0.935728
0
LINE
8
BLACK
6
CONTINUOUS
10
1.15866
20
0.935728
11
1.15885
21
0.93667
0
LINE
8
BLACK
6
CONTINUOUS
10
1.15885
20
0.93667
11
1.15938
21
0.937468
0
LINE
8
BLACK
6
CONTINUOUS
10
1.15938
20
0.937468
11
1.16018
21
0.938002
0
LINE
8
BLACK
6
CONTINUOUS
10
1.16018
20
0.938002
11
1.16112
21
0.938189
0
LINE
8
BLACK
6
CONTINUOUS
10
1.16112
20
0.938189
11
1.16604
21
0.938189
0
LINE
8
BLACK
6
CONTINUOUS
10
1.16604
20
0.938189
11
1.16698
21
0.938002
0
LINE
8
BLACK
6
CONTINUOUS
10
1.10793
20
0.938002
11
1.10873
21
0.937468
0
LINE
8
BLACK
6
CONTINUOUS
10
1.10873
20
0.937468
11
1.10926
21
0.93667
0
LINE
8
BLACK
6
CONTINUOUS
10
1.10926
20
0.93667
11
1.10945
21
0.935728
0
LINE
8
BLACK
6
CONTINUOUS
10
1.10945
20
0.935728
11
1.10945
21
0.907185
0
LINE
8
BLACK
6
CONTINUOUS
10
1.10945
20
0.907185
11
1.10926
21
0.906243
0
LINE
8
BLACK
6
CONTINUOUS
10
1.10926
20
0.906243
11
1.10873
21
0.905445
0
LINE
8
BLACK
6
CONTINUOUS
10
1.10873
20
0.905445
11
1.10793
21
0.904912
0
LINE
8
BLACK
6
CONTINUOUS
10
1.10793
20
0.904912
11
1.10699
21
0.904724
0
LINE
8
BLACK
6
CONTINUOUS
10
1.10699
20
0.904724
11
1.10207
21
0.904724
0
LINE
8
BLACK
6
CONTINUOUS
10
1.10207
20
0.904724
11
1.10113
21
0.904912
0
LINE
8
BLACK
6
CONTINUOUS
10
1.10113
20
0.904912
11
1.10033
21
0.905445
0
LINE
8
BLACK
6
CONTINUOUS
10
1.10033
20
0.905445
11
1.09979
21
0.906243
0
LINE
8
BLACK
6
CONTINUOUS
10
1.09979
20
0.906243
11
1.09961
21
0.907185
0
LINE
8
BLACK
6
CONTINUOUS
10
1.09961
20
0.907185
11
1.09961
21
0.935728
0
LINE
8
BLACK
6
CONTINUOUS
10
1.09961
20
0.935728
11
1.09979
21
0.93667
0
LINE
8
BLACK
6
CONTINUOUS
10
1.09979
20
0.93667
11
1.10033
21
0.937468
0
LINE
8
BLACK
6
CONTINUOUS
10
1.10033
20
0.937468
11
1.10113
21
0.938002
0
LINE
8
BLACK
6
CONTINUOUS
10
1.10113
20
0.938002
11
1.10207
21
0.938189
0
LINE
8
BLACK
6
CONTINUOUS
10
1.10207
20
0.938189
11
1.10699
21
0.938189
0
LINE
8
BLACK
6
CONTINUOUS
10
1.10699
20
0.938189
11
1.10793
21
0.938002
0
LINE
8
BLACK
6
CONTINUOUS
10
1.08824
20
0.938002
11
1.08904
21
0.937468
0
LINE
8
BLACK
6
CONTINUOUS
10
1.08904
20
0.937468
11
1.08958
21
0.93667
0
LINE
8
BLACK
6
CONTINUOUS
10
1.08958
20
0.93667
11
1.08976
21
0.935728
0
LINE
8
BLACK
6
CONTINUOUS
10
1.08976
20
0.935728
11
1.08976
21
0.907185
0
LINE
8
BLACK
6
CONTINUOUS
10
1.08976
20
0.907185
11
1.08958
21
0.906243
0
LINE
8
BLACK
6
CONTINUOUS
10
1.08958
20
0.906243
11
1.08904
21
0.905445
0
LINE
8
BLACK
6
CONTINUOUS
10
1.08904
20
0.905445
11
1.08824
21
0.904912
0
LINE
8
BLACK
6
CONTINUOUS
10
1.08824
20
0.904912
11
1.0873
21
0.904724
0
LINE
8
BLACK
6
CONTINUOUS
10
1.0873
20
0.904724
11
1.08238
21
0.904724
0
LINE
8
BLACK
6
CONTINUOUS
10
1.08238
20
0.904724
11
1.08144
21
0.904912
0
LINE
8
BLACK
6
CONTINUOUS
10
1.08144
20
0.904912
11
1.08064
21
0.905445
0
LINE
8
BLACK
6
CONTINUOUS
10
1.08064
20
0.905445
11
1.08011
21
0.906243
0
LINE
8
BLACK
6
CONTINUOUS
10
1.08011
20
0.906243
11
1.07992
21
0.907185
0
LINE
8
BLACK
6
CONTINUOUS
10
1.07992
20
0.907185
11
1.07992
21
0.935728
0
LINE
8
BLACK
6
CONTINUOUS
10
1.07992
20
0.935728
11
1.08011
21
0.93667
0
LINE
8
BLACK
6
CONTINUOUS
10
1.08011
20
0.93667
11
1.08064
21
0.937468
0
LINE
8
BLACK
6
CONTINUOUS
10
1.08064
20
0.937468
11
1.08144
21
0.938002
0
LINE
8
BLACK
6
CONTINUOUS
10
1.08144
20
0.938002
11
1.08238
21
0.938189
0
LINE
8
BLACK
6
CONTINUOUS
10
1.08238
20
0.938189
11
1.0873
21
0.938189
0
LINE
8
BLACK
6
CONTINUOUS
10
1.0873
20
0.938189
11
1.08824
21
0.938002
0
LINE
8
BLACK
6
CONTINUOUS
10
1.06856
20
0.938002
11
1.06936
21
0.937468
0
LINE
8
BLACK
6
CONTINUOUS
10
1.06936
20
0.937468
11
1.06989
21
0.93667
0
LINE
8
BLACK
6
CONTINUOUS
10
1.06989
20
0.93667
11
1.07008
21
0.935728
0
LINE
8
BLACK
6
CONTINUOUS
10
1.07008
20
0.935728
11
1.07008
21
0.907185
0
LINE
8
BLACK
6
CONTINUOUS
10
1.07008
20
0.907185
11
1.06989
21
0.906243
0
LINE
8
BLACK
6
CONTINUOUS
10
1.06989
20
0.906243
11
1.06936
21
0.905445
0
LINE
8
BLACK
6
CONTINUOUS
10
1.06936
20
0.905445
11
1.06856
21
0.904912
0
LINE
8
BLACK
6
CONTINUOUS
10
1.06856
20
0.904912
11
1.06762
21
0.904724
0
LINE
8
BLACK
6
CONTINUOUS
10
1.06762
20
0.904724
11
1.0627
21
0.904724
0
LINE
8
BLACK
6
CONTINUOUS
10
1.0627
20
0.904724
11
1.06176
21
0.904912
0
LINE
8
BLACK
6
CONTINUOUS
10
1.06176
20
0.904912
11
1.06096
21
0.905445
0
LINE
8
BLACK
6
CONTINUOUS
10
1.06096
20
0.905445
11
1.06042
21
0.906243
0
LINE
8
BLACK
6
CONTINUOUS
10
1.06042
20
0.906243
11
1.06024
21
0.907185
0
LINE
8
BLACK
6
CONTINUOUS
10
1.06024
20
0.907185
11
1.06024
21
0.935728
0
LINE
8
BLACK
6
CONTINUOUS
10
1.06024
20
0.935728
11
1.06042
21
0.93667
0
LINE
8
BLACK
6
CONTINUOUS
10
1.06042
20
0.93667
11
1.06096
21
0.937468
0
LINE
8
BLACK
6
CONTINUOUS
10
1.06096
20
0.937468
11
1.06176
21
0.938002
0
LINE
8
BLACK
6
CONTINUOUS
10
1.06176
20
0.938002
11
1.0627
21
0.938189
0
LINE
8
BLACK
6
CONTINUOUS
10
1.0627
20
0.938189
11
1.06762
21
0.938189
0
LINE
8
BLACK
6
CONTINUOUS
10
1.06762
20
0.938189
11
1.06856
21
0.938002
0
LINE
8
BLACK
6
CONTINUOUS
10
1.04887
20
0.938002
11
1.04967
21
0.937468
0
LINE
8
BLACK
6
CONTINUOUS
10
1.04967
20
0.937468
11
1.05021
21
0.93667
0
LINE
8
BLACK
6
CONTINUOUS
10
1.05021
20
0.93667
11
1.05039
21
0.935728
0
LINE
8
BLACK
6
CONTINUOUS
10
1.05039
20
0.935728
11
1.05039
21
0.907185
0
LINE
8
BLACK
6
CONTINUOUS
10
1.05039
20
0.907185
11
1.05021
21
0.906243
0
LINE
8
BLACK
6
CONTINUOUS
10
1.05021
20
0.906243
11
1.04967
21
0.905445
0
LINE
8
BLACK
6
CONTINUOUS
10
1.04967
20
0.905445
11
1.04887
21
0.904912
0
LINE
8
BLACK
6
CONTINUOUS
10
1.04887
20
0.904912
11
1.04793
21
0.904724
0
LINE
8
BLACK
6
CONTINUOUS
10
1.04793
20
0.904724
11
1.04301
21
0.904724
0
LINE
8
BLACK
6
CONTINUOUS
10
1.04301
20
0.904724
11
1.04207
21
0.904912
0
LINE
8
BLACK
6
CONTINUOUS
10
1.04207
20
0.904912
11
1.04127
21
0.905445
0
LINE
8
BLACK
6
CONTINUOUS
10
1.04127
20
0.905445
11
1.04074
21
0.906243
0
LINE
8
BLACK
6
CONTINUOUS
10
1.04074
20
0.906243
11
1.04055
21
0.907185
0
LINE
8
BLACK
6
CONTINUOUS
10
1.04055
20
0.907185
11
1.04055
21
0.935728
0
LINE
8
BLACK
6
CONTINUOUS
10
1.04055
20
0.935728
11
1.04074
21
0.93667
0
LINE
8
BLACK
6
CONTINUOUS
10
1.04074
20
0.93667
11
1.04127
21
0.937468
0
LINE
8
BLACK
6
CONTINUOUS
10
1.04127
20
0.937468
11
1.04207
21
0.938002
0
LINE
8
BLACK
6
CONTINUOUS
10
1.04207
20
0.938002
11
1.04301
21
0.938189
0
LINE
8
BLACK
6
CONTINUOUS
10
1.04301
20
0.938189
11
1.04793
21
0.938189
0
LINE
8
BLACK
6
CONTINUOUS
10
1.04793
20
0.938189
11
1.04887
21
0.938002
0
LINE
8
BLACK
6
CONTINUOUS
10
1.02919
20
0.938002
11
1.02999
21
0.937468
0
LINE
8
BLACK
6
CONTINUOUS
10
1.02999
20
0.937468
11
1.03052
21
0.93667
0
LINE
8
BLACK
6
CONTINUOUS
10
1.03052
20
0.93667
11
1.03071
21
0.935728
0
LINE
8
BLACK
6
CONTINUOUS
10
1.03071
20
0.935728
11
1.03071
21
0.907185
0
LINE
8
BLACK
6
CONTINUOUS
10
1.03071
20
0.907185
11
1.03052
21
0.906243
0
LINE
8
BLACK
6
CONTINUOUS
10
1.03052
20
0.906243
11
1.02999
21
0.905445
0
LINE
8
BLACK
6
CONTINUOUS
10
1.02999
20
0.905445
11
1.02919
21
0.904912
0
LINE
8
BLACK
6
CONTINUOUS
10
1.02919
20
0.904912
11
1.02825
21
0.904724
0
LINE
8
BLACK
6
CONTINUOUS
10
1.02825
20
0.904724
11
1.02333
21
0.904724
0
LINE
8
BLACK
6
CONTINUOUS
10
1.02333
20
0.904724
11
1.02239
21
0.904912
0
LINE
8
BLACK
6
CONTINUOUS
10
1.02239
20
0.904912
11
1.02159
21
0.905445
0
LINE
8
BLACK
6
CONTINUOUS
10
1.02159
20
0.905445
11
1.02105
21
0.906243
0
LINE
8
BLACK
6
CONTINUOUS
10
1.02105
20
0.906243
11
1.02087
21
0.907185
0
LINE
8
BLACK
6
CONTINUOUS
10
1.02087
20
0.907185
11
1.02087
21
0.935728
0
LINE
8
BLACK
6
CONTINUOUS
10
1.02087
20
0.935728
11
1.02105
21
0.93667
0
LINE
8
BLACK
6
CONTINUOUS
10
1.02105
20
0.93667
11
1.02159
21
0.937468
0
LINE
8
BLACK
6
CONTINUOUS
10
1.02159
20
0.937468
11
1.02239
21
0.938002
0
LINE
8
BLACK
6
CONTINUOUS
10
1.02239
20
0.938002
11
1.02333
21
0.938189
0
LINE
8
BLACK
6
CONTINUOUS
10
1.02333
20
0.938189
11
1.02825
21
0.938189
0
LINE
8
BLACK
6
CONTINUOUS
10
1.02825
20
0.938189
11
1.02919
21
0.938002
0
LINE
8
BLACK
6
CONTINUOUS
10
1.0095
20
0.938002
11
1.0103
21
0.937468
0
LINE
8
BLACK
6
CONTINUOUS
10
1.0103
20
0.937468
11
1.01084
21
0.93667
0
LINE
8
BLACK
6
CONTINUOUS
10
1.01084
20
0.93667
11
1.01102
21
0.935728
0
LINE
8
BLACK
6
CONTINUOUS
10
1.01102
20
0.935728
11
1.01102
21
0.907185
0
LINE
8
BLACK
6
CONTINUOUS
10
1.01102
20
0.907185
11
1.01084
21
0.906243
0
LINE
8
BLACK
6
CONTINUOUS
10
1.01084
20
0.906243
11
1.0103
21
0.905445
0
LINE
8
BLACK
6
CONTINUOUS
10
1.0103
20
0.905445
11
1.0095
21
0.904912
0
LINE
8
BLACK
6
CONTINUOUS
10
1.0095
20
0.904912
11
1.00856
21
0.904724
0
LINE
8
BLACK
6
CONTINUOUS
10
1.00856
20
0.904724
11
1.00364
21
0.904724
0
LINE
8
BLACK
6
CONTINUOUS
10
1.00364
20
0.904724
11
1.0027
21
0.904912
0
LINE
8
BLACK
6
CONTINUOUS
10
1.0027
20
0.904912
11
1.0019
21
0.905445
0
LINE
8
BLACK
6
CONTINUOUS
10
1.0019
20
0.905445
11
1.00137
21
0.906243
0
LINE
8
BLACK
6
CONTINUOUS
10
1.00137
20
0.906243
11
1.00118
21
0.907185
0
LINE
8
BLACK
6
CONTINUOUS
10
1.00118
20
0.907185
11
1.00118
21
0.935728
0
LINE
8
BLACK
6
CONTINUOUS
10
1.00118
20
0.935728
11
1.00137
21
0.93667
0
LINE
8
BLACK
6
CONTINUOUS
10
1.00137
20
0.93667
11
1.0019
21
0.937468
0
LINE
8
BLACK
6
CONTINUOUS
10
1.0019
20
0.937468
11
1.0027
21
0.938002
0
LINE
8
BLACK
6
CONTINUOUS
10
1.0027
20
0.938002
11
1.00364
21
0.938189
0
LINE
8
BLACK
6
CONTINUOUS
10
1.00364
20
0.938189
11
1.00856
21
0.938189
0
LINE
8
BLACK
6
CONTINUOUS
10
1.00856
20
0.938189
11
1.0095
21
0.938002
0
LINE
8
BLACK
6
CONTINUOUS
10
0.98982
20
0.938002
11
0.990618
21
0.937468
0
LINE
8
BLACK
6
CONTINUOUS
10
0.990618
20
0.937468
11
0.991151
21
0.93667
0
LINE
8
BLACK
6
CONTINUOUS
10
0.991151
20
0.93667
11
0.991339
21
0.935728
0
LINE
8
BLACK
6
CONTINUOUS
10
0.991339
20
0.935728
11
0.991339
21
0.907185
0
LINE
8
BLACK
6
CONTINUOUS
10
0.991339
20
0.907185
11
0.991151
21
0.906243
0
LINE
8
BLACK
6
CONTINUOUS
10
0.991151
20
0.906243
11
0.990618
21
0.905445
0
LINE
8
BLACK
6
CONTINUOUS
10
0.990618
20
0.905445
11
0.98982
21
0.904912
0
LINE
8
BLACK
6
CONTINUOUS
10
0.98982
20
0.904912
11
0.988878
21
0.904724
0
LINE
8
BLACK
6
CONTINUOUS
10
0.988878
20
0.904724
11
0.983957
21
0.904724
0
LINE
8
BLACK
6
CONTINUOUS
10
0.983957
20
0.904724
11
0.983015
21
0.904912
0
LINE
8
BLACK
6
CONTINUOUS
10
0.983015
20
0.904912
11
0.982217
21
0.905445
0
LINE
8
BLACK
6
CONTINUOUS
10
0.982217
20
0.905445
11
0.981683
21
0.906243
0
LINE
8
BLACK
6
CONTINUOUS
10
0.981683
20
0.906243
11
0.981496
21
0.907185
0
LINE
8
BLACK
6
CONTINUOUS
10
0.981496
20
0.907185
11
0.981496
21
0.935728
0
LINE
8
BLACK
6
CONTINUOUS
10
0.981496
20
0.935728
11
0.981683
21
0.93667
0
LINE
8
BLACK
6
CONTINUOUS
10
0.981683
20
0.93667
11
0.982217
21
0.937468
0
LINE
8
BLACK
6
CONTINUOUS
10
0.982217
20
0.937468
11
0.983015
21
0.938002
0
LINE
8
BLACK
6
CONTINUOUS
10
0.983015
20
0.938002
11
0.983957
21
0.938189
0
LINE
8
BLACK
6
CONTINUOUS
10
0.983957
20
0.938189
11
0.988878
21
0.938189
0
LINE
8
BLACK
6
CONTINUOUS
10
0.988878
20
0.938189
11
0.98982
21
0.938002
0
LINE
8
BLACK
6
CONTINUOUS
10
0.8025
20
0.945
11
0.7475
21
0.945
0
LINE
8
BLACK
6
CONTINUOUS
10
0.7475
20
0.945
11
0.7475
21
0.98
0
LINE
8
BLACK
6
CONTINUOUS
10
0.7475
20
0.98
11
0.8025
21
0.98
0
LINE
8
BLACK
6
CONTINUOUS
10
0.8025
20
0.98
11
0.8025
21
0.945
0
LINE
8
BLACK
6
CONTINUOUS
10
0.4325
20
0.9525
11
0.3975
21
0.9525
0
LINE
8
BLACK
6
CONTINUOUS
10
0.3975
20
0.9525
11
0.3975
21
1.0075
0
LINE
8
BLACK
6
CONTINUOUS
10
0.3975
20
1.0075
11
0.4325
21
1.0075
0
LINE
8
BLACK
6
CONTINUOUS
10
0.4325
20
1.0075
11
0.4325
21
0.9525
0
LINE
8
BLACK
6
CONTINUOUS
10
0.5075
20
0.9525
11
0.4725
21
0.9525
0
LINE
8
BLACK
6
CONTINUOUS
10
0.4725
20
0.9525
11
0.4725
21
1.0075
0
LINE
8
BLACK
6
CONTINUOUS
10
0.4725
20
1.0075
11
0.5075
21
1.0075
0
LINE
8
BLACK
6
CONTINUOUS
10
0.5075
20
1.0075
11
0.5075
21
0.9525
0
LINE
8
BLACK
6
CONTINUOUS
10
0.358465
20
0.980512
11
0.291535
21
0.980512
0
LINE
8
BLACK
6
CONTINUOUS
10
0.291535
20
0.980512
11
0.291535
21
1.03169
0
LINE
8
BLACK
6
CONTINUOUS
10
0.291535
20
1.03169
11
0.358465
21
1.03169
0
LINE
8
BLACK
6
CONTINUOUS
10
0.358465
20
1.03169
11
0.358465
21
0.980512
0
LINE
8
BLACK
6
CONTINUOUS
10
0.84126
20
1.01457
11
0.80189
21
1.01457
0
LINE
8
BLACK
6
CONTINUOUS
10
0.80189
20
1.01457
11
0.80189
21
1.08543
0
LINE
8
BLACK
6
CONTINUOUS
10
0.80189
20
1.08543
11
0.84126
21
1.08543
0
LINE
8
BLACK
6
CONTINUOUS
10
0.84126
20
1.08543
11
0.84126
21
1.01457
0
LINE
8
BLACK
6
CONTINUOUS
10
0.939685
20
1.01457
11
0.900315
21
1.01457
0
LINE
8
BLACK
6
CONTINUOUS
10
0.900315
20
1.01457
11
0.900315
21
1.08543
0
LINE
8
BLACK
6
CONTINUOUS
10
0.900315
20
1.08543
11
0.939685
21
1.08543
0
LINE
8
BLACK
6
CONTINUOUS
10
0.939685
20
1.08543
11
0.939685
21
1.01457
0
LINE
8
BLACK
6
CONTINUOUS
10
1.83
20
1.0225
11
1.795
21
1.0225
0
LINE
8
BLACK
6
CONTINUOUS
10
1.795
20
1.0225
11
1.795
21
1.0775
0
LINE
8
BLACK
6
CONTINUOUS
10
1.795
20
1.0775
11
1.83
21
1.0775
0
LINE
8
BLACK
6
CONTINUOUS
10
1.83
20
1.0775
11
1.83
21
1.0225
0
LINE
8
BLACK
6
CONTINUOUS
10
1.605
20
1.0225
11
1.57
21
1.0225
0
LINE
8
BLACK
6
CONTINUOUS
10
1.57
20
1.0225
11
1.57
21
1.0775
0
LINE
8
BLACK
6
CONTINUOUS
10
1.57
20
1.0775
11
1.605
21
1.0775
0
LINE
8
BLACK
6
CONTINUOUS
10
1.605
20
1.0775
11
1.605
21
1.0225
0
LINE
8
BLACK
6
CONTINUOUS
10
1.68
20
1.0225
11
1.645
21
1.0225
0
LINE
8
BLACK
6
CONTINUOUS
10
1.645
20
1.0225
11
1.645
21
1.0775
0
LINE
8
BLACK
6
CONTINUOUS
10
1.645
20
1.0775
11
1.68
21
1.0775
0
LINE
8
BLACK
6
CONTINUOUS
10
1.68
20
1.0775
11
1.68
21
1.0225
0
LINE
8
BLACK
6
CONTINUOUS
10
1.755
20
1.0225
11
1.72
21
1.0225
0
LINE
8
BLACK
6
CONTINUOUS
10
1.72
20
1.0225
11
1.72
21
1.0775
0
LINE
8
BLACK
6
CONTINUOUS
10
1.72
20
1.0775
11
1.755
21
1.0775
0
LINE
8
BLACK
6
CONTINUOUS
10
1.755
20
1.0775
11
1.755
21
1.0225
0
LINE
8
BLACK
6
CONTINUOUS
10
1.98
20
1.0225
11
1.945
21
1.0225
0
LINE
8
BLACK
6
CONTINUOUS
10
1.945
20
1.0225
11
1.945
21
1.0775
0
LINE
8
BLACK
6
CONTINUOUS
10
1.945
20
1.0775
11
1.98
21
1.0775
0
LINE
8
BLACK
6
CONTINUOUS
10
1.98
20
1.0775
11
1.98
21
1.0225
0
LINE
8
BLACK
6
CONTINUOUS
10
1.905
20
1.0225
11
1.87
21
1.0225
0
LINE
8
BLACK
6
CONTINUOUS
10
1.87
20
1.0225
11
1.87
21
1.0775
0
LINE
8
BLACK
6
CONTINUOUS
10
1.87
20
1.0775
11
1.905
21
1.0775
0
LINE
8
BLACK
6
CONTINUOUS
10
1.905
20
1.0775
11
1.905
21
1.0225
0
LINE
8
BLACK
6
CONTINUOUS
10
1.53
20
1.0225
11
1.495
21
1.0225
0
LINE
8
BLACK
6
CONTINUOUS
10
1.495
20
1.0225
11
1.495
21
1.0775
0
LINE
8
BLACK
6
CONTINUOUS
10
1.495
20
1.0775
11
1.53
21
1.0775
0
LINE
8
BLACK
6
CONTINUOUS
10
1.53
20
1.0775
11
1.53
21
1.0225
0
LINE
8
BLACK
6
CONTINUOUS
10
1.455
20
1.0225
11
1.42
21
1.0225
0
LINE
8
BLACK
6
CONTINUOUS
10
1.42
20
1.0225
11
1.42
21
1.0775
0
LINE
8
BLACK
6
CONTINUOUS
10
1.42
20
1.0775
11
1.455
21
1.0775
0
LINE
8
BLACK
6
CONTINUOUS
10
1.455
20
1.0775
11
1.455
21
1.0225
0
LINE
8
BLACK
6
CONTINUOUS
10
1.08169
20
1.03189
11
1.01083
21
1.03189
0
LINE
8
BLACK
6
CONTINUOUS
10
1.01083
20
1.03189
11
1.01083
21
1.07913
0
LINE
8
BLACK
6
CONTINUOUS
10
1.01083
20
1.07913
11
1.08169
21
1.07913
0
LINE
8
BLACK
6
CONTINUOUS
10
1.08169
20
1.07913
11
1.08169
21
1.03189
0
LINE
8
BLACK
6
CONTINUOUS
10
1.23917
20
1.03189
11
1.16831
21
1.03189
0
LINE
8
BLACK
6
CONTINUOUS
10
1.16831
20
1.03189
11
1.16831
21
1.07913
0
LINE
8
BLACK
6
CONTINUOUS
10
1.16831
20
1.07913
11
1.23917
21
1.07913
0
LINE
8
BLACK
6
CONTINUOUS
10
1.23917
20
1.07913
11
1.23917
21
1.03189
0
LINE
8
BLACK
6
CONTINUOUS
10
0.4325
20
1.0325
11
0.3975
21
1.0325
0
LINE
8
BLACK
6
CONTINUOUS
10
0.3975
20
1.0325
11
0.3975
21
1.0875
0
LINE
8
BLACK
6
CONTINUOUS
10
0.3975
20
1.0875
11
0.4325
21
1.0875
0
LINE
8
BLACK
6
CONTINUOUS
10
0.4325
20
1.0875
11
0.4325
21
1.0325
0
LINE
8
BLACK
6
CONTINUOUS
10
0.5075
20
1.0325
11
0.4725
21
1.0325
0
LINE
8
BLACK
6
CONTINUOUS
10
0.4725
20
1.0325
11
0.4725
21
1.0875
0
LINE
8
BLACK
6
CONTINUOUS
10
0.4725
20
1.0875
11
0.5075
21
1.0875
0
LINE
8
BLACK
6
CONTINUOUS
10
0.5075
20
1.0875
11
0.5075
21
1.0325
0
LINE
8
BLACK
6
CONTINUOUS
10
0.6775
20
1.0425
11
0.6225
21
1.0425
0
LINE
8
BLACK
6
CONTINUOUS
10
0.6225
20
1.0425
11
0.6225
21
1.0775
0
LINE
8
BLACK
6
CONTINUOUS
10
0.6225
20
1.0775
11
0.6775
21
1.0775
0
LINE
8
BLACK
6
CONTINUOUS
10
0.6775
20
1.0775
11
0.6775
21
1.0425
0
LINE
8
BLACK
6
CONTINUOUS
10
1.3775
20
1.045
11
1.3225
21
1.045
0
LINE
8
BLACK
6
CONTINUOUS
10
1.3225
20
1.045
11
1.3225
21
1.08
0
LINE
8
BLACK
6
CONTINUOUS
10
1.3225
20
1.08
11
1.3775
21
1.08
0
LINE
8
BLACK
6
CONTINUOUS
10
1.3775
20
1.08
11
1.3775
21
1.045
0
LINE
8
BLACK
6
CONTINUOUS
10
0.6775
20
1.1175
11
0.6225
21
1.1175
0
LINE
8
BLACK
6
CONTINUOUS
10
0.6225
20
1.1175
11
0.6225
21
1.1525
0
LINE
8
BLACK
6
CONTINUOUS
10
0.6225
20
1.1525
11
0.6775
21
1.1525
0
LINE
8
BLACK
6
CONTINUOUS
10
0.6775
20
1.1525
11
0.6775
21
1.1175
0
LINE
8
BLACK
6
CONTINUOUS
10
0.358465
20
1.11831
11
0.291535
21
1.11831
0
LINE
8
BLACK
6
CONTINUOUS
10
0.291535
20
1.11831
11
0.291535
21
1.16949
0
LINE
8
BLACK
6
CONTINUOUS
10
0.291535
20
1.16949
11
0.358465
21
1.16949
0
LINE
8
BLACK
6
CONTINUOUS
10
0.358465
20
1.16949
11
0.358465
21
1.11831
0
LINE
8
BLACK
6
CONTINUOUS
10
1.3775
20
1.12
11
1.3225
21
1.12
0
LINE
8
BLACK
6
CONTINUOUS
10
1.3225
20
1.12
11
1.3225
21
1.155
0
LINE
8
BLACK
6
CONTINUOUS
10
1.3225
20
1.155
11
1.3775
21
1.155
0
LINE
8
BLACK
6
CONTINUOUS
10
1.3775
20
1.155
11
1.3775
21
1.12
0
LINE
8
BLACK
6
CONTINUOUS
10
1.6275
20
1.12
11
1.5725
21
1.12
0
LINE
8
BLACK
6
CONTINUOUS
10
1.5725
20
1.12
11
1.5725
21
1.155
0
LINE
8
BLACK
6
CONTINUOUS
10
1.5725
20
1.155
11
1.6275
21
1.155
0
LINE
8
BLACK
6
CONTINUOUS
10
1.6275
20
1.155
11
1.6275
21
1.12
0
LINE
8
BLACK
6
CONTINUOUS
10
1.7525
20
1.12
11
1.6975
21
1.12
0
LINE
8
BLACK
6
CONTINUOUS
10
1.6975
20
1.12
11
1.6975
21
1.155
0
LINE
8
BLACK
6
CONTINUOUS
10
1.6975
20
1.155
11
1.7525
21
1.155
0
LINE
8
BLACK
6
CONTINUOUS
10
1.7525
20
1.155
11
1.7525
21
1.12
0
LINE
8
BLACK
6
CONTINUOUS
10
1.8775
20
1.12
11
1.8225
21
1.12
0
LINE
8
BLACK
6
CONTINUOUS
10
1.8225
20
1.12
11
1.8225
21
1.155
0
LINE
8
BLACK
6
CONTINUOUS
10
1.8225
20
1.155
11
1.8775
21
1.155
0
LINE
8
BLACK
6
CONTINUOUS
10
1.8775
20
1.155
11
1.8775
21
1.12
0
LINE
8
BLACK
6
CONTINUOUS
10
1.455
20
1.1225
11
1.42
21
1.1225
0
LINE
8
BLACK
6
CONTINUOUS
10
1.42
20
1.1225
11
1.42
21
1.1775
0
LINE
8
BLACK
6
CONTINUOUS
10
1.42
20
1.1775
11
1.455
21
1.1775
0
LINE
8
BLACK
6
CONTINUOUS
10
1.455
20
1.1775
11
1.455
21
1.1225
0
LINE
8
BLACK
6
CONTINUOUS
10
1.53
20
1.1225
11
1.495
21
1.1225
0
LINE
8
BLACK
6
CONTINUOUS
10
1.495
20
1.1225
11
1.495
21
1.1775
0
LINE
8
BLACK
6
CONTINUOUS
10
1.495
20
1.1775
11
1.53
21
1.1775
0
LINE
8
BLACK
6
CONTINUOUS
10
1.53
20
1.1775
11
1.53
21
1.1225
0
LINE
8
BLACK
6
CONTINUOUS
10
1.08169
20
1.12638
11
1.01083
21
1.12638
0
LINE
8
BLACK
6
CONTINUOUS
10
1.01083
20
1.12638
11
1.01083
21
1.17362
0
LINE
8
BLACK
6
CONTINUOUS
10
1.01083
20
1.17362
11
1.08169
21
1.17362
0
LINE
8
BLACK
6
CONTINUOUS
10
1.08169
20
1.17362
11
1.08169
21
1.12638
0
LINE
8
BLACK
6
CONTINUOUS
10
1.23917
20
1.12638
11
1.16831
21
1.12638
0
LINE
8
BLACK
6
CONTINUOUS
10
1.16831
20
1.12638
11
1.16831
21
1.17362
0
LINE
8
BLACK
6
CONTINUOUS
10
1.16831
20
1.17362
11
1.23917
21
1.17362
0
LINE
8
BLACK
6
CONTINUOUS
10
1.23917
20
1.17362
11
1.23917
21
1.12638
0
LINE
8
BLACK
6
CONTINUOUS
10
1.7525
20
1.195
11
1.6975
21
1.195
0
LINE
8
BLACK
6
CONTINUOUS
10
1.6975
20
1.195
11
1.6975
21
1.23
0
LINE
8
BLACK
6
CONTINUOUS
10
1.6975
20
1.23
11
1.7525
21
1.23
0
LINE
8
BLACK
6
CONTINUOUS
10
1.7525
20
1.23
11
1.7525
21
1.195
0
LINE
8
BLACK
6
CONTINUOUS
10
1.8775
20
1.195
11
1.8225
21
1.195
0
LINE
8
BLACK
6
CONTINUOUS
10
1.8225
20
1.195
11
1.8225
21
1.23
0
LINE
8
BLACK
6
CONTINUOUS
10
1.8225
20
1.23
11
1.8775
21
1.23
0
LINE
8
BLACK
6
CONTINUOUS
10
1.8775
20
1.23
11
1.8775
21
1.195
0
LINE
8
BLACK
6
CONTINUOUS
10
1.6275
20
1.195
11
1.5725
21
1.195
0
LINE
8
BLACK
6
CONTINUOUS
10
1.5725
20
1.195
11
1.5725
21
1.23
0
LINE
8
BLACK
6
CONTINUOUS
10
1.5725
20
1.23
11
1.6275
21
1.23
0
LINE
8
BLACK
6
CONTINUOUS
10
1.6275
20
1.23
11
1.6275
21
1.195
0
LINE
8
BLACK
6
CONTINUOUS
10
1.4675
20
1.2175
11
1.4125
21
1.2175
0
LINE
8
BLACK
6
CONTINUOUS
10
1.4125
20
1.2175
11
1.4125
21
1.2525
0
LINE
8
BLACK
6
CONTINUOUS
10
1.4125
20
1.2525
11
1.4675
21
1.2525
0
LINE
8
BLACK
6
CONTINUOUS
10
1.4675
20
1.2525
11
1.4675
21
1.2175
0
LINE
8
BLACK
6
CONTINUOUS
10
1.0775
20
1.22
11
1.0225
21
1.22
0
LINE
8
BLACK
6
CONTINUOUS
10
1.0225
20
1.22
11
1.0225
21
1.255
0
LINE
8
BLACK
6
CONTINUOUS
10
1.0225
20
1.255
11
1.0775
21
1.255
0
LINE
8
BLACK
6
CONTINUOUS
10
1.0775
20
1.255
11
1.0775
21
1.22
0
LINE
8
BLACK
6
CONTINUOUS
10
0.8775
20
1.22
11
0.8225
21
1.22
0
LINE
8
BLACK
6
CONTINUOUS
10
0.8225
20
1.22
11
0.8225
21
1.255
0
LINE
8
BLACK
6
CONTINUOUS
10
0.8225
20
1.255
11
0.8775
21
1.255
0
LINE
8
BLACK
6
CONTINUOUS
10
0.8775
20
1.255
11
0.8775
21
1.22
0
LINE
8
BLACK
6
CONTINUOUS
10
0.9775
20
1.22
11
0.9225
21
1.22
0
LINE
8
BLACK
6
CONTINUOUS
10
0.9225
20
1.22
11
0.9225
21
1.255
0
LINE
8
BLACK
6
CONTINUOUS
10
0.9225
20
1.255
11
0.9775
21
1.255
0
LINE
8
BLACK
6
CONTINUOUS
10
0.9775
20
1.255
11
0.9775
21
1.22
0
LINE
8
BLACK
6
CONTINUOUS
10
0.6775
20
1.22
11
0.6225
21
1.22
0
LINE
8
BLACK
6
CONTINUOUS
10
0.6225
20
1.22
11
0.6225
21
1.255
0
LINE
8
BLACK
6
CONTINUOUS
10
0.6225
20
1.255
11
0.6775
21
1.255
0
LINE
8
BLACK
6
CONTINUOUS
10
0.6775
20
1.255
11
0.6775
21
1.22
0
LINE
8
BLACK
6
CONTINUOUS
10
1.1525
20
1.22
11
1.0975
21
1.22
0
LINE
8
BLACK
6
CONTINUOUS
10
1.0975
20
1.22
11
1.0975
21
1.255
0
LINE
8
BLACK
6
CONTINUOUS
10
1.0975
20
1.255
11
1.1525
21
1.255
0
LINE
8
BLACK
6
CONTINUOUS
10
1.1525
20
1.255
11
1.1525
21
1.22
0
LINE
8
BLACK
6
CONTINUOUS
10
0.7775
20
1.22
11
0.7225
21
1.22
0
LINE
8
BLACK
6
CONTINUOUS
10
0.7225
20
1.22
11
0.7225
21
1.255
0
LINE
8
BLACK
6
CONTINUOUS
10
0.7225
20
1.255
11
0.7775
21
1.255
0
LINE
8
BLACK
6
CONTINUOUS
10
0.7775
20
1.255
11
0.7775
21
1.22
0
LINE
8
BLACK
6
CONTINUOUS
10
1.2275
20
1.22
11
1.1725
21
1.22
0
LINE
8
BLACK
6
CONTINUOUS
10
1.1725
20
1.22
11
1.1725
21
1.255
0
LINE
8
BLACK
6
CONTINUOUS
10
1.1725
20
1.255
11
1.2275
21
1.255
0
LINE
8
BLACK
6
CONTINUOUS
10
1.2275
20
1.255
11
1.2275
21
1.22
0
LINE
8
BLACK
6
CONTINUOUS
10
0.4775
20
1.22
11
0.4225
21
1.22
0
LINE
8
BLACK
6
CONTINUOUS
10
0.4225
20
1.22
11
0.4225
21
1.255
0
LINE
8
BLACK
6
CONTINUOUS
10
0.4225
20
1.255
11
0.4775
21
1.255
0
LINE
8
BLACK
6
CONTINUOUS
10
0.4775
20
1.255
11
0.4775
21
1.22
0
LINE
8
BLACK
6
CONTINUOUS
10
0.5775
20
1.22
11
0.5225
21
1.22
0
LINE
8
BLACK
6
CONTINUOUS
10
0.5225
20
1.22
11
0.5225
21
1.255
0
LINE
8
BLACK
6
CONTINUOUS
10
0.5225
20
1.255
11
0.5775
21
1.255
0
LINE
8
BLACK
6
CONTINUOUS
10
0.5775
20
1.255
11
0.5775
21
1.22
0
LINE
8
BLACK
6
CONTINUOUS
10
1.3075
20
1.2225
11
1.2525
21
1.2225
0
LINE
8
BLACK
6
CONTINUOUS
10
1.2525
20
1.2225
11
1.2525
21
1.2575
0
LINE
8
BLACK
6
CONTINUOUS
10
1.2525
20
1.2575
11
1.3075
21
1.2575
0
LINE
8
BLACK
6
CONTINUOUS
10
1.3075
20
1.2575
11
1.3075
21
1.2225
0
LINE
8
BLACK
6
CONTINUOUS
10
1.4675
20
1.2925
11
1.4125
21
1.2925
0
LINE
8
BLACK
6
CONTINUOUS
10
1.4125
20
1.2925
11
1.4125
21
1.3275
0
LINE
8
BLACK
6
CONTINUOUS
10
1.4125
20
1.3275
11
1.4675
21
1.3275
0
LINE
8
BLACK
6
CONTINUOUS
10
1.4675
20
1.3275
11
1.4675
21
1.2925
0
LINE
8
BLACK
6
CONTINUOUS
10
0.5775
20
1.295
11
0.5225
21
1.295
0
LINE
8
BLACK
6
CONTINUOUS
10
0.5225
20
1.295
11
0.5225
21
1.33
0
LINE
8
BLACK
6
CONTINUOUS
10
0.5225
20
1.33
11
0.5775
21
1.33
0
LINE
8
BLACK
6
CONTINUOUS
10
0.5775
20
1.33
11
0.5775
21
1.295
0
LINE
8
BLACK
6
CONTINUOUS
10
0.4775
20
1.295
11
0.4225
21
1.295
0
LINE
8
BLACK
6
CONTINUOUS
10
0.4225
20
1.295
11
0.4225
21
1.33
0
LINE
8
BLACK
6
CONTINUOUS
10
0.4225
20
1.33
11
0.4775
21
1.33
0
LINE
8
BLACK
6
CONTINUOUS
10
0.4775
20
1.33
11
0.4775
21
1.295
0
LINE
8
BLACK
6
CONTINUOUS
10
1.2275
20
1.295
11
1.1725
21
1.295
0
LINE
8
BLACK
6
CONTINUOUS
10
1.1725
20
1.295
11
1.1725
21
1.33
0
LINE
8
BLACK
6
CONTINUOUS
10
1.1725
20
1.33
11
1.2275
21
1.33
0
LINE
8
BLACK
6
CONTINUOUS
10
1.2275
20
1.33
11
1.2275
21
1.295
0
LINE
8
BLACK
6
CONTINUOUS
10
0.7775
20
1.295
11
0.7225
21
1.295
0
LINE
8
BLACK
6
CONTINUOUS
10
0.7225
20
1.295
11
0.7225
21
1.33
0
LINE
8
BLACK
6
CONTINUOUS
10
0.7225
20
1.33
11
0.7775
21
1.33
0
LINE
8
BLACK
6
CONTINUOUS
10
0.7775
20
1.33
11
0.7775
21
1.295
0
LINE
8
BLACK
6
CONTINUOUS
10
1.1525
20
1.295
11
1.0975
21
1.295
0
LINE
8
BLACK
6
CONTINUOUS
10
1.0975
20
1.295
11
1.0975
21
1.33
0
LINE
8
BLACK
6
CONTINUOUS
10
1.0975
20
1.33
11
1.1525
21
1.33
0
LINE
8
BLACK
6
CONTINUOUS
10
1.1525
20
1.33
11
1.1525
21
1.295
0
LINE
8
BLACK
6
CONTINUOUS
10
0.6775
20
1.295
11
0.6225
21
1.295
0
LINE
8
BLACK
6
CONTINUOUS
10
0.6225
20
1.295
11
0.6225
21
1.33
0
LINE
8
BLACK
6
CONTINUOUS
10
0.6225
20
1.33
11
0.6775
21
1.33
0
LINE
8
BLACK
6
CONTINUOUS
10
0.6775
20
1.33
11
0.6775
21
1.295
0
LINE
8
BLACK
6
CONTINUOUS
10
0.9775
20
1.295
11
0.9225
21
1.295
0
LINE
8
BLACK
6
CONTINUOUS
10
0.9225
20
1.295
11
0.9225
21
1.33
0
LINE
8
BLACK
6
CONTINUOUS
10
0.9225
20
1.33
11
0.9775
21
1.33
0
LINE
8
BLACK
6
CONTINUOUS
10
0.9775
20
1.33
11
0.9775
21
1.295
0
LINE
8
BLACK
6
CONTINUOUS
10
0.8775
20
1.295
11
0.8225
21
1.295
0
LINE
8
BLACK
6
CONTINUOUS
10
0.8225
20
1.295
11
0.8225
21
1.33
0
LINE
8
BLACK
6
CONTINUOUS
10
0.8225
20
1.33
11
0.8775
21
1.33
0
LINE
8
BLACK
6
CONTINUOUS
10
0.8775
20
1.33
11
0.8775
21
1.295
0
LINE
8
BLACK
6
CONTINUOUS
10
1.0775
20
1.295
11
1.0225
21
1.295
0
LINE
8
BLACK
6
CONTINUOUS
10
1.0225
20
1.295
11
1.0225
21
1.33
0
LINE
8
BLACK
6
CONTINUOUS
10
1.0225
20
1.33
11
1.0775
21
1.33
0
LINE
8
BLACK
6
CONTINUOUS
10
1.0775
20
1.33
11
1.0775
21
1.295
0
LINE
8
BLACK
6
CONTINUOUS
10
1.3075
20
1.2975
11
1.2525
21
1.2975
0
LINE
8
BLACK
6
CONTINUOUS
10
1.2525
20
1.2975
11
1.2525
21
1.3325
0
LINE
8
BLACK
6
CONTINUOUS
10
1.2525
20
1.3325
11
1.3075
21
1.3325
0
LINE
8
BLACK
6
CONTINUOUS
10
1.3075
20
1.3325
11
1.3075
21
1.2975
0
LINE
8
BLACK
6
CONTINUOUS
10
1.3875
20
1.3725
11
1.3325
21
1.3725
0
LINE
8
BLACK
6
CONTINUOUS
10
1.3325
20
1.3725
11
1.3325
21
1.4075
0
LINE
8
BLACK
6
CONTINUOUS
10
1.3325
20
1.4075
11
1.3875
21
1.4075
0
LINE
8
BLACK
6
CONTINUOUS
10
1.3875
20
1.4075
11
1.3875
21
1.3725
0
LINE
8
BLACK
6
CONTINUOUS
10
1.3875
20
1.4475
11
1.3325
21
1.4475
0
LINE
8
BLACK
6
CONTINUOUS
10
1.3325
20
1.4475
11
1.3325
21
1.4825
0
LINE
8
BLACK
6
CONTINUOUS
10
1.3325
20
1.4825
11
1.3875
21
1.4825
0
LINE
8
BLACK
6
CONTINUOUS
10
1.3875
20
1.4825
11
1.3875
21
1.4475
  0
ENDSEC
  0
EOF
