M48
; DRILL file {KiCad 7.0.5.1-1-g8f565ef7f0-dirty-deb11} date Fri Jul 21 00:56:32 2023
; FORMAT={3:3/ absolute / metric / suppress leading zeros}
; #@! TF.CreationDate,2023-07-21T00:56:32+00:00
; #@! TF.GenerationSoftware,Kicad,Pcbnew,7.0.5.1-1-g8f565ef7f0-dirty-deb11
; #@! TF.FileFunction,Plated,1,2,PTH
FMAT,2
METRIC,TZ
; #@! TA.AperFunction,Plated,PTH,ComponentDrill
T1C0.200
; #@! TA.AperFunction,Plated,PTH,ViaDrill
T2C0.400
; #@! TA.AperFunction,Plated,PTH,ComponentDrill
T3C0.889
; #@! TA.AperFunction,Plated,PTH,ComponentDrill
T4C1.500
; #@! TA.AperFunction,Plated,PTH,ComponentDrill
T5C1.700
; #@! TA.AperFunction,Plated,PTH,ComponentDrill
T6C3.000
%
G90
G05
T1
X148087Y-100128
X148087Y-101678
X148087Y-103228
X149287Y-100128
X149287Y-101678
X149287Y-103228
X150487Y-100128
X150487Y-101678
X150487Y-103228
X151687Y-100128
X151687Y-101678
X151687Y-103228
T2
X125122Y-101297
X125122Y-103329
X130456Y-110441
X130710Y-91391
X132234Y-110441
X132234Y-112219
X132234Y-113997
X132488Y-105361
X132488Y-116029
X132996Y-118061
X133758Y-93931
X134012Y-92407
X134381Y-106769
X134520Y-108155
X134520Y-118315
X135028Y-100789
X135536Y-93423
X136044Y-103837
X136552Y-92153
X136806Y-97995
X136819Y-96712
X137060Y-118315
X137568Y-105615
X137822Y-92661
X137822Y-120347
X139092Y-92153
X139854Y-105615
X140362Y-100535
X140870Y-94439
X141632Y-92661
X141886Y-105615
X143156Y-93931
X143410Y-105615
X143410Y-120601
X144274Y-92534
X144680Y-98503
X144680Y-99503
X144680Y-119077
X145442Y-93931
X145442Y-108917
X145696Y-102567
X145696Y-103583
X146458Y-119077
X146712Y-107647
X146763Y-92610
X148383Y-97156
X148490Y-119077
X149277Y-90340
X149572Y-97342
X150268Y-119077
X150571Y-97398
X151157Y-92153
X151984Y-107029
X152300Y-107901
X152337Y-105361
X152427Y-97868
X153062Y-92153
X154332Y-98249
X154586Y-103128
X154586Y-104091
X154825Y-100520
X155602Y-92407
X155856Y-101297
X156110Y-103583
X156364Y-108917
X156872Y-90121
X156872Y-91137
X157126Y-83771
X157126Y-88851
X157380Y-118569
X157380Y-120347
X157746Y-97599
X158142Y-103075
X158142Y-104091
X158650Y-108409
X159080Y-111866
X159158Y-83771
X159158Y-85549
X159158Y-87327
X159285Y-97614
X159412Y-114251
X159412Y-116029
X159412Y-118315
X160682Y-97614
X160936Y-87327
X161190Y-88851
X161190Y-90121
X162206Y-97741
X162714Y-90121
X163730Y-97741
X163984Y-106631
X164238Y-90121
X164316Y-111789
X164403Y-103672
X164492Y-102059
X165508Y-97741
X166016Y-90121
X166016Y-120347
X166778Y-106123
X167286Y-97741
X167794Y-90121
X168302Y-106123
X169064Y-97741
X169572Y-90121
X169826Y-106123
X170588Y-97741
X171350Y-106123
X171604Y-90121
X171604Y-91645
X171604Y-93169
X171604Y-94185
X172112Y-97741
X173128Y-97741
X173128Y-102821
X173128Y-104091
X173128Y-105869
X173128Y-107393
X173128Y-109679
X173382Y-92153
X173382Y-111711
X173636Y-94185
X173890Y-113743
X174652Y-90629
X175414Y-112219
X177700Y-112219
X179986Y-101297
X179986Y-112219
X181764Y-112219
X182018Y-101297
T3
X125122Y-93423
X125122Y-95963
X125122Y-98503
X125122Y-106504
X125122Y-109044
X125122Y-111584
X127662Y-93423
X127662Y-95963
X127662Y-98503
X127662Y-106504
X127662Y-109044
X127662Y-111584
X134012Y-84533
X134012Y-87073
X134647Y-113743
X134647Y-116283
X136552Y-84533
X136552Y-87073
X137187Y-113743
X137187Y-116283
X139092Y-84533
X139092Y-87073
X139727Y-113743
X139727Y-116283
X141632Y-84533
X141632Y-87073
X142267Y-113743
X142267Y-116283
X144172Y-84533
X144172Y-87073
X144807Y-113743
X144807Y-116283
X146712Y-84533
X146712Y-87073
X147347Y-113743
X147347Y-116283
X149252Y-84533
X149252Y-87073
X149887Y-113743
X149887Y-116283
X151792Y-84533
X151792Y-87073
X152427Y-113743
X152427Y-116283
X154332Y-84533
X154332Y-87073
X154967Y-113743
X154967Y-116283
X157507Y-113743
X157507Y-116283
X161190Y-116029
X161190Y-118569
X163730Y-116029
X163730Y-118569
T4
X178462Y-95963
X178462Y-106758
T5
X175922Y-93423
X175922Y-98503
X175922Y-104218
X175922Y-109298
X181002Y-93423
X181002Y-98503
X181002Y-104218
X181002Y-109298
T6
X127662Y-87073
X127662Y-117553
X178462Y-87073
X178462Y-117553
T0
M30
