%TF.GenerationSoftware,KiCad,Pcbnew,7.0.5.1-1-g8f565ef7f0-dirty-deb11*%
%TF.CreationDate,2023-07-21T00:56:32+00:00*%
%TF.ProjectId,ISM01,49534d30-312e-46b6-9963-61645f706362,rev?*%
%TF.SameCoordinates,Original*%
%TF.FileFunction,Paste,Bot*%
%TF.FilePolarity,Positive*%
%FSLAX46Y46*%
G04 Gerber Fmt 4.6, Leading zero omitted, Abs format (unit mm)*
G04 Created by KiCad (PCBNEW 7.0.5.1-1-g8f565ef7f0-dirty-deb11) date 2023-07-21 00:56:32*
%MOMM*%
%LPD*%
G01*
G04 APERTURE LIST*
G04 Aperture macros list*
%AMRoundRect*
0 Rectangle with rounded corners*
0 $1 Rounding radius*
0 $2 $3 $4 $5 $6 $7 $8 $9 X,Y pos of 4 corners*
0 Add a 4 corners polygon primitive as box body*
4,1,4,$2,$3,$4,$5,$6,$7,$8,$9,$2,$3,0*
0 Add four circle primitives for the rounded corners*
1,1,$1+$1,$2,$3*
1,1,$1+$1,$4,$5*
1,1,$1+$1,$6,$7*
1,1,$1+$1,$8,$9*
0 Add four rect primitives between the rounded corners*
20,1,$1+$1,$2,$3,$4,$5,0*
20,1,$1+$1,$4,$5,$6,$7,0*
20,1,$1+$1,$6,$7,$8,$9,0*
20,1,$1+$1,$8,$9,$2,$3,0*%
G04 Aperture macros list end*
%ADD10R,1.397000X0.889000*%
%ADD11R,2.032000X1.016000*%
%ADD12R,2.032000X3.657600*%
%ADD13R,0.900000X0.800000*%
%ADD14R,1.500000X0.950000*%
%ADD15R,0.889000X1.397000*%
%ADD16R,1.500000X1.300000*%
%ADD17R,3.000000X0.700000*%
%ADD18R,1.700000X1.300000*%
%ADD19R,1.000000X1.800000*%
%ADD20R,1.800000X1.200000*%
%ADD21RoundRect,0.250000X-0.279307X0.447137X-0.279307X-0.447137X0.279307X-0.447137X0.279307X0.447137X0*%
%ADD22RoundRect,0.062500X-0.062500X0.362500X-0.062500X-0.362500X0.062500X-0.362500X0.062500X0.362500X0*%
%ADD23RoundRect,0.062500X-0.362500X0.062500X-0.362500X-0.062500X0.362500X-0.062500X0.362500X0.062500X0*%
G04 APERTURE END LIST*
D10*
%TO.C,R15*%
X149887047Y-111520189D03*
X149887047Y-109615189D03*
%TD*%
%TO.C,R17*%
X152427047Y-111520189D03*
X152427047Y-109615189D03*
%TD*%
D11*
%TO.C,U1*%
X131345047Y-105233689D03*
X131345047Y-102947689D03*
X131345047Y-100661689D03*
D12*
X137949047Y-102947689D03*
%TD*%
D13*
%TO.C,Q1*%
X169588047Y-110628689D03*
X169588047Y-108728689D03*
X171588047Y-109678689D03*
%TD*%
D14*
%TO.C,D3*%
X167540047Y-116239689D03*
X167540047Y-120389689D03*
%TD*%
%TO.C,D2*%
X171096047Y-116239689D03*
X171096047Y-120389689D03*
%TD*%
D10*
%TO.C,R19*%
X155094047Y-89231689D03*
X155094047Y-91136689D03*
%TD*%
D13*
%TO.C,Q2*%
X165778047Y-110628689D03*
X165778047Y-108728689D03*
X167778047Y-109678689D03*
%TD*%
D15*
%TO.C,C1*%
X133123047Y-97740689D03*
X135028047Y-97740689D03*
%TD*%
D10*
%TO.C,C3*%
X140362047Y-102058689D03*
X140362047Y-103963689D03*
%TD*%
%TO.C,C5*%
X128297047Y-101995189D03*
X128297047Y-103900189D03*
%TD*%
%TO.C,C14*%
X142267047Y-101995189D03*
X142267047Y-103900189D03*
%TD*%
%TO.C,C15*%
X155856047Y-105805189D03*
X155856047Y-107710189D03*
%TD*%
%TO.C,C16*%
X142267047Y-100090189D03*
X142267047Y-98185189D03*
%TD*%
%TO.C,C18*%
X144172047Y-101995189D03*
X144172047Y-103900189D03*
%TD*%
D16*
%TO.C,C21*%
X162968047Y-109424689D03*
D17*
X162968047Y-110774689D03*
D16*
X162968047Y-112124689D03*
%TD*%
D10*
%TO.C,C22*%
X154967047Y-119140189D03*
X154967047Y-121045189D03*
%TD*%
%TO.C,C23*%
X152427047Y-119140189D03*
X152427047Y-121045189D03*
%TD*%
%TO.C,C27*%
X142267047Y-119140189D03*
X142267047Y-121045189D03*
%TD*%
%TO.C,C28*%
X139727047Y-119140189D03*
X139727047Y-121045189D03*
%TD*%
D18*
%TO.C,D1*%
X130837047Y-97077689D03*
X130837047Y-93577689D03*
%TD*%
D10*
%TO.C,L8*%
X160047047Y-103265189D03*
X160047047Y-101360189D03*
%TD*%
D15*
%TO.C,R1*%
X162968047Y-106300000D03*
X161063047Y-106300000D03*
%TD*%
D10*
%TO.C,R6*%
X147347047Y-111520189D03*
X147347047Y-109615189D03*
%TD*%
%TO.C,R7*%
X142267047Y-111520189D03*
X142267047Y-109615189D03*
%TD*%
%TO.C,R8*%
X139727047Y-111520189D03*
X139727047Y-109615189D03*
%TD*%
%TO.C,R9*%
X137187047Y-111520189D03*
X137187047Y-109615189D03*
%TD*%
%TO.C,R10*%
X134647047Y-111520189D03*
X134647047Y-109615189D03*
%TD*%
%TO.C,R13*%
X157507047Y-111520189D03*
X157507047Y-109615189D03*
%TD*%
%TO.C,R16*%
X154967047Y-111520189D03*
X154967047Y-109615189D03*
%TD*%
%TO.C,R20*%
X139092047Y-95708689D03*
X139092047Y-93803689D03*
%TD*%
D15*
%TO.C,R21*%
X149760047Y-107646689D03*
X147855047Y-107646689D03*
%TD*%
D10*
%TO.C,R22*%
X171096047Y-114441189D03*
X171096047Y-112536189D03*
%TD*%
%TO.C,R23*%
X167540047Y-114377689D03*
X167540047Y-112472689D03*
%TD*%
%TO.C,C20*%
X153824047Y-105741689D03*
X153824047Y-107646689D03*
%TD*%
%TO.C,C17*%
X157888047Y-105805189D03*
X157888047Y-107710189D03*
%TD*%
D15*
%TO.C,C2*%
X133123047Y-95708689D03*
X135028047Y-95708689D03*
%TD*%
D19*
%TO.C,Y1*%
X143450047Y-95962689D03*
X145950047Y-95962689D03*
%TD*%
D10*
%TO.C,R18*%
X151157047Y-89295189D03*
X151157047Y-91200189D03*
%TD*%
%TO.C,C25*%
X153062047Y-89295189D03*
X153062047Y-91200189D03*
%TD*%
%TO.C,C26*%
X157126047Y-87326689D03*
X157126047Y-85421689D03*
%TD*%
%TO.C,R5*%
X149252047Y-89295189D03*
X149252047Y-91200189D03*
%TD*%
%TO.C,R3*%
X144172047Y-89295189D03*
X144172047Y-91200189D03*
%TD*%
%TO.C,R4*%
X146712047Y-89295189D03*
X146712047Y-91200189D03*
%TD*%
%TO.C,R14*%
X139092047Y-89295189D03*
X139092047Y-91200189D03*
%TD*%
%TO.C,R2*%
X141632047Y-89295189D03*
X141632047Y-91200189D03*
%TD*%
%TO.C,R11*%
X134012047Y-89295189D03*
X134012047Y-91200189D03*
%TD*%
%TO.C,R12*%
X136552047Y-89295189D03*
X136552047Y-91200189D03*
%TD*%
D20*
%TO.C,Y2*%
X153157047Y-95822689D03*
X149157047Y-95822689D03*
X149157047Y-93422689D03*
X153157047Y-93422689D03*
%TD*%
D21*
%TO.C,U2*%
X151087047Y-100902689D03*
X149887047Y-100902689D03*
X148687047Y-100902689D03*
X151087047Y-102452689D03*
X149887047Y-102452689D03*
X148687047Y-102452689D03*
D22*
X147637047Y-99227689D03*
X148137047Y-99227689D03*
X148637047Y-99227689D03*
X149137047Y-99227689D03*
X149637047Y-99227689D03*
X150137047Y-99227689D03*
X150637047Y-99227689D03*
X151137047Y-99227689D03*
X151637047Y-99227689D03*
X152137047Y-99227689D03*
D23*
X152837047Y-99927689D03*
X152837047Y-100427689D03*
X152837047Y-100927689D03*
X152837047Y-101427689D03*
X152837047Y-101927689D03*
X152837047Y-102427689D03*
X152837047Y-102927689D03*
X152837047Y-103427689D03*
D22*
X152137047Y-104127689D03*
X151637047Y-104127689D03*
X151137047Y-104127689D03*
X150637047Y-104127689D03*
X150137047Y-104127689D03*
X149637047Y-104127689D03*
X149137047Y-104127689D03*
X148637047Y-104127689D03*
X148137047Y-104127689D03*
X147637047Y-104127689D03*
D23*
X146937047Y-103427689D03*
X146937047Y-102927689D03*
X146937047Y-102427689D03*
X146937047Y-101927689D03*
X146937047Y-101427689D03*
X146937047Y-100927689D03*
X146937047Y-100427689D03*
X146937047Y-99927689D03*
%TD*%
D15*
%TO.C,L7*%
X161761547Y-99544089D03*
X159856547Y-99544089D03*
%TD*%
%TO.C,L6*%
X164809547Y-95962689D03*
X162904547Y-95962689D03*
%TD*%
%TO.C,L9*%
X160999547Y-93422689D03*
X159094547Y-93422689D03*
%TD*%
%TO.C,L5*%
X165571547Y-99544089D03*
X163666547Y-99544089D03*
%TD*%
D10*
%TO.C,L10*%
X156872047Y-93740189D03*
X156872047Y-95645189D03*
%TD*%
%TO.C,C7*%
X167159047Y-101766589D03*
X167159047Y-103671589D03*
%TD*%
%TO.C,C9*%
X162079047Y-101766589D03*
X162079047Y-103671589D03*
%TD*%
%TO.C,C13*%
X159158047Y-91263689D03*
X159158047Y-89358689D03*
%TD*%
%TO.C,C10*%
X163222047Y-93740189D03*
X163222047Y-91835189D03*
%TD*%
%TO.C,C11*%
X157507047Y-101360189D03*
X157507047Y-99455189D03*
%TD*%
%TO.C,C4*%
X170969047Y-101766589D03*
X170969047Y-103671589D03*
%TD*%
D15*
%TO.C,C12*%
X159094547Y-95962689D03*
X160999547Y-95962689D03*
%TD*%
D10*
%TO.C,C6*%
X169572047Y-93740189D03*
X169572047Y-91835189D03*
%TD*%
%TO.C,C8*%
X166397047Y-93740189D03*
X166397047Y-91835189D03*
%TD*%
D15*
%TO.C,L3*%
X169381547Y-99544089D03*
X167476547Y-99544089D03*
%TD*%
%TO.C,L4*%
X168619547Y-95962689D03*
X166714547Y-95962689D03*
%TD*%
%TO.C,L1*%
X173064547Y-99518689D03*
X171159547Y-99518689D03*
%TD*%
%TO.C,L2*%
X172429547Y-95962689D03*
X170524547Y-95962689D03*
%TD*%
D10*
%TO.C,C19*%
X160047047Y-108980189D03*
X160047047Y-110885189D03*
%TD*%
M02*
