%TF.GenerationSoftware,KiCad,Pcbnew,7.0.7-7.0.7~ubuntu23.04.1*%
%TF.CreationDate,2023-09-11T00:44:02+00:00*%
%TF.ProjectId,ISM01,49534d30-312e-46b6-9963-61645f706362,rev?*%
%TF.SameCoordinates,Original*%
%TF.FileFunction,Legend,Bot*%
%TF.FilePolarity,Positive*%
%FSLAX46Y46*%
G04 Gerber Fmt 4.6, Leading zero omitted, Abs format (unit mm)*
G04 Created by KiCad (PCBNEW 7.0.7-7.0.7~ubuntu23.04.1) date 2023-09-11 00:44:02*
%MOMM*%
%LPD*%
G01*
G04 APERTURE LIST*
%ADD10C,0.150000*%
%ADD11C,0.120000*%
G04 APERTURE END LIST*
D10*
X133829773Y-101853069D02*
X134857868Y-101853069D01*
X134857868Y-101853069D02*
X134978820Y-101913546D01*
X134978820Y-101913546D02*
X135039297Y-101974022D01*
X135039297Y-101974022D02*
X135099773Y-102094974D01*
X135099773Y-102094974D02*
X135099773Y-102336879D01*
X135099773Y-102336879D02*
X135039297Y-102457831D01*
X135039297Y-102457831D02*
X134978820Y-102518308D01*
X134978820Y-102518308D02*
X134857868Y-102578784D01*
X134857868Y-102578784D02*
X133829773Y-102578784D01*
X135099773Y-103848784D02*
X135099773Y-103123069D01*
X135099773Y-103485926D02*
X133829773Y-103485926D01*
X133829773Y-103485926D02*
X134011201Y-103364974D01*
X134011201Y-103364974D02*
X134132154Y-103244022D01*
X134132154Y-103244022D02*
X134192630Y-103123069D01*
X170429285Y-107434746D02*
X170524523Y-107387127D01*
X170524523Y-107387127D02*
X170619761Y-107291889D01*
X170619761Y-107291889D02*
X170762618Y-107149031D01*
X170762618Y-107149031D02*
X170857856Y-107101412D01*
X170857856Y-107101412D02*
X170953094Y-107101412D01*
X170905475Y-107339508D02*
X171000713Y-107291889D01*
X171000713Y-107291889D02*
X171095951Y-107196650D01*
X171095951Y-107196650D02*
X171143570Y-107006174D01*
X171143570Y-107006174D02*
X171143570Y-106672841D01*
X171143570Y-106672841D02*
X171095951Y-106482365D01*
X171095951Y-106482365D02*
X171000713Y-106387127D01*
X171000713Y-106387127D02*
X170905475Y-106339508D01*
X170905475Y-106339508D02*
X170714999Y-106339508D01*
X170714999Y-106339508D02*
X170619761Y-106387127D01*
X170619761Y-106387127D02*
X170524523Y-106482365D01*
X170524523Y-106482365D02*
X170476904Y-106672841D01*
X170476904Y-106672841D02*
X170476904Y-107006174D01*
X170476904Y-107006174D02*
X170524523Y-107196650D01*
X170524523Y-107196650D02*
X170619761Y-107291889D01*
X170619761Y-107291889D02*
X170714999Y-107339508D01*
X170714999Y-107339508D02*
X170905475Y-107339508D01*
X169524523Y-107339508D02*
X170095951Y-107339508D01*
X169810237Y-107339508D02*
X169810237Y-106339508D01*
X169810237Y-106339508D02*
X169905475Y-106482365D01*
X169905475Y-106482365D02*
X170000713Y-106577603D01*
X170000713Y-106577603D02*
X170095951Y-106625222D01*
X166619285Y-107434746D02*
X166714523Y-107387127D01*
X166714523Y-107387127D02*
X166809761Y-107291889D01*
X166809761Y-107291889D02*
X166952618Y-107149031D01*
X166952618Y-107149031D02*
X167047856Y-107101412D01*
X167047856Y-107101412D02*
X167143094Y-107101412D01*
X167095475Y-107339508D02*
X167190713Y-107291889D01*
X167190713Y-107291889D02*
X167285951Y-107196650D01*
X167285951Y-107196650D02*
X167333570Y-107006174D01*
X167333570Y-107006174D02*
X167333570Y-106672841D01*
X167333570Y-106672841D02*
X167285951Y-106482365D01*
X167285951Y-106482365D02*
X167190713Y-106387127D01*
X167190713Y-106387127D02*
X167095475Y-106339508D01*
X167095475Y-106339508D02*
X166904999Y-106339508D01*
X166904999Y-106339508D02*
X166809761Y-106387127D01*
X166809761Y-106387127D02*
X166714523Y-106482365D01*
X166714523Y-106482365D02*
X166666904Y-106672841D01*
X166666904Y-106672841D02*
X166666904Y-107006174D01*
X166666904Y-107006174D02*
X166714523Y-107196650D01*
X166714523Y-107196650D02*
X166809761Y-107291889D01*
X166809761Y-107291889D02*
X166904999Y-107339508D01*
X166904999Y-107339508D02*
X167095475Y-107339508D01*
X166285951Y-106434746D02*
X166238332Y-106387127D01*
X166238332Y-106387127D02*
X166143094Y-106339508D01*
X166143094Y-106339508D02*
X165904999Y-106339508D01*
X165904999Y-106339508D02*
X165809761Y-106387127D01*
X165809761Y-106387127D02*
X165762142Y-106434746D01*
X165762142Y-106434746D02*
X165714523Y-106529984D01*
X165714523Y-106529984D02*
X165714523Y-106625222D01*
X165714523Y-106625222D02*
X165762142Y-106768079D01*
X165762142Y-106768079D02*
X166333570Y-107339508D01*
X166333570Y-107339508D02*
X165714523Y-107339508D01*
X160914627Y-110131831D02*
X160962247Y-110084212D01*
X160962247Y-110084212D02*
X161009866Y-109941355D01*
X161009866Y-109941355D02*
X161009866Y-109846117D01*
X161009866Y-109846117D02*
X160962247Y-109703260D01*
X160962247Y-109703260D02*
X160867008Y-109608022D01*
X160867008Y-109608022D02*
X160771770Y-109560403D01*
X160771770Y-109560403D02*
X160581294Y-109512784D01*
X160581294Y-109512784D02*
X160438437Y-109512784D01*
X160438437Y-109512784D02*
X160247961Y-109560403D01*
X160247961Y-109560403D02*
X160152723Y-109608022D01*
X160152723Y-109608022D02*
X160057485Y-109703260D01*
X160057485Y-109703260D02*
X160009866Y-109846117D01*
X160009866Y-109846117D02*
X160009866Y-109941355D01*
X160009866Y-109941355D02*
X160057485Y-110084212D01*
X160057485Y-110084212D02*
X160105104Y-110131831D01*
X160105104Y-110512784D02*
X160057485Y-110560403D01*
X160057485Y-110560403D02*
X160009866Y-110655641D01*
X160009866Y-110655641D02*
X160009866Y-110893736D01*
X160009866Y-110893736D02*
X160057485Y-110988974D01*
X160057485Y-110988974D02*
X160105104Y-111036593D01*
X160105104Y-111036593D02*
X160200342Y-111084212D01*
X160200342Y-111084212D02*
X160295580Y-111084212D01*
X160295580Y-111084212D02*
X160438437Y-111036593D01*
X160438437Y-111036593D02*
X161009866Y-110465165D01*
X161009866Y-110465165D02*
X161009866Y-111084212D01*
X161009866Y-112036593D02*
X161009866Y-111465165D01*
X161009866Y-111750879D02*
X160009866Y-111750879D01*
X160009866Y-111750879D02*
X160152723Y-111655641D01*
X160152723Y-111655641D02*
X160247961Y-111560403D01*
X160247961Y-111560403D02*
X160295580Y-111465165D01*
X131418866Y-94589594D02*
X130418866Y-94589594D01*
X130418866Y-94589594D02*
X130418866Y-94827689D01*
X130418866Y-94827689D02*
X130466485Y-94970546D01*
X130466485Y-94970546D02*
X130561723Y-95065784D01*
X130561723Y-95065784D02*
X130656961Y-95113403D01*
X130656961Y-95113403D02*
X130847437Y-95161022D01*
X130847437Y-95161022D02*
X130990294Y-95161022D01*
X130990294Y-95161022D02*
X131180770Y-95113403D01*
X131180770Y-95113403D02*
X131276008Y-95065784D01*
X131276008Y-95065784D02*
X131371247Y-94970546D01*
X131371247Y-94970546D02*
X131418866Y-94827689D01*
X131418866Y-94827689D02*
X131418866Y-94589594D01*
X131418866Y-96113403D02*
X131418866Y-95541975D01*
X131418866Y-95827689D02*
X130418866Y-95827689D01*
X130418866Y-95827689D02*
X130561723Y-95732451D01*
X130561723Y-95732451D02*
X130656961Y-95637213D01*
X130656961Y-95637213D02*
X130704580Y-95541975D01*
X151633237Y-94417317D02*
X151633237Y-94893508D01*
X151966570Y-93893508D02*
X151633237Y-94417317D01*
X151633237Y-94417317D02*
X151299904Y-93893508D01*
X151014189Y-93988746D02*
X150966570Y-93941127D01*
X150966570Y-93941127D02*
X150871332Y-93893508D01*
X150871332Y-93893508D02*
X150633237Y-93893508D01*
X150633237Y-93893508D02*
X150537999Y-93941127D01*
X150537999Y-93941127D02*
X150490380Y-93988746D01*
X150490380Y-93988746D02*
X150442761Y-94083984D01*
X150442761Y-94083984D02*
X150442761Y-94179222D01*
X150442761Y-94179222D02*
X150490380Y-94322079D01*
X150490380Y-94322079D02*
X151061808Y-94893508D01*
X151061808Y-94893508D02*
X150442761Y-94893508D01*
X145404866Y-104090784D02*
X146214389Y-104090784D01*
X146214389Y-104090784D02*
X146309627Y-104138403D01*
X146309627Y-104138403D02*
X146357247Y-104186022D01*
X146357247Y-104186022D02*
X146404866Y-104281260D01*
X146404866Y-104281260D02*
X146404866Y-104471736D01*
X146404866Y-104471736D02*
X146357247Y-104566974D01*
X146357247Y-104566974D02*
X146309627Y-104614593D01*
X146309627Y-104614593D02*
X146214389Y-104662212D01*
X146214389Y-104662212D02*
X145404866Y-104662212D01*
X145500104Y-105090784D02*
X145452485Y-105138403D01*
X145452485Y-105138403D02*
X145404866Y-105233641D01*
X145404866Y-105233641D02*
X145404866Y-105471736D01*
X145404866Y-105471736D02*
X145452485Y-105566974D01*
X145452485Y-105566974D02*
X145500104Y-105614593D01*
X145500104Y-105614593D02*
X145595342Y-105662212D01*
X145595342Y-105662212D02*
X145690580Y-105662212D01*
X145690580Y-105662212D02*
X145833437Y-105614593D01*
X145833437Y-105614593D02*
X146404866Y-105043165D01*
X146404866Y-105043165D02*
X146404866Y-105662212D01*
%TO.C,R15*%
X149125047Y-112091689D02*
X150649047Y-112091689D01*
D11*
X149125047Y-110948689D02*
X149125047Y-110186689D01*
X150649047Y-110948689D02*
X150649047Y-110186689D01*
D10*
X150649047Y-109043689D02*
X149125047Y-109043689D01*
%TO.C,R17*%
X151665047Y-112091689D02*
X153189047Y-112091689D01*
D11*
X151665047Y-110948689D02*
X151665047Y-110186689D01*
X153189047Y-110948689D02*
X153189047Y-110186689D01*
D10*
X153189047Y-109043689D02*
X151665047Y-109043689D01*
%TO.C,U1*%
X130075047Y-106503689D02*
X130075047Y-99391689D01*
X133123047Y-106503689D02*
X130075047Y-106503689D01*
X136171047Y-106503689D02*
X136933047Y-106503689D01*
X136933047Y-106503689D02*
X139219047Y-104979689D01*
X139193647Y-104954289D02*
X139193647Y-100890289D01*
X139219047Y-100915689D02*
X136933047Y-99391689D01*
X130075047Y-99391689D02*
X133123047Y-99391689D01*
X136933047Y-99391689D02*
X136171047Y-99391689D01*
D11*
%TO.C,Q1*%
X171348047Y-108098689D02*
X169888047Y-108098689D01*
X171348047Y-108098689D02*
X171348047Y-109028689D01*
X171348047Y-111258689D02*
X169188047Y-111258689D01*
X171348047Y-111258689D02*
X171348047Y-110328689D01*
D10*
%TO.C,R19*%
X155856047Y-88660189D02*
X154332047Y-88660189D01*
D11*
X155856047Y-89803189D02*
X155856047Y-90565189D01*
X154332047Y-89803189D02*
X154332047Y-90565189D01*
D10*
X154332047Y-91708189D02*
X155856047Y-91708189D01*
D11*
%TO.C,Q2*%
X167538047Y-108098689D02*
X166078047Y-108098689D01*
X167538047Y-108098689D02*
X167538047Y-109028689D01*
X167538047Y-111258689D02*
X165378047Y-111258689D01*
X167538047Y-111258689D02*
X167538047Y-110328689D01*
D10*
%TO.C,C1*%
X132551547Y-96978689D02*
X132551547Y-98502689D01*
D11*
X133694547Y-96978689D02*
X134456547Y-96978689D01*
X133694547Y-98502689D02*
X134456547Y-98502689D01*
D10*
X135599547Y-98502689D02*
X135599547Y-96978689D01*
%TO.C,C3*%
X141124047Y-101487189D02*
X139600047Y-101487189D01*
D11*
X141124047Y-102630189D02*
X141124047Y-103392189D01*
X139600047Y-102630189D02*
X139600047Y-103392189D01*
D10*
X139600047Y-104535189D02*
X141124047Y-104535189D01*
%TO.C,C5*%
X129059047Y-101423689D02*
X127535047Y-101423689D01*
D11*
X129059047Y-102566689D02*
X129059047Y-103328689D01*
X127535047Y-102566689D02*
X127535047Y-103328689D01*
D10*
X127535047Y-104471689D02*
X129059047Y-104471689D01*
%TO.C,C14*%
X143029047Y-101423689D02*
X141505047Y-101423689D01*
D11*
X143029047Y-102566689D02*
X143029047Y-103328689D01*
X141505047Y-102566689D02*
X141505047Y-103328689D01*
D10*
X141505047Y-104471689D02*
X143029047Y-104471689D01*
%TO.C,C15*%
X156618047Y-105233689D02*
X155094047Y-105233689D01*
D11*
X156618047Y-106376689D02*
X156618047Y-107138689D01*
X155094047Y-106376689D02*
X155094047Y-107138689D01*
D10*
X155094047Y-108281689D02*
X156618047Y-108281689D01*
%TO.C,C16*%
X141505047Y-100661689D02*
X143029047Y-100661689D01*
D11*
X141505047Y-99518689D02*
X141505047Y-98756689D01*
X143029047Y-99518689D02*
X143029047Y-98756689D01*
D10*
X143029047Y-97613689D02*
X141505047Y-97613689D01*
%TO.C,C18*%
X144934047Y-101423689D02*
X143410047Y-101423689D01*
D11*
X144934047Y-102566689D02*
X144934047Y-103328689D01*
X143410047Y-102566689D02*
X143410047Y-103328689D01*
D10*
X143410047Y-104471689D02*
X144934047Y-104471689D01*
%TO.C,C21*%
X163730047Y-108742689D02*
X162206047Y-108742689D01*
X162206047Y-108742689D02*
X162333047Y-108742689D01*
X162206047Y-108742689D02*
X162206047Y-112806689D01*
X163730047Y-112806689D02*
X163730047Y-108742689D01*
X162206047Y-112806689D02*
X163730047Y-112806689D01*
%TO.C,C22*%
X155729047Y-118568689D02*
X154205047Y-118568689D01*
D11*
X155729047Y-119711689D02*
X155729047Y-120473689D01*
X154205047Y-119711689D02*
X154205047Y-120473689D01*
D10*
X154205047Y-121616689D02*
X155729047Y-121616689D01*
%TO.C,C23*%
X153189047Y-118568689D02*
X151665047Y-118568689D01*
D11*
X153189047Y-119711689D02*
X153189047Y-120473689D01*
X151665047Y-119711689D02*
X151665047Y-120473689D01*
D10*
X151665047Y-121616689D02*
X153189047Y-121616689D01*
%TO.C,C27*%
X143029047Y-118568689D02*
X141505047Y-118568689D01*
D11*
X143029047Y-119711689D02*
X143029047Y-120473689D01*
X141505047Y-119711689D02*
X141505047Y-120473689D01*
D10*
X141505047Y-121616689D02*
X143029047Y-121616689D01*
%TO.C,C28*%
X140489047Y-118568689D02*
X138965047Y-118568689D01*
D11*
X140489047Y-119711689D02*
X140489047Y-120473689D01*
X138965047Y-119711689D02*
X138965047Y-120473689D01*
D10*
X138965047Y-121616689D02*
X140489047Y-121616689D01*
D11*
%TO.C,D1*%
X129837047Y-97877689D02*
X129837047Y-93577689D01*
X131837047Y-97877689D02*
X129837047Y-97877689D01*
X131837047Y-93577689D02*
X131837047Y-97877689D01*
D10*
%TO.C,L8*%
X159285047Y-103836689D02*
X160809047Y-103836689D01*
D11*
X159285047Y-102693689D02*
X159285047Y-101931689D01*
X160809047Y-102693689D02*
X160809047Y-101931689D01*
D10*
X160809047Y-100788689D02*
X159285047Y-100788689D01*
%TO.C,R1*%
X163539547Y-107062000D02*
X163539547Y-105538000D01*
D11*
X162396547Y-107062000D02*
X161634547Y-107062000D01*
X162396547Y-105538000D02*
X161634547Y-105538000D01*
D10*
X160491547Y-105538000D02*
X160491547Y-107062000D01*
%TO.C,R6*%
X146585047Y-112091689D02*
X148109047Y-112091689D01*
D11*
X146585047Y-110948689D02*
X146585047Y-110186689D01*
X148109047Y-110948689D02*
X148109047Y-110186689D01*
D10*
X148109047Y-109043689D02*
X146585047Y-109043689D01*
%TO.C,R7*%
X141505047Y-112091689D02*
X143029047Y-112091689D01*
D11*
X141505047Y-110948689D02*
X141505047Y-110186689D01*
X143029047Y-110948689D02*
X143029047Y-110186689D01*
D10*
X143029047Y-109043689D02*
X141505047Y-109043689D01*
%TO.C,R8*%
X138965047Y-112091689D02*
X140489047Y-112091689D01*
D11*
X138965047Y-110948689D02*
X138965047Y-110186689D01*
X140489047Y-110948689D02*
X140489047Y-110186689D01*
D10*
X140489047Y-109043689D02*
X138965047Y-109043689D01*
%TO.C,R9*%
X136425047Y-112091689D02*
X137949047Y-112091689D01*
D11*
X136425047Y-110948689D02*
X136425047Y-110186689D01*
X137949047Y-110948689D02*
X137949047Y-110186689D01*
D10*
X137949047Y-109043689D02*
X136425047Y-109043689D01*
%TO.C,R10*%
X133885047Y-112091689D02*
X135409047Y-112091689D01*
D11*
X133885047Y-110948689D02*
X133885047Y-110186689D01*
X135409047Y-110948689D02*
X135409047Y-110186689D01*
D10*
X135409047Y-109043689D02*
X133885047Y-109043689D01*
%TO.C,R13*%
X156745047Y-112091689D02*
X158269047Y-112091689D01*
D11*
X156745047Y-110948689D02*
X156745047Y-110186689D01*
X158269047Y-110948689D02*
X158269047Y-110186689D01*
D10*
X158269047Y-109043689D02*
X156745047Y-109043689D01*
%TO.C,R16*%
X154205047Y-112091689D02*
X155729047Y-112091689D01*
D11*
X154205047Y-110948689D02*
X154205047Y-110186689D01*
X155729047Y-110948689D02*
X155729047Y-110186689D01*
D10*
X155729047Y-109043689D02*
X154205047Y-109043689D01*
%TO.C,R20*%
X138330047Y-96280189D02*
X139854047Y-96280189D01*
D11*
X138330047Y-95137189D02*
X138330047Y-94375189D01*
X139854047Y-95137189D02*
X139854047Y-94375189D01*
D10*
X139854047Y-93232189D02*
X138330047Y-93232189D01*
%TO.C,R21*%
X150331547Y-108408689D02*
X150331547Y-106884689D01*
D11*
X149188547Y-108408689D02*
X148426547Y-108408689D01*
X149188547Y-106884689D02*
X148426547Y-106884689D01*
D10*
X147283547Y-106884689D02*
X147283547Y-108408689D01*
%TO.C,R22*%
X170334047Y-115012689D02*
X171858047Y-115012689D01*
D11*
X170334047Y-113869689D02*
X170334047Y-113107689D01*
X171858047Y-113869689D02*
X171858047Y-113107689D01*
D10*
X171858047Y-111964689D02*
X170334047Y-111964689D01*
%TO.C,R23*%
X166778047Y-114949189D02*
X168302047Y-114949189D01*
D11*
X166778047Y-113806189D02*
X166778047Y-113044189D01*
X168302047Y-113806189D02*
X168302047Y-113044189D01*
D10*
X168302047Y-111901189D02*
X166778047Y-111901189D01*
%TO.C,C20*%
X154586047Y-105170189D02*
X153062047Y-105170189D01*
D11*
X154586047Y-106313189D02*
X154586047Y-107075189D01*
X153062047Y-106313189D02*
X153062047Y-107075189D01*
D10*
X153062047Y-108218189D02*
X154586047Y-108218189D01*
%TO.C,C17*%
X158650047Y-105233689D02*
X157126047Y-105233689D01*
D11*
X158650047Y-106376689D02*
X158650047Y-107138689D01*
X157126047Y-106376689D02*
X157126047Y-107138689D01*
D10*
X157126047Y-108281689D02*
X158650047Y-108281689D01*
%TO.C,C2*%
X132551547Y-94946689D02*
X132551547Y-96470689D01*
D11*
X133694547Y-94946689D02*
X134456547Y-94946689D01*
X133694547Y-96470689D02*
X134456547Y-96470689D01*
D10*
X135599547Y-96470689D02*
X135599547Y-94946689D01*
%TO.C,R18*%
X151919047Y-88723689D02*
X150395047Y-88723689D01*
D11*
X151919047Y-89866689D02*
X151919047Y-90628689D01*
X150395047Y-89866689D02*
X150395047Y-90628689D01*
D10*
X150395047Y-91771689D02*
X151919047Y-91771689D01*
%TO.C,C25*%
X153824047Y-88723689D02*
X152300047Y-88723689D01*
D11*
X153824047Y-89866689D02*
X153824047Y-90628689D01*
X152300047Y-89866689D02*
X152300047Y-90628689D01*
D10*
X152300047Y-91771689D02*
X153824047Y-91771689D01*
%TO.C,C26*%
X156364047Y-87898189D02*
X157888047Y-87898189D01*
D11*
X156364047Y-86755189D02*
X156364047Y-85993189D01*
X157888047Y-86755189D02*
X157888047Y-85993189D01*
D10*
X157888047Y-84850189D02*
X156364047Y-84850189D01*
%TO.C,R5*%
X150014047Y-88723689D02*
X148490047Y-88723689D01*
D11*
X150014047Y-89866689D02*
X150014047Y-90628689D01*
X148490047Y-89866689D02*
X148490047Y-90628689D01*
D10*
X148490047Y-91771689D02*
X150014047Y-91771689D01*
%TO.C,R3*%
X144934047Y-88723689D02*
X143410047Y-88723689D01*
D11*
X144934047Y-89866689D02*
X144934047Y-90628689D01*
X143410047Y-89866689D02*
X143410047Y-90628689D01*
D10*
X143410047Y-91771689D02*
X144934047Y-91771689D01*
%TO.C,R4*%
X147474047Y-88723689D02*
X145950047Y-88723689D01*
D11*
X147474047Y-89866689D02*
X147474047Y-90628689D01*
X145950047Y-89866689D02*
X145950047Y-90628689D01*
D10*
X145950047Y-91771689D02*
X147474047Y-91771689D01*
%TO.C,R14*%
X139854047Y-88723689D02*
X138330047Y-88723689D01*
D11*
X139854047Y-89866689D02*
X139854047Y-90628689D01*
X138330047Y-89866689D02*
X138330047Y-90628689D01*
D10*
X138330047Y-91771689D02*
X139854047Y-91771689D01*
%TO.C,R2*%
X142394047Y-88723689D02*
X140870047Y-88723689D01*
D11*
X142394047Y-89866689D02*
X142394047Y-90628689D01*
X140870047Y-89866689D02*
X140870047Y-90628689D01*
D10*
X140870047Y-91771689D02*
X142394047Y-91771689D01*
%TO.C,R11*%
X134774047Y-88723689D02*
X133250047Y-88723689D01*
D11*
X134774047Y-89866689D02*
X134774047Y-90628689D01*
X133250047Y-89866689D02*
X133250047Y-90628689D01*
D10*
X133250047Y-91771689D02*
X134774047Y-91771689D01*
%TO.C,R12*%
X137314047Y-88723689D02*
X135790047Y-88723689D01*
D11*
X137314047Y-89866689D02*
X137314047Y-90628689D01*
X135790047Y-89866689D02*
X135790047Y-90628689D01*
D10*
X135790047Y-91771689D02*
X137314047Y-91771689D01*
D11*
%TO.C,Y2*%
X154257047Y-95022689D02*
X153857047Y-95022689D01*
X153857047Y-95022689D02*
X153857047Y-94222689D01*
X152057047Y-96422689D02*
X152057047Y-96662689D01*
X152057047Y-92822689D02*
X150257047Y-92822689D01*
X150257047Y-96422689D02*
X152057047Y-96422689D01*
X148457047Y-94222689D02*
X148457047Y-95022689D01*
%TO.C,U2*%
X152997047Y-99067689D02*
X152522047Y-99067689D01*
X152997047Y-99542689D02*
X152997047Y-99067689D01*
X146777047Y-99542689D02*
X146777047Y-99067689D01*
X152997047Y-103812689D02*
X152997047Y-104287689D01*
X146777047Y-103812689D02*
X146777047Y-104287689D01*
X152997047Y-104287689D02*
X152522047Y-104287689D01*
X146777047Y-104287689D02*
X147252047Y-104287689D01*
D10*
%TO.C,L7*%
X162333047Y-100306089D02*
X162333047Y-98782089D01*
D11*
X161190047Y-100306089D02*
X160428047Y-100306089D01*
X161190047Y-98782089D02*
X160428047Y-98782089D01*
D10*
X159285047Y-98782089D02*
X159285047Y-100306089D01*
%TO.C,L6*%
X165381047Y-96724689D02*
X165381047Y-95200689D01*
D11*
X164238047Y-96724689D02*
X163476047Y-96724689D01*
X164238047Y-95200689D02*
X163476047Y-95200689D01*
D10*
X162333047Y-95200689D02*
X162333047Y-96724689D01*
%TO.C,L9*%
X161571047Y-94184689D02*
X161571047Y-92660689D01*
D11*
X160428047Y-94184689D02*
X159666047Y-94184689D01*
X160428047Y-92660689D02*
X159666047Y-92660689D01*
D10*
X158523047Y-92660689D02*
X158523047Y-94184689D01*
%TO.C,L5*%
X166143047Y-100306089D02*
X166143047Y-98782089D01*
D11*
X165000047Y-100306089D02*
X164238047Y-100306089D01*
X165000047Y-98782089D02*
X164238047Y-98782089D01*
D10*
X163095047Y-98782089D02*
X163095047Y-100306089D01*
%TO.C,L10*%
X157634047Y-93168689D02*
X156110047Y-93168689D01*
D11*
X157634047Y-94311689D02*
X157634047Y-95073689D01*
X156110047Y-94311689D02*
X156110047Y-95073689D01*
D10*
X156110047Y-96216689D02*
X157634047Y-96216689D01*
%TO.C,C7*%
X167921047Y-101195089D02*
X166397047Y-101195089D01*
D11*
X167921047Y-102338089D02*
X167921047Y-103100089D01*
X166397047Y-102338089D02*
X166397047Y-103100089D01*
D10*
X166397047Y-104243089D02*
X167921047Y-104243089D01*
%TO.C,C9*%
X162841047Y-101195089D02*
X161317047Y-101195089D01*
D11*
X162841047Y-102338089D02*
X162841047Y-103100089D01*
X161317047Y-102338089D02*
X161317047Y-103100089D01*
D10*
X161317047Y-104243089D02*
X162841047Y-104243089D01*
%TO.C,C13*%
X158396047Y-91835189D02*
X159920047Y-91835189D01*
D11*
X158396047Y-90692189D02*
X158396047Y-89930189D01*
X159920047Y-90692189D02*
X159920047Y-89930189D01*
D10*
X159920047Y-88787189D02*
X158396047Y-88787189D01*
%TO.C,C10*%
X162460047Y-94311689D02*
X163984047Y-94311689D01*
D11*
X162460047Y-93168689D02*
X162460047Y-92406689D01*
X163984047Y-93168689D02*
X163984047Y-92406689D01*
D10*
X163984047Y-91263689D02*
X162460047Y-91263689D01*
%TO.C,C11*%
X156745047Y-101931689D02*
X158269047Y-101931689D01*
D11*
X156745047Y-100788689D02*
X156745047Y-100026689D01*
X158269047Y-100788689D02*
X158269047Y-100026689D01*
D10*
X158269047Y-98883689D02*
X156745047Y-98883689D01*
%TO.C,C4*%
X171731047Y-101195089D02*
X170207047Y-101195089D01*
D11*
X171731047Y-102338089D02*
X171731047Y-103100089D01*
X170207047Y-102338089D02*
X170207047Y-103100089D01*
D10*
X170207047Y-104243089D02*
X171731047Y-104243089D01*
%TO.C,C12*%
X158523047Y-95200689D02*
X158523047Y-96724689D01*
D11*
X159666047Y-95200689D02*
X160428047Y-95200689D01*
X159666047Y-96724689D02*
X160428047Y-96724689D01*
D10*
X161571047Y-96724689D02*
X161571047Y-95200689D01*
%TO.C,C6*%
X168810047Y-94311689D02*
X170334047Y-94311689D01*
D11*
X168810047Y-93168689D02*
X168810047Y-92406689D01*
X170334047Y-93168689D02*
X170334047Y-92406689D01*
D10*
X170334047Y-91263689D02*
X168810047Y-91263689D01*
%TO.C,C8*%
X165635047Y-94311689D02*
X167159047Y-94311689D01*
D11*
X165635047Y-93168689D02*
X165635047Y-92406689D01*
X167159047Y-93168689D02*
X167159047Y-92406689D01*
D10*
X167159047Y-91263689D02*
X165635047Y-91263689D01*
%TO.C,L3*%
X169953047Y-100306089D02*
X169953047Y-98782089D01*
D11*
X168810047Y-100306089D02*
X168048047Y-100306089D01*
X168810047Y-98782089D02*
X168048047Y-98782089D01*
D10*
X166905047Y-98782089D02*
X166905047Y-100306089D01*
%TO.C,L4*%
X169191047Y-96724689D02*
X169191047Y-95200689D01*
D11*
X168048047Y-96724689D02*
X167286047Y-96724689D01*
X168048047Y-95200689D02*
X167286047Y-95200689D01*
D10*
X166143047Y-95200689D02*
X166143047Y-96724689D01*
%TO.C,L1*%
X173636047Y-100280689D02*
X173636047Y-98756689D01*
D11*
X172493047Y-100280689D02*
X171731047Y-100280689D01*
X172493047Y-98756689D02*
X171731047Y-98756689D01*
D10*
X170588047Y-98756689D02*
X170588047Y-100280689D01*
%TO.C,L2*%
X173001047Y-96724689D02*
X173001047Y-95200689D01*
D11*
X171858047Y-96724689D02*
X171096047Y-96724689D01*
X171858047Y-95200689D02*
X171096047Y-95200689D01*
D10*
X169953047Y-95200689D02*
X169953047Y-96724689D01*
%TO.C,C19*%
X160809047Y-108408689D02*
X159285047Y-108408689D01*
D11*
X160809047Y-109551689D02*
X160809047Y-110313689D01*
X159285047Y-109551689D02*
X159285047Y-110313689D01*
D10*
X159285047Y-111456689D02*
X160809047Y-111456689D01*
%TD*%
M02*
